<?xml version="1.0" encoding="iso-8859-1"?>
<!-- Generator: Adobe Illustrator 15.1.0, SVG Export Plug-In . SVG Version: 6.00 Build 0)  -->
<!DOCTYPE svg PUBLIC "-//W3C//DTD SVG 1.1//EN" "http://www.w3.org/Graphics/SVG/1.1/DTD/svg11.dtd">
<svg version="1.1" id="Layer_1" xmlns="http://www.w3.org/2000/svg" xmlns:xlink="http://www.w3.org/1999/xlink" x="0px" y="0px"
	 width="72px" height="17.7px" viewBox="0 0 72 17.7" style="enable-background:new 0 0 72 17.7;" xml:space="preserve">
<g>
	<path style="fill-rule:evenodd;clip-rule:evenodd;fill:#585D3B;" d="M28.2,9.2C29,9.5,29.583,9.6,29.95,9.5
		c0.267-0.066,0.517-0.316,0.75-0.75c0.167-0.4,0.4-0.617,0.7-0.65c0.1-0.333,0.033-0.65-0.2-0.95c-0.267-0.3-0.483-0.55-0.65-0.75
		c0.067-0.066,0.2-0.133,0.4-0.2c0.167-0.067,0.283-0.15,0.35-0.25l0.05-0.2l0.2,0.05c0.067,0.167,0.117,0.35,0.15,0.55
		c0.1,0.133,0.25,0.25,0.45,0.35c0.167,0.066,0.567,0.117,1.2,0.15c-0.8,0.467-1.233,0.767-1.3,0.9
		c-0.133,0.367,0.05,0.567,0.55,0.6c0.233,0.033,0.566,0.033,1,0c0-0.1,0-0.184,0-0.25c0.033-1.333,0.083-2.167,0.15-2.5
		c0.2,0.467,0.3,1.117,0.3,1.95c0,0.434-0.017,1.083-0.05,1.95c0,0.467-0.017,0.833-0.05,1.1c0.233-0.1,0.517-0.25,0.85-0.449
		c-0.066,0.466-0.083,0.8-0.05,1c0.4,0.066,0.75,0.017,1.05-0.15c0.3-0.2,0.45-0.5,0.45-0.9c0.2,0.767,0.616,1.134,1.25,1.101
		c0.5-0.101,0.7-0.334,0.6-0.7c0.2,0.5,0.567,0.866,1.101,1.1c0.5,0.233,1.033,0.284,1.6,0.15l0.15-0.7
		c0.366,0.667,0.583,1.05,0.649,1.15c0.267,0.3,0.65,0.416,1.15,0.35c0.366-0.066,0.566-0.233,0.6-0.5c0-0.399,0-0.733,0-1
		c0.167,1.134,0.767,1.634,1.801,1.5c0.366-0.033,0.6-0.166,0.699-0.399c0.067-0.167,0.084-0.45,0.051-0.851
		c0.066,0.367,0.283,0.684,0.649,0.95c0.367,0.267,0.7,0.316,1,0.15c0.4-0.233,0.5-0.884,0.3-1.95c0.7,0.566,1.601,0.75,2.7,0.55
		c0.066-0.134,0.084-0.333,0.05-0.6c0-0.267,0.017-0.467,0.051-0.601c0.333,0.033,0.816,0.134,1.449,0.3
		c0.034-0.833-0.166-1.6-0.6-2.3c0.066,0,0.717,0.083,1.95,0.25c0.833,0.1,1.483,0.05,1.95-0.15c0.166-0.533-0.067-1.117-0.7-1.75
		L54.65,6.2c-0.2,0.066-0.367,0.066-0.5,0C53.983,6.1,53.934,5.95,54,5.75c0.267,0,0.5,0.133,0.7,0.4c0.333-0.3-0.3-1.233-1.9-2.8
		h1.15H54c0.066,0.066,0.184,0.183,0.35,0.35c0.067,0.033,0.117,0.066,0.15,0.1l0.15,0.15c0.166,0.167,0.383,0.367,0.649,0.6
		c0.033,0.033,0.083,0.083,0.15,0.15c-0.032-0.035-0.032-0.068,0-0.1c-0.033-0.733-0.101-1.333-0.2-1.8
		c-0.134-0.8-0.333-1.316-0.6-1.55c-0.5-0.5-1-0.783-1.5-0.85c1.066,0.033,1.616,0.05,1.649,0.05c0.8,0.167,1.25,0.583,1.351,1.25
		L56.3,5.3v0.05c0.066,0.033,0.134,0.066,0.2,0.1C56.533,5.383,56.7,5.2,57,4.9v0.2c0.033,0.2,0.083,0.4,0.15,0.6H57.1
		c-0.133,0-0.216,0.117-0.25,0.35c-0.033,0.167-0.05,0.367-0.05,0.6c0.033-0.1,0.084-0.183,0.15-0.25
		c0.066-0.133,0.166-0.267,0.3-0.4c0.1-0.167,0.217-0.333,0.35-0.5c0.101-0.133,0.267-0.483,0.5-1.05
		C58.267,4.017,58.467,3.7,58.7,3.5c0.566-0.4,1.25-0.367,2.05,0.1c0.467,0.233,1.134,0.617,2,1.15c-0.467-0.1-1.017-0.133-1.65-0.1
		c-0.366,0.033-0.666,0.1-0.899,0.2c-0.033-0.033-0.066-0.033-0.101,0c-0.033,0-0.066,0-0.1,0h-0.05c-0.367,0-0.684,0.183-0.95,0.55
		l-0.85,0.35C57.884,5.817,57.6,6.117,57.3,6.65c-0.267,0.533-0.35,0.934-0.25,1.2c0.134,0.333,0.334,0.4,0.601,0.2
		c0.233-0.167,0.399-0.383,0.5-0.65c0.366-1,0.583-1.55,0.649-1.65c0.2-0.067,0.434-0.067,0.7,0c0.066,0.033,0.134,0.1,0.2,0.2V6
		c-0.066,0.233-0.483,0.767-1.25,1.6c-0.566,0.667-0.783,1.283-0.65,1.85c0.167,0.066,0.367,0.083,0.601,0.05
		c0.3-0.033,0.5-0.05,0.6-0.05l0.6,0.2c0.367,0.133,0.601,0.166,0.7,0.1c0.066-0.033,0.184-0.2,0.351-0.5
		c0.966,0.333,1.633,0.217,2-0.35l0.55-1.1c0.233-0.466,0.517-0.783,0.85-0.95L64.3,6.8v0.05c0.033,0.033,0.05,0.1,0.05,0.2
		c0,0.133-0.017,0.284-0.05,0.45c0.167,0,0.384,0.017,0.65,0.05c0.066-0.1,0.149-0.216,0.25-0.35c0.3-0.434,0.649-0.717,1.05-0.85
		c0.267-0.1,0.667-0.083,1.2,0.05s0.816,0.317,0.85,0.55c-0.166,0.133-0.483,0.2-0.95,0.2c-0.267,0-0.483,0.017-0.649,0.05l0.8-0.3
		c-0.267,0.067-0.667,0.117-1.2,0.15c-0.5,0.067-0.833,0.267-1,0.6L65.05,7.7C64.684,7.833,64.4,8.15,64.2,8.65
		c-0.101,0.267-0.15,0.534-0.15,0.8c-0.066-0.066-0.133-0.117-0.2-0.15c0.067,0.101,0.134,0.184,0.2,0.25
		c-0.033,0.134-0.033,0.267,0,0.4c0.066,0,0.15,0.017,0.25,0.05c0.167,0.333,0.267,0.616,0.3,0.85L64.45,10.7v0.85v0.05
		c-0.167,0.134-0.417,0.15-0.75,0.051c-0.334-0.134-0.533-0.284-0.601-0.45c0.067,0.267,0.017,0.483-0.149,0.649l-0.4-0.25l0.2,0.45
		c-0.3,0.2-0.667,0.25-1.1,0.15c-0.334-0.101-0.534-0.25-0.601-0.45c0.033,0.434-0.316,0.616-1.05,0.55
		c-0.833-0.1-1.217-0.416-1.15-0.95c-0.166,0.334-0.466,0.584-0.899,0.75c-0.4,0.167-0.783,0.2-1.15,0.101
		c-0.166-0.434-0.083-0.733,0.25-0.9c-0.366,0.167-0.717,0.184-1.05,0.05c-0.333-0.133-0.483-0.466-0.45-1l0.05-0.5l0.15-0.05
		c0.2-0.166,0.3-0.633,0.3-1.4l0.55-1c-0.033-0.1-0.033-0.2,0-0.3h-0.05c-0.033,0.066-0.083,0.117-0.149,0.15
		c-0.134,0.1-0.25,0.117-0.351,0.05c0.134-1.4,0.017-3.216-0.35-5.45v1.2c0,0.5-0.017,1.25-0.05,2.25c0,0.9,0.033,1.65,0.1,2.25
		c0.066,0.067,0.15,0.067,0.25,0c0.033,0.233,0.05,0.517,0.05,0.85c-0.2,0.434-0.35,0.917-0.45,1.45
		c-0.233,0.167-0.583,0.217-1.05,0.15c-0.399-0.066-0.684-0.184-0.85-0.35c0.233,0.267,0.434,0.616,0.6,1.05
		c0.267,0.6,0.233,0.983-0.1,1.149c-0.267,0.167-0.467,0.101-0.601-0.199c0.067,0.633,0,1.216-0.199,1.75
		c-0.334-0.067-0.567-0.2-0.7-0.4c-0.2,0.333-0.334,0.566-0.4,0.7c-0.166,0.267-0.366,0.45-0.6,0.55L51.6,14
		c-0.267,0-0.533,0.066-0.8,0.2c-0.233-0.066-0.399-0.066-0.5,0c-0.1,0.066-0.217,0.184-0.35,0.35l-1.05,0.5h-0.15l-0.4,0.15
		c-1.233,0.3-2.449,0.3-3.649,0c0-0.3-0.033-0.533-0.101-0.7c-0.666,0.467-1.233,0.684-1.699,0.65
		c-0.233-0.101-0.434-0.134-0.601-0.101l-0.05-0.85c-0.167,0.033-0.366,0.2-0.6,0.5c-0.233,0.333-0.45,0.533-0.65,0.6
		c-0.667,0.267-1.134,0.05-1.4-0.649C39.467,14.816,39.4,15.1,39.4,15.5c-0.667,0.1-1.4-0.15-2.2-0.75c-0.5-0.333-0.767-0.8-0.8-1.4
		l0.05-0.949c-0.2-0.267-0.4-0.317-0.6-0.15c-0.167,0.167-0.283,0.434-0.35,0.8c0,0.101,0.017,0.3,0.05,0.601
		c0.067,0.233,0.067,0.399,0,0.5L35.4,13.8c-0.033,0.467-0.233,0.783-0.6,0.95c-0.367,0.2-0.783,0.2-1.25,0
		c-0.4-0.167-0.55-0.5-0.45-1c-0.6,0.233-1.25,0.25-1.95,0.05c-0.167-0.3-0.083-0.6,0.25-0.899c0.167-0.167,0.417-0.384,0.75-0.65
		c-0.933-0.3-1.617-0.816-2.05-1.55c0,0.166,0.017,0.566,0.05,1.2c0,0.433-0.05,0.75-0.15,0.949c-0.033-0.033-0.05-0.066-0.05-0.1
		c-0.167-0.333-0.284-0.566-0.35-0.7c-0.467-0.866-0.983-1.633-1.55-2.3C28.15,9.65,28.2,9.467,28.2,9.2z M58.85,5.65
		c0.034-0.1,0.084-0.183,0.15-0.25l0.1-0.05C59,5.45,58.917,5.55,58.85,5.65z M28.15,8.95c-0.133-0.534-0.316-0.934-0.55-1.2
		c0.467,0.1,0.917,0.15,1.35,0.15c0.267,0.5,0.333,0.817,0.2,0.95C29.05,8.983,28.717,9.017,28.15,8.95z M65.85,7.75
		c0.067,0.4,0.067,0.833,0,1.3L65.8,9.65c-0.033-0.101-0.083-0.2-0.149-0.301c-0.233-0.233-0.367-0.383-0.4-0.45
		c-0.1-0.3-0.116-0.65-0.05-1.05c0.033-0.067,0.066-0.133,0.1-0.2l0.5-0.15c-0.1,0.033-0.184,0.1-0.25,0.2
		C65.65,7.7,65.75,7.717,65.85,7.75z M5.05,15.85L5,15.7L4.5,15.85c-0.3-0.066-0.483-0.133-0.55-0.199
		c0.233-0.267,0.65-0.634,1.25-1.101H5.15c-0.433,0.233-0.8,0.3-1.1,0.2c-0.267-0.1-0.35-0.283-0.25-0.55v-0.05
		c0.233-0.034,0.434-0.034,0.6,0c-0.3-0.233-0.566-0.384-0.8-0.45c-0.667-0.101-1.133-0.25-1.4-0.45c0.633-0.066,1.267-0.066,1.9,0
		c0.4,0.066,0.717,0.15,0.95,0.25c0.034-0.033,0.083-0.066,0.15-0.1c0.3-0.2,0.667-0.267,1.1-0.2c-0.367-0.533-0.3-1,0.2-1.4
		c0.067-0.066,0.15-0.1,0.25-0.1c0.067,0,0.133,0,0.2,0c0.3,0.033,0.566,0.1,0.8,0.2H7.7c-0.5,0.433-0.7,0.783-0.6,1.05
		C7.2,13.283,7.5,13.4,8,13.3c0.433-0.133,0.767-0.333,1-0.6c-0.233,0.666-0.35,1.05-0.35,1.149c0.5,0.101,1.05,0.067,1.65-0.1
		c0.034,0,0.067,0,0.1,0c0.367,0.066,0.95,0.1,1.75,0.1L11.1,13.4c-0.267-0.134-0.633-0.434-1.1-0.9
		c-0.467-0.434-0.867-0.733-1.2-0.9c-0.533-0.267-1.167-0.416-1.9-0.449c-0.833,0.033-1.483,0.033-1.95,0
		c0.2,0.133,0.533,0.25,1,0.35c-0.4-0.033-0.767-0.05-1.1-0.05c-1-0.033-1.767-0.05-2.3-0.05c-0.733,0-1.333,0.083-1.8,0.25
		L2.6,10.9c0.9-0.334,1.667-0.5,2.3-0.5c0.9,0,1.75,0.1,2.55,0.3c0.367,0.1,0.733,0.217,1.1,0.35c0-0.033,0-0.066,0-0.1L9.1,10.9
		L9.05,11c-0.1,0.033-0.183,0.083-0.25,0.15c0.067,0,0.133,0.017,0.2,0.05c0.367,0.166,0.733,0.35,1.1,0.55
		c0.233,0.134,0.467,0.283,0.7,0.45c0.034,0.033,0.3,0.25,0.8,0.649c0.2,0.167,0.383,0.301,0.55,0.4
		c0.434-0.233,0.783-0.616,1.05-1.15h0.2l0.45,0.15c0.5,0.1,1.183-0.384,2.05-1.45l0.15-0.05c0.067,0.066,0.083,0.267,0.05,0.6
		c-0.033,0.233,0.066,0.384,0.3,0.45c0.197,0.033,0.397-0.051,0.6-0.25c-0.238,0.242-0.521,0.692-0.85,1.351
		c-0.3,0.666-0.717,1.066-1.25,1.199c-0.2,0.101-0.417,0.134-0.65,0.101c-0.267-0.033-0.417-0.167-0.45-0.4
		c0.034,0.267-0.033,0.483-0.2,0.65c-0.167,0.133-0.383,0.184-0.65,0.149c-0.1,0.5-0.383,0.767-0.85,0.801
		c-0.267,0-0.7-0.117-1.3-0.351c0.034,0.3-0.117,0.45-0.45,0.45c-0.267,0-0.517-0.083-0.75-0.25c-0.167,0.333-0.533,0.533-1.1,0.6
		c-0.467,0.034-0.917-0.033-1.35-0.199c0.033-0.067,0.05-0.2,0.05-0.4C6.733,15.65,6.017,15.85,5.05,15.85z M8.85,9.5
		c0.133-0.134,0.333-0.267,0.6-0.4L10,9.2C9.367,9.4,8.967,9.533,8.8,9.6H8.75C8.783,9.566,8.817,9.533,8.85,9.5z M23.5,11.65
		l0.35-0.051L24.1,11.7c0.8,0.133,1.283,0.149,1.45,0.05c0.1-0.033,0.2-0.15,0.3-0.35c0.1-0.2,0.217-0.334,0.35-0.4
		c0.1,0.2,0.2,0.4,0.3,0.6c0.333,0.834,0.733,1.417,1.2,1.75c0,0.101,0,0.217,0,0.351c-0.633-0.101-1.133-0.334-1.5-0.7
		c-0.034,0.6-0.25,0.934-0.65,1c-0.4,0.066-0.7-0.2-0.9-0.8c-0.333,0.366-0.617,0.649-0.85,0.85c-0.466,0.367-0.85,0.45-1.15,0.25
		c-0.233-0.233-0.233-0.6,0-1.1c-0.167,0.233-0.433,0.416-0.8,0.55c-0.434,0.1-0.767,0.083-1-0.05c-0.2-0.134-0.283-0.283-0.25-0.45
		c0-0.066,0.05-0.283,0.15-0.65c-0.4,0.334-1.15,0.5-2.25,0.5L18.45,13l-0.05,0.1c-0.767,0-1.25-0.149-1.45-0.449
		c-0.034-0.067-0.05-0.15-0.05-0.25l0.05-0.351l0.05-0.2c0.033-0.1,0.067-0.216,0.1-0.35c0.1-0.1,0.233-0.233,0.4-0.4
		c-0.033,0.167-0.117,0.434-0.25,0.801c-0.067,0.3,0.033,0.5,0.3,0.6c0.5,0.2,0.967-0.033,1.4-0.7c0.1,0.3,0.216,0.5,0.35,0.601
		c0.133,0.066,0.35,0.1,0.65,0.1c0.433,0.033,0.733-0.033,0.9-0.2c0.1-0.133,0.167-0.416,0.2-0.85c0.133-0.033,0.217,0,0.25,0.1
		c0.034,0.134,0.1,0.217,0.2,0.25c0.667,0.334,1.2,0.417,1.6,0.25l0.35-0.3L23.5,11.65z M29.7,4.6l-0.05,0.2l0.2,0.65L29.5,5.5
		c0-0.2,0.05-0.433,0.15-0.7l-0.3-0.5c-0.267-0.433-0.5-0.7-0.7-0.8l0.65,0.05c-0.033,0.333,0.133,0.567,0.5,0.7L29.35,4.3L29.7,4.6
		z M29.9,7.45c-0.033-0.267-0.2-0.583-0.5-0.95c0.3,0.1,0.483,0,0.55-0.3c0.1,0.2,0.15,0.45,0.15,0.75
		C30.067,7.217,30,7.383,29.9,7.45z"/>
	<path style="fill-rule:evenodd;clip-rule:evenodd;fill:#6D7247;" d="M64.3,6.8l-0.25,0.05c-0.333,0.167-0.616,0.483-0.85,0.95
		l-0.55,1.1c-0.367,0.567-1.034,0.683-2,0.35c-0.167,0.3-0.284,0.467-0.351,0.5c-0.1,0.066-0.333,0.033-0.7-0.1L59,9.45
		c-0.1,0-0.3,0.017-0.6,0.05c-0.233,0.033-0.434,0.017-0.601-0.05c-0.133-0.567,0.084-1.184,0.65-1.85
		c0.767-0.833,1.184-1.367,1.25-1.6c0.033,0.033,0.05,0.067,0.05,0.1c0.066,0.167,0.167,0.267,0.3,0.3
		c0.2,0.033,0.434-0.05,0.7-0.25c0.3-0.233,0.5-0.35,0.6-0.35C62.116,5.7,62.8,5.767,63.4,6C63.866,6.2,64.167,6.467,64.3,6.8z
		 M68.6,9.35C68.366,9.116,67.95,9,67.35,9c-0.033-0.033-0.3-0.033-0.8,0c0.2-0.033,0.417-0.05,0.65-0.05
		C67.9,8.95,68.366,9.083,68.6,9.35z M70.7,11.4c-0.066-0.034-0.15-0.101-0.25-0.2c0.133,0.1,0.267,0.184,0.399,0.25L70.7,11.4z
		 M50.05,16.9c0.066-0.034,0.15-0.067,0.25-0.101c0.867-0.267,1.533-0.649,2-1.149c0.066,0,0.351-0.101,0.851-0.301
		c-0.233,0.134-0.417,0.217-0.551,0.25c-0.066,0.034-0.149,0.051-0.25,0.051c-0.399,0.433-1,0.8-1.8,1.1
		C50.384,16.816,50.217,16.866,50.05,16.9z M18.8,15.95c0.133-0.033,0.267-0.05,0.4-0.05c0.433-0.034,0.85-0.051,1.25-0.051
		C19.917,15.884,19.367,15.917,18.8,15.95z M14.75,16.35c0.064-0.063,0.147-0.097,0.25-0.1c-0.071,0.004-0.138,0.037-0.2,0.1H14.75z
		 M2.65,15.35L1.6,15.8c-0.3,0.101-0.55,0.25-0.75,0.45C1.15,15.917,1.75,15.616,2.65,15.35z M9.1,10.9l-0.55,0.05
		c0.133-0.267,0.184-0.617,0.15-1.05C8.7,9.8,8.733,9.7,8.8,9.6C8.967,9.533,9.367,9.4,10,9.2L9.45,9.1
		c-0.267,0.134-0.467,0.267-0.6,0.4C8.983,9.333,9.2,9.184,9.5,9.05c0.367-0.133,1.117-0.066,2.25,0.2
		c0.067-0.6,0.117-1.067,0.15-1.4c0.1-0.533,0.367-0.9,0.8-1.1c0.333-0.167,0.783-0.167,1.35,0c0.233,0.1,0.467,0.217,0.7,0.35
		c-0.333-0.1-0.7-0.133-1.1-0.1c-0.433,0-0.7,0.05-0.8,0.15c-0.233,0.267-0.233,0.517,0,0.75c0.2,0.233,0.467,0.367,0.8,0.4
		C13.317,8.333,13,8.417,12.7,8.55c-0.333,0.2-0.483,0.417-0.45,0.65c0.033,0.333,0.4,0.467,1.1,0.399
		c0.566-0.033,1.083-0.166,1.55-0.399c-0.3,0.233-0.5,0.5-0.6,0.8c-0.133,0.333-0.083,0.616,0.15,0.85
		c0.167,0.167,0.65,0.15,1.45-0.05c-0.867,1.066-1.55,1.55-2.05,1.45L13.4,12.1c0.1-0.033,0.184-0.116,0.25-0.25l0.15-0.399
		l-0.6-0.15c-0.133,0.267-0.184,0.517-0.15,0.75l0.15,0.05c-0.267,0.534-0.617,0.917-1.05,1.15c-0.167-0.1-0.35-0.233-0.55-0.4
		c-0.5-0.399-0.767-0.616-0.8-0.649c-0.233-0.167-0.466-0.316-0.7-0.45c0.033-0.033,0.05-0.066,0.05-0.1
		c0.133-0.267,0.3-0.634,0.5-1.101L10.8,10.4c-0.733-0.067-1.25,0.033-1.55,0.3L9.1,10.9z M15.15,6.8l0.05,0.05h-0.05V6.8z
		 M28.95,7.9c-0.434,0-0.883-0.05-1.35-0.15c0.233,0.267,0.417,0.667,0.55,1.2h-0.6L28.2,9.2c0,0.267-0.05,0.45-0.15,0.55
		c-0.267-0.333-0.55-0.634-0.85-0.9c-0.467-0.4-1.05-0.633-1.75-0.7c0.066-0.1,0.1-0.2,0.1-0.3c0.133-0.667-0.033-1.017-0.5-1.05
		c0.367-0.033,0.65-0.233,0.85-0.6c0.133-0.333,0.167-0.717,0.1-1.15c0-0.233,0-0.383,0-0.45c-0.033-0.133-0.167-0.184-0.4-0.15
		L25.25,4.8c0.267-0.4,0.317-0.833,0.15-1.3c-0.133-0.467-0.45-0.75-0.95-0.85l-0.2-0.05c0.133-0.2,0.3-0.333,0.5-0.4
		c0.2-0.067,0.6,0.017,1.2,0.25c0.1-1.7,0.517-2.517,1.25-2.45c0.4,0.033,0.816,0.483,1.25,1.35c0.233,0.5,0.5,1.133,0.8,1.9
		c0.4-0.667,1-0.75,1.8-0.25c0.5,0.333,0.817,0.7,0.95,1.1c0.133-0.367,0.533-0.517,1.2-0.45C34.167,3.717,34.867,4,35.3,4.5
		c-0.167-1.033,0.417-1.633,1.75-1.8c1.167-0.133,2.134,0.05,2.9,0.55C39.35,2.883,38.6,2.7,37.7,2.7l0.05,0.1
		c-0.4,0.067-0.684,0.167-0.85,0.3c0.033,0.1,0.033,0.183,0,0.25c-0.367,0.1-0.634,0.183-0.801,0.25
		c-0.333,0.133-0.5,0.316-0.5,0.55c0.933,0.333,2.233,0.467,3.9,0.4c-1.1,0.133-1.816,0.417-2.15,0.85
		c-0.3,0.4-0.116,0.567,0.551,0.5C37.6,5.967,37.333,6.083,37.1,6.25C36.634,6.483,36.434,6.733,36.5,7
		c0.033,0.333,0.634,0.433,1.8,0.3c-0.133,0.233-0.149,0.417-0.05,0.55c0.1,0.167,0.333,0.233,0.7,0.2
		c0.366-0.033,0.583-0.133,0.649-0.3c-0.033,0.533,0.034,0.9,0.2,1.1c0.167,0.2,0.533,0.317,1.101,0.35
		c0.8,0.066,1.267-0.15,1.399-0.65c0.066,0.767,0.45,1.184,1.15,1.25c0.5,0.066,0.816-0.05,0.95-0.35
		c0.1-0.167,0.149-0.534,0.149-1.1c0.367,0.433,1.066,0.633,2.101,0.6c1.033,0,1.267-0.35,0.699-1.05
		C49.217,8.333,50.1,7.983,50,6.85c-0.3-0.133-0.767-0.2-1.4-0.2c1.567-0.066,2.134-0.517,1.7-1.35
		c-0.133-0.2-0.434-0.367-0.899-0.5c-0.467-0.133-0.884-0.167-1.25-0.1c0.133-0.333,0.1-0.6-0.101-0.8
		c-0.166-0.2-0.533-0.316-1.1-0.35c-0.533-0.033-0.967,0.034-1.3,0.2L45.6,4.15c-0.133-0.967,0.5-1.483,1.9-1.55
		c1.267-0.067,1.95,0.267,2.05,1c-0.066-0.867,0.017-1.434,0.25-1.7c1.367,0.233,2.167,0.617,2.4,1.15V3
		c0.533-0.233,1.116-0.117,1.75,0.35H52.8c1.601,1.566,2.233,2.5,1.9,2.8c-0.2-0.267-0.434-0.4-0.7-0.4
		c-0.066,0.2-0.017,0.35,0.15,0.45c0.133,0.066,0.3,0.066,0.5,0l0.05-0.05c0.633,0.633,0.866,1.217,0.7,1.75
		c-0.467,0.2-1.117,0.25-1.95,0.15C52.217,7.883,51.566,7.8,51.5,7.8c0.434,0.7,0.634,1.467,0.6,2.3
		c-0.633-0.166-1.116-0.267-1.449-0.3C50.616,9.934,50.6,10.134,50.6,10.4c0.034,0.267,0.017,0.466-0.05,0.6
		c-1.1,0.2-2,0.017-2.7-0.55c0.2,1.066,0.101,1.717-0.3,1.95c-0.3,0.166-0.633,0.116-1-0.15c-0.366-0.267-0.583-0.583-0.649-0.95
		c0.033,0.4,0.017,0.684-0.051,0.851c-0.1,0.233-0.333,0.366-0.699,0.399c-1.034,0.134-1.634-0.366-1.801-1.5c0,0.267,0,0.601,0,1
		c-0.033,0.267-0.233,0.434-0.6,0.5c-0.5,0.066-0.884-0.05-1.15-0.35c-0.066-0.101-0.283-0.483-0.649-1.15l-0.15,0.7
		c-0.566,0.134-1.1,0.083-1.6-0.15c-0.533-0.233-0.9-0.6-1.101-1.1c0.101,0.366-0.1,0.6-0.6,0.7c-0.634,0.033-1.05-0.334-1.25-1.101
		c0,0.4-0.15,0.7-0.45,0.9c-0.3,0.167-0.65,0.217-1.05,0.15c-0.033-0.2-0.017-0.534,0.05-1c-0.333,0.199-0.617,0.35-0.85,0.449
		C33.983,10.333,34,9.967,34,9.5c0.033-0.867,0.05-1.517,0.05-1.95c0-0.833-0.1-1.483-0.3-1.95c-0.067,0.333-0.117,1.167-0.15,2.5
		c0,0.066,0,0.15,0,0.25c-0.434,0.033-0.767,0.033-1,0c-0.5-0.033-0.684-0.233-0.55-0.6c0.067-0.133,0.5-0.433,1.3-0.9
		c-0.633-0.033-1.033-0.083-1.2-0.15c-0.2-0.1-0.35-0.217-0.45-0.35c-0.034-0.2-0.083-0.383-0.15-0.55l-0.2-0.05
		c0.066-0.533,0-0.983-0.2-1.35c-0.066-0.133-0.417-0.566-1.05-1.3l-0.3-0.35c-0.167,0.067-0.3,0.167-0.4,0.3
		c0.3,0.467,0.467,0.867,0.5,1.2h-0.1c-0.367-0.133-0.533-0.367-0.5-0.7L28.65,3.5c0.2,0.1,0.434,0.367,0.7,0.8l0.3,0.5
		c-0.1,0.267-0.15,0.5-0.15,0.7c-0.3,0-0.5,0.033-0.6,0.1l0.6,0.1l0.05,0.05c0.167,0.067,0.3,0.217,0.4,0.45
		c-0.067,0.3-0.25,0.4-0.55,0.3c0.3,0.367,0.467,0.683,0.5,0.95c-0.1,0.167-0.45,0.25-1.05,0.25L28.95,7.9z M41.5,2.15L41.1,2.6
		l-0.55-0.15c-0.166,0.133-0.3,0.267-0.399,0.4C40.417,2.417,40.866,2.183,41.5,2.15z M45.45,3.95l-0.15,0.1v-0.3
		C45.333,3.817,45.384,3.883,45.45,3.95z M55.45,4.6c-0.032,0.032-0.032,0.065,0,0.1c-0.067-0.067-0.117-0.117-0.15-0.15
		c-0.267-0.233-0.483-0.433-0.649-0.6C54.95,4.183,55.217,4.4,55.45,4.6z M56.5,5.45c-0.066-0.034-0.134-0.067-0.2-0.1V5.3
		C56.4,5.367,56.467,5.417,56.5,5.45z M61.15,6.5c-0.634,0-1,0-1.101,0c-0.533,0.067-0.866,0.267-1,0.6
		c-0.166,0.533,0.167,0.8,1,0.8c0.467-0.033,0.783-0.167,0.95-0.4C61.134,7.3,61.184,6.967,61.15,6.5z M41.7,10.7
		c0.967,0.166,1.566,0.017,1.8-0.45l-1.2-0.3c-0.2-0.033-0.366,0.033-0.5,0.2C41.667,10.316,41.634,10.5,41.7,10.7z M48,9.65
		L47.55,9.2c-0.033,0.133-0.017,0.333,0.05,0.6C47.767,9.866,47.9,9.816,48,9.65z M46.2,10.25L45.6,10.1l-0.149,0.75
		c0.233,0.067,0.434,0.034,0.6-0.1C46.217,10.616,46.267,10.45,46.2,10.25z M29.7,4.6c0.233,0.1,0.367,0.233,0.4,0.4
		c0.066,0.233-0.017,0.383-0.25,0.45l-0.2-0.65L29.7,4.6z M23.5,11.65l-0.05,0.1l-0.35,0.3c-0.4,0.167-0.934,0.084-1.6-0.25
		c-0.1-0.033-0.167-0.116-0.2-0.25c-0.033-0.1-0.117-0.133-0.25-0.1c-0.033,0.434-0.1,0.717-0.2,0.85
		c-0.167,0.167-0.467,0.233-0.9,0.2c-0.3,0-0.517-0.033-0.65-0.1C19.167,12.3,19.05,12.1,18.95,11.8c-0.434,0.667-0.9,0.9-1.4,0.7
		c-0.267-0.1-0.367-0.3-0.3-0.6c0.133-0.367,0.217-0.634,0.25-0.801c-0.167,0.167-0.3,0.301-0.4,0.4
		c-0.033,0.134-0.067,0.25-0.1,0.35c0.033-0.133,0.067-0.267,0.1-0.399c-0.033,0.033-0.067,0.066-0.1,0.1
		c-0.203,0.199-0.403,0.283-0.6,0.25c-0.233-0.066-0.333-0.217-0.3-0.45c0.033-0.333,0.017-0.533-0.05-0.6l0.45-0.2
		c0.567-0.399,0.867-0.866,0.9-1.399c0.033,0.5,0.383,0.783,1.05,0.85c0.633,0.066,1.033-0.066,1.2-0.4
		c0,0.233,0.133,0.417,0.4,0.551c0.2,0.133,0.434,0.183,0.7,0.149c0.333-0.066,0.533-0.2,0.6-0.399c0-0.034,0-0.2,0-0.5
		c0.066,0.166,0.283,0.283,0.65,0.35c0.433,0.066,0.8,0.033,1.1-0.1c0.267-0.101,0.433-0.25,0.5-0.45h0.05
		c0.7,0.033,1.25,0.25,1.65,0.649c0.333,0.334,0.633,0.717,0.9,1.15c-0.133,0.066-0.25,0.2-0.35,0.4c-0.1,0.199-0.2,0.316-0.3,0.35
		c-0.167,0.1-0.65,0.083-1.45-0.05L23.85,11.6c0.233-0.166,0.35-0.616,0.35-1.35l-1.05,0.6c-0.066,0.467,0.033,0.733,0.3,0.801H23.5
		z M35.05,5.15c-0.5-0.066-0.7,0.083-0.6,0.45c0.433,0.066,0.683,0.017,0.75-0.15L35.05,5.15z M34.6,8.95
		c0.3,0.133,0.667,0.184,1.1,0.149c0.533,0,0.767-0.167,0.7-0.5L35.5,8c-0.233-0.033-0.45,0.05-0.65,0.25
		C34.683,8.45,34.6,8.683,34.6,8.95z M37.4,10.1c0.1,0.267,0.449,0.351,1.05,0.25c0.533-0.133,0.866-0.316,1-0.55l-1.4-0.149
		c-0.133-0.034-0.283-0.017-0.45,0.05C37.434,9.8,37.366,9.934,37.4,10.1z M28.85,2.35L28.5,1.5l-1-0.7l0.75,0.75L28,1.6
		C28.333,1.833,28.617,2.083,28.85,2.35z M27.8,6.35V5.6c-0.433,0.3-0.617,0.6-0.55,0.9C27.483,6.567,27.667,6.517,27.8,6.35z
		 M11.1,11.75c0.867,0.134,1.217-0.116,1.05-0.75L12,10.7C11.3,11,11,11.35,11.1,11.75z M19.9,11.85c0.467,0.267,0.8,0.084,1-0.55
		l-0.75-0.149C19.483,11.283,19.4,11.517,19.9,11.85z M7.75,11.9C8.217,12,8.567,12.15,8.8,12.35
		c0.133,0.101,0.317,0.301,0.55,0.601c0.167,0.3,0.333,0.5,0.5,0.6c0.1,0.066,0.283,0.134,0.55,0.2c-0.033,0-0.066,0-0.1,0
		c-0.6,0.167-1.15,0.2-1.65,0.1c0-0.1,0.117-0.483,0.35-1.149c-0.233,0.267-0.567,0.467-1,0.6c-0.5,0.101-0.8-0.017-0.9-0.35
		C7,12.684,7.2,12.333,7.7,11.9H7.75z M9.05,11C9.017,11.066,9,11.134,9,11.2c-0.067-0.033-0.133-0.05-0.2-0.05
		C8.867,11.083,8.95,11.033,9.05,11z"/>
	<path style="fill-rule:evenodd;clip-rule:evenodd;fill:#414428;" d="M59.1,5.35L59,5.4c-0.066,0.067-0.116,0.15-0.15,0.25
		c-0.033,0-0.05,0.017-0.05,0.05v0.05c-0.066,0.1-0.283,0.65-0.649,1.65c-0.101,0.267-0.267,0.483-0.5,0.65
		c-0.267,0.2-0.467,0.133-0.601-0.2c-0.1-0.267-0.017-0.667,0.25-1.2c0.3-0.533,0.584-0.833,0.851-0.9L59,5.4
		c0.267-0.367,0.583-0.55,0.95-0.55H60c0.033,0,0.066,0,0.1,0c0.034-0.033,0.067-0.033,0.101,0h0.05L59.1,5.35z M65.8,9.65
		c0.033,0.1,0.033,0.199,0,0.3c-0.533,0.066-1.033,0.083-1.5,0.05c-0.1-0.033-0.184-0.05-0.25-0.05c-0.033-0.134-0.033-0.267,0-0.4
		c0-0.033,0-0.066,0-0.1c0-0.267,0.05-0.534,0.15-0.8c0.2-0.5,0.483-0.816,0.85-0.95l0.25-0.05c0.167-0.333,0.5-0.533,1-0.6
		c0.533-0.033,0.934-0.083,1.2-0.15l-0.8,0.3l-0.9,0.3l-0.5,0.15c-0.033,0.067-0.066,0.133-0.1,0.2c-0.066,0.4-0.05,0.75,0.05,1.05
		c0.033,0.067,0.167,0.216,0.4,0.45C65.717,9.45,65.767,9.55,65.8,9.65z M62.95,11.85c0.899,0.367,1.416,0.384,1.55,0.051
		l-0.05-0.351V10.7L64.6,10.85c0.634,0.5,1.15,0.834,1.551,1c0.566,0.233,1.216,0.301,1.949,0.2v-1
		c0.767,0.467,1.634,0.584,2.601,0.351l0.149,0.05c0.134,0.033,0.25,0.05,0.351,0.05c-0.101,0.767-1.134,1.184-3.101,1.25
		c-2.1-0.066-3.316-0.1-3.649-0.1c0.666,0.066,1.233,0.183,1.7,0.35c0.733,0.3,0.833,0.667,0.3,1.1
		c-0.033,0.034-0.75,0.15-2.15,0.351c-0.833,0.166-1.75,0.217-2.75,0.149c-1.733-0.1-2.649-0.149-2.75-0.149
		c-2.066,0-3.55,0.1-4.45,0.3c-0.267,0.066-0.483,0.167-0.649,0.3c-0.2,0.134-0.384,0.233-0.55,0.3
		c-0.5,0.2-0.784,0.301-0.851,0.301c-0.467,0.5-1.133,0.883-2,1.149c-0.1,0.033-0.184,0.066-0.25,0.101
		c-0.066,0.033-0.133,0.05-0.2,0.05C49.616,17.017,49.4,17.066,49.2,17.1l-1.15,0.051c-0.467,0-1.184-0.034-2.149-0.101
		c-1-0.1-1.684-0.149-2.051-0.149c-0.366,0-0.949,0.083-1.75,0.25c-0.767,0.199-1.383,0.283-1.85,0.25
		c-1.6-0.034-3.35-0.434-5.25-1.2c-0.267,0.467-0.833,0.717-1.7,0.75c-0.367,0.033-1.05,0-2.05-0.101
		c-0.8-0.233-1.35-0.35-1.65-0.35c-0.367,0.233-0.65,0.35-0.85,0.35c-0.333,0-0.75-0.066-1.25-0.199
		c-0.567-0.2-0.983-0.334-1.25-0.4c-1.033-0.134-1.8-0.233-2.3-0.3c-0.067,0-0.133,0-0.2,0l-3.3-0.101
		c-0.4,0-0.817,0.017-1.25,0.051c-0.133,0-0.267,0.017-0.4,0.05c-1.733,0.166-3.066,0.3-4,0.399c0.063-0.063,0.129-0.096,0.2-0.1
		l0.05-0.05L15.1,16.1v-0.05l0.25-0.5c0-0.066,0.017-0.1,0.05-0.1V15.4c0-0.034,0-0.067,0-0.101v-0.05
		c0.6,0.366,0.967,0.167,1.1-0.6c0-0.101,0-0.7,0-1.801c0.133,0.334,0.45,0.534,0.95,0.601c0.5,0.1,0.816-0.017,0.95-0.351l0.05-0.1
		l0.05,0.1c0.133,0.2,0.5,0.301,1.1,0.301c-0.167,0.199-0.283,0.333-0.35,0.399c-0.133,0.167-0.2,0.334-0.2,0.5
		c0.7,0.134,1.55,0.101,2.55-0.1c0.167,0.3,0.433,0.5,0.8,0.6c0.367,0.101,0.667,0,0.9-0.3c-0.167,0.566,0.217,0.833,1.15,0.8
		c0.933,0,1.417-0.283,1.45-0.85c0.167,0.467,0.5,0.733,1,0.8c0.467,0.033,0.783-0.184,0.95-0.65c-0.067-0.199-0.117-0.5-0.15-0.899
		c0-0.134,0-0.25,0-0.351c-0.034-0.133-0.05-0.267-0.05-0.399c-0.033-0.934-0.15-1.617-0.35-2.05c-0.233-0.5-0.633-0.851-1.2-1.051
		c0.066,0,0.15,0,0.25,0c0.433,0.034,0.717,0.084,0.85,0.15c0.6,0.167,1.167,0.634,1.7,1.4c0.4,0.533,0.733,1.183,1,1.949
		c0.133,0.367,0.233,0.717,0.3,1.051l0.05-0.051v1h1.15c0.1,0.7,0.35,0.983,0.75,0.851c0.233-0.101,0.633-0.367,1.2-0.8
		c0.5,0.5,0.816,0.767,0.95,0.8c0.233,0.066,0.483-0.15,0.75-0.65c0.434,0.367,1.033,0.517,1.8,0.45
		c0.634-0.033,1.233-0.2,1.801-0.5c0.166,0.434,0.55,0.566,1.149,0.4c0.334-0.067,0.8-0.2,1.4-0.4c0.366,0.667,0.934,1.017,1.7,1.05
		c0.699,0.066,1.366-0.033,2-0.3l1.149-0.7c0.2-0.033,0.417,0,0.65,0.101h0.6c0.167,0,0.517-0.15,1.05-0.45l0.4-0.15h0.15h0.5
		c0.233-0.066,0.416-0.233,0.55-0.5c0.133-0.166,0.25-0.283,0.35-0.35c0.101-0.066,0.267-0.066,0.5,0
		c0.334,0.1,0.533,0.133,0.601,0.1l0.3-0.05c0.233-0.1,0.434-0.283,0.6-0.55c0.066-0.134,0.2-0.367,0.4-0.7
		c0.133,0.2,0.366,0.333,0.7,0.4c0.5,0.033,0.966-0.084,1.399-0.351c-0.066,0.134-0.066,0.25,0,0.351
		c0.233,0.133,0.533,0.199,0.9,0.199c0.434,0,0.684-0.133,0.75-0.399c0.066,0.434,0.684,0.767,1.85,1c1.2,0.2,1.816,0.066,1.851-0.4
		c0.366,0.3,0.833,0.483,1.399,0.55c0.667,0.101,1.084-0.066,1.25-0.5c0.134-0.366-0.033-0.649-0.5-0.85c-0.6-0.167-1-0.3-1.2-0.4
		c0.067,0,0.317,0.067,0.75,0.2c0.367,0.066,0.617,0.066,0.75,0c0.233-0.166,0.284-0.416,0.15-0.75l-0.2-0.45L62.95,11.85z
		 M0.85,16.25c0.2-0.2,0.45-0.35,0.75-0.45l0.05,0.15c0.467,0.434,1.417,0.399,2.85-0.101L5,15.7l0.05,0.149
		c0.167,0.434,0.684,0.584,1.55,0.45c0.5-0.066,1.117-0.166,1.85-0.3c0.3,0,0.833,0.134,1.6,0.4c0.667,0.133,1.133,0,1.4-0.4
		c0.2,0.267,0.633,0.434,1.3,0.5c0.033,0,0.067,0,0.1,0s0.083,0,0.15,0l-1,0.05c-0.3,0-0.55,0-0.75,0l0.6,0.3
		c-0.7,0.167-2.3,0.367-4.8,0.601c-3.9,0.434-6.25,0.333-7.05-0.3c0.167-0.334,0.65-0.534,1.45-0.601L0.85,16.25z M5.95,11.5
		c-0.467-0.1-0.8-0.217-1-0.35c0.466,0.033,1.117,0.033,1.95,0c0.733,0.033,1.367,0.183,1.9,0.449c0.333,0.167,0.733,0.467,1.2,0.9
		c0.467,0.467,0.833,0.767,1.1,0.9l1.05,0.449c-0.8,0-1.383-0.033-1.75-0.1c-0.267-0.066-0.45-0.134-0.55-0.2
		c-0.167-0.1-0.333-0.3-0.5-0.6c-0.233-0.3-0.417-0.5-0.55-0.601C8.567,12.15,8.217,12,7.75,11.9c-0.233-0.101-0.5-0.167-0.8-0.2
		c-0.067,0-0.133,0-0.2,0C6.45,11.634,6.183,11.566,5.95,11.5z M56.05,7.3C56.017,7.4,56,7.483,56,7.55
		c-0.1,0.067-0.184,0.067-0.25,0c-0.066-0.6-0.1-1.35-0.1-2.25c0.033-1,0.05-1.75,0.05-2.25v-1.2C56.066,4.083,56.184,5.9,56.05,7.3
		z"/>
	<path style="fill-rule:evenodd;clip-rule:evenodd;fill:#848958;" d="M15.15,6.85h0.05L15.15,6.8c0-0.066,0.017-0.133,0.05-0.2
		l0.05-0.4l0.3-0.45V5.7c0.3-0.367,0.767-0.617,1.4-0.75c0.233-0.034,0.466-0.05,0.7-0.05c0.567-0.033,1.05,0.15,1.45,0.55
		c0.1,0.133,0.2,0.283,0.3,0.45c-0.267-1.133,0.25-1.583,1.55-1.35c1.066,0.167,1.966,0.55,2.7,1.15c-0.033-0.2-0.033-0.417,0-0.65
		c0-1,0.184-1.8,0.55-2.4c0.033,0,0.05-0.017,0.05-0.05l0.2,0.05c0.5,0.1,0.816,0.383,0.95,0.85c0.167,0.467,0.117,0.9-0.15,1.3
		l0.35-0.35c0.233-0.034,0.367,0.017,0.4,0.15c0,0.066,0,0.217,0,0.45c0.067,0.434,0.033,0.817-0.1,1.15
		c-0.2,0.367-0.483,0.566-0.85,0.6c0.467,0.034,0.633,0.383,0.5,1.05c0,0.1-0.033,0.2-0.1,0.3c-0.3-0.033-0.633-0.033-1,0
		c-1,0.1-1.883,0.45-2.65,1.05c0.434,0.066,1.034,0.066,1.8,0c-0.067,0.2-0.233,0.35-0.5,0.45c-0.3,0.133-0.667,0.166-1.1,0.1
		c-0.367-0.066-0.583-0.184-0.65-0.35c0,0.3,0,0.466,0,0.5c-0.067,0.199-0.267,0.333-0.6,0.399c-0.267,0.033-0.5-0.017-0.7-0.149
		c-0.267-0.134-0.4-0.317-0.4-0.551c-0.167,0.334-0.566,0.467-1.2,0.4c-0.667-0.066-1.017-0.35-1.05-0.85
		c-0.033,0.533-0.333,1-0.9,1.399l-0.45,0.2L15.9,10.8c-0.8,0.2-1.283,0.217-1.45,0.05c-0.233-0.233-0.284-0.517-0.15-0.85
		c0.1-0.3,0.3-0.566,0.6-0.8c-0.467,0.233-0.983,0.366-1.55,0.399c-0.7,0.067-1.067-0.066-1.1-0.399
		c-0.033-0.233,0.117-0.45,0.45-0.65c0.3-0.133,0.617-0.216,0.95-0.25c-0.333-0.033-0.6-0.167-0.8-0.4
		c-0.233-0.233-0.233-0.483,0-0.75c0.1-0.1,0.367-0.15,0.8-0.15c0.4-0.033,0.767,0,1.1,0.1c0.167,0.1,0.317,0.217,0.45,0.35
		L15.15,6.85z M45.3,3.75v0.3l0.15-0.1V3.9L45.6,4.15l0.051-0.4c0.333-0.167,0.767-0.233,1.3-0.2c0.566,0.034,0.934,0.15,1.1,0.35
		c0.2,0.2,0.233,0.467,0.101,0.8c0.366-0.067,0.783-0.034,1.25,0.1c0.466,0.133,0.767,0.3,0.899,0.5
		c0.434,0.833-0.133,1.284-1.7,1.35c0.634,0,1.101,0.067,1.4,0.2c0.1,1.133-0.783,1.483-2.65,1.05c0.567,0.7,0.334,1.05-0.699,1.05
		c-1.034,0.033-1.733-0.167-2.101-0.6c0,0.566-0.05,0.933-0.149,1.1c-0.134,0.3-0.45,0.416-0.95,0.35
		c-0.7-0.066-1.084-0.483-1.15-1.25c-0.133,0.5-0.6,0.717-1.399,0.65c-0.567-0.033-0.934-0.15-1.101-0.35
		c-0.166-0.2-0.233-0.567-0.2-1.1c-0.066,0.167-0.283,0.267-0.649,0.3c-0.367,0.034-0.601-0.033-0.7-0.2
		c-0.1-0.133-0.083-0.317,0.05-0.55c-1.166,0.133-1.767,0.034-1.8-0.3c-0.066-0.267,0.134-0.517,0.6-0.75
		c0.233-0.167,0.5-0.283,0.801-0.35c-0.667,0.067-0.851-0.1-0.551-0.5c0.334-0.433,1.051-0.717,2.15-0.85
		c-1.667,0.067-2.967-0.066-3.9-0.4c0-0.233,0.167-0.417,0.5-0.55c0.167-0.067,0.434-0.15,0.801-0.25c0.033-0.067,0.033-0.15,0-0.25
		c0.166-0.133,0.449-0.233,0.85-0.3L37.7,2.7c0.899,0,1.649,0.183,2.25,0.55c0.066-0.133,0.133-0.267,0.2-0.4
		c0.1-0.133,0.233-0.267,0.399-0.4L41.1,2.6l0.4-0.45h0.15c0.6,0,1.233,0.133,1.899,0.4c0.033,0,0.066,0.017,0.101,0.05
		C44.316,2.867,44.866,3.25,45.3,3.75z M61.15,6.5c0.033,0.467-0.017,0.8-0.15,1c-0.167,0.233-0.483,0.367-0.95,0.4
		c-0.833,0-1.166-0.267-1-0.8c0.134-0.333,0.467-0.533,1-0.6C60.15,6.5,60.517,6.5,61.15,6.5z M42.3,5.45l-0.1,0.5
		c0.133,0.1,0.366,0.167,0.7,0.2c0.366,0,0.566-0.083,0.6-0.25L42.3,5.45z M41.1,4.1L40.65,3.65c-0.334-0.033-0.617,0.033-0.851,0.2
		C39.833,4.383,40.267,4.467,41.1,4.1z M41.3,5.65c0.134,0,0.316-0.017,0.55-0.05L41.4,4.55c-0.367,0.367-0.584,0.684-0.65,0.95
		C40.884,5.6,41.066,5.65,41.3,5.65z M40.65,7.7c0.6,0.2,0.85-0.05,0.75-0.75L41.1,6.35C40.7,6.683,40.55,7.133,40.65,7.7z
		 M45.3,6.5c0.033,0.033,0.084,0.217,0.15,0.55c0.066,0.2,0.217,0.284,0.45,0.25c0.267-0.066,0.366-0.383,0.3-0.95L45.3,6.5z
		 M43.5,7.4V6.65L42.6,6.8C42.434,7.367,42.733,7.567,43.5,7.4z M39.9,5.45c-0.301,0-0.634,0.117-1,0.35
		c-0.367,0.267-0.5,0.55-0.4,0.85c0.066,0.167,0.267,0.233,0.6,0.2c0.301,0,0.517-0.067,0.65-0.2L39.9,5.45z M15.9,8.3
		c-0.267,0.133-0.4,0.333-0.4,0.6c0.2,0.2,0.55,0.284,1.05,0.25c0.534-0.034,0.883-0.167,1.05-0.4c0.133-0.2,0.167-0.583,0.1-1.15
		c-0.267-0.067-0.467-0.083-0.6-0.05l-0.45,0.6C16.383,8.117,16.133,8.167,15.9,8.3z"/>
	<path style="fill-rule:evenodd;clip-rule:evenodd;fill:#4E512F;" d="M64.05,9.55c-0.066-0.066-0.133-0.149-0.2-0.25
		c0.067,0.033,0.134,0.084,0.2,0.15C64.05,9.483,64.05,9.517,64.05,9.55z M64.45,11.55L64.5,11.9
		c-0.134,0.333-0.65,0.316-1.55-0.051c0.166-0.166,0.217-0.383,0.149-0.649c0.067,0.166,0.267,0.316,0.601,0.45
		c0.333,0.1,0.583,0.083,0.75-0.051V11.55z M64.3,10c0.467,0.033,0.967,0.017,1.5-0.05c0.033-0.101,0.033-0.2,0-0.3l0.05-0.601
		c0.067-0.466,0.067-0.9,0-1.3c0.733,0.2,1.051,0.433,0.95,0.7c-0.033,0.233-0.2,0.4-0.5,0.5L66.25,9c-0.066,0-0.134,0.017-0.2,0.05
		C66.25,9.017,66.417,9,66.55,9c0.5-0.033,0.767-0.033,0.8,0c0.601,0,1.017,0.116,1.25,0.35L68.35,9.7
		c0.567-0.167,1.034,0.017,1.4,0.55c0.033,0.033,0.066,0.083,0.1,0.15c0.2,0.333,0.4,0.6,0.601,0.8c0.1,0.1,0.184,0.166,0.25,0.2
		c-0.967,0.233-1.834,0.116-2.601-0.351v1c-0.733,0.101-1.383,0.033-1.949-0.2c-0.4-0.166-0.917-0.5-1.551-1
		C64.566,10.616,64.467,10.333,64.3,10z M15,16.25c-0.103,0.003-0.186,0.036-0.25,0.1H14.7c-0.034,0-0.067,0-0.1,0l-0.9,0.101
		c-0.267,0.033-0.5,0.05-0.7,0.05c-0.067,0-0.117,0-0.15,0s-0.067,0-0.1,0c-0.667-0.066-1.1-0.233-1.3-0.5
		c-0.267,0.4-0.733,0.533-1.4,0.4c-0.767-0.267-1.3-0.4-1.6-0.4c-0.733,0.134-1.35,0.233-1.85,0.3
		c-0.867,0.134-1.383-0.017-1.55-0.45c0.967,0,1.684-0.199,2.15-0.6c0,0.2-0.017,0.333-0.05,0.4c0.434,0.166,0.883,0.233,1.35,0.199
		c0.567-0.066,0.933-0.267,1.1-0.6c0.233,0.167,0.483,0.25,0.75,0.25c0.333,0,0.483-0.15,0.45-0.45c0.6,0.233,1.034,0.351,1.3,0.351
		c0.467-0.034,0.75-0.301,0.85-0.801c0.267,0.034,0.483-0.017,0.65-0.149c0.167-0.167,0.233-0.384,0.2-0.65
		c0.034,0.233,0.184,0.367,0.45,0.4c0.233,0.033,0.45,0,0.65-0.101c0.533-0.133,0.95-0.533,1.25-1.199
		c0.329-0.658,0.612-1.108,0.85-1.351c0.033-0.033,0.067-0.066,0.1-0.1c-0.033,0.133-0.067,0.267-0.1,0.399l-0.05,0.2L16.9,12.4
		c0,0.1,0.017,0.183,0.05,0.25c0.2,0.3,0.683,0.449,1.45,0.449c-0.133,0.334-0.45,0.45-0.95,0.351
		c-0.5-0.066-0.817-0.267-0.95-0.601c0,1.101,0,1.7,0,1.801c-0.133,0.767-0.5,0.966-1.1,0.6v0.05c0,0.033,0,0.066,0,0.101v0.05
		c-0.033,0-0.05,0.033-0.05,0.1l-0.25,0.5v0.05L15.05,16.2L15,16.25z M1.6,15.8l1.05-0.45l-0.2-0.6C2.717,14.55,3,14.4,3.3,14.3
		c0.167-0.066,0.333-0.116,0.5-0.149v0.05c-0.1,0.267-0.017,0.45,0.25,0.55c0.3,0.1,0.667,0.033,1.1-0.2H5.2
		c-0.6,0.467-1.017,0.834-1.25,1.101c0.066,0.066,0.25,0.133,0.55,0.199c-1.433,0.5-2.383,0.534-2.85,0.101L1.6,15.8z M57.25,6
		c-0.134,0.133-0.233,0.267-0.3,0.4c-0.066,0.067-0.117,0.15-0.15,0.25c0-0.233,0.017-0.433,0.05-0.6
		c0.034-0.233,0.117-0.35,0.25-0.35h0.051C57.15,5.8,57.184,5.9,57.25,6z M56,7.55c0-0.066,0.017-0.15,0.05-0.25
		c0.101,0.067,0.217,0.05,0.351-0.05c0.066-0.033,0.116-0.083,0.149-0.15h0.05c-0.033,0.1-0.033,0.2,0,0.3l-0.55,1
		c0,0.767-0.1,1.234-0.3,1.4L55.6,9.85l-0.05,0.5c-0.033,0.534,0.117,0.867,0.45,1c0.333,0.134,0.684,0.117,1.05-0.05
		c-0.333,0.167-0.416,0.467-0.25,0.9c0.367,0.1,0.75,0.066,1.15-0.101c0.434-0.166,0.733-0.416,0.899-0.75
		C58.783,11.884,59.167,12.2,60,12.3c0.733,0.066,1.083-0.116,1.05-0.55c0.066,0.2,0.267,0.35,0.601,0.45
		c0.433,0.1,0.8,0.05,1.1-0.15c0.134,0.334,0.083,0.584-0.15,0.75c-0.133,0.066-0.383,0.066-0.75,0c-0.433-0.133-0.683-0.2-0.75-0.2
		c0.2,0.101,0.601,0.233,1.2,0.4c0.467,0.2,0.634,0.483,0.5,0.85c-0.166,0.434-0.583,0.601-1.25,0.5
		c-0.566-0.066-1.033-0.25-1.399-0.55c-0.034,0.467-0.65,0.601-1.851,0.4c-1.166-0.233-1.783-0.566-1.85-1
		c-0.066,0.267-0.316,0.399-0.75,0.399c-0.367,0-0.667-0.066-0.9-0.199c-0.066-0.101-0.066-0.217,0-0.351
		C54.366,13.316,53.9,13.434,53.4,13.4c0.199-0.534,0.267-1.117,0.199-1.75c0.134,0.3,0.334,0.366,0.601,0.199
		c0.333-0.166,0.366-0.55,0.1-1.149c-0.166-0.434-0.366-0.783-0.6-1.05c0.166,0.166,0.45,0.283,0.85,0.35
		c0.467,0.066,0.816,0.017,1.05-0.15c0.101-0.533,0.25-1.016,0.45-1.45C56.05,8.067,56.033,7.783,56,7.55z M50.8,14.2
		c0.267-0.134,0.533-0.2,0.8-0.2l0.101,0.25l-0.3,0.05C51.333,14.333,51.134,14.3,50.8,14.2z M48.9,15.05l1.05-0.5
		c-0.134,0.267-0.316,0.434-0.55,0.5H48.9z M27.7,13.35c-0.467-0.333-0.867-0.916-1.2-1.75C26.4,11.4,26.3,11.2,26.2,11
		c-0.267-0.434-0.567-0.816-0.9-1.15C24.9,9.45,24.35,9.233,23.65,9.2H23.6c-0.767,0.066-1.367,0.066-1.8,0
		c0.767-0.6,1.65-0.95,2.65-1.05c0.367-0.033,0.7-0.033,1,0c0.7,0.067,1.283,0.3,1.75,0.7c0.3,0.266,0.583,0.567,0.85,0.9
		c0.567,0.667,1.083,1.434,1.55,2.3c0.066,0.134,0.183,0.367,0.35,0.7c0,0.033,0.017,0.066,0.05,0.1
		c0.1-0.199,0.15-0.517,0.15-0.949c-0.033-0.634-0.05-1.034-0.05-1.2c0.433,0.733,1.117,1.25,2.05,1.55
		c-0.333,0.267-0.583,0.483-0.75,0.65c-0.333,0.3-0.417,0.6-0.25,0.899c0.7,0.2,1.35,0.184,1.95-0.05c-0.1,0.5,0.05,0.833,0.45,1
		c0.467,0.2,0.883,0.2,1.25,0c0.367-0.167,0.567-0.483,0.6-0.95l0.15,0.351c0.067-0.101,0.067-0.267,0-0.5
		c-0.033-0.301-0.05-0.5-0.05-0.601c0.067-0.366,0.183-0.633,0.35-0.8c0.2-0.167,0.4-0.116,0.6,0.15L36.4,13.35
		c0.033,0.601,0.3,1.067,0.8,1.4c0.8,0.6,1.533,0.85,2.2,0.75c0-0.4,0.066-0.684,0.199-0.85c0.267,0.699,0.733,0.916,1.4,0.649
		c0.2-0.066,0.417-0.267,0.65-0.6c0.233-0.3,0.433-0.467,0.6-0.5l0.05,0.85c0.167-0.033,0.367,0,0.601,0.101
		c0.466,0.033,1.033-0.184,1.699-0.65c0.067,0.167,0.101,0.4,0.101,0.7c1.2,0.3,2.416,0.3,3.649,0c-0.533,0.3-0.883,0.45-1.05,0.45
		h-0.6c-0.233-0.101-0.45-0.134-0.65-0.101l-1.149,0.7c-0.634,0.267-1.301,0.366-2,0.3c-0.767-0.033-1.334-0.383-1.7-1.05
		c-0.601,0.2-1.066,0.333-1.4,0.4c-0.6,0.166-0.983,0.033-1.149-0.4c-0.567,0.3-1.167,0.467-1.801,0.5
		c-0.767,0.066-1.366-0.083-1.8-0.45c-0.267,0.5-0.517,0.717-0.75,0.65c-0.133-0.033-0.45-0.3-0.95-0.8
		c-0.567,0.433-0.967,0.699-1.2,0.8c-0.4,0.133-0.65-0.15-0.75-0.851h-1.15v-1L30.2,14.4c-0.067-0.334-0.167-0.684-0.3-1.051
		c-0.267-0.767-0.6-1.416-1-1.949c-0.533-0.767-1.1-1.233-1.7-1.4c-0.133-0.066-0.417-0.116-0.85-0.15c-0.1,0-0.184,0-0.25,0
		c0.566,0.2,0.967,0.551,1.2,1.051c0.2,0.433,0.317,1.116,0.35,2.05C27.65,13.083,27.667,13.217,27.7,13.35z M18.5,13.1
		c1.1,0,1.85-0.166,2.25-0.5c-0.1,0.367-0.15,0.584-0.15,0.65c-0.033,0.167,0.05,0.316,0.25,0.45c0.233,0.133,0.566,0.149,1,0.05
		c0.367-0.134,0.633-0.316,0.8-0.55c-0.233,0.5-0.233,0.866,0,1.1c0.3,0.2,0.684,0.117,1.15-0.25c0.233-0.2,0.517-0.483,0.85-0.85
		c0.2,0.6,0.5,0.866,0.9,0.8c0.4-0.066,0.617-0.4,0.65-1c0.367,0.366,0.867,0.6,1.5,0.7c0.033,0.399,0.083,0.7,0.15,0.899
		c-0.167,0.467-0.483,0.684-0.95,0.65c-0.5-0.066-0.833-0.333-1-0.8c-0.033,0.566-0.517,0.85-1.45,0.85
		c-0.934,0.033-1.317-0.233-1.15-0.8c-0.233,0.3-0.533,0.4-0.9,0.3c-0.367-0.1-0.633-0.3-0.8-0.6c-1,0.2-1.85,0.233-2.55,0.1
		c0-0.166,0.067-0.333,0.2-0.5c0.067-0.066,0.183-0.2,0.35-0.399C19,13.4,18.633,13.3,18.5,13.1z M28.2,9.2l-0.65-0.25h0.6
		c0.567,0.066,0.9,0.033,1-0.1c0.133-0.133,0.067-0.45-0.2-0.95l-0.1-0.2c0.6,0,0.95-0.083,1.05-0.25c0.1-0.067,0.167-0.233,0.2-0.5
		c0-0.3-0.05-0.55-0.15-0.75c-0.1-0.233-0.233-0.383-0.4-0.45L29.5,5.7l-0.6-0.1c0.1-0.067,0.3-0.1,0.6-0.1l0.35-0.05
		C30.083,5.383,30.167,5.233,30.1,5c-0.033-0.167-0.167-0.3-0.4-0.4l-0.35-0.3l0.45-0.05h0.1c-0.033-0.333-0.2-0.733-0.5-1.2
		c0.1-0.133,0.233-0.233,0.4-0.3l0.3,0.35c0.633,0.733,0.983,1.167,1.05,1.3c0.2,0.367,0.267,0.817,0.2,1.35l-0.05,0.2
		c-0.066,0.1-0.183,0.183-0.35,0.25c-0.2,0.066-0.333,0.133-0.4,0.2c0.167,0.2,0.383,0.45,0.65,0.75c0.233,0.3,0.3,0.617,0.2,0.95
		c-0.3,0.033-0.533,0.25-0.7,0.65c-0.233,0.434-0.483,0.684-0.75,0.75C29.583,9.6,29,9.5,28.2,9.2z M28.85,2.35
		C28.617,2.083,28.333,1.833,28,1.6l0.25-0.05L27.5,0.8l1,0.7L28.85,2.35z"/>
	<path style="fill-rule:evenodd;clip-rule:evenodd;fill:#939865;" d="M41.3,5.65c-0.233,0-0.416-0.05-0.55-0.15
		c0.066-0.267,0.283-0.583,0.65-0.95L41.85,5.6C41.616,5.633,41.434,5.65,41.3,5.65z M41.1,4.1c-0.833,0.367-1.267,0.283-1.3-0.25
		c0.233-0.167,0.517-0.233,0.851-0.2L41.1,4.1z M42.3,5.45l1.2,0.45c-0.033,0.167-0.233,0.25-0.6,0.25
		c-0.334-0.033-0.567-0.1-0.7-0.2L42.3,5.45z M43.5,7.4c-0.767,0.167-1.066-0.033-0.9-0.6l0.9-0.15V7.4z M45.3,6.5l0.9-0.15
		c0.066,0.566-0.033,0.883-0.3,0.95c-0.233,0.034-0.384-0.05-0.45-0.25C45.384,6.717,45.333,6.533,45.3,6.5z M40.65,7.7
		C40.55,7.133,40.7,6.683,41.1,6.35l0.301,0.6C41.5,7.65,41.25,7.9,40.65,7.7z M46.2,10.25c0.066,0.2,0.017,0.366-0.15,0.5
		c-0.166,0.134-0.366,0.167-0.6,0.1L45.6,10.1L46.2,10.25z M48,9.65c-0.1,0.166-0.233,0.216-0.4,0.149
		c-0.066-0.267-0.083-0.467-0.05-0.6L48,9.65z M41.7,10.7c-0.066-0.2-0.033-0.384,0.1-0.55c0.134-0.167,0.3-0.233,0.5-0.2l1.2,0.3
		C43.267,10.717,42.667,10.866,41.7,10.7z M39.9,5.45l-0.15,1.2c-0.134,0.133-0.35,0.2-0.65,0.2c-0.333,0.033-0.533-0.033-0.6-0.2
		c-0.1-0.3,0.033-0.583,0.4-0.85C39.267,5.567,39.6,5.45,39.9,5.45z M37.4,10.1C37.366,9.934,37.434,9.8,37.6,9.7
		c0.167-0.066,0.317-0.084,0.45-0.05l1.4,0.149c-0.134,0.233-0.467,0.417-1,0.55C37.85,10.45,37.5,10.366,37.4,10.1z M34.6,8.95
		c0-0.267,0.083-0.5,0.25-0.7c0.2-0.2,0.417-0.283,0.65-0.25l0.9,0.6c0.066,0.333-0.167,0.5-0.7,0.5
		C35.267,9.134,34.9,9.083,34.6,8.95z M35.05,5.15l0.15,0.3c-0.067,0.167-0.317,0.216-0.75,0.15C34.35,5.233,34.55,5.083,35.05,5.15
		z M23.85,11.6L23.5,11.65h-0.05c-0.267-0.067-0.367-0.334-0.3-0.801l1.05-0.6C24.2,10.983,24.083,11.434,23.85,11.6z M27.8,6.35
		c-0.133,0.167-0.316,0.217-0.55,0.15c-0.067-0.3,0.117-0.6,0.55-0.9V6.35z M11.1,11.75C11,11.35,11.3,11,12,10.7l0.15,0.3
		C12.317,11.634,11.967,11.884,11.1,11.75z M9,11.2c0-0.066,0.017-0.134,0.05-0.2l0.05-0.1l0.15-0.2c0.3-0.267,0.817-0.367,1.55-0.3
		l-0.15,0.149c-0.2,0.467-0.367,0.834-0.5,1.101c0,0.033-0.017,0.066-0.05,0.1C9.733,11.55,9.367,11.366,9,11.2z M13.4,12.1h-0.2
		l-0.15-0.05c-0.033-0.233,0.017-0.483,0.15-0.75l0.6,0.15l-0.15,0.399C13.583,11.983,13.5,12.066,13.4,12.1z M15.9,8.3
		c0.233-0.133,0.483-0.183,0.75-0.15l0.45-0.6c0.133-0.033,0.333-0.017,0.6,0.05c0.066,0.566,0.033,0.95-0.1,1.15
		c-0.167,0.233-0.517,0.366-1.05,0.4C16.05,9.184,15.7,9.1,15.5,8.9C15.5,8.633,15.633,8.433,15.9,8.3z M19.9,11.85
		c-0.5-0.333-0.417-0.566,0.25-0.699L20.9,11.3C20.7,11.934,20.367,12.116,19.9,11.85z"/>
</g>
</svg>
