<?xml version="1.0" encoding="iso-8859-1"?>
<!-- Generator: Adobe Illustrator 15.1.0, SVG Export Plug-In . SVG Version: 6.00 Build 0)  -->
<!DOCTYPE svg PUBLIC "-//W3C//DTD SVG 1.1//EN" "http://www.w3.org/Graphics/SVG/1.1/DTD/svg11.dtd">
<svg version="1.1" id="Layer_1" xmlns="http://www.w3.org/2000/svg" xmlns:xlink="http://www.w3.org/1999/xlink" x="0px" y="0px"
	 width="152.7px" height="88.35px" viewBox="0 0 152.7 88.35" style="enable-background:new 0 0 152.7 88.35;" xml:space="preserve"
	>
<g>
	<path style="fill-rule:evenodd;clip-rule:evenodd;fill:#939865;" d="M125.2,21.9c0.063,0.044,0.063,0.178,0,0.4
		c-0.7,0.1-1.4,0.034-2.101-0.2c0.534,0.9,0.334,1.8-0.6,2.7c-0.833,0.833-1.783,1.25-2.85,1.25c-0.367,0-0.684-0.1-0.95-0.3
		c-0.533,1.2-1.167,1.7-1.9,1.5c-0.399-0.1-0.616-0.367-0.649-0.8c0.066-0.567,0.1-1,0.1-1.3c-0.333,0.2-0.85,0.517-1.55,0.95
		c-0.634,0.333-1.2,0.417-1.7,0.25c0.5,0.433,0.85,1.25,1.05,2.45c0.233,1.233,0.117,2.083-0.35,2.55
		c-0.367,0.367-0.75,0.5-1.15,0.4c0.334,0.367,0.5,0.833,0.5,1.4c0,0.567-0.184,0.983-0.55,1.25c-0.3,0.2-0.684,0.267-1.15,0.2
		c-0.366-0.067-0.616-0.2-0.75-0.4c0.067,0.267,0.134,0.6,0.2,1c0.033,0.5,0.017,0.9-0.05,1.2c-0.1,0.434-0.25,0.684-0.45,0.75
		c-0.133,0.067-0.5,0.1-1.1,0.1c-1.134,0-1.783-0.317-1.95-0.95c-0.134,1.034-1.15,1.417-3.05,1.15v-0.7
		c-0.4,0.5-0.884,0.867-1.45,1.1c-0.634,0.233-1.217,0.267-1.75,0.1c-0.2-0.667-0.134-1.517,0.2-2.55
		c0.5-1.566,0.767-2.417,0.8-2.55c-0.8,0.1-1.434,0.167-1.9,0.2c-0.8,0.034-1.3-0.15-1.5-0.55c-0.199-0.5,0.317-1.267,1.551-2.3
		c0.933-0.767,1.767-1.35,2.5-1.75c-1.9,0.5-3.551,0.517-4.95,0.05c0.166-0.333,0.5-0.667,1-1l1.25-0.8h-1.2
		c0-0.333,0.083-0.667,0.25-1c-0.4,0-1.15,0.117-2.25,0.35c-0.934,0.167-1.684,0.217-2.25,0.15c-0.167-0.9,0.066-1.65,0.7-2.25
		c-0.667,0.1-1.167,0.167-1.5,0.2c-0.566,0.067-1.066,0.083-1.5,0.05c-0.066-0.5,0.866-1.133,2.8-1.9
		c1.533-0.566,2.767-0.95,3.7-1.15c-2.2,0.4-3.384,0.133-3.55-0.8c0-0.067,0.133-0.517,0.399-1.35c0.2-0.533,0.017-0.817-0.55-0.85
		c1-0.967,2-1.55,3-1.75c-0.467,0.067-1.1,0.1-1.9,0.1c0.334-0.133,0.65-0.217,0.95-0.25L97.9,16.2c0.199,0,0.416,0.033,0.649,0.1
		v3.05c1.367-0.533,2.167-0.517,2.4,0.05c0.133,0.333,0.3,1.133,0.5,2.4c0.866,0.034,1.934,0.217,3.2,0.55
		c1.466,0.433,2.517,0.683,3.149,0.75c0-0.667,0.233-1.167,0.7-1.5c0.5-0.333,1.066-0.383,1.7-0.15l0.05,0.7l0.05-0.2
		c0.2-0.067,0.467-0.117,0.8-0.15l0.15-2.2c0.667,0,1.283,0.566,1.85,1.7c-0.066-0.566-0.116-1.033-0.149-1.4
		c-0.033-0.7,0.033-1.15,0.2-1.35c0.333-0.367,0.683-0.517,1.05-0.45c0.366,0.066,0.616,0.35,0.75,0.85
		c-0.2-1.233,0.017-2.034,0.649-2.4c0.634-0.4,1.034-0.066,1.2,1c0.233-1.333,0.884-1.983,1.95-1.95c1.1,0.033,1.55,0.95,1.35,2.75
		c1.067-1.867,2.733-3.1,5-3.7c0.601,0.833,0.384,2.133-0.649,3.9c1.2-0.3,1.816,0.067,1.85,1.1s-0.55,1.583-1.75,1.65
		c0.334,0.1,0.55,0.25,0.65,0.45V21.9z M26,23.65l0.2,0.15l-0.15-0.15c0.029-0.087,0.071-0.137,0.125-0.15H26.2v-0.05
		c0.133-0.167,0.3-0.217,0.5-0.15h0.1c0.133,0.034,0.284,0.117,0.45,0.25v0.05c0.033,0,0.05,0.017,0.05,0.05h0.05
		c0.066,0.133,0.15,0.283,0.25,0.45c0.233,0.5,0.233,1.133,0,1.9c0.5-0.2,1.333-0.067,2.5,0.4c0.233,0.1,0.967,0.434,2.2,1l0.1-0.85
		l1.7,0.9c0.267-1.2,0.75-1.817,1.45-1.85l0.05,0.15c-0.067-1.133,0.233-1.767,0.9-1.9c0.4-0.067,1.333-0.133,2.8-0.2
		c-0.033-0.733,0.217-1.133,0.75-1.2c0.3-0.034,0.833-0.034,1.6,0c0.867-0.1,1.317-0.184,1.35-0.25c-0.033-0.3,0.017-0.733,0.15-1.3
		c0.167-0.733,0.283-1.267,0.35-1.6c0.133-0.566,0.333-1.1,0.6-1.6c0.167-0.233,0.283-0.417,0.35-0.55c0.133-0.233,0.2-0.5,0.2-0.8
		c0.167-0.133,0.383-0.15,0.65-0.05c-0.066-0.367-0.283-0.833-0.65-1.4c-0.367-0.566-0.583-1.05-0.65-1.45l-0.05-0.75
		c0.167-1.133,1.617-0.567,4.35,1.7c0,1.434-0.117,2.533-0.35,3.3c-0.167,0.5-0.434,0.9-0.8,1.2c-0.5,0.434-0.816,0.733-0.95,0.9
		c-0.2,0.3-0.267,0.583-0.2,0.85c0.033,0.167,0.1,0.434,0.2,0.8c0.233,1.667,0.35,2.716,0.35,3.15c0,1.566-0.483,2.3-1.45,2.2
		c-0.3-0.066-0.483-0.117-0.55-0.15c-0.133-0.1-0.216-0.283-0.25-0.55c-0.167,0.333-0.5,0.6-1,0.8c-0.566,0.267-1,0.283-1.3,0.05
		l-0.1-0.35c-0.4,1.467-1.867,1.833-4.4,1.1c-0.2,0.367-0.55,0.85-1.05,1.45c3.367,0.467,4.883,1.25,4.55,2.35l-0.15,0.25
		c0.967,0.067,1.783,0.267,2.45,0.6c0.8,0.4,1.217,0.95,1.25,1.65c0,0.367-0.1,0.667-0.3,0.9c-0.2,0.267-0.483,0.383-0.85,0.35
		c0,0.033,0.8,0.183,2.4,0.45c1.567,0.5,2.317,1.3,2.25,2.4c-0.033,0.767-0.267,1.217-0.7,1.35c-0.6,0.066-1.117,0.183-1.55,0.35
		c0.1,1.034,0.083,1.667-0.05,1.9c-0.2,0.333-0.783,0.517-1.75,0.55c-1.467,0-2.3-0.017-2.5-0.05c0.067,0.367,0.05,0.75-0.05,1.15
		c-0.133,0.433-0.317,0.733-0.55,0.9c-0.5,0.267-1.2,0.367-2.1,0.3c-1-0.133-1.7-0.233-2.1-0.3V46c0,0.066,0.066,0.25,0.2,0.55
		c0.1,0.267,0.133,0.467,0.1,0.601c-0.1,0.833-0.633,1.216-1.6,1.149c-0.833-0.066-1.233-0.366-1.2-0.899
		c-0.2,0.6-0.817,1.017-1.85,1.25c-0.9,0.199-1.817,0.216-2.75,0.05c-0.4-0.667-0.317-1.834,0.25-3.5c-0.5,0.533-1.2,0.866-2.1,1
		c-0.933,0.133-1.583-0.05-1.95-0.55c0.167-0.867,0.633-1.617,1.4-2.25c0.4-0.367,1.167-0.883,2.3-1.55
		c-0.8,0.133-1.383,0.183-1.75,0.15c-0.133-0.433-0.083-0.95,0.15-1.55c0.233-0.567,0.567-1.034,1-1.4c-0.566,0-1.083-0.1-1.55-0.3
		c0.2-0.533,0.45-0.967,0.75-1.3c-0.7,0.167-1.283,0.1-1.75-0.2c0.3-1.5,1.133-2.733,2.5-3.7c-1.267,0.333-2.483,0.317-3.65-0.05
		c-0.133-0.433,0.066-0.95,0.6-1.55c0.167-0.233,0.617-0.65,1.35-1.25c-1.033-0.034-1.65-0.083-1.85-0.15
		c-0.7-0.2-1.066-0.683-1.1-1.45c-0.034-0.333,0.05-0.583,0.25-0.75c0.2-0.2,0.417-0.217,0.65-0.05
		c-0.233-0.333-0.367-0.633-0.4-0.9c-0.067-0.3,0.066-0.4,0.4-0.3c-0.6-0.267-1-0.934-1.2-2c-0.2-1.1-0.05-1.883,0.45-2.35l0.85,0.4
		c0.2,0.3,0.35,0.6,0.45,0.9c0.033,0.133,0.067,0.3,0.1,0.5C25.783,24.15,25.867,23.85,26,23.65z M64.8,3.3l-0.1-0.95
		c1.5-0.067,2.617,0.383,3.35,1.35c0.3,0.4,0.4,1.066,0.3,2c-0.1,0.933-0.383,1.117-0.85,0.55c0.133,0.3,0.25,0.667,0.35,1.1
		c0.033,0.233,0.083,0.6,0.15,1.1c2.4,0.066,3.217,0.9,2.45,2.5c0.2,0.033,0.683,0,1.45-0.1c0.733-0.033,1.167,0.066,1.3,0.3
		c0.133,0.267,0.117,0.667-0.05,1.2c-0.1,0.3-0.267,0.683-0.5,1.15c1.1,0.433,1.317,1.567,0.65,3.4
		c-0.633,1.733-1.45,2.75-2.45,3.05c0.667,0.5,1.117,1.066,1.35,1.7c0.333,0.8,0.167,1.45-0.5,1.95c-0.367,0.3-0.917,0.367-1.65,0.2
		c-0.7-0.133-1.233-0.383-1.6-0.75c0,0.8-0.017,1.267-0.05,1.4c-0.1,0.633-0.383,0.816-0.85,0.55c-0.167-0.1-0.283-0.367-0.35-0.8
		c-0.067-0.5-0.167-0.817-0.3-0.95c-0.267,0.333-0.55,0.867-0.85,1.6c-0.1,0.167-0.367,0.467-0.8,0.9
		c-0.367,0.367-0.6,0.667-0.7,0.9c-0.2,0.4-0.3,1.317-0.3,2.75c0,0.067,0.1,0.55,0.3,1.45c0.133,0.633,0.1,1.083-0.1,1.35
		c-0.267,0.367-0.784,0.45-1.55,0.25c-0.867-0.3-1.433-0.467-1.7-0.5c0,0.267,0.033,0.833,0.1,1.7c0,0.767-0.2,1.217-0.6,1.35
		c-0.6,0.2-1.133-0.05-1.6-0.75c-0.2-0.3-0.483-0.883-0.85-1.75c0,0.3,0,0.817,0,1.55C58.183,34.683,57.9,35,57.4,35
		c-0.633,0-0.95-0.383-0.95-1.15c-0.1,0.367-0.367,0.6-0.8,0.7c-0.433,0.133-0.816,0.1-1.15-0.1c-0.6-0.3-0.8-1.067-0.6-2.3
		c-0.333,0.4-0.7,0.667-1.1,0.8c-0.5,0.133-0.933,0.033-1.3-0.3c-0.5-0.433-0.633-1.117-0.4-2.05c0.2-0.767,0.583-1.517,1.15-2.25
		c-0.933,0.333-1.7,0.316-2.3-0.05c-0.034-1.033,0.333-2.167,1.1-3.4c-0.233-0.033-0.617,0.017-1.15,0.15
		c-0.5,0.167-0.9,0.217-1.2,0.15c-0.1-0.8,0.733-1.717,2.5-2.75c-0.633,0.033-1.117,0.066-1.45,0.1
		c-0.633,0.034-1.083-0.066-1.35-0.3c0-0.5,0.533-1,1.6-1.5c1.2-0.6,1.883-1.033,2.05-1.3L51.3,19.4c-0.2-0.433,0-0.683,0.6-0.75
		c0.1,0,0.55,0.033,1.35,0.1c0.367-0.8,0.7-1.367,1-1.7c-0.433-0.167-0.583-0.383-0.45-0.65c0.067,0.033,0.133,0.067,0.2,0.1
		c0.267,0.133,0.533,0.367,0.8,0.7c0-0.733-0.017-1.317-0.05-1.75c0-0.833,0.183-1.333,0.55-1.5c0.733-0.3,1.217-0.05,1.45,0.75
		c-0.067-1.267,0.383-2.15,1.35-2.65l0.05,0.85c0.2-0.633,0.583-0.883,1.15-0.75c0.567,0.133,0.95,0.583,1.15,1.35
		c0-2.067,0.617-2.833,1.85-2.3l0.05,0.2c0.066-0.367,0.217-0.65,0.45-0.85c0.067-0.566,0.267-0.966,0.6-1.2
		c0.367-0.267,0.8-0.2,1.3,0.2c0.333-0.2,0.767-0.316,1.3-0.35l1.4,0.1c-1.133-0.4-1.867-1.216-2.2-2.45
		C65.1,6.483,64.967,5.3,64.8,3.3z M91.45,16.2c-0.101,0-0.283-0.05-0.55-0.15c0.1-0.066,0.267-0.1,0.5-0.1L91.45,16.2z M92.7,15.95
		c0.566-0.534,1.083-0.85,1.55-0.95c0.066-0.033,0.134-0.05,0.2-0.05h0.2c0.133,0.5,0.183,1.017,0.149,1.55l-2.45-0.25
		c0.067-0.067,0.15-0.133,0.25-0.2L92.7,15.95z M86,51.15c1.2,0.033,2.6,0.383,4.2,1.05l2.75,2.5
		c0.066,0.333-0.017,0.633-0.25,0.899c-0.267,0.334-0.417,0.551-0.45,0.65c-0.066,0.2-0.033,0.517,0.1,0.95
		c0.134,0.434,0.167,0.767,0.101,1c-0.4,0.066-0.75,0-1.05-0.2c-0.334,0.4-0.384,1.15-0.15,2.25c0.233,1.2,0.283,2,0.15,2.4
		C90.9,62.85,90.3,62.816,89.6,62.55c-0.699-0.267-1.283-0.666-1.75-1.2c0.067,0.834,0.017,1.567-0.149,2.2
		c-0.2,0.733-0.517,1.15-0.95,1.25c-0.634,0.134-1.167-0.116-1.6-0.75c-0.367-0.5-0.601-1.1-0.7-1.8
		c0.066,0.833-0.15,1.483-0.65,1.95c-0.5,0.533-1.184,0.7-2.05,0.5c-0.066-0.434,0.017-1.25,0.25-2.45
		c-0.167,0.733-0.717,1.25-1.65,1.55c-0.767,0.233-1.55,0.283-2.35,0.15c-0.134-0.467-0.05-1.017,0.25-1.65c0.066-0.1,0.4-0.6,1-1.5
		c-0.934,0.634-2.25,0.851-3.95,0.65c0.133-0.4,0.517-0.884,1.15-1.45c-1.167,0.467-2.767,0.6-4.8,0.4
		c-0.133-0.667,0.067-1.284,0.6-1.851c0.2-0.233,0.417-0.399,0.65-0.5c-0.267-0.267-0.417-0.717-0.45-1.35
		c-0.034-0.566,0.017-1.033,0.15-1.4c0.267-0.633,0.833-1.033,1.7-1.2c0.9-0.133,1.517,0.117,1.851,0.75
		c0.767-0.833,1.767-1.433,3-1.8c1.161-0.398,2.319-0.515,3.475-0.35c-0.61-0.104-0.519-0.37,0.275-0.8
		c0.733-0.434,1.233-0.65,1.5-0.65C85,51.15,85.533,51.116,86,51.15z M49.85,35.75l0.1-0.8l1.25-1
		C51.1,35.05,50.65,35.65,49.85,35.75z M47.2,33.1l0.75-1.15l0.25-2.25C48.233,33.067,47.9,34.2,47.2,33.1z M65.45,35.2l0.75-2.25
		c0.066,2.833,0.05,4.583-0.05,5.25c-0.4,2.367-1.467,3.4-3.2,3.1c-1.467-0.267-1.583-1.267-0.35-3
		C63.3,37.3,64.25,36.267,65.45,35.2z"/>
	<path style="fill-rule:evenodd;clip-rule:evenodd;fill:#848958;" d="M94.65,14.95c0.267,0.767,0.267,1.566,0,2.4
		c0.5-0.367,0.983-0.65,1.449-0.85c0.801,0,1.434-0.033,1.9-0.1c-1,0.2-2,0.783-3,1.75c0.566,0.033,0.75,0.317,0.55,0.85
		c-0.267,0.833-0.399,1.283-0.399,1.35c0.166,0.933,1.35,1.2,3.55,0.8c-0.934,0.2-2.167,0.583-3.7,1.15
		c-1.934,0.767-2.866,1.4-2.8,1.9c0.434,0.033,0.934,0.017,1.5-0.05c0.333-0.033,0.833-0.1,1.5-0.2c-0.634,0.6-0.867,1.35-0.7,2.25
		c0.566,0.066,1.316,0.017,2.25-0.15c1.1-0.233,1.85-0.35,2.25-0.35c-0.167,0.333-0.25,0.667-0.25,1h1.2l-1.25,0.8
		c-0.5,0.333-0.834,0.667-1,1c1.399,0.467,3.05,0.45,4.95-0.05c-0.733,0.4-1.567,0.983-2.5,1.75c-1.233,1.033-1.75,1.8-1.551,2.3
		c0.2,0.4,0.7,0.583,1.5,0.55c0.467-0.033,1.101-0.1,1.9-0.2c-0.033,0.133-0.3,0.983-0.8,2.55c-0.334,1.033-0.4,1.883-0.2,2.55
		c0.533,0.167,1.116,0.133,1.75-0.1c0.566-0.233,1.05-0.6,1.45-1.1v0.7c1.899,0.267,2.916-0.117,3.05-1.15
		c0.167,0.633,0.816,0.95,1.95,0.95c0.6,0,0.967-0.033,1.1-0.1c0.2-0.066,0.351-0.316,0.45-0.75c0.066-0.3,0.083-0.7,0.05-1.2
		c-0.066-0.4-0.133-0.733-0.2-1c0.134,0.2,0.384,0.333,0.75,0.4c0.467,0.066,0.851,0,1.15-0.2c0.366-0.267,0.55-0.683,0.55-1.25
		c0-0.566-0.166-1.033-0.5-1.4c0.4,0.1,0.783-0.033,1.15-0.4c0.467-0.467,0.583-1.317,0.35-2.55c-0.2-1.2-0.55-2.017-1.05-2.45
		c0.5,0.167,1.066,0.083,1.7-0.25c0.7-0.434,1.217-0.75,1.55-0.95c0,0.3-0.033,0.733-0.1,1.3c0.033,0.433,0.25,0.7,0.649,0.8
		c0.733,0.2,1.367-0.3,1.9-1.5c0.267,0.2,0.583,0.3,0.95,0.3c1.066,0,2.017-0.417,2.85-1.25c0.934-0.9,1.134-1.8,0.6-2.7
		c0.7,0.233,1.4,0.3,2.101,0.2c0.063-0.222,0.063-0.355,0-0.4c0.064,0.043,0.082,0.16,0.05,0.35c-0.066,0.267-0.283,0.733-0.65,1.4
		l1.051,0.15c0,0.067,0.017,0.25,0.05,0.55v0.05l-0.45,0.05c-1.3,0.1-2.066,0.183-2.3,0.25c-0.233,0.1-0.566,0.683-1,1.75
		c-0.2,0.433-0.351,1.4-0.45,2.9c0.667,0.133,1.134,0.517,1.4,1.15c0.199,0.6,0.199,1.233,0,1.9
		c-0.634,0.267-1.067,0.417-1.301,0.45c0.7,0.167,1,0.683,0.9,1.55c0,0.067-0.184,0.767-0.55,2.1c-0.233,0.733-0.367,1.233-0.4,1.5
		c-0.066,0.1-0.6,0.383-1.6,0.85c-0.101,0.066-0.434,0.183-1,0.35c-0.134,0.066-0.316,0.333-0.55,0.8
		c-0.067,0.2-0.034,0.717,0.1,1.55c0.167,0.767,0.134,1.267-0.1,1.5c-0.334,0.367-0.801,0.534-1.4,0.5c-0.533,0-1.05-0.15-1.55-0.45
		c0.566,0.833,0.717,1.767,0.45,2.8c-0.867,0.3-1.5,0.199-1.9-0.301c0.533,0.867,0.667,2.284,0.4,4.25
		c-0.367,0.167-0.867,0.217-1.5,0.15c-0.9-0.1-1.417-0.15-1.551-0.15c-1.866,0.134-3.3,0.2-4.3,0.2
		c-1.733,0.066-3.133-0.116-4.2-0.55c-1.033-0.167-1.816-0.667-2.35-1.5c-0.233-0.066-0.667-0.05-1.3,0.05
		c-0.566,0.066-0.983,0.033-1.25-0.1c-0.7-0.367-1.05-1.316-1.05-2.851c0-1.833-0.117-2.933-0.351-3.3
		c-0.666,0.633-1.316,0.733-1.95,0.3c0.067-0.367,0.45-1.533,1.15-3.5c0.5-1.5,0.75-2.684,0.75-3.55c0-0.2-0.066-0.483-0.2-0.85
		c-0.133-0.4-0.217-0.733-0.25-1c-0.033-0.534,0.05-1.233,0.25-2.1c0.334-1.267,0.517-1.983,0.55-2.15
		c-0.366,1.267-1.166,2.283-2.399,3.05l-0.55,0.35c-0.334-0.167-0.467-0.417-0.4-0.75c-0.3,0.833-0.9,1.583-1.8,2.25
		c-0.867,0.566-1.783,0.95-2.75,1.15c0.1-0.733,0.05-1.433-0.15-2.1c-0.267,0.333-0.649,0.85-1.149,1.55
		c-0.101-0.7-0.567-1.534-1.4-2.5c0.134-0.667,0.184-1.167,0.15-1.5H86.1c0.4-0.767,0.567-1.567,0.5-2.4
		c-0.1-0.867-0.433-1.566-1-2.1c1-2.633,1.65-4.5,1.95-5.6c0.5-1.9,0.316-2.9-0.55-3c-0.4,0.066-0.75,0.05-1.05-0.05
		c0.333,0.1,0.767,0.1,1.3,0c0.6-0.066,1.05-0.083,1.35-0.05L88.7,18c0.533-0.567,0.934-1,1.2-1.3c0.533-0.534,1.033-0.784,1.5-0.75
		c-0.233,0-0.4,0.033-0.5,0.1c0.267,0.1,0.449,0.15,0.55,0.15c0.033,0.267,0.166,0.45,0.399,0.55c0.2-0.2,0.367-0.367,0.5-0.5
		l2.45,0.25C94.833,15.967,94.783,15.45,94.65,14.95z M151.1,37.95c-0.033-0.034-0.083-0.083-0.149-0.15
		c-0.167-0.2-0.566-0.433-1.2-0.7c0.434,0.167,0.7,0.267,0.8,0.3C150.816,37.567,151,37.75,151.1,37.95z M146.95,47.2
		c-0.033-0.033-0.05-0.066-0.05-0.101c-0.067-0.233-0.15-0.416-0.25-0.55C146.783,46.717,146.884,46.934,146.95,47.2z M146.55,49.45
		l0.2-0.55c0.134-0.5,0.2-0.934,0.2-1.301C146.983,48.233,146.85,48.85,146.55,49.45z M21,71.4c-0.2,0.267-0.533,0.616-1,1.05
		L19.6,73c0.1-0.267,0.316-0.566,0.65-0.9C20.617,71.8,20.867,71.566,21,71.4z M20.45,71.2H20.4c0.233-0.134,0.467-0.217,0.7-0.25
		C20.867,71.017,20.65,71.1,20.45,71.2z M20.45,69.85l-0.15,0.4c-0.033,0.2-0.066,0.5-0.1,0.9
		C20.167,70.583,20.25,70.15,20.45,69.85z M4.8,60.3l-0.05,0.15c0,0.033-0.017,0.066-0.05,0.1C4.733,60.45,4.767,60.366,4.8,60.3z
		 M11.45,57c-0.267,0.667-0.4,1.333-0.4,2s0.133,1.217,0.4,1.65c-0.733-1.134-0.65-2.551,0.25-4.25c0.867-1.667,1.867-2.2,3-1.601
		c-0.6-0.3-1.2-0.25-1.8,0.15C12.3,55.384,11.817,56.066,11.45,57z M37.65,57.75c-0.333-0.167-0.583-0.384-0.75-0.65l0.05,1.601
		l-0.05-0.65C36.233,58.15,35.6,58.1,35,57.9l-0.3-1.15c-0.667,1.033-1.284,1.833-1.85,2.4c-0.767,0.733-1.633,1.267-2.6,1.6
		c-0.667,0.233-1.5,0.384-2.5,0.45c-1.3,0.033-2.117-0.184-2.45-0.65c-0.466-0.633-0.1-1.649,1.1-3.05c1.4-1.4,2.217-2.233,2.45-2.5
		c-0.867,0.6-1.983,0.967-3.35,1.1c-1.333,0.167-2.517,0.084-3.55-0.25c0.167-0.966,0.6-1.933,1.3-2.899
		c0.6-0.867,1.317-1.634,2.15-2.3c-0.6,0.333-1.667,0.5-3.2,0.5c-1.7-0.034-2.633-0.384-2.8-1.051
		c-0.167-0.566,0.15-1.466,0.95-2.699c0.733-1.167,1.566-2.117,2.5-2.851c-0.533-0.1-0.867-0.433-1-1
		c-0.167-0.6,0.233-1.483,1.2-2.65c1.1-1.2,1.784-1.983,2.05-2.35c-0.133-0.033-1.267,0.017-3.4,0.15c-1.6,0.066-2.6-0.15-3-0.65
		c0.3-0.5,1.133-1.617,2.5-3.35c1.066-1.367,1.733-2.483,2-3.35c-1.567,0.2-2.717,0.217-3.45,0.05c0.1,0.567,0.333,1.083,0.7,1.55
		c-0.6-0.733-0.9-1.667-0.9-2.8c0.034-1.1,0.333-2.05,0.9-2.85c-0.7-0.367-1.4-1.216-2.1-2.55c-0.733-1.3-1.083-2.333-1.05-3.1
		c0.7-0.733,1.75-0.617,3.15,0.35c0.767,0.5,1.733,1.2,2.9,2.1c0.066-1.233,0.45-1.717,1.15-1.45c0.567,0.2,0.95,0.667,1.15,1.4
		c-0.1-0.3-0.25-0.6-0.45-0.9l-0.85-0.4c-0.5,0.467-0.65,1.25-0.45,2.35c0.2,1.066,0.6,1.733,1.2,2c-0.333-0.1-0.467,0-0.4,0.3
		c0.033,0.267,0.167,0.567,0.4,0.9c-0.233-0.167-0.45-0.15-0.65,0.05c-0.2,0.167-0.284,0.417-0.25,0.75
		c0.033,0.767,0.4,1.25,1.1,1.45c0.2,0.067,0.817,0.117,1.85,0.15c-0.733,0.6-1.183,1.017-1.35,1.25
		c-0.533,0.6-0.733,1.117-0.6,1.55c1.167,0.367,2.383,0.383,3.65,0.05c-1.367,0.967-2.2,2.2-2.5,3.7c0.467,0.3,1.05,0.367,1.75,0.2
		c-0.3,0.333-0.55,0.767-0.75,1.3c0.467,0.2,0.983,0.3,1.55,0.3c-0.433,0.367-0.767,0.833-1,1.4c-0.233,0.6-0.283,1.117-0.15,1.55
		c0.367,0.033,0.95-0.017,1.75-0.15c-1.133,0.667-1.9,1.183-2.3,1.55c-0.767,0.633-1.233,1.383-1.4,2.25
		c0.367,0.5,1.017,0.683,1.95,0.55c0.9-0.134,1.6-0.467,2.1-1c-0.567,1.666-0.65,2.833-0.25,3.5c0.933,0.166,1.85,0.149,2.75-0.05
		C33.383,48.417,34,48,34.2,47.4c-0.034,0.533,0.367,0.833,1.2,0.899c0.967,0.066,1.5-0.316,1.6-1.149
		c0.033-0.134,0-0.334-0.1-0.601c-0.133-0.3-0.2-0.483-0.2-0.55v-1.75c0.4,0.067,1.1,0.167,2.1,0.3c0.9,0.067,1.6-0.033,2.1-0.3
		c0.233-0.167,0.417-0.467,0.55-0.9c0.1-0.4,0.117-0.783,0.05-1.15c0.2,0.033,1.033,0.05,2.5,0.05c0.967-0.033,1.55-0.217,1.75-0.55
		c0.133-0.233,0.15-0.867,0.05-1.9c0.434-0.167,0.95-0.283,1.55-0.35c0.433-0.133,0.667-0.583,0.7-1.35
		c0.067-1.1-0.683-1.9-2.25-2.4c-1.6-0.267-2.4-0.417-2.4-0.45c0.367,0.033,0.65-0.083,0.85-0.35c0.2-0.233,0.3-0.533,0.3-0.9
		c-0.033-0.7-0.45-1.25-1.25-1.65c-0.667-0.333-1.483-0.533-2.45-0.6L41,31.5c0.333-1.1-1.183-1.883-4.55-2.35
		c0.5-0.6,0.85-1.083,1.05-1.45c2.533,0.733,4,0.367,4.4-1.1l0.1,0.35c0.3,0.233,0.733,0.216,1.3-0.05c0.5-0.2,0.833-0.467,1-0.8
		c0.034,0.267,0.117,0.45,0.25,0.55c0.067,0.033,0.25,0.083,0.55,0.15c0.967,0.1,1.45-0.633,1.45-2.2c0-0.434-0.117-1.483-0.35-3.15
		c-0.1-0.367-0.167-0.633-0.2-0.8c-0.067-0.267,0-0.55,0.2-0.85c0.133-0.167,0.45-0.466,0.95-0.9c0.367-0.3,0.633-0.7,0.8-1.2
		c0.233-0.767,0.35-1.867,0.35-3.3c-2.733-2.267-4.183-2.833-4.35-1.7c0.1-0.867,0.95-0.767,2.55,0.3c1.033,0.7,2.25,1.65,3.65,2.85
		c0.2-1.367,0.617-1.75,1.25-1.15c0.633,0.566,1,1.367,1.1,2.4c0.167-0.667,0.517-0.934,1.05-0.8c0.167,0.034,0.317,0.1,0.45,0.2
		c-0.067-0.033-0.133-0.067-0.2-0.1c-0.133,0.267,0.017,0.483,0.45,0.65c-0.3,0.333-0.633,0.9-1,1.7c-0.8-0.067-1.25-0.1-1.35-0.1
		c-0.6,0.067-0.8,0.317-0.6,0.75l0.75,0.05c-0.167,0.267-0.85,0.7-2.05,1.3c-1.067,0.5-1.6,1-1.6,1.5
		c0.267,0.233,0.717,0.333,1.35,0.3c0.333-0.033,0.817-0.066,1.45-0.1c-1.767,1.033-2.6,1.95-2.5,2.75c0.3,0.066,0.7,0.017,1.2-0.15
		c0.533-0.133,0.917-0.183,1.15-0.15c-0.767,1.233-1.133,2.367-1.1,3.4c0.6,0.367,1.367,0.383,2.3,0.05
		c-0.567,0.733-0.95,1.483-1.15,2.25c-0.233,0.933-0.1,1.617,0.4,2.05c0.367,0.333,0.8,0.434,1.3,0.3c0.4-0.133,0.767-0.4,1.1-0.8
		c-0.2,1.233,0,2,0.6,2.3c0.333,0.2,0.717,0.233,1.15,0.1c0.434-0.1,0.7-0.333,0.8-0.7c0,0.767,0.316,1.15,0.95,1.15
		c0.5,0,0.783-0.317,0.85-0.95c0-0.733,0-1.25,0-1.55c0.367,0.867,0.65,1.45,0.85,1.75c0.467,0.7,1,0.95,1.6,0.75
		c0.4-0.133,0.6-0.583,0.6-1.35c-0.066-0.867-0.1-1.433-0.1-1.7c0.267,0.033,0.833,0.2,1.7,0.5c0.767,0.2,1.283,0.117,1.55-0.25
		c0.2-0.267,0.233-0.717,0.1-1.35c-0.2-0.9-0.3-1.383-0.3-1.45c0-1.433,0.1-2.35,0.3-2.75c0.1-0.233,0.333-0.533,0.7-0.9
		c0.433-0.433,0.7-0.733,0.8-0.9c0.3-0.733,0.583-1.267,0.85-1.6c0.133,0.133,0.233,0.45,0.3,0.95c0.066,0.433,0.183,0.7,0.35,0.8
		c0.467,0.267,0.75,0.083,0.85-0.55c0.033-0.133,0.05-0.6,0.05-1.4c0.367,0.367,0.9,0.617,1.6,0.75c0.733,0.167,1.284,0.1,1.65-0.2
		c0.667-0.5,0.833-1.15,0.5-1.95c-0.233-0.633-0.684-1.2-1.35-1.7c1-0.3,1.816-1.317,2.45-3.05c0.667-1.833,0.45-2.967-0.65-3.4
		c0.233-0.467,0.4-0.85,0.5-1.15c0.167-0.533,0.184-0.934,0.05-1.2c-0.133-0.233-0.567-0.333-1.3-0.3
		c-0.767,0.1-1.25,0.133-1.45,0.1c0.767-1.6-0.05-2.434-2.45-2.5c-0.067-0.5-0.117-0.867-0.15-1.1c-0.1-0.434-0.217-0.8-0.35-1.1
		c0.467,0.567,0.75,0.383,0.85-0.55c0.1-0.934,0-1.6-0.3-2c-0.733-0.967-1.85-1.417-3.35-1.35l0.1,0.95
		c-0.1-0.733-0.15-1.316-0.15-1.75c-0.033-0.8,0.167-1.3,0.6-1.5c0.433-0.167,0.833-0.033,1.2,0.4c0.3,0.333,0.5,0.75,0.6,1.25
		c0.4-0.8,1.083-1.1,2.05-0.9c0.867,0.167,1.55,0.6,2.05,1.3c0.867-0.5,1.533,0.017,2,1.55c0.367,1.133,0.533,2.2,0.5,3.2
		c0.333-1.7,0.983-2.117,1.95-1.25c0.7,0.6,1.333,1.583,1.9,2.95L76.95,7.4l-0.4,0.55c-0.333,0.6-0.533,1.367-0.6,2.3
		c-0.1,0.9-0.034,1.65,0.2,2.25c0.066,0.167,0.283,0.417,0.649,0.75c0.367,0.3,0.601,0.6,0.7,0.9v1.35l-0.8-0.15l0.75,0.75v0.5
		c0.033,1.133,0.066,2.4,0.1,3.8c-0.133,1.067-0.717,2.267-1.75,3.6c1.2,0.4,1.884,0.867,2.05,1.4l-0.399,1.05H77.6
		c-0.333,0.533-0.949,1.066-1.85,1.6c1.333,0.367,2.116,0.7,2.35,1c0.233,0.3,0.2,0.983-0.1,2.05c-0.7,1-1.05,1.483-1.05,1.45
		c0.1,0.633-0.084,1.15-0.55,1.55c-0.167,0.267-0.484,0.533-0.95,0.8c-0.5,0.3-0.817,0.567-0.95,0.8c-0.1,0.133-0.1,0.433,0,0.9
		c0.067,0.467,0.033,0.767-0.1,0.9c-0.367,0.367-0.983,0.55-1.85,0.55c-0.966-0.066-1.65-0.083-2.05-0.05
		c0.067,0.2,0.05,0.533-0.05,1c-0.067,0.467-0.083,0.783-0.05,0.95c-0.667,0.2-1.25,0.017-1.75-0.55
		c-0.4-0.433-0.633-0.983-0.7-1.65c0.1,1.3,0,2.617-0.3,3.95c-0.133,0.5-0.533,1.75-1.2,3.75l-0.35,1c-0.267,0.733-0.6,1.184-1,1.35
		c-0.4,0.167-1.3,0.25-2.7,0.25c-1.233,0-2.183-0.05-2.85-0.149c-1.1-0.167-1.966-0.534-2.6-1.101c-0.2,1-0.867,1.767-2,2.3
		c-1.2,0.534-2.2,0.4-3-0.399c-0.534-0.5-0.733-1.417-0.6-2.75c0.133-1.534,0.083-2.534-0.15-3c-1.1,0.733-1.95,1.216-2.55,1.45
		c-0.3,1.333-0.7,2.183-1.2,2.55l-0.4,0.1L47,47.2c-0.4,0.166-0.883,0.184-1.45,0.05c-0.9-0.167-1.4-0.25-1.5-0.25
		c-0.066,0.4-0.25,1.733-0.55,4c-0.433,1.967-1.083,2.767-1.95,2.4c-0.133-0.567-0.15-1.267-0.05-2.101
		c-0.133,0.967-0.483,2.066-1.05,3.3H40.4C39.633,56.233,38.717,57.283,37.65,57.75z M48.65,44.4c0.1-0.5,0.283-1.65,0.55-3.45
		c-0.1,0.4-0.284,1-0.55,1.8c-0.167,0.667-0.233,1.233-0.2,1.7L48.65,44.4z M26.175,23.5c-0.054,0.013-0.096,0.063-0.125,0.15
		l0.15,0.15L26,23.65C26.059,23.562,26.117,23.512,26.175,23.5z M94.25,15c-0.467,0.1-0.983,0.417-1.55,0.95
		c0.2-0.233,0.333-0.367,0.399-0.4C93.467,15.25,93.85,15.067,94.25,15z M89,50.05l0.05,0.351l0.3,0.1
		c0.233,0.1,0.767,0.233,1.601,0.4c0.467,0.199,1.1,0.517,1.899,0.949c0.7,0.267,1.384,0.184,2.051-0.25
		c-2.034-0.166-3.65-0.583-4.851-1.25l0.05-0.05l1.15-0.6c0.2,0.033,0.884,0.033,2.05,0c0.8,0,1.334,0.133,1.601,0.399
		c0.199,0.2,0.267,0.733,0.199,1.601c-0.066,1.033-0.1,1.6-0.1,1.7c0.967-0.167,1.434,0.183,1.4,1.05c-0.034,1.233,0,1.916,0.1,2.05
		c0.233,0.333,0.616,0.467,1.15,0.4c0.533-0.101,0.899-0.067,1.1,0.1c0.434,0.366,0.634,0.7,0.6,1c0,0.5,0.034,0.866,0.101,1.1
		c0.066,0.2,0.066,0.483,0,0.851c-0.033,0.366,0.017,0.649,0.149,0.85c0.167,0.267,0.667,0.601,1.5,1
		c0.767,0.367,1.217,0.834,1.351,1.4c0.366,1.5-0.417,2.333-2.351,2.5c-2.666,0.2-4.133,0.399-4.399,0.6
		c1.467,1.533,1.833,2.967,1.1,4.3c-0.733,0.233-1.7,0.334-2.899,0.301c-1.467,0-2.45,0.033-2.95,0.1
		c0.3,1.934-0.384,2.95-2.05,3.05c-1.7,0.101-2.483-0.684-2.351-2.35c-1.233,0.7-2.316,1.133-3.25,1.3
		c-1.133,0.2-2.267,0.05-3.399-0.45c-1.367-0.566-2.134-1.333-2.301-2.3c0.034-1.233-0.05-2.3-0.25-3.2
		c-1.667,0.467-2.816,0.566-3.45,0.3c-0.7-0.267-1.267-1.133-1.7-2.6c-0.333-0.033-0.784-0.017-1.35,0.05
		c-0.633,0.066-1.083,0.101-1.35,0.101L69.45,62.6c-0.633,0.267-1.367,0.417-2.2,0.45c-1,0.066-1.683-0.1-2.05-0.5
		c-0.434-0.467-0.467-1.1-0.1-1.899c0.3-0.767,0.75-1.25,1.35-1.45c0.733,0.733,1.583,1.033,2.55,0.899
		c1.033-0.166,1.333-0.833,0.9-2l2.35,0.45c-0.533,0.566-0.733,1.184-0.6,1.851c2.033,0.199,3.633,0.066,4.8-0.4
		c-0.633,0.566-1.017,1.05-1.15,1.45c1.7,0.2,3.017-0.017,3.95-0.65c-0.6,0.9-0.934,1.4-1,1.5c-0.3,0.634-0.384,1.184-0.25,1.65
		c0.8,0.133,1.583,0.083,2.35-0.15c0.934-0.3,1.483-0.816,1.65-1.55c-0.233,1.2-0.316,2.017-0.25,2.45
		c0.866,0.2,1.55,0.033,2.05-0.5c0.5-0.467,0.717-1.117,0.65-1.95c0.1,0.7,0.333,1.3,0.7,1.8c0.433,0.634,0.966,0.884,1.6,0.75
		c0.434-0.1,0.75-0.517,0.95-1.25c0.166-0.633,0.217-1.366,0.149-2.2c0.467,0.534,1.051,0.934,1.75,1.2
		c0.7,0.267,1.301,0.3,1.801,0.101c0.133-0.4,0.083-1.2-0.15-2.4c-0.233-1.1-0.184-1.85,0.15-2.25c0.3,0.2,0.649,0.267,1.05,0.2
		c0.066-0.233,0.033-0.566-0.101-1c-0.133-0.434-0.166-0.75-0.1-0.95c0.033-0.1,0.184-0.316,0.45-0.65
		c0.233-0.267,0.316-0.566,0.25-0.899l-2.75-2.5c-1.601-0.667-3-1.017-4.2-1.05c0.233-0.2,0.384-0.434,0.45-0.7l2.5-0.601L89,50.05z
		 M111.95,71.55H112l-0.05,0.55V71.55z M47.2,33.1c0.7,1.1,1.033-0.033,1-3.4l-0.25,2.25L47.2,33.1z M49.85,35.75
		c0.8-0.1,1.25-0.7,1.35-1.8l-1.25,1L49.85,35.75z M22.85,44.55c0.6,0.1,1.133-0.15,1.6-0.75
		C24.05,43.767,23.517,44.017,22.85,44.55z M65.45,35.2c-1.2,1.066-2.15,2.1-2.85,3.1c-1.233,1.733-1.117,2.733,0.35,3
		c1.733,0.3,2.8-0.733,3.2-3.1c0.1-0.667,0.117-2.417,0.05-5.25L65.45,35.2z"/>
	<path style="fill-rule:evenodd;clip-rule:evenodd;fill:#6D7247;" d="M118.2,60.85c1.5-0.399,2.116-1.333,1.85-2.8L120.4,58
		c-0.101,0.4-0.25,1.017-0.45,1.85c-0.267,0.634-0.767,1-1.5,1.101L118.2,60.85z M120.45,64.7c-0.467-0.634-0.783-1.084-0.95-1.351
		c-0.3-0.433-0.417-0.733-0.35-0.899c0.199-0.4,0.55-0.584,1.05-0.55c0.733,0.066,1.166,0.083,1.3,0.05
		c0.866-0.2,1.35-0.467,1.45-0.8c0-0.667,0-1.367,0-2.101V56.2c-0.101,0.267-0.467,0.434-1.101,0.5
		c0.167-1.033,0.367-1.767,0.601-2.2c-1,0-1.667,0.366-2,1.1c-0.533,1.233-0.851,1.9-0.95,2c-0.667,0.7-1.8,1.067-3.4,1.101
		c-1.466,0.033-2.649-0.2-3.55-0.7c-0.033,1.033-0.316,1.717-0.85,2.05c-0.334,0.2-1.033,0.3-2.101,0.3
		c-0.066-0.466-0.366-0.699-0.899-0.699c-0.867,0.166-1.934,0.25-3.2,0.25c-0.634-0.267-1.033-0.483-1.2-0.65
		c-0.3-0.3-0.45-0.717-0.45-1.25c-0.699,0.533-1.449,0.684-2.25,0.45c-0.767-0.2-1.283-0.7-1.55-1.5
		c0.134,0.767,0.384,1.75,0.75,2.95c-0.467,0-0.899,0.133-1.3,0.399c0.434,0.467,1.033,0.783,1.8,0.95l0.101,0.2
		c0.333,0.733,0.899,1.217,1.699,1.45c1,0.333,1.667,0.649,2,0.949c0.334,0.334,0.534,0.5,0.601,0.5l0.25,0.7
		c0.1,0.2,0.149,0.684,0.149,1.45c0.034,0.634,0.184,1.1,0.45,1.4c0.134,0.133,0.45,0.183,0.95,0.149
		c0.434-0.033,0.75,0.134,0.95,0.5c0.3,0.566,0.1,1.283-0.601,2.15c-0.633,0.8-1.25,1.25-1.85,1.35c0.366,2.101-1.1,3.267-4.4,3.5
		l-0.3,0.8c-0.666,0.2-1.566,0.184-2.7-0.05c-1.3-0.233-2.183-0.333-2.649-0.3c-0.2,0.033-0.667,0.184-1.4,0.45
		c-0.767,0.333-1.267,0.517-1.5,0.55c-0.633-0.1-1.233-0.083-1.8,0.05c-0.267,0.066-0.5,0.283-0.7,0.65
		c-0.2,0.399-0.434,0.633-0.7,0.7c-1.267,0.1-2.416,0.133-3.449,0.1c-1.101-0.066-1.834-0.184-2.2-0.35
		c-0.667-0.334-0.917-0.967-0.75-1.9c-1.3,0.634-2.767,0.967-4.4,1c-2,0-2.883-0.733-2.649-2.2c-1.567-0.1-2.467-0.2-2.7-0.3
		c-0.733-0.3-1-1.033-0.8-2.2c-0.3-0.066-0.7-0.1-1.2-0.1l-1.2-0.05c0.033-1.067,0.017-1.867-0.05-2.4
		c-0.867,0.033-1.517,0.033-1.95,0c-0.767-0.033-1.367-0.2-1.8-0.5c0.167-0.767,0.333-1.25,0.5-1.45
		c-0.667,0.101-1.217,0.05-1.65-0.149c-0.5-0.267-0.7-0.717-0.6-1.351c-1.633-0.066-2.65-0.2-3.05-0.399
		c-0.6-0.267-1.217-0.983-1.85-2.15c-0.7,1.566-0.533,3.167,0.5,4.8c0.934,1.533,2.233,2.584,3.9,3.15l-0.1,0.75
		c-0.067,0.033-0.317,0.05-0.75,0.05c-0.3,0.033-0.533,0.134-0.7,0.3c-0.233,0.2-0.35,0.517-0.35,0.95s-0.083,0.767-0.25,1
		c-0.5,0.634-1.216,0.967-2.15,1c-0.967,0.066-1.333-0.384-1.1-1.35c-1.367,0.6-3.25,0.683-5.65,0.25
		c-0.066-0.733-0.033-1.267,0.1-1.601c-0.4,0.9-1.933,1.066-4.6,0.5c-2.767-0.533-3.883-1.45-3.35-2.75
		c0.7-0.133,2.733-0.1,6.1,0.101C54.617,71.017,55.9,70,55.5,68.1c-0.467,0.733-1.4,1.101-2.8,1.101
		c-1.333-0.033-2.367-0.351-3.1-0.95c-0.4,0.5-1.1,0.8-2.1,0.9c-0.933,0.1-1.733,0.017-2.4-0.25c-0.333-0.167-0.717-0.5-1.15-1
		c-0.434-0.5-0.75-0.784-0.95-0.851c-1.167-0.166-1.917-0.3-2.25-0.399c-0.5-0.134-0.783-0.834-0.85-2.101
		c-0.833,1-1.95,1.733-3.35,2.2c-1.433,0.5-2.133,0.15-2.1-1.05c-0.233,1.066-1,2.017-2.3,2.85c-1.554,0.959-2.288,0.751-2.2-0.625
		c-0.149,1.577-1.366,1.902-3.65,0.976c-2.333-1-2.9-2.117-1.7-3.351c-0.967,0.4-1.867,0.617-2.7,0.65
		c-0.967,0.066-1.683-0.15-2.15-0.65c0.467-0.633,0.817-1.116,1.05-1.45c0.367-0.6,0.583-1.133,0.65-1.6
		c-0.2,0.033-0.517,0.017-0.95-0.05c-0.467-0.066-0.783-0.084-0.95-0.05c-0.1-0.634-0.133-1.101-0.1-1.4
		c-0.233,0.866-0.684,1.517-1.35,1.95c-0.767,0.434-1.55,0.383-2.35-0.15c-0.467-0.333-0.75-0.816-0.85-1.45
		c-0.033-0.3-0.033-0.883,0-1.75c-0.733,0.233-1.333,0.384-1.8,0.45c-0.833,0.134-1.417,0-1.75-0.399
		c-0.167-0.2-0.217-0.584-0.15-1.15c0.133-0.7,0.216-1.2,0.25-1.5c0.367-0.934,0.85-1.616,1.45-2.05c0.6-0.4,1.2-0.45,1.8-0.15
		l0.2,0.101c0.033-0.567,0.067-1,0.1-1.301c0.067-0.5,0.2-0.899,0.4-1.199c-0.533,0.399-1.017,0.399-1.45,0
		c-0.4-0.367-0.55-0.867-0.45-1.5c-0.233,0.166-0.517,0.25-0.85,0.25c-0.367,0-0.667,0-0.9,0c-0.267-0.967-0.1-1.834,0.5-2.601
		c-0.6,0.434-1.233,0.517-1.9,0.25V48C9.717,48.533,8.6,48.65,7,48.35c-0.1-1,0.633-1.966,2.2-2.899c-1.667-1.034-2.4-1.767-2.2-2.2
		c0.333-0.633,1.133-0.683,2.4-0.15c0.467-0.767,0.733-1.184,0.8-1.25c0.267-0.333,0.683-0.667,1.25-1
		c0.833-0.5,1.417-0.783,1.75-0.85c-0.1-0.533,0.283-1.033,1.15-1.5s1.533-0.55,2-0.25c-0.067-0.8-0.033-1.483,0.1-2.05
		c0.033,0.066,0.183,0.2,0.45,0.4c0.2,0.133,0.35,0.3,0.45,0.5c-0.133-0.767,0.05-1.467,0.55-2.1c0.533-0.7,1.133-0.8,1.8-0.3
		c-0.067-0.667,0.183-1.25,0.75-1.75c-0.367-0.467-0.6-0.983-0.7-1.55c0.733,0.167,1.883,0.15,3.45-0.05
		c-0.267,0.867-0.934,1.983-2,3.35c-1.367,1.733-2.2,2.85-2.5,3.35c0.4,0.5,1.4,0.717,3,0.65c2.133-0.133,3.267-0.184,3.4-0.15
		c-0.267,0.367-0.95,1.15-2.05,2.35c-0.966,1.167-1.367,2.05-1.2,2.65c0.133,0.567,0.467,0.9,1,1
		c-0.934,0.733-1.767,1.684-2.5,2.851c-0.8,1.233-1.117,2.133-0.95,2.699c0.167,0.667,1.1,1.017,2.8,1.051
		c1.533,0,2.6-0.167,3.2-0.5c-0.833,0.666-1.55,1.433-2.15,2.3c-0.7,0.967-1.133,1.934-1.3,2.899c1.033,0.334,2.216,0.417,3.55,0.25
		c1.367-0.133,2.483-0.5,3.35-1.1c-0.233,0.267-1.05,1.1-2.45,2.5c-1.2,1.4-1.566,2.417-1.1,3.05c0.333,0.467,1.15,0.684,2.45,0.65
		c1-0.066,1.833-0.217,2.5-0.45c0.967-0.333,1.833-0.866,2.6-1.6c0.566-0.567,1.183-1.367,1.85-2.4L35,57.9
		c0.6,0.199,1.233,0.25,1.9,0.149l0.05,0.65v0.6c0.267,0.101,0.733,0.117,1.4,0.05c0.8-0.066,1.316-0.083,1.55-0.05
		c-0.767,0.233-1.7,0.316-2.8,0.25c-1.033-0.033-1.783-0.166-2.25-0.399c0.2,0.233,0.25,0.5,0.15,0.8
		c-0.733,0.434-1.767,0.616-3.1,0.55c0.7,0.134,1.85,0.467,3.45,1c1.4,0.3,2.3,0.017,2.7-0.85c0.833,0.833,1.967,1.25,3.4,1.25
		c0.966,1.1,1.95,1.5,2.95,1.199c0.5-0.133,0.9-0.399,1.2-0.8c0.4,0.334,0.95,0.601,1.65,0.8c0.6,0.767,1.383,1.233,2.35,1.4
		c1,0.167,2.017-0.05,3.05-0.65c0.1-0.633,0.4-1.083,0.9-1.35h0.1c1.367,0.634,2.967,0.884,4.8,0.75c2-0.1,3.033-0.65,3.1-1.65
		c0.1-0.933-0.517-1.6-1.85-2c-0.767-0.267-2.117-0.483-4.05-0.649c0.033-1.967-0.017-3.417-0.15-4.351
		c-0.2-1.666-0.883-2.383-2.05-2.149c-0.867-1.767-1.617-3.017-2.25-3.75c-1.133-1.367-2.383-1.95-3.75-1.75
		c0.5-0.367,0.9-1.217,1.2-2.55c0.6-0.233,1.45-0.717,2.55-1.45c0.233,0.466,0.283,1.466,0.15,3c-0.133,1.333,0.066,2.25,0.6,2.75
		c0.8,0.8,1.8,0.934,3,0.399c1.133-0.533,1.8-1.3,2-2.3c0.633,0.566,1.5,0.934,2.6,1.101c0.667,0.1,1.617,0.149,2.85,0.149
		c1.4,0,2.3-0.083,2.7-0.25c0.4-0.166,0.733-0.616,1-1.35l0.35-1c0.667-2,1.066-3.25,1.2-3.75c0.3-1.333,0.4-2.65,0.3-3.95
		c0.066,0.667,0.3,1.217,0.7,1.65c0.5,0.567,1.083,0.75,1.75,0.55c-0.033-0.167-0.017-0.483,0.05-0.95c0.1-0.467,0.117-0.8,0.05-1
		c0.4-0.033,1.083-0.017,2.05,0.05c0.867,0,1.483-0.183,1.85-0.55c0.133-0.133,0.167-0.433,0.1-0.9c-0.1-0.467-0.1-0.767,0-0.9
		c0.133-0.233,0.45-0.5,0.95-0.8c0.466-0.267,0.783-0.533,0.95-0.8c0.466-0.4,0.649-0.917,0.55-1.55c0,0.034,0.35-0.45,1.05-1.45
		c0.3-1.067,0.333-1.75,0.1-2.05c-0.233-0.3-1.017-0.633-2.35-1c0.9-0.533,1.517-1.066,1.85-1.6c0.667,0.066,1.217,0.283,1.65,0.65
		l0.7,1.35c0.2,0.2,0.333,0.367,0.399,0.5c0.067,0.6-0.066,1.083-0.399,1.45c-0.4,0.4-1.017,0.583-1.851,0.55
		c0.567,0.167,0.967,0.483,1.2,0.95c0.267,0.467,0.3,0.967,0.101,1.5c-0.867,0.133-1.467,0.184-1.801,0.15
		c0.7,0.6,1.017,1.333,0.95,2.2l-0.2,0.15l0.15,0.3v0.15c-0.167,0.9-0.5,1.433-1,1.6l-1.4,0.1c-0.466-0.033-0.866-0.066-1.2-0.1
		c0.4,0.1,0.717,0.4,0.95,0.9c0.333,0.633,0.383,1.267,0.15,1.9v0.1c-0.733-0.067-1.183,0-1.35,0.2c-0.2,0.167-0.3,0.483-0.3,0.95
		c-0.5,0-0.9,0.033-1.2,0.1c0.267,0.8,0.35,1.566,0.25,2.3c-0.367,0.033-1.467,0.05-3.3,0.05c0.433,0.333,0.617,0.649,0.55,0.95
		c-0.533-0.267-0.9-0.75-1.1-1.45c-0.066,0.333-0.1,1.083-0.1,2.25c-0.733,0.166-1.7,0.25-2.9,0.25c0.833,0.1,1.6,0.416,2.3,0.95
		c-0.8,0.1-1.233,0.133-1.3,0.1c0,2.2-1.35,2.983-4.05,2.35c0.033-0.233-0.017-0.449-0.15-0.649c-0.1,0.133-0.283,0.616-0.55,1.45
		c-0.233,0.633-0.483,1.05-0.75,1.25c-0.4,0.3-1.216,0.383-2.45,0.25c-1.033-0.101-1.867-0.267-2.5-0.5
		c0.1,0.233,0.267,0.983,0.5,2.25c0.3,0.033,0.85,0.017,1.65-0.051c0.733-0.066,1.267-0.05,1.6,0.051c0.367,0.1,0.85,0.366,1.45,0.8
		c0.534,0.366,1.067,0.6,1.6,0.7c1.467,0.267,2.65-0.217,3.55-1.45c1.066-1.4,2.15-2.15,3.25-2.25c-0.567,1.899,0.1,2.733,2,2.5
		c1.933-0.233,3.017-1.033,3.25-2.4c0.133,0.467,0.434,0.667,0.899,0.601c0.434-0.067,0.817-0.301,1.15-0.7
		c0.3-0.334,0.434-0.867,0.4-1.601c-0.034-0.833,0.017-1.383,0.149-1.649c0.101-0.233,0.334-0.533,0.7-0.9
		c0.366-0.434,0.6-0.75,0.7-0.95c0.434,0.367,1.217,0.483,2.35,0.351c1.4-0.2,2.267-0.267,2.601-0.2c0.733,0.9,1.3,1.366,1.699,1.4
		c0.2,0.267,0.4,0.433,0.601,0.5c0.3,0.1,0.816,0.083,1.55-0.051c0.066,0.601,0.134,1.017,0.2,1.25l-2.5,0.601
		c-0.066,0.267-0.217,0.5-0.45,0.7c-0.467-0.034-1,0-1.6,0.1c-0.267,0-0.767,0.217-1.5,0.65c-0.794,0.43-0.886,0.696-0.275,0.8
		c-1.155-0.165-2.313-0.049-3.475,0.35c-1.233,0.367-2.233,0.967-3,1.8c-0.333-0.633-0.95-0.883-1.851-0.75
		c-0.867,0.167-1.433,0.567-1.7,1.2c-0.133,0.367-0.184,0.834-0.15,1.4c0.033,0.633,0.183,1.083,0.45,1.35
		c-0.233,0.101-0.45,0.267-0.65,0.5L69.9,58.1c0.434,1.167,0.133,1.834-0.9,2c-0.967,0.134-1.817-0.166-2.55-0.899
		c-0.6,0.2-1.05,0.684-1.35,1.45c-0.367,0.8-0.333,1.433,0.1,1.899c0.367,0.4,1.05,0.566,2.05,0.5c0.833-0.033,1.567-0.184,2.2-0.45
		L69.5,64.9c0.267,0,0.717-0.034,1.35-0.101c0.566-0.066,1.017-0.083,1.35-0.05c0.433,1.467,1,2.333,1.7,2.6
		c0.633,0.267,1.783,0.167,3.45-0.3c0.2,0.9,0.284,1.967,0.25,3.2c0.167,0.967,0.934,1.733,2.301,2.3
		c1.133,0.5,2.267,0.65,3.399,0.45c0.934-0.167,2.017-0.6,3.25-1.3c-0.133,1.666,0.65,2.45,2.351,2.35
		c1.666-0.1,2.35-1.116,2.05-3.05c0.5-0.066,1.483-0.1,2.95-0.1c1.199,0.033,2.166-0.067,2.899-0.301
		c0.733-1.333,0.367-2.767-1.1-4.3c0.267-0.2,1.733-0.399,4.399-0.6c1.934-0.167,2.717-1,2.351-2.5
		c-0.134-0.566-0.584-1.033-1.351-1.4c-0.833-0.399-1.333-0.733-1.5-1c-0.133-0.2-0.183-0.483-0.149-0.85
		c0.066-0.367,0.066-0.65,0-0.851c-0.066-0.233-0.101-0.6-0.101-1.1c0.034-0.3-0.166-0.634-0.6-1c-0.2-0.167-0.566-0.2-1.1-0.1
		c-0.534,0.066-0.917-0.067-1.15-0.4c-0.1-0.134-0.134-0.816-0.1-2.05c0.033-0.867-0.434-1.217-1.4-1.05
		c0-0.101,0.033-0.667,0.1-1.7c0.067-0.867,0-1.4-0.199-1.601C94.634,49.833,94.1,49.7,93.3,49.7c-1.166,0.033-1.85,0.033-2.05,0
		c1.3-0.5,2.033-0.816,2.2-0.95c0.566-0.467,0.733-1.283,0.5-2.45c-0.134-0.666-0.483-1.217-1.05-1.65c-0.634-0.5-1.034-1-1.2-1.5
		c0.5-0.8,0.85-1.4,1.05-1.8c0.333-0.667,0.45-1.267,0.35-1.8l-0.449,0.2l0.85-1.25c0.5-0.833,0.8-1.883,0.9-3.15
		c0.066-0.7,0.083-1.817,0.05-3.35c1.233-0.767,2.033-1.783,2.399-3.05c-0.033,0.167-0.216,0.883-0.55,2.15
		c-0.2,0.867-0.283,1.566-0.25,2.1c0.033,0.267,0.117,0.6,0.25,1c0.134,0.367,0.2,0.65,0.2,0.85c0,0.867-0.25,2.05-0.75,3.55
		c-0.7,1.967-1.083,3.133-1.15,3.5c0.634,0.433,1.284,0.333,1.95-0.3c0.233,0.367,0.351,1.467,0.351,3.3
		c0,1.534,0.35,2.483,1.05,2.851c0.267,0.133,0.684,0.166,1.25,0.1c0.633-0.1,1.066-0.116,1.3-0.05
		c0.533,0.833,1.316,1.333,2.35,1.5c1.067,0.434,2.467,0.616,4.2,0.55c1,0,2.434-0.066,4.3-0.2c0.134,0,0.65,0.051,1.551,0.15
		c0.633,0.066,1.133,0.017,1.5-0.15c0.267-1.966,0.133-3.383-0.4-4.25c0.4,0.5,1.033,0.601,1.9,0.301
		c0.267-1.034,0.116-1.967-0.45-2.8c0.5,0.3,1.017,0.45,1.55,0.45c0.6,0.034,1.066-0.133,1.4-0.5c0.233-0.233,0.267-0.733,0.1-1.5
		c-0.134-0.833-0.167-1.35-0.1-1.55c0.233-0.467,0.416-0.733,0.55-0.8c0.566-0.167,0.899-0.284,1-0.35c1-0.467,1.533-0.75,1.6-0.85
		c0.033-0.267,0.167-0.767,0.4-1.5c0.366-1.333,0.55-2.033,0.55-2.1c0.1-0.867-0.2-1.383-0.9-1.55
		c0.233-0.033,0.667-0.184,1.301-0.45c0.199-0.667,0.199-1.3,0-1.9c-0.267-0.633-0.733-1.017-1.4-1.15c0.1-1.5,0.25-2.467,0.45-2.9
		c0.434-1.067,0.767-1.65,1-1.75c0.233-0.067,1-0.15,2.3-0.25l0.45-0.05c0.033,0.2,0.033,0.383,0,0.55
		c0.866-0.534,1.633-0.767,2.3-0.7c-0.033,0.2,0.017,0.583,0.15,1.15c0.666-0.233,1.233-0.483,1.699-0.75
		c0.134,0.5,0.2,1.25,0.2,2.25c0.267,0.067,0.934,0.05,2-0.05c0.967-0.1,1.601-0.067,1.9,0.1c0.5-0.1,0.883,0.05,1.149,0.45
		c0.067,0.467-0.133,0.817-0.6,1.05c-0.566,0.4-0.7,0.867-0.4,1.4c0.4,0.566,0.584,1.167,0.551,1.8c0.233,0.633,0.399,1.033,0.5,1.2
		c0.166,0.3,0.483,0.617,0.949,0.95c-0.066-0.8,0.233-1.433,0.9-1.9c0.833-0.433,1.434-0.833,1.8-1.2c0.5-0.5,0.75-0.767,0.75-0.8
		c0.066-0.4,0.15-0.717,0.25-0.95l0.15-1.05c0.1-0.533,0.283-0.833,0.55-0.9c0.467-0.1,0.967,0.85,1.5,2.85s0.35,3.233-0.55,3.7
		c0.3,0.5,0.649,0.867,1.05,1.1c0.7-0.6,1.434-1.033,2.2-1.3c1.033-0.367,1.816-0.3,2.35,0.2c-0.233,0.567-0.566,1.05-1,1.45
		c0.334,0.167,1.533,0.117,3.601-0.15c1.699-0.2,2.716,0.133,3.05,1c-0.4,0.267-0.983,0.467-1.75,0.6
		c-0.934,0.133-1.566,0.267-1.9,0.4c0.2,0.066,0.367,0.133,0.5,0.2l0.2,0.05c0.634,0.267,1.033,0.5,1.2,0.7l-0.351,0.05
		c-3.199,0.633-6.283,1.45-9.25,2.45c-0.366-0.367-0.866-0.5-1.5-0.4c-0.633,0.1-1.116,0.4-1.449,0.9
		c-0.034-0.633-0.034-1.083,0-1.35c-0.7,0.267-1.284,0.65-1.75,1.15c-0.233-0.4-0.534-0.717-0.9-0.95
		c-0.434-0.233-0.833-0.3-1.2-0.2c0.033-1.733-0.283-2.9-0.95-3.5c-0.666-0.633-1.883-0.767-3.649-0.4
		c-0.033,0.133-0.05,0.25-0.05,0.35c-0.167-0.667-0.45-1.183-0.851-1.55c-0.566-0.5-1.25-0.617-2.05-0.35
		c-0.033,0.4-0.05,1.133-0.05,2.2c0.033,0.933,0,1.65-0.101,2.15L126.4,37.2c-0.233,1.5,0.083,2.95,0.949,4.35
		c0.733,1.233,1.801,2.3,3.2,3.2c-0.566-0.3-1.149-0.417-1.75-0.35c-0.7,0.1-1.166,0.434-1.399,1c-0.233,0.5-0.134,1.05,0.3,1.649
		c-0.167,0.066-0.233,0.184-0.2,0.351c0.066,0.366,0.083,0.666,0.05,0.899c0,0.134,0.084,0.5,0.25,1.101
		c0.2,0.666,0.3,1.066,0.3,1.199c-0.199,0.267-0.25,0.551-0.149,0.851c0,0.8,0.017,2.1,0.05,3.899
		c-0.066,1.534-0.45,2.684-1.15,3.45c-0.166,0.2-0.5,0.55-1,1.05c-0.366,0.367-0.649,0.717-0.85,1.051
		c-0.233,0.399-0.5,0.933-0.8,1.6c-0.3,0.434-0.867,0.616-1.7,0.55C122.634,64.083,121.95,64.634,120.45,64.7z M77.5,15.5v-1.35
		c-0.1-0.3-0.333-0.6-0.7-0.9c-0.366-0.333-0.583-0.583-0.649-0.75c-0.234-0.6-0.3-1.35-0.2-2.25c0.066-0.933,0.267-1.7,0.6-2.3
		l0.4-0.55l0.55,1.15l0.35-0.1L77.95,7.9c0.066,0.033,0.217,0.067,0.45,0.1c0.166,0.033,0.333,0.1,0.5,0.2
		c0.866-1.4,1.75-1.967,2.649-1.7c0.167,1.767,0.167,3.567,0,5.4c0.434-0.867,1.101-1.283,2-1.25c0.5,0.833,0.584,1.95,0.25,3.35
		c0.334,0,0.851-0.05,1.55-0.15c0.601-0.033,1.084,0.033,1.45,0.2c0.2,1.067-0.083,2.15-0.85,3.25c0.3,0.1,0.649,0.117,1.05,0.05
		c0.866,0.1,1.05,1.1,0.55,3c-0.3,1.1-0.95,2.967-1.95,5.6c-0.433-0.4-0.949-0.617-1.55-0.65c0.9-1.833,1.316-3.15,1.25-3.95
		c-0.066-1.033-0.8-2.15-2.2-3.35c-0.933-0.8-1.833-1.383-2.699-1.75C79.667,15.95,78.7,15.7,77.5,15.5z M94.45,32
		c-0.033,1.4-0.25,2.35-0.65,2.85c-0.333,0.433-1.25,0.967-2.75,1.6c-1.2,0.767-2.166,1.316-2.899,1.65
		c-1.301,0.633-2.233,0.583-2.801-0.15c0.601-0.367,1.017-0.633,1.25-0.8c0.4-0.233,0.7-0.667,0.9-1.3c0.134-0.533,0.184-1,0.15-1.4
		c0.5-0.7,0.883-1.217,1.149-1.55c0.2,0.667,0.25,1.367,0.15,2.1c0.967-0.2,1.883-0.583,2.75-1.15c0.899-0.667,1.5-1.417,1.8-2.25
		c-0.066,0.333,0.066,0.583,0.4,0.75L94.45,32z M86.25,31.95L85.6,31.2c0.167-0.167,0.334-0.417,0.5-0.75H86.4
		C86.434,30.783,86.384,31.283,86.25,31.95z M80.35,21.7c-0.199-0.267-0.5-0.517-0.899-0.75L77.85,25.4
		c-0.166-0.533-0.85-1-2.05-1.4c1.033-1.333,1.617-2.533,1.75-3.6c-0.033-1.4-0.066-2.667-0.1-3.8v-0.5
		c0.733,0.8,1.366,1.667,1.899,2.6C80.017,19.867,80.35,20.867,80.35,21.7z M48.65,44.4l-0.2,0.05c-0.034-0.467,0.033-1.034,0.2-1.7
		c0.267-0.8,0.45-1.4,0.55-1.8C48.933,42.75,48.75,43.9,48.65,44.4z M40.45,54.6c0.566-1.233,0.917-2.333,1.05-3.3
		c-0.1,0.834-0.083,1.533,0.05,2.101c0.867,0.366,1.517-0.434,1.95-2.4c0.3-2.267,0.483-3.6,0.55-4c0.1,0,0.6,0.083,1.5,0.25
		c0.567,0.134,1.05,0.116,1.45-0.05c-0.1,0.233-0.117,0.483-0.05,0.75l-2.5,6v0.55c-0.5,0.333-1.184,0.533-2.05,0.6
		C41.5,55.134,40.85,54.967,40.45,54.6z M22.85,44.55c0.667-0.533,1.2-0.783,1.6-0.75C23.983,44.4,23.45,44.65,22.85,44.55z
		 M37.65,57.75c1.067-0.467,1.983-1.517,2.75-3.15c0.3,1.634,0.167,2.65-0.4,3.051C39.367,58.217,38.583,58.25,37.65,57.75z
		 M64.5,72.65v-0.7c0.167,0.1,0.35,0.149,0.55,0.149C64.917,72.333,64.733,72.517,64.5,72.65z"/>
	<path style="fill-rule:evenodd;clip-rule:evenodd;fill:#585D3B;" d="M121,65.65l0.7-0.2l-0.9-0.15l-0.35-0.6
		c1.5-0.066,2.184-0.617,2.05-1.65c0.833,0.066,1.4-0.116,1.7-0.55c0.3-0.667,0.566-1.2,0.8-1.6c0.2-0.334,0.483-0.684,0.85-1.051
		c0.5-0.5,0.834-0.85,1-1.05c0.7-0.767,1.084-1.916,1.15-3.45c-0.033-1.8-0.05-3.1-0.05-3.899c-0.101-0.3-0.05-0.584,0.149-0.851
		c0-0.133-0.1-0.533-0.3-1.199c-0.166-0.601-0.25-0.967-0.25-1.101c0.033-0.233,0.017-0.533-0.05-0.899
		c-0.033-0.167,0.033-0.284,0.2-0.351c-0.434-0.6-0.533-1.149-0.3-1.649c0.233-0.567,0.699-0.9,1.399-1
		c0.601-0.066,1.184,0.05,1.75,0.35c-1.399-0.9-2.467-1.967-3.2-3.2c-0.866-1.4-1.183-2.85-0.949-4.35l0.449,1.15
		c0.101-0.5,0.134-1.217,0.101-2.15c0-1.067,0.017-1.8,0.05-2.2c0.8-0.267,1.483-0.15,2.05,0.35c0.4,0.367,0.684,0.883,0.851,1.55
		c0-0.1,0.017-0.217,0.05-0.35c1.767-0.367,2.983-0.233,3.649,0.4c0.667,0.6,0.983,1.767,0.95,3.5c0.367-0.1,0.767-0.034,1.2,0.2
		c0.366,0.233,0.667,0.55,0.9,0.95c0.466-0.5,1.05-0.883,1.75-1.15c-0.034,0.267-0.034,0.716,0,1.35c0.333-0.5,0.816-0.8,1.449-0.9
		c0.634-0.1,1.134,0.033,1.5,0.4c2.967-1,6.051-1.816,9.25-2.45l0.351-0.05c0.066,0.067,0.116,0.117,0.149,0.15
		c0.067,0.2,0.051,0.433-0.05,0.7c-0.1,0.267-0.483,0.434-1.149,0.5c-0.733,0.1-1.167,0.217-1.301,0.35
		c0.801,0.333,1.367,0.833,1.7,1.5c-0.6,0.333-1.434,0.5-2.5,0.5c-1.233-0.067-2.149-0.1-2.75-0.1c0.434,0.1,0.717,0.3,0.851,0.6
		c0.267,0.5,0.416,0.767,0.449,0.8c0.233,0.267,0.7,0.767,1.4,1.5c0.634,0.667,0.983,1.233,1.05,1.7c-0.7,0.134-1.7,0.134-3,0
		c0.367,0.066,0.65,0.25,0.851,0.55c0.1,0.134,0.183,0.316,0.25,0.55c0,0.034,0.017,0.067,0.05,0.101c0,0.066,0,0.133,0,0.2V47.6
		c0,0.367-0.066,0.801-0.2,1.301c-0.934-0.167-1.583-0.634-1.95-1.4c-0.934,0.366-1.434,1.417-1.5,3.15
		c-0.033,0.966,0.017,2.267,0.15,3.899c-0.033,1.233-0.15,1.983-0.351,2.25c-0.199,0.267-0.899,0.601-2.1,1
		c0.167-1.3-0.316-1.95-1.45-1.95c0.033-0.166,0.017-0.466-0.05-0.899c-0.066-0.467-0.1-0.767-0.1-0.9
		c-1.601,0.101-2.884,0.15-3.851,0.15c-1.8,0-2.816-0.434-3.05-1.3c0.134,1.166,0.55,3.949,1.25,8.35
		c0.366,3.9-0.033,6.116-1.2,6.65c-0.033-1.267-0.083-2.217-0.149-2.851c-0.467,0.733-1.217,1.4-2.25,2
		c-0.567,0.334-1.434,0.8-2.601,1.4c0.033,0.333-0.066,0.649-0.3,0.95c-0.467,0.1-0.9,0.133-1.3,0.1c-0.3,0.1-0.767-0.033-1.4-0.4
		c0.167,1.134-0.434,1.817-1.8,2.051c-1.267,0.233-2.35,0.033-3.25-0.601v-0.1c-0.733-1.033-1.3-1.733-1.7-2.101
		c0.4-0.166,1.05-0.383,1.95-0.649c0.733-0.267,1.167-0.684,1.3-1.25C121.116,66.25,121.1,65.983,121,65.65z M112,71.55
		c0.934,0.533,1.634,1.783,2.1,3.75c-0.433,0.533-0.916,0.783-1.449,0.75c-0.4-1.633-0.634-2.95-0.7-3.95
		c-0.101,1.834-0.566,3.551-1.4,5.15c-0.967,1.866-2.133,2.934-3.5,3.2c-0.434-2.733-0.833-4.851-1.2-6.351
		c-0.267,0.4-0.383,1.067-0.35,2c0.033,0.867-0.15,1.5-0.55,1.9c-0.533,0.566-1.5,0.8-2.9,0.7c-1.366-0.101-2.233-0.467-2.6-1.101
		c0.233,1.067-0.384,1.684-1.851,1.851c-1.733,0-2.816,0.066-3.25,0.2c-1.333,0.533-2.267,0.866-2.8,1
		c-0.899,0.233-1.916,0.183-3.05-0.15c-0.066,0.767-0.517,1.25-1.35,1.45c-0.767,0.166-1.467,0.017-2.101-0.45
		c-0.066,0.634-0.3,1.033-0.7,1.2c-0.166,0.1-0.666,0.2-1.5,0.3c-0.933,0.066-1.733,0.033-2.399-0.1
		c-0.467-0.334-0.634-0.784-0.5-1.351c0.1-0.434-0.033-0.783-0.4-1.05c-0.566-0.1-1.233-0.116-2-0.05c-1.1-0.4-1.767-0.617-2-0.65
		c-0.2-0.033-0.55,0-1.05,0.101C74,80,73.617,80.033,73.35,80c-0.7-0.066-1.133-0.2-1.3-0.4c-0.333-0.399-0.533-0.616-0.6-0.649
		c0.066-0.4-0.083-0.7-0.45-0.9c-0.3-0.133-0.65-0.166-1.05-0.1l-1.4-0.15c0.233-1.399-0.066-2.05-0.9-1.95
		c-1.566,0.167-2.417,0.217-2.55,0.15c0.433,2.3,0.517,4.066,0.25,5.3c-1.033,0.367-2.017,0.45-2.95,0.25
		c-1.1-0.267-1.75-0.916-1.95-1.95c0.167,1.034-0.55,1.584-2.15,1.65c-1.6,0.066-2.583-0.3-2.95-1.1
		c-0.8,0.399-2.083,0.483-3.85,0.25c-0.1-0.667-0.133-1.117-0.1-1.351c-0.6-0.033-1.217-0.166-1.85-0.399
		c-0.7-0.267-1.267-0.467-1.7-0.601c-1.2-0.1-2.033-0.217-2.5-0.35c-0.767-0.2-1.083-0.884-0.95-2.05c-0.033,0-0.533-0.084-1.5-0.25
		c-0.533-0.067-0.917-0.2-1.15-0.4c0.267,0.833,0.35,1.467,0.25,1.9c-1.367,0.267-3.183,0.133-5.45-0.4
		c-0.333,1.366-1.75,1.684-4.25,0.95c-2.433-0.7-3.867-1.65-4.3-2.851c-1.033,0.434-2.2,0.534-3.5,0.301
		c0.033-0.4,0.067-0.7,0.1-0.9c0.066-0.333,0.233-0.616,0.5-0.85c-1,0.399-2.033,0.466-3.1,0.199V73.3l0.4-0.25l-0.45,0.05
		l-0.05-0.55c-0.867-0.066-1.5-0.1-1.9-0.1c0.467-0.434,0.8-0.783,1-1.05c0-0.034,0.017-0.067,0.05-0.101l-0.6-0.1
		c0.2-0.101,0.417-0.184,0.65-0.25l0.65-0.101c-0.567-0.166-1.05-0.366-1.45-0.6l0.15-0.4L20,70c-0.4-0.333-0.6-0.816-0.6-1.45
		c-0.2,0.033-0.5,0-0.9-0.1c-0.433-0.101-0.733-0.15-0.9-0.15c0.033-0.1,0.066-0.383,0.1-0.85c0.033-0.4,0.133-0.7,0.3-0.9
		c-1-0.066-2.033-0.283-3.1-0.649c-1.233-0.467-2.183-0.817-2.85-1.051c-0.133-0.333-0.117-0.649,0.05-0.949
		c0.566,0,0.917-0.017,1.05-0.051c-0.433-0.433-0.783-0.416-1.05,0.051c-1.967-0.101-3.817-0.434-5.55-1
		c-2.1-0.667-2.466-1.317-1.1-1.95l-0.7-0.5L4.8,60.3c0-0.1,0-0.184,0-0.25c0.434,0.033,0.883,0.217,1.35,0.55
		c0.7,0.467,1.117,0.733,1.25,0.801c0-0.301,0.083-0.584,0.25-0.851c0.5-0.066,1.033,0.167,1.6,0.7c0.633,0.634,1.1,1,1.4,1.1
		c0.233-0.733,0.517-1.283,0.85-1.649l-0.05-0.05c-0.267-0.434-0.4-0.983-0.4-1.65s0.133-1.333,0.4-2c-0.034,0.3-0.117,0.8-0.25,1.5
		c-0.067,0.566-0.017,0.95,0.15,1.15c0.333,0.399,0.917,0.533,1.75,0.399c0.467-0.066,1.066-0.217,1.8-0.45
		c-0.033,0.867-0.033,1.45,0,1.75c0.1,0.634,0.383,1.117,0.85,1.45c0.8,0.533,1.583,0.584,2.35,0.15
		c0.667-0.434,1.117-1.084,1.35-1.95c-0.034,0.3,0,0.767,0.1,1.4c0.167-0.034,0.483-0.017,0.95,0.05
		c0.433,0.066,0.75,0.083,0.95,0.05c-0.067,0.467-0.284,1-0.65,1.6c-0.233,0.334-0.583,0.817-1.05,1.45
		c0.467,0.5,1.183,0.717,2.15,0.65c0.833-0.033,1.733-0.25,2.7-0.65c-1.2,1.233-0.633,2.351,1.7,3.351
		c2.285,0.927,3.501,0.602,3.65-0.976c-0.088,1.376,0.646,1.584,2.2,0.625c1.3-0.833,2.067-1.783,2.3-2.85
		c-0.034,1.2,0.667,1.55,2.1,1.05c1.4-0.467,2.517-1.2,3.35-2.2c0.067,1.267,0.35,1.967,0.85,2.101
		c0.333,0.1,1.083,0.233,2.25,0.399c0.2,0.066,0.517,0.351,0.95,0.851c0.433,0.5,0.816,0.833,1.15,1
		c0.667,0.267,1.467,0.35,2.4,0.25c1-0.101,1.7-0.4,2.1-0.9c0.733,0.6,1.767,0.917,3.1,0.95c1.4,0,2.333-0.367,2.8-1.101
		c0.4,1.9-0.883,2.917-3.85,3.051c-3.367-0.2-5.4-0.233-6.1-0.101c-0.533,1.3,0.583,2.217,3.35,2.75c2.667,0.566,4.2,0.4,4.6-0.5
		c-0.133,0.334-0.167,0.867-0.1,1.601c2.4,0.433,4.283,0.35,5.65-0.25c-0.233,0.966,0.133,1.416,1.1,1.35
		c0.934-0.033,1.65-0.366,2.15-1c0.167-0.233,0.25-0.566,0.25-1s0.117-0.75,0.35-0.95c0.167-0.166,0.4-0.267,0.7-0.3
		c0.433,0,0.683-0.017,0.75-0.05c-0.167,1.866,0.05,2.95,0.65,3.25L65.1,76c-0.333-1.566-0.533-2.684-0.6-3.35
		c0.233-0.134,0.417-0.317,0.55-0.551c-0.2,0-0.383-0.05-0.55-0.149l-0.05-0.4v0.4c-1.667-0.566-2.967-1.617-3.9-3.15
		c-1.033-1.633-1.2-3.233-0.5-4.8c0.633,1.167,1.25,1.884,1.85,2.15c0.4,0.199,1.417,0.333,3.05,0.399
		c-0.1,0.634,0.1,1.084,0.6,1.351c0.434,0.199,0.983,0.25,1.65,0.149c-0.167,0.2-0.333,0.684-0.5,1.45
		c0.433,0.3,1.033,0.467,1.8,0.5c0.433,0.033,1.083,0.033,1.95,0c0.066,0.533,0.083,1.333,0.05,2.4l1.2,0.05
		c0.5,0,0.9,0.033,1.2,0.1c-0.2,1.167,0.067,1.9,0.8,2.2c0.233,0.1,1.133,0.2,2.7,0.3c-0.233,1.467,0.649,2.2,2.649,2.2
		c1.634-0.033,3.101-0.366,4.4-1c-0.167,0.934,0.083,1.566,0.75,1.9c0.366,0.166,1.1,0.283,2.2,0.35c1.033,0.033,2.183,0,3.449-0.1
		c0.267-0.067,0.5-0.301,0.7-0.7c0.2-0.367,0.434-0.584,0.7-0.65c0.566-0.133,1.167-0.149,1.8-0.05
		c0.233-0.033,0.733-0.217,1.5-0.55c0.733-0.267,1.2-0.417,1.4-0.45c0.467-0.033,1.35,0.066,2.649,0.3
		c1.134,0.233,2.034,0.25,2.7,0.05l0.3-0.8c3.301-0.233,4.767-1.399,4.4-3.5c0.6-0.1,1.217-0.55,1.85-1.35
		c0.7-0.867,0.9-1.584,0.601-2.15c-0.2-0.366-0.517-0.533-0.95-0.5c-0.5,0.033-0.816-0.017-0.95-0.149
		c-0.267-0.301-0.416-0.767-0.45-1.4c0-0.767-0.05-1.25-0.149-1.45l-0.25-0.7c-0.066,0-0.267-0.166-0.601-0.5
		c-0.333-0.3-1-0.616-2-0.949c-0.8-0.233-1.366-0.717-1.699-1.45l-0.101-0.2c0.4,0.1,1.017,0.184,1.851,0.25
		c0.399,0.434,0.983,1.1,1.75,2c0.699,0.667,1.333,1.017,1.899,1.05l0.15,0.101c0.066,0.6-0.017,1.383-0.25,2.35
		c0.366,0.233,1.116,0.35,2.25,0.35c1,0,1.649,0.217,1.95,0.65c0.3,0.4,0.35,1.05,0.149,1.95c-0.165,0.895-0.415,1.494-0.75,1.8
		c0.536-0.466,1.086-0.532,1.65-0.2v0.55L112,71.55z M41.45,61.9c1.167,0,2.283-0.267,3.35-0.801c0.1,0.4,0.367,0.801,0.8,1.2
		c-0.3,0.4-0.7,0.667-1.2,0.8C43.4,63.4,42.417,63,41.45,61.9z M47.25,63.1c1.2,0.334,2.333,0.351,3.4,0.051
		c1.167-0.301,1.767-0.867,1.8-1.7c0.1,0.366,0.5,0.717,1.2,1.05h-0.1c-0.5,0.267-0.8,0.717-0.9,1.35
		c-1.033,0.601-2.05,0.817-3.05,0.65C48.633,64.333,47.85,63.866,47.25,63.1z M87.65,34.45c0.033,0.4-0.017,0.867-0.15,1.4
		c-0.2,0.633-0.5,1.066-0.9,1.3c-0.233,0.167-0.649,0.434-1.25,0.8c0.567,0.733,1.5,0.783,2.801,0.15
		c0.733-0.333,1.699-0.883,2.899-1.65c1.5-0.633,2.417-1.167,2.75-1.6c0.4-0.5,0.617-1.45,0.65-2.85
		c0.033,1.533,0.017,2.65-0.05,3.35c-0.101,1.267-0.4,2.316-0.9,3.15l-0.85,1.25c-2.601,0.867-4.534,1.567-5.801,2.1
		c-0.6-0.733-0.6-1.8,0-3.2c-1.966,0.567-3.449,0.517-4.449-0.15c0.133-0.533,0.566-1.183,1.3-1.95c0.7-0.767,1.116-1.466,1.25-2.1
		c0.233-1.034,0.166-1.817-0.2-2.35c-0.366-0.6-1.083-0.833-2.15-0.7c0.7-1.267,1.2-2.2,1.5-2.8c0.5-1.033,0.334-2.05-0.5-3.05
		c-0.199-0.233-0.533-0.55-1-0.95c-0.466-0.4-0.8-0.733-1-1c-0.199-0.233-0.416-0.55-0.649-0.95
		c-0.267-0.467-0.467-0.783-0.601-0.95c0-0.833-0.333-1.833-1-3c-0.533-0.934-1.166-1.8-1.899-2.6l-0.75-0.75l0.8,0.15
		c1.2,0.2,2.167,0.45,2.9,0.75c0.866,0.367,1.767,0.95,2.699,1.75c1.4,1.2,2.134,2.317,2.2,3.35c0.066,0.8-0.35,2.117-1.25,3.95
		c0.601,0.034,1.117,0.25,1.55,0.65c0.567,0.533,0.9,1.233,1,2.1c0.067,0.833-0.1,1.633-0.5,2.4c-0.166,0.333-0.333,0.583-0.5,0.75
		l0.65,0.75C87.083,32.917,87.55,33.75,87.65,34.45z M91.7,43.15c0.166,0.5,0.566,1,1.2,1.5c0.566,0.433,0.916,0.984,1.05,1.65
		c0.233,1.167,0.066,1.983-0.5,2.45c-0.167,0.134-0.9,0.45-2.2,0.95l-1.15,0.6c0.067-0.1,0.117-0.217,0.15-0.35v-0.2
		c0.066-0.366,0.134-0.616,0.2-0.75c0-0.033,0.166-0.717,0.5-2.05c0.2-0.7,0.616-1.233,1.25-1.601h-1.25
		C90.95,44.75,91.2,44.017,91.7,43.15z M86.6,48.15c0.467,0.033,1.101-0.2,1.9-0.7c0.233,0.333,0.384,0.75,0.45,1.25
		C88.983,49,89,49.45,89,50.05l-0.05-0.2c-0.066-0.233-0.134-0.649-0.2-1.25c-0.733,0.134-1.25,0.15-1.55,0.051
		C87,48.583,86.8,48.417,86.6,48.15z M68.85,47.4l0.05,0.05c0.2,0.166,0.4,0.55,0.6,1.149c0.133,0.467,0.433,0.75,0.9,0.851
		c0.7,0.166,1.617-0.417,2.75-1.75c1.033-1.2,1.95-1.5,2.75-0.9c-0.167-1.3,0.25-2.25,1.25-2.85c0.933-0.567,2.017-0.7,3.25-0.4
		c0.1,0.934,0.1,1.517,0,1.75c0.5-0.933,1.183-1.216,2.05-0.85c0.566,0.267,1.184,0.8,1.85,1.6l0.601,0.7
		c-0.334-0.066-1.2,0-2.601,0.2c-1.133,0.133-1.916,0.017-2.35-0.351c-0.101,0.2-0.334,0.517-0.7,0.95
		c-0.366,0.367-0.6,0.667-0.7,0.9c-0.133,0.267-0.184,0.816-0.149,1.649c0.033,0.733-0.101,1.267-0.4,1.601
		c-0.333,0.399-0.717,0.633-1.15,0.7c-0.466,0.066-0.767-0.134-0.899-0.601c-0.233,1.367-1.317,2.167-3.25,2.4
		c-1.9,0.233-2.567-0.601-2-2.5c-1.1,0.1-2.184,0.85-3.25,2.25c-0.9,1.233-2.083,1.717-3.55,1.45c-0.533-0.101-1.066-0.334-1.6-0.7
		c-0.6-0.434-1.083-0.7-1.45-0.8c-0.333-0.101-0.867-0.117-1.6-0.051c-0.8,0.067-1.35,0.084-1.65,0.051
		c-0.233-1.267-0.4-2.017-0.5-2.25c0.633,0.233,1.467,0.399,2.5,0.5c1.233,0.133,2.05,0.05,2.45-0.25
		c0.267-0.2,0.517-0.617,0.75-1.25c0.267-0.834,0.45-1.317,0.55-1.45c0.133,0.2,0.183,0.416,0.15,0.649
		c2.7,0.634,4.05-0.149,4.05-2.35C67.617,47.533,68.05,47.5,68.85,47.4z M74.35,42c0-0.467,0.1-0.783,0.3-0.95
		c0.167-0.2,0.617-0.267,1.35-0.2c-0.167,0.467-0.383,0.783-0.65,0.95C75.15,41.9,74.817,41.967,74.35,42z M70.65,45.4
		c-0.033,0.333-0.433,0.6-1.2,0.8c0-1.167,0.033-1.917,0.1-2.25C69.75,44.65,70.117,45.134,70.65,45.4z M78.5,36.2l-0.15-0.3
		l0.2-0.15L78.5,36.2z M79.25,27.1c0.667,0.467,1.033,1.083,1.1,1.85c-0.066-0.133-0.199-0.3-0.399-0.5L79.25,27.1z M55.65,58.95
		c-1.233-0.134-2.066-0.25-2.5-0.351c2.133-0.833,2.467-2.383,1-4.649c-1.367-2.134-2.933-3.3-4.7-3.5H49.2
		c0.2,0.066,0.316,0.316,0.35,0.75c0,0.366-0.05,0.75-0.15,1.149c-0.267-0.033-0.55,0.034-0.85,0.2l-0.7,0.351
		c1.2,2.533,0.95,3.983-0.75,4.35c-2.533,0-4.434,0.1-5.7,0.3c0.167,0.8-0.333,1.384-1.5,1.75c-0.233-0.033-0.75-0.017-1.55,0.05
		c-0.667,0.067-1.133,0.051-1.4-0.05v-0.6L36.9,57.1c0.167,0.267,0.417,0.483,0.75,0.65c0.934,0.5,1.717,0.467,2.35-0.1
		c0.567-0.4,0.7-1.417,0.4-3.051h0.05c0.4,0.367,1.05,0.534,1.95,0.5c0.867-0.066,1.55-0.267,2.05-0.6v-0.55l2.5-6
		c-0.067-0.267-0.05-0.517,0.05-0.75l0.05-0.15l0.4-0.1c1.367-0.2,2.617,0.383,3.75,1.75c0.633,0.733,1.383,1.983,2.25,3.75
		c1.167-0.233,1.85,0.483,2.05,2.149C55.633,55.533,55.683,56.983,55.65,58.95z M100.8,59.9c-0.366-1.2-0.616-2.184-0.75-2.95
		c0.267,0.8,0.783,1.3,1.55,1.5c0.801,0.233,1.551,0.083,2.25-0.45c0,0.533,0.15,0.95,0.45,1.25c0.167,0.167,0.566,0.384,1.2,0.65
		c1.267,0,2.333-0.084,3.2-0.25c0.533,0,0.833,0.233,0.899,0.699c1.067,0,1.767-0.1,2.101-0.3c0.533-0.333,0.816-1.017,0.85-2.05
		c0.9,0.5,2.084,0.733,3.55,0.7c1.601-0.033,2.733-0.4,3.4-1.101c0.1-0.1,0.417-0.767,0.95-2c0.333-0.733,1-1.1,2-1.1
		c-0.233,0.434-0.434,1.167-0.601,2.2c-0.433,0-0.75,0.116-0.949,0.35c-0.2,0.2-0.367,0.517-0.5,0.95l-0.351,0.05
		c0.267,1.467-0.35,2.4-1.85,2.8l-2.25-0.899c0.434,0.566,0.616,1.2,0.55,1.899c-1.2,0.5-2.55,0.65-4.05,0.45
		c-1.7-0.333-3.017-0.583-3.95-0.75c-0.533-0.1-1.35-0.133-2.45-0.1c-1.6,0.033-2.566,0.05-2.899,0.05
		C102.25,60.467,101.467,59.934,100.8,59.9z M89.35,50.5c0.267,0.033,0.5-0.017,0.7-0.15c1.2,0.667,2.816,1.084,4.851,1.25
		c-0.667,0.434-1.351,0.517-2.051,0.25c-0.8-0.433-1.433-0.75-1.899-0.949C90.116,50.733,89.583,50.6,89.35,50.5z M121.3,75.45
		l-1.25,0.95c-0.5,0-0.85-0.017-1.05-0.051c1.833-0.733,2.816-1.55,2.95-2.449l1.8,0.949c-0.333,0.267-0.733,0.417-1.2,0.45
		C121.884,75.333,121.467,75.384,121.3,75.45z"/>
	<path style="fill-rule:evenodd;clip-rule:evenodd;fill:#414428;" d="M22,73.3v0.05c1.067,0.267,2.1,0.2,3.1-0.199
		c-0.267,0.233-0.434,0.517-0.5,0.85c-0.033,0.2-0.067,0.5-0.1,0.9c1.3,0.233,2.467,0.133,3.5-0.301c0.433,1.2,1.867,2.15,4.3,2.851
		c2.5,0.733,3.917,0.416,4.25-0.95c2.267,0.533,4.083,0.667,5.45,0.4c0.1-0.434,0.017-1.067-0.25-1.9
		c0.233,0.2,0.617,0.333,1.15,0.4c0.967,0.166,1.467,0.25,1.5,0.25c-0.133,1.166,0.184,1.85,0.95,2.05
		c0.467,0.133,1.3,0.25,2.5,0.35c0.433,0.134,1,0.334,1.7,0.601c0.633,0.233,1.25,0.366,1.85,0.399c-0.033,0.233,0,0.684,0.1,1.351
		c1.767,0.233,3.05,0.149,3.85-0.25c0.367,0.8,1.35,1.166,2.95,1.1c1.6-0.066,2.317-0.616,2.15-1.65c0.2,1.034,0.85,1.684,1.95,1.95
		c0.934,0.2,1.917,0.117,2.95-0.25c0.267-1.233,0.183-3-0.25-5.3c0.133,0.066,0.983,0.017,2.55-0.15c0.833-0.1,1.133,0.551,0.9,1.95
		l1.4,0.15c0.4-0.066,0.75-0.033,1.05,0.1c0.367,0.2,0.517,0.5,0.45,0.9c0.066,0.033,0.267,0.25,0.6,0.649
		c0.167,0.2,0.6,0.334,1.3,0.4c0.267,0.033,0.65,0,1.15-0.1c0.5-0.101,0.85-0.134,1.05-0.101c0.233,0.033,0.9,0.25,2,0.65
		c0.767-0.066,1.434-0.05,2,0.05c0.367,0.267,0.5,0.616,0.4,1.05c-0.134,0.566,0.033,1.017,0.5,1.351
		c0.666,0.133,1.467,0.166,2.399,0.1c0.834-0.1,1.334-0.2,1.5-0.3c0.4-0.167,0.634-0.566,0.7-1.2
		c0.634,0.467,1.334,0.616,2.101,0.45c0.833-0.2,1.283-0.684,1.35-1.45c1.134,0.333,2.15,0.384,3.05,0.15
		c0.533-0.134,1.467-0.467,2.8-1c0.434-0.134,1.517-0.2,3.25-0.2c1.467-0.167,2.084-0.783,1.851-1.851
		c0.366,0.634,1.233,1,2.6,1.101c1.4,0.1,2.367-0.134,2.9-0.7c0.399-0.4,0.583-1.033,0.55-1.9c-0.033-0.933,0.083-1.6,0.35-2
		c0.367,1.5,0.767,3.617,1.2,6.351c1.367-0.267,2.533-1.334,3.5-3.2c0.834-1.6,1.3-3.316,1.4-5.15c0.066,1,0.3,2.317,0.7,3.95
		c0.533,0.033,1.017-0.217,1.449-0.75c-0.466-1.967-1.166-3.217-2.1-3.75h-0.05c-0.564-0.332-1.114-0.266-1.65,0.2
		c0.335-0.306,0.585-0.905,0.75-1.8c0.2-0.9,0.15-1.55-0.149-1.95c-0.301-0.434-0.95-0.65-1.95-0.65c-1.134,0-1.884-0.116-2.25-0.35
		c0.233-0.967,0.316-1.75,0.25-2.35c0.833,0.5,2.184,0.883,4.05,1.149l2.45,0.25c-0.033,0.434,0.116,1.167,0.45,2.2
		c0.133,0.366,0.25,0.967,0.35,1.8c0.2,0.5,0.533,0.834,1,1c0.434,0.2,0.917,0.233,1.45,0.101c-0.634-0.334-1.05-0.983-1.25-1.95
		c-0.2-1.134-0.283-2.134-0.25-3c2.2,0.1,4.133-0.084,5.8-0.55c0.1,0.333,0.116,0.6,0.05,0.8c-0.133,0.566-0.566,0.983-1.3,1.25
		c-0.9,0.267-1.55,0.483-1.95,0.649c0.4,0.367,0.967,1.067,1.7,2.101v0.1c0.9,0.634,1.983,0.834,3.25,0.601
		c1.366-0.233,1.967-0.917,1.8-2.051c0.634,0.367,1.101,0.5,1.4,0.4c0.399,0.033,0.833,0,1.3-0.1c0.233-0.301,0.333-0.617,0.3-0.95
		c1.167-0.601,2.033-1.066,2.601-1.4c1.033-0.6,1.783-1.267,2.25-2c0.066,0.634,0.116,1.584,0.149,2.851
		c1.167-0.534,1.566-2.75,1.2-6.65c-0.7-4.4-1.116-7.184-1.25-8.35c0.233,0.866,1.25,1.3,3.05,1.3c0.967,0,2.25-0.05,3.851-0.15
		c0,0.134,0.033,0.434,0.1,0.9c0.066,0.434,0.083,0.733,0.05,0.899c1.134,0,1.617,0.65,1.45,1.95c1.2-0.399,1.9-0.733,2.1-1
		c0.2-0.267,0.317-1.017,0.351-2.25c-0.134-1.633-0.184-2.934-0.15-3.899c0.066-1.733,0.566-2.784,1.5-3.15
		c0.367,0.767,1.017,1.233,1.95,1.4l-0.2,0.55c0.533,0.233,0.816,0.684,0.851,1.35c0.033,0.3-0.017,0.884-0.15,1.75l-0.8,0.101
		c0.5,0.866,0.483,1.6-0.05,2.199c-0.467,0.567-1.2,0.9-2.2,1c0.633-0.033,1.25,0.15,1.85,0.551c0.566,0.433,0.967,1.017,1.2,1.75
		c-0.366,0.366-0.9,0.55-1.6,0.55c-1.101,0-1.717,0.017-1.851,0.05c0.4,0.1,1.267,0.25,2.601,0.45c1.033,0.333,1.283,0.934,0.75,1.8
		c-0.2,0.333-0.7,0.55-1.5,0.65c-0.733,0.1-1.15,0.466-1.25,1.1c-0.9,0.066-2.551,0.517-4.95,1.35c0.2,0.101,0.383,0.267,0.55,0.5
		c0.2,0.301,0.35,0.483,0.45,0.551c-0.566,0.767-1.617,1.083-3.15,0.949c2.101,0.233,2.917,1.034,2.45,2.4
		c0.467,0.3,1.6,0.45,3.4,0.45c1.466,0.2,1.899,0.95,1.3,2.25c-0.334,0.033-0.684,0.166-1.05,0.399
		c-0.467,0.267-0.817,0.434-1.051,0.5c-0.966,0.267-2.233,0.317-3.8,0.15c-1.767-0.267-3.066-0.434-3.899-0.5l-0.051,1.1l0.15,0.25
		l-0.25,0.2c-0.2,1.101-0.3,1.783-0.3,2.05c-0.033,0.733,0.133,1.217,0.5,1.45c-0.134,0.167-0.3,0.483-0.5,0.95
		c0.267,0.167,0.916,0.384,1.95,0.65c0.899,0.333,1.366,0.733,1.399,1.199c0.033,0.934-0.533,1.4-1.7,1.4
		c0.667,0.967,0.067,1.4-1.8,1.3c-1.6-0.066-2.8-0.283-3.6-0.649c0.066,0.933-0.316,1.35-1.15,1.25c-0.8-0.101-1.233-0.601-1.3-1.5
		c-0.566,0.133-1.316,0.133-2.25,0c0.033-0.167,0.033-0.45,0-0.851c-0.066-0.434-0.083-0.733-0.05-0.899h-1.4
		c-0.558-0.033-0.666-0.133-0.325-0.301c-0.594,0.267-1.452,0.384-2.574,0.351c-1.567-0.033-2.45-0.05-2.65-0.05
		c-0.434,0.966,0.066,1.816,1.5,2.55c1.434,0.767,1.983,1.583,1.65,2.45c-0.167,0.033-1,0.05-2.5,0.05
		c0.133,0.233,0.199,0.533,0.199,0.899c-1.933,0-3.05,0.634-3.35,1.9c-1.233-0.434-2.167-0.733-2.8-0.9
		c-0.8-0.166-1.267-0.267-1.4-0.3c-0.467-0.166-0.767-0.399-0.899-0.7c-0.967,0.2-1.817,0.217-2.551,0.051
		c-0.933-0.233-1.35-0.717-1.25-1.45c-0.199,0.866-0.85,1.217-1.949,1.05c-1.167-0.167-1.483-0.667-0.95-1.5
		c-0.3-0.267-1.134-0.566-2.5-0.9c-1.033-0.233-1.917-0.383-2.65-0.449c-1.666-0.267-3.166-0.084-4.5,0.55
		c0.367,0.233,0.634,0.533,0.8,0.899c0.167,0.434,0.101,0.834-0.199,1.2c1.166,0.667,1.533,1.45,1.1,2.351
		c-0.366,0.033-0.866-0.017-1.5-0.15C94.3,87.083,93.8,87,93.5,87c0.733,0.934,0.45,1.384-0.85,1.35c-0.9,0-1.784-0.149-2.65-0.449
		c-0.1-0.5-0.4-0.801-0.9-0.9c-0.833,0.1-1.683,0.1-2.55,0c-0.434-0.333-0.684-0.566-0.75-0.7c-0.1-0.267,0.017-0.616,0.351-1.05
		c-0.567-0.1-1.351,0.066-2.351,0.5c-0.967,0.4-1.684,0.5-2.149,0.3c0-0.233,0.116-0.5,0.35-0.8c-0.566-0.134-1.467-0.167-2.7-0.1
		c-1.233,0.1-2.149,0.066-2.75-0.101c0.134-0.399,0.417-0.816,0.851-1.25c0.466-0.434,0.8-0.767,1-1c-1.301,0.066-2.267,0.066-2.9,0
		c0.133-0.399,0.25-0.666,0.35-0.8c-0.333,0.267-0.733,0.35-1.2,0.25c-0.566-0.1-0.95-0.116-1.15-0.05
		c-0.667,0.166-1.067,0.583-1.2,1.25c-0.633,0.399-1.117,0.666-1.45,0.8c-0.567,0.267-1.05,0.167-1.45-0.3
		c-0.5,1-1.667,1.866-3.5,2.6c-1.933,0.8-3.033,0.566-3.3-0.7c-1.767,0.5-3.35,0.534-4.75,0.101l0.65-0.65
		c-1.867,0.101-3.267,0.217-4.2,0.351c-0.733,0.233-1.283,0.383-1.65,0.449c-0.6,0.167-1.15,0.017-1.65-0.449
		c0.033-0.233,0.167-0.4,0.4-0.5c-1.733,0.199-3.15,0.066-4.25-0.4c0.1-0.066,0.233-0.3,0.4-0.7c0.2-0.399,0.333-0.616,0.4-0.649
		c-6.2-0.233-9.3-0.551-9.3-0.95c-0.4,0.533-1.233,0.916-2.5,1.149c-1.066,0.2-2.017,0.25-2.85,0.15
		c-0.133-0.634-0.183-1.033-0.15-1.2c-1,0.3-1.967,0.384-2.9,0.25c-1.267-0.166-1.583-0.75-0.95-1.75
		C29.067,81.017,28.533,81,27.7,81c-0.667,0.033-1.217-0.033-1.65-0.2l0.4-0.7c0.133-0.199,0.367-0.383,0.7-0.55
		c-1.467,0.134-2.5,0.084-3.1-0.149c0.1-0.733,0.517-1.15,1.25-1.25c-2.5,0.166-4.633,0.149-6.4-0.051
		c0.833-0.533,1.317-0.816,1.45-0.85c-1.7,0.134-2.967,0.066-3.8-0.2c-0.233-0.333-0.183-0.583,0.15-0.75
		c-1.534,0.101-2.45,0.134-2.75,0.101c-1.067-0.134-1.7-0.634-1.9-1.5c0.934-0.7,2.35-0.983,4.25-0.851
		c2.267,0.167,3.717,0.167,4.35,0L22,73.3z M19.6,73l0.4-0.55c0.4,0,1.033,0.033,1.9,0.1l0.05,0.55c-0.333,0-0.633,0-0.9,0
		C20.383,73.1,19.9,73.066,19.6,73z M20.2,71.15c0.033-0.4,0.066-0.7,0.1-0.9c0.4,0.233,0.883,0.434,1.45,0.6L21.1,70.95
		c-0.233,0.033-0.467,0.116-0.7,0.25L20.2,71.15z M4.75,60.45l0.7,0.5c-1.367,0.633-1,1.283,1.1,1.95
		c1.733,0.566,3.583,0.899,5.55,1c0.267-0.467,0.617-0.483,1.05-0.051c-0.133,0.034-0.483,0.051-1.05,0.051
		c-0.167,0.3-0.184,0.616-0.05,0.949c0.667,0.233,1.617,0.584,2.85,1.051c1.067,0.366,2.1,0.583,3.1,0.649
		c-0.167,0.2-0.267,0.5-0.3,0.9c-0.034,0.467-0.067,0.75-0.1,0.85c0.167,0,0.467,0.05,0.9,0.15c0.4,0.1,0.7,0.133,0.9,0.1
		c0,0.634,0.2,1.117,0.6,1.45c-1.333,0.366-2.283,0.6-2.85,0.7c-0.533,0.1-1.05,0.149-1.55,0.149L14.1,70.7
		c-0.2-0.334-0.2-0.684,0-1.05c-2.333,0.533-3.934,0.449-4.8-0.25c0.1-0.601,0.534-1.217,1.3-1.851c-1.033,0.033-1.817,0.033-2.35,0
		c-1,0-1.7-0.267-2.1-0.8c0.2-0.2,0.417-0.25,0.65-0.15c-0.533-0.267-1.333-0.783-2.4-1.55C3.6,64.483,2.783,64.1,1.95,63.9
		c-0.833-0.2-1.434-0.601-1.8-1.2c-0.433-0.634-0.05-0.917,1.15-0.851c-0.033-0.899,0.417-1.366,1.35-1.399
		c0.833-0.033,1.517,0.25,2.05,0.85c-0.1-0.2-0.1-0.45,0-0.75C4.733,60.517,4.75,60.483,4.75,60.45z M79.25,27.1
		c-0.434-0.367-0.983-0.583-1.65-0.65H77.45l0.399-1.05l1.601-4.45c0.399,0.233,0.7,0.483,0.899,0.75
		c0.134,0.167,0.334,0.483,0.601,0.95c0.233,0.4,0.45,0.717,0.649,0.95c0.2,0.267,0.534,0.6,1,1c0.467,0.4,0.801,0.717,1,0.95
		c0.834,1,1,2.017,0.5,3.05c-0.3,0.6-0.8,1.533-1.5,2.8c1.067-0.133,1.784,0.1,2.15,0.7c0.366,0.533,0.434,1.316,0.2,2.35
		c-0.134,0.633-0.55,1.333-1.25,2.1c-0.733,0.767-1.167,1.417-1.3,1.95c1,0.667,2.483,0.717,4.449,0.15c-0.6,1.4-0.6,2.467,0,3.2
		c1.267-0.533,3.2-1.233,5.801-2.1l0.449-0.2c0.101,0.534-0.017,1.133-0.35,1.8c-0.2,0.4-0.55,1-1.05,1.8
		c-0.5,0.867-0.75,1.6-0.75,2.2h1.25c-0.634,0.367-1.05,0.9-1.25,1.601c-0.334,1.333-0.5,2.017-0.5,2.05
		c-0.066,0.134-0.134,0.384-0.2,0.75v0.2c-0.033,0.133-0.083,0.25-0.15,0.35l-0.05,0.05c-0.2,0.134-0.434,0.184-0.7,0.15l-0.3-0.1
		L89,50.05c0-0.6-0.017-1.05-0.05-1.35c-0.066-0.5-0.217-0.917-0.45-1.25c-0.8,0.5-1.434,0.733-1.9,0.7
		c-0.399-0.034-0.966-0.5-1.699-1.4l-0.601-0.7c-0.666-0.8-1.283-1.333-1.85-1.6c-0.867-0.367-1.55-0.083-2.05,0.85
		c0.1-0.233,0.1-0.816,0-1.75c-1.233-0.3-2.317-0.167-3.25,0.4c-1,0.6-1.417,1.55-1.25,2.85c-0.8-0.6-1.717-0.3-2.75,0.9
		c-1.133,1.333-2.05,1.916-2.75,1.75c-0.467-0.101-0.767-0.384-0.9-0.851c-0.2-0.6-0.4-0.983-0.6-1.149l-0.05-0.05
		c-0.7-0.534-1.467-0.851-2.3-0.95c1.2,0,2.167-0.084,2.9-0.25c0.767-0.2,1.167-0.467,1.2-0.8c0.067-0.301-0.117-0.617-0.55-0.95
		c1.833,0,2.933-0.017,3.3-0.05c0.1-0.733,0.017-1.5-0.25-2.3c0.3-0.067,0.7-0.1,1.2-0.1c0.467-0.033,0.8-0.1,1-0.2
		c0.267-0.167,0.483-0.483,0.65-0.95v-0.1c0.233-0.633,0.184-1.267-0.15-1.9c-0.233-0.5-0.55-0.8-0.95-0.9
		c0.333,0.033,0.733,0.066,1.2,0.1l1.4-0.1c0.5-0.167,0.833-0.7,1-1.6V36.2l0.05-0.45c0.066-0.867-0.25-1.6-0.95-2.2
		c0.334,0.034,0.934-0.017,1.801-0.15c0.199-0.533,0.166-1.033-0.101-1.5c-0.233-0.467-0.633-0.783-1.2-0.95
		c0.834,0.033,1.45-0.15,1.851-0.55c0.333-0.367,0.467-0.85,0.399-1.45C80.283,28.183,79.917,27.567,79.25,27.1z M41.45,61.9
		c-1.434,0-2.567-0.417-3.4-1.25c-0.4,0.866-1.3,1.149-2.7,0.85c-1.6-0.533-2.75-0.866-3.45-1c1.333,0.066,2.367-0.116,3.1-0.55
		c0.1-0.3,0.05-0.566-0.15-0.8c0.467,0.233,1.217,0.366,2.25,0.399c1.1,0.066,2.033-0.017,2.8-0.25c1.167-0.366,1.667-0.95,1.5-1.75
		c1.267-0.2,3.167-0.3,5.7-0.3c1.7-0.366,1.95-1.816,0.75-4.35l0.7-0.351c0.3-0.166,0.583-0.233,0.85-0.2
		c0.1-0.399,0.15-0.783,0.15-1.149c-0.033-0.434-0.15-0.684-0.35-0.75h0.25c1.767,0.2,3.333,1.366,4.7,3.5
		c1.467,2.267,1.133,3.816-1,4.649c0.434,0.101,1.267,0.217,2.5,0.351c1.934,0.166,3.283,0.383,4.05,0.649
		c1.333,0.4,1.95,1.067,1.85,2c-0.066,1-1.1,1.551-3.1,1.65c-1.833,0.134-3.434-0.116-4.8-0.75c-0.7-0.333-1.1-0.684-1.2-1.05
		c-0.034,0.833-0.633,1.399-1.8,1.7c-1.066,0.3-2.2,0.283-3.4-0.051c-0.7-0.199-1.25-0.466-1.65-0.8c-0.434-0.399-0.7-0.8-0.8-1.2
		C43.733,61.634,42.617,61.9,41.45,61.9z M65.1,76L65,75.95c-0.6-0.3-0.817-1.384-0.65-3.25l0.1-0.75v-0.4l0.05,0.4v0.7
		C64.567,73.316,64.767,74.434,65.1,76z M81.95,31.95c0,0.7-0.25,1.633-0.75,2.8c-0.267,0.667-0.667,1.567-1.2,2.7
		c-0.467,1.3-1.283,2.7-2.45,4.2l0.8,0.2c0.267,0.033,0.534-0.017,0.801-0.15c0.133-0.034,0.316-0.2,0.55-0.5
		c0.6,0.433,1.666,0.683,3.2,0.75h2.8l-3.5-1c-0.7-0.5-1.25-0.85-1.65-1.05c0.2-0.367,0.351-0.783,0.45-1.25
		c0.1-0.566,0.184-1.033,0.25-1.4c0.434-2.633,0.833-4.567,1.2-5.8L81.95,31.95z M121.85,56.7c0.634-0.066,1-0.233,1.101-0.5v2.85
		c0,0.733,0,1.434,0,2.101c-0.101,0.333-0.584,0.6-1.45,0.8c-0.134,0.033-0.566,0.017-1.3-0.05c-0.5-0.034-0.851,0.149-1.05,0.55
		c-0.067,0.166,0.05,0.467,0.35,0.899c0.167,0.267,0.483,0.717,0.95,1.351l0.35,0.6l-5.1-0.85c-1.434,0-3.15-0.134-5.15-0.4
		c-2.233-0.333-3.934-0.583-5.1-0.75c0.366,0.467,0.816,0.884,1.35,1.25c-0.566-0.033-1.2-0.383-1.899-1.05
		c-0.767-0.9-1.351-1.566-1.75-2c-0.834-0.066-1.45-0.15-1.851-0.25c-0.767-0.167-1.366-0.483-1.8-0.95
		c0.4-0.267,0.833-0.399,1.3-0.399c0.667,0.033,1.45,0.566,2.351,1.6c0.333,0,1.3-0.017,2.899-0.05c1.101-0.033,1.917,0,2.45,0.1
		c0.934,0.167,2.25,0.417,3.95,0.75c1.5,0.2,2.85,0.05,4.05-0.45c0.066-0.699-0.116-1.333-0.55-1.899l2.25,0.899l0.25,0.101
		c0.733-0.101,1.233-0.467,1.5-1.101c0.2-0.833,0.35-1.449,0.45-1.85c0.133-0.434,0.3-0.75,0.5-0.95
		C121.1,56.816,121.417,56.7,121.85,56.7z M121.3,75.45c0.167-0.066,0.584-0.117,1.25-0.15c0.467-0.033,0.867-0.184,1.2-0.45
		l-1.8-0.949c-0.134,0.899-1.117,1.716-2.95,2.449c0.2,0.034,0.55,0.051,1.05,0.051L121.3,75.45z M53.5,60.95
		c-0.067-0.4-0.317-0.9-0.75-1.5c-0.467-0.667-0.8-1.15-1-1.45c0.7-1.333,1.017-2.767,0.95-4.3l-2,2.25
		c0.1,1.3-0.417,2.283-1.55,2.95c-0.367,0.233-0.933,0.383-1.7,0.449c-0.833,0.067-1.417,0.2-1.75,0.4c0.367,0.467,1,0.717,1.9,0.75
		c0.833,0.066,1.533-0.05,2.1-0.35c0.2-0.067,0.466-0.233,0.8-0.5c0.3,0.333,0.817,0.633,1.55,0.899
		C52.65,60.783,53.133,60.917,53.5,60.95z"/>
	<path style="fill-rule:evenodd;clip-rule:evenodd;fill:#695D3F;" d="M81.95,31.95l0.5-0.5c-0.367,1.233-0.767,3.167-1.2,5.8
		c-0.066,0.367-0.15,0.833-0.25,1.4c-0.1,0.467-0.25,0.883-0.45,1.25c0.4,0.2,0.95,0.55,1.65,1.05l3.5,1h-2.8
		c-1.534-0.067-2.601-0.317-3.2-0.75c-0.233,0.3-0.417,0.466-0.55,0.5c-0.267,0.133-0.534,0.183-0.801,0.15l-0.8-0.2
		c1.167-1.5,1.983-2.9,2.45-4.2c0.533-1.133,0.934-2.034,1.2-2.7C81.7,33.583,81.95,32.65,81.95,31.95z M120.8,65.3l0.9,0.15
		l-0.7,0.2c-1.667,0.466-3.6,0.649-5.8,0.55c-0.033,0.866,0.05,1.866,0.25,3c0.2,0.967,0.616,1.616,1.25,1.95
		c-0.533,0.133-1.017,0.1-1.45-0.101c-0.467-0.166-0.8-0.5-1-1c-0.1-0.833-0.217-1.434-0.35-1.8c-0.334-1.033-0.483-1.767-0.45-2.2
		L111,65.8c-1.866-0.267-3.217-0.649-4.05-1.149l-0.15-0.101c-0.533-0.366-0.983-0.783-1.35-1.25c1.166,0.167,2.866,0.417,5.1,0.75
		c2,0.267,3.717,0.4,5.15,0.4L120.8,65.3z M53.5,60.95c-0.367-0.033-0.85-0.167-1.45-0.4c-0.733-0.267-1.25-0.566-1.55-0.899
		c-0.333,0.267-0.6,0.433-0.8,0.5c-0.567,0.3-1.267,0.416-2.1,0.35c-0.9-0.033-1.533-0.283-1.9-0.75c0.333-0.2,0.917-0.333,1.75-0.4
		c0.767-0.066,1.333-0.216,1.7-0.449c1.133-0.667,1.65-1.65,1.55-2.95l2-2.25c0.066,1.533-0.25,2.967-0.95,4.3
		c0.2,0.3,0.533,0.783,1,1.45C53.183,60.05,53.433,60.55,53.5,60.95z"/>
</g>
</svg>
