<?xml version="1.0" encoding="iso-8859-1"?>
<!-- Generator: Adobe Illustrator 15.1.0, SVG Export Plug-In . SVG Version: 6.00 Build 0)  -->
<!DOCTYPE svg PUBLIC "-//W3C//DTD SVG 1.1//EN" "http://www.w3.org/Graphics/SVG/1.1/DTD/svg11.dtd">
<svg version="1.1" id="Layer_1" xmlns="http://www.w3.org/2000/svg" xmlns:xlink="http://www.w3.org/1999/xlink" x="0px" y="0px"
	 width="51.15px" height="28.15px" viewBox="0 0 51.15 28.15" style="enable-background:new 0 0 51.15 28.15;" xml:space="preserve"
	>
<g>
	<path style="fill-rule:evenodd;clip-rule:evenodd;fill:#4E512F;" d="M43.15,11.45c0.066-0.2,0.066-0.417,0-0.65
		c0.066,0,0.133,0,0.199,0c0.367-0.033,0.717,0.017,1.051,0.15h0.149c0.039,0.006,0.072,0.022,0.101,0.05
		c-0.034,0.033-0.067,0.067-0.101,0.1l-1.25,0.3L43.15,11.45z M44.95,13.3l-0.101,0.15c-0.233-0.034-0.399-0.05-0.5-0.05
		c0.034-0.066,0.084-0.15,0.15-0.25C44.667,13.183,44.816,13.233,44.95,13.3z M46.25,14l0.15,0.1c0.233,0.267,0.333,0.467,0.3,0.6
		c0,0.133-0.184,0.333-0.55,0.6c-0.267,0.2-0.667,0.334-1.2,0.4c-0.533,0.1-0.9,0.217-1.101,0.35c0.167,0.434,0.217,0.8,0.15,1.101
		c-0.066,0.267-0.233,0.416-0.5,0.449c0.4,0.067,0.6,0.367,0.6,0.9c-0.033,0.667-0.333,0.983-0.899,0.95c0,0.1-0.017,0.3-0.05,0.6
		c-0.534,0.101-1.101-0.017-1.7-0.35c0.333,0.666,0.366,1.116,0.1,1.35l-0.1,0.05c-0.4-0.3-0.783-0.416-1.15-0.35
		c-0.033,0.2,0.117,0.333,0.45,0.4c0.267,0.066,0.5,0.05,0.7-0.051c0.6,0.4,0.733,0.817,0.399,1.25c0.367,0.134,0.7,0.384,1,0.75
		c0.367,0.434,0.483,0.817,0.351,1.15c-0.101,0.233-0.316,0.366-0.65,0.4c-0.166,0-0.45-0.034-0.85-0.101l-0.05-0.399
		c-0.067,0.166-0.267,0.3-0.601,0.399c-0.3,0.101-0.533,0.117-0.7,0.05c-0.267-0.066-0.433-0.199-0.5-0.399
		c-0.033-0.101-0.05-0.334-0.05-0.7c-0.166,0.3-0.383,0.434-0.649,0.4c-0.4-0.067-0.567-0.467-0.5-1.2
		C38.55,23.066,38.1,23.283,37.3,23.35c-0.7,0.067-1.25,0.034-1.649-0.1c-0.233-0.066-0.517-0.3-0.851-0.7l0.4,0.05
		c0.833,0.067,1.316-0.133,1.45-0.6c0.1,0.267,0.433,0.35,1,0.25c0.533-0.033,0.816-0.2,0.85-0.5c0.134-0.467,0.267-0.783,0.4-0.95
		c0.133-0.133,0.383-0.25,0.75-0.35c0.3-0.066,0.483-0.283,0.55-0.65c0.033-0.366-0.017-0.816-0.15-1.35
		c0.533,0.166,1.017,0.166,1.45,0c0.467-0.2,0.533-0.601,0.2-1.2c0.133-0.1,0.467-0.167,1-0.2c0.434-0.033,0.7-0.2,0.8-0.5
		c0.134-0.267,0.134-0.55,0-0.85c-0.1-0.334-0.3-0.533-0.6-0.601c0-0.2,0.133-0.417,0.399-0.649c0.3-0.267,0.467-0.517,0.5-0.75
		c0.033-0.333-0.05-0.583-0.25-0.75c0.101,0,0.217,0.017,0.351,0.05c0.133,0.767,0.716,1.067,1.75,0.9h0.05
		C45.866,13.933,46.05,13.967,46.25,14z M19.35,17.7l-1.25-1.55c-0.033-0.034-0.05-0.067-0.05-0.101c0.267,0.2,0.45,0.351,0.55,0.45
		C18.867,16.767,19.117,17.167,19.35,17.7z M19.6,18.45v0.1l-0.25,0.05c0.1,0,0.2,0,0.3,0c0.031,0.25,0.048,0.459,0.05,0.625
		c0.001-0.226,0.018-0.434,0.05-0.625c0.1,0,0.2,0,0.3,0c-0.033-0.066-0.083-0.133-0.15-0.199l-0.15,0.1c0-0.066,0-0.116,0-0.15
		c0.033,0,0.067-0.017,0.1-0.05c-0.033-0.033-0.067-0.066-0.1-0.1c0-0.066,0-0.134,0-0.2c0-0.366-0.017-0.684-0.05-0.95
		c-0.034-0.166-0.067-0.3-0.1-0.399c-0.067-0.301-0.117-0.567-0.15-0.801c-0.033-0.129-0.066-0.212-0.1-0.25
		c0.034,0.036,0.067,0.086,0.1,0.15l0.05-0.15c0.033-0.267-0.1-0.633-0.4-1.1v-0.05c-0.033-0.036-0.05-0.069-0.05-0.1
		c-0.233-0.733-0.367-1.267-0.4-1.6c0.4,0.033,0.8-0.117,1.2-0.45c0.167,0.2,0.383,0.3,0.65,0.3c0.233,0,0.433-0.1,0.6-0.3
		l-0.45,0.95c-0.233,0.433-0.333,0.767-0.3,1c0.1,0,0.233,0,0.4,0c0.3,0,0.65-0.05,1.05-0.15c-0.233,0.267-0.4,0.467-0.5,0.6
		c-0.133,0.2-0.183,0.383-0.15,0.55c0,0.033,0,0.083,0,0.15c0.067,0.133,0.15,0.233,0.25,0.3c0.067,0.033,0.133,0.05,0.2,0.05
		c0.2,0.066,0.333-0.033,0.4-0.3c-0.067,0.6,0.067,0.934,0.4,1c0.067,0.033,0.15,0.033,0.25,0h0.05
		c0.133-0.033,0.25-0.15,0.35-0.351c0.034-0.1,0.117-0.267,0.25-0.5c0.034,0.2,0.05,0.45,0.05,0.75
		c0.066,0.267,0.217,0.45,0.45,0.551c0.034,0,0.067,0.017,0.1,0.05c0.167,0.066,0.367,0.066,0.6,0l-0.65,0.399
		c-0.633,0.4-0.917,0.75-0.85,1.051c0.3,0.033,0.767,0.05,1.4,0.05c-0.167,0.399-0.233,0.649-0.2,0.75
		c0.3,0.066,0.566,0.083,0.8,0.05c-0.067,0.233-0.15,0.517-0.25,0.85c-0.133,0.5-0.483,0.767-1.05,0.801
		c-0.133,0.399-0.083,0.683,0.15,0.85c0.533,0.366,1.25-0.1,2.15-1.4c-0.033,0.2-0.017,0.434,0.05,0.7h-0.1
		c0,0.367-0.084,0.601-0.25,0.7c-0.066,0.066-0.3,0.134-0.7,0.2c0,0.066,0,0.267,0,0.6c0.033,0.3,0.017,0.5-0.05,0.601
		c-0.067,0.166-0.25,0.466-0.55,0.899c-0.1,0.2-0.117,0.384-0.05,0.55c-0.1-0.033-0.184-0.083-0.25-0.149
		c0.167-0.334,0.25-0.65,0.25-0.95c-0.3,0.1-0.583,0.15-0.85,0.15c-0.033,0-0.067,0-0.1,0l0.05-1c0.033-0.567-0.25-1.217-0.85-1.95
		c-0.533-0.634-1.1-1.101-1.7-1.4c0.167,0.2,0.383,0.45,0.65,0.75c0.233,0.267,0.367,0.566,0.4,0.9
		c0.167,1.066-0.034,1.533-0.6,1.399L21.3,23.5c0,0.1-0.017,0.184-0.05,0.25c-0.1-0.1-0.183-0.217-0.25-0.35v1
		c-0.467,0.1-0.85,0-1.15-0.301c-0.033,0.233-0.033,0.534,0,0.9c0,0.233-0.167,0.384-0.5,0.45c-0.367,0.033-0.65-0.084-0.85-0.351
		c-0.167,0.101-0.267,0.384-0.3,0.851c-0.034,0.333-0.383,0.5-1.05,0.5c-0.566-0.033-0.883-0.167-0.95-0.4
		c-0.167-0.533-0.284-0.833-0.35-0.899c-0.167,0.166-0.45,0.267-0.85,0.3c-0.433,0.033-0.717-0.033-0.85-0.2
		c0.067-0.233,0.217-0.417,0.45-0.55c-0.333,0.1-0.867,0.116-1.6,0.05c-0.067-0.3,0.067-0.6,0.4-0.9l0.05-0.05
		c0.033-0.033,0.083-0.05,0.15-0.05c0.233-0.167,0.483-0.283,0.75-0.35L14,23.45c-0.133,0-0.283,0-0.45,0
		c-0.066-0.167-0.017-0.417,0.15-0.75c0.133-0.2,0.216-0.367,0.25-0.5c-0.034-0.066-0.05-0.117-0.05-0.15
		c-0.267,0.134-0.667,0.134-1.2,0l-0.05-0.7c0.267,0.134,0.533,0.184,0.8,0.15l-0.05-0.05c0.1-0.033,0.233-0.05,0.4-0.05
		c0.067-0.034,0.117-0.084,0.15-0.15c0,0.033,0,0.083,0,0.15c0.1-0.034,0.216-0.051,0.35-0.051c0.333-0.1,0.367-0.35,0.1-0.75
		c0.367-0.033,0.85-0.066,1.45-0.1c0.467-0.134,0.683-0.517,0.65-1.15c0.2,0.367,0.567,0.467,1.1,0.301
		c0.566-0.167,0.816-0.467,0.75-0.9c0.267,0,0.55-0.05,0.85-0.15C19.333,18.533,19.467,18.483,19.6,18.45z M6.7,14.6
		c0.033,0.133,0.066,0.283,0.1,0.45c0.067,0.2,0.117,0.434,0.15,0.7c0,0.134-0.017,0.333-0.05,0.6c0,0.067,0,0.134,0,0.2L6.85,16.8
		V16.9c0.033,0,0.083,0,0.15,0c0.033,0.1,0.1,0.183,0.2,0.25l0.05,0.35c-0.033,0.033-0.067,0.066-0.1,0.1L7.1,17.7
		c-0.2,0.267-0.283,0.5-0.25,0.7c0.033,0.3,0.217,0.466,0.55,0.5c0.2,0.033,0.517,0.05,0.95,0.05C7.917,19.316,7.6,19.616,7.4,19.85
		C7,20.25,7.033,20.6,7.5,20.9C7.7,21,8.05,21.033,8.55,21c0.367-0.033,0.633-0.1,0.8-0.2c-0.2,0.2-0.3,0.467-0.3,0.8
		c-0.033,0.101,0,0.45,0.1,1.051c0.2-0.134,0.317-0.284,0.35-0.45c-0.033,0.434,0.067,0.733,0.3,0.899
		c0.6,0.233,1.017-0.25,1.25-1.449c0.367,0.833,0.633,0.983,0.8,0.449c0.133-0.399,0.183-0.933,0.15-1.6
		c0.033,0.366,0.233,0.65,0.6,0.85c-0.033,0.934-0.184,1.551-0.45,1.851c0-0.066,0.017-0.15,0.05-0.25l-0.35,0.5
		c-0.233,0.133-0.467,0.184-0.7,0.149c-0.3-0.033-0.467-0.166-0.5-0.399c-0.1,0.7-0.767,1.149-2,1.35
		c-0.033-0.133-0.033-0.283,0-0.45c-0.066,0.134-0.15,0.267-0.25,0.4c-0.066,0-0.117,0.017-0.15,0.05
		c-0.5,0.033-0.933-0.033-1.3-0.2c-0.367-0.199-0.567-0.483-0.6-0.85c-0.033,0.233-0.217,0.384-0.55,0.45
		C5.5,24.017,5.233,24,5,23.9c-0.5-0.267-0.433-0.784,0.2-1.551c-0.267,0.301-0.833,0.367-1.7,0.2
		c-0.067-0.333,0.017-0.684,0.25-1.05c0.167-0.1,0.333-0.2,0.5-0.3L4.6,21c0.167,0.167,0.367,0.366,0.6,0.6
		c0.466,0.534,1.017,0.767,1.65,0.7L5.6,21.15c0.1-1.167-0.617-1.784-2.15-1.851c-1.4-0.033-2.034,0.617-1.9,1.95
		c0,0.066-0.017,0.134-0.05,0.2c0,0.1-0.05,0.566-0.15,1.399c-0.267,1.534-0.383,2.934-0.35,4.2c-0.467-1.2-0.733-2.149-0.8-2.85
		C0.067,22.934,0,22,0,21.4c0-1.434,0.167-2.4,0.5-2.9l0.25-0.35c0.033,0,0.167-0.017,0.4-0.051c0.567-0.166,1.283-0.166,2.15,0
		c0.567,0.134,1.35,0.584,2.35,1.351c0.167,0.133,0.4,0.316,0.7,0.55c0.033-0.066,0.083-0.1,0.15-0.1
		c0.071-0.068,0.155-0.118,0.25-0.15l-0.1-0.1c-0.066-0.134-0.117-0.284-0.15-0.45C6.467,19.1,6.45,18.983,6.45,18.85
		c-0.034-0.466-0.067-0.767-0.1-0.899L6,17.15c-0.1-0.233-0.15-0.367-0.15-0.4c-0.033-0.033-0.217-0.167-0.55-0.4
		c-1.133-0.733-1.633-1.433-1.5-2.1c0.1-0.033,0.217-0.05,0.35-0.05c0.033,0,0.083,0,0.15,0h0.2C5.067,14.2,5.8,14.333,6.7,14.6z
		 M30.7,1.85L29.85,1.6l1.45,0.3l0.05,0.3L30.7,1.85z M31.9,14.7c-0.067,0.267-0.134,0.566-0.2,0.899v0.051
		c-0.134,0.533-0.384,1.017-0.75,1.449c-0.066,0.067-0.134,0.134-0.2,0.2v0.05c0,0.101,0.033,0.233,0.1,0.4c0,0.066,0,0.134,0,0.2
		c0,0.1,0.017,0.2,0.051,0.3c0.033,0.3,0.066,0.6,0.1,0.9c-0.233-0.367-0.533-0.733-0.9-1.101c-0.6-0.467-1.149-0.684-1.649-0.649
		c-0.634,0.066-1.167,0.517-1.601,1.35c-0.399,0.733-0.566,1.45-0.5,2.15L26.1,21c0.034-0.2,0.084-0.45,0.15-0.75
		c0.233-1.333,0.434-2.316,0.6-2.95c0.034-0.133,0.067-0.25,0.101-0.35c0.233-0.733,0.649-1.267,1.25-1.601
		c0.267-0.133,0.583-0.233,0.95-0.3c0.3-0.033,0.566,0.017,0.8,0.15L30,15c-0.066-0.033-0.116-0.067-0.15-0.1
		c-0.233-0.1-0.416-0.2-0.55-0.3c0.434,0.033,0.733-0.083,0.9-0.35c0-0.3,0.033-0.583,0.1-0.85c-0.1-0.167-0.267-0.316-0.5-0.45
		c0.3-0.1,0.517-0.3,0.65-0.6c0.1-0.3,0.116-0.6,0.05-0.9c-0.033-0.333-0.167-0.534-0.4-0.6c-0.433-0.167-0.699-0.3-0.8-0.4
		c0.2-0.1,0.417-0.15,0.65-0.15c0.767-0.1,1.166-0.167,1.2-0.2c0.199-0.133,0.083-0.467-0.351-1c0.634-0.033,1-0.15,1.101-0.35
		C31.967,8.65,32,8.267,32,7.6l0.15,0.8c0.3-0.4,0.366-0.9,0.199-1.5C32.217,6.333,31.9,6.067,31.4,6.1
		c0.466-0.1,0.783-0.35,0.949-0.75c0.233-0.5,0.101-0.917-0.399-1.25c0.267-0.067,0.399-0.283,0.399-0.65
		C32.283,3.183,32.2,3,32.1,2.9c0.097,0,0.205,0.033,0.325,0.1H32.5c0.233,0.067,0.434,0.15,0.6,0.25
		c0.034-0.533,0.051-0.867,0.051-1V0C33.616,0.8,33.9,1.867,34,3.2c0,0.1,0,0.95,0,2.55c0.1-0.067,0.233-0.05,0.4,0.05
		c0.066,0.967-0.034,1.75-0.301,2.35L33.9,8.55l-0.5,0.7c0.133,0.2,0.216,0.417,0.25,0.65c0.267-0.1,0.533-0.117,0.8-0.05
		c0.366,0.033,0.684,0.233,0.95,0.6c0.3,0.4,0.517,0.85,0.649,1.35c0.033,0.133,0.066,0.284,0.101,0.45
		c0.033,0.2,0.05,0.55,0.05,1.05c0,0.267,0,0.583,0,0.95c0,0.567-0.017,1.134-0.05,1.7c-0.067,0.767-0.167,1.517-0.301,2.25
		c-0.166-0.367-0.316-1.117-0.449-2.25c-0.034-0.134-0.051-0.25-0.051-0.351c-0.033-0.166-0.05-0.316-0.05-0.449
		c0.066,0.333,0.117,0.6,0.15,0.8c0.031,0.219,0.048,0.36,0.05,0.425c0-0.153,0-0.295,0-0.425c-0.033-1.034-0.116-1.934-0.25-2.7
		c-0.134-0.5-0.283-0.95-0.45-1.35c-0.133-0.3-0.25-0.467-0.35-0.5c-0.066-0.033-0.267,0-0.601,0.1c-0.566,0.033-1,0.117-1.3,0.25
		c-0.066,0-0.116,0.017-0.149,0.05c-0.101,0.034-0.184,0.083-0.25,0.15c-0.101,0.133-0.2,0.383-0.301,0.75
		c-0.033,0.167-0.066,0.3-0.1,0.4c-0.033,0.233-0.066,0.367-0.1,0.4c-0.067,0.2-0.15,0.5-0.25,0.9
		c-0.067,0.133-0.117,0.283-0.15,0.45c-0.167,0.567-0.366,0.983-0.6,1.25l-0.4,1.9C30.65,17.267,31.2,16.167,31.9,14.7z M29.7,18.6
		c0.133,0.101,0.283,0.25,0.45,0.45c0.033,0.033,0.233,0.316,0.6,0.851c0.1,0.166,0.2,0.3,0.3,0.399c0.033,0.767,0,1.351-0.1,1.75
		c-0.066-0.133-0.134-0.517-0.2-1.149c-0.167-0.7-0.45-1.351-0.85-1.95c-0.101,0.3-0.317,0.833-0.65,1.6c-0.333,0.8-0.1,1.134,0.7,1
		c-0.533,0.2-1.101,0.467-1.7,0.8c-0.733,0.434-1.217,0.834-1.45,1.2c0.267,0.267,0.55,0.316,0.851,0.15l0.55-0.05
		c0.166,0.066,0.283,0.149,0.35,0.25C29.483,24,29.967,23.8,30,23.3c0,0.367,0.167,0.434,0.5,0.2c0.4-0.233,0.566-0.517,0.5-0.85
		c0.1,0.199,0.316,0.316,0.65,0.35c0.333,0.033,0.6,0,0.8-0.1c0.267-0.134,0.399-0.334,0.399-0.601c0-0.333-0.017-0.616-0.05-0.85
		c0.134,0.133,0.3,0.166,0.5,0.1c0.134-0.066,0.233-0.184,0.3-0.35c0.034,0.133,0.117,0.233,0.25,0.3
		c0.067,0.033,0.217,0.066,0.45,0.1c0,1.267-0.1,1.934-0.3,2c-0.134,0.067-0.233,0.084-0.3,0.051L33.6,23.6
		c-0.066-0.033-0.116-0.083-0.149-0.149c-0.066-0.066-0.117-0.134-0.15-0.2c0.066,0.167,0.167,0.4,0.3,0.7
		c0.2,0.5,0.2,0.883,0,1.149C33.4,25.4,33.167,25.467,32.9,25.3c-0.2-0.133-0.351-0.383-0.45-0.75c-0.3,0.367-0.517,0.617-0.65,0.75
		c-0.233,0.267-0.55,0.351-0.95,0.25c-0.033-0.2-0.033-0.399,0-0.6c-0.1,0.3-0.666,0.5-1.699,0.6c-1.134,0.101-1.75-0.133-1.851-0.7
		c-0.267,0.267-0.666,0.4-1.2,0.4c-0.3,0-0.483-0.066-0.55-0.2c0.134,0,0.283-0.017,0.45-0.05c0.1,0,0.434-0.066,1-0.2
		c-0.6,0-0.95-0.1-1.05-0.3c-0.101-0.233,0.017-0.434,0.35-0.6c-0.434,0-0.7-0.017-0.8-0.051c0.134-0.199,0.45-0.416,0.95-0.649
		c0.267-0.134,0.55-0.316,0.85-0.55l0.8-0.7c0.167-0.267,0.384-0.417,0.65-0.45c-0.033-0.3-0.167-0.467-0.4-0.5
		c-0.333-0.066-0.533-0.116-0.6-0.15L27.7,20.8c0.166-0.2,0.2-0.467,0.1-0.8c0.134,0.366,0.367,0.517,0.7,0.45
		c0.233-0.033,0.384-0.117,0.45-0.25C28.983,19.967,29,19.767,29,19.6c0-0.033-0.017-0.433-0.05-1.199c0-0.034,0-0.067,0-0.101
		c0.033,0,0.083,0,0.149,0c0.034,0,0.067,0.017,0.101,0.05v0.2L29.7,18.6z M20.35,18.55c0-0.1,0-0.2,0-0.3l-0.3,0.1l0.05,0.25
		C20.167,18.566,20.25,18.55,20.35,18.55c-0.033,0.334-0.184,0.566-0.45,0.7c-0.033,0.033-0.083,0.05-0.15,0.05h-0.1
		c-0.2,0.033-0.617,0.084-1.25,0.15c0.1,0.066,0.283,0.267,0.55,0.6c0.167,0.2,0.383,0.316,0.65,0.351
		c0.467,0.066,0.75-0.067,0.85-0.4c0.033-0.066,0.05-0.134,0.05-0.2c0.1-0.366,0.2-0.583,0.3-0.649c0.567,0.199,1,0.233,1.3,0.1
		c0.267-0.134,0.417-0.366,0.45-0.7c0.034-0.166,0.034-0.35,0-0.55c0-0.134-0.017-0.25-0.05-0.35c-0.233,0.233-0.5,0.416-0.8,0.55
		c-0.233,0.1-0.467,0.184-0.7,0.25c-0.133,0.033-0.267,0.066-0.4,0.1C20.5,18.55,20.417,18.55,20.35,18.55z M25,19.25
		c0.134-0.333,0.233-0.533,0.3-0.6c0.167,0.3,0.084,0.5-0.25,0.6H25z M11.7,16.2v0.75c-0.034-0.767-0.083-1.351-0.15-1.75
		l-0.45-1.35c-0.1-0.833-0.15-1.267-0.15-1.3c-0.167-0.8-0.217-1.55-0.15-2.25c0.133-1,0.517-1.55,1.15-1.65
		c0.433-0.066,0.917,0.083,1.45,0.45c0.333,0.2,0.75,0.517,1.25,0.95c0.533,0.367,0.983,0.717,1.35,1.05
		c0.067,0.167,0.133,0.35,0.2,0.55c0.1,0.467,0.267,0.883,0.5,1.25c0.667,1,0.95,1.8,0.85,2.4c-0.3-0.033-0.667-0.233-1.1-0.6
		c-0.034,0-0.05-0.017-0.05-0.05c-0.1-0.066-0.183-0.133-0.25-0.2c-0.3-0.333-0.667-0.767-1.1-1.3c-0.633-0.733-1.2-1.316-1.7-1.75
		c-0.233-0.2-0.434-0.333-0.6-0.4c-0.033-0.033-0.067-0.05-0.1-0.05c0.033-0.034,0.083-0.05,0.15-0.05
		c0.067-0.066,0.15-0.1,0.25-0.1c0.1-0.033,0.217-0.05,0.35-0.05c0.767-0.1,1.483,0.05,2.15,0.45C14.85,10.133,14,9.817,13,10.25
		c-0.133,0.067-0.25,0.133-0.35,0.2c-0.267,0.133-0.483,0.3-0.65,0.5c-0.1,0.066-0.167,0.167-0.2,0.3
		c-0.233,0.4-0.35,0.867-0.35,1.4L11.7,16.2z M17.4,12.45c-0.3-0.3-0.566-0.583-0.8-0.85c0.2,0.167,0.35,0.316,0.45,0.45
		C17.183,12.183,17.3,12.317,17.4,12.45z M18.55,21.35L18.5,20.6c-0.5-0.1-0.917-0.017-1.25,0.25c-0.367,0.267-0.5,0.65-0.4,1.15
		c-0.434-0.267-0.95-0.2-1.55,0.2c-0.1,0.066-0.2,0.149-0.3,0.25c-0.233,0.434-0.15,0.7,0.25,0.8l0.25,0.05
		c-0.2,0.367-0.333,0.733-0.4,1.101c0.566,0.199,1.133,0.133,1.7-0.2c0.6-0.334,0.833-0.8,0.7-1.4c0.2,0.101,0.483,0.167,0.85,0.2
		c0.433,0.033,0.733-0.017,0.9-0.15c0.233-0.133,0.367-0.35,0.4-0.649c0-0.334,0.017-0.584,0.05-0.75c0.1,0,0.233,0,0.4,0
		c-0.067-0.066-0.117-0.134-0.15-0.2c-0.167-0.267-0.4-0.384-0.7-0.35C18.917,20.9,18.683,21.05,18.55,21.35z M15.5,23.3
		c0.267-0.434,0.583-0.75,0.95-0.95c0.133,0.334,0.083,0.584-0.15,0.75C16.1,23.267,15.833,23.333,15.5,23.3z"/>
	<path style="fill-rule:evenodd;clip-rule:evenodd;fill:#414428;" d="M34.5,21.75l0.3,0.8c0.334,0.4,0.617,0.634,0.851,0.7
		c0.399,0.134,0.949,0.167,1.649,0.1c0.8-0.066,1.25-0.283,1.351-0.649c-0.067,0.733,0.1,1.133,0.5,1.2
		c0.267,0.033,0.483-0.101,0.649-0.4c0,0.366,0.017,0.6,0.05,0.7c0.067,0.2,0.233,0.333,0.5,0.399c0.167,0.067,0.4,0.051,0.7-0.05
		c0.334-0.1,0.533-0.233,0.601-0.399l0.05,0.399c0.399,0.066,0.684,0.101,0.85,0.101c0.334-0.034,0.55-0.167,0.65-0.4
		c0.133-0.333,0.017-0.717-0.351-1.15c-0.3-0.366-0.633-0.616-1-0.75c0.334-0.433,0.2-0.85-0.399-1.25
		c-0.2,0.101-0.434,0.117-0.7,0.051c-0.333-0.067-0.483-0.2-0.45-0.4c0.367-0.066,0.75,0.05,1.15,0.35l0.1-0.05
		c0.267-0.233,0.233-0.684-0.1-1.35c0.6,0.333,1.166,0.45,1.7,0.35c0.033-0.3,0.05-0.5,0.05-0.6c0.566,0.033,0.866-0.283,0.899-0.95
		c0-0.533-0.199-0.833-0.6-0.9c0.267-0.033,0.434-0.183,0.5-0.449c0.066-0.301,0.017-0.667-0.15-1.101
		c0.2-0.133,0.567-0.25,1.101-0.35c0.533-0.066,0.934-0.2,1.2-0.4c0.366-0.267,0.55-0.466,0.55-0.6c0.033-0.133-0.066-0.333-0.3-0.6
		L46.25,14c0.066,0,0.15,0.017,0.25,0.05c0.066,0,0.15,0.017,0.25,0.05h0.05c0.867,0.167,1.283,0.5,1.25,1
		c0.167-0.033,0.4-0.066,0.7-0.1c0.434-0.033,0.75,0,0.95,0.1c0.8,0.367,1.267,1.367,1.399,3c0.034,0.167,0.051,1.134,0.051,2.9
		c-0.034-0.533-0.134-1.033-0.301-1.5c-0.166-0.366-0.5-0.95-1-1.75c-0.233-0.4-0.449-0.667-0.649-0.8
		c-0.233-0.134-0.584-0.2-1.05-0.2c-0.534,0-0.867,0.033-1,0.1c-0.233,0.067-0.467,0.301-0.7,0.7c-0.066,0.134-0.134,0.4-0.2,0.8
		c1.4,0.467,2.05,0.817,1.95,1.051c-0.334,0-0.533,0.017-0.601,0.05c-0.199,0.033-0.283,0.184-0.25,0.45
		c-0.267,0.033-0.783-0.017-1.55-0.15c-0.666-0.1-1.166-0.1-1.5,0L43.65,20.3L42.6,20.65c0.101,0.1,0.4,0.25,0.9,0.449
		c0.4,0.2,0.45,0.45,0.15,0.75c0.166,0.101,0.683,0.217,1.55,0.351c0.767,0.2,1.149,0.434,1.149,0.7
		c-0.1,0.133-0.233,0.233-0.399,0.3c0.033,0.066,0.434,0.149,1.2,0.25c0.699,0.1,1,0.35,0.899,0.75c-0.066,0.366-0.399,0.566-1,0.6
		c-0.666-0.033-1.1-0.05-1.3-0.05c0.2,0.267,0.316,0.467,0.35,0.6c-0.3,0.301-0.767,0.367-1.399,0.2
		c-0.7-0.166-1.184-0.184-1.45-0.05c0,0.3,0.033,0.667,0.1,1.1c-0.033,0.267-0.233,0.417-0.6,0.45
		c-0.267,0.033-0.517-0.033-0.75-0.2c-0.167-0.133-0.267-0.283-0.3-0.449c0,0.333-0.084,0.633-0.25,0.899
		c-0.2,0.3-0.533,0.417-1,0.351c-0.4-0.034-0.7-0.267-0.9-0.7c-0.133-0.533-0.25-0.934-0.35-1.2c-0.233,0.467-0.667,0.566-1.3,0.3
		C37.3,25.75,37,25.366,37,24.9c-0.033,0.399-0.3,0.517-0.8,0.35c-0.566-0.167-0.851-0.483-0.851-0.95
		c-0.199,0.233-0.483,0.384-0.85,0.45c0,0.233,0.017,0.634,0.05,1.2c-0.066,0.467-0.267,0.783-0.6,0.95
		c-0.533,0.233-1.017,0.25-1.45,0.05c-0.066-0.033-0.134-0.066-0.2-0.101c-0.1-0.066-0.184-0.133-0.25-0.199L31.9,26.55
		c-0.101-0.133-0.167-0.283-0.2-0.45c-0.033-0.066-0.05-0.133-0.05-0.199c-0.067,0.466-0.284,0.883-0.65,1.25
		c-0.134,0.133-0.25,0.233-0.35,0.3l-0.15,0.1c-0.267,0.101-0.533,0.134-0.8,0.101h-0.05c-0.534-0.101-0.7-0.717-0.5-1.851
		c0-0.033,0-0.066,0-0.1c-0.134,0.2-0.301,0.399-0.5,0.6c-0.267,0.2-0.567,0.384-0.9,0.55c-0.7,0.334-1.217,0.351-1.55,0.051
		c0.066-0.2,0.217-0.4,0.45-0.601c0.1-0.1,0.283-0.267,0.55-0.5c-0.767,0.134-1.334,0.233-1.7,0.3c-0.7,0.067-1.283,0.051-1.75-0.05
		c-0.133-0.2-0.117-0.434,0.05-0.7c0.1-0.133,0.267-0.316,0.5-0.55c-0.133-0.066-0.367-0.083-0.7-0.05
		c-0.333,0.033-0.583,0-0.75-0.1c-0.867,1.333-1.6,1.716-2.2,1.149c-0.1,0.767-0.433,1.367-1,1.8c-0.566,0.467-1.233,0.634-2,0.5
		c-0.066-0.3-0.017-0.55,0.15-0.75c-1.466,0.534-3.25,0.617-5.35,0.25c0.6-0.699,1.083-1.166,1.45-1.399h-0.05
		c-0.267,0.033-0.583,0.05-0.95,0.05h-0.3c-0.267,0-0.5-0.017-0.7-0.05c-0.4-0.033-0.7-0.084-0.9-0.15
		c-0.167-0.066-0.283-0.149-0.35-0.25l2.1-1.6c0.133-0.066,0.267-0.134,0.4-0.2c0.1-0.066,0.2-0.134,0.3-0.2l-0.05,0.05
		c-0.333,0.301-0.467,0.601-0.4,0.9c0.733,0.066,1.267,0.05,1.6-0.05c-0.233,0.133-0.383,0.316-0.45,0.55
		c0.133,0.167,0.417,0.233,0.85,0.2c0.4-0.033,0.683-0.134,0.85-0.3c0.066,0.066,0.183,0.366,0.35,0.899
		c0.066,0.233,0.383,0.367,0.95,0.4c0.667,0,1.017-0.167,1.05-0.5c0.033-0.467,0.133-0.75,0.3-0.851
		c0.2,0.267,0.483,0.384,0.85,0.351c0.333-0.066,0.5-0.217,0.5-0.45c-0.033-0.366-0.033-0.667,0-0.9c0.3,0.301,0.683,0.4,1.15,0.301
		v-1c0.067,0.133,0.15,0.25,0.25,0.35c0.033-0.066,0.05-0.15,0.05-0.25l0.05-1.15c0.566,0.134,0.767-0.333,0.6-1.399
		c-0.034-0.334-0.167-0.634-0.4-0.9c-0.267-0.3-0.483-0.55-0.65-0.75c0.6,0.3,1.167,0.767,1.7,1.4c0.6,0.733,0.883,1.383,0.85,1.95
		l-0.05,1c0.033,0,0.067,0,0.1,0c0.267,0,0.55-0.051,0.85-0.15c0,0.3-0.083,0.616-0.25,0.95c0.066,0.066,0.15,0.116,0.25,0.149
		c-0.067-0.166-0.05-0.35,0.05-0.55c0.3-0.434,0.483-0.733,0.55-0.899c0.066-0.101,0.083-0.301,0.05-0.601c0-0.333,0-0.533,0-0.6
		c0.4-0.066,0.634-0.134,0.7-0.2c0.166-0.1,0.25-0.333,0.25-0.7h0.1L26.1,21l0.25-0.1c-0.066-0.7,0.101-1.417,0.5-2.15
		c0.434-0.833,0.967-1.283,1.601-1.35c0.5-0.034,1.05,0.183,1.649,0.649c0.367,0.367,0.667,0.733,0.9,1.101c0.3,0.5,0.45,1,0.45,1.5
		c-0.101-0.034-0.233-0.15-0.4-0.351c-0.1-0.1-0.2-0.233-0.3-0.399c-0.366-0.534-0.566-0.817-0.6-0.851
		c-0.167-0.2-0.317-0.35-0.45-0.45c-0.2-0.166-0.367-0.25-0.5-0.25c-0.033-0.033-0.066-0.05-0.101-0.05c-0.066,0-0.116,0-0.149,0
		c-0.601-0.1-1.017,0.15-1.25,0.75c-0.101,0.267-0.15,0.584-0.15,0.95c-0.033,0.366,0.017,0.634,0.15,0.8l0.05,0.05
		c0.066,0.034,0.267,0.084,0.6,0.15c0.233,0.033,0.367,0.2,0.4,0.5c-0.267,0.033-0.483,0.184-0.65,0.45l-0.8,0.7
		c-0.3,0.233-0.583,0.416-0.85,0.55c-0.5,0.233-0.816,0.45-0.95,0.649c0.1,0.034,0.366,0.051,0.8,0.051
		c-0.333,0.166-0.45,0.366-0.35,0.6c0.1,0.2,0.45,0.3,1.05,0.3c-0.566,0.134-0.9,0.2-1,0.2c-0.167,0.033-0.316,0.05-0.45,0.05
		c0.066,0.134,0.25,0.2,0.55,0.2c0.534,0,0.934-0.134,1.2-0.4c0.101,0.567,0.717,0.801,1.851,0.7c1.033-0.1,1.6-0.3,1.699-0.6
		c-0.033,0.2-0.033,0.399,0,0.6c0.4,0.101,0.717,0.017,0.95-0.25c0.134-0.133,0.351-0.383,0.65-0.75c0.1,0.367,0.25,0.617,0.45,0.75
		c0.267,0.167,0.5,0.101,0.699-0.2c0.2-0.267,0.2-0.649,0-1.149c-0.066-0.167-0.116-0.334-0.149-0.5
		c0.033,0.066,0.083,0.116,0.149,0.149L33.7,23.65c0.066,0.033,0.166,0.017,0.3-0.051c0.2-0.066,0.3-0.733,0.3-2l0.05-0.899
		L34.45,21.6L34.5,21.75z M44.95,13.3c-0.134-0.066-0.283-0.117-0.45-0.15c-0.066,0.1-0.116,0.184-0.15,0.25
		c0.101,0,0.267,0.017,0.5,0.05H44.9c0.3-0.034,0.733-0.067,1.3-0.1c0.8-0.033,1.366,0.05,1.7,0.25
		c-0.167,0.133-0.517,0.217-1.051,0.25C46.283,13.883,45.9,13.9,45.7,13.9h-0.05c-1.034,0.167-1.617-0.133-1.75-0.9
		c-0.134-0.033-0.25-0.05-0.351-0.05L43.4,12.9c-0.467,0-0.801-0.1-1-0.3L42.3,12.55c-0.399-0.5-0.116-0.867,0.851-1.1L43.3,11.4
		l1.25-0.3c0.033-0.033,0.066-0.067,0.101-0.1h0.05c0.033-0.033,0.066-0.067,0.1-0.1c0.4-0.333,0.967-0.75,1.7-1.25
		c-0.167,0.533-0.5,1.167-1,1.9c-0.033,0.034-0.05,0.067-0.05,0.1c0.033,0.167,0.033,0.367,0,0.6c-0.033,0.167-0.084,0.333-0.15,0.5
		C45.2,12.95,45.083,13.133,44.95,13.3z M8.7,24.6c-0.034,0-0.05-0.017-0.05-0.05c1.233-0.2,1.9-0.649,2-1.35
		c0.033,0.233,0.2,0.366,0.5,0.399c0.233,0.034,0.467-0.017,0.7-0.149c-0.067,0.166-0.133,0.316-0.2,0.45l-0.2,0.199v0.051
		c-0.067,0.066-0.117,0.116-0.15,0.149c-0.033,0.066-0.083,0.117-0.15,0.15c-0.2,0.166-0.433,0.3-0.7,0.399
		c-0.2,0.067-0.4,0.101-0.6,0.101C9.15,25.017,8.767,24.9,8.7,24.6z M8.25,24.55c-0.533,0.434-1.3,0.717-2.3,0.851
		c-1,0.1-1.733-0.017-2.2-0.351V25l0.05-0.35c0.034-0.334,0.167-0.617,0.4-0.851c-0.467-0.166-0.767-0.316-0.9-0.45
		c-0.066-0.1-0.133-0.199-0.2-0.3c-0.2-0.5,0.017-1.017,0.65-1.55c-0.233,0.366-0.317,0.717-0.25,1.05
		c0.867,0.167,1.433,0.101,1.7-0.2C4.567,23.116,4.5,23.634,5,23.9c0.233,0.1,0.5,0.116,0.8,0.05c0.333-0.066,0.517-0.217,0.55-0.45
		c0.033,0.366,0.233,0.65,0.6,0.85C7.317,24.517,7.75,24.583,8.25,24.55z M12.15,23.2c0.267-0.3,0.417-0.917,0.45-1.851l0.1-0.199
		l-0.05,0.199l0.05,0.7c0.533,0.134,0.933,0.134,1.2,0c0,0.033,0.017,0.084,0.05,0.15c-0.034,0.133-0.117,0.3-0.25,0.5
		c-0.167,0.333-0.217,0.583-0.15,0.75c-0.367,0.033-0.816,0.017-1.35-0.05C12.167,23.333,12.15,23.267,12.15,23.2z M1.55,21.25
		c-0.133-1.333,0.5-1.983,1.9-1.95c1.533,0.066,2.25,0.684,2.15,1.851L6.85,22.3c-0.633,0.066-1.184-0.166-1.65-0.7
		c-0.233-0.233-0.434-0.433-0.6-0.6c-0.333-0.3-0.583-0.483-0.75-0.55c-0.467-0.167-0.9-0.117-1.3,0.149
		c-0.4,0.434-0.716,0.733-0.95,0.9C1.6,21.4,1.583,21.316,1.55,21.25z M44.1,17.7c0.267,0.066,0.534,0.149,0.801,0.25
		c0.033-0.066,0.066-0.117,0.1-0.15C44.733,17.8,44.434,17.767,44.1,17.7z M32.55,13.9c-0.2,0.2-0.416,0.467-0.649,0.8
		c-0.7,1.467-1.25,2.566-1.65,3.3l0.4-1.9c0.233-0.267,0.433-0.683,0.6-1.25c0.033-0.167,0.083-0.317,0.15-0.45
		c0.1-0.4,0.183-0.7,0.25-0.9c0.033-0.033,0.066-0.167,0.1-0.4c0.033-0.1,0.066-0.233,0.1-0.4c0.101-0.367,0.2-0.617,0.301-0.75
		c0.066-0.067,0.149-0.117,0.25-0.15c0.033-0.033,0.083-0.05,0.149-0.05c0.3-0.133,0.733-0.217,1.3-0.25
		c0.334-0.1,0.534-0.133,0.601-0.1c0.1,0.033,0.217,0.2,0.35,0.5c0.167,0.4,0.316,0.85,0.45,1.35c0.134,0.767,0.217,1.667,0.25,2.7
		c0,0.13,0,0.271,0,0.425c-0.002-0.064-0.019-0.206-0.05-0.425c-0.033-0.2-0.084-0.467-0.15-0.8c-0.033-0.067-0.05-0.134-0.05-0.2
		c0-0.067,0-0.133,0-0.2c-0.1-0.267-0.184-0.517-0.25-0.75c-0.066-0.067-0.15-0.133-0.25-0.2c-0.134-0.133-0.316-0.233-0.55-0.3
		c-0.4-0.167-0.717-0.2-0.95-0.1C33.017,13.467,32.783,13.633,32.55,13.9z M20.35,18.55c0.066,0,0.15,0,0.25,0
		c0.133-0.033,0.267-0.066,0.4-0.1c0.233-0.066,0.467-0.15,0.7-0.25c0.3-0.134,0.566-0.316,0.8-0.55c0.033,0.1,0.05,0.216,0.05,0.35
		c0.034,0.2,0.034,0.384,0,0.55c-0.033,0.334-0.183,0.566-0.45,0.7c-0.3,0.134-0.733,0.1-1.3-0.1c-0.1,0.066-0.2,0.283-0.3,0.649
		c0,0.066-0.017,0.134-0.05,0.2c-0.1,0.333-0.383,0.467-0.85,0.4c-0.267-0.034-0.483-0.15-0.65-0.351
		c-0.267-0.333-0.45-0.533-0.55-0.6c0.633-0.066,1.05-0.117,1.25-0.15h0.1c0.067,0,0.117-0.017,0.15-0.05
		C20.167,19.116,20.317,18.884,20.35,18.55c-0.1,0-0.184,0.017-0.25,0.05l-0.05-0.25l0.3-0.1C20.35,18.35,20.35,18.45,20.35,18.55z
		 M13.65,7.85c0.167,0.267,0.267,0.417,0.3,0.45l-1.35-1c-0.167-0.066-0.333-0.333-0.5-0.8c-0.2-0.433-0.283-0.75-0.25-0.95
		c0.267,0.4,0.717,0.917,1.35,1.55c0.167,0.267,0.3,0.5,0.4,0.7L13.65,7.85z M11.7,16.2l-0.25-3.55c0-0.533,0.117-1,0.35-1.4
		c0.034-0.133,0.1-0.233,0.2-0.3c0.167-0.2,0.383-0.367,0.65-0.5c0.1-0.067,0.217-0.133,0.35-0.2c1-0.433,1.85-0.117,2.55,0.95
		c-0.667-0.4-1.383-0.55-2.15-0.45c-0.133,0-0.25,0.017-0.35,0.05c-0.1,0-0.183,0.034-0.25,0.1c-0.066,0-0.117,0.017-0.15,0.05
		c-0.033,0.033-0.066,0.066-0.1,0.1c-0.333,0.233-0.517,0.717-0.55,1.45c-0.033,0.2-0.05,0.45-0.05,0.75
		c-0.034,0.333-0.05,0.733-0.05,1.2c-0.033,0.833-0.05,1.899-0.05,3.2c0,0.199,0,0.416,0,0.649L11.7,16.2z M6.95,15.75
		c0-0.167,0-0.283,0-0.35c0-0.667-0.05-1.2-0.15-1.601c0.133,0.233,0.3,0.5,0.5,0.8C7.733,15.233,8,15.7,8.1,16
		c0.066,0.2,0.117,0.483,0.15,0.85c0,0.034,0,0.067,0,0.101c0,0.434-0.017,1-0.05,1.7L7.45,18.8l-0.2-1.3L7.2,17.15
		C7.1,17.083,7.033,17,7,16.9C6.933,16.8,6.9,16.684,6.9,16.55c0-0.066,0-0.133,0-0.2C6.933,16.083,6.95,15.884,6.95,15.75z
		 M16.6,11.6c0.233,0.267,0.5,0.55,0.8,0.85c0.033,0,0.05,0.017,0.05,0.05c0.233,0.233,0.45,0.467,0.65,0.7
		c0.033,0.033,0.083,0.083,0.15,0.15c0.1,0.133,0.233,0.3,0.4,0.5l0.05,0.05v0.05c0.1,0.167,0.183,0.316,0.25,0.45
		c0.133,0.2,0.267,0.567,0.4,1.1v0.1c0.034,0.038,0.067,0.121,0.1,0.25c0.033,0.233,0.083,0.5,0.15,0.801
		c0.033,0.1,0.066,0.233,0.1,0.399c0.033,0.267,0.05,0.584,0.05,0.95c0,0.066,0,0.134,0,0.2c0,0.033,0,0.083,0,0.149
		c0,0.034,0,0.084,0,0.15l0.15-0.1c0.067,0.066,0.117,0.133,0.15,0.199c-0.1,0-0.2,0-0.3,0c-0.032,0.191-0.048,0.399-0.05,0.625
		c-0.002-0.166-0.019-0.375-0.05-0.625c-0.1,0-0.2,0-0.3,0l0.25-0.05v-0.1c-0.067-0.2-0.133-0.4-0.2-0.601
		c-0.033-0.066-0.05-0.116-0.05-0.149c-0.233-0.533-0.483-0.934-0.75-1.2c-0.1-0.1-0.283-0.25-0.55-0.45
		c-0.033,0-0.066-0.017-0.1-0.05c-0.1-0.066-0.184-0.134-0.25-0.2c-0.167-0.166-0.367-0.333-0.6-0.5l-0.6-0.5l-0.35-0.3l-1.3-1.1
		c0.267,0.1,0.7,0.45,1.3,1.05c0.067,0.066,0.15,0.133,0.25,0.2c0,0.033,0.017,0.05,0.05,0.05c0.433,0.366,0.8,0.566,1.1,0.6
		c0.1-0.6-0.183-1.4-0.85-2.4c-0.233-0.367-0.4-0.783-0.5-1.25c-0.067-0.2-0.133-0.383-0.2-0.55c-0.1-0.267-0.167-0.483-0.2-0.65
		C15.967,10.783,16.233,11.167,16.6,11.6z"/>
	<path style="fill-rule:evenodd;clip-rule:evenodd;fill:#6D7247;" d="M44.7,11h-0.05c-0.028-0.027-0.062-0.044-0.101-0.05
		C44.594,10.956,44.645,10.972,44.7,11z M44.95,13.3c0.133-0.167,0.25-0.35,0.35-0.55c-0.1,0.3-0.233,0.533-0.399,0.7H44.85
		L44.95,13.3z M31.7,26.1C31.6,26.4,31.417,26.7,31.15,27c-0.167,0.2-0.334,0.35-0.5,0.45c0.1-0.066,0.216-0.167,0.35-0.3
		c0.366-0.367,0.583-0.784,0.65-1.25C31.65,25.967,31.667,26.033,31.7,26.1z M29.15,25.8c-0.134,0.167-0.301,0.334-0.5,0.5
		c0.199-0.2,0.366-0.399,0.5-0.6C29.15,25.733,29.15,25.767,29.15,25.8z M12.45,27.6c0.367-0.466,0.767-0.883,1.2-1.25
		c0.067-0.033,0.133-0.083,0.2-0.149h0.05C13.533,26.434,13.05,26.9,12.45,27.6z M3.75,25.05c0.467,0.334,1.2,0.45,2.2,0.351
		c1-0.134,1.767-0.417,2.3-0.851c0.033-0.033,0.083-0.05,0.15-0.05c-0.4,0.4-1.083,0.684-2.05,0.85
		C5.15,25.55,4.283,25.45,3.75,25.05z M8.7,24.6c0.066,0.301,0.45,0.417,1.15,0.351C9.383,25.017,9.067,25,8.9,24.9
		C8.767,24.833,8.7,24.733,8.7,24.6z M12.2,23.4c0.533,0.066,0.983,0.083,1.35,0.05c0.167,0,0.317,0,0.45,0
		C13.467,23.517,12.867,23.5,12.2,23.4z M11.85,23.45l0.35-0.5c-0.233,0.399-0.417,0.717-0.55,0.95
		C11.717,23.767,11.783,23.616,11.85,23.45z M3.3,23.35c0.133,0.134,0.434,0.284,0.9,0.45c-0.233,0.233-0.367,0.517-0.4,0.851
		c0-0.334,0.117-0.617,0.35-0.851C3.75,23.7,3.467,23.55,3.3,23.35z M6.5,19.9c0.037-0.037,0.07-0.07,0.1-0.101
		c0.033-0.033,0.083-0.05,0.15-0.05C6.655,19.782,6.571,19.832,6.5,19.9z M6.65,19.65c-0.066-0.101-0.117-0.233-0.15-0.4V19.2
		C6.533,19.366,6.583,19.517,6.65,19.65z M6.7,14.6c-0.9-0.267-1.633-0.4-2.2-0.4c0.567-0.034,1.233,0.066,2,0.3
		c0.067,0,0.133,0.017,0.2,0.05V14.6z M8.25,16.95c0-0.033,0-0.066,0-0.101L9,16.9c0-0.601-0.083-1.184-0.25-1.75
		c0.267,0.066,0.417,0.1,0.45,0.1c0.033-0.9,0.1-1.5,0.2-1.8c0.167,0.566,0.383,1.167,0.65,1.8c0.3,0.733,0.75,1.717,1.35,2.95
		c-0.267,0.233-0.533,0.434-0.8,0.6c-0.767,0.5-1.417,0.533-1.95,0.101c0-0.2,0.067-0.5,0.2-0.9C8.95,17.6,9,17.283,9,17.05
		C8.6,17.083,8.35,17.05,8.25,16.95z M14.8,6.2l-0.2-0.05c0.066,0.1,0.45,0.35,1.15,0.75c-0.233,0.3-0.167,0.533,0.2,0.7
		c-1-0.1-1.5,0.066-1.5,0.5c0,0.333,0.383,0.533,1.15,0.6l-0.8,0.55c-0.033-0.067-0.066-0.117-0.1-0.15
		c-0.367-0.467-0.717-0.883-1.05-1.25c0-0.033,0.017-0.067,0.05-0.1c0.267-0.033,0.583-0.15,0.95-0.35L14.5,6.6
		c-0.3-0.033-0.583-0.15-0.85-0.35C13.883,5.983,14.267,5.967,14.8,6.2z M19.1,14.45c-0.069-0.07-0.136-0.153-0.2-0.25
		c-0.066-0.1-0.133-0.184-0.2-0.25V13.9l-0.05-0.05c-0.167-0.2-0.3-0.367-0.4-0.5c-0.067-0.067-0.117-0.117-0.15-0.15
		c0-0.367-0.033-0.784-0.1-1.25c0.733,0.633,1.1,0.566,1.1-0.2c0.033-0.267-0.05-0.933-0.25-2c0.1,0.033,0.25,0.033,0.45,0
		c0.067-0.667,0.05-1.15-0.05-1.45c0.733,0.467,1.1,0.067,1.1-1.2c-0.633,0.033-1.1,0.017-1.4-0.05
		c0.133-0.167,0.433-0.417,0.9-0.75c0.367-0.367,0.533-0.716,0.5-1.05c-0.067-0.633-0.7-0.7-1.9-0.2
		c0.333-1.033,0.383-1.633,0.15-1.8s-0.533-0.083-0.9,0.25c-0.3,0.3-0.483,0.6-0.55,0.9l0.5,1L16.8,5.15
		c-0.133,0.167-0.167,0.35-0.1,0.55c-0.534-0.167-1.217-0.217-2.05-0.15c0,0.034,0,0.067,0,0.1c-0.033-0.267-0.033-0.55,0-0.85
		c0.267-0.133,0.6-0.167,1-0.1c0.233,0.033,0.434,0.117,0.6,0.25c-0.1-0.2-0.167-0.45-0.2-0.75c-0.033-0.434,0-0.817,0.1-1.15
		C16.417,2.983,16.733,3,17.1,3.1c0.167,0.033,0.3,0.1,0.4,0.2c-0.033-0.167-0.033-0.383,0-0.65c0.3-0.133,0.467-0.083,0.5,0.15
		c-0.033-0.433-0.05-0.75-0.05-0.95c0.033-0.367,0.233-0.583,0.6-0.65c0.733-0.133,1.4,0.083,2,0.65
		c0.267,0.233,0.467,0.483,0.6,0.75c0-0.1,0-0.2,0-0.3c0-0.8,0.117-1.233,0.35-1.3c0.233-0.033,0.617,0.15,1.15,0.55
		c0.5,0.4,0.883,0.567,1.15,0.5c0-0.5,0.233-0.75,0.7-0.75c0.5,0,0.833,0.817,1,2.45l0.15-1.15c0.366-0.733,0.816-1.25,1.35-1.55
		c0.634-0.367,1.134-0.167,1.5,0.6c0.366-0.467,0.65-0.767,0.85-0.9c0.367-0.2,0.784-0.15,1.25,0.15c0.334,0.2,0.567,0.533,0.7,1
		l-1.45-0.3L30.7,1.85c-1.2,0.033-2.084,0.05-2.65,0.05c-0.6,0-0.967,0.067-1.1,0.2c0.1,0.167,0.483,0.267,1.149,0.3
		c0.567,0.033,0.884,0.25,0.95,0.65c0.101,0.534-0.3,1.067-1.2,1.6c0.101,0.033,0.567,0.1,1.4,0.2
		c0.667,0.066,1.083,0.217,1.25,0.45c0.5,0.633-0.066,1.117-1.7,1.45c0.733,0,1.167,0.183,1.3,0.55c0.167,0.333,0,0.65-0.5,0.95
		c0-0.567-0.083-1.017-0.25-1.35L28,6.65V6.6c-0.066,0-0.116,0-0.15,0c-0.6-0.967-1.399-1.483-2.399-1.55
		c-0.066,0.1-0.101,0.434-0.101,1c-0.066-0.267-0.25-0.433-0.55-0.5c-0.3-0.066-0.466,0.05-0.5,0.35c-0.533,0-0.95,0.033-1.25,0.1
		c-0.566,0.133-0.633,0.383-0.2,0.75c-0.467,0.3-0.667,0.617-0.6,0.95c0.067,0.333,0.4,0.383,1,0.15c-0.2,0.1-0.4,0.3-0.6,0.6
		c-0.267,0.367-0.316,0.633-0.15,0.8c0.133,0.167,0.317,0.233,0.55,0.2c0.2-0.034,0.367-0.133,0.5-0.3
		c-0.4,0.9-0.417,1.483-0.05,1.75c0.467,0.3,0.867,0.117,1.2-0.55c0.033-0.1,0.066-0.2,0.1-0.3c0.2,0.233,0.584,0.3,1.15,0.2
		c0.2,0.133,0.434,0.2,0.7,0.2c0.833,0.033,1.283-0.633,1.35-2c0.066,0.233,0.267,0.433,0.6,0.6C28.934,9.217,29.2,9.233,29.4,9.1
		C29.533,9,29.6,8.767,29.6,8.4c0.4,0,0.667,0.1,0.801,0.3c0.133,0.2,0.166,0.55,0.1,1.05c-0.267,0.033-0.434,0.033-0.5,0
		l-0.05,0.55c-0.233,0-0.45,0.05-0.65,0.15c0.101,0.1,0.367,0.233,0.8,0.4c0.101,0.3,0.117,0.5,0.051,0.6
		c-0.067,0.167-0.301,0.267-0.7,0.3c0.066,0.467,0.017,0.867-0.15,1.2c-0.133,0.333-0.35,0.4-0.649,0.2c0.1,0.167,0.1,0.467,0,0.9
		L28.2,14.1c-0.033,0.267-0.033,0.683,0,1.25c-0.601,0.334-1.017,0.867-1.25,1.601c-0.3,0-0.667-0.033-1.101-0.101
		c-0.733-0.166-1.283-0.399-1.649-0.699c-0.1,0.3-0.2,0.566-0.3,0.8c-0.033-0.033-0.066-0.05-0.1-0.05
		c-0.233-0.101-0.383-0.284-0.45-0.551c0-0.3-0.017-0.55-0.05-0.75c-0.133,0.233-0.216,0.4-0.25,0.5
		c-0.1,0.2-0.216,0.317-0.35,0.351c-0.034-0.066-0.05-0.134-0.05-0.2c-0.1,0.066-0.183,0.134-0.25,0.2c-0.333-0.066-0.467-0.4-0.4-1
		c-0.067,0.267-0.2,0.366-0.4,0.3c-0.067,0-0.133-0.017-0.2-0.05c0.067-0.233,0.15-0.483,0.25-0.75
		c-0.167,0.166-0.333,0.267-0.5,0.3c-0.033-0.167,0.017-0.35,0.15-0.55c0.1-0.133,0.267-0.333,0.5-0.6c-0.4,0.1-0.75,0.15-1.05,0.15
		c0-0.4-0.033-0.733-0.1-1l0.45-0.95c-0.167,0.2-0.367,0.3-0.6,0.3c-0.267,0-0.483-0.1-0.65-0.3c-0.4,0.333-0.8,0.483-1.2,0.45
		c0.033,0.333,0.167,0.867,0.4,1.6C19.05,14.381,19.067,14.415,19.1,14.45z M32.1,2.9c-0.433-0.066-0.683,0.083-0.75,0.45
		c0.067-0.434,0.367-0.583,0.9-0.45c0.063,0.031,0.121,0.064,0.175,0.1C32.305,2.933,32.196,2.9,32.1,2.9z M36.2,13.3
		c0-0.5-0.017-0.85-0.05-1.05c-0.034-0.167-0.067-0.317-0.101-0.45c0.101-0.066,0.184-0.15,0.25-0.25
		c-0.066,0.6,0.217,0.733,0.851,0.4c0.666-0.333,1.05-0.7,1.149-1.1l0.2-1.25c0.033-0.033,0.05-0.067,0.05-0.1
		c0.033,0,0.066,0,0.101,0c0-0.067,0.017-0.133,0.05-0.2c0.033-0.1,0.017-0.216-0.05-0.35v-0.1L38.5,7.1
		c-0.467,0-1.017,0.083-1.65,0.25c-0.899,0.2-1.316,0.483-1.25,0.85c-0.666,0.066-1.05,0.466-1.149,1.2
		c-0.033,0.167-0.033,0.317,0,0.45c-0.267-0.067-0.533-0.05-0.8,0.05c-0.034-0.233-0.117-0.45-0.25-0.65l0.5-0.7l0.199-0.4
		c0.267-0.6,0.367-1.383,0.301-2.35c0.1,0.067,0.183,0.15,0.25,0.25C34.816,6.283,34.8,7.1,34.6,8.5
		c0.101-0.367,0.334-0.783,0.7-1.25c0.601-0.7,1.101-0.833,1.5-0.4c0.066,0.066,0.117,0.183,0.15,0.35
		c0.366-0.667,1.166-0.75,2.399-0.25c-0.066,0.1-0.066,0.2,0,0.3c0,0.067,0.051,0.3,0.15,0.7c0.033,0.133,0.05,0.783,0.05,1.95
		c0.467,0.067,0.667,0.3,0.601,0.7c-0.034,0.433-0.284,0.667-0.75,0.7c0.199,0.267,0.183,0.483-0.051,0.65
		c-0.199,0.133-0.449,0.167-0.75,0.1c0.233,0.133,0.767,0.317,1.601,0.55c0.666,0.267,0.95,0.667,0.85,1.2
		c-0.033,0.333-0.267,0.534-0.7,0.6c0.301,0.133,0.517,0.383,0.65,0.75c0.167,0.399,0.134,0.716-0.1,0.949
		c-0.2,0.233-0.667,0.25-1.4,0.051c-0.733-0.167-1.167-0.45-1.3-0.851c0.033,0.7,0.05,1.134,0.05,1.3c0,0.167-0.017,0.301-0.05,0.4
		l-0.851,0.45c-0.199-0.033-0.35-0.2-0.449-0.5c0,0.3-0.017,0.566-0.051,0.8l-0.199,0.1c0.033,0.034,0.083,0.084,0.149,0.15
		c-0.166,0.434-0.434,0.7-0.8,0.8c-0.667,0.167-1.167-0.05-1.5-0.649c-0.267-0.467-0.384-1.051-0.35-1.75
		c-0.067,0.6-0.217,1.1-0.45,1.5c-0.334,0.566-0.733,0.733-1.2,0.5c-0.064-0.42-0.006-0.937,0.175-1.551
		c-0.364,1.13-0.956,1.597-1.774,1.4c-0.034-0.1-0.051-0.2-0.051-0.3c0-0.066,0-0.134,0-0.2c0-0.2,0.034-0.417,0.101-0.65
		c0.366-0.433,0.616-0.916,0.75-1.449V15.6c0.3-0.466,0.684-1.083,1.149-1.85c-0.1,0.067-0.199,0.117-0.3,0.15
		c0.233-0.267,0.467-0.433,0.7-0.5c0.233-0.1,0.55-0.066,0.95,0.1c0.233,0.067,0.416,0.167,0.55,0.3c-0.033,0.1-0.033,0.2,0,0.3
		h-0.1c-0.301-0.067-0.634-0.05-1,0.05C33.184,14.317,33,14.567,33.1,14.9c0.101,0.267,0.4,0.333,0.9,0.2
		c0.366-0.1,0.7-0.233,1-0.399c-0.1,0.533-0.1,0.866,0,1c0.066,0.1,0.2,0.184,0.4,0.25c0.133,1.133,0.283,1.883,0.449,2.25
		c0.134-0.733,0.233-1.483,0.301-2.25c0.399-0.033,0.699-0.134,0.899-0.3c0.3-0.233,0.384-0.567,0.25-1
		c0.101,0.167,0.25,0.267,0.45,0.3c0.1,0.1,0.25,0.184,0.45,0.25c1.033,0.333,1.399-0.117,1.1-1.35h-0.6
		c-0.066-0.067-0.134-0.117-0.2-0.15c-0.3-0.233-0.65-0.317-1.05-0.25l-0.8,0.25c-0.101-0.034-0.233-0.15-0.4-0.35L36.2,13.3z
		 M42.4,12.6h-0.2l0.1-0.05L42.4,12.6z M33.6,23.95c-0.133-0.3-0.233-0.533-0.3-0.7c0.033,0.066,0.084,0.134,0.15,0.2
		C33.483,23.616,33.533,23.783,33.6,23.95z M34.5,21.75l-0.05-0.15h0.05V21.75z M22.3,5.5c0.567,0.1,0.967,0.133,1.2,0.1
		c0.4-0.033,0.717-0.2,0.95-0.5c0.267-0.434,0.333-0.9,0.2-1.4c-0.167-0.5-0.5-0.784-1-0.85l-1,1.35C22.417,4.667,22.3,5.1,22.3,5.5
		z M25.2,9c-0.033,0-0.066,0-0.101,0c0.034-0.033,0.051-0.067,0.051-0.1L25.2,9z M24.35,12.25c-0.4,0-0.767,0.083-1.1,0.25
		c-0.467,0.233-0.6,0.55-0.4,0.95c0.233,0.4,0.65,0.417,1.25,0.05c0.566-0.4,0.816-0.817,0.75-1.25H24.35z M26,11.9
		c-0.134,0.167-0.2,0.35-0.2,0.55c0,0.233,0.084,0.383,0.25,0.45c0.267,0.1,0.417-0.05,0.45-0.45c0-0.467,0-0.75,0-0.85L26,11.9z
		 M12.75,11c-0.067,0-0.133,0.017-0.2,0.05c0.034-0.033,0.067-0.066,0.1-0.1C12.683,10.95,12.717,10.967,12.75,11z M7.1,17.7
		L7.15,17.6h0.1L7.1,17.7z M13.5,17.6c0.067-0.1,0.117-0.233,0.15-0.399l-1-0.65l-0.5,0.7V17.2c-0.033-0.134-0.05-0.233-0.05-0.3
		l-0.2-2.45c0-0.467,0.017-0.867,0.05-1.2c0.133,0.033,0.333,0.05,0.6,0.05c0.367-0.033,0.717-0.117,1.05-0.25
		c-0.533,0.7-0.617,1.2-0.25,1.5c0.2,0.133,0.417,0.167,0.65,0.1c0.3-0.1,0.467-0.267,0.5-0.5c-0.1,1.3,0.2,1.9,0.9,1.8
		c0.434-0.033,0.684-0.351,0.75-0.95c0-0.167,0-0.333,0-0.5l0.35,0.3c0.767,1.101,1.45,1.983,2.05,2.65
		c-0.066,0.133-0.15,0.233-0.25,0.3c-0.367,0.233-0.7,0.033-1-0.6c0.034,0.566,0.017,0.949-0.05,1.149
		c-0.133,0.367-0.433,0.434-0.9,0.2c-0.033-0.134-0.05-0.267-0.05-0.4C16.2,18.4,16,18.667,15.7,18.9
		c-0.4,0.267-0.767,0.333-1.1,0.199c-0.3-0.166-0.45-0.449-0.45-0.85c0-0.6-0.033-0.967-0.1-1.1
		C13.85,17.316,13.667,17.467,13.5,17.6z M12.3,18c0.167,0.033,0.35,0.033,0.55,0c-0.167,0.066-0.333,0.116-0.5,0.15
		C12.35,18.083,12.333,18.033,12.3,18z"/>
	<path style="fill-rule:evenodd;clip-rule:evenodd;fill:#585D3B;" d="M6.95,15.75c-0.034-0.267-0.083-0.5-0.15-0.7
		c-0.033-0.167-0.066-0.316-0.1-0.45v-0.05c-0.167-0.533-0.317-0.95-0.45-1.25c-0.233-0.733-0.533-1.25-0.9-1.55
		c-0.3-0.267-0.684-0.383-1.15-0.35c-0.6,0.067-1,0.2-1.2,0.4c0-0.133,0-0.3,0-0.5c-0.033-0.466,0.033-0.783,0.2-0.95
		c0.233-0.233,0.733-0.3,1.5-0.2c0.7,0.067,1.183,0.2,1.45,0.4c0.533,0.4,0.983,0.95,1.35,1.65c0.2,0.4,0.483,1.05,0.85,1.95
		c0.167,0.333,0.3,0.667,0.4,1C8.917,15.717,9,16.3,9,16.9L8.25,16.85C8.217,16.483,8.167,16.2,8.1,16c-0.1-0.3-0.367-0.767-0.8-1.4
		c-0.2-0.3-0.367-0.567-0.5-0.8c0.1,0.4,0.15,0.934,0.15,1.601C6.95,15.467,6.95,15.583,6.95,15.75z M11.7,16.2l0.15,2.1
		c0-0.233,0-0.45,0-0.649c0.133,0.166,0.283,0.283,0.45,0.35c0.034,0.033,0.05,0.083,0.05,0.15c0.167-0.034,0.333-0.084,0.5-0.15
		c0-0.033,0.017-0.05,0.05-0.05c0.233-0.066,0.434-0.184,0.6-0.351c0.167-0.133,0.35-0.283,0.55-0.449c0.067,0.133,0.1,0.5,0.1,1.1
		c0,0.4,0.15,0.684,0.45,0.85c0.333,0.134,0.7,0.067,1.1-0.199c0.3-0.233,0.5-0.5,0.6-0.801c0,0.134,0.017,0.267,0.05,0.4
		c0.467,0.233,0.767,0.167,0.9-0.2c0.067-0.2,0.083-0.583,0.05-1.149c0.3,0.633,0.633,0.833,1,0.6c0.1-0.066,0.184-0.167,0.25-0.3
		c-0.6-0.667-1.283-1.55-2.05-2.65l0.6,0.5c0.233,0.167,0.433,0.334,0.6,0.5c0.066,0.066,0.15,0.134,0.25,0.2
		c0.033,0.033,0.066,0.05,0.1,0.05c0,0.033,0.017,0.066,0.05,0.101l1.25,1.55c0,0.033,0.017,0.083,0.05,0.149
		c0.067,0.2,0.133,0.4,0.2,0.601c-0.133,0.033-0.267,0.083-0.4,0.149c-0.3,0.101-0.583,0.15-0.85,0.15
		c0.066,0.434-0.184,0.733-0.75,0.9c-0.533,0.166-0.9,0.066-1.1-0.301c0.033,0.634-0.183,1.017-0.65,1.15
		c-0.6,0.033-1.083,0.066-1.45,0.1c0.267,0.4,0.233,0.65-0.1,0.75c-0.133,0-0.25,0.017-0.35,0.051c0-0.067,0-0.117,0-0.15
		c-0.034,0.066-0.083,0.116-0.15,0.15c-0.167,0-0.3,0.017-0.4,0.05l0.05,0.05c-0.267,0.033-0.534-0.017-0.8-0.15l0.05-0.199
		l-0.1,0.199c-0.367-0.199-0.567-0.483-0.6-0.85c0.033,0.667-0.017,1.2-0.15,1.6c-0.167,0.534-0.434,0.384-0.8-0.449
		C10.817,22.85,10.4,23.333,9.8,23.1c-0.233-0.166-0.333-0.466-0.3-0.899c-0.033,0.166-0.15,0.316-0.35,0.45
		c-0.1-0.601-0.133-0.95-0.1-1.051c0-0.333,0.1-0.6,0.3-0.8C9.183,20.9,8.917,20.967,8.55,21c-0.5,0.033-0.85,0-1.05-0.1
		C7.033,20.6,7,20.25,7.4,19.85c0.2-0.233,0.517-0.533,0.95-0.899c-0.434,0-0.75-0.017-0.95-0.05c-0.333-0.034-0.517-0.2-0.55-0.5
		c-0.033-0.2,0.05-0.434,0.25-0.7L7.25,17.6h-0.1c0.033-0.033,0.067-0.066,0.1-0.1l0.2,1.3L8.2,18.65c0.033-0.7,0.05-1.267,0.05-1.7
		c0.1,0.1,0.35,0.133,0.75,0.1C9,17.283,8.95,17.6,8.85,18c-0.133,0.4-0.2,0.7-0.2,0.9C9.183,19.333,9.833,19.3,10.6,18.8
		c0.267-0.166,0.533-0.366,0.8-0.6c-0.6-1.233-1.05-2.217-1.35-2.95c-0.267-0.633-0.483-1.233-0.65-1.8
		c-0.367-1.167-0.55-2.217-0.55-3.15C8.817,9.667,8.967,9.05,9.3,8.45c0.133-0.233,0.5-0.767,1.1-1.6
		c0.333-0.434,0.583-0.7,0.75-0.8c0.2-0.1,0.45-0.066,0.75,0.1c-0.033-0.1-0.066-0.183-0.1-0.25c-0.1-0.467-0.267-0.783-0.5-0.95
		c-0.4-0.3-1.167-0.367-2.3-0.2C8.633,4.817,8.317,5,8.05,5.3c-0.233,0.3-0.367,0.65-0.4,1.05C7.583,5.383,7.6,4.667,7.7,4.2
		c0.133-0.534,0.417-0.85,0.85-0.95c0.034,0,0.5,0,1.4,0c0.566,0,0.983,0.067,1.25,0.2c0.267,0.133,0.583,0.417,0.95,0.85
		c0.233,0.267,0.567,0.733,1,1.4c0.167,0.2,0.333,0.383,0.5,0.55c0.267,0.2,0.55,0.317,0.85,0.35l0.15,0.8
		c-0.367,0.2-0.683,0.317-0.95,0.35c-0.034,0-0.067,0-0.1,0V7.8c-0.1-0.2-0.233-0.433-0.4-0.7c-0.633-0.633-1.083-1.15-1.35-1.55
		c-0.033,0.2,0.05,0.517,0.25,0.95c0.167,0.467,0.333,0.733,0.5,0.8l1.35,1c-0.034-0.033-0.133-0.183-0.3-0.45
		c0.333,0.367,0.684,0.783,1.05,1.25c0.033,0.033,0.066,0.083,0.1,0.15c1.167,1.233,2.217,2.467,3.15,3.7
		c0.033,0.066,0.083,0.15,0.15,0.25c-0.2-0.233-0.417-0.467-0.65-0.7c0-0.033-0.017-0.05-0.05-0.05c-0.1-0.133-0.217-0.267-0.35-0.4
		c-0.1-0.133-0.25-0.283-0.45-0.45c-0.367-0.434-0.633-0.817-0.8-1.15c0.034,0.167,0.1,0.383,0.2,0.65
		c-0.367-0.333-0.817-0.684-1.35-1.05c-0.5-0.433-0.917-0.75-1.25-0.95c-0.533-0.367-1.017-0.517-1.45-0.45
		c-0.633,0.1-1.017,0.65-1.15,1.65c-0.066,0.7-0.017,1.45,0.15,2.25c0,0.034,0.05,0.467,0.15,1.3l0.45,1.35
		c0.067,0.399,0.117,0.983,0.15,1.75V16.2z M29.6,8.4V8.25c0.5-0.3,0.667-0.617,0.5-0.95c-0.133-0.367-0.566-0.55-1.3-0.55
		c1.634-0.333,2.2-0.817,1.7-1.45c-0.167-0.233-0.583-0.383-1.25-0.45c-0.833-0.1-1.3-0.167-1.4-0.2c0.9-0.533,1.301-1.066,1.2-1.6
		c-0.066-0.4-0.383-0.617-0.95-0.65c-0.666-0.033-1.05-0.133-1.149-0.3c0.133-0.133,0.5-0.2,1.1-0.2c0.566,0,1.45-0.017,2.65-0.05
		L31.35,2.2v1.15c0.067-0.367,0.317-0.517,0.75-0.45C32.2,3,32.283,3.183,32.35,3.45c0,0.367-0.133,0.583-0.399,0.65
		c0.5,0.333,0.633,0.75,0.399,1.25C32.184,5.75,31.866,6,31.4,6.1c0.5-0.033,0.816,0.233,0.949,0.8C32.517,7.5,32.45,8,32.15,8.4
		L32,7.6c0,0.667-0.033,1.05-0.1,1.15C31.8,8.95,31.434,9.067,30.8,9.1c0.434,0.533,0.55,0.867,0.351,1
		c-0.034,0.033-0.434,0.1-1.2,0.2L30,9.75c0.066,0.033,0.233,0.033,0.5,0c0.066-0.5,0.033-0.85-0.1-1.05C30.267,8.5,30,8.4,29.6,8.4
		z M34.8,22.55l-0.3-0.8V21.6h-0.05L34.35,20.7L34.3,21.6c-0.233-0.033-0.383-0.066-0.45-0.1c-0.133-0.066-0.216-0.167-0.25-0.3
		c-0.066,0.166-0.166,0.283-0.3,0.35c-0.2,0.066-0.366,0.033-0.5-0.1c0.033,0.233,0.05,0.517,0.05,0.85
		c0,0.267-0.133,0.467-0.399,0.601c-0.2,0.1-0.467,0.133-0.8,0.1c-0.334-0.033-0.551-0.15-0.65-0.35c0.066,0.333-0.1,0.616-0.5,0.85
		c-0.333,0.233-0.5,0.167-0.5-0.2c-0.033,0.5-0.517,0.7-1.45,0.601c-0.066-0.101-0.184-0.184-0.35-0.25l-0.55,0.05
		c-0.301,0.166-0.584,0.116-0.851-0.15c0.233-0.366,0.717-0.767,1.45-1.2c0.6-0.333,1.167-0.6,1.7-0.8c-0.8,0.134-1.033-0.2-0.7-1
		c0.333-0.767,0.55-1.3,0.65-1.6c0.399,0.6,0.683,1.25,0.85,1.95c0.066,0.633,0.134,1.017,0.2,1.149c0.1-0.399,0.133-0.983,0.1-1.75
		c0.167,0.2,0.3,0.316,0.4,0.351c0-0.5-0.15-1-0.45-1.5c-0.033-0.301-0.066-0.601-0.1-0.9c0.818,0.196,1.41-0.271,1.774-1.4
		c-0.181,0.614-0.239,1.131-0.175,1.551c0.467,0.233,0.866,0.066,1.2-0.5c0.233-0.4,0.383-0.9,0.45-1.5
		c-0.034,0.699,0.083,1.283,0.35,1.75c0.333,0.6,0.833,0.816,1.5,0.649c0.366-0.1,0.634-0.366,0.8-0.8
		c0.667,0.7,1.2,0.85,1.601,0.45c0.366-0.334,0.566-0.967,0.6-1.9L38.2,17c0.033-0.1,0.05-0.233,0.05-0.4
		c0-0.166-0.017-0.6-0.05-1.3c0.133,0.4,0.566,0.684,1.3,0.851c0.733,0.199,1.2,0.183,1.4-0.051c0.233-0.233,0.267-0.55,0.1-0.949
		c-0.134-0.367-0.35-0.617-0.65-0.75c0.434-0.066,0.667-0.267,0.7-0.6c0.101-0.533-0.184-0.933-0.85-1.2
		c-0.834-0.233-1.367-0.417-1.601-0.55c0.301,0.067,0.551,0.034,0.75-0.1c0.233-0.167,0.25-0.383,0.051-0.65
		c0.466-0.033,0.716-0.267,0.75-0.7c0.066-0.4-0.134-0.633-0.601-0.7c0-1.167-0.017-1.816-0.05-1.95c-0.1-0.4-0.15-0.633-0.15-0.7
		c-0.066-0.1-0.066-0.2,0-0.3V6.9l0.5,0.25c1.733,0.833,2.5,2.184,2.301,4.05c0.1-0.267,0.433-0.4,1-0.4
		c0.066,0.233,0.066,0.45,0,0.65c-0.967,0.233-1.25,0.6-0.851,1.1l-0.1,0.05h0.2c0.199,0.2,0.533,0.3,1,0.3l0.149,0.05
		c0.2,0.167,0.283,0.417,0.25,0.75c-0.033,0.233-0.2,0.483-0.5,0.75C43.033,14.683,42.9,14.9,42.9,15.1
		c0.3,0.067,0.5,0.267,0.6,0.601c0.134,0.3,0.134,0.583,0,0.85c-0.1,0.3-0.366,0.467-0.8,0.5c-0.533,0.033-0.867,0.101-1,0.2
		c0.333,0.6,0.267,1-0.2,1.2c-0.434,0.166-0.917,0.166-1.45,0c0.134,0.533,0.184,0.983,0.15,1.35c-0.066,0.367-0.25,0.584-0.55,0.65
		c-0.367,0.1-0.617,0.217-0.75,0.35c-0.134,0.167-0.267,0.483-0.4,0.95c-0.033,0.3-0.316,0.467-0.85,0.5
		c-0.567,0.1-0.9,0.017-1-0.25c-0.134,0.467-0.617,0.667-1.45,0.6L34.8,22.55z M28.2,15.35c-0.033-0.566-0.033-0.983,0-1.25
		l0.45-0.05c0.1-0.433,0.1-0.733,0-0.9c0.3,0.2,0.517,0.133,0.649-0.2c0.167-0.333,0.217-0.733,0.15-1.2
		c0.399-0.033,0.633-0.133,0.7-0.3c0.066-0.1,0.05-0.3-0.051-0.6c0.233,0.066,0.367,0.267,0.4,0.6c0.066,0.3,0.05,0.6-0.05,0.9
		c-0.134,0.3-0.351,0.5-0.65,0.6c0.233,0.133,0.4,0.283,0.5,0.45c-0.066,0.267-0.1,0.55-0.1,0.85c-0.167,0.267-0.467,0.383-0.9,0.35
		c0.134,0.1,0.316,0.2,0.55,0.3c0.034,0.033,0.084,0.067,0.15,0.1l-0.05,0.2c-0.233-0.134-0.5-0.184-0.8-0.15
		C28.783,15.116,28.467,15.217,28.2,15.35z M26.1,21l-0.05,0.05c-0.066-0.267-0.083-0.5-0.05-0.7c-0.9,1.301-1.617,1.767-2.15,1.4
		c-0.233-0.167-0.283-0.45-0.15-0.85c0.566-0.034,0.917-0.301,1.05-0.801c0.1-0.333,0.183-0.616,0.25-0.85
		c-0.233,0.033-0.5,0.017-0.8-0.05c-0.034-0.101,0.033-0.351,0.2-0.75c-0.633,0-1.1-0.017-1.4-0.05
		c-0.067-0.301,0.217-0.65,0.85-1.051l0.65-0.399c-0.233,0.066-0.433,0.066-0.6,0c0.1-0.233,0.2-0.5,0.3-0.8
		c0.367,0.3,0.916,0.533,1.649,0.699c0.434,0.067,0.801,0.101,1.101,0.101c-0.033,0.1-0.066,0.217-0.101,0.35
		c-0.166,0.634-0.366,1.617-0.6,2.95C26.184,20.55,26.134,20.8,26.1,21z M27.7,20.8c-0.134-0.166-0.184-0.434-0.15-0.8
		c0-0.366,0.05-0.684,0.15-0.95c0.233-0.6,0.649-0.85,1.25-0.75c0,0.033,0,0.066,0,0.101C28.983,19.167,29,19.566,29,19.6
		c0,0.167-0.017,0.367-0.05,0.601c-0.066,0.133-0.217,0.217-0.45,0.25c-0.333,0.066-0.566-0.084-0.7-0.45
		C27.9,20.333,27.866,20.6,27.7,20.8z M29.2,18.35c0.133,0,0.3,0.084,0.5,0.25l-0.5-0.05V18.35z M20.65,13.25
		c0.067,0.267,0.1,0.6,0.1,1c-0.167,0-0.3,0-0.4,0C20.317,14.017,20.417,13.683,20.65,13.25z M22.4,16.45
		c0.067-0.066,0.15-0.134,0.25-0.2c0,0.066,0.017,0.134,0.05,0.2h-0.05C22.55,16.483,22.467,16.483,22.4,16.45z M21.4,15.7
		c-0.1-0.066-0.183-0.167-0.25-0.3c0-0.067,0-0.117,0-0.15c0.167-0.033,0.333-0.134,0.5-0.3C21.55,15.217,21.467,15.467,21.4,15.7z
		 M25,19.25h0.05c0.334-0.1,0.417-0.3,0.25-0.6C25.233,18.717,25.134,18.917,25,19.25z M36.85,17.75
		c0.034-0.233,0.051-0.5,0.051-0.8c0.1,0.3,0.25,0.467,0.449,0.5L36.85,17.75z M30.95,17.1c-0.066,0.233-0.101,0.45-0.101,0.65
		c-0.066-0.167-0.1-0.3-0.1-0.4V17.3C30.816,17.233,30.884,17.167,30.95,17.1z M31.7,15.6c0.066-0.333,0.133-0.633,0.2-0.899
		c0.233-0.333,0.449-0.6,0.649-0.8c0.101-0.033,0.2-0.083,0.3-0.15C32.384,14.517,32,15.134,31.7,15.6z M34,19.2l-0.35-1
		c-0.5,0.467-0.634,0.934-0.4,1.399c0.233,0.067,0.4,0.051,0.5-0.05C33.816,19.483,33.9,19.366,34,19.2z M6.9,16.55
		c0,0.134,0.033,0.25,0.1,0.351c-0.067,0-0.117,0-0.15,0V16.8L6.9,16.55z M18.7,13.95c0.066,0.066,0.133,0.15,0.2,0.25
		c0.064,0.097,0.131,0.18,0.2,0.25v0.05c0.3,0.467,0.433,0.833,0.4,1.1l-0.05,0.15c-0.033-0.064-0.066-0.114-0.1-0.15v-0.1
		c-0.133-0.533-0.267-0.9-0.4-1.1C18.883,14.267,18.8,14.117,18.7,13.95z M19.75,18.35c0-0.066,0-0.116,0-0.149
		c0.033,0.033,0.067,0.066,0.1,0.1C19.817,18.333,19.783,18.35,19.75,18.35z M11.85,17.65c0-1.301,0.017-2.367,0.05-3.2l0.2,2.45
		c0,0.066,0.017,0.166,0.05,0.3v0.05L11.85,17.65z M18.55,21.35c0.133-0.3,0.367-0.449,0.7-0.449c0.3-0.034,0.533,0.083,0.7,0.35
		c0.033,0.066,0.083,0.134,0.15,0.2c-0.167,0-0.3,0-0.4,0c-0.034,0.166-0.05,0.416-0.05,0.75c-0.033,0.3-0.167,0.517-0.4,0.649
		c-0.167,0.134-0.467,0.184-0.9,0.15c-0.367-0.033-0.65-0.1-0.85-0.2c0.133,0.601-0.1,1.066-0.7,1.4
		c-0.566,0.333-1.133,0.399-1.7,0.2c0.066-0.367,0.2-0.733,0.4-1.101l-0.25-0.05c-0.4-0.1-0.483-0.366-0.25-0.8
		c0.1-0.101,0.2-0.184,0.3-0.25c0.6-0.4,1.117-0.467,1.55-0.2c-0.1-0.5,0.033-0.884,0.4-1.15c0.333-0.267,0.75-0.35,1.25-0.25
		L18.55,21.35z M15.5,23.3c0.333,0.033,0.6-0.033,0.8-0.2c0.233-0.166,0.284-0.416,0.15-0.75C16.083,22.55,15.767,22.866,15.5,23.3z
		"/>
	<path style="fill-rule:evenodd;clip-rule:evenodd;fill:#848958;" d="M18.1,13.2c-0.067-0.1-0.117-0.184-0.15-0.25
		c-0.934-1.233-1.983-2.467-3.15-3.7l0.8-0.55c-0.767-0.067-1.15-0.267-1.15-0.6c0-0.434,0.5-0.6,1.5-0.5
		c-0.367-0.167-0.434-0.4-0.2-0.7c-0.7-0.4-1.083-0.65-1.15-0.75l0.2,0.05c-0.066-0.133-0.1-0.284-0.1-0.45
		c-0.034-0.033-0.05-0.067-0.05-0.1s0-0.066,0-0.1c0.833-0.066,1.517-0.017,2.05,0.15c-0.067-0.2-0.034-0.383,0.1-0.55l0.85,0.25
		l-0.5-1c0.067-0.3,0.25-0.6,0.55-0.9c0.367-0.333,0.667-0.417,0.9-0.25s0.183,0.767-0.15,1.8c1.2-0.5,1.833-0.433,1.9,0.2
		c0.033,0.333-0.133,0.683-0.5,1.05c-0.467,0.333-0.767,0.583-0.9,0.75c0.3,0.067,0.767,0.083,1.4,0.05c0,1.267-0.367,1.667-1.1,1.2
		c0.1,0.3,0.117,0.784,0.05,1.45c-0.2,0.033-0.35,0.033-0.45,0c0.2,1.067,0.283,1.733,0.25,2c0,0.767-0.367,0.833-1.1,0.2
		C18.067,12.417,18.1,12.833,18.1,13.2z M34.75,13.8c0.1,0.067,0.184,0.133,0.25,0.2c0.066,0.233,0.15,0.483,0.25,0.75
		c0,0.067,0,0.133,0,0.2c0,0.066,0.017,0.133,0.05,0.2c0,0.133,0.017,0.283,0.05,0.449c0,0.101,0.017,0.217,0.051,0.351
		c-0.2-0.066-0.334-0.15-0.4-0.25c-0.1-0.134-0.1-0.467,0-1c-0.3,0.167-0.634,0.3-1,0.399c-0.5,0.134-0.8,0.067-0.9-0.2
		c-0.1-0.333,0.084-0.583,0.551-0.75c0.366-0.1,0.699-0.117,1-0.05h0.1C34.717,14,34.717,13.9,34.75,13.8z M36.15,15.95
		c0.033-0.566,0.05-1.133,0.05-1.7c0-0.367,0-0.683,0-0.95l0.05,0.05c0.167,0.2,0.3,0.316,0.4,0.35l0.8-0.25
		c0.399-0.067,0.75,0.017,1.05,0.25c0.066,0.033,0.134,0.083,0.2,0.15h-0.4c-0.5,0.233-0.733,0.5-0.7,0.8c0,0.1,0.051,0.2,0.15,0.3
		c-0.2-0.034-0.35-0.133-0.45-0.3c0.134,0.433,0.05,0.767-0.25,1C36.85,15.816,36.55,15.917,36.15,15.95z M38.55,9.5
		c0,0.033-0.017,0.067-0.05,0.1l-0.2,1.25c-0.1,0.4-0.483,0.767-1.149,1.1c-0.634,0.333-0.917,0.2-0.851-0.4
		c-0.066,0.1-0.149,0.184-0.25,0.25c-0.133-0.5-0.35-0.95-0.649-1.35c-0.267-0.367-0.584-0.567-0.95-0.6
		c-0.033-0.133-0.033-0.283,0-0.45c0.1-0.733,0.483-1.133,1.149-1.2c-0.066-0.367,0.351-0.65,1.25-0.85
		c0.634-0.167,1.184-0.25,1.65-0.25l0.15,1.75L36,8.55c-0.134,0.633,0.167,0.983,0.9,1.05C37.167,9.633,37.717,9.6,38.55,9.5z
		 M27.85,6.6c-0.466-0.1-0.866-0.117-1.199-0.05H25.3C24.967,7.583,25.366,8.067,26.5,8s1.634-0.517,1.5-1.35l1.35,0.25
		c0.167,0.333,0.25,0.783,0.25,1.35V8.4c0,0.367-0.066,0.6-0.199,0.7c-0.2,0.133-0.467,0.117-0.801-0.05
		c-0.333-0.167-0.533-0.367-0.6-0.6c-0.066,1.367-0.517,2.033-1.35,2c-0.267,0-0.5-0.067-0.7-0.2c0.1-0.033,0.2-0.067,0.3-0.1
		c0.033-0.167,0.05-0.7,0.05-1.6L26,8.85C25.667,8.883,25.4,8.933,25.2,9l-0.05-0.1c0,0.033-0.017,0.067-0.051,0.1
		c-0.399,0.167-0.55,0.417-0.45,0.75c0.033,0.1,0.083,0.2,0.15,0.3c-0.033,0.1-0.066,0.2-0.1,0.3c-0.333,0.667-0.733,0.85-1.2,0.55
		c-0.367-0.267-0.35-0.85,0.05-1.75c-0.133,0.167-0.3,0.267-0.5,0.3c-0.233,0.033-0.417-0.034-0.55-0.2
		c-0.167-0.167-0.117-0.433,0.15-0.8c0.2-0.3,0.4-0.5,0.6-0.6c-0.6,0.233-0.933,0.183-1-0.15c-0.067-0.333,0.133-0.65,0.6-0.95
		c-0.434-0.367-0.367-0.617,0.2-0.75c0.3-0.067,0.717-0.1,1.25-0.1c0.034-0.3,0.2-0.417,0.5-0.35c0.3,0.067,0.483,0.233,0.55,0.5
		c0-0.566,0.034-0.9,0.101-1C26.45,5.117,27.25,5.633,27.85,6.6z M24.35,12.25h0.5c0.066,0.433-0.184,0.85-0.75,1.25
		c-0.6,0.367-1.017,0.35-1.25-0.05c-0.2-0.4-0.067-0.717,0.4-0.95C23.583,12.333,23.95,12.25,24.35,12.25z M26,11.9l0.5-0.3
		c0,0.1,0,0.383,0,0.85c-0.033,0.4-0.184,0.55-0.45,0.45c-0.166-0.066-0.25-0.217-0.25-0.45C25.8,12.25,25.866,12.067,26,11.9z
		 M11.95,13.25c0-0.3,0.017-0.55,0.05-0.75c0.033-0.733,0.217-1.217,0.55-1.45c0.067-0.033,0.133-0.05,0.2-0.05
		c0.167,0.067,0.367,0.2,0.6,0.4c0.5,0.434,1.066,1.017,1.7,1.75c0.434,0.533,0.8,0.967,1.1,1.3c-0.6-0.6-1.033-0.95-1.3-1.05
		l1.3,1.1c0,0.167,0,0.333,0,0.5c-0.066,0.6-0.316,0.917-0.75,0.95c-0.7,0.1-1-0.5-0.9-1.8c-0.033,0.233-0.2,0.4-0.5,0.5
		c-0.233,0.067-0.45,0.033-0.65-0.1c-0.367-0.3-0.283-0.8,0.25-1.5c-0.333,0.133-0.684,0.217-1.05,0.25
		C12.283,13.3,12.083,13.283,11.95,13.25z M19.65,7.2h-2c-0.233,0.167-0.367,0.4-0.4,0.7c0.4,0.4,1.183,0.483,2.35,0.25
		C19.667,7.783,19.683,7.467,19.65,7.2z"/>
	<path style="fill-rule:evenodd;clip-rule:evenodd;fill:#939865;" d="M38.2,17l0.8-0.45c-0.033,0.934-0.233,1.566-0.6,1.9
		C38,18.85,37.467,18.7,36.8,18c-0.066-0.066-0.116-0.116-0.149-0.15l0.199-0.1l0.5-0.3L38.2,17z M24.8,10.05
		c-0.066-0.1-0.117-0.2-0.15-0.3C24.55,9.417,24.7,9.167,25.1,9c0.034,0,0.067,0,0.101,0c0.2-0.067,0.467-0.117,0.8-0.15l0.3-0.3
		c0,0.9-0.017,1.434-0.05,1.6c-0.1,0.033-0.2,0.067-0.3,0.1C25.384,10.35,25,10.283,24.8,10.05z M28,6.65
		c0.134,0.833-0.366,1.283-1.5,1.35s-1.533-0.417-1.2-1.45h1.351c0.333-0.066,0.733-0.05,1.199,0.05c0.034,0,0.084,0,0.15,0V6.65z
		 M38.55,9.5c-0.833,0.1-1.383,0.133-1.649,0.1c-0.733-0.067-1.034-0.417-0.9-1.05l2.65,0.3v0.1c0.066,0.133,0.083,0.25,0.05,0.35
		c-0.033,0.067-0.05,0.133-0.05,0.2C38.616,9.5,38.583,9.5,38.55,9.5z M22.3,5.5c0-0.4,0.117-0.833,0.35-1.3l1-1.35
		c0.5,0.066,0.833,0.35,1,0.85c0.133,0.5,0.067,0.966-0.2,1.4c-0.233,0.3-0.55,0.467-0.95,0.5C23.267,5.633,22.867,5.6,22.3,5.5z
		 M37.75,14.95c-0.1-0.1-0.15-0.2-0.15-0.3c-0.033-0.3,0.2-0.566,0.7-0.8h0.4h0.6c0.3,1.233-0.066,1.683-1.1,1.35
		C38,15.134,37.85,15.05,37.75,14.95z M34,19.2c-0.1,0.166-0.184,0.283-0.25,0.35c-0.1,0.101-0.267,0.117-0.5,0.05
		c-0.233-0.466-0.1-0.933,0.4-1.399L34,19.2z M19.65,7.2c0.033,0.267,0.017,0.583-0.05,0.95c-1.167,0.233-1.95,0.15-2.35-0.25
		c0.033-0.3,0.167-0.533,0.4-0.7H19.65z M12.85,18c-0.2,0.033-0.383,0.033-0.55,0c-0.167-0.066-0.316-0.184-0.45-0.35l0.3-0.4
		l0.5-0.7l1,0.65c-0.033,0.166-0.083,0.3-0.15,0.399c-0.167,0.167-0.367,0.284-0.6,0.351C12.867,17.95,12.85,17.967,12.85,18z"/>
</g>
</svg>
