<?xml version="1.0" encoding="iso-8859-1"?>
<!-- Generator: Adobe Illustrator 15.1.0, SVG Export Plug-In . SVG Version: 6.00 Build 0)  -->
<!DOCTYPE svg PUBLIC "-//W3C//DTD SVG 1.1//EN" "http://www.w3.org/Graphics/SVG/1.1/DTD/svg11.dtd">
<svg version="1.1" id="Layer_1" xmlns="http://www.w3.org/2000/svg" xmlns:xlink="http://www.w3.org/1999/xlink" x="0px" y="0px"
	 width="64.2px" height="29.7px" viewBox="0 0 64.2 29.7" style="enable-background:new 0 0 64.2 29.7;" xml:space="preserve">
<g>
	<path style="fill-rule:evenodd;clip-rule:evenodd;fill:#414428;" d="M5.85,26.2l1.1,0.05c1.233,0,2.25-0.267,3.05-0.8
		c0.9-0.601,1.367-1.5,1.4-2.7c0.2,0.8,0.75,1.184,1.65,1.15c0.367,0,1.117-0.167,2.25-0.5l0.5-0.45
		c0.133-0.033,0.3,0.017,0.5,0.149c0.9-0.199,2.217-0.183,3.95,0.051c-0.333,0.3-0.6,0.75-0.8,1.35c-0.267,0.667-0.3,1.167-0.1,1.5
		c0.267,0.434,1.05,0.634,2.35,0.6c1.3-0.033,2.017-0.316,2.15-0.85c-0.067,0.7-0.067,1.167,0,1.4c0.967,0.133,1.7,0.066,2.2-0.2
		c0.133-0.101,0.4-0.351,0.8-0.75c0.267-0.101,0.933-0.15,2-0.15c0.9-0.066,1.316-0.434,1.25-1.1c0.233-0.066,0.583-0.167,1.05-0.3
		c0.367-0.134,0.6-0.367,0.7-0.7c2.3,0.533,3.95,0.366,4.95-0.5c-0.166,1.2,0.65,1.767,2.45,1.7c1.8-0.067,2.667-0.584,2.6-1.551
		c0.167-0.066,0.667-0.083,1.5-0.05c0.867,0.033,1.5,0.017,1.9-0.05c0.833-0.167,1.184-0.566,1.05-1.2v-0.05
		c0.334-0.2,0.851-0.25,1.55-0.15c0.834,0.134,1.367,0.167,1.601,0.101c0.6-0.134,0.967-0.483,1.1-1.05
		c0.066-0.301,0.066-0.884,0-1.75c0.533,2.633,1.417,3.566,2.65,2.8c0.1-0.066,0.184-0.2,0.25-0.4s0.184-0.333,0.35-0.399
		c0.467,0.033,0.783,0,0.95-0.101l0.1-1.05c0.301-0.033,0.784-0.066,1.45-0.1c0.601-0.067,1.066-0.217,1.4-0.45
		c0.267-0.167,0.467-0.4,0.6-0.7c0.101,0.267,0.184,0.417,0.25,0.45c0.134,0.166,0.351,0.267,0.65,0.3
		c-0.066,0.333,0.033,0.934,0.3,1.8c1.9,0,2.9,0.834,3,2.5c0.4,0,0.967,0.2,1.7,0.601c-0.5,0.533-1.283,0.699-2.351,0.5
		c-1.533-0.267-2.383-0.4-2.55-0.4c-0.366,0.066-1.25,0.4-2.649,1c-1.034,0.467-1.967,0.583-2.801,0.35
		c0.067-0.233,0.051-0.55-0.05-0.949c-0.133-0.567-0.2-0.867-0.2-0.9c-0.1,0-0.933-0.316-2.5-0.95
		c-0.933-0.399-1.517,0.05-1.75,1.351c-0.1-0.067-0.35-0.184-0.75-0.351c-0.366-0.133-0.633-0.283-0.8-0.45
		c-0.3,0.167-0.5,0.417-0.6,0.75c-0.733-0.466-1.667-0.233-2.8,0.7c-1.101,0.934-2.084,1.066-2.95,0.4
		c-0.267,0.866-1.351,1.283-3.25,1.25c-1.4-0.033-2.717-0.233-3.95-0.601c-0.267,0.634-0.7,1.051-1.3,1.25
		c-0.601,0.233-1.184,0.15-1.75-0.25c-0.7,0.733-2.017,1.351-3.95,1.851c-1.833,0.467-3.3,0.6-4.4,0.399
		c0.033-0.199,0.017-0.5-0.05-0.899c-0.066-0.434-0.083-0.733-0.05-0.9c-0.6,0.5-1.25,0.8-1.95,0.9
		c-0.767,0.133-1.45-0.017-2.05-0.45l0.1-0.4c0.033-0.199,0.117-0.383,0.25-0.55l0.05-0.1c0.133-0.167,0.3-0.334,0.5-0.5
		c-0.333,0.033-0.633,0.033-0.9,0c-0.133-0.033-0.267-0.066-0.4-0.101c0.066-0.333,0-0.616-0.2-0.85c-1.4-0.267-3.05-0.134-4.95,0.4
		c-2.1,0.733-3.684,1.199-4.75,1.399l-0.5,0.101L5.85,26.3V26.2z"/>
	<path style="fill-rule:evenodd;clip-rule:evenodd;fill:#6D7247;" d="M6.5,18.25c0.267,0.366,0.45,0.9,0.55,1.6
		c0,0.034,0.017,0.084,0.05,0.15H7.05c-0.4-0.267-0.7-0.5-0.9-0.7L5.95,19c-0.133-0.267-0.05-0.467,0.25-0.6V18.35
		C6.267,18.316,6.367,18.283,6.5,18.25z M46.3,22.3c0.134,0.634-0.217,1.033-1.05,1.2c-1.934-0.033-3.233-0.967-3.9-2.8
		c0.034,0.333-0.05,0.666-0.25,1c-0.233,0.366-0.517,0.55-0.85,0.55c-0.667-0.033-0.884-0.717-0.65-2.05
		C38.7,21.1,37.616,21.4,36.35,21.1C36.283,20.934,36.4,20.467,36.7,19.7c-0.267,0.3-0.634,0.35-1.101,0.149L35.4,18.1
		c0-0.1,0.1-0.399,0.3-0.899c0.133-0.367,0.149-0.7,0.05-1l-0.4-0.05c0-1-0.116-1.767-0.35-2.3c-0.467-0.867-0.767-1.567-0.9-2.1
		L34,14.1c0,0.233-0.083,0.85-0.25,1.85c-0.134,0.833-0.184,1.434-0.15,1.8c0.034,0.167,0.15,0.6,0.351,1.3
		c0.133,0.5,0.166,0.934,0.1,1.3c-0.333,0.134-0.649,0.101-0.95-0.1c-0.066,0.4-0.083,1.017-0.05,1.85
		c-0.166,0.067-0.566,0.101-1.2,0.101c-0.033,0.366-0.083,0.85-0.15,1.45c-0.133,0.466-0.483,0.733-1.05,0.8
		c-0.767,0.133-1.4-0.084-1.9-0.65c-0.433-0.434-0.667-0.934-0.7-1.5c-0.066,0.467-0.3,0.867-0.7,1.2
		c-0.567,0.4-1.167,0.533-1.8,0.4c0.267-0.967,0.35-1.7,0.25-2.2c-0.5,0.366-1.183,0.616-2.05,0.75c-0.8,0.1-1.533,0.083-2.2-0.05
		c0.3-0.634,0.467-1.117,0.5-1.45c-0.966,0.434-1.667,0.649-2.1,0.649c-0.6-0.033-1.05-0.466-1.35-1.3
		c-0.6,0.634-1.333,1.017-2.2,1.15c-0.967,0.1-1.4-0.384-1.3-1.45c-0.1,0.5-0.667,1.05-1.7,1.65c-1.033,0.633-1.783,0.833-2.25,0.6
		c-0.3-0.167-0.483-0.316-0.55-0.45c-0.033-0.1-0.067-0.366-0.1-0.8c-0.333,0.267-0.65,0.5-0.95,0.7c-0.367-0.4-0.733-0.967-1.1-1.7
		L8.3,19.65l0.2-0.45c-0.1,0.1-0.2,0.184-0.3,0.25l-1.35-2.8C6.817,16.616,6.8,16.583,6.8,16.55c-0.033-0.233-0.017-0.483,0.05-0.75
		c0.1,0,0.383-0.05,0.85-0.149c0.4-0.101,0.716-0.117,0.95-0.051c0-0.899,0.184-1.516,0.55-1.85l0.05,0.05
		c0.4,0.233,1.083,0.317,2.05,0.25c0.567-0.033,1.317-0.083,2.25-0.15c0,0.033-0.316,0.5-0.95,1.4
		c-0.434,0.634-0.617,1.15-0.55,1.55c0.367,0.167,0.767,0.167,1.2,0c0.033,0.2,0.05,0.534,0.05,1c0.067,0.4,0.233,0.667,0.5,0.801
		c0.434,0.199,0.8,0.066,1.1-0.4c0.3-0.6,0.517-1,0.65-1.2c0.2,0.267,0.434,0.634,0.7,1.101c0.267,0.333,0.683,0.449,1.25,0.35
		c0.6-0.1,1.017-0.45,1.25-1.05c0.167-0.767,0.3-1.351,0.4-1.75c0.067,0.233,0.133,0.55,0.2,0.95c0.1,0.267,0.3,0.466,0.6,0.6
		c0.6,0.233,1.183-0.017,1.75-0.75c0.533-0.9,0.917-1.467,1.15-1.7c0.1,0.367,0.217,1.033,0.35,2c0.267,0.8,0.733,1.167,1.4,1.101
		c0.433-0.034,0.733-0.284,0.9-0.75c0.233-0.567,0.417-0.9,0.55-1c0.4-0.267,0.983-0.317,1.75-0.15c1.2,0.267,1.817,0.4,1.85,0.4
		c1.267,0.1,2.083-0.051,2.45-0.45c0.2-0.3,0.351-1.05,0.45-2.25c0.101-0.967,0.3-2.05,0.601-3.25L33.2,9.8l0.6-0.45
		c-0.033,0.167-0.033,0.35,0,0.55l-0.75,1.25c0.267-0.167,0.7-0.333,1.3-0.5c0.667-0.167,1.101-0.3,1.301-0.4
		c0.133-0.067,0.267-0.117,0.399-0.15c-0.066,0.467-0.033,0.816,0.101,1.05c0.767-0.1,1.183,0.133,1.25,0.7
		c0.1,1.133,0.166,1.717,0.199,1.75c0.2,0.433,0.5,0.717,0.9,0.85c0.434,0.1,0.783-0.067,1.05-0.5c0.167,0.5,0.566,0.9,1.2,1.2
		c0.5,0.233,1.434,0.383,2.8,0.449c1.533,0.101,2.434-0.05,2.7-0.449c0.233-0.333,0.233-1,0-2c-0.167-0.767-0.384-1.433-0.65-2
		c0.434,0,1.051,0.15,1.851,0.45L48,12.55c-0.434-0.033-0.75-0.083-0.95-0.15c0.101,0.633,0.417,1.3,0.95,2s1.134,1.267,1.8,1.7
		c-1.267-0.566-2.283-0.699-3.05-0.399c-0.066,0.434,0.083,1.017,0.45,1.75c0.399,0.733,0.583,1.283,0.55,1.649
		c-0.2-0.267-0.366-0.483-0.5-0.649c-0.2-0.233-0.4-0.4-0.6-0.5c-0.233,0.533-0.267,1.517-0.101,2.95
		c-0.333-0.034-0.633-0.233-0.899-0.601C45.95,20.866,46.167,21.533,46.3,22.3z M33.2,9.3V8.65c0.033-1.1,0.133-1.883,0.3-2.35
		c0.134,0.5,0.267,1.067,0.4,1.7c0,0.133,0.017,0.283,0.05,0.45C33.75,8.683,33.5,8.967,33.2,9.3z M35.65,7.5
		C34.85,7.9,34.3,8.333,34,8.8c-0.033-0.133-0.05-0.25-0.05-0.35c0.166-0.167,0.3-0.317,0.399-0.45
		c0.301-0.333,0.567-0.683,0.801-1.05C35.25,7.083,35.417,7.267,35.65,7.5z M53.45,12.1c-0.533,0.133-1.117,0.233-1.75,0.3
		c0.066-0.433-0.233-0.683-0.9-0.75c-0.633-0.066-0.866,0.167-0.7,0.7c-0.333-0.533-0.783-1.1-1.35-1.7
		c-0.866-0.867-1.434-1.117-1.7-0.75c-0.166,0.267-0.1,0.7,0.2,1.3c-0.2-0.233-0.733-0.767-1.6-1.6c-0.733-0.7-1.233-1.267-1.5-1.7
		c-0.067-0.233-0.134-0.367-0.2-0.4c-0.134-0.4-0.2-0.683-0.2-0.85c0.033-0.3,0.233-0.717,0.6-1.25c0.434,0.3,0.601,0.867,0.5,1.7
		c1.5,0.066,2.45,0.183,2.851,0.35c0.7,0.3,1.133,1.017,1.3,2.15c0.167-0.033,0.467-0.017,0.9,0.05c0.399,0.067,0.683,0.1,0.85,0.1
		c0,0.1,0.017,0.3,0.05,0.6c0.031,0.25,0.015,0.458-0.05,0.625c0.275-0.649,0.692-0.941,1.25-0.875c0.5,0.066,0.917,0.4,1.25,1
		C53.384,11.333,53.45,11.667,53.45,12.1z M7.65,22.2H7.6c0-0.031-0.017-0.064-0.05-0.101C7.585,22.136,7.619,22.169,7.65,22.2z"/>
	<path style="fill-rule:evenodd;clip-rule:evenodd;fill:#848958;" d="M19.15,27.2c0.1-0.134,0.233-0.283,0.4-0.45
		c-0.233,0.033-0.5,0.017-0.8-0.05c0.267,0.033,0.567,0.033,0.9,0C19.45,26.866,19.283,27.033,19.15,27.2z M7.95,27.65l0.5-0.101
		c-1,0.267-1.784,0.25-2.35-0.05C6.567,27.733,7.183,27.783,7.95,27.65z M5.85,26.2v0.1L5.7,27.2l0.15-1.05V26.2z M4.25,25.35
		c0.033-0.033,0.067-0.05,0.1-0.05l0.05,0.05c0.117,0.059,0.226,0.101,0.325,0.125C4.629,25.454,4.538,25.429,4.45,25.4
		C4.383,25.366,4.317,25.35,4.25,25.35z M33.2,9.3c-0.033,0.034-0.066,0.067-0.101,0.1c-0.466,0.467-0.733,0.8-0.8,1l0.9-0.6
		l-0.05,0.65c-0.301,1.2-0.5,2.283-0.601,3.25c-0.1,1.2-0.25,1.95-0.45,2.25c-0.366,0.399-1.183,0.55-2.45,0.45
		c-0.033,0-0.65-0.134-1.85-0.4c-0.767-0.167-1.35-0.116-1.75,0.15c-0.133,0.1-0.316,0.433-0.55,1
		c-0.167,0.466-0.467,0.716-0.9,0.75c-0.667,0.066-1.133-0.301-1.4-1.101c-0.133-0.967-0.25-1.633-0.35-2
		c-0.233,0.233-0.617,0.8-1.15,1.7c-0.567,0.733-1.15,0.983-1.75,0.75c-0.3-0.134-0.5-0.333-0.6-0.6
		c-0.067-0.4-0.133-0.717-0.2-0.95c-0.1,0.399-0.233,0.983-0.4,1.75c-0.233,0.6-0.65,0.95-1.25,1.05
		c-0.567,0.1-0.983-0.017-1.25-0.35c-0.267-0.467-0.5-0.834-0.7-1.101c-0.133,0.2-0.35,0.601-0.65,1.2c-0.3,0.467-0.667,0.6-1.1,0.4
		c-0.267-0.134-0.433-0.4-0.5-0.801c0-0.466-0.017-0.8-0.05-1c-0.433,0.167-0.833,0.167-1.2,0c-0.066-0.399,0.117-0.916,0.55-1.55
		c0.633-0.9,0.95-1.367,0.95-1.4c-0.933,0.067-1.683,0.117-2.25,0.15c-0.966,0.067-1.65-0.017-2.05-0.25
		c0.333-0.333,0.833-0.267,1.5,0.2c0.1-1.333,0.383-2.2,0.85-2.6c0.533-0.433,1.417-0.35,2.65,0.25
		c0.067-0.367,0.083-0.867,0.05-1.5c0-0.7,0.017-1.2,0.05-1.5c0.367,0.067,0.717,0.167,1.05,0.3c-0.1,0.267-0.133,0.517-0.1,0.75
		c1.133,0,1.983-0.034,2.55-0.1c-0.667,0.167-1.4,0.55-2.2,1.15c-0.9,0.667-1.333,1.283-1.3,1.85c0.167-0.033,0.483,0.017,0.95,0.15
		c0,0.133-0.066,0.483-0.2,1.05c-0.1,0.4-0.1,0.75,0,1.05c0.467,0.133,0.95,0.167,1.45,0.1c0.6-0.067,1.034-0.267,1.3-0.6
		c-0.067,0.167-0.067,0.35,0,0.55c0.867,0.2,1.45-0.117,1.75-0.95c-0.1,0.966-0.05,1.533,0.15,1.7c0.167,0.133,0.517,0.166,1.05,0.1
		c0.5-0.066,0.817-0.184,0.95-0.35c0.133-0.167,0.167-0.5,0.1-1c-0.1-0.5-0.117-0.833-0.05-1c0.034-0.167,0.15-0.35,0.35-0.55
		c0.233-0.233,0.383-0.417,0.45-0.55v0.8l0.4,0.1c-0.1,0.933,0.25,1.333,1.05,1.2c0.767-0.167,1.25-0.633,1.45-1.4
		c0.067,0.367,0.167,0.617,0.3,0.75c0.6-0.1,0.95-0.65,1.05-1.65c0.066-0.533,0.05-1.367-0.05-2.5c0.1,0.267,0.434,0.367,1,0.3
		c0.4-0.066,0.717-0.3,0.95-0.7c0.2-0.5,0.367-0.833,0.5-1c0.067,0.267,0.083,0.683,0.05,1.25c0,0.533,0.017,0.933,0.05,1.2
		c1.733,0.033,2.716-1.45,2.95-4.45c0.033,0.233,0.117,0.533,0.25,0.9v1.8l0.25,0.25c0.066-0.433,0.017-1.017-0.149-1.75
		c-0.034-0.1-0.067-0.2-0.101-0.3V5.75c0.033-0.7,0-1.333-0.1-1.9C32.55,3.917,32.634,4,32.7,4.1c0.2,0.2,0.467,0.933,0.8,2.2
		c-0.167,0.467-0.267,1.25-0.3,2.35V9.3z M17.9,6.65L17.05,6.7l-0.5,1.2l-0.2,0.15c0-0.6,0.017-1.05,0.05-1.35L17.9,6.65z
		 M31.6,3.55c0.033,0.2,0.083,0.434,0.15,0.7c-0.133-0.033-0.3-0.067-0.5-0.1C30.817,4.117,30.5,4,30.3,3.8l-0.1-0.1
		c-0.267,0.167-0.4,0.433-0.4,0.8c-0.033-0.633,0.35-0.967,1.15-1C31.183,3.5,31.4,3.517,31.6,3.55z M36.05,10.1
		c0.601-0.367,1.217-0.867,1.851-1.5c0.066-0.067,0.149-0.133,0.25-0.2c0.1,0.033,0.216,0.05,0.35,0.05
		c0.533,0.033,0.967-0.15,1.3-0.55h2.25H39.8c0.167-0.167,0.3-0.383,0.4-0.65c0.399-0.8,0.366-1.5-0.101-2.1h-0.3l-3,0.25
		c-0.399,0.5-0.467,1.05-0.2,1.65c-0.233,0.1-0.466,0.2-0.699,0.3C35.8,7.383,35.717,7.433,35.65,7.5
		c-0.233-0.233-0.4-0.417-0.5-0.55c0.1-0.167,0.183-0.333,0.25-0.5C35.733,5.783,36.1,4.7,36.5,3.2c0.033-0.2,0.083-0.4,0.15-0.6
		c0.333-0.067,0.699-0.033,1.1,0.1c-0.033,0.233,0,0.65,0.1,1.25c1.134-0.4,2.084-0.467,2.851-0.2C41.6,4.083,42,4.833,41.9,6
		c0.633-0.767,1.316-1.033,2.05-0.8c0.166,0.033,0.3,0.1,0.399,0.2c-0.366,0.533-0.566,0.95-0.6,1.25c0,0.167,0.066,0.45,0.2,0.85
		L43.8,7.4l-0.75,0.75L42.9,8.9H42.55L42.9,9.05L42.8,9.6C43.4,10,43.833,9.8,44.1,9l0.2-0.1h-0.2c0.101-0.333,0.117-0.667,0.051-1
		c0.267,0.434,0.767,1,1.5,1.7c0.866,0.833,1.399,1.367,1.6,1.6L48,12.55l-0.55-0.95c-0.8-0.3-1.417-0.45-1.851-0.45
		c0.267,0.567,0.483,1.233,0.65,2c0.233,1,0.233,1.667,0,2c-0.267,0.399-1.167,0.55-2.7,0.449c-1.366-0.066-2.3-0.216-2.8-0.449
		c-0.634-0.3-1.033-0.7-1.2-1.2c-0.267,0.433-0.616,0.6-1.05,0.5c-0.4-0.133-0.7-0.417-0.9-0.85c-0.033-0.033-0.1-0.617-0.199-1.75
		c-0.067-0.567-0.483-0.8-1.25-0.7C36.017,10.917,35.983,10.567,36.05,10.1z M53.25,14.55c0.134-1.6,0.2-2.417,0.2-2.45
		c0-0.434-0.066-0.767-0.2-1c0.2,0.333,0.267,0.9,0.2,1.7C53.417,13.233,53.35,13.817,53.25,14.55z M59.2,19.75
		c-0.3-0.033-0.517-0.134-0.65-0.3C58.483,19.417,58.4,19.267,58.3,19c0.033,0.066,0.066,0.134,0.101,0.2
		C58.533,19.5,58.8,19.684,59.2,19.75z M41.9,10.1C41.833,9.367,41.8,8.883,41.8,8.65l-3,0.75c-0.2,0.633,0.101,1.233,0.9,1.8
		c0.8,0.566,1.434,0.633,1.899,0.2C41.833,11.2,41.934,10.767,41.9,10.1z M43.05,11.15l0.65,1.35c0.967-0.2,1.416-0.817,1.35-1.85
		L43.05,11.15z"/>
	<path style="fill-rule:evenodd;clip-rule:evenodd;fill:#939865;" d="M16.35,8.05l0.2-0.15l0.5-1.2l0.85-0.05l0.85-0.05
		c0.133-0.633,0.167-1.067,0.1-1.3c2.133,1.733,3.117,3.184,2.95,4.35l1.5-2.5c0.133-0.8,0.583-1.4,1.35-1.8
		c0.8-0.434,1.383-0.217,1.75,0.65c0.733-0.9,1.333-1.567,1.8-2c0.933-0.8,1.466-0.633,1.6,0.5c0-0.367,0.133-0.633,0.4-0.8l0.1,0.1
		c0.2,0.2,0.517,0.317,0.95,0.35c0.2,0.033,0.367,0.067,0.5,0.1c0.1,0.467,0.233,0.967,0.4,1.5c0.033,0.133,0.083,0.283,0.149,0.45
		c-0.233,3-1.216,4.483-2.95,4.45c-0.033-0.267-0.05-0.667-0.05-1.2c0.034-0.567,0.017-0.983-0.05-1.25c-0.133,0.167-0.3,0.5-0.5,1
		c-0.233,0.4-0.55,0.633-0.95,0.7c-0.566,0.067-0.9-0.033-1-0.3c0.1,1.133,0.117,1.967,0.05,2.5c-0.1,1-0.45,1.55-1.05,1.65
		c-0.133-0.133-0.233-0.383-0.3-0.75c-0.2,0.767-0.683,1.233-1.45,1.4c-0.8,0.133-1.15-0.267-1.05-1.2l-0.4-0.1v-0.8
		c-0.067,0.133-0.217,0.317-0.45,0.55c-0.2,0.2-0.316,0.383-0.35,0.55c-0.066,0.167-0.05,0.5,0.05,1c0.066,0.5,0.033,0.833-0.1,1
		c-0.133,0.166-0.45,0.283-0.95,0.35c-0.533,0.066-0.883,0.033-1.05-0.1c-0.2-0.167-0.25-0.734-0.15-1.7
		c-0.3,0.833-0.883,1.149-1.75,0.95c-0.067-0.2-0.067-0.383,0-0.55c-0.267,0.333-0.7,0.533-1.3,0.6c-0.5,0.066-0.983,0.033-1.45-0.1
		c-0.1-0.3-0.1-0.65,0-1.05c0.133-0.566,0.2-0.917,0.2-1.05c-0.466-0.133-0.783-0.183-0.95-0.15c-0.033-0.567,0.4-1.184,1.3-1.85
		c0.8-0.6,1.533-0.983,2.2-1.15c-0.567,0.066-1.417,0.1-2.55,0.1c-0.033-0.233,0-0.483,0.1-0.75c0.3,0.167,0.583,0.367,0.85,0.6
		c0.033-0.167,0.05-0.667,0.05-1.5H16.35z M43.95,7.5c0.066,0.033,0.133,0.167,0.2,0.4c0.066,0.333,0.05,0.667-0.051,1h0.2L44.1,9
		c-0.267,0.8-0.699,1-1.3,0.6L42.9,9.05L42.55,8.9H42.9l0.149-0.75L43.8,7.4L43.95,7.5z M43.05,11.15l2-0.5
		c0.066,1.033-0.383,1.65-1.35,1.85L43.05,11.15z M41.9,10.1c0.033,0.667-0.067,1.1-0.301,1.3c-0.466,0.434-1.1,0.367-1.899-0.2
		c-0.8-0.567-1.101-1.167-0.9-1.8l3-0.75C41.8,8.883,41.833,9.367,41.9,10.1z M38.15,8.4c0.533-0.533,0.8-0.816,0.8-0.85
		c0.434-0.533,0.6-0.966,0.5-1.3c-1,0.133-1.95,0.4-2.851,0.8C36.333,6.45,36.4,5.9,36.8,5.4l3-0.25h0.3
		c0.467,0.6,0.5,1.3,0.101,2.1C40.1,7.517,39.967,7.733,39.8,7.9c-0.333,0.4-0.767,0.583-1.3,0.55
		C38.366,8.45,38.25,8.433,38.15,8.4z"/>
	<path style="fill-rule:evenodd;clip-rule:evenodd;fill:#585D3B;" d="M6.1,27.5l-0.4-0.3l0.15-0.9l2.1,1.351
		C7.183,27.783,6.567,27.733,6.1,27.5z M5.85,26.15c-0.3-0.267-0.65-0.483-1.05-0.65H4.75l-0.025-0.025
		c-0.1-0.024-0.208-0.066-0.325-0.125L4.35,25.3c-0.033,0-0.067,0.017-0.1,0.05c-0.833,0.134-1.483,0.167-1.95,0.101
		c0.1-0.967,0.867-1.55,2.3-1.75c0.2-0.033,0.467-0.05,0.8-0.05c0-0.034,0.017-0.051,0.05-0.051c0.4-0.133,0.9-0.3,1.5-0.5
		c-0.1-0.066-0.184-0.116-0.25-0.149c-0.934-0.467-1.567-0.733-1.9-0.8c-1.367-0.2-2.6,0.199-3.7,1.199
		C1,22.884,1.283,22.4,1.95,21.9C2.483,21.467,3,21.217,3.5,21.15c0.733-0.101,1.467,0,2.2,0.3c0.133,0.066,0.3,0.133,0.5,0.2
		c0.033-0.034,0.083-0.067,0.15-0.101c0.233-0.166,0.517-0.283,0.85-0.35c0.033,0,0.066,0,0.1,0c-0.066-0.334-0.133-0.717-0.2-1.15
		L7.05,20H7.1c-0.033-0.066-0.05-0.116-0.05-0.15c-0.1-0.699-0.283-1.233-0.55-1.6c-0.2-0.233-0.433-0.417-0.7-0.55
		c-0.667-0.3-1.667-0.316-3-0.05C1.567,17.884,0.633,18.233,0,18.7c3.1-3,5.367-3.717,6.8-2.15c0,0.033,0.017,0.066,0.05,0.101
		l1.35,2.8c0.1-0.066,0.2-0.15,0.3-0.25l-0.2,0.45L8.45,20c0.367,0.733,0.733,1.3,1.1,1.7c0.3-0.2,0.617-0.434,0.95-0.7
		c0.033,0.434,0.067,0.7,0.1,0.8c0.066,0.134,0.25,0.283,0.55,0.45c0.467,0.233,1.217,0.033,2.25-0.6C14.433,21.05,15,20.5,15.1,20
		c-0.1,1.066,0.333,1.55,1.3,1.45c0.867-0.134,1.6-0.517,2.2-1.15c0.3,0.834,0.75,1.267,1.35,1.3c0.433,0,1.133-0.216,2.1-0.649
		c-0.033,0.333-0.2,0.816-0.5,1.45c0.667,0.133,1.4,0.149,2.2,0.05c0.867-0.134,1.55-0.384,2.05-0.75c0.1,0.5,0.017,1.233-0.25,2.2
		c0.633,0.133,1.233,0,1.8-0.4c0.4-0.333,0.633-0.733,0.7-1.2c0.034,0.566,0.267,1.066,0.7,1.5c0.5,0.566,1.133,0.783,1.9,0.65
		c0.567-0.066,0.917-0.334,1.05-0.8c0.066-0.601,0.117-1.084,0.15-1.45c0.633,0,1.034-0.033,1.2-0.101
		c-0.033-0.833-0.017-1.449,0.05-1.85c0.301,0.2,0.617,0.233,0.95,0.1c0.066-0.366,0.033-0.8-0.1-1.3
		c-0.2-0.7-0.316-1.133-0.351-1.3c-0.033-0.366,0.017-0.967,0.15-1.8c0.167-1,0.25-1.617,0.25-1.85l0.1-2.35
		c0.134,0.533,0.434,1.233,0.9,2.1c0.233,0.533,0.35,1.3,0.35,2.3l0.4,0.05c0.1,0.3,0.083,0.633-0.05,1c-0.2,0.5-0.3,0.8-0.3,0.899
		l0.199,1.75c0.467,0.2,0.834,0.15,1.101-0.149c-0.3,0.767-0.417,1.233-0.351,1.399c1.267,0.301,2.351,0,3.25-0.899
		c-0.233,1.333-0.017,2.017,0.65,2.05c0.333,0,0.616-0.184,0.85-0.55c0.2-0.334,0.284-0.667,0.25-1c0.667,1.833,1.967,2.767,3.9,2.8
		c-0.4,0.066-1.033,0.083-1.9,0.05c-0.833-0.033-1.333-0.017-1.5,0.05c0.067,0.967-0.8,1.483-2.6,1.551
		c-1.8,0.066-2.616-0.5-2.45-1.7c-1,0.866-2.649,1.033-4.95,0.5c-0.1,0.333-0.333,0.566-0.7,0.7c-0.467,0.133-0.816,0.233-1.05,0.3
		c0.066,0.666-0.35,1.033-1.25,1.1c-1.067,0-1.733,0.05-2,0.15c-0.4,0.399-0.667,0.649-0.8,0.75c-0.5,0.267-1.233,0.333-2.2,0.2
		c-0.067-0.233-0.067-0.7,0-1.4c-0.133,0.533-0.85,0.816-2.15,0.85c-1.3,0.034-2.083-0.166-2.35-0.6c-0.2-0.333-0.167-0.833,0.1-1.5
		c0.2-0.6,0.466-1.05,0.8-1.35c-1.733-0.233-3.05-0.25-3.95-0.051c-0.2-0.133-0.367-0.183-0.5-0.149l-0.5,0.45
		c-1.133,0.333-1.883,0.5-2.25,0.5c-0.9,0.033-1.45-0.351-1.65-1.15c-0.033,1.2-0.5,2.1-1.4,2.7c-0.8,0.533-1.817,0.8-3.05,0.8
		l-1.1-0.05V26.15z M31.75,4.25c-0.067-0.267-0.117-0.5-0.15-0.7c-0.2-1-0.3-1.867-0.3-2.6c0.5,0.833,0.834,1.583,1,2.25
		c0.066,0.2,0.117,0.417,0.15,0.65c0.1,0.566,0.133,1.2,0.1,1.9V7.1c0.033,0.1,0.066,0.2,0.101,0.3
		c0.166,0.733,0.216,1.317,0.149,1.75L32.55,8.9V7.1c-0.133-0.367-0.217-0.667-0.25-0.9c-0.066-0.167-0.116-0.317-0.149-0.45
		C31.983,5.217,31.85,4.717,31.75,4.25z M35.15,6.95C34.917,7.317,34.65,7.667,34.35,8c-0.1,0.133-0.233,0.283-0.399,0.45
		c0,0.1,0.017,0.216,0.05,0.35c0.3-0.466,0.85-0.9,1.65-1.3c0.066-0.067,0.149-0.117,0.25-0.15c0.233-0.1,0.466-0.2,0.699-0.3
		c0.9-0.4,1.851-0.667,2.851-0.8c0.1,0.333-0.066,0.767-0.5,1.3c0,0.034-0.267,0.317-0.8,0.85c-0.101,0.067-0.184,0.133-0.25,0.2
		c-0.634,0.633-1.25,1.133-1.851,1.5c-0.133,0.033-0.267,0.083-0.399,0.15c-0.2,0.1-0.634,0.233-1.301,0.4
		c-0.6,0.167-1.033,0.333-1.3,0.5L33.8,9.9c-0.033-0.2-0.033-0.383,0-0.55L33.2,9.8l-0.9,0.6c0.066-0.2,0.334-0.533,0.8-1
		c0.034-0.033,0.067-0.066,0.101-0.1c0.3-0.333,0.55-0.617,0.75-0.85C33.917,8.283,33.9,8.133,33.9,8c-0.067-1.3,0.133-2.6,0.6-3.9
		C35.134,2.367,36.15,1,37.55,0c-0.3,0.567-0.6,1.433-0.899,2.6C36.583,2.8,36.533,3,36.5,3.2c-0.4,1.5-0.767,2.583-1.1,3.25
		C35.333,6.617,35.25,6.783,35.15,6.95z M53.45,12.1c0,0.033-0.066,0.85-0.2,2.45c0.4-1.233,0.816-1.283,1.25-0.15
		c0.866-0.533,1.717-0.783,2.55-0.75c0.867,0.067,1.684,0.65,2.45,1.75c0.134,0.199,0.667,1.183,1.6,2.949
		c-0.866-1.166-1.433-1.883-1.699-2.149c-0.667-0.667-1.45-1.084-2.351-1.25c-0.767-0.167-1.55-0.167-2.35,0
		c0.066,0.267,0.166,0.6,0.3,1c0.566,0.066,1.033,0.2,1.4,0.399c0.366,0.267,0.733,0.717,1.1,1.351
		c-0.767-0.066-1.384-0.117-1.85-0.15c0.199,0.2,0.433,0.316,0.699,0.351c0.634,0.133,1.101,0.283,1.4,0.449
		c0.2,0.134,0.384,0.351,0.55,0.65c-0.133,0.3-0.333,0.533-0.6,0.7c-0.334,0.233-0.8,0.383-1.4,0.45
		c-0.666,0.033-1.149,0.066-1.45,0.1l-0.1,1.05c-0.167,0.101-0.483,0.134-0.95,0.101c-0.166,0.066-0.283,0.199-0.35,0.399
		s-0.15,0.334-0.25,0.4c-1.233,0.767-2.117-0.167-2.65-2.8c0.066,0.866,0.066,1.449,0,1.75c-0.133,0.566-0.5,0.916-1.1,1.05
		c-0.233,0.066-0.767,0.033-1.601-0.101c-0.699-0.1-1.216-0.05-1.55,0.15v0.05c-0.133-0.767-0.35-1.434-0.649-2
		c0.267,0.367,0.566,0.566,0.899,0.601c-0.166-1.434-0.133-2.417,0.101-2.95c0.199,0.1,0.399,0.267,0.6,0.5
		c0.134,0.166,0.3,0.383,0.5,0.649c0.033-0.366-0.15-0.916-0.55-1.649c-0.367-0.733-0.517-1.316-0.45-1.75
		c0.767-0.3,1.783-0.167,3.05,0.399c-0.666-0.433-1.267-1-1.8-1.7s-0.85-1.367-0.95-2c0.2,0.067,0.517,0.117,0.95,0.15l-0.75-1.35
		c-0.3-0.6-0.366-1.034-0.2-1.3c0.267-0.367,0.834-0.117,1.7,0.75c0.566,0.6,1.017,1.167,1.35,1.7c-0.166-0.533,0.067-0.767,0.7-0.7
		c0.667,0.067,0.967,0.317,0.9,0.75C52.333,12.333,52.917,12.233,53.45,12.1z M7.65,22.2c-0.031-0.031-0.064-0.064-0.1-0.101
		C7.583,22.136,7.6,22.169,7.6,22.2H7.65z"/>
	
		<line style="fill-rule:evenodd;clip-rule:evenodd;fill:none;stroke:#939865;stroke-width:0.1;stroke-linecap:round;stroke-linejoin:round;stroke-miterlimit:3;" x1="39.8" y1="7.9" x2="42.05" y2="7.9"/>
</g>
</svg>
