<?xml version="1.0" encoding="iso-8859-1"?>
<!-- Generator: Adobe Illustrator 15.1.0, SVG Export Plug-In . SVG Version: 6.00 Build 0)  -->
<!DOCTYPE svg PUBLIC "-//W3C//DTD SVG 1.1//EN" "http://www.w3.org/Graphics/SVG/1.1/DTD/svg11.dtd">
<svg version="1.1" id="Layer_1" xmlns="http://www.w3.org/2000/svg" xmlns:xlink="http://www.w3.org/1999/xlink" x="0px" y="0px"
	 width="124.2px" height="39.5px" viewBox="0 0 124.2 39.5" style="enable-background:new 0 0 124.2 39.5;" xml:space="preserve">
<g>
	<path style="fill-rule:evenodd;clip-rule:evenodd;fill:#414428;" d="M116.8,26.65c-0.033,0-0.05,0.017-0.05,0.05
		c-0.2,0.3-0.333,0.616-0.4,0.95c0.834-0.267,1.384-0.334,1.65-0.2c0.333,0.166,0.65,0.75,0.95,1.75
		c-0.167,0.033-0.367,0.1-0.601,0.2c-0.233,0.1-0.5,0.216-0.8,0.35c-0.566,0.267-0.934,0.417-1.1,0.45
		c-0.667,0.133-1.434,0.184-2.3,0.149c-1.034-0.033-1.817-0.066-2.351-0.1c-0.166,1.4-1.333,1.934-3.5,1.6v-0.8
		c-0.166,0.634-0.517,1.134-1.05,1.5c-0.5,0.367-1.1,0.517-1.8,0.45c-0.066,1-0.233,1.767-0.5,2.3c-0.334,0.7-0.917,1.15-1.75,1.351
		l-1.25,0.05c-0.167-0.066-0.316-0.15-0.45-0.25l-0.05-0.05c-0.134-0.167-0.233-0.4-0.3-0.7c-0.034-0.134-0.051-0.417-0.051-0.851
		c0.034-0.866,0.051-1.566,0.051-2.1l0.199-0.15l0.2-0.149l0.351-0.5l0.05,0.8c0,0.533,0.233,0.8,0.7,0.8
		c0.366-0.033,0.8-0.35,1.3-0.95c0.5-0.6,0.783-1.1,0.85-1.5c0.233,0.467,0.65,0.551,1.25,0.25c0.434-0.233,0.834-0.566,1.2-1
		c0.8,0.434,1.533,0.517,2.2,0.25c0.1-0.433,0.133-0.733,0.1-0.899c0.267-0.134,0.667-0.167,1.2-0.101c0.566,0.034,0.983,0,1.25-0.1
		c0-0.833,0.1-1.333,0.3-1.5c0.101-0.066,0.867-0.017,2.3,0.15c0.034,0,0.067,0,0.101,0c-0.033-0.034-0.05-0.084-0.05-0.15
		c-0.034-0.2,0.1-0.5,0.399-0.9c0.167-0.233,0.384-0.533,0.65-0.899c0.434-0.667,1.1-1.2,2-1.601c0.1-0.033,0.883-0.3,2.35-0.8
		l-0.149,0.3c1.8-0.199,2.716-0.3,2.75-0.3h0.5c0.133,0.101,0.199,0.4,0.199,0.9c-0.033,0.833,0.051,2.05,0.25,3.649
		c-0.8-1.233-1.233-1.949-1.3-2.149c-0.133-0.5-0.25-0.9-0.35-1.2c-0.167-0.566-0.367-0.884-0.601-0.95
		c-0.433-0.166-1.483,0.25-3.149,1.25C117.6,25.733,117.134,26.184,116.8,26.65z M99.6,21.1c-0.666,0.067-1.083,0.084-1.25,0.051
		L98.4,20.55l2.449-0.6l0.051-0.05l0.5-0.05l6.649-0.95c-0.5,0.1-1.033,0.217-1.6,0.35c-0.3,0.067-0.617,0.15-0.95,0.25
		c-1.667,0.367-2.9,0.684-3.7,0.95c-0.899,0.333-1.533,0.533-1.899,0.6C99.8,21.05,99.7,21.066,99.6,21.1z M82.9,38.6
		c-0.534-0.1-1.051-0.449-1.551-1.05c-0.533-0.633-0.883-1.3-1.05-2c0.367,0.434,0.967,0.7,1.8,0.8
		c1.634,0.233,2.617-0.066,2.95-0.899c0.033-0.066,0.05-0.491,0.05-1.275c0.009,0.282,0.275,0.391,0.801,0.325
		c0.466-0.033,0.767-0.283,0.899-0.75c0.066-0.6,0.117-1.033,0.15-1.3c0.6,0.467,1.149,0.566,1.649,0.3
		c0.434-0.267,0.717-0.733,0.851-1.4c0.033,0.534,0.383,0.851,1.05,0.95c0.134,0.033,0.6,0.05,1.4,0.05l1.3-0.1l-0.05,0.5
		c0.1,0.366,0.583,0.483,1.449,0.35l0.301-0.05c0.366-0.066,0.649-0.184,0.85-0.35c0.167-0.101,0.384-0.351,0.65-0.75
		c-0.034,0.833,0.316,1.1,1.05,0.8l0.25-0.05l0.95-0.45c-0.101,0.7,0.133,1.083,0.699,1.15c0.101,0,0.217,0,0.351,0l0.899-0.25
		c0.101-0.101,0.217-0.184,0.351-0.25c-0.267,0.899-0.55,1.517-0.851,1.85c-0.267,0.3-0.633,0.517-1.1,0.65l-0.2,0.05
		c-0.166,0.033-0.35,0.066-0.55,0.1c-1,0.134-1.384-0.5-1.15-1.899c-1,1.3-2.35,1.666-4.05,1.1c-2.366-0.833-3.767-1.217-4.2-1.15
		l-0.1-0.5c-0.167,1-0.667,1.717-1.5,2.15c-0.434-0.1-0.717-0.35-0.85-0.75c-0.2,0.267-0.517,1.3-0.95,3.1
		C85.217,38.5,84.366,38.833,82.9,38.6z M66.05,35.45c-0.133,0-0.267,0-0.399,0c0.267-0.167,0.449-0.617,0.55-1.351
		c0.133-0.833,0.267-1.333,0.399-1.5c0.101-0.1,0.567-0.25,1.4-0.449c0.533-0.101,0.733-0.517,0.6-1.25
		c1.101,0.8,1.801,0.816,2.101,0.05c0.166-0.366,0.249-1.249,0.25-2.65c0.005,0.242,0.172,0.625,0.5,1.15
		c0.333,0.533,0.483,0.983,0.45,1.35c0.333,0.101,0.649,0.101,0.949,0L73.2,29.9c-0.134,0.767,0.5,1.183,1.899,1.25
		c1.367,0.066,2.15-0.2,2.351-0.801v0.9l1.45,0.05c-0.034,0.2-0.117,0.483-0.25,0.851C78.55,32.517,78.6,32.8,78.8,33
		s0.5,0.283,0.9,0.25c0.399,0,0.7-0.066,0.899-0.2c-0.399,0.566-0.6,1.066-0.6,1.5c-0.434,0.033-0.816,0.05-1.15,0.05
		c-1.066-0.066-1.666-0.533-1.8-1.399l-0.1,0.35c-0.634,0.2-1.55,0.233-2.75,0.101c-1.267-0.134-2.316-0.4-3.15-0.801
		c-0.733,0-1.517-0.133-2.35-0.399c0,0.833-0.134,1.45-0.4,1.85c-0.3,0.5-0.883,0.851-1.75,1.05c-0.1,0.034-0.184,0.051-0.25,0.051
		H66.15C66.116,35.4,66.083,35.417,66.05,35.45z M32.35,37.45c-0.667,0.434-1.417,0.649-2.25,0.649l0.05-0.149l0.1-2.05l-0.2-0.851
		l0.3,0.101l0.1,0.05L31.8,35.6c0.867,0.2,1.483,0.284,1.85,0.25c0.033-0.733,0.083-1.3,0.15-1.699c1.4,0.566,2.633,0.8,3.7,0.699
		c0.367-0.033,0.683-0.066,0.95-0.1c0.167,0.033,0.433,0.167,0.8,0.4c0.433,0.033,0.717-0.101,0.85-0.4
		c0.2-0.4,0.383-0.65,0.55-0.75c0.067-0.033,0.583-0.066,1.55-0.1c0.667,0,0.966-0.284,0.9-0.851l0.1,0.55
		c0.466-0.6,1.033-1.083,1.7-1.449c0.667-0.4,1.167-0.483,1.5-0.25l1.05-1.4c0.033,0.566,0,1.217-0.1,1.95
		c-0.233,1.6-0.75,2.684-1.55,3.25c-0.066,0.066-0.35,0.166-0.85,0.3c-0.4-0.6-0.467-1.366-0.2-2.3H44.7
		c-0.3,0.6-0.717,1.116-1.25,1.55c-0.1,0.066-0.2,0.134-0.3,0.2c-0.733,0.434-1.5,0.55-2.3,0.35c-0.4,0.134-0.934,0.25-1.6,0.351
		c-2.167,0.133-3.4,0.3-3.7,0.5c-0.066,0.033-0.517,0.75-1.35,2.149c-0.5,0.8-1.317,0.917-2.45,0.351
		C31.817,39.05,31.9,38.767,32,38.3C32.067,37.934,32.183,37.65,32.35,37.45z M15.6,31.85c0.733,0.667,1.433,1.217,2.1,1.65l0.4-0.8
		l0.45,0.05l0.75-0.1c-0.066,0.6-0.133,1.017-0.2,1.25c0.2-0.101,0.333-0.351,0.4-0.75c0.067-0.434,0.15-0.7,0.25-0.801
		c0.2,0.101,0.9,0.45,2.1,1.051c1.066,0.399,1.55,0.25,1.45-0.45l0.35,1.1c-0.167-0.033-0.333-0.066-0.5-0.1
		c-0.033,0.899-0.4,1.45-1.1,1.649c-0.7,0.2-1.316-0.083-1.85-0.85c-0.367,1.6-1.117,2.233-2.25,1.9
		c-1.1-0.334-1.534-1.317-1.3-2.95c-0.5,0.267-1.05,0.366-1.65,0.3c-0.667-0.1-1.217-0.417-1.65-0.95
		c-0.2,0.367-0.8,0.483-1.8,0.351C10.617,33.3,9.5,33.017,8.2,32.55l0.45-0.3c0.033-0.033,0.184-0.167,0.45-0.4
		c0-0.033,0.183-0.05,0.55-0.05c0.333,0.033,0.717,0.084,1.15,0.15c0.4,0.033,0.767,0,1.1-0.101c0.1-0.033,0.184-0.133,0.25-0.3
		c0.033-0.166,0.117-0.267,0.25-0.3l1,0.15l0.15,0.05c0.167,0,0.383-0.066,0.65-0.2c0.267-0.134,0.483-0.2,0.65-0.2
		C15.083,31.35,15.333,31.616,15.6,31.85z M3.9,30.65C3.833,30.616,3.767,30.6,3.7,30.6c-0.167,0-0.3,0-0.4,0
		C3.133,30.634,3,30.7,2.9,30.8c-0.133,0.066-0.233,0.184-0.3,0.351c-0.1,0.133-0.2,0.433-0.3,0.899
		c-0.167,0.667-0.25,2.167-0.25,4.5c-0.066-0.3-0.1-0.733-0.1-1.3c0.033-0.3,0-0.7-0.1-1.2c-0.1-0.6-0.15-1-0.15-1.2
		c-0.034-0.267,0-1.366,0.1-3.3c0.067-0.967,0.567-1.3,1.5-1l1.6,0.8l0.95,0.7c0.433,0.334,0.717,0.467,0.85,0.4l2.1,0.75
		c-0.466,0.467-1.35,0.483-2.65,0.05C5.117,30.917,4.367,30.717,3.9,30.65z"/>
	<path style="fill-rule:evenodd;clip-rule:evenodd;fill:#4E512F;" d="M101.95,32.75c0.6,0.267,1.1-0.316,1.5-1.75l0.1-0.35h0.4
		c0.866,0.133,1.583,0.1,2.149-0.101c0-0.033,0.051-0.649,0.15-1.85c0.033,0.6,0.45,0.934,1.25,1c0.667,0.066,1.333-0.017,2-0.25
		c0.1-0.533,0.116-0.917,0.05-1.15c0.4,0.334,0.917,0.467,1.55,0.4c0.7-0.066,1.101-0.384,1.2-0.95c0.033-0.333-0.3-0.85-1-1.55
		c0.4,0.2,0.834,0.25,1.3,0.149c0.334-0.966-0.017-1.583-1.05-1.85c-1.3-0.1-2.133-0.267-2.5-0.5l1.351-0.35
		c0,0.066-0.017,0.149-0.051,0.25c0.7-0.167,1.467-0.15,2.301,0.05c0.031,0.188,0.048,0.379,0.05,0.575
		c0.002-0.194,0.019-0.369,0.05-0.525c0.2,0.033,0.417,0.1,0.65,0.2c0.533,0.233,1.233,0.55,2.1,0.95
		c0.2-0.101,0.417-0.217,0.65-0.351c0.3-0.2,0.733-0.616,1.3-1.25c0.533-0.6,0.967-0.983,1.3-1.149c0.2-0.134,0.583-0.2,1.15-0.2
		c0.233,0,0.716-0.05,1.449-0.15c0.7-0.066,1.167-0.05,1.4,0.05c0.167,0.067,0.35,0.467,0.55,1.2c0.434,1.533,0.7,3.033,0.8,4.5
		c0.267,2.7-0.017,4.566-0.85,5.601c0.033-0.367,0-0.817-0.1-1.351c-0.167-0.767-0.267-1.217-0.301-1.35l-0.35-2.95
		c-0.1-0.667-0.2-1.217-0.3-1.65c-0.167-0.833-0.367-1.316-0.601-1.449c-0.133-0.067-0.449-0.034-0.949,0.1
		c-0.534,0.167-0.867,0.25-1,0.25c-0.7,0.167-1.167,0.316-1.4,0.45c-0.566,0.6-1.05,1-1.45,1.2c0.334-0.467,0.8-0.917,1.4-1.351
		c1.666-1,2.717-1.416,3.149-1.25c0.233,0.066,0.434,0.384,0.601,0.95c0.1,0.3,0.217,0.7,0.35,1.2c0.066,0.2,0.5,0.916,1.3,2.149
		c-0.199-1.6-0.283-2.816-0.25-3.649c0-0.5-0.066-0.8-0.199-0.9h-0.5c-0.034,0-0.95,0.101-2.75,0.3l0.149-0.3
		c-1.467,0.5-2.25,0.767-2.35,0.8c-0.9,0.4-1.566,0.934-2,1.601c-0.267,0.366-0.483,0.666-0.65,0.899c-0.3,0.4-0.434,0.7-0.399,0.9
		c0,0.066,0.017,0.116,0.05,0.15c-0.033,0-0.066,0-0.101,0c-1.433-0.167-2.199-0.217-2.3-0.15c-0.2,0.167-0.3,0.667-0.3,1.5
		c-0.267,0.1-0.684,0.134-1.25,0.1c-0.533-0.066-0.934-0.033-1.2,0.101c0.033,0.166,0,0.467-0.1,0.899
		c-0.667,0.267-1.4,0.184-2.2-0.25c-0.366,0.434-0.767,0.767-1.2,1c-0.6,0.301-1.017,0.217-1.25-0.25c-0.066,0.4-0.35,0.9-0.85,1.5
		c-0.5,0.601-0.934,0.917-1.3,0.95C102.184,33.55,101.95,33.283,101.95,32.75z M101.35,32.6l0.101-0.25l0.1,0.101L101.35,32.6z
		 M119.225,29.2h-0.274c-0.3-1-0.617-1.584-0.95-1.75c-0.267-0.134-0.816-0.066-1.65,0.2c0.067-0.334,0.2-0.65,0.4-0.95l2.05-0.05
		c0.4,0.399,0.634,0.75,0.7,1.05c0.1,0.399,0.017,0.899-0.25,1.5H119.225z M65.65,35.45c-0.301,0-0.567-0.017-0.801-0.05
		c-0.267-0.034-0.5-0.117-0.699-0.25c-0.067-0.067-0.134-0.117-0.2-0.15c-0.134-0.134-0.233-0.3-0.3-0.5
		c-0.067,1.8-0.817,2.95-2.25,3.45c-1.6,0.566-2.367,0.116-2.3-1.351c-0.333,0.867-1,1.483-2,1.851c-1,0.366-1.95,0.35-2.85-0.05
		c-0.133-0.801,0.05-1.717,0.55-2.75c0.633-1.134,1.05-2,1.25-2.601c-1.533,1.167-2.6,1.884-3.2,2.15
		c-1.434,0.633-2.267,0.233-2.5-1.2c0,0.134,0.017,0.267,0.05,0.4l-0.25,1c-0.066,0.1-0.117,0.199-0.15,0.3
		c-0.033,0.033-0.067,0.083-0.1,0.149l-0.2,0.2c-0.067,0.033-0.133,0.084-0.2,0.15c-0.167,0.133-0.333,0.25-0.5,0.35
		c-0.133,0.066-0.25,0.134-0.35,0.2c-0.767,0.366-1.517,0.45-2.25,0.25c-0.133-0.033-0.25-0.066-0.35-0.1
		c-0.5-0.233-0.867-0.534-1.1-0.9c0.5-0.134,0.783-0.233,0.85-0.3c0.8-0.566,1.317-1.65,1.55-3.25c0.1-0.733,0.133-1.384,0.1-1.95
		l-1.05,1.4c-0.333-0.233-0.833-0.15-1.5,0.25c-0.667,0.366-1.233,0.85-1.7,1.449l-0.1-0.55c0.066,0.566-0.233,0.851-0.9,0.851
		c-0.967,0.033-1.483,0.066-1.55,0.1c-0.167,0.1-0.35,0.35-0.55,0.75c-0.133,0.3-0.417,0.434-0.85,0.4
		c-0.367-0.233-0.633-0.367-0.8-0.4c-0.267,0.033-0.583,0.066-0.95,0.1c-1.067,0.101-2.3-0.133-3.7-0.699
		c-0.066,0.399-0.117,0.966-0.15,1.699c-0.367,0.034-0.983-0.05-1.85-0.25c0.067-0.267,0.167-0.933,0.3-2
		c0.533,0.267,1.1,0.45,1.7,0.551c0.5,0.1,1,0.149,1.5,0.149c0.067-0.399,0.1-0.7,0.1-0.899c0.067,0.333,0.283,0.633,0.65,0.899
		c0.434,0.367,0.867,0.483,1.3,0.351c0.433-0.101,0.667-0.4,0.7-0.9c0-0.6,0.034-1.05,0.1-1.35c0.333,0.333,0.767,0.6,1.3,0.8
		c0.533,0.2,1.033,0.283,1.5,0.25c0.566-0.066,0.966-0.283,1.2-0.65c0.2-0.267,0.333-0.767,0.4-1.5c0.2,0,0.684,0.033,1.45,0.101
		l0.1-0.051c0.233-0.166,0.35-0.383,0.35-0.649c-0.034-0.3-0.034-0.533,0-0.7l0.1-0.2c0.233-0.366,0.483-0.583,0.75-0.649L45,28.8
		c-0.4-0.467-0.633-0.8-0.7-1l1.15-0.1c0.4-0.033,0.65-0.184,0.75-0.45c0.1-0.2,0.15-0.7,0.15-1.5l1,0.35
		c0.033,0.5,0.033,1.25,0,2.25c0.233,0,0.6,0.034,1.1,0.101c-0.867,0.333-1.267,0.95-1.2,1.85c0.5,0.233,1.067,0.267,1.7,0.101
		c-0.233,0.366-0.383,0.8-0.45,1.3c-0.133,0.633-0.033,1.033,0.3,1.2c0.567,0.333,1,0.066,1.3-0.801c0.066,0.534,0.45,0.867,1.15,1
		c0.367,0.067,1,0.084,1.9,0.051c0.1-0.5,0.117-0.867,0.05-1.101c0.4,0.233,0.833,0.3,1.3,0.2l0.05-0.3L54.6,32.6
		c0.533,0.233,1.05,0.084,1.55-0.449c0.033,0.199,0.017,0.6-0.05,1.199c0,0.5,0.117,0.834,0.35,1c0.5,0.334,0.917,0.284,1.25-0.149
		c0.167-0.233,0.367-0.65,0.6-1.25c0.267,0.399,0.7,0.733,1.3,1c0.667,0.3,1.183,0.283,1.55-0.05c0.3-0.233,0.533-0.834,0.7-1.801
		c0.8,0.4,1.6,0.534,2.4,0.4c0.9-0.167,1.283-0.7,1.15-1.6c0.433,0.233,0.949,0.3,1.55,0.199C67.05,30.4,67.1,29.333,67.1,27.9
		c0.134,0.199,0.301,0.35,0.5,0.449c0.4,0.2,0.801,0.301,1.2,0.301c0.434-0.034,0.75-0.184,0.95-0.45
		c0.267-0.334,0.283-1.217,0.05-2.65c0.2,0.2,0.467,0.2,0.8,0c0.334-0.233,0.567-0.566,0.7-1c0.167-0.666,0.167-1.383,0-2.149
		c-0.133-0.467-0.399-1.134-0.8-2c-0.333-0.8-0.55-1.4-0.65-1.8c0.5,0.4,0.917,0.783,1.25,1.15c1.067,1.267,1.684,2.85,1.851,4.75
		v0.25c0.399-0.167,0.75-0.233,1.05-0.2c-0.066,0.3-0.184,0.733-0.35,1.3c-0.101,0.5-0.117,0.934-0.051,1.301
		c1.134,0.199,2,0.133,2.601-0.2c0.666-0.334,1.149-1.017,1.45-2.05c0,0.3-0.134,0.916-0.4,1.85c-0.2,0.866-0.116,1.434,0.25,1.7
		c0.2,0.133,0.616,0.149,1.25,0.05c0.033,0,0.083,0,0.15,0l0.25-0.05c0.333-0.066,0.566-0.15,0.699-0.25
		c0,0.033-0.017,0.05-0.05,0.05l-0.05,0.05c-0.033,0.033-0.066,0.066-0.1,0.101c-0.101,0.1-0.184,0.199-0.25,0.3L79.1,29.65
		c-0.033,0.333-0.017,0.899,0.051,1.699c1.133,0.2,1.767-0.066,1.899-0.8c0.033,0.167,0.033,0.517,0,1.05
		c0,0.467,0.033,0.817,0.101,1.051c1.033,0.066,1.75-0.017,2.149-0.25c0.434-0.267,0.733-0.884,0.9-1.851
		c0.166,0.334,0.416,0.617,0.75,0.851c0.399,0.233,0.8,0.267,1.2,0.1c0.433-0.2,0.666-0.533,0.699-1
		c0.067-0.733,0.134-1.184,0.2-1.35l0.601,0.399c0.699,0.367,1.3,0.483,1.8,0.351c0-0.467,0.017-0.817,0.05-1.051
		c0.033-0.466,0.2-0.767,0.5-0.899c0.167-0.101,0.467-0.084,0.9,0.05c0.433,0.134,0.767,0.15,1,0.05L92,26.6
		c0.134-1.267,0.5-2.233,1.1-2.899c0.233-0.233,0.517-0.45,0.851-0.65c0.1-0.399,0.184-0.717,0.25-0.95
		c0.233-0.633,0.583-1.017,1.05-1.149c0.333-0.101,1.033-0.233,2.1-0.4l2.551-0.5c0.066,0,0.133,0,0.199,0h0.051
		c0.267-0.033,0.5-0.066,0.699-0.1l-2.449,0.6L98.35,21.15c0.167,0.033,0.584,0.017,1.25-0.051c-0.033,0.034-0.05,0.067-0.05,0.101
		c-0.097,0.322,0.054,0.456,0.45,0.399c-0.446,0.073-0.896,0.206-1.35,0.4c-1.167,0.733-1.851,1.283-2.051,1.65
		c0.034-0.134,0.167-0.4,0.4-0.801c0.2-0.333,0.3-0.6,0.3-0.8c-0.467,0-1,0.15-1.6,0.45c-0.9,0.9-1.417,2.217-1.55,3.95
		c-0.034,0.733,0.083,2.05,0.35,3.95c-0.233,0.133-0.7,0.216-1.4,0.25c-0.633,0-1.066,0.133-1.3,0.399l-0.1,0.45l0.1-0.1
		c-0.1,0.366-0.066,0.683,0.101,0.949c-0.801,0-1.267-0.017-1.4-0.05c-0.667-0.1-1.017-0.416-1.05-0.95
		c-0.134,0.667-0.417,1.134-0.851,1.4c-0.5,0.267-1.05,0.167-1.649-0.3c-0.033,0.267-0.084,0.7-0.15,1.3
		c-0.133,0.467-0.434,0.717-0.899,0.75c-0.525,0.065-0.792-0.043-0.801-0.325c0,0.784-0.017,1.209-0.05,1.275
		c-0.333,0.833-1.316,1.133-2.95,0.899c-0.833-0.1-1.433-0.366-1.8-0.8c-0.066-0.233-0.1-0.583-0.1-1.05L80,34.55
		c0-0.434,0.2-0.934,0.6-1.5c-0.199,0.134-0.5,0.2-0.899,0.2C79.3,33.283,79,33.2,78.8,33s-0.25-0.483-0.149-0.85
		c0.133-0.367,0.216-0.65,0.25-0.851l-1.45-0.05v-0.9c-0.2,0.601-0.983,0.867-2.351,0.801c-1.399-0.067-2.033-0.483-1.899-1.25
		L72.85,30.8c-0.3,0.101-0.616,0.101-0.949,0c0.033-0.366-0.117-0.816-0.45-1.35c-0.328-0.525-0.495-0.908-0.5-1.15
		c-0.001,1.401-0.084,2.284-0.25,2.65c-0.3,0.767-1,0.75-2.101-0.05c0.134,0.733-0.066,1.149-0.6,1.25
		c-0.833,0.199-1.3,0.35-1.4,0.449c-0.133,0.167-0.267,0.667-0.399,1.5C66.1,34.833,65.917,35.283,65.65,35.45z M104.05,14
		c-0.3,1.033-0.934,2.067-1.899,3.1c-0.9,1-1.917,1.8-3.051,2.4c-0.833,0.433-1.416,0.533-1.75,0.3
		c0.434-0.333,1.167-0.716,2.2-1.15c0.467-0.267,0.733-0.4,0.8-0.4l0.851-0.95l2.899-3.45C104.1,13.883,104.083,13.933,104.05,14z
		 M101.4,19.85l-0.5,0.05c0.199-0.033,0.333-0.083,0.399-0.15L101.4,19.85z M104,18.85c0.1-0.033,0.267-0.083,0.5-0.15
		c0.167-0.034,0.566-0.15,1.2-0.35c0.467-0.167,0.85-0.25,1.149-0.25l-0.55,0.65c2.334-0.367,4.084-0.233,5.25,0.4
		c0.233,0.133,0.367,0.233,0.4,0.3c0.033,0.066,0.05,0.267,0.05,0.6l-0.05,1.15c-0.334-0.601-0.566-1.05-0.7-1.35
		c-0.1-0.233-0.134-0.383-0.1-0.45c0.033-0.033,0.199-0.083,0.5-0.15c-0.834-0.4-2.084-0.517-3.75-0.35
		c-2.367,0.267-3.733,0.4-4.101,0.4C103.733,19.1,103.8,18.95,104,18.85z M100.8,13.35c-0.066,0.033-0.116,0.066-0.149,0.1
		c-0.067-0.167-0.034-0.467,0.1-0.9c0.134-0.533,0.2-0.867,0.2-1c0.033-0.233,0.033-0.433,0-0.6c0-0.133-0.017-0.25-0.05-0.35
		c0-0.067-0.017-0.133-0.051-0.2c-0.1-0.233-0.233-0.417-0.399-0.55C100.017,9.583,99.4,9.467,98.6,9.5
		c-0.466,0.033-0.916,0.1-1.35,0.2c-0.066,0-0.134,0.017-0.2,0.05s-0.133,0.067-0.2,0.1L97.1,9.7l0.2-0.1
		c0.3-0.6,0.917-0.967,1.851-1.1c0.866-0.1,1.517,0.033,1.949,0.4c0.4,0.4,0.534,1.1,0.4,2.1
		C101.333,12.133,101.1,12.917,100.8,13.35z M83.75,27.3l0.15,0.3c0.066,1.233-0.301,1.934-1.101,2.101c-0.434-0.334-0.416-1,0.05-2
		L83.3,26.6L83.75,27.3z M82.35,27.2l0.25,0.1H82.4c-0.767,0.066-1.334,0.101-1.7,0.101c-0.7,0.033-1.283,0.033-1.75,0
		c-0.2-0.4-0.2-0.75,0-1.051c0.2-0.333,0.533-0.433,1-0.3L82.35,27.2z M80.15,12.05c0,0.534,0,1.317,0,2.35
		c-0.034,0.934-0.117,1.7-0.25,2.3v0.05c-0.167,0.633-0.483,1.15-0.95,1.55c-0.566,0.5-1,0.367-1.3-0.4
		c-0.134,0.2-0.267,0.583-0.4,1.15c-0.1,0.5-0.267,0.833-0.5,1c-0.2,0.167-0.583,0.233-1.15,0.2c-0.5-0.033-0.883-0.116-1.149-0.25
		c-0.4-0.267-0.634-0.9-0.7-1.9c0-0.667,0.083-1.467,0.25-2.4c0.566,1.066,0.983,1.35,1.25,0.85c0.033-0.066,0.2-0.716,0.5-1.95
		c0.1,0.433,0.35,0.717,0.75,0.85c0.434,0.133,0.8,0,1.1-0.4c0.134-0.167,0.2-0.533,0.2-1.1c-0.033-0.6-0.05-0.983-0.05-1.15
		l1.7-0.75l0.149,0.5c0.034-0.033,0.101-0.1,0.2-0.2c0.066-0.067,0.167-0.15,0.3-0.25C80.1,12.067,80.116,12.05,80.15,12.05z
		 M97.45,32.75l0.25-0.4V32.7L97.45,32.75z M94.9,33.05L94.6,33.1c-0.866,0.134-1.35,0.017-1.449-0.35
		c0.733-0.066,1.283-0.333,1.649-0.8C94.667,32.417,94.7,32.783,94.9,33.05z M27.25,35.15c0.411-0.011,0.744-0.145,1-0.4
		c0.167,0.833,0.833,1.217,2,1.15l-0.1,2.05L30.1,38.1c-0.467,0-0.917-0.083-1.35-0.25c-0.767-0.233-1.317-0.6-1.65-1.1
		c-0.333-0.533-0.3-1.066,0.1-1.6H27.25z M27.1,31.2c0.066,0,0.133,0,0.2,0l0.2,0.1v0.25c0,0.233-0.05,0.434-0.15,0.601
		c-0.267,0.366-0.833,0.55-1.7,0.55c-0.633,0-1.066-0.184-1.3-0.55c-0.167-0.267-0.283-0.75-0.35-1.45
		c-0.433-0.2-0.7-0.017-0.8,0.55c-0.034,0.2-0.034,0.384,0,0.55c0.133,0.033,0.3,0.066,0.5,0.101c0,0.199,0.1,0.433,0.3,0.699
		c0.267,0.301,0.7,0.483,1.3,0.551c0,0.333,0.083,0.666,0.25,1c-0.733,0-1.367-0.034-1.9-0.101l-0.35-1.1
		c0.1,0.7-0.383,0.85-1.45,0.45c-1.2-0.601-1.9-0.95-2.1-1.051c-0.1,0.101-0.183,0.367-0.25,0.801c-0.067,0.399-0.2,0.649-0.4,0.75
		c0.066-0.233,0.133-0.65,0.2-1.25l-0.75,0.1L18.1,32.7l-0.4,0.8c-0.667-0.434-1.367-0.983-2.1-1.65
		c0.133-0.1,0.217-0.283,0.25-0.55c0.9,0.767,1.75,1.15,2.55,1.15c0.1-0.434,0.25-0.917,0.45-1.45c0.167,0.167,0.367,0.283,0.6,0.35
		c0.133,0.034,0.333,0.067,0.6,0.101L20.1,31c-0.033,0-0.067-0.017-0.1-0.05c0.033-0.033,0.067-0.05,0.1-0.05l0.05-0.551
		c0.033,0.167,0.117,0.317,0.25,0.45c0.2,0,0.45,0.017,0.75,0.05c0.567,0.101,0.9,0.017,1-0.25c0.033-0.133,0.017-0.3-0.05-0.5
		c-0.133-0.267-0.2-0.416-0.2-0.449c0.1-0.101,0.283-0.134,0.55-0.101c0.133,0,0.333,0.017,0.6,0.05
		c-0.033-0.199-0.533-0.716-1.5-1.55c-0.7-0.5-1.25-0.8-1.65-0.899c0.867,0.133,1.867,0.533,3,1.199c0.367,0.2,0.6,0.284,0.7,0.25
		c0.066-0.033,0.117-0.233,0.15-0.6c0.033,0,0.2,0.033,0.5,0.1c0.167,0.034,0.317,0.017,0.45-0.05
		c-0.267-0.467-0.817-1.233-1.65-2.3c-0.233-0.3-0.45-0.583-0.65-0.85c-0.066-0.067-0.117-0.134-0.15-0.2
		c-0.133-0.101-0.267-0.217-0.4-0.351c-0.233-0.199-0.5-0.416-0.8-0.649c-0.2-0.2-0.417-0.4-0.65-0.601
		c-0.1-0.1-0.183-0.183-0.25-0.25L20.4,23l0.35,0.25c0.367,0.233,0.783,0.616,1.25,1.15c0.067,0.1,0.15,0.199,0.25,0.3l0.2,0.149
		l0.1,0.101c0.333,0.333,0.733,0.883,1.2,1.649c0.133,0.167,0.383,0.384,0.75,0.65l0.6-0.05l1.8-0.15
		c-0.066,0.233-0.217,0.45-0.45,0.65c-0.167,0.133-0.383,0.25-0.65,0.35c-0.633,0.267-1.033,0.517-1.2,0.75
		c-0.333,0.467-0.283,0.95,0.15,1.45c0.367,0.434,0.85,0.717,1.45,0.85C26.333,31.134,26.633,31.167,27.1,31.2z M8.2,32.55
		c-1.6-0.566-3.034-1.2-4.3-1.899c0.467,0.066,1.217,0.267,2.25,0.6c1.3,0.434,2.184,0.417,2.65-0.05l-2.1-0.75
		c-0.133,0.066-0.417-0.066-0.85-0.4l-0.95-0.7l-1.6-0.8c-0.933-0.3-1.433,0.033-1.5,1c-0.1,1.934-0.133,3.033-0.1,3.3
		c0,0.2,0.05,0.601,0.15,1.2c0.1,0.5,0.133,0.9,0.1,1.2c0,0.566,0.033,1,0.1,1.3c0-2.333,0.083-3.833,0.25-4.5
		c0.1-0.467,0.2-0.767,0.3-0.899c0.066-0.167,0.167-0.284,0.3-0.351c-0.066,0.3-0.133,0.75-0.2,1.351c-0.067,0.633-0.1,1.633-0.1,3
		c-0.067,1.366-0.05,2.383,0.05,3.05c0.067,0.666,0.1,1.05,0.1,1.149c-1.5-3.267-2.35-5.733-2.55-7.399
		c-0.3-2.267-0.267-4.3,0.1-6.101c0.567,0,1.5,0.184,2.8,0.551c0.533,0.1,1.017,0.383,1.45,0.85c0.5,0.533,0.95,0.967,1.35,1.3
		c0.4,0.334,0.733,0.55,1,0.65l1.2,1.55c0.066-0.134,0.133-0.3,0.2-0.5c0.567,0.634,1.2,1.033,1.9,1.2c0.8,0.2,1.333-0.017,1.6-0.65
		l0.1-0.35c0.233,0.1,0.517,0.283,0.85,0.55l0.65,0.4l-1-0.15c-0.133,0.033-0.217,0.134-0.25,0.3c-0.066,0.167-0.15,0.267-0.25,0.3
		c-0.333,0.101-0.7,0.134-1.1,0.101c-0.433-0.066-0.816-0.117-1.15-0.15c-0.367,0-0.55,0.017-0.55,0.05
		c-0.267,0.233-0.417,0.367-0.45,0.4L8.2,32.55z M52.7,26.55c-0.167,1.167-0.284,1.851-0.35,2.05c-0.2,0.767-0.533,1.351-1,1.75
		c-0.833,0.767-1.417,0.851-1.75,0.25c-0.267-0.466-0.05-1.083,0.65-1.85c0.7-0.733,1.283-1.05,1.75-0.95L52.7,26.55z M79.05,12.8
		c-0.366,0.067-0.633,0.167-0.8,0.3c0.5,0.066,1,0.066,1.5,0l-0.15-0.55l-0.1,0.1C79.467,12.65,79.316,12.7,79.05,12.8z
		 M59.65,29.55c0,0.2,0.017,0.684,0.05,1.45c-0.067,0.667-0.333,0.967-0.8,0.9c-0.267-0.034-0.467-0.334-0.6-0.9
		c-0.133-0.634-0.233-1.017-0.3-1.15L59.65,29.55z M54.55,31.5c-0.033-0.533,0.067-1.1,0.3-1.7c0.2-0.6,0.483-1.083,0.85-1.45
		c0.2,0.034,0.533,0.051,1,0.051c0.033,0.899-0.1,1.733-0.4,2.5c-0.4,1.033-0.966,1.366-1.7,1v-0.2L54.55,31.5z M49.1,25.8
		c0.267-0.267,0.6-0.434,1-0.5l0.95,0.75c-0.4,0.4-0.733,0.667-1,0.8c-0.4,0.167-0.85,0.15-1.35-0.05
		C48.667,26.434,48.8,26.1,49.1,25.8z M65.8,26.8c0.2,0.667,0.316,1.066,0.351,1.2c0.066,0.5-0.051,0.866-0.351,1.1
		c-0.333,0.233-0.783,0.2-1.35-0.1s-0.917-0.616-1.05-0.95L65.8,26.8z M20.95,31.2c0.2,0.1,0.433,0.184,0.7,0.25
		c0.167,0.033,0.383,0.083,0.65,0.149C21.9,31.434,21.45,31.3,20.95,31.2z"/>
	<path style="fill-rule:evenodd;clip-rule:evenodd;fill:#585D3B;" d="M97.25,9.7c-0.124,0.093-0.24,0.185-0.35,0.275
		c0.069-0.061,0.12-0.136,0.149-0.225C97.116,9.717,97.184,9.7,97.25,9.7z M100.8,13.35c0.3-0.434,0.533-1.217,0.7-2.35
		c0.134-1,0-1.7-0.4-2.1c-0.433-0.367-1.083-0.5-1.949-0.4C98.217,8.633,97.6,9,97.3,9.6l-0.2,0.1c0.7-1,1.517-1.633,2.45-1.9
		c1.134-0.333,1.95,0.083,2.45,1.25c0.366,0.8,0.467,2.217,0.3,4.25c-0.033,0.633-0.316,1.434-0.85,2.4
		c-0.334,0.6-0.601,1.117-0.8,1.55c0,0.167-0.017,0.367-0.051,0.6c0.167-0.167,0.367-0.35,0.601-0.55l-0.851,0.95
		c-0.066,0-0.333,0.133-0.8,0.4c-1.033,0.434-1.767,0.817-2.2,1.15c0.334,0.233,0.917,0.133,1.75-0.3c1.134-0.6,2.15-1.4,3.051-2.4
		c0.966-1.033,1.6-2.067,1.899-3.1c0.967-1.1,1.816-2.2,2.55-3.3c0.334-0.534,0.7-1.317,1.101-2.35c0.533-1.1,0.883-1.934,1.05-2.5
		c0.267-0.833,0.483-2.25,0.65-4.25c-0.233,3.667-0.367,5.6-0.4,5.8c-0.366,2.667-1.167,4.783-2.4,6.35c-1.8,2.3-3.233,3.9-4.3,4.8
		c-0.6,0.5-1.333,1-2.2,1.5c-0.066,0-0.133,0-0.199,0l-2.551,0.5c-1.066,0.167-1.767,0.3-2.1,0.4
		c-0.467,0.133-0.816,0.517-1.05,1.149c-0.066,0.233-0.15,0.551-0.25,0.95c-0.334,0.2-0.617,0.417-0.851,0.65
		c-0.6,0.666-0.966,1.633-1.1,2.899l-0.1,1.45c-0.233,0.101-0.567,0.084-1-0.05c-0.434-0.134-0.733-0.15-0.9-0.05
		c-0.3,0.133-0.467,0.434-0.5,0.899c-0.033,0.233-0.05,0.584-0.05,1.051c-0.5,0.133-1.101,0.017-1.8-0.351L87.05,29.15
		c-0.066,0.166-0.133,0.616-0.2,1.35c-0.033,0.467-0.267,0.8-0.699,1c-0.4,0.167-0.801,0.134-1.2-0.1
		c-0.334-0.233-0.584-0.517-0.75-0.851c-0.167,0.967-0.467,1.584-0.9,1.851c-0.399,0.233-1.116,0.316-2.149,0.25
		c-0.067-0.233-0.101-0.584-0.101-1.051c0.033-0.533,0.033-0.883,0-1.05c-0.133,0.733-0.767,1-1.899,0.8
		c-0.067-0.8-0.084-1.366-0.051-1.699L79.4,28.7c0.066-0.101,0.149-0.2,0.25-0.3c0.033-0.034,0.066-0.067,0.1-0.101l0.05-0.05
		c0.033,0,0.05-0.017,0.05-0.05c-0.133,0.1-0.366,0.184-0.699,0.25L78.9,28.5c-0.067,0-0.117,0-0.15,0
		c-0.634,0.1-1.05,0.083-1.25-0.05c-0.366-0.267-0.45-0.834-0.25-1.7c0.267-0.934,0.4-1.55,0.4-1.85
		c-0.301,1.033-0.784,1.716-1.45,2.05c-0.601,0.333-1.467,0.399-2.601,0.2c-0.066-0.367-0.05-0.801,0.051-1.301
		c0.166-0.566,0.283-1,0.35-1.3c-0.3-0.033-0.65,0.033-1.05,0.2V24.5c-0.167-1.9-0.783-3.483-1.851-4.75
		c-0.333-0.367-0.75-0.75-1.25-1.15c0.101,0.4,0.317,1,0.65,1.8c0.4,0.866,0.667,1.533,0.8,2c0.167,0.767,0.167,1.483,0,2.149
		c-0.133,0.434-0.366,0.767-0.7,1c-0.333,0.2-0.6,0.2-0.8,0c0.233,1.434,0.217,2.316-0.05,2.65c-0.2,0.267-0.517,0.416-0.95,0.45
		c-0.399,0-0.8-0.101-1.2-0.301c-0.199-0.1-0.366-0.25-0.5-0.449c0,1.433-0.05,2.5-0.149,3.199C66.35,31.2,65.833,31.134,65.4,30.9
		c0.133,0.899-0.25,1.433-1.15,1.6c-0.8,0.134-1.6,0-2.4-0.4c-0.167,0.967-0.4,1.567-0.7,1.801c-0.367,0.333-0.883,0.35-1.55,0.05
		c-0.6-0.267-1.033-0.601-1.3-1c-0.233,0.6-0.433,1.017-0.6,1.25c-0.333,0.434-0.75,0.483-1.25,0.149c-0.233-0.166-0.35-0.5-0.35-1
		c0.066-0.6,0.083-1,0.05-1.199c-0.5,0.533-1.017,0.683-1.55,0.449l-0.05-0.649l-0.05,0.3c-0.467,0.1-0.9,0.033-1.3-0.2
		c0.066,0.233,0.05,0.601-0.05,1.101c-0.9,0.033-1.533,0.017-1.9-0.051c-0.7-0.133-1.083-0.466-1.15-1
		c-0.3,0.867-0.733,1.134-1.3,0.801c-0.333-0.167-0.433-0.567-0.3-1.2c0.067-0.5,0.217-0.934,0.45-1.3
		c-0.633,0.166-1.2,0.133-1.7-0.101c-0.067-0.899,0.333-1.517,1.2-1.85c-0.5-0.066-0.867-0.101-1.1-0.101c0.033-1,0.033-1.75,0-2.25
		l-1-0.35c0,0.8-0.05,1.3-0.15,1.5c-0.1,0.267-0.35,0.417-0.75,0.45l-1.15,0.1c0.067,0.2,0.3,0.533,0.7,1l0.3,0.351
		c-0.267,0.066-0.517,0.283-0.75,0.649l-0.1,0.2c-0.034,0.167-0.034,0.4,0,0.7c0,0.267-0.117,0.483-0.35,0.649L44,31.4
		c-0.767-0.067-1.25-0.101-1.45-0.101c-0.066,0.733-0.2,1.233-0.4,1.5c-0.233,0.367-0.633,0.584-1.2,0.65
		c-0.467,0.033-0.967-0.05-1.5-0.25c-0.534-0.2-0.967-0.467-1.3-0.8c-0.066,0.3-0.1,0.75-0.1,1.35c-0.033,0.5-0.267,0.8-0.7,0.9
		c-0.434,0.133-0.867,0.017-1.3-0.351c-0.367-0.267-0.583-0.566-0.65-0.899c0,0.199-0.033,0.5-0.1,0.899c-0.5,0-1-0.05-1.5-0.149
		c-0.6-0.101-1.167-0.284-1.7-0.551c-0.133,1.067-0.233,1.733-0.3,2L30.45,35.2l-0.1-0.15v0.101l-0.3-0.101l0.2,0.851
		c-1.167,0.066-1.833-0.317-2-1.15c-0.256,0.256-0.589,0.39-1,0.4c0.033-0.067,0.067-0.117,0.1-0.15l0.05-0.05
		c0.033-0.033,0.083-0.066,0.15-0.101c0.034-0.066,0.083-0.116,0.15-0.149l0.05-0.05c0.033-0.034,0.083-0.067,0.15-0.101l0.1-0.1
		c0.133-0.101,0.267-0.184,0.4-0.25c-0.333-0.066-0.783-0.101-1.35-0.101L25.8,34.15c-0.1,0-0.183,0-0.25,0
		c-0.167-0.334-0.25-0.667-0.25-1c-0.6-0.067-1.033-0.25-1.3-0.551c-0.2-0.267-0.3-0.5-0.3-0.699c-0.2-0.034-0.367-0.067-0.5-0.101
		c-0.034-0.166-0.034-0.35,0-0.55c0.1-0.566,0.367-0.75,0.8-0.55c0.067,0.7,0.183,1.184,0.35,1.45c0.233,0.366,0.667,0.55,1.3,0.55
		c0.867,0,1.434-0.184,1.7-0.55c0.3,0.1,0.617,0.066,0.95-0.101c0.367-0.166,0.65-0.434,0.85-0.8c-0.1,0.233-0.117,0.616-0.05,1.15
		c0.4,0.233,0.816,0.283,1.25,0.149l0.05-0.1l0.05,0.5c0.3,0.166,0.6,0.2,0.9,0.1c0.1-0.399,0.133-0.666,0.1-0.8
		c0.3,0.366,0.7,0.7,1.2,1c0.6,0.366,1.05,0.467,1.35,0.3c0.267-0.133,0.417-0.399,0.45-0.8c0-0.5,0.017-0.884,0.05-1.15
		c0.2,0.167,0.483,0.434,0.85,0.801c0.333,0.3,0.667,0.433,1,0.399c0.2-0.733,0.15-1.467-0.15-2.2c0.566,0.834,1.533,1.25,2.9,1.25
		c0.1-0.966,0.1-1.949,0-2.949c0.3,0.3,0.65,0.55,1.05,0.75c0.5,0.199,0.9,0.233,1.2,0.1c0.4-0.167,0.617-0.566,0.65-1.2
		c0-0.733,0.017-1.25,0.05-1.55c0.233,0.167,0.65,0.267,1.25,0.3c0.267-1-0.4-2.083-2-3.25c0.267-0.066,0.434-0.2,0.5-0.399
		c0.1-0.267,0.017-0.567-0.25-0.9c1.034,0.3,1.667,0.267,1.9-0.1c0.133-0.233,0.167-0.467,0.1-0.7
		c-0.066-0.267-0.216-0.467-0.45-0.601c0.667,0.067,1.066-0.199,1.2-0.8c0.1-0.566-0.1-1.133-0.6-1.7c0.2-0.1,0.466-0.117,0.8-0.05
		c0.2,0.367,0.45,0.983,0.75,1.851l0.35,1.199c0.033-0.199,0.066-0.35,0.1-0.449c0.066-0.334,0.1-0.867,0.1-1.601
		c0-0.733,0.017-1.283,0.05-1.65c0.2,0.2,0.35,0.567,0.45,1.1c0.067,0.267,0.133,0.633,0.2,1.1l0.05,0.15
		c0.034-0.066,0.083-0.134,0.15-0.2c0.033,0.334,0.1,0.65,0.2,0.95c0.033,0.1,0.067,0.2,0.1,0.3c0.1,0.233,0.183,0.45,0.25,0.65
		c0.167,0.333,0.4,0.666,0.7,1c0.066-0.2,0.033-0.483-0.1-0.851c-0.2-0.533-0.3-0.833-0.3-0.899c-0.133-0.566-0.183-1.283-0.15-2.15
		c0.1-0.966,0.15-1.683,0.15-2.15c0.067-2.267,0.65-4.316,1.75-6.15c-0.566,1.633-0.883,3.717-0.95,6.25c0,0.9,0.133,2.017,0.4,3.35
		c0.1,0.4,0.217,0.934,0.35,1.601c0.133-1.601,0.3-2.9,0.5-3.9l2.1,0.45c-0.867,1.1-1.233,2.05-1.1,2.85
		c0.5,0.167,1.133,0.184,1.9,0.051c-0.433,0.533-0.75,0.949-0.95,1.25c-0.367,0.5-0.6,0.966-0.7,1.399
		c0.167,0.033,0.683,0.101,1.55,0.2c0.033,0.134,0.033,0.5,0,1.1c0,0.434,0.1,0.75,0.3,0.95L52,27.8
		c-0.467-0.1-1.05,0.217-1.75,0.95c-0.7,0.767-0.917,1.384-0.65,1.85c0.333,0.601,0.917,0.517,1.75-0.25
		c0.467-0.399,0.8-0.983,1-1.75c0.066-0.199,0.183-0.883,0.35-2.05l0.1,0.05c0.333,0.267,0.684,0.317,1.05,0.15
		c0.333-0.134,0.617-0.366,0.85-0.7c0.066,1.101,0.316,1.717,0.75,1.851c0.466,0.166,0.933-0.301,1.4-1.4
		c0.566,1.134,1.517,1.583,2.85,1.35c0-0.733,0.05-1.3,0.15-1.699c0.467,0.767,1.066,1.149,1.8,1.149c0.1-0.233,0.15-0.55,0.15-0.95
		c0-0.5,0.017-0.816,0.05-0.949c0.466,0.399,0.966,0.716,1.5,0.949c0.733,0.301,1.301,0.334,1.7,0.101
		c0.566-0.334,0.717-0.917,0.45-1.75c-0.2-0.667-0.533-1.15-1-1.45c0.366,0.167,1.066,0.35,2.1,0.55c0.167-0.8,0.067-1.45-0.3-1.95
		c-0.3-0.399-0.883-0.75-1.75-1.05c0.267-0.033,0.767,0,1.5,0.101c0.634,0,1.066-0.134,1.3-0.4c0.667-0.833,0.101-1.55-1.699-2.15
		c0.199-0.067,1-0.15,2.399-0.25c0.367-0.9,0.167-1.55-0.6-1.95c-0.634-0.367-1.467-0.483-2.5-0.35c0.8-0.2,1.333-0.6,1.6-1.2
		c0.3-0.7,0.134-1.317-0.5-1.85c-0.267-0.233-0.649-0.333-1.149-0.3c-0.567,0.033-0.95,0-1.15-0.1s-0.533-0.367-1-0.8
		c-0.467-0.4-0.817-0.667-1.05-0.8c0.533-0.367,1.366-0.5,2.5-0.4l0.75,0.45c0-0.133-0.017-0.267-0.05-0.4
		c0.966,0.1,1.866,0.3,2.699,0.6c0.867,0.3,1.417,0.633,1.65,1l0.15-0.2c0.033,0.067,0.25,0.767,0.649,2.1
		c0.934,0.6,1.25,1.067,0.95,1.4c0.667,0,1.083-0.466,1.25-1.4c0.033-0.1,0.083-0.783,0.15-2.05c0.233,0.066,0.8,0.267,1.699,0.6
		c0.867,0.267,1.434,0.283,1.7,0.05s0.4-0.65,0.4-1.25c-0.033-0.667-0.033-1.133,0-1.4c1.2,0.3,2.083,0.383,2.649,0.25
		c0-0.867,0.051-1.517,0.15-1.95c0.267-0.033,0.533-0.033,0.8,0C80,8.183,80.2,8.233,80.4,8.3c0,0.4,0,0.784,0,1.15
		c0.533-0.567,1.017-1.534,1.449-2.9C82.45,4.483,82.8,2.3,82.9,0c0,0.367,0.083,0.85,0.25,1.45c0.233,0.733,0.333,1.3,0.3,1.7
		c0,1.867-0.084,3.25-0.25,4.15c-0.233,1.133-0.834,2.267-1.8,3.4c-0.567,0.6-0.983,1.05-1.25,1.35c0.333-0.167,0.666-0.267,1-0.3
		c0.133,0,0.267,0,0.399,0h0.05l-0.149,1.3c-0.233,1.434-0.75,2.65-1.55,3.65c0.133-0.6,0.216-1.367,0.25-2.3
		c0-1.033,0-1.816,0-2.35c-0.034,0-0.051,0.017-0.051,0.05c-0.133,0.1-0.233,0.183-0.3,0.25c-0.1,0.1-0.166,0.167-0.2,0.2
		l-0.149-0.5l-1.7,0.75c0,0.167,0.017,0.55,0.05,1.15c0,0.566-0.066,0.933-0.2,1.1c-0.3,0.4-0.666,0.534-1.1,0.4
		c-0.4-0.133-0.65-0.417-0.75-0.85c-0.3,1.233-0.467,1.883-0.5,1.95c-0.267,0.5-0.684,0.217-1.25-0.85
		c-0.167,0.933-0.25,1.733-0.25,2.4c0.066,1,0.3,1.633,0.7,1.9c0.267,0.134,0.649,0.217,1.149,0.25c0.567,0.033,0.95-0.033,1.15-0.2
		c0.233-0.167,0.4-0.5,0.5-1c0.134-0.566,0.267-0.95,0.4-1.15c0.3,0.767,0.733,0.9,1.3,0.4c0.467-0.4,0.783-0.917,0.95-1.55V16.7
		l1.75-0.65c-1.067,1.034-1.851,1.833-2.351,2.4c-0.833,1.033-1.083,2.033-0.75,3c0.5-0.033,1-0.334,1.5-0.9
		c0.101-0.133,0.45-0.633,1.05-1.5c0.2,0.267,0.117,1.033-0.25,2.3C80.45,22.717,80.3,23.6,80.4,24c0.433,0.167,0.816,0.1,1.149-0.2
		c0.2-0.166,0.467-0.483,0.8-0.95c0,0.101-0.033,0.784-0.1,2.051c-0.1,1.066-0.066,1.833,0.1,2.3l-2.399-1.15
		c-0.467-0.133-0.8-0.033-1,0.3c-0.2,0.301-0.2,0.65,0,1.051c0.467,0.033,1.05,0.033,1.75,0c0.366,0,0.934-0.034,1.7-0.101
		c0.1,0.233,0.25,0.367,0.449,0.4c-0.466,1-0.483,1.666-0.05,2c0.8-0.167,1.167-0.867,1.101-2.101l-0.15-0.3
		c0.2-0.3,0.3-0.883,0.3-1.75c0-1,0.017-1.533,0.05-1.6c0.301,0.033,0.684,0.267,1.15,0.7c0.467,0.466,0.884,0.716,1.25,0.75
		c0.634,0.066,1.017-0.034,1.15-0.301c0.066-0.466,0.133-0.883,0.199-1.25c0.2,0.2,0.567,0.551,1.101,1.051
		c0.533,0.399,0.983,0.466,1.35,0.199c0.033-1.133,0.101-1.966,0.2-2.5c0.1,0,0.434,0,1,0c0.434,0,0.733-0.066,0.9-0.199
		c0.433-0.301,0.616-0.801,0.55-1.5c-0.066-0.567-0.25-1.067-0.55-1.5c0.3-0.167,0.949-0.4,1.949-0.7
		c0.801-0.333,1.134-0.817,1-1.45c-0.566-0.233-1.383-0.35-2.449-0.35c-1.2,0.033-2.067,0.033-2.601,0
		c0.834,0.033,1.367-0.167,1.601-0.6c0.166-0.3,0.216-0.9,0.149-1.8h-0.6c0.033-0.233,0.2-0.783,0.5-1.65
		c0.267-0.667,0.316-1.217,0.149-1.65c-0.3-0.067-0.716-0.067-1.25,0c-0.633,0.033-1.066,0.05-1.3,0.05
		c0.066-0.367-0.066-0.817-0.399-1.35c-0.233-0.4-0.101-0.8,0.399-1.2L89.9,8.5c0.3,0.333,0.399,0.8,0.3,1.4
		c0.566-1.2,1.416-1.483,2.55-0.85s1.184,1.517,0.15,2.65c1.166-0.3,1.783-0.067,1.85,0.7c0.033,0.6-0.25,1.417-0.85,2.45
		c0.8-0.4,1.449-0.317,1.949,0.25c0.567,0.667,0.684,1.8,0.351,3.4c0.267-1.133,0.85-2,1.75-2.6c0.733-0.467,1.383-0.5,1.95-0.1
		c0.1-0.267,0.216-0.566,0.35-0.9C100.483,14.333,100.667,13.817,100.8,13.35z M99.2,24l0.05-0.05l0.55-0.4l1.75-0.6l-1.8,1.1
		L99.2,24z M101.05,20.95c-0.399,1.267-0.7,2.033-0.899,2.3l-0.9,0.7L99.15,24l-0.9,0.05v0.5l-3.6,1.851l1.649,0.05
		c0.033,0.233-0.017,0.6-0.149,1.1c-0.134,0.5-0.2,0.867-0.2,1.101c-0.467-0.267-0.834-0.051-1.101,0.649
		c-0.233,0.667-0.25,1.184-0.05,1.55c0.2,0.434,0.533,0.617,1,0.551c0.5-0.067,0.834-0.317,1-0.75c0,0.866,0.7,1.199,2.101,1
		c1.399-0.2,2.033-0.634,1.899-1.301c0.3,0.301,0.7,0.517,1.2,0.65c0.566,0.134,1.05,0.134,1.45,0c-0.4,1.434-0.9,2.017-1.5,1.75
		l-0.05-0.8l-0.351,0.5l-0.1-0.101l-0.101,0.25l-0.199,0.15c0-0.2,0-0.366,0-0.5l-0.2,0.65c-0.134,0.066-0.25,0.149-0.351,0.25
		L99.7,33.4c-0.134,0-0.25,0-0.351,0c-0.566-0.067-0.8-0.45-0.699-1.15L97.7,32.7V32.35l-0.25,0.4c-0.733,0.3-1.084,0.033-1.05-0.8
		c-0.267,0.399-0.483,0.649-0.65,0.75c-0.2,0.166-0.483,0.283-0.85,0.35c-0.2-0.267-0.233-0.633-0.101-1.1
		c-0.366,0.467-0.916,0.733-1.649,0.8l0.05-0.5l-1.3,0.1c-0.167-0.267-0.2-0.583-0.101-0.949l-0.1,0.1l0.1-0.45
		c0.233-0.267,0.667-0.399,1.3-0.399c0.7-0.034,1.167-0.117,1.4-0.25c-0.267-1.9-0.384-3.217-0.35-3.95
		c0.133-1.733,0.649-3.05,1.55-3.95c0.6-0.3,1.133-0.45,1.6-0.45c0,0.2-0.1,0.467-0.3,0.8c-0.233,0.4-0.366,0.667-0.4,0.801
		c0.2-0.367,0.884-0.917,2.051-1.65c0.453-0.194,0.903-0.327,1.35-0.4c-0.396,0.057-0.547-0.077-0.45-0.399
		C100.083,21.1,100.583,21.017,101.05,20.95z M104,18.85c-0.2,0.1-0.267,0.25-0.2,0.45c0.367,0,1.733-0.133,4.101-0.4
		c1.666-0.167,2.916-0.05,3.75,0.35c-0.301,0.067-0.467,0.117-0.5,0.15c-0.034,0.067,0,0.217,0.1,0.45
		c0.134,0.3,0.366,0.75,0.7,1.35l0.05-1.15c0-0.333-0.017-0.533-0.05-0.6c-0.033-0.067-0.167-0.167-0.4-0.3
		c-1.166-0.633-2.916-0.767-5.25-0.4l0.55-0.65c-0.3,0-0.683,0.083-1.149,0.25c-0.634,0.2-1.033,0.316-1.2,0.35
		C104.267,18.767,104.1,18.817,104,18.85z M101.4,19.85l-0.101-0.1c-0.066,0.067-0.2,0.117-0.399,0.15l-0.051,0.05
		c-0.199,0.033-0.433,0.066-0.699,0.1c0.066-0.033,0.133-0.066,0.199-0.1c1.134-0.434,1.834-0.717,2.101-0.85
		c0.233-0.1,0.85-0.467,1.85-1.1c0.767-0.467,1.384-0.75,1.851-0.85c1.433-0.233,2.816-0.05,4.149,0.55
		c1.4,0.633,2.184,1.65,2.351,3.05c0.066,0.5,0.1,1.15,0.1,1.95c0,0.333,0,0.767,0,1.3c-0.031,0.156-0.048,0.331-0.05,0.525
		c-0.002-0.196-0.019-0.388-0.05-0.575c-0.134-1-0.551-2.084-1.25-3.25c-0.2-0.367-0.351-0.65-0.45-0.85
		c-0.233-0.367-0.45-0.617-0.65-0.75c-0.2-0.1-0.684-0.15-1.45-0.15c-0.433-0.034-1.233,0.066-2.399,0.3
		c0.566-0.133,1.1-0.25,1.6-0.35L101.4,19.85z M104.4,21.25c0.066,0.066,0.116,0.167,0.149,0.3c0,0.033,0,0.084,0,0.15
		c0.867-0.4,1.733-0.601,2.601-0.601h0.35c0.333,0,0.667,0.034,1,0.101c0.634,0.133,1.116,0.366,1.45,0.7l0.25,0.35
		c0.233,0.366,0.3,0.833,0.2,1.4L109.05,24c0.367,0.233,1.2,0.4,2.5,0.5c1.033,0.267,1.384,0.884,1.05,1.85
		c-0.466,0.101-0.899,0.051-1.3-0.149c0.7,0.7,1.033,1.217,1,1.55c-0.1,0.566-0.5,0.884-1.2,0.95c-0.633,0.066-1.149-0.066-1.55-0.4
		c0.066,0.233,0.05,0.617-0.05,1.15c-0.667,0.233-1.333,0.316-2,0.25c-0.8-0.066-1.217-0.4-1.25-1c-0.1,1.2-0.15,1.816-0.15,1.85
		c-0.566,0.2-1.283,0.233-2.149,0.101l0.25-0.351c0.166-0.399,0.133-0.816-0.101-1.25s-0.55-0.666-0.949-0.7
		c2.1-0.233,3.466-0.433,4.1-0.6c0.1-0.667-0.233-1.116-1-1.35c-0.9-0.134-1.517-0.267-1.85-0.4v-0.05
		c0.233-0.101,0.733-0.217,1.5-0.351c0.666-0.133,1.183-0.333,1.55-0.6c-0.066-0.8-0.467-1.25-1.2-1.35L107,23.5
		c0.167-0.366,0.217-0.667,0.15-0.9c-0.267-0.199-1-0.25-2.2-0.149c-1.134,0.066-2.267,0.233-3.4,0.5L104.4,21.25z M11.8,30.8
		c-0.267,0.634-0.8,0.851-1.6,0.65c-0.7-0.167-1.333-0.566-1.9-1.2c-0.066,0.2-0.133,0.366-0.2,0.5L6.9,29.2
		c-0.267-0.101-0.6-0.316-1-0.65h0.05c0.4-0.066,0.783,0.117,1.15,0.55c0.033,0.034,0.066,0.067,0.1,0.101
		c-0.567-0.934-0.75-1.617-0.55-2.05c0.133-0.367,0.533-0.567,1.2-0.601L7.8,26.6C7.233,26.9,6.967,27.316,7,27.85
		c0.467,0.301,1,0.284,1.6-0.05l0.05,1.45c0.133-0.033,0.367-0.033,0.7,0c0.066,0.2,0.133,0.533,0.2,1
		C9.683,30.616,9.9,30.866,10.2,31c0.267-0.267,0.4-0.667,0.4-1.2C11.1,30.3,11.5,30.634,11.8,30.8z M19.9,29.6l0.85,0.301
		c0.167,0.033,0.3-0.051,0.4-0.25c0.1-0.2,0.217-0.301,0.35-0.301c-0.533-0.399-0.983-0.75-1.35-1.05
		c-0.233-0.2-0.417-0.366-0.55-0.5c-1.533-1.366-2.667-2.25-3.4-2.649c1.6,0.333,3.583,1.25,5.95,2.75
		c0.167-0.067,0.317-0.117,0.45-0.15c0.033,0,0.083,0,0.15,0c-0.133-0.2-0.283-0.4-0.45-0.6c-0.433-0.5-0.767-0.884-1-1.15
		c-0.8-0.767-1.383-1.366-1.75-1.8c-0.4-0.5-0.7-0.884-0.9-1.15c-0.367-0.467-0.717-0.816-1.05-1.05c-1.1-0.833-2.617-1.8-4.55-2.9
		c-1.2-0.733-2.117-1.25-2.75-1.55c-0.7-0.2-1.233-0.383-1.6-0.55c0.867-0.133,2.4,0.233,4.6,1.1c1.733,0.667,2.917,1.233,3.55,1.7
		c0.633,0.5,1.383,1.15,2.25,1.95c0.4,0.4,0.833,0.816,1.3,1.25l-0.25-0.15c0.067,0.067,0.15,0.15,0.25,0.25
		c0.233,0.2,0.45,0.4,0.65,0.601c0.2,0.166,0.4,0.366,0.6,0.6c0.133,0.134,0.267,0.267,0.4,0.4c0.067,0.066,0.167,0.166,0.3,0.3
		c0-0.033,0.017-0.066,0.05-0.1c0.2,0.267,0.417,0.55,0.65,0.85c0.833,1.066,1.383,1.833,1.65,2.3
		c-0.133,0.066-0.284,0.084-0.45,0.05c-0.3-0.066-0.467-0.1-0.5-0.1c-0.033,0.366-0.083,0.566-0.15,0.6
		c-0.1,0.034-0.333-0.05-0.7-0.25c-1.133-0.666-2.133-1.066-3-1.199c0.4,0.1,0.95,0.399,1.65,0.899
		c0.967,0.834,1.467,1.351,1.5,1.55c-0.267-0.033-0.466-0.05-0.6-0.05c-0.267-0.033-0.45,0-0.55,0.101
		c0,0.033,0.067,0.183,0.2,0.449c0.066,0.2,0.083,0.367,0.05,0.5c-0.1,0.267-0.433,0.351-1,0.25c-0.3-0.033-0.55-0.05-0.75-0.05
		c-0.133-0.133-0.217-0.283-0.25-0.45L20.1,30.9c-0.033,0-0.067,0.017-0.1,0.05c0.033,0.033,0.067,0.05,0.1,0.05l-0.05,0.45
		c-0.267-0.033-0.466-0.066-0.6-0.101c-0.233-0.066-0.434-0.183-0.6-0.35c-0.2,0.533-0.35,1.017-0.45,1.45
		c-0.8,0-1.65-0.384-2.55-1.15c-0.033,0.267-0.117,0.45-0.25,0.55c-0.267-0.233-0.517-0.5-0.75-0.8c-0.167,0-0.383,0.066-0.65,0.2
		c-0.267,0.134-0.483,0.2-0.65,0.2L13.4,31.4L12.75,31c0.2-0.167,0.233-0.6,0.1-1.3c0.267,0.666,0.917,1.1,1.95,1.3
		c0.1-0.533,0.117-0.917,0.05-1.15c0.7,0.434,1.566,0.684,2.6,0.75c0.066-0.433-0.117-0.85-0.55-1.25
		c-0.167-0.166-0.583-0.466-1.25-0.899c0.7-0.2,1.667-0.017,2.9,0.55l1.3,1.2C19.817,30.066,19.833,29.866,19.9,29.6z M79.05,12.8
		c0.267-0.1,0.417-0.15,0.45-0.15l0.1-0.1l0.15,0.55c-0.5,0.066-1,0.066-1.5,0C78.417,12.967,78.684,12.867,79.05,12.8z M54.55,31.5
		v0.45l0.05-0.25v0.2c0.733,0.366,1.3,0.033,1.7-1c0.3-0.767,0.434-1.601,0.4-2.5c-0.467,0-0.8-0.017-1-0.051
		c-0.367,0.367-0.65,0.851-0.85,1.45C54.617,30.4,54.517,30.967,54.55,31.5z M59.65,29.55L58,29.85
		c0.067,0.134,0.167,0.517,0.3,1.15c0.133,0.566,0.333,0.866,0.6,0.9c0.467,0.066,0.733-0.233,0.8-0.9
		C59.667,30.233,59.65,29.75,59.65,29.55z M49.1,25.8c-0.3,0.3-0.434,0.634-0.4,1c0.5,0.2,0.95,0.217,1.35,0.05
		c0.267-0.133,0.6-0.399,1-0.8L50.1,25.3C49.7,25.366,49.367,25.533,49.1,25.8z M65.8,26.8L63.4,28.05
		c0.133,0.334,0.483,0.65,1.05,0.95s1.017,0.333,1.35,0.1c0.3-0.233,0.417-0.6,0.351-1.1C66.116,27.866,66,27.467,65.8,26.8z
		 M22.45,24.85c0.133-0.1,0.3-0.183,0.5-0.25c-0.333-0.066-0.633-0.133-0.9-0.199c1.034-0.667,1.833-1.051,2.4-1.15
		c0.1,0.3,0.083,0.616-0.05,0.95c-0.066,0.2-0.2,0.483-0.4,0.85c0.633,0.367,1.483,0.483,2.55,0.351c-0.433,0.3-0.767,0.533-1,0.699
		c-0.4,0.301-0.617,0.617-0.65,0.95c0.067,0.066,0.133,0.117,0.2,0.15l-0.6,0.05c-0.367-0.267-0.617-0.483-0.75-0.65
		c-0.467-0.767-0.867-1.316-1.2-1.649L22.45,24.85z M27.1,31.2c-0.467-0.033-0.767-0.066-0.9-0.101
		c-0.6-0.133-1.083-0.416-1.45-0.85c-0.433-0.5-0.483-0.983-0.15-1.45c0.167-0.233,0.566-0.483,1.2-0.75
		c0.267-0.1,0.483-0.217,0.65-0.35c0.033,0,0.066,0,0.1,0c0.1,0.033,0.217,0.05,0.35,0.05c-0.267,0.2-0.467,0.366-0.6,0.5
		c-0.267,0.233-0.4,0.483-0.4,0.75c-0.733,0.667-0.933,1.2-0.6,1.6c0.4,0.5,1.2,0.45,2.4-0.149C27.4,30.65,27.2,30.9,27.1,31.2z
		 M20.95,31.2c0.5,0.1,0.95,0.233,1.35,0.399c-0.267-0.066-0.483-0.116-0.65-0.149C21.383,31.384,21.15,31.3,20.95,31.2z
		 M41.3,24.05c-0.5,0.134-0.9-0.116-1.2-0.75L41.3,24.05z"/>
	<path style="fill-rule:evenodd;clip-rule:evenodd;fill:#6D7247;" d="M101.45,36.4c-0.2-0.233-0.334-0.551-0.4-0.95
		c0-0.2,0.017-0.4,0.05-0.601c0,0.434,0.017,0.717,0.051,0.851C101.217,36,101.316,36.233,101.45,36.4z M118.95,29.2h0.274
		c-0.265,0.006-0.557,0.072-0.875,0.2C118.583,29.3,118.783,29.233,118.95,29.2z M101.05,20.95c1.834-0.233,2.95-0.134,3.351,0.3
		l-2.851,1.7c1.134-0.267,2.267-0.434,3.4-0.5c1.2-0.101,1.934-0.05,2.2,0.149c0.066,0.233,0.017,0.534-0.15,0.9l-0.75,0.15
		c0.733,0.1,1.134,0.55,1.2,1.35c-0.367,0.267-0.884,0.467-1.55,0.6c-0.767,0.134-1.267,0.25-1.5,0.351
		c0-0.134-0.017-0.267-0.051-0.4L103,25.7c-0.233,0.866-0.017,1.267,0.65,1.2c0.5-0.067,0.75-0.367,0.75-0.9
		c0.333,0.134,0.949,0.267,1.85,0.4c0.767,0.233,1.1,0.683,1,1.35c-0.634,0.167-2,0.366-4.1,0.6c0.399,0.034,0.716,0.267,0.949,0.7
		s0.267,0.851,0.101,1.25l-0.25,0.351h-0.4l-0.1,0.35c-0.4,0.134-0.884,0.134-1.45,0c-0.5-0.134-0.9-0.35-1.2-0.65
		c0.134,0.667-0.5,1.101-1.899,1.301c-1.4,0.199-2.101-0.134-2.101-1c-0.166,0.433-0.5,0.683-1,0.75c-0.467,0.066-0.8-0.117-1-0.551
		c-0.2-0.366-0.184-0.883,0.05-1.55c0.267-0.7,0.634-0.916,1.101-0.649c0-0.233,0.066-0.601,0.2-1.101
		c0.133-0.5,0.183-0.866,0.149-1.1L94.65,26.4l3.6-1.851l-0.05,0.7c-0.233,0.066-0.434,0.2-0.601,0.4
		c-0.166,0.033-0.35,0.1-0.55,0.199c-0.533,0.267-0.767,0.567-0.7,0.9c0.034,0.267,0.25,0.417,0.65,0.45c0,0.033,0,0.066,0,0.1
		c0.3,0.066,0.566,0.017,0.8-0.149c0.334-0.067,0.601-0.184,0.8-0.351c0.067,0.3,0.101,0.75,0.101,1.351
		c0.1,0.267,0.283,0.383,0.55,0.35c0,0.066,0.017,0.134,0.05,0.2c0.5,0.066,1.033,0.017,1.601-0.15c0.033-0.133,0.05-0.25,0.05-0.35
		c0.3,0.066,0.583,0.05,0.85-0.05c0.066-1.134,0.117-1.967,0.15-2.5V25.4c-0.167-0.767-0.9-1.217-2.2-1.351l1.8-1.1l-1.75,0.6
		l-0.55,0.4L99.2,24h-0.05l0.1-0.05l0.9-0.7C100.35,22.983,100.65,22.217,101.05,20.95z M79.9,16.7c0.8-1,1.316-2.217,1.55-3.65
		l0.149-1.3c0.367,0,0.717,0.133,1.051,0.4c0.466-0.667,0.966-1.017,1.5-1.05c0.533-0.067,0.816,0.233,0.85,0.9
		c0.033-2.1,0.95-3.4,2.75-3.9c0.733-0.2,1.35-0.15,1.85,0.15C89.733,8.317,89.833,8.4,89.9,8.5L89.55,8.7
		c-0.5,0.4-0.633,0.8-0.399,1.2c0.333,0.533,0.466,0.983,0.399,1.35c0.233,0,0.667-0.017,1.3-0.05c0.534-0.067,0.95-0.067,1.25,0
		c0.167,0.433,0.117,0.983-0.149,1.65c-0.3,0.867-0.467,1.417-0.5,1.65h0.6c0.066,0.9,0.017,1.5-0.149,1.8
		c-0.233,0.434-0.767,0.633-1.601,0.6c0.533,0.033,1.4,0.033,2.601,0c1.066,0,1.883,0.117,2.449,0.35
		c0.134,0.633-0.199,1.117-1,1.45c-1,0.3-1.649,0.533-1.949,0.7c0.3,0.434,0.483,0.933,0.55,1.5c0.066,0.699-0.117,1.199-0.55,1.5
		c-0.167,0.133-0.467,0.199-0.9,0.199c-0.566,0-0.9,0-1,0c-0.1,0.534-0.167,1.367-0.2,2.5c-0.366,0.267-0.816,0.2-1.35-0.199
		c-0.533-0.5-0.9-0.851-1.101-1.051c-0.066,0.367-0.133,0.784-0.199,1.25c-0.134,0.267-0.517,0.367-1.15,0.301
		c-0.366-0.034-0.783-0.284-1.25-0.75c-0.467-0.434-0.85-0.667-1.15-0.7c-0.033,0.066-0.05,0.6-0.05,1.6c0,0.867-0.1,1.45-0.3,1.75
		l-0.45-0.7L82.85,27.7c-0.199-0.033-0.35-0.167-0.449-0.4H82.6l-0.25-0.1c-0.166-0.467-0.199-1.233-0.1-2.3
		c0.066-1.267,0.1-1.95,0.1-2.051c-0.333,0.467-0.6,0.784-0.8,0.95c-0.333,0.3-0.717,0.367-1.149,0.2
		c-0.101-0.4,0.05-1.283,0.449-2.65c0.367-1.267,0.45-2.033,0.25-2.3c-0.6,0.867-0.949,1.367-1.05,1.5c-0.5,0.566-1,0.867-1.5,0.9
		c-0.333-0.967-0.083-1.967,0.75-3c0.5-0.567,1.283-1.367,2.351-2.4L79.9,16.7z M85,12.3l-0.1-0.65c0,0.5-0.034,0.867-0.101,1.1
		c-1-0.667-1.684-0.633-2.05,0.1c-0.333,0.7-0.184,1.483,0.45,2.35c-0.566,0-0.884,0.35-0.95,1.05c-0.1,0.6,0.15,0.95,0.75,1.05
		c0.3,0.067,0.833,0.083,1.6,0.05c-0.466,0.5-0.8,0.9-1,1.2c-0.333,0.567-0.333,1.017,0,1.35c0.233,0.267,0.551,0.333,0.95,0.2
		c0.434-0.133,0.634-0.399,0.601-0.8c1.133,0.233,1.8,0.284,2,0.15c0.399-0.267,0.5-0.833,0.3-1.7c-0.134-0.633-0.351-1.2-0.65-1.7
		c0.2,0.067,0.517,0.15,0.95,0.25c0.366,0.1,0.684,0.1,0.95,0c0.333-0.9,0.55-1.617,0.649-2.15c0.167-0.967-0.149-1.467-0.949-1.5
		c-0.233-1.133-1.317-1.7-3.25-1.7C85.05,11.35,85,11.8,85,12.3z M84.8,21.9c-0.399,0.433-0.517,0.983-0.35,1.649
		c0.566,0.101,0.883-0.133,0.95-0.7L84.8,21.9z M87.9,22.55c0.166,0.533,0.55,0.667,1.149,0.4c0.066-1.033,0.117-1.8,0.15-2.3
		L87.85,21.05C87.75,21.684,87.767,22.184,87.9,22.55z M91,19.2c0.833-0.067,1.15-0.534,0.95-1.4L89.6,18.3
		C89.733,19,90.2,19.3,91,19.2z M80.2,34.5c0,0.467,0.033,0.816,0.1,1.05c0.167,0.7,0.517,1.367,1.05,2
		c0.5,0.601,1.017,0.95,1.551,1.05c-0.667-0.1-1.317-0.6-1.95-1.5C80.35,36.167,80.1,35.3,80.2,34.5z M65.65,35.45
		c0.133,0,0.267,0,0.399,0c-0.434,0.066-0.833,0.05-1.2-0.05C65.083,35.434,65.35,35.45,65.65,35.45z M46.4,37
		c-1.667-0.2-2.233-1.3-1.7-3.3c-0.3,0.767-0.817,1.35-1.55,1.75c0.1-0.066,0.2-0.134,0.3-0.2c0.533-0.434,0.95-0.95,1.25-1.55h0.05
		c-0.267,0.934-0.2,1.7,0.2,2.3c0.233,0.366,0.6,0.667,1.1,0.9C46.15,36.934,46.267,36.967,46.4,37z M48.65,36.75
		c0.1-0.066,0.217-0.134,0.35-0.2c0.167-0.1,0.333-0.217,0.5-0.35C49.233,36.434,48.95,36.616,48.65,36.75z M27.2,35.15
		c-0.4,0.533-0.434,1.066-0.1,1.6c0.333,0.5,0.883,0.866,1.65,1.1c0.433,0.167,0.883,0.25,1.35,0.25c0.833,0,1.583-0.216,2.25-0.649
		c-1.5,1.033-3.033,1.017-4.6-0.05C26.617,36.634,26.433,35.884,27.2,35.15z M3.9,30.65c1.267,0.699,2.7,1.333,4.3,1.899
		c1.3,0.467,2.417,0.75,3.35,0.851c1,0.133,1.6,0.017,1.8-0.351c-0.367,0.733-2.067,0.584-5.1-0.45c-2.033-0.699-3.55-1.366-4.55-2
		C3.767,30.6,3.833,30.616,3.9,30.65z M13.9,26.15c0.367-0.5,1.15-0.267,2.35,0.699c0.967,0.801,2.167,1.917,3.6,3.351l-1.3-1.2
		c-1.233-0.566-2.2-0.75-2.9-0.55c0.667,0.434,1.083,0.733,1.25,0.899c0.434,0.4,0.617,0.817,0.55,1.25
		c-1.034-0.066-1.9-0.316-2.6-0.75c0.066,0.233,0.05,0.617-0.05,1.15c-1.033-0.2-1.683-0.634-1.95-1.3c0.133,0.7,0.1,1.133-0.1,1.3
		c-0.333-0.267-0.617-0.45-0.85-0.55l-0.1,0.35c-0.3-0.166-0.7-0.5-1.2-1c0,0.533-0.133,0.934-0.4,1.2
		c-0.3-0.134-0.517-0.384-0.65-0.75c-0.066-0.467-0.133-0.8-0.2-1c-0.333-0.033-0.567-0.033-0.7,0L8.6,27.8
		C8,28.134,7.467,28.15,7,27.85C6.967,27.316,7.233,26.9,7.8,26.6c0.567-0.033,1.534,0.084,2.9,0.351
		c-0.233,0.267-0.184,0.533,0.15,0.8c0.333,0.233,0.65,0.267,0.95,0.1c-0.233,0.2-0.383,0.45-0.45,0.75
		c-0.067,0.334,0.033,0.617,0.3,0.851c0.533,0.434,0.917,0.316,1.15-0.351c0.133-0.366,0.284-0.866,0.45-1.5
		c0.067-0.066,0.2-0.066,0.4,0c-0.133-0.767-0.45-1.366-0.95-1.8c-0.1-0.066-0.184-0.133-0.25-0.2
		c0.633,0.334,1.05,1.017,1.25,2.051V27.6c0.233,0.067,0.417,0,0.55-0.199C14.517,26.967,14.4,26.55,13.9,26.15z M11.85,25.45
		c-0.167,0-0.317,0.05-0.45,0.149l-0.35,0.75L10.95,27C10.983,25.9,11.283,25.384,11.85,25.45z M20.15,28.3
		c0.367,0.3,0.817,0.65,1.35,1.05c-0.133,0-0.25,0.101-0.35,0.301c-0.1,0.199-0.233,0.283-0.4,0.25L19.9,29.6
		c0.033-0.133,0.067-0.267,0.1-0.399C20.1,28.8,20.15,28.5,20.15,28.3z M29.45,22.175c0.033-0.158,0.05-0.316,0.05-0.475
		c0.033,0.066,0.083,0.2,0.15,0.399c-0.066,0-0.117,0.017-0.15,0.051C29.477,22.15,29.46,22.158,29.45,22.175z M28.4,23.5
		c-0.033,0.134-0.033,0.267,0,0.4c0.434,0.133,0.883,0.233,1.35,0.3v0.05c-0.033,0.934,0.5,1.517,1.6,1.75
		c0.7,0.167,1.167-0.083,1.4-0.75c0.133-0.4,0.2-1.116,0.2-2.15c0.066,0.4,0.216,0.717,0.45,0.95c0.267,0.3,0.583,0.417,0.95,0.351
		c0.1-0.634,0.117-1.367,0.05-2.2c0.367,0.833,1.05,1.434,2.05,1.8s1.3-0.033,0.9-1.2c0.066-0.033,0.433-0.133,1.1-0.3
		c0.466-0.134,0.733-0.35,0.8-0.65c0.2-0.633-0.35-1.116-1.65-1.449c0.833,0.066,1.25-0.217,1.25-0.851
		c0-0.533-0.417-0.883-1.25-1.05c-0.767-0.067-1.317-0.1-1.65-0.1c0.333-0.033,0.6-0.233,0.8-0.6c0.267-0.433,0.267-0.883,0-1.35
		c-0.267-0.4-0.75-0.65-1.45-0.75c-0.7-0.1-1.15,0.066-1.35,0.5c0.133-0.8-0.05-1.15-0.55-1.05c-0.467,0.067-0.9,0.35-1.3,0.85
		c-0.1-0.7-0.35-1.15-0.75-1.35c-0.333-0.167-0.7-0.117-1.1,0.15c-0.2-1.767,0.45-2.65,1.95-2.65c1.633-0.033,2.65,0.833,3.05,2.6
		c-0.3-1.467,0.05-2.267,1.05-2.4c0.934-0.1,1.684,0.25,2.25,1.05c0.4-0.7,0.867-1.066,1.4-1.1c0.6-0.066,1.066,0.383,1.4,1.35
		c0.333-0.233,0.65-0.367,0.95-0.4c0.5,0.667,0.7,1.483,0.6,2.45c-0.066,0.933-0.383,1.7-0.95,2.3c1.066-0.7,1.966-0.367,2.7,1
		c0.167,0.333,0.367,0.883,0.6,1.65c-0.3-0.867-0.55-1.484-0.75-1.851c-0.333-0.066-0.6-0.05-0.8,0.05c0.5,0.566,0.7,1.133,0.6,1.7
		c-0.133,0.601-0.533,0.867-1.2,0.8c0.233,0.134,0.383,0.334,0.45,0.601c0.067,0.233,0.034,0.467-0.1,0.7
		c-0.233,0.366-0.867,0.399-1.9,0.1c0.267,0.333,0.35,0.634,0.25,0.9c-0.066,0.199-0.233,0.333-0.5,0.399
		c1.6,1.167,2.267,2.25,2,3.25c-0.6-0.033-1.017-0.133-1.25-0.3C42.017,27.3,42,27.816,42,28.55c-0.033,0.634-0.25,1.033-0.65,1.2
		c-0.3,0.134-0.7,0.1-1.2-0.1c-0.4-0.2-0.75-0.45-1.05-0.75c0.1,1,0.1,1.983,0,2.949c-1.367,0-2.333-0.416-2.9-1.25
		c0.3,0.733,0.35,1.467,0.15,2.2c-0.333,0.033-0.667-0.1-1-0.399c-0.367-0.367-0.65-0.634-0.85-0.801
		c-0.033,0.267-0.05,0.65-0.05,1.15c-0.034,0.4-0.184,0.667-0.45,0.8c-0.3,0.167-0.75,0.066-1.35-0.3c-0.5-0.3-0.9-0.634-1.2-1
		c0.033,0.134,0,0.4-0.1,0.8c-0.3,0.101-0.6,0.066-0.9-0.1l-0.05-0.5l-0.05,0.1c-0.434,0.134-0.85,0.084-1.25-0.149
		c-0.067-0.534-0.05-0.917,0.05-1.15c-0.2,0.366-0.483,0.634-0.85,0.8c-0.333,0.167-0.65,0.2-0.95,0.101
		c0.1-0.167,0.15-0.367,0.15-0.601V31.3l-0.2-0.1c-0.066,0-0.133,0-0.2,0c0.1-0.3,0.3-0.55,0.6-0.75c-1.2,0.6-2,0.649-2.4,0.149
		c-0.333-0.399-0.133-0.933,0.6-1.6c-0.033,0.2,0.05,0.417,0.25,0.65c1.067-0.2,1.767-0.884,2.1-2.051L27.6,27.15
		c-0.267,0.233-0.5,0.433-0.7,0.6c-0.133,0-0.25-0.017-0.35-0.05c-0.033,0-0.066,0-0.1,0c0.233-0.2,0.383-0.417,0.45-0.65l-1.8,0.15
		c-0.067-0.033-0.133-0.084-0.2-0.15c0.033-0.333,0.25-0.649,0.65-0.95c0.233-0.166,0.567-0.399,1-0.699
		c-1.066,0.133-1.917,0.017-2.55-0.351c0.2-0.366,0.333-0.649,0.4-0.85c0.133-0.334,0.15-0.65,0.05-0.95
		c-0.567,0.1-1.367,0.483-2.4,1.15H22c-0.467-0.534-0.883-0.917-1.25-1.15L20.4,23c-0.467-0.434-0.9-0.85-1.3-1.25
		c0.033-0.267,0.133-0.566,0.3-0.9c0.934,0.367,1.8,0.184,2.6-0.55c0.767-0.733,1.633-0.917,2.6-0.55c-1.1-0.967-1.583-1.967-1.45-3
		c1.067,0.033,2.434,0.717,4.1,2.05l-0.1-0.05c-1.133,0.367-1.85,0.683-2.15,0.95c0.2,0.3,0.65,0.483,1.35,0.55
		c0.4,0.033,0.917,0.05,1.55,0.05c-0.367,0.5-0.633,0.884-0.8,1.15c-0.267,0.467-0.25,0.916,0.05,1.35
		C27.583,23.366,28,23.6,28.4,23.5z M30.3,15.15l-0.25-0.25c-0.3,0.267-0.466,0.567-0.5,0.9c-0.066,0.333,0.05,0.633,0.35,0.9
		l0.45,1.35c-1.067-0.233-2.083-0.333-3.05-0.3L27.25,18c0.367,0.167,0.6,0.3,0.7,0.4c-0.2,0.167-0.434,0.267-0.7,0.3
		c-0.067-0.233-0.067-0.517,0-0.85c0.1-0.4,0.15-0.667,0.15-0.8L27.7,17c-0.4-1.067-0.367-1.95,0.1-2.65
		C28.333,13.617,29.167,13.883,30.3,15.15z M52.7,26.55c-0.2-0.2-0.3-0.517-0.3-0.95c0.033-0.6,0.033-0.966,0-1.1
		c-0.867-0.1-1.383-0.167-1.55-0.2c0.1-0.434,0.333-0.899,0.7-1.399c0.2-0.301,0.517-0.717,0.95-1.25
		c-0.767,0.133-1.4,0.116-1.9-0.051c-0.133-0.8,0.233-1.75,1.1-2.85l-2.1-0.45c0-0.1,0.017-0.183,0.05-0.25
		c1.033-0.233,1.883-0.066,2.55,0.5c-0.3-1-0.367-2.417-0.2-4.25c-0.367-0.333-0.583-0.783-0.65-1.35
		c-0.067-0.6,0.05-1.184,0.35-1.75c1.066-0.1,1.933,0.383,2.6,1.45c-0.167-1.2,0.45-2.467,1.85-3.8
		c1.133,0.467,1.684,1.583,1.65,3.35c0.034-0.4,0.15-0.8,0.35-1.2c0-0.033,0.233-0.417,0.7-1.15c0.5,0.167,0.9,0.55,1.2,1.15
		c0.034,0.033,0.267,0.583,0.7,1.65c0.133-1.233,0.633-2.033,1.5-2.4c0.833-0.4,1.733-0.217,2.7,0.55l-0.75-0.45
		c-1.134-0.1-1.967,0.033-2.5,0.4c0.233,0.133,0.583,0.4,1.05,0.8c0.467,0.434,0.8,0.7,1,0.8s0.583,0.133,1.15,0.1
		c0.5-0.034,0.883,0.066,1.149,0.3c0.634,0.533,0.8,1.15,0.5,1.85c-0.267,0.6-0.8,1-1.6,1.2c1.033-0.133,1.866-0.017,2.5,0.35
		c0.767,0.4,0.967,1.05,0.6,1.95c-1.399,0.1-2.2,0.183-2.399,0.25c1.8,0.6,2.366,1.316,1.699,2.15c-0.233,0.267-0.666,0.4-1.3,0.4
		c-0.733-0.101-1.233-0.134-1.5-0.101c0.867,0.3,1.45,0.65,1.75,1.05c0.367,0.5,0.467,1.15,0.3,1.95
		c-1.033-0.2-1.733-0.383-2.1-0.55c0.467,0.3,0.8,0.783,1,1.45c0.267,0.833,0.116,1.416-0.45,1.75c-0.399,0.233-0.967,0.2-1.7-0.101
		c-0.533-0.233-1.033-0.55-1.5-0.949c-0.033,0.133-0.05,0.449-0.05,0.949c0,0.4-0.05,0.717-0.15,0.95
		c-0.733,0-1.333-0.383-1.8-1.149c-0.1,0.399-0.15,0.966-0.15,1.699c-1.333,0.233-2.284-0.216-2.85-1.35
		c-0.467,1.1-0.934,1.566-1.4,1.4c-0.434-0.134-0.684-0.75-0.75-1.851c-0.233,0.334-0.517,0.566-0.85,0.7
		c-0.367,0.167-0.717,0.116-1.05-0.15L52.7,26.55z M74.2,9.2c-0.601,0.533-0.617,0.917-0.05,1.15c0.5,0.2,1.05,0.25,1.649,0.15
		c0.167-0.5,0.084-0.933-0.25-1.3H74.2z M75.65,7.8c0.133,0.133,0.316,0.133,0.55,0c0.166-0.533,0.2-0.966,0.1-1.3l-0.7,0.7
		C75.533,7.433,75.55,7.633,75.65,7.8z M71.15,9.4c-0.067,1.9-0.084,3.05-0.051,3.45c0.567-0.067,0.967-0.517,1.2-1.35
		c0.167-0.6,0.233-1.25,0.2-1.95L71.4,9.3c0.033-0.7,0.066-1.216,0.1-1.55c0.6,0.833,1.184,0.933,1.75,0.3
		c0.6-0.6,0.55-1.25-0.15-1.95c0.2-0.167,0.517-0.4,0.95-0.7c0.3-0.3,0.4-0.633,0.3-1C73.75,4.233,73.3,4.133,73,4.1
		c-0.558-0.033-0.857,0.192-0.9,0.675c0.028-0.486-0.139-0.828-0.5-1.025C71.233,3.55,70.833,3.5,70.4,3.6
		c0.033-0.467,0.1-0.917,0.199-1.35c0.467,0.033,0.9,0.183,1.301,0.45c0.033-0.1,0.199-0.35,0.5-0.75
		c0.267-0.333,0.416-0.667,0.449-1c0.934-0.167,1.733,0.25,2.4,1.25c0.3,0.466,0.7,1.383,1.2,2.75
		C76.384,3.017,76.934,1.967,78.1,1.8c0.067,0.733,0.051,1.667-0.05,2.8c-0.066,0.633-0.166,1.583-0.3,2.85l0.2,1.15
		c0.333-0.233,0.684-0.383,1.05-0.45c-0.1,0.434-0.15,1.083-0.15,1.95c-0.566,0.133-1.449,0.05-2.649-0.25
		c-0.033,0.267-0.033,0.733,0,1.4c0,0.6-0.134,1.017-0.4,1.25s-0.833,0.217-1.7-0.05c-0.899-0.333-1.466-0.534-1.699-0.6
		c-0.067,1.267-0.117,1.95-0.15,2.05c-0.167,0.934-0.583,1.4-1.25,1.4c0.3-0.333-0.017-0.8-0.95-1.4
		c-0.399-1.333-0.616-2.033-0.649-2.1L69.25,12c-0.233-0.367-0.783-0.7-1.65-1c-0.833-0.3-1.733-0.5-2.699-0.6
		c-0.067-0.5-0.233-1.066-0.5-1.7c-0.4-0.967-0.634-1.667-0.7-2.1c0.767-0.8,1.616-0.85,2.55-0.15c-0.7-1.6-0.366-2.583,1-2.95
		c1.167-0.367,2.116-0.167,2.85,0.6c-0.133-0.133-0.267-0.233-0.399-0.3c-0.434,0.333-0.55,0.667-0.351,1
		c-0.933-0.2-1.633-0.25-2.1-0.15c0.033,0.667,0.517,1.233,1.45,1.7c-1.167-0.167-1.65,0.117-1.45,0.85
		c0.267,0.267,0.65,0.417,1.15,0.45s0.933-0.033,1.3-0.2c0.1,1.033,0.166,1.566,0.2,1.6C70.033,9.317,70.45,9.433,71.15,9.4z
		 M54.05,21.15c-0.033,0.1-0.066,0.216-0.1,0.35c0.033,0.033,0.083,0.05,0.15,0.05c0,0.267-0.017,0.566-0.05,0.9
		c0.034,0.399,0.333,0.666,0.9,0.8c0.533,0.134,0.9,0.083,1.1-0.15c0.133-0.166,0.233-0.55,0.3-1.149c0.1,0.7,0.667,1.267,1.7,1.7
		c0.934,0.366,1.767,0.5,2.5,0.399c0.133-0.967,0.1-1.983-0.1-3.05c0.667,0.333,1.133,0.55,1.4,0.65c0.6,0.166,1.034,0.05,1.3-0.351
		c0.333-0.533,0.183-1.1-0.45-1.7c-0.134-0.133-0.283-0.25-0.45-0.35c0.467-0.167,0.8-0.333,1-0.5c0.4,0,0.733-0.033,1-0.1
		c0.066-1.1,0.083-1.816,0.05-2.15c-0.233-0.033-1.033-0.05-2.4-0.05c0.8-0.267,0.984-0.65,0.55-1.15c-0.4-0.5-0.917-0.733-1.55-0.7
		l-1.8,1.2c0.1-0.4-0.283-0.983-1.15-1.75c-0.833-0.767-1.4-1.066-1.7-0.9c-0.367,0.233-0.417,0.65-0.15,1.25
		c0.167,0.367,0.4,0.833,0.7,1.4c-1.2-0.233-2.017-0.316-2.45-0.25c-0.2,0.6,0.267,1.267,1.4,2c-0.033,0.034-0.733,0.317-2.1,0.85
		c-1,0.4-1.517,0.85-1.55,1.35c-0.1,0.767,0.55,1.2,1.95,1.3C54.05,21.083,54.05,21.116,54.05,21.15z M54.55,31.5l0.05,0.2
		l-0.05,0.25V31.5z M30.35,35.15V35.05l0.1,0.15L30.35,35.15z M21.05,23.7c0.3,0.233,0.567,0.45,0.8,0.649
		c-0.067-0.033-0.133-0.05-0.2-0.05C21.45,24.066,21.25,23.866,21.05,23.7z M34.2,29.2c0.3,0.399,0.65,0.55,1.05,0.45
		c0.4-0.067,0.617-0.367,0.65-0.9l-1.65-1.25C34.117,28.467,34.1,29.033,34.2,29.2z M30.85,29.35c-0.4,0.4-0.517,0.934-0.35,1.601
		c0.4,0.066,0.733-0.101,1-0.5L30.85,29.35z M41.3,24.05l-1.2-0.75C40.4,23.934,40.8,24.184,41.3,24.05z"/>
	<path style="fill-rule:evenodd;clip-rule:evenodd;fill:#848958;" d="M85,12.3c0-0.5,0.05-0.95,0.15-1.35
		c1.933,0,3.017,0.566,3.25,1.7c0.8,0.033,1.116,0.533,0.949,1.5c-0.1,0.533-0.316,1.25-0.649,2.15c-0.267,0.1-0.584,0.1-0.95,0
		c-0.434-0.1-0.75-0.183-0.95-0.25c0.3,0.5,0.517,1.067,0.65,1.7c0.2,0.867,0.1,1.433-0.3,1.7c-0.2,0.133-0.867,0.083-2-0.15
		c0.033,0.4-0.167,0.667-0.601,0.8c-0.399,0.134-0.717,0.067-0.95-0.2c-0.333-0.333-0.333-0.783,0-1.35c0.2-0.3,0.534-0.7,1-1.2
		c-0.767,0.033-1.3,0.017-1.6-0.05c-0.6-0.1-0.85-0.45-0.75-1.05c0.066-0.7,0.384-1.05,0.95-1.05c-0.634-0.867-0.783-1.65-0.45-2.35
		c0.366-0.733,1.05-0.767,2.05-0.1c0.066-0.233,0.101-0.6,0.101-1.1L85,12.3z M99.15,24h0.05l0.55,0.05
		c1.3,0.134,2.033,0.584,2.2,1.351v0.25c-0.033,0.533-0.084,1.366-0.15,2.5c-0.267,0.1-0.55,0.116-0.85,0.05
		c0.033-0.267,0.033-0.467,0-0.601l-1.3-0.199c-0.334,0.333-0.467,0.699-0.4,1.1c-0.267,0.033-0.45-0.083-0.55-0.35
		c0-0.601-0.033-1.051-0.101-1.351c-0.199,0.167-0.466,0.283-0.8,0.351c0.033-0.034,0.066-0.067,0.101-0.101
		c0.267-0.2,0.416-0.483,0.449-0.85l0.351-1.05c-0.167,0-0.334,0.033-0.5,0.1l0.05-0.7v-0.5L99.15,24z M97,27.2
		c-0.4-0.033-0.616-0.184-0.65-0.45c-0.066-0.333,0.167-0.634,0.7-0.9c0.2-0.1,0.384-0.166,0.55-0.199
		c-0.066,0.066-0.133,0.133-0.199,0.199C97.1,26.283,96.967,26.733,97,27.2z M10.7,26.95c0.066,0,0.15,0.017,0.25,0.05l0.1-0.65
		l0.35-0.75c0.133-0.1,0.283-0.149,0.45-0.149c0.167-0.033,0.367,0.017,0.6,0.149c0.066,0.067,0.15,0.134,0.25,0.2
		c0.5,0.434,0.816,1.033,0.95,1.8c-0.2-0.066-0.333-0.066-0.4,0c-0.167,0.634-0.317,1.134-0.45,1.5
		c-0.233,0.667-0.617,0.784-1.15,0.351c-0.267-0.233-0.367-0.517-0.3-0.851c0.066-0.3,0.217-0.55,0.45-0.75
		c-0.3,0.167-0.617,0.134-0.95-0.1C10.517,27.483,10.467,27.217,10.7,26.95z M13.9,26.15c0.5,0.399,0.617,0.816,0.35,1.25
		c-0.133,0.199-0.317,0.267-0.55,0.199C13.633,26.866,13.7,26.384,13.9,26.15z M30.25,14.8c0.4-0.267,0.767-0.316,1.1-0.15
		c0.4,0.2,0.65,0.65,0.75,1.35c0.4-0.5,0.833-0.783,1.3-0.85c0.5-0.1,0.684,0.25,0.55,1.05c0.2-0.434,0.65-0.6,1.35-0.5
		c0.7,0.1,1.184,0.35,1.45,0.75c0.267,0.466,0.267,0.917,0,1.35c-0.2,0.367-0.467,0.567-0.8,0.6c0.333,0,0.883,0.033,1.65,0.1
		c0.833,0.167,1.25,0.517,1.25,1.05c0,0.634-0.417,0.917-1.25,0.851c1.3,0.333,1.85,0.816,1.65,1.449
		c-0.067,0.301-0.333,0.517-0.8,0.65c-0.667,0.167-1.034,0.267-1.1,0.3c0.4,1.167,0.1,1.566-0.9,1.2s-1.684-0.967-2.05-1.8
		c0.067,0.833,0.05,1.566-0.05,2.2c-0.367,0.066-0.684-0.051-0.95-0.351c-0.233-0.233-0.383-0.55-0.45-0.95
		c0,1.034-0.067,1.75-0.2,2.15c-0.233,0.667-0.7,0.917-1.4,0.75c-1.1-0.233-1.633-0.816-1.6-1.75V24.2c0.3,0.033,0.6,0.05,0.9,0.05
		c0.167-1,0.533-1.6,1.1-1.8L31.5,21.1c-0.9,0.434-1.517,0.767-1.85,1c-0.066-0.199-0.117-0.333-0.15-0.399
		c0,0.158-0.017,0.316-0.05,0.475V22.2c-0.6,0.399-0.95,0.833-1.05,1.3c-0.4,0.1-0.816-0.134-1.25-0.7
		c-0.3-0.434-0.316-0.883-0.05-1.35c0.167-0.267,0.433-0.65,0.8-1.15c-0.633,0-1.15-0.017-1.55-0.05C25.65,20.184,25.2,20,25,19.7
		c0.3-0.267,1.017-0.583,2.15-0.95l0.1,0.05l-0.05-0.1h0.05c0.267-0.034,0.5-0.133,0.7-0.3c-0.1-0.1-0.333-0.233-0.7-0.4l0.05-0.25
		c0.967-0.033,1.983,0.067,3.05,0.3L29.9,16.7c-0.3-0.267-0.417-0.567-0.35-0.9c0.034-0.333,0.2-0.633,0.5-0.9l0.25,0.25
		C30.267,15.017,30.25,14.9,30.25,14.8z M71.15,9.4c-0.7,0.033-1.117-0.083-1.25-0.35c-0.034-0.033-0.101-0.566-0.2-1.6
		c-0.367,0.167-0.8,0.233-1.3,0.2s-0.884-0.183-1.15-0.45c-0.2-0.733,0.283-1.017,1.45-0.85c-0.934-0.467-1.417-1.033-1.45-1.7
		c0.467-0.1,1.167-0.05,2.1,0.15c-0.199-0.333-0.083-0.667,0.351-1c0.133,0.067,0.267,0.167,0.399,0.3
		c0.067,0.066,0.134,0.15,0.2,0.25l0.05-0.75H70.4c0.433-0.1,0.833-0.05,1.199,0.15c0.361,0.197,0.528,0.539,0.5,1.025
		C72.143,4.292,72.442,4.067,73,4.1c0.3,0.033,0.75,0.133,1.35,0.3c0.101,0.367,0,0.7-0.3,1c-0.434,0.3-0.75,0.533-0.95,0.7
		c0.7,0.7,0.75,1.35,0.15,1.95c-0.566,0.633-1.15,0.534-1.75-0.3c-0.033,0.333-0.066,0.85-0.1,1.55l-0.25-0.1
		C71.15,9.267,71.15,9.333,71.15,9.4z M68.4,7.35c0.3,0.233,0.683,0.233,1.149,0c0.367-0.167,0.717-0.45,1.05-0.85h-1
		C69.2,6.733,68.8,7.017,68.4,7.35z M63.25,18.75c0.467-0.4,0.2-0.75-0.8-1.05l-2.05,0.55c-0.267,1.2,0.35,1.533,1.85,1
		c0.167,0.1,0.316,0.217,0.45,0.35c0.633,0.6,0.783,1.167,0.45,1.7c-0.267,0.4-0.7,0.517-1.3,0.351
		c-0.267-0.101-0.733-0.317-1.4-0.65c0.2,1.066,0.233,2.083,0.1,3.05c-0.733,0.101-1.566-0.033-2.5-0.399
		c-1.033-0.434-1.6-1-1.7-1.7c-0.067,0.6-0.167,0.983-0.3,1.149c-0.2,0.233-0.566,0.284-1.1,0.15c-0.567-0.134-0.867-0.4-0.9-0.8
		c0.034-0.334,0.05-0.634,0.05-0.9c1.066,0.367,2.033-0.116,2.9-1.45l-0.65-0.05c-0.567,0-1.067,0.117-1.5,0.351
		c-0.367,0.199-0.633,0.449-0.8,0.75c0-0.034,0-0.067,0-0.101c-1.4-0.1-2.05-0.533-1.95-1.3c0.033-0.5,0.55-0.95,1.55-1.35
		c1.367-0.533,2.067-0.816,2.1-0.85c-1.133-0.733-1.6-1.4-1.4-2c0.433-0.066,1.25,0.017,2.45,0.25c-0.3-0.566-0.533-1.033-0.7-1.4
		c-0.267-0.6-0.217-1.017,0.15-1.25c0.3-0.167,0.867,0.133,1.7,0.9c0.867,0.767,1.25,1.35,1.15,1.75l1.8-1.2
		c0.633-0.033,1.15,0.2,1.55,0.7c0.434,0.5,0.25,0.883-0.55,1.15c1.367,0,2.167,0.017,2.4,0.05c0.033,0.333,0.017,1.05-0.05,2.15
		C63.983,18.717,63.65,18.75,63.25,18.75z M58.3,21.5c0,0.2-0.017,0.483-0.05,0.85c0,0.301,0.033,0.567,0.1,0.801
		c0.467-0.034,0.767-0.25,0.9-0.65c0.067-0.267,0.083-0.7,0.05-1.3L58.3,21.5z"/>
	<path style="fill-rule:evenodd;clip-rule:evenodd;fill:#939865;" d="M104.4,26c0,0.533-0.25,0.833-0.75,0.9
		c-0.667,0.066-0.884-0.334-0.65-1.2l1.35-0.15c0.034,0.134,0.051,0.267,0.051,0.4V26z M91,19.2c-0.8,0.1-1.267-0.2-1.4-0.9
		l2.351-0.5C92.15,18.667,91.833,19.133,91,19.2z M87.9,22.55c-0.134-0.366-0.15-0.866-0.051-1.5L89.2,20.65
		c-0.033,0.5-0.084,1.267-0.15,2.3C88.45,23.217,88.066,23.083,87.9,22.55z M84.8,21.9L85.4,22.85
		c-0.067,0.567-0.384,0.801-0.95,0.7C84.283,22.884,84.4,22.333,84.8,21.9z M97.8,27.15c-0.233,0.166-0.5,0.216-0.8,0.149
		c0-0.033,0-0.066,0-0.1c-0.033-0.467,0.1-0.917,0.4-1.351c0.066-0.066,0.133-0.133,0.199-0.199c0.167-0.2,0.367-0.334,0.601-0.4
		c0.166-0.066,0.333-0.1,0.5-0.1L98.35,26.2c-0.033,0.366-0.183,0.649-0.449,0.85C97.866,27.083,97.833,27.116,97.8,27.15z
		 M100.95,28.2c0,0.1-0.017,0.217-0.05,0.35c-0.567,0.167-1.101,0.217-1.601,0.15c-0.033-0.066-0.05-0.134-0.05-0.2
		c-0.066-0.4,0.066-0.767,0.4-1.1l1.3,0.199C100.983,27.733,100.983,27.934,100.95,28.2z M71.15,9.4c0-0.066,0-0.133,0-0.2l0.25,0.1
		l1.1,0.25c0.033,0.7-0.033,1.35-0.2,1.95c-0.233,0.833-0.633,1.283-1.2,1.35C71.066,12.45,71.083,11.3,71.15,9.4z M75.65,7.8
		C75.55,7.633,75.533,7.433,75.6,7.2l0.7-0.7c0.101,0.333,0.066,0.767-0.1,1.3C75.967,7.933,75.783,7.933,75.65,7.8z M74.2,9.2h1.35
		c0.334,0.367,0.417,0.8,0.25,1.3c-0.6,0.1-1.149,0.05-1.649-0.15C73.583,10.117,73.6,9.733,74.2,9.2z M68.4,7.35
		C68.8,7.017,69.2,6.733,69.6,6.5h1c-0.333,0.4-0.683,0.683-1.05,0.85C69.083,7.583,68.7,7.583,68.4,7.35z M54.1,21.55
		c-0.067,0-0.117-0.017-0.15-0.05c0.033-0.134,0.066-0.25,0.1-0.35c0.167-0.301,0.434-0.551,0.8-0.75
		c0.433-0.233,0.933-0.351,1.5-0.351L57,20.1C56.133,21.434,55.167,21.917,54.1,21.55z M63.25,18.75c-0.2,0.167-0.533,0.333-1,0.5
		c-1.5,0.533-2.117,0.2-1.85-1l2.05-0.55C63.45,18,63.717,18.35,63.25,18.75z M58.3,21.5l1-0.3c0.034,0.6,0.017,1.033-0.05,1.3
		c-0.133,0.4-0.433,0.616-0.9,0.65c-0.067-0.233-0.1-0.5-0.1-0.801C58.283,21.983,58.3,21.7,58.3,21.5z M25.9,29
		c0-0.267,0.133-0.517,0.4-0.75c0.133-0.134,0.333-0.3,0.6-0.5c0.2-0.167,0.434-0.366,0.7-0.6l0.65,0.449
		c-0.333,1.167-1.033,1.851-2.1,2.051C25.95,29.417,25.867,29.2,25.9,29z M28.4,23.5c0.1-0.467,0.45-0.9,1.05-1.3v-0.025
		c0.01-0.017,0.027-0.024,0.05-0.024c0.033-0.034,0.083-0.051,0.15-0.051c0.333-0.233,0.95-0.566,1.85-1l0.25,1.351
		c-0.567,0.2-0.933,0.8-1.1,1.8c-0.3,0-0.6-0.017-0.9-0.05c-0.467-0.066-0.917-0.167-1.35-0.3
		C28.367,23.767,28.367,23.634,28.4,23.5z M30.85,29.35l0.65,1.101c-0.267,0.399-0.6,0.566-1,0.5
		C30.333,30.283,30.45,29.75,30.85,29.35z M34.2,29.2c-0.1-0.167-0.083-0.733,0.05-1.7l1.65,1.25c-0.033,0.533-0.25,0.833-0.65,0.9
		C34.85,29.75,34.5,29.6,34.2,29.2z"/>
</g>
</svg>
