<?xml version="1.0" encoding="iso-8859-1"?>
<!-- Generator: Adobe Illustrator 15.1.0, SVG Export Plug-In . SVG Version: 6.00 Build 0)  -->
<!DOCTYPE svg PUBLIC "-//W3C//DTD SVG 1.1//EN" "http://www.w3.org/Graphics/SVG/1.1/DTD/svg11.dtd">
<svg version="1.1" id="Layer_1" xmlns="http://www.w3.org/2000/svg" xmlns:xlink="http://www.w3.org/1999/xlink" x="0px" y="0px"
	 width="85.4px" height="37.75px" viewBox="0 0 85.4 37.75" style="enable-background:new 0 0 85.4 37.75;" xml:space="preserve">
<g>
	<path style="fill-rule:evenodd;clip-rule:evenodd;fill:#414428;" d="M81.9,24.65c-0.034,0.133-0.067,0.3-0.101,0.5
		c-0.1,0.5-0.116,0.816-0.05,0.949c0.1,0.233,0.483,0.601,1.15,1.101c0.5,0.366,0.683,0.816,0.55,1.35
		c-1.467,0.2-3.533,0.334-6.2,0.4C74.184,29.017,72.1,29.1,71,29.2L70.9,30c-1.867,0.467-3.351,0.816-4.45,1.05
		c-2,0.4-3.283,0.084-3.851-0.95c0.067,1.167-0.3,2.167-1.1,3c-0.434,0.267-0.967,0.483-1.6,0.65
		c-0.101,0.167-0.184,0.517-0.25,1.05c-0.034,0.467-0.117,0.783-0.25,0.95c-0.534,0.7-1.334,0.967-2.4,0.8
		c-1.267-0.3-2.217-0.467-2.85-0.5c0-0.133-0.084-0.35-0.25-0.649c-0.167-0.334-0.267-0.551-0.301-0.65c-0.267,0.2-0.6,0.634-1,1.3
		c-0.399,0.601-0.733,0.967-1,1.101c-0.733,0.333-1.6,0.366-2.6,0.1c-1.066-0.267-1.733-0.75-2-1.45
		c-0.967,0.334-1.816,0.467-2.55,0.4c-0.9-0.066-1.4-0.4-1.5-1c-0.066,0.366-0.367,0.666-0.9,0.899c-0.833,0.233-1.383,0.4-1.65,0.5
		c-1.233,0.567-2.2,0.934-2.9,1.101c-1.333,0.267-2.033-0.217-2.1-1.45c-0.933,0.733-1.733,1-2.4,0.8
		c0.133-0.767,0.617-1.533,1.45-2.3c-0.633,0.434-1.467,0.533-2.5,0.3c-0.067-0.733,0.267-1.316,1-1.75c-1,0.367-2,0.45-3,0.25
		c0.133-0.666,0.417-1.35,0.85-2.05c-0.533,0.5-1.183,0.634-1.95,0.4c-0.4,0.699-0.883,1.216-1.45,1.55
		c-0.733,0.399-1.383,0.333-1.95-0.2c-0.333,1-1.184,1.634-2.55,1.9c-1.1,0.233-2.25,0.199-3.45-0.101
		c0.033-0.633,0.167-1.1,0.4-1.399c-1.7,0.5-2.684,0.783-2.95,0.85c-1.167,0.267-2.167,0.283-3,0.05c0.1-0.1,0.184-0.3,0.25-0.6
		c0.033-0.134,0.25-0.25,0.65-0.351C13.767,33.667,13,33.7,12.5,33.7c-0.9-0.033-1.583-0.233-2.05-0.601l0.75-0.5
		C9.7,32.7,7.783,32.566,5.45,32.2C2.483,31.7,0.667,31.434,0,31.4c0.667-0.967,2.517-1.733,5.55-2.301
		c0.4,0.2,1.133,0.301,2.2,0.301c-0.467,0.699-0.3,1.1,0.5,1.199C8.65,30.667,9.3,30.7,10.2,30.7c-0.233,1.133,0.733,1.666,2.9,1.6
		c0.767-0.033,2.217-0.233,4.35-0.6V32.1c0.466,0.4,1.2,0.534,2.2,0.4c0.867-0.1,1.583-0.316,2.15-0.65
		c0.167-0.1,0.45-0.316,0.85-0.649l1.2,0.2c0.933,0.066,1.85,0.017,2.75-0.15c0.3-0.033,0.917-0.25,1.85-0.65
		c1.1-0.399,1.867-0.466,2.3-0.199c0.2,0.133,0.317,0.283,0.35,0.449c0.033,0.101,0.05,0.233,0.05,0.4l0.1,0.2l0.4,0.25
		c0.434,0.2,1.117,0.267,2.05,0.2c-0.2,0.8,0.1,1.25,0.9,1.35l1.95,0.15c0.5,0.1,0.55,0.5,0.15,1.199
		c0.733,0.067,1.283,0.084,1.65,0.051l1.8-0.15c0.7-0.1,1.35-0.316,1.95-0.65c0.034,0,0.067,0,0.101,0l0.1-0.1
		c0.101,0,0.601,0.116,1.5,0.35c0.601,0.167,1.101,0.034,1.5-0.399c0.3-0.3,0.517-0.867,0.65-1.7c0.133-0.833,0.133-1.467,0-1.9
		l-0.2-0.449c-0.366-0.467-0.566-0.733-0.6-0.801c-0.067-0.166-0.017-0.5,0.149-1c0.2-0.566,0.3-0.949,0.3-1.149l-0.1-0.351
		c0.033,0,0.283-0.017,0.75-0.05c0.333-0.033,0.566,0.017,0.7,0.15c0.166,0.166,0.184,0.583,0.05,1.25
		c-0.066,0.333-0.184,0.733-0.35,1.2C46.95,29.1,47.4,29.167,48,29.1c0.667-0.033,1.116-0.017,1.35,0.051
		c0,0.066-0.149,0.517-0.449,1.35c-0.167,0.5-0.217,0.95-0.15,1.35c0.767,0.067,1.35,0.101,1.75,0.101
		c0.7-0.033,1.25-0.184,1.65-0.45c-0.534,0.833-0.551,1.45-0.051,1.85c0.334,0.267,0.867,0.217,1.601-0.149
		c0.399-0.167,0.883-0.434,1.45-0.8c0.399-0.167,0.616-0.284,0.649-0.351c0.033,0,0.3,0.101,0.8,0.3
		c1.367,0.434,2.634,0.517,3.801,0.25c1.399-0.366,2.1-1.199,2.1-2.5c0-0.666,0-1.017,0-1.05c0.033-0.066,0.2-0.3,0.5-0.7l1.1-1.699
		l0.601-1l0.1,0.199l0.3,0.75c0.134,0.134,0.45,0.233,0.95,0.301c0.601,0.1,1.3,0.033,2.101-0.2c0.866-0.233,1.483-0.584,1.85-1.05
		c-0.1,0.166-0.283,0.433-0.55,0.8c-0.233,0.366-0.316,0.666-0.25,0.899c1.267,0.134,2.2-0.433,2.8-1.699
		c0.833,0.767,1.434,0.733,1.8-0.101c0.367-0.8,0.184-1.533-0.55-2.2c0.634,0.034,1.066-0.033,1.3-0.199
		c0.267-0.2,0.267-0.617,0-1.25c0.267-0.134,0.417-0.367,0.45-0.7c-0.033-0.367-0.05-0.65-0.05-0.851
		c0.333-1.133,0.517-2.016,0.55-2.649c0.1-0.034,0.217-0.067,0.35-0.1c0.034,0,0.067,0,0.101,0c0.934,0,1.866-0.05,2.8-0.15
		l0.1,0.15c0.101,0.2,0.184,0.5,0.25,0.9c0.034,0.367,0.117,0.65,0.25,0.85c-0.033,0.4,0.051,0.784,0.25,1.15
		c0.767,0.167,1.601,0.483,2.5,0.95c0.233,0.399,0.301,0.833,0.2,1.3c0,0.033,0,0.066,0,0.1c-0.2-0.033-0.399-0.033-0.6,0
		c-0.7,0.067-1.467,0.25-2.3,0.551c-1.067,0.366-1.717,0.767-1.95,1.199l-1.55,0.95c0.233-0.066,0.583-0.116,1.05-0.149
		c0.5-0.101,1.217-0.267,2.149-0.5c0.801-0.167,1.5-0.267,2.101-0.301C81.434,24.6,81.667,24.616,81.9,24.65z M42.75,21.85
		c0.467-0.1,0.8,0.134,1,0.7c0.033,0.2,0.1,0.717,0.2,1.55L44,24.6l1.15-0.199L45.3,24.35h0.15c0.399-0.066,0.649,0.017,0.75,0.25
		l0.05,0.351c-0.066,0.333-0.316,0.783-0.75,1.35l-0.05-0.2c-0.134-0.166-0.316-0.316-0.55-0.449
		c-0.233-0.134-0.417-0.25-0.551-0.351c-0.3-0.166-0.517-0.434-0.649-0.8l-0.2-0.45L43.45,23.9c-0.334-1-0.533-1.551-0.601-1.65
		l-0.149-0.2L42.6,21.9L42.7,21.85H42.75z"/>
	<path style="fill-rule:evenodd;clip-rule:evenodd;fill:#585D3B;" d="M81.9,24.65c-0.233-0.034-0.467-0.051-0.7-0.051
		C80.6,24.634,79.9,24.733,79.1,24.9c-0.933,0.233-1.649,0.399-2.149,0.5c-0.467,0.033-0.816,0.083-1.05,0.149l1.55-0.95
		c0.233-0.433,0.883-0.833,1.95-1.199c0.833-0.301,1.6-0.483,2.3-0.551c0.2-0.033,0.399-0.033,0.6,0
		c0.601,0.034,1.15,0.301,1.65,0.801c0.233,0.267,0.717,0.949,1.45,2.05c-0.4-0.066-1.084-0.3-2.051-0.7
		C82.816,24.8,82.333,24.684,81.9,24.65z M69.65,7c0.166,0.333,0.283,0.667,0.35,1c0.066,0.3,0.083,0.617,0.05,0.95
		c0.934-0.534,1.917-0.5,2.95,0.1c0.9,0.5,1.417,1.2,1.55,2.1c0.134-0.566,0.217-1.3,0.25-2.2c0-1.1,0.066-1.883,0.2-2.35
		c0.5,0.733,0.583,2.233,0.25,4.5c0,0.033-0.05,0.183-0.15,0.45c0.267,0,0.517,0.05,0.75,0.15c0.067-0.034,0.134-0.083,0.2-0.15
		c0.334-0.2,1.334-0.75,3-1.65c-0.1,0.567-0.55,1.283-1.35,2.15c-0.033,0.934-0.101,1.633-0.2,2.1c-0.1,0.367-0.167,0.7-0.2,1
		c0.033,0.267,0.084,0.55,0.15,0.85v0.1l0.05,0.05c0.033,0.033,0.083,0.083,0.15,0.15c0.399,0,0.816,0.017,1.25,0.05
		c2.833,0.267,4,1.083,3.5,2.45c-0.634-0.633-1.284-1.05-1.95-1.25c-0.367-0.1-0.95-0.167-1.75-0.2l0.05,0.05v0.05
		c-0.934,0.1-1.866,0.15-2.8,0.15c-0.033,0-0.066,0-0.101,0c-0.133,0.033-0.25,0.066-0.35,0.1c-0.033,0.633-0.217,1.517-0.55,2.649
		c0,0.2,0.017,0.483,0.05,0.851c-0.033,0.333-0.184,0.566-0.45,0.7c0.267,0.633,0.267,1.05,0,1.25
		c-0.233,0.166-0.666,0.233-1.3,0.199c0.733,0.667,0.917,1.4,0.55,2.2c-0.366,0.834-0.967,0.867-1.8,0.101
		c-0.6,1.267-1.533,1.833-2.8,1.699c-0.066-0.233,0.017-0.533,0.25-0.899c0.267-0.367,0.45-0.634,0.55-0.8
		c-0.366,0.466-0.983,0.816-1.85,1.05c-0.801,0.233-1.5,0.3-2.101,0.2c-0.5-0.067-0.816-0.167-0.95-0.301l-0.3-0.75L65,24.45
		c0.767,0.833,1.316,0.7,1.65-0.4c0.233-0.767,0.333-1.649,0.3-2.649c0.033,0.433,0.233,0.767,0.6,1
		c0.367,0.199,0.75,0.166,1.15-0.101c0.2-0.133,0.366-0.533,0.5-1.2c0.1-0.466,0.416-0.633,0.95-0.5c0.166-0.5,0.033-1.116-0.4-1.85
		c-0.434-0.667-0.717-1.133-0.85-1.4c-0.233-0.5-0.2-0.883,0.1-1.15c0.134,0.167,0.316,0.283,0.55,0.35
		c0.267,0.1,0.566,0.117,0.9,0.05l0.25-3.05c0.133-1.167-0.017-2.517-0.45-4.05c-0.066-0.2-0.333-0.683-0.8-1.45
		c-0.4-0.6-0.584-1.083-0.55-1.45L69.3,6.45C69.434,6.617,69.55,6.8,69.65,7z M45.15,24.4L44,24.6l-0.05-0.5
		c0.366,0.067,0.767,0.034,1.2-0.1V24.4z M46.25,24.95c0.267,0,0.783-0.017,1.55-0.05c0.634-0.067,1.033-0.067,1.2,0
		c-0.033,0.267-0.184,0.633-0.45,1.1c-0.267,0.533-0.434,0.9-0.5,1.1c-0.033,0.2-0.033,0.384,0,0.551l1.5-0.2
		c0.8-0.167,1.467-0.434,2-0.8c-0.467,0.666-0.75,1.383-0.85,2.149v0.8c0.767,0.167,1.583,0.167,2.45,0
		c1.3-0.166,2.233-0.666,2.8-1.5c-0.3,0.634-0.467,1.2-0.5,1.7l0.05,0.55c0.7,0.067,1.4-0.066,2.1-0.399
		c0.7-0.367,1.217-0.867,1.551-1.5c0.166-0.3,0.267-0.584,0.3-0.851c0.333,0.134,0.633,0.15,0.899,0.051
		c0.601-0.2,1.017-0.667,1.25-1.4c0.101-0.2,0.15-0.4,0.15-0.6c0.066,0.233,0.167,0.416,0.3,0.55c0.233,0.233,0.566,0.399,1,0.5
		c0.434,0.033,0.783,0.017,1.05-0.05L63,28.35c-0.3,0.4-0.467,0.634-0.5,0.7c0,0.033,0,0.384,0,1.05c0,1.301-0.7,2.134-2.1,2.5
		c-1.167,0.267-2.434,0.184-3.801-0.25c-0.5-0.199-0.767-0.3-0.8-0.3c-0.033,0.066-0.25,0.184-0.649,0.351
		c-0.567,0.366-1.051,0.633-1.45,0.8c-0.733,0.366-1.267,0.416-1.601,0.149c-0.5-0.399-0.483-1.017,0.051-1.85
		c-0.4,0.267-0.95,0.417-1.65,0.45c-0.4,0-0.983-0.033-1.75-0.101C48.684,31.45,48.733,31,48.9,30.5
		c0.3-0.833,0.449-1.283,0.449-1.35c-0.233-0.067-0.683-0.084-1.35-0.051c-0.6,0.067-1.05,0-1.35-0.199
		c0.166-0.467,0.283-0.867,0.35-1.2c0.134-0.667,0.116-1.084-0.05-1.25c-0.134-0.134-0.367-0.184-0.7-0.15
		c-0.467,0.033-0.717,0.05-0.75,0.05l0.1,0.351c-0.033-0.066-0.449-0.533-1.25-1.4c0.134,0.101,0.317,0.217,0.551,0.351
		c0.233,0.133,0.416,0.283,0.55,0.449l0.05,0.2C45.934,25.733,46.184,25.283,46.25,24.95z M45.75,29.65l0.2,0.449
		c0.133,0.434,0.133,1.067,0,1.9c-0.134,0.833-0.351,1.4-0.65,1.7C44.9,34.134,44.4,34.267,43.8,34.1
		c-0.899-0.233-1.399-0.35-1.5-0.35l-0.1,0.1c-0.033,0-0.066,0-0.101,0c-0.6,0.334-1.25,0.551-1.95,0.65l-1.8,0.15
		c-0.367,0.033-0.917,0.017-1.65-0.051c0.4-0.699,0.35-1.1-0.15-1.199c0.267-0.034,0.517-0.167,0.75-0.4
		c0.167-0.2,0.367-0.717,0.6-1.55c0.067,0.566,0.417,0.95,1.05,1.149c0.1,0.067,0.35,0.134,0.75,0.2c0.3,0.033,0.583,0.033,0.85,0
		c-0.167-0.399-0.3-0.883-0.4-1.45c-0.033-1.033-0.083-1.866-0.15-2.5c-0.067-0.699-0.133-1.216-0.2-1.55
		c-0.3-1.033-0.483-1.583-0.55-1.649c-0.167-0.134-0.567-0.184-1.2-0.15c-0.767,0.066-1.2,0.083-1.3,0.05
		c0.667-0.666,1.283-1.05,1.85-1.149c0.7-0.101,1.217,0.25,1.55,1.05c0.2,0.5,0.467,1.333,0.8,2.5c0.133,0.434,0.267,0.833,0.4,1.2
		c0.167,0.533,0.316,0.966,0.45,1.3c0.067,0.2,0.217,0.517,0.45,0.95c0-0.101,0-0.2,0-0.301l0.55,0.351
		c1.334,0.7,2.217,0.733,2.65,0.1c0.033-0.033,0.05-0.233,0.05-0.6V30.6L45.75,29.65z M31.15,31.25l0.55-0.35
		c0.033,0.199,0.017,0.466-0.05,0.8l-0.4-0.25L31.15,31.25z M5.55,29.1c0.967-0.199,2.067-0.366,3.3-0.5
		c0.467-0.066,1.117-0.183,1.95-0.35c0.167-0.033,0.333-0.066,0.5-0.1c0.434-0.067,0.817-0.117,1.15-0.15h0.2
		c-0.933-1.033-2-2.417-3.2-4.15c-0.5-0.8-0.867-1.316-1.1-1.55C7.983,22,7.667,21.9,7.4,22c-0.066,0-0.383,0.2-0.95,0.6
		c-0.833,0.634-1.284,0.983-1.35,1.051c-0.833,1-1.3,1.699-1.4,2.1c0-0.733,0-1.283,0-1.65c0.033-0.566,0.183-1.066,0.45-1.5
		c0.333-0.533,0.733-1.05,1.2-1.55c0.6-0.6,1.133-0.916,1.6-0.95c1.066-0.066,2.233,0.784,3.5,2.551c0.6,0.866,1.4,1.883,2.4,3.05
		c0.033-0.167,0.083-0.316,0.15-0.45c0.5-1.2,1.15-1.566,1.95-1.1c0.233,0.133,0.55,0.699,0.95,1.699
		c0.133,0.267,0.267,0.567,0.4,0.9c0.1,0.333,0.217,0.684,0.35,1.05c0.133,0.3,0.317,0.667,0.55,1.101
		c0.167-0.034,0.35-0.067,0.55-0.101c1.567-0.233,2.617-0.6,3.15-1.1c-0.566,0.6-0.783,1.233-0.65,1.899v0.25h0.2
		c1.133,0.167,2.066-0.066,2.8-0.699L23.2,30.85c0.933,0.167,1.966-0.25,3.1-1.25l-0.05,0.5c0.5,0.134,1.05-0.1,1.65-0.699l0.3-0.25
		L28.15,29.8c0,0.4,0.083,0.667,0.25,0.8h0.05c-0.934,0.4-1.55,0.617-1.85,0.65c-0.9,0.167-1.817,0.217-2.75,0.15l-1.2-0.2
		c-0.4,0.333-0.683,0.55-0.85,0.649c-0.566,0.334-1.283,0.551-2.15,0.65c-1,0.134-1.733,0-2.2-0.4V31.7
		c-2.133,0.366-3.583,0.566-4.35,0.6c-2.167,0.066-3.133-0.467-2.9-1.6c-0.9,0-1.55-0.033-1.95-0.101c-0.8-0.1-0.967-0.5-0.5-1.199
		C6.683,29.4,5.95,29.3,5.55,29.1z M76.75,13.05c0.066,0.2,0.134,0.45,0.2,0.75c0.033-0.066,0.066-0.133,0.1-0.2
		c0.233-0.5,0.417-0.967,0.55-1.4c-0.1,0.066-0.199,0.15-0.3,0.25C77.1,12.65,76.917,12.85,76.75,13.05z M42.7,21.85v-1l0.05,1H42.7
		z M42.85,22.25c0.101,0.5,0.284,1.05,0.551,1.65c-0.4-0.334-0.634-0.95-0.7-1.851L42.85,22.25z M14.35,27.45
		c0.066,0.1,0.15,0.2,0.25,0.3c-0.1-0.167-0.184-0.3-0.25-0.4c-0.033-0.066-0.067-0.116-0.1-0.149c-0.133-0.134-0.267-0.233-0.4-0.3
		C13.983,27.066,14.15,27.25,14.35,27.45z M12.9,28.25l0.05,0.35L13,28.65c0.067,0.133,0.283,0.233,0.65,0.3L13.6,28.9
		C13.367,28.7,13.133,28.483,12.9,28.25z M34.6,33.25c0.333-0.167,0.6-0.417,0.8-0.75c-0.033,0.434,0.1,0.7,0.4,0.8L34.6,33.25z"/>
	<path style="fill-rule:evenodd;clip-rule:evenodd;fill:#6D7247;" d="M64.8,25.85l-0.1-0.199l-0.601,1
		c-0.267,0.066-0.616,0.083-1.05,0.05c-0.434-0.101-0.767-0.267-1-0.5c-0.133-0.134-0.233-0.316-0.3-0.55
		c0,0.199-0.05,0.399-0.15,0.6c-0.233,0.733-0.649,1.2-1.25,1.4c-0.267,0.1-0.566,0.083-0.899-0.051
		c-0.033,0.267-0.134,0.551-0.3,0.851c-0.334,0.633-0.851,1.133-1.551,1.5c-0.699,0.333-1.399,0.467-2.1,0.399l-0.05-0.55
		c0.033-0.5,0.2-1.066,0.5-1.7c-0.566,0.834-1.5,1.334-2.8,1.5c-0.867,0.167-1.684,0.167-2.45,0v-0.8
		c0.1-0.767,0.383-1.483,0.85-2.149c-0.533,0.366-1.2,0.633-2,0.8l-1.5,0.2c-0.033-0.167-0.033-0.351,0-0.551
		c0.066-0.199,0.233-0.566,0.5-1.1c0.267-0.467,0.417-0.833,0.45-1.1c-0.167-0.067-0.566-0.067-1.2,0
		c-0.767,0.033-1.283,0.05-1.55,0.05L46.2,24.6c-0.101-0.233-0.351-0.316-0.75-0.25H45.3L45.15,24.4V24
		c-0.434,0.134-0.834,0.167-1.2,0.1c-0.101-0.833-0.167-1.35-0.2-1.55c-0.2-0.566-0.533-0.8-1-0.7l-0.05-1v1L42.6,21.9L42.7,22.05
		c0.066,0.9,0.3,1.517,0.7,1.851l0.1,0.149l0.2,0.45c0.133,0.366,0.35,0.634,0.649,0.8c0.801,0.867,1.217,1.334,1.25,1.4
		c0,0.2-0.1,0.583-0.3,1.149c-0.166,0.5-0.217,0.834-0.149,1c0.033,0.067,0.233,0.334,0.6,0.801L45.5,30.6v0.351
		c0,0.366-0.017,0.566-0.05,0.6c-0.434,0.634-1.316,0.601-2.65-0.1L42.25,31.1c0,0.101,0,0.2,0,0.301
		c-0.233-0.434-0.383-0.75-0.45-0.95c-0.133-0.334-0.283-0.767-0.45-1.3c1.034,0.133,2,0.116,2.9-0.051
		c0.066-0.899,0.116-1.6,0.15-2.1c0.066-0.533,0.1-0.866,0.1-1c-0.033-0.3-0.184-0.583-0.45-0.85c-0.333-0.301-0.75-0.5-1.25-0.601
		c-0.2-0.2-0.3-0.416-0.3-0.649c-0.3-0.367-0.633-0.95-1-1.75c-0.333-0.834-0.633-1.417-0.9-1.75
		c-0.467-0.601-0.733-1.034-0.8-1.301c0.967,0.367,2.117-0.417,3.45-2.35c-0.066,0.733-0.1,1.183-0.1,1.35
		c0.033,0.467,0.25,0.816,0.649,1.05c0.367,0.199,0.967,0.149,1.8-0.15c0.434-0.2,1-0.467,1.7-0.8c0.066,0.133,0.084,0.6,0.05,1.399
		c0,0.7,0.101,1.117,0.301,1.25c0.466,0.334,1.183,0.267,2.149-0.199c0.8-0.367,1.434-0.801,1.9-1.301v2.801
		c0.899,0.633,1.866,0.566,2.899-0.2c0.967-0.767,1.417-1.667,1.351-2.7c0.166,1.667,0.983,2.483,2.45,2.45
		c0.933-0.033,1.483-0.351,1.649-0.95c0.033-0.8,0.101-1.467,0.2-2c0.333,0,0.85,0.117,1.55,0.35c0.634,0.167,1.101,0.034,1.4-0.399
		c0.3-0.4,0.283-0.95-0.05-1.65c-0.167-0.4-0.4-0.767-0.7-1.1c0.333,0.267,0.717,0.316,1.149,0.15c0.967-0.367,0.884-1.167-0.25-2.4
		c0.567-0.1,0.95-0.434,1.15-1c0.033-0.133,0-0.367-0.1-0.7c-0.101-0.333-0.117-0.55-0.051-0.65c0.101-0.167,0.317-0.333,0.65-0.5
		c0.4-0.167,0.65-0.317,0.75-0.45c0.833-1,0.816-2.25-0.05-3.75V6.6c0.333,0.033,0.733-0.133,1.2-0.5
		c0.466-0.333,0.899-0.467,1.3-0.4c0.434,0.1,0.8,0.35,1.1,0.75L68.9,6.6c-0.034,0.367,0.149,0.85,0.55,1.45
		c0.467,0.767,0.733,1.25,0.8,1.45c0.434,1.533,0.583,2.883,0.45,4.05l-0.25,3.05c-0.334,0.066-0.634,0.05-0.9-0.05
		c-0.233-0.066-0.416-0.183-0.55-0.35c-0.3,0.267-0.333,0.65-0.1,1.15c0.133,0.267,0.416,0.733,0.85,1.4
		c0.434,0.733,0.566,1.35,0.4,1.85c-0.534-0.133-0.851,0.034-0.95,0.5c-0.134,0.667-0.3,1.067-0.5,1.2
		c-0.4,0.267-0.783,0.3-1.15,0.101c-0.366-0.233-0.566-0.567-0.6-1c0.033,1-0.066,1.883-0.3,2.649
		c-0.334,1.101-0.884,1.233-1.65,0.4L64.8,25.85z M34.6,33.25c-0.8-0.1-1.1-0.55-0.9-1.35c-0.934,0.066-1.617,0-2.05-0.2
		c0.067-0.334,0.083-0.601,0.05-0.8l-0.55,0.35c0-0.167-0.017-0.3-0.05-0.4c-0.033-0.166-0.15-0.316-0.35-0.449
		c-0.433-0.267-1.2-0.2-2.3,0.199H28.4c-0.167-0.133-0.25-0.399-0.25-0.8l0.05-0.649l-0.3,0.25c-0.6,0.6-1.15,0.833-1.65,0.699
		l0.05-0.5c-1.133,1-2.167,1.417-3.1,1.25l0.05-1.699c-0.733,0.633-1.667,0.866-2.8,0.699h-0.2V29.6
		c-0.133-0.666,0.083-1.3,0.65-1.899c-0.533,0.5-1.583,0.866-3.15,1.1c-0.2,0.033-0.383,0.066-0.55,0.101
		c-0.233-0.434-0.417-0.801-0.55-1.101c-0.133-0.366-0.25-0.717-0.35-1.05l1.2-0.05c0.333-0.2,0.6-0.717,0.8-1.55
		c0.167-0.767,0.534-1.284,1.1-1.551c0.2-0.066,0.567-0.1,1.1-0.1c-0.033,0.1-0.017,0.283,0.05,0.55
		c0.7,0.033,1.767,0.066,3.2,0.101c-0.167,0.1-0.35,0.316-0.55,0.649c0.3-0.033,0.5,0.017,0.6,0.15l0.35,0.45
		c0.667,0.433,1.15,0.716,1.45,0.85c0.566,0.2,1.083,0.184,1.55-0.05c0.133,0.533,0.533,0.783,1.2,0.75
		c0.667-0.033,1.117-0.267,1.35-0.7c0.867,0.467,1.45,0.75,1.75,0.85c0.867,0.233,1.367,0.017,1.5-0.649
		c0.033,1.066,0.65,1.75,1.85,2.05c1.2,0.3,2-0.05,2.4-1.05c0.267,0.1,0.816,0.383,1.65,0.85c0.367,0.2,0.75,0.384,1.15,0.55
		c0.067,0.634,0.117,1.467,0.15,2.5c0.1,0.567,0.233,1.051,0.4,1.45c-0.267,0.033-0.55,0.033-0.85,0c-0.4-0.066-0.65-0.133-0.75-0.2
		c-0.633-0.199-0.983-0.583-1.05-1.149c-0.233,0.833-0.433,1.35-0.6,1.55c-0.233,0.233-0.483,0.366-0.75,0.4L35.8,33.3
		c-0.3-0.1-0.433-0.366-0.4-0.8C35.2,32.833,34.933,33.083,34.6,33.25z M12.9,28.25c0.233,0.233,0.467,0.45,0.7,0.65l0.05,0.05
		c-0.367-0.066-0.583-0.167-0.65-0.3L12.95,28.6L12.9,28.25z M64.55,3.05V3c0.3,0.067,0.533,0.2,0.7,0.4
		C65.083,3.233,64.85,3.117,64.55,3.05z M14.35,27.45c0-0.033,0-0.066,0-0.101c0.066,0.101,0.15,0.233,0.25,0.4
		C14.5,27.65,14.417,27.55,14.35,27.45z"/>
	<path style="fill-rule:evenodd;clip-rule:evenodd;fill:#848958;" d="M78.75,17.45V17.4c0.033,0.067,0.066,0.133,0.1,0.2
		L78.75,17.45z M34.6,33.25l1.2,0.05l0.75,0.101L34.6,33.25z M69.65,7C69.55,6.8,69.434,6.617,69.3,6.45
		C69,6.05,68.634,5.8,68.2,5.7C68.8,5.8,69.283,6.233,69.65,7z M58.7,0.15c0.233,0.067,0.467,0.167,0.7,0.3
		c0.767,0.433,1.767,1.167,3,2.2c0.199,0.133,0.733,0.233,1.6,0.3c0.2,0,0.384,0.033,0.55,0.1c0,1.1,0.233,2.034,0.7,2.8L65.5,6.3
		c0-0.066,0.017-0.133,0.05-0.2c-0.033,0.267-0.033,0.433,0,0.5c0.066,0,0.117,0.017,0.15,0.05c0.866,1.5,0.883,2.75,0.05,3.75
		c-0.1,0.133-0.35,0.283-0.75,0.45c-0.333,0.167-0.55,0.333-0.65,0.5c-0.066,0.1-0.05,0.316,0.051,0.65
		c0.1,0.333,0.133,0.567,0.1,0.7c-0.2,0.566-0.583,0.9-1.15,1c1.134,1.233,1.217,2.033,0.25,2.4
		c-0.433,0.167-0.816,0.117-1.149-0.15c0.3,0.333,0.533,0.7,0.7,1.1c0.333,0.7,0.35,1.25,0.05,1.65
		c-0.3,0.434-0.767,0.566-1.4,0.399c-0.7-0.233-1.217-0.35-1.55-0.35c-0.1,0.533-0.167,1.2-0.2,2c-0.166,0.6-0.717,0.917-1.649,0.95
		c-1.467,0.033-2.284-0.783-2.45-2.45c0.066,1.033-0.384,1.934-1.351,2.7c-1.033,0.767-2,0.833-2.899,0.2V19.35
		c-0.467,0.5-1.101,0.934-1.9,1.301c-0.967,0.466-1.684,0.533-2.149,0.199c-0.2-0.133-0.301-0.55-0.301-1.25
		c0.034-0.8,0.017-1.266-0.05-1.399c-0.7,0.333-1.267,0.6-1.7,0.8c-0.833,0.3-1.433,0.35-1.8,0.15
		c-0.399-0.234-0.616-0.583-0.649-1.05c0-0.167,0.033-0.617,0.1-1.35c-1.333,1.933-2.483,2.717-3.45,2.35
		c0.067,0.267,0.333,0.7,0.8,1.301c0.267,0.333,0.566,0.916,0.9,1.75c0.367,0.8,0.7,1.383,1,1.75c0,0.233,0.1,0.449,0.3,0.649
		c0.5,0.101,0.917,0.3,1.25,0.601c0.267,0.267,0.417,0.55,0.45,0.85c0,0.134-0.033,0.467-0.1,1c-0.034,0.5-0.084,1.2-0.15,2.1
		c-0.9,0.167-1.866,0.184-2.9,0.051c-0.133-0.367-0.267-0.767-0.4-1.2c-0.333-1.167-0.6-2-0.8-2.5c-0.333-0.8-0.85-1.15-1.55-1.05
		c-0.567,0.1-1.184,0.483-1.85,1.149c0.1,0.033,0.533,0.017,1.3-0.05c0.633-0.033,1.034,0.017,1.2,0.15
		c0.067,0.066,0.25,0.616,0.55,1.649c0.067,0.334,0.133,0.851,0.2,1.55c-0.4-0.166-0.783-0.35-1.15-0.55
		c-0.833-0.467-1.383-0.75-1.65-0.85c-0.4,1-1.2,1.35-2.4,1.05c-1.2-0.3-1.816-0.983-1.85-2.05c-0.133,0.666-0.633,0.883-1.5,0.649
		c-0.3-0.1-0.883-0.383-1.75-0.85c-0.233,0.434-0.684,0.667-1.35,0.7c-0.667,0.033-1.067-0.217-1.2-0.75
		c-0.467,0.233-0.983,0.25-1.55,0.05c-0.3-0.134-0.783-0.417-1.45-0.85l-0.35-0.45c-0.1-0.134-0.3-0.184-0.6-0.15
		c0.2-0.333,0.383-0.55,0.55-0.649c-1.433-0.034-2.5-0.067-3.2-0.101c-0.066-0.267-0.083-0.45-0.05-0.55c-0.533,0-0.9,0.033-1.1,0.1
		c0.434-0.166,1.267-0.183,2.5-0.05c-0.1-1.5,0.467-2.116,1.7-1.85c0.7,0.133,1.8,0.416,3.3,0.85c-0.367,0-1.017-0.166-1.95-0.5
		c-0.267,0.267-0.45,0.533-0.55,0.8c0.434,0.467,1.45,0.684,3.05,0.65c1.6-0.033,2.767-0.283,3.5-0.75
		c-0.167,0.267-0.25,0.533-0.25,0.8c1.367,0.334,2.267,0.15,2.7-0.55c-0.2,0.6-0.25,1.217-0.15,1.85
		c0.533,0.134,0.983,0.067,1.35-0.199c0.333-0.267,0.533-0.65,0.6-1.15v1.05c0.4,0.167,0.933,0.217,1.6,0.15
		c0.733-0.066,1.2-0.267,1.4-0.601c0.167-0.3,0.2-0.666,0.1-1.1c-0.066-0.366-0.183-0.583-0.35-0.65c0.1,0,0.25,0,0.45,0
		c0.267-1.066-0.05-1.983-0.95-2.75l-0.05-0.05l-2.45-3.45l-0.45-0.15c0.033-0.534,0.267-1.317,0.7-2.35
		c0.466-1.167,0.75-1.967,0.85-2.4c0.034-0.1,0.133-0.233,0.3-0.4c0.167-0.167,0.25-0.417,0.25-0.75c-0.167-0.733-0.25-1.4-0.25-2
		c0.433-1.1,1.433-1.35,3-0.75c1.7,0.667,2.716,0.833,3.05,0.5c-0.301,0.333-0.934,0.317-1.9-0.05
		c-0.867,0.633-1.383,1.167-1.55,1.6h1.5c0,0.267-0.1,0.7-0.3,1.3c-0.2,0.533-0.25,0.967-0.15,1.3c1.133,0.433,2.4,0.517,3.8,0.25
		c-0.7,0.767-1.083,1.433-1.149,2c0.366,0.3,0.949,0.267,1.75-0.1c0.666-0.333,1.183-0.717,1.55-1.15
		c0.033,0.367,0.017,0.883-0.05,1.55c0.033,0.567,0.333,0.883,0.899,0.95c1.167,0.167,1.851-0.95,2.05-3.35
		c0,0.967,0.284,1.467,0.851,1.5c0.866,0.133,1.434-0.55,1.7-2.05c0.066,0.633,0.366,1.017,0.899,1.15
		c0.434,0.1,0.834-0.017,1.2-0.35c0.333-0.267,0.55-0.633,0.65-1.1c-0.101,1.033-0.267,1.95-0.5,2.75
		c-0.034,0.133-0.217,0.633-0.551,1.5c-0.267,0.833-0.316,1.35-0.149,1.55c0.5,0.534,1.217,0.284,2.149-0.75
		c0.767-0.833,1.217-1.533,1.351-2.1c-0.101,0.533,0.083,0.917,0.55,1.15c0.5,0.267,1.033,0.2,1.6-0.2
		c0.601-0.467,0.851-1.333,0.75-2.6C59.217,11.383,58.9,10.5,58.4,9.9c0.566,0.567,0.949,0.233,1.149-1
		c0.167-1.1-0.083-1.783-0.75-2.05c0.334,0.1,0.65,0,0.95-0.3c0.3-0.3,0.467-0.7,0.5-1.2c0-0.733-0.283-1.15-0.85-1.25
		c1.166-0.133,1.716-0.967,1.649-2.5C60.083,0.833,59.3,0.35,58.7,0.15z M39.1,13.3c0.2-0.433,0.233-1.25,0.1-2.45l-2.2,3.4
		C38.1,14.283,38.8,13.967,39.1,13.3z M63.2,8.45c0.3-0.333,0.399-0.917,0.3-1.75c-0.167-0.9-0.267-1.517-0.3-1.85l-1,3.25
		c-0.267,0.1-0.45,0.267-0.55,0.5c0.199,0.267,0.466,0.367,0.8,0.3C62.717,8.833,62.967,8.683,63.2,8.45z M46.3,1.95
		c-0.133,0.066-0.25,0.15-0.35,0.25c0.066-0.1,0.149-0.184,0.25-0.25C46.233,1.95,46.267,1.95,46.3,1.95z M42.9,4.7
		c0.066-0.567,0.233-0.983,0.5-1.25c0.333,0.1,0.616,0.267,0.85,0.5c-0.2-0.167-0.417-0.3-0.65-0.4L42.9,4.7z M45,5.15
		c-0.033,0.067-0.05,0.133-0.05,0.2c-0.033-0.233-0.066-0.434-0.101-0.6C44.884,4.883,44.934,5.017,45,5.15z M42.8,6
		c0,0.133,0,0.267,0,0.4c-0.033,0.567-0.133,1-0.3,1.3C42.667,7.367,42.767,6.8,42.8,6z M49.7,15.85c0.066,0.1,0,0.617-0.2,1.55
		c-0.167,0.667,0.066,1.017,0.7,1.05c0.533,0.033,0.916-0.317,1.149-1.05c0.2-0.6,0.25-1.183,0.15-1.75
		c-0.1-0.467-0.233-0.733-0.4-0.8c-0.133-0.067-0.517-0.067-1.149,0L49.7,15.85z M40.95,14.85l-1.5-0.25l-0.95,2.15
		c0.933,0.067,1.6-0.017,2-0.25C41,16.233,41.15,15.683,40.95,14.85z M43.5,24.05L43.4,23.9c-0.267-0.601-0.45-1.15-0.551-1.65
		c0.067,0.1,0.267,0.65,0.601,1.65L43.5,24.05z M11.3,28.15c0.133-0.034,0.267-0.067,0.4-0.101c0.267-0.033,0.517-0.05,0.75-0.05
		C12.117,28.033,11.733,28.083,11.3,28.15z"/>
	<path style="fill-rule:evenodd;clip-rule:evenodd;fill:#939865;" d="M63.2,8.45c-0.233,0.233-0.483,0.383-0.75,0.45
		c-0.334,0.067-0.601-0.033-0.8-0.3c0.1-0.233,0.283-0.4,0.55-0.5l1-3.25c0.033,0.333,0.133,0.95,0.3,1.85
		C63.6,7.533,63.5,8.117,63.2,8.45z M45,5.15c0.033-0.7,0.134-1.283,0.3-1.75l0.45-0.9c0.066-0.133,0.134-0.233,0.2-0.3
		c0.1-0.1,0.217-0.184,0.35-0.25c0-0.034,0.033-0.067,0.101-0.1c0.833-0.367,2.199-0.2,4.1,0.5C50.333,0.717,51.083-0.067,52.75,0
		c1.434,0.067,2.684,0.517,3.75,1.35c0.4-1.067,1.083-1.483,2.05-1.25l0.15,0.05c0.6,0.2,1.383,0.684,2.35,1.45
		c0.066,1.533-0.483,2.367-1.649,2.5c0.566,0.1,0.85,0.517,0.85,1.25c-0.033,0.5-0.2,0.9-0.5,1.2c-0.3,0.3-0.616,0.4-0.95,0.3
		c0.667,0.267,0.917,0.95,0.75,2.05c-0.2,1.233-0.583,1.567-1.149,1c0.5,0.6,0.816,1.483,0.949,2.65
		c0.101,1.267-0.149,2.133-0.75,2.6c-0.566,0.4-1.1,0.467-1.6,0.2c-0.467-0.233-0.65-0.617-0.55-1.15
		c-0.134,0.566-0.584,1.267-1.351,2.1c-0.933,1.034-1.649,1.284-2.149,0.75c-0.167-0.2-0.117-0.716,0.149-1.55
		c0.334-0.867,0.517-1.367,0.551-1.5c0.233-0.8,0.399-1.717,0.5-2.75c-0.101,0.467-0.317,0.833-0.65,1.1
		c-0.366,0.333-0.767,0.45-1.2,0.35c-0.533-0.133-0.833-0.517-0.899-1.15c-0.267,1.5-0.834,2.184-1.7,2.05
		c-0.566-0.033-0.851-0.533-0.851-1.5c-0.199,2.4-0.883,3.517-2.05,3.35c-0.566-0.067-0.866-0.383-0.899-0.95
		c0.066-0.667,0.083-1.183,0.05-1.55c-0.367,0.433-0.884,0.816-1.55,1.15c-0.801,0.367-1.384,0.4-1.75,0.1
		c0.066-0.567,0.449-1.233,1.149-2c-1.399,0.267-2.667,0.183-3.8-0.25c-0.1-0.333-0.05-0.767,0.15-1.3c0.2-0.6,0.3-1.033,0.3-1.3
		h-1.5c0.167-0.434,0.683-0.967,1.55-1.6c0.967,0.367,1.6,0.383,1.9,0.05l0.1-0.1c0.167-0.3,0.267-0.733,0.3-1.3
		c0-0.133,0-0.267,0-0.4V5.65c0-0.233,0.017-0.45,0.05-0.65c0-0.1,0-0.2,0-0.3H42.9L43.6,3.55c0.233,0.1,0.45,0.233,0.65,0.4L44.3,4
		c0.233,0.2,0.417,0.45,0.55,0.75c0.034,0.167,0.067,0.367,0.101,0.6C44.95,5.283,44.967,5.217,45,5.15z M40.95,14.85
		c0.2,0.833,0.05,1.383-0.45,1.65c-0.4,0.233-1.067,0.317-2,0.25l0.95-2.15L40.95,14.85z M49.7,15.85l0.25-1
		c0.633-0.067,1.017-0.067,1.149,0c0.167,0.066,0.301,0.333,0.4,0.8c0.1,0.567,0.05,1.15-0.15,1.75
		c-0.233,0.733-0.616,1.083-1.149,1.05c-0.634-0.034-0.867-0.383-0.7-1.05C49.7,16.467,49.767,15.95,49.7,15.85z M39.1,13.3
		c-0.3,0.667-1,0.983-2.1,0.95l2.2-3.4C39.333,12.05,39.3,12.867,39.1,13.3z M37.45,19.6c0.9,0.767,1.216,1.684,0.95,2.75
		c-0.2,0-0.35,0-0.45,0c0.167,0.067,0.283,0.284,0.35,0.65c0.1,0.434,0.067,0.8-0.1,1.1c-0.2,0.334-0.667,0.534-1.4,0.601
		c-0.667,0.066-1.2,0.017-1.6-0.15V23.5c-0.067,0.5-0.267,0.884-0.6,1.15c-0.367,0.267-0.817,0.333-1.35,0.199
		c-0.1-0.633-0.05-1.25,0.15-1.85c-0.433,0.7-1.333,0.884-2.7,0.55c0-0.267,0.083-0.533,0.25-0.8c-0.733,0.467-1.9,0.717-3.5,0.75
		c-1.6,0.033-2.617-0.184-3.05-0.65c0.1-0.267,0.283-0.533,0.55-0.8c0.933,0.334,1.583,0.5,1.95,0.5c0.333,0,0.917-0.1,1.75-0.3
		c0.667-0.2,1.233-0.25,1.7-0.15c0.1-1.399,0.183-2.233,0.25-2.5c0.267-1.033,0.75-1.566,1.45-1.6c0.434-0.033,0.867,0.183,1.3,0.65
		c0.533,0.534,0.917,0.833,1.15,0.9C35.433,19.684,36.417,19.7,37.45,19.6z"/>
</g>
</svg>
