<?xml version="1.0" encoding="iso-8859-1"?>
<!-- Generator: Adobe Illustrator 15.1.0, SVG Export Plug-In . SVG Version: 6.00 Build 0)  -->
<!DOCTYPE svg PUBLIC "-//W3C//DTD SVG 1.1//EN" "http://www.w3.org/Graphics/SVG/1.1/DTD/svg11.dtd">
<svg version="1.1" id="Layer_1" xmlns="http://www.w3.org/2000/svg" xmlns:xlink="http://www.w3.org/1999/xlink" x="0px" y="0px"
	 width="109.65px" height="83.95px" viewBox="0 0 109.65 83.95" style="enable-background:new 0 0 109.65 83.95;"
	 xml:space="preserve">
<g>
	<path style="fill-rule:evenodd;clip-rule:evenodd;fill:#848958;" d="M83.55,22.45c0.434-0.4,0.834-0.9,1.2-1.5
		c-1,1.033-1.85,1.8-2.55,2.3c-0.066,0.033-0.117,0.067-0.15,0.1c-0.3-0.467-0.467-0.95-0.5-1.45c-0.566,0.167-1.1,0.717-1.6,1.65
		c-0.533,0.934-1.033,1.517-1.5,1.75c-0.101-0.433-0.117-0.917-0.05-1.45c-0.134,0.7-0.417,1.3-0.851,1.8
		c-0.5,0.567-1.066,0.833-1.7,0.8c-0.14-0.225-0.173-0.424-0.1-0.6c-0.358,0.663-0.792,1.296-1.3,1.9
		c-0.7,0.867-1.351,1.417-1.95,1.65c-0.7,0.2-1.35,0.283-1.95,0.25c-0.066-0.066-0.133-0.117-0.2-0.15
		c-0.133-0.3-0.333-0.567-0.6-0.8c-0.333-0.267-0.85-0.467-1.55-0.6c0.066-0.367,0.066-0.783,0-1.25c-0.134-1-0.517-1.583-1.15-1.75
		l-1.85,2.7c-0.867-0.133-1.467-0.367-1.8-0.7l-1,1.35c1,0,1.783,0.017,2.35,0.05c-0.267,0.167-0.417,0.383-0.45,0.65
		c0.167,0.3,0.55,0.467,1.15,0.5c-0.3,0.2-0.733,0.267-1.3,0.2c0.199,0.133,0.583,0.333,1.149,0.6c0.434,0.267,0.601,0.6,0.5,1
		c-0.133,0.533-0.767,0.8-1.899,0.8c-1.2-0.067-1.967-0.117-2.301-0.15c0.534,0.066,0.65,0.316,0.351,0.75
		c-0.233,0.367-0.5,0.566-0.8,0.6c1.699,0,2.683,0.017,2.949,0.05c1.634,0.2,2.101,0.717,1.4,1.55c0.3,0.034,0.934,0.067,1.9,0.1
		l-8,0.95c1.5,0.933,3.416,1.583,5.75,1.95c1.265,0.2,2.465,0.3,3.6,0.3c-0.033,0.001-0.05,0.018-0.05,0.05
		c-0.2,0.367-0.65,0.5-1.351,0.4c-0.733-0.066-1.216,0-1.449,0.2c1.3,0.533,1.883,1.15,1.75,1.85c-0.101,0.633-0.684,0.967-1.75,1
		c0.133,0.033,0.25,0.1,0.35,0.2c0.167,0.2,0.217,0.5,0.15,0.9c-0.134,0.733-0.851,1.1-2.15,1.1c-0.3,0-0.566-0.017-0.8-0.05
		c-0.4-0.8-0.95-1.083-1.65-0.85c0.267,0.466,0.816,0.75,1.65,0.85c0.066,0.167,0.133,0.333,0.2,0.5c0.366,1.1,0.933,1.434,1.699,1
		c0.134,0.2,0.284,0.434,0.45,0.7c0,0.033,0,0.083,0,0.149l-0.25,0.5L63.65,45.1c-0.034,0.467,0.133,0.95,0.5,1.45
		c0.399,0.533,0.816,0.733,1.25,0.601c0.066,0.233,0.366,0.366,0.899,0.399c1.267,1.167,2.351,2.25,3.25,3.25
		c1.101,0.9,1.851,2.033,2.25,3.4c0,0.399-0.1,0.666-0.3,0.8c-0.233-0.267-0.483-0.45-0.75-0.55c-0.1,0.2-0.1,0.399,0,0.6
		c0.366,0.101,0.616,0.084,0.75-0.05c0.267,0.333,0.45,0.783,0.55,1.35c0.066,0.5,0.05,0.967-0.05,1.4
		c-0.934,0.134-1.65,0.134-2.15,0l-1-0.8c0.101-0.867-0.149-2.084-0.75-3.65c-0.433-1.2-1.383-2.75-2.85-4.649
		c-1.467-1.967-2.417-3.483-2.85-4.551l-4.351,1.7c-0.1,0.167-0.2,0.334-0.3,0.5c0.033-0.1,0.05-0.2,0.05-0.3
		c0.167-0.767,0.25-1.25,0.25-1.45c-0.267-0.066-0.684-0.033-1.25,0.101c-0.133,0.033-0.267,0.066-0.399,0.1c0-0.066,0-0.134,0-0.2
		c-0.067,0.066-0.117,0.134-0.15,0.2c-0.333,0.033-0.6,0.033-0.8,0c0-1-0.033-1.75-0.101-2.25c-0.333,0-0.649-0.033-0.949-0.1
		c0-0.301,0-0.617,0-0.95l-0.55,0.75c-1.1-0.567-1.583-1.934-1.45-4.1l-1.35,2.35c0.333,0.066,0.6,0.216,0.8,0.45
		c0.2,0.267,0.283,0.567,0.25,0.9c-0.1,0.5-0.4,0.8-0.9,0.9c-0.4,0.033-0.717,0.066-0.95,0.1c0.267-0.399,0.35-1.1,0.25-2.1
		c-0.067-1-0.233-1.733-0.5-2.2c-0.433-0.733-1-1.183-1.7-1.35c1.467,0.1,2.717,0.067,3.75-0.1c-0.267-0.133-0.483-0.216-0.65-0.25
		c1.934,0.2,3.784,0.15,5.55-0.15c2.7-0.433,3.85-1.383,3.45-2.85c-0.634-0.133-1.434-0.183-2.4-0.15c-1.1,0.1-1.9,0.15-2.4,0.15
		c0.767-0.033,1.45-0.35,2.051-0.95c0.6-0.6,0.833-1.283,0.699-2.05l-0.75-0.05c0.233-0.467,0.317-1.067,0.25-1.8
		c-0.066-0.667-0.233-1.233-0.5-1.7c-0.233-0.467-0.616-0.85-1.149-1.15c-0.566-0.367-0.934-0.367-1.101,0
		c-0.066-2.233-0.75-3.483-2.05-3.75c-0.5,0.7-0.9,1.633-1.2,2.8c-0.3,1.1-0.467,2.184-0.5,3.25c-0.067-0.733-0.267-1.316-0.6-1.75
		c-0.867,0.2-1.333,1.067-1.4,2.6c-0.167-1.4-0.883-2.117-2.15-2.15c-0.7,0-1.167,0.217-1.4,0.65c-0.1,0.167-0.233,0.717-0.4,1.65
		c0.133-1.1-0.2-2.183-1-3.25c-0.833-1.133-1.517-0.95-2.05,0.55c0.1-1.434,0.083-2.4-0.05-2.9c-0.267-1.167-0.966-1.65-2.1-1.45
		c-0.867,0.167-1.317,0.917-1.35,2.25c-0.067,1.367,0.333,1.983,1.2,1.85l-6,4.65c-0.4-0.733-1.45-1.3-3.15-1.7
		c-1.767-0.4-2.816-0.167-3.15,0.7c0.4,0.267,0.933,0.467,1.6,0.6c0.133,0,0.7,0.05,1.7,0.15c-0.133,0.133-0.716,0.35-1.75,0.65
		c-0.8,0.233-1.233,0.55-1.3,0.95c0.533,0.333,1.3,0.483,2.3,0.45c1.567-0.033,2.383-0.05,2.45-0.05
		c-0.033,0.033-0.867,0.316-2.5,0.85c-1.233,0.4-1.867,0.883-1.9,1.45c-0.033,0.767,0.633,1.1,2,1c-0.6,0.333-1.05,0.6-1.35,0.8
		c-0.533,0.333-0.867,0.716-1,1.15c0.967,0.2,1.85,0.133,2.65-0.2c-0.1,0.367-0.05,0.65,0.15,0.85c0.434,0.5,1.2,0.517,2.3,0.05
		c1-0.433,1.867-1.05,2.6-1.85l0.05,0.5c0.467,0.1,0.95,0,1.45-0.3c0.433-0.233,0.767-0.583,1-1.05c0.033,0.5-0.383,1.1-1.25,1.8
		c-0.833,0.733-1.217,1.367-1.15,1.9c0.5,0,1.017-0.133,1.55-0.4c-2.2,1.5-3.567,2.833-4.1,4c0.3,0.866,1.3,0.816,3-0.15
		c0.9-0.467,1.933-1.134,3.1-2c-0.567,1.434-0.283,2.017,0.85,1.75c1.066-0.233,1.983-0.783,2.75-1.65
		c-0.1,0.333-0.284,0.833-0.55,1.5c-0.133,0.534,0.067,0.884,0.6,1.051c0.467,0.133,1.033-0.167,1.7-0.9
		c0.533-0.634,0.883-1.217,1.05-1.75c-0.067,0.866,0.5,1.5,1.7,1.9c1,0.333,1.8,0.333,2.4,0c0.1,0.199,0.25,0.449,0.45,0.75
		c0.3,0.399,0.434,0.767,0.4,1.1c-0.5,0.2-1.184,0.267-2.05,0.2c-0.967-0.066-1.667-0.101-2.1-0.101c0.9,0.567,0.883,1.034-0.05,1.4
		c-0.433,0.1-0.8,0.184-1.1,0.25c-0.667,0.033-1.117,0.066-1.35,0.1c0.067,0.034,0.267,0.067,0.6,0.101
		c-0.167,0-0.283,0.017-0.35,0.05c0.733,0.6,0.65,1.083-0.25,1.45c-0.1,0.033-0.2,0.066-0.3,0.1l-3.2-1.45
		c-0.5-0.033-1.267,0.25-2.3,0.851c-1.067,0.666-1.483,1.25-1.25,1.75c0.333,0.6,0.867,0.649,1.6,0.149
		c-0.7,0.801-1.217,1.417-1.55,1.851c-0.667,0.767-1.05,1.45-1.15,2.05c0.934,0.3,1.567,0,1.9-0.9c-0.5,1.667-0.683,2.967-0.55,3.9
		c0.7,0.134,1.217-0.017,1.55-0.45c0.367,0.533,0.167,0.917-0.6,1.15c-0.9,0.267-1.483,0.033-1.75-0.7c0,0.134-0.083,0.866-0.25,2.2
		C36.1,58.983,36.017,59,35.95,59c0.033-0.4,0.066-0.9,0.1-1.5c0.067-1.066,0-1.934-0.2-2.6c-1.1,0.566-1.934,1.399-2.5,2.5
		c0.133-1.167,0.217-2.101,0.25-2.801c0.033-1.267-0.15-2.1-0.55-2.5c-0.966,0.367-1.9,1.267-2.8,2.7
		c-0.067-0.399-0.117-0.8-0.15-1.2c-0.2-1.899-0.317-3.283-0.35-4.149c1.333-0.2,2.867-0.7,4.6-1.5
		c1.367-0.667,3.267-1.717,5.7-3.15l-9.3-0.7c-1.1,0.7-2.033,1.384-2.8,2.051c-1.5,1.267-2.034,2.283-1.6,3.05
		c0.467,0.434,1.033,0.55,1.7,0.35c0.534,0.033,1.1,0,1.7-0.1l-0.55,1.2c-0.067-0.233-0.133-0.434-0.2-0.601
		c-0.467,0.634-0.767,1.566-0.9,2.8c0,0.067,0,0.134,0,0.2l-0.05,0.05h0.05c-0.133,0.9-0.133,1.801,0,2.7l-0.7-1.649V53.5l-0.05,0.6
		c-0.133-0.3-0.35-0.566-0.65-0.8c-0.067,0.134-0.233,1.15-0.5,3.05c-0.2,1.5-0.55,2.301-1.05,2.4c-0.4-0.333-0.7-0.934-0.9-1.8
		c-0.233-1.2-0.383-1.884-0.45-2.05c-0.7,1.933-1.517,2.666-2.45,2.199c-0.333-0.166-0.483-0.783-0.45-1.85
		c0.133-1.134,0.184-1.833,0.15-2.1c-0.633,0.767-1.283,1.1-1.95,1c-0.033-0.534,0.017-1.184,0.15-1.95
		c0.167-0.867,0.283-1.517,0.35-1.95c-0.867,1.2-1.55,2.05-2.05,2.55c-0.933,0.9-1.9,1.25-2.9,1.05
		c-0.066-0.366,0.35-1.267,1.25-2.699c0.467-0.7,0.917-1.351,1.35-1.95c1.633-2.566,2.867-4.617,3.7-6.15
		c-0.4,0.367-0.95,0.717-1.65,1.05c-0.8,0.4-1.4,0.7-1.8,0.9l-0.25-1.45c-0.4-0.2-0.75-0.366-1.05-0.5
		c0.966,0.367,1.583,0.55,1.85,0.55l-0.7,0.45l0.05,0.2l0.05,0.4c0.3-0.534,0.833-1.084,1.6-1.65l-0.95,0.6
		c-0.133-0.566-0.05-0.933,0.25-1.1c0.467-0.233,0.733-0.434,0.8-0.6c0-0.033,0.15-0.583,0.45-1.65c0.5-0.533,0.9-0.833,1.2-0.9
		c0.233-0.067,0.817-0.033,1.75,0.1c-0.033-0.133-0.017-0.4,0.05-0.8c0.066-0.4,0.066-0.683,0-0.85c0.9-0.1,1.783,0,2.65,0.3
		c0.2-0.633,0.083-1.684-0.35-3.15c-0.4-1.2-0.833-2.233-1.3-3.1c0.633-0.1,1.583-0.117,2.85-0.05
		c-0.467-0.566-0.567-1.216-0.3-1.95c0.267,0,0.7-0.05,1.3-0.15c-0.934-0.967-1.684-2.133-2.25-3.5
		c-0.633-1.567-0.784-2.883-0.45-3.95c0.833,0.667,1.7,1.583,2.6,2.75c-0.2-0.9-0.3-1.783-0.3-2.65c1.3,1.833,2.133,3.316,2.5,4.45
		c0.034,0.1,0.067,0.567,0.1,1.4c0.033,0.4,0.317,0.7,0.85,0.9c0.067-0.333,0.1-0.8,0.1-1.4c0-0.7,0.017-1.167,0.05-1.4
		c0.167,0.067,0.367,0.083,0.6,0.05c0.2,0,0.35,0.017,0.45,0.05c-0.3-0.5-0.217-0.967,0.25-1.4c0.466-0.4,0.867-0.2,1.2,0.6
		c-0.066-0.233-0.083-0.517-0.05-0.85c0.033-0.4,0.05-0.7,0.05-0.9c0.934-0.3,1.733-0.233,2.4,0.2
		c-0.633-0.533-0.683-1.133-0.15-1.8c-0.333-0.667-0.783-1.083-1.35-1.25c-0.767-0.2-1.283-0.433-1.55-0.7
		c0.2-0.267,0.383-0.75,0.55-1.45c-1.133,0.133-1.716-0.15-1.75-0.85c-0.033-0.667,0.534-0.933,1.7-0.8c-0.867-0.6-1.433-1-1.7-1.2
		c-0.566-0.533-0.933-1.1-1.1-1.7c0.9-0.667,2.167-0.383,3.8,0.85c2.167,1.667,3.333,2.517,3.5,2.55l0.15-0.85
		c0.633-0.3,1.267-0.3,1.9,0l0.05,0.65c0.066-0.5,0.283-0.9,0.65-1.2c0.367-0.367,0.8-0.533,1.3-0.5c0.067,0.4,0.1,0.983,0.1,1.75
		c-0.033,0.767-0.017,1.333,0.05,1.7c0.6-0.467,0.95-0.717,1.05-0.75c0.433-0.267,0.867-0.333,1.3-0.2
		c0.233,2.267,0.417,3.55,0.55,3.85c0.467,1.1,1.6,1.617,3.4,1.55c0.1-0.633,0.15-1.45,0.15-2.45c-0.033-1.467-0.05-2.283-0.05-2.45
		c0-0.4,0.117-1.25,0.35-2.55c0.167-1.067,0.216-1.9,0.15-2.5c-0.6-1.333-1.05-2.417-1.35-3.25c-0.5-1.567-0.1-2.35,1.2-2.35
		c-0.867-0.667-1.133-1.617-0.8-2.85c0.4,0.067,0.983,0.2,1.75,0.4c0.667,0.1,1.184-0.034,1.55-0.4c0.4,0.867,0.883,1.684,1.45,2.45
		c-0.433-0.667-0.633-1.933-0.6-3.8C51.833,2.117,52.05,0.8,52.45,0l-0.3,0.85c-0.066,1.4,0.067,3.3,0.4,5.7
		c0.367,2.733,0.55,4.117,0.55,4.15c-0.267-1.167-0.5-2.017-0.7-2.55c0.033,0.7,0.017,1.75-0.05,3.15
		c0.033,1.233,0.233,2.25,0.6,3.05c-0.167,0.167-0.35,0.217-0.55,0.15c0.1,0.267,0.4,0.683,0.9,1.25c0.434,0.5,0.684,0.95,0.75,1.35
		c-0.667,0-1.216,0.133-1.65,0.4c0.033,0.667,0.684,1.283,1.95,1.85c1.067,0.433,2.167,0.7,3.301,0.8l-0.4,0.05
		c0.467,0.3,0.934,0.5,1.4,0.6c0.633,0.133,1.05,0.017,1.25-0.35c0.166,0.1,0.366,0.183,0.6,0.25c1.033,0.367,1.866,0.533,2.5,0.5
		l0.2-0.9c0.566,0.267,1.517,0.617,2.85,1.05c0.9,0.3,1.533,0.633,1.9,1c0.833,0.333,1.467,1.083,1.899,2.25l0.25-0.2
		c0.101-1.467,0.4-2.667,0.9-3.6c0.667-1.2,1.517-1.533,2.55-1c0.134,0.733,0.117,1.55-0.05,2.45c0.3-0.967,1.066-2.45,2.3-4.45
		c0.367,0.2,0.517,0.85,0.45,1.95c-0.033,0.6-0.1,1.383-0.2,2.35c0.5-0.934,0.983-1.45,1.45-1.55c0.1-0.8,0.2-1.417,0.3-1.85
		c0.167-0.7,0.434-1.217,0.8-1.55c0.301,0.367,0.45,0.567,0.45,0.6c0.101,0.2,0.134,0.483,0.101,0.85
		c0.533-0.233,1.283-0.667,2.25-1.3c1.066-0.733,1.833-1.216,2.3-1.45c0.5,0.433,0.6,1.017,0.3,1.75
		c-0.233,0.533-0.616,1.05-1.15,1.55c0.9-0.8,1.817-1.1,2.75-0.9c-0.066,1.1-0.399,2.1-1,3C84.3,21.717,83.95,22.117,83.55,22.45z
		 M99.6,67.35c0.067,0.233,0.051,0.434-0.05,0.601c0.066-0.134,0.084-0.283,0.05-0.45C99.6,67.467,99.6,67.417,99.6,67.35z
		 M103.05,70.75c-0.2,0-0.383,0-0.55,0c0.767-0.033,1.45-0.017,2.05,0.05L103.05,70.75z M13.35,72.25l-0.15,0.3
		c0.133,0.601,0.583,0.983,1.35,1.15c-0.9-0.167-1.367-0.617-1.4-1.351C13.217,72.316,13.283,72.283,13.35,72.25z M66.85,47.55
		c0.101,0,0.233,0,0.4,0c-0.066,0.066-0.134,0.117-0.2,0.15C66.983,47.667,66.917,47.616,66.85,47.55z M65.75,23.1l-1.7-0.65
		c-0.8,0.4-1.399,0.983-1.8,1.75c0.5,0.4,1.25,0.5,2.25,0.3C65.533,24.3,65.95,23.833,65.75,23.1z M58.65,19.5
		c0.1,0.2,0.316,0.417,0.649,0.65c-0.333-0.2-0.55-0.4-0.649-0.6V19.5z M54.85,4.25c0.134,0.6,0.233,1.25,0.301,1.95
		c0.133,1.5,0.316,3.767,0.55,6.8c-0.2-0.9-0.351-2.517-0.45-4.85C55.184,6.583,55.05,5.283,54.85,4.25z M49.4,51.15
		c-0.066,0-0.117,0.017-0.15,0.05c0.4,0.366,0.633,0.783,0.7,1.25c0.066,0.399-0.083,0.649-0.45,0.75
		c0.067-0.134,0.133-0.283,0.2-0.45c0.133-0.3,0.15-0.566,0.05-0.8c-0.1-0.2-0.317-0.384-0.65-0.55c-0.434-0.2-0.7-0.351-0.8-0.45
		c0.1-0.167,0.233-0.267,0.4-0.3c-0.367-0.733-0.967-1.233-1.8-1.5C46.167,48.85,45.417,48.8,44.65,49c-0.167-0.1-0.3-0.167-0.4-0.2
		c1.633,0.033,2.8,0.134,3.5,0.3c0.033,0,0.1,0.034,0.2,0.101c-0.067,0-0.117,0-0.15,0c0.5,0.3,0.867,0.633,1.1,1
		C49,50.4,49.167,50.717,49.4,51.15z M70.1,61c-0.333-0.667-0.566-1.066-0.699-1.2C69.267,60.434,69.5,60.833,70.1,61z M68.8,57.1
		c0.233,0.301,0.584,0.517,1.05,0.65c1.367,1.3,1.867,2.417,1.5,3.35C70.95,61.2,70.533,61.167,70.1,61c0.667,1.767,0.667,2.9,0,3.4
		c-0.8,0.6-1.833,0.1-3.1-1.5c-0.134,0.267-0.25,0.916-0.35,1.949c-0.167,0.9-0.567,1.351-1.2,1.351
		c-0.566-0.033-0.983-0.55-1.25-1.55c-0.167-1.167-0.3-1.917-0.4-2.25c-0.033,0.3-0.1,1.066-0.2,2.3
		c-0.267,1.066-0.783,1.434-1.55,1.1c-0.633-0.267-0.883-1.133-0.75-2.6c-0.166,0.6-0.483,1.05-0.95,1.35
		c-0.5,0.334-1.017,0.334-1.55,0c-0.399-0.233-0.583-0.85-0.55-1.85c0.134-1.101,0.2-1.834,0.2-2.2
		c-0.167,0.434-0.417,0.783-0.75,1.05c-0.4,0.267-0.8,0.334-1.2,0.2c0.167-0.134,0.333-0.233,0.5-0.3c-0.233,0-0.434-0.05-0.6-0.15
		c-0.067-0.7,0.017-1.566,0.25-2.6c0-0.066,0.017-0.15,0.05-0.25c0.066-0.033,0.133-0.066,0.2-0.101c0.8-0.433,1.267-0.8,1.399-1.1
		c-0.033-0.033-0.467-0.283-1.3-0.75c0.033-0.333,0.05-0.616,0.05-0.85c-0.5,0.066-0.916,0.116-1.25,0.149
		c-0.566-0.434-0.833-0.916-0.8-1.45c0.033-0.899,0.717-1.566,2.05-2c-0.333-0.267-0.583-0.466-0.75-0.6
		c0.233-0.033,0.483-0.033,0.75,0c0.134-0.533,0.117-0.967-0.05-1.3c-0.134-0.334-0.417-0.65-0.85-0.95
		c0.033-0.033,0.066-0.066,0.1-0.1c0.3-0.167,0.767-0.217,1.4-0.15c0.267,0.033,0.5,0.05,0.699,0.05c-0.333,1-0.483,2.066-0.449,3.2
		c0.033,1.634,0.633,1.833,1.8,0.6c0.333,0.2,0.616,0.551,0.85,1.051c0.3,0.566,0.517,0.933,0.65,1.1c0.533,0.6,1.7,1.283,3.5,2.05
		c1.967,0.867,3.2,1.066,3.7,0.601C68.6,57.733,68.733,57.467,68.8,57.1z M70.4,29.65c0.033,0,0.083,0,0.149,0
		c0.7,0.533,1.233,1.067,1.601,1.6c0.3,0.433,0.416,0.783,0.35,1.05c-0.033-0.066-0.066-0.117-0.1-0.15
		c-0.367-0.3-1.034-0.55-2-0.75c0.033-0.733,0.033-1.25,0-1.55C70.4,29.783,70.4,29.717,70.4,29.65z M74.5,35.3
		c0,0.2-0.017,0.4-0.05,0.6c-0.255-0.063-0.496-0.097-0.726-0.1c0.167-0.002,0.375-0.019,0.625-0.05
		C74.417,35.583,74.467,35.433,74.5,35.3z M74.2,34.45c-0.033-0.034-0.084-0.067-0.15-0.1c-0.233-0.133-0.783-0.233-1.649-0.3
		c0.267-0.433,0.383-0.816,0.35-1.15C73.45,33.433,73.934,33.95,74.2,34.45z M38.85,56.2c0.066-0.134,0.117-0.267,0.15-0.4
		c0.167-1.133,0.333-1.967,0.5-2.5c0.2,1.733,0.35,2.783,0.45,3.15v0.05C39.55,56.467,39.183,56.366,38.85,56.2z M10.15,49.8
		c0.1,0.3,0.15,0.717,0.15,1.25c-0.066-0.166-0.1-0.316-0.1-0.45C10.167,50.1,10.15,49.833,10.15,49.8z M10.2,56.9
		C9.9,56.934,9.6,57,9.3,57.1c-0.733,0.2-1.35,0.284-1.85,0.25c0.5,0,1.2-0.116,2.1-0.35C9.75,56.934,9.967,56.9,10.2,56.9z
		 M11.15,68.3l0.7,0.2c0.367,0.066,0.65,0.15,0.85,0.25C12.167,68.616,11.65,68.467,11.15,68.3z M4.9,63.7
		c-1.133-0.5-1.967-0.934-2.5-1.3c-0.367-0.233-0.65-0.483-0.85-0.75c0.267,0.333,0.667,0.649,1.2,0.949L4.9,63.7z M3.925,63.775
		L3.9,63.8c-0.2,0.101-0.35,0.233-0.45,0.4C3.571,63.988,3.729,63.847,3.925,63.775z M50,53.55c-0.233-0.033-0.483-0.083-0.75-0.149
		c0.033-0.034,0.083-0.067,0.15-0.101C49.567,53.366,49.767,53.45,50,53.55z M49.85,56.95c0.167,0.267,0.283,0.533,0.35,0.8
		c-0.1-0.134-0.25-0.233-0.45-0.3c-0.3-0.066-0.55-0.117-0.75-0.15c0-0.133,0-0.25,0-0.35c0.167,0,0.367,0,0.6,0
		C49.7,56.95,49.783,56.95,49.85,56.95z M50.5,55.7c-0.067-0.101-0.15-0.2-0.25-0.3c-0.267-0.301-0.583-0.517-0.95-0.65
		c0.167,0,0.434,0,0.8,0c0.3-0.033,0.533-0.116,0.7-0.25c-0.1-0.366-0.2-0.616-0.3-0.75c0.333,0.134,0.533,0.384,0.6,0.75
		C51.2,55.1,51,55.5,50.5,55.7z"/>
	<path style="fill-rule:evenodd;clip-rule:evenodd;fill:#6D7247;" d="M59.3,20.15c0.167,0.1,0.367,0.2,0.601,0.3
		c-0.2,0.367-0.617,0.483-1.25,0.35c-0.467-0.1-0.934-0.3-1.4-0.6l0.4-0.05c-1.134-0.1-2.233-0.367-3.301-0.8
		c-1.266-0.567-1.917-1.184-1.95-1.85c0.434-0.267,0.983-0.4,1.65-0.4c-0.066-0.4-0.316-0.85-0.75-1.35
		c-0.5-0.567-0.8-0.983-0.9-1.25c0.2,0.067,0.383,0.017,0.55-0.15c-0.367-0.8-0.567-1.817-0.6-3.05c0.066-1.4,0.083-2.45,0.05-3.15
		c0.2,0.533,0.434,1.383,0.7,2.55c0-0.034-0.184-1.417-0.55-4.15c-0.333-2.4-0.466-4.3-0.4-5.7L52.45,0
		c0.966,0.9,1.684,2.033,2.149,3.4c-0.399,0.434-0.667,1.317-0.8,2.65c-0.066,0.833-0.083,1.667-0.05,2.5c0,0.6,0.167,1.233,0.5,1.9
		c0.467,0.867,0.733,1.433,0.8,1.7c0.066,0.2,0.15,0.367,0.25,0.5c0.066,0.067,0.101,0.217,0.101,0.45c0,0.1-0.067,0.3-0.2,0.6
		c-0.167,0.3-0.217,0.55-0.15,0.75c0.066,0.267,0.167,0.417,0.3,0.45c0.134,0.033,0.233,0.1,0.301,0.2
		c0.3-0.067,0.533,0.033,0.699,0.3c0,0.4-0.066,0.783-0.199,1.15c-0.034,1.233-0.034,1.883,0,1.95
		c0.133,0.433,0.683,0.733,1.649,0.9l0.851,0.15C58.75,19.75,58.967,19.95,59.3,20.15z M18.05,43.6h0.05l0.95-0.6
		c-0.767,0.566-1.3,1.116-1.6,1.65l-0.05-0.4l-0.05-0.2L18.05,43.6z M28.1,53.05c0-0.066,0-0.133,0-0.2
		c0.133-1.233,0.433-2.166,0.9-2.8c0.067,0.167,0.133,0.367,0.2,0.601L28.1,53.05z M27.05,58.7c-0.2,0.066-0.417,0.1-0.65,0.1
		c-0.767-0.033-1.333-0.017-1.7,0.05c1.133,2.467,0.683,3.351-1.35,2.65c-1.4-0.5-2.583-1.233-3.55-2.2
		c0,0.033,0.017,0.084,0.05,0.15c0.367,0.7,0.45,1.267,0.25,1.7c-0.1,0.233-0.4,0.517-0.9,0.85c-0.367,0.233-0.55,0.6-0.55,1.1
		c-0.6,0.167-1.1,0.134-1.5-0.1c-0.066-0.233-0.1-0.517-0.1-0.85L17,62.4c-1.4,0.3-2.167-0.351-2.3-1.95
		c-0.067,0.467-0.35,0.783-0.85,0.95c-0.434-0.7-0.583-1.784-0.45-3.25c-0.3,1.199-0.75,2.066-1.35,2.6
		c-0.6-0.634-0.816-1.917-0.65-3.85V56.85l0.3,0.101c0.133,0.033,0.267,0.066,0.4,0.1c-0.567-0.333-0.883-0.767-0.95-1.3
		c-0.1-0.5,0.033-1,0.4-1.5c-1.667-0.8-2.3-1.783-1.9-2.95c0.267,0.066,0.567,0.117,0.9,0.15c-0.066-0.033-0.15-0.15-0.25-0.351
		v-0.05c0-0.533-0.05-0.95-0.15-1.25c0.1,0.033,0.267,0.066,0.5,0.101c0.167,0.033,0.3,0.083,0.4,0.149
		c-0.466-0.399-0.583-0.916-0.35-1.55c0.367-0.7,0.6-1.25,0.7-1.65c-1.167-0.533-1.8-1.75-1.9-3.649
		c-0.133-1.833,0.217-3.2,1.05-4.1c1.667,1.6,2.333,3.1,2,4.5l0.2-0.35c0.467-0.8,1.1-1.066,1.9-0.8c0.367,0.1,0.883,0.3,1.55,0.6
		c0.3,0.134,0.65,0.3,1.05,0.5L17.5,45c0.4-0.2,1-0.5,1.8-0.9c0.7-0.333,1.25-0.683,1.65-1.05c-0.833,1.533-2.067,3.584-3.7,6.15
		c-0.433,0.6-0.883,1.25-1.35,1.95c-0.9,1.433-1.316,2.333-1.25,2.699c1,0.2,1.967-0.149,2.9-1.05c0.5-0.5,1.184-1.35,2.05-2.55
		c-0.067,0.434-0.184,1.083-0.35,1.95c-0.133,0.767-0.183,1.416-0.15,1.95c0.667,0.1,1.316-0.233,1.95-1
		c0.034,0.267-0.017,0.966-0.15,2.1c-0.033,1.066,0.117,1.684,0.45,1.85c0.933,0.467,1.75-0.267,2.45-2.199
		c0.067,0.166,0.217,0.85,0.45,2.05c0.2,0.866,0.5,1.467,0.9,1.8c0.5-0.1,0.85-0.9,1.05-2.4c0.267-1.899,0.433-2.916,0.5-3.05
		c0.3,0.233,0.517,0.5,0.65,0.8c-0.033,0.9-0.133,2.25-0.3,4.051C27.05,58.25,27.05,58.434,27.05,58.7z M27.5,58.5
		c-0.167-1.1-0.2-2.55-0.1-4.35l0.7,1.649c-0.133-0.899-0.133-1.8,0-2.7c0.667,0.267,0.867,1.134,0.6,2.601
		c-0.434,0.133-0.733,0.184-0.9,0.149c-0.033,0.134-0.017,0.534,0.05,1.2c0.033,0.566,0,0.934-0.1,1.101
		C27.683,58.283,27.6,58.4,27.5,58.5z M68.8,57.1l0.05-0.149l1,0.8c0.5,0.134,1.217,0.134,2.15,0c0.1-0.434,0.116-0.9,0.05-1.4
		c-0.1-0.566-0.283-1.017-0.55-1.35c-0.134,0.134-0.384,0.15-0.75,0.05c-0.1-0.2-0.1-0.399,0-0.6c0.267,0.1,0.517,0.283,0.75,0.55
		c0.2-0.134,0.3-0.4,0.3-0.8c-0.399-1.367-1.149-2.5-2.25-3.4c-0.899-1-1.983-2.083-3.25-3.25c0.167,0,0.351,0,0.55,0
		c0.067,0.066,0.134,0.117,0.2,0.15c0.066-0.033,0.134-0.084,0.2-0.15c0.333,0,0.75-0.017,1.25-0.05c0.066,0.1,0.134,0.2,0.2,0.3
		v1.851c0.434-0.634,0.717-1.017,0.85-1.15c0.3-0.267,0.717-0.4,1.25-0.4c0.7,0,1.15,0.217,1.351,0.65c0.3,0.8,0.483,1.233,0.55,1.3
		c0.366-0.633,0.916-0.816,1.649-0.55c0.067,0.5,0.067,1.316,0,2.45c0.067-0.5,0.434-0.851,1.101-1.05
		c0.1-0.034,0.184-0.051,0.25-0.051c0.1,0.167,0.217,0.284,0.35,0.351c0.066,0.033,0.134,0.066,0.2,0.1
		c-0.134,0.134-0.217,0.367-0.25,0.7c-0.066,0.366,0.283,0.967,1.05,1.8L77,54c0.066-0.033,0.134-0.05,0.2-0.05
		c0.033,0.033,0.066,0.066,0.1,0.1c0.566,0.601,1.167,1.15,1.8,1.65c-0.199,0.166-0.517,0.283-0.949,0.35
		c0.466,0.101,1.083,0.2,1.85,0.3c0.033,0.034,0.066,0.067,0.1,0.101c0.233,0.8,1,1.899,2.301,3.3c1.199,1.333,1.899,2.45,2.1,3.35
		c-0.1,0.233-0.233,0.267-0.4,0.101c0,0.3,0.067,0.8,0.2,1.5c0.134,0.633,0.184,1.133,0.15,1.5c-0.101,0.633-0.167,0.983-0.2,1.05
		c-0.233,0-0.55,0.083-0.95,0.25c-0.899,0.4-1.85,0.366-2.85-0.1c-0.967-0.467-1.517-1.167-1.65-2.101
		c0.066,0.601-0.033,1.033-0.3,1.3c-0.3,0.267-0.767,0.317-1.4,0.15c-0.166-1.533,0-2.866,0.5-4c-0.3,0.533-0.767,0.767-1.399,0.7
		c-0.2-0.434-0.15-1.117,0.149-2.05c0.301-0.934,0.334-1.584,0.101-1.95c-0.134,0.033-0.351,0.033-0.65,0s-0.517-0.05-0.649-0.05
		c-0.034-0.334,0.183-0.7,0.649-1.101c0.467-0.399,0.65-0.783,0.55-1.149c-0.433-0.067-0.733-0.101-0.899-0.101
		c-0.233-0.833-0.617-1.717-1.15-2.649c-0.633-1.034-1.267-1.767-1.899-2.2c0.3,0.733,0.716,1.733,1.25,3
		c0.366,1.1,0.483,2.166,0.35,3.2c-0.4,0-0.7-0.067-0.9-0.2c0.267,1.467,0.417,2.267,0.45,2.399c0.167,1.2,0.134,1.934-0.1,2.2
		c-0.3,0.334-0.717,0.417-1.25,0.25c-0.467-0.133-0.851-0.383-1.15-0.75c0.066,0.5,0.417,1.4,1.05,2.7
		c0.534,1.1,0.733,2.017,0.601,2.75L72.1,67.8l-0.05-0.55L72,67.8c-0.434-0.033-1.05-0.233-1.85-0.6
		c-0.101,0.333-0.134,0.866-0.101,1.6c0.033,0.767,0.017,1.316-0.05,1.65c-1.333,0.2-2.434,0.066-3.3-0.4
		c-0.2,0.267-0.3,0.634-0.3,1.101c0,0.733-0.017,1.149-0.051,1.25c-0.433,0.133-0.816,0.133-1.149,0c-0.4-0.134-0.65-0.4-0.75-0.801
		c0.066,1.4-0.566,1.9-1.9,1.5c-0.5-0.166-0.883-0.466-1.149-0.899c-0.233-0.566-0.434-1.017-0.601-1.351
		c-0.066,0.233-0.217,0.667-0.45,1.301c-0.233,0.5-0.55,0.733-0.949,0.699c-0.634-0.1-0.834-0.666-0.601-1.699
		c-0.333-0.034-0.983,0.033-1.95,0.199C55.95,71.483,55.233,71.5,54.7,71.4c-0.033-0.434,0.083-0.867,0.35-1.301
		c-0.733,0.434-1.633,0.551-2.7,0.351c-0.033-0.4,0.05-0.9,0.25-1.5c0.267-0.733,0.417-1.217,0.45-1.45
		c-0.167,0.167-0.5,0.884-1,2.15c-0.466,1.066-0.883,1.649-1.25,1.75c-0.367,0.1-0.7,0.033-1-0.2c-0.267-0.2-0.4-0.45-0.4-0.75
		c-0.033,0.399-0.233,0.616-0.6,0.649c-0.5-0.066-0.867-0.066-1.1,0c-0.534,0.134-0.817,0.267-0.85,0.4
		c-0.033,0.1-0.067,0.417-0.1,0.95c-0.467,1.566-0.9,1.7-1.3,0.399c0.033,0.834-0.35,1.367-1.15,1.601c-0.733,0.2-1.466,0.1-2.2-0.3
		c-0.633-0.367-0.967-0.817-1-1.351c0.066-0.7,0.033-1.316-0.1-1.85c-1.333,0.5-2.083,0.116-2.25-1.15
		c-0.133,0.7-0.567,0.9-1.3,0.601c-0.434-0.167-0.684-0.517-0.75-1.051c-0.034-0.3-0.017-0.783,0.05-1.449
		c-0.1,0.6-0.633,1.05-1.6,1.35s-1.667,0.25-2.1-0.15c-0.333-0.333-0.433-0.767-0.3-1.3c-0.567,0.533-1.517,0.816-2.85,0.851
		c-1.3,0-2.05-0.267-2.25-0.801c-0.2-0.6,0.25-1.483,1.35-2.649c1.233-1.367,1.9-2.25,2-2.65c-0.867-0.033-1.333-0.583-1.4-1.649
		c0-0.2,0.017-0.367,0.05-0.5c0.1-0.067,0.217-0.117,0.35-0.15c0.3-0.634,0.433-1.483,0.4-2.55c0-0.733-0.05-1.7-0.15-2.9
		c0.9-1.434,1.833-2.333,2.8-2.7c0.4,0.4,0.583,1.233,0.55,2.5c-0.033,0.7-0.117,1.634-0.25,2.801c0.566-1.101,1.4-1.934,2.5-2.5
		c0.2,0.666,0.267,1.533,0.2,2.6c-0.033,0.6-0.066,1.1-0.1,1.5c0.066,0,0.15-0.017,0.25-0.05c0.167-1.334,0.25-2.066,0.25-2.2
		c0.267,0.733,0.85,0.967,1.75,0.7c0.767-0.233,0.966-0.617,0.6-1.15c-0.066-0.1-0.15-0.2-0.25-0.3c0.1,0.066,0.2,0.134,0.3,0.2
		c0.333,0.166,0.7,0.267,1.1,0.3c0.3,0,0.617-0.05,0.95-0.15c0.9-0.233,1.033-0.783,0.4-1.649c0.667,0.1,1.267-0.017,1.8-0.351
		c0.6-0.399,0.8-0.933,0.6-1.6c-0.4-0.167-0.7-0.267-0.9-0.3c0.7-0.134,1.267-0.434,1.7-0.9c0.433-0.5,0.583-1.1,0.45-1.8
		c-0.867,0.033-1.5,0-1.9-0.1c0.1-0.067,0.567-0.15,1.4-0.25L44.5,49c0.033,0,0.083,0,0.15,0c0.767-0.2,1.517-0.15,2.25,0.15
		c0.833,0.267,1.434,0.767,1.8,1.5c-0.167,0.033-0.3,0.133-0.4,0.3c0.1,0.1,0.367,0.25,0.8,0.45c0.333,0.166,0.55,0.35,0.65,0.55
		c0.1,0.233,0.083,0.5-0.05,0.8c-0.067,0.167-0.133,0.316-0.2,0.45c-0.033,0.033-0.067,0.066-0.1,0.1
		c-0.066,0.033-0.117,0.066-0.15,0.101c0.267,0.066,0.517,0.116,0.75,0.149c0.1,0,0.2,0,0.3,0c0.067,0.033,0.133,0.101,0.2,0.2
		c0.1,0.134,0.2,0.384,0.3,0.75c-0.167,0.134-0.4,0.217-0.7,0.25c-0.367,0-0.633,0-0.8,0c0.367,0.134,0.684,0.35,0.95,0.65
		c0.1,0.1,0.183,0.199,0.25,0.3c0.133,0.267,0.133,0.533,0,0.8c-0.1,0.233-0.317,0.384-0.65,0.45c-0.067,0-0.15,0-0.25,0
		c-0.233,0-0.434,0-0.6,0c-0.233,0-0.4,0.017-0.5,0.05c0.067,0.1,0.233,0.2,0.5,0.3c0.2,0.033,0.45,0.084,0.75,0.15
		c0.2,0.066,0.35,0.166,0.45,0.3c0.2,0.2,0.216,0.517,0.05,0.95c-0.167,0.399-0.733,0.583-1.7,0.55
		c-0.5-0.033-0.816,0.083-0.95,0.35c-0.133,0.167-0.184,0.384-0.15,0.65c0,0.066,0,0.116,0,0.15c-0.667-0.067-1.083-0.034-1.25,0.1
		c-0.1,0.066-0.167,0.217-0.2,0.45c-0.6-0.101-1.05-0.184-1.35-0.25c-0.733-0.134-1.367-0.434-1.9-0.9c0.033,0.467-0.067,0.8-0.3,1
		c-0.2,0.2-0.534,0.334-1,0.4c-0.767,0.166-1.383,0.1-1.85-0.2c-0.367-0.233-0.717-0.667-1.05-1.3
		c-0.033,1.066-0.767,1.583-2.2,1.55c-1.233,0-1.85-0.366-1.85-1.1c-0.133,0.5-0.5,0.833-1.1,1c-0.633,0.199-1.267,0.166-1.9-0.101
		c-0.2,0.634-0.05,1.05,0.45,1.25c0.233,0.101,0.733,0.167,1.5,0.2l0.05,1.4c1.033,0.233,1.85,0.199,2.45-0.101
		c0.066,1.033,0.417,1.733,1.05,2.101c1.2,0.733,2.133,0.533,2.8-0.601c0.3,0.434,0.733,0.733,1.3,0.9c0.033,0,0.066,0.017,0.1,0.05
		c0.566,0.533,1.117,0.833,1.65,0.9c0.233,0.033,0.533,0,0.9-0.101c0.433-0.166,0.717-0.25,0.85-0.25
		c0.733-0.066,1.85,0.084,3.35,0.45c1.566,0.366,2.7,0.55,3.4,0.55c0.733,0,1.333-0.267,1.8-0.8c0.567-0.634,1.167-1.017,1.8-1.15
		c0.166-0.033,0.916-0.1,2.25-0.199c0.934-0.067,1.649-0.25,2.149-0.551C58.217,65.167,57.5,65.2,57.2,65.2
		c-1.033-0.066-1.65-0.3-1.851-0.7c-0.199-0.434-0.083-1.017,0.351-1.75c0.233-0.434,0.5-0.767,0.8-1c0.4,0.134,0.8,0.066,1.2-0.2
		c0.333-0.267,0.583-0.616,0.75-1.05c0,0.366-0.066,1.1-0.2,2.2c-0.033,1,0.15,1.616,0.55,1.85c0.533,0.334,1.05,0.334,1.55,0
		c0.467-0.3,0.784-0.75,0.95-1.35c-0.133,1.467,0.117,2.333,0.75,2.6c0.767,0.334,1.283-0.033,1.55-1.1c0.101-1.233,0.167-2,0.2-2.3
		c0.101,0.333,0.233,1.083,0.4,2.25c0.267,1,0.684,1.517,1.25,1.55c0.633,0,1.033-0.45,1.2-1.351c0.1-1.033,0.216-1.683,0.35-1.949
		c1.267,1.6,2.3,2.1,3.1,1.5c0.667-0.5,0.667-1.634,0-3.4c0.434,0.167,0.851,0.2,1.25,0.1c0.367-0.933-0.133-2.05-1.5-3.35
		C69.384,57.616,69.033,57.4,68.8,57.1z M65.55,46.85L65.4,47.1v0.051c-0.434,0.133-0.851-0.067-1.25-0.601
		c-0.367-0.5-0.534-0.983-0.5-1.45L65.55,46.85z M65.8,46.2l0.05,0.05l-0.05,0.1C65.8,46.283,65.8,46.233,65.8,46.2z M99.6,67.35
		c0,0.067,0,0.117,0,0.15l-0.8-0.05c-0.8,0-1.533,0.116-2.2,0.35c-0.3-0.233-0.75-0.35-1.35-0.35c-0.566,0-1.066,0.1-1.5,0.3
		c0.634-0.5,0.616-0.9-0.05-1.2c-0.5-0.267-1.117-0.399-1.851-0.399c1.667-0.134,2.784-0.267,3.351-0.4
		c1.666-0.333,2.434-0.866,2.3-1.6c-0.066-0.367-0.25-0.584-0.55-0.65c1.1,0.1,1.833,0.116,2.2,0.05c0.866-0.1,1.283-0.467,1.25-1.1
		c0-0.5-0.267-0.816-0.801-0.95c-0.333-0.1-0.733-0.1-1.199,0c0.3-0.1,0.517-0.3,0.649-0.6c0.134-0.334,0.117-0.7-0.05-1.101
		c-0.434-0.1-0.85-0.083-1.25,0.05l0.05-0.05c-0.333-0.333-1.017-0.5-2.05-0.5c-0.167,0-1.017,0.05-2.55,0.15
		c0.7-0.066,1.333-0.217,1.899-0.45c0.7-0.3,1.067-0.684,1.101-1.15c0.066-0.699-0.967-0.949-3.101-0.75
		c2.034-0.267,3.034-0.683,3-1.25c0-0.366-0.149-0.6-0.449-0.699c2.033,0.1,3.083-0.267,3.149-1.101c0.066-0.6-0.133-0.934-0.6-1
		c0.7-0.2,1.25-0.483,1.649-0.85c0.567-0.5,0.45-0.934-0.35-1.3c0.566-0.267,0.866-0.65,0.9-1.15c-0.334-0.333-0.767-0.4-1.301-0.2
		c-0.5,0.167-0.916,0.467-1.25,0.9c-0.767-0.167-1.466,0.017-2.1,0.55c-0.533,0.5-0.884,1.167-1.05,2c0-1.2-0.017-1.866-0.05-2
		c-0.434-0.033-0.917,0.15-1.45,0.55c-0.5,0.4-0.884,0.867-1.15,1.4L92,52.8c-0.6,0-1.116,0.117-1.55,0.351
		c-0.467,0.267-0.7,0.616-0.7,1.05c-0.033-0.566-0.167-1.033-0.4-1.4c-0.966,0.066-1.666,0.483-2.1,1.25
		c0.2-0.533,0.3-1.184,0.3-1.95c0-0.733-0.083-1.383-0.25-1.949c-0.434-0.2-0.8-0.167-1.1,0.1c0.399-0.467,0.666-1.066,0.8-1.8
		c0.167-0.8,0.184-1.566,0.05-2.3c-0.434-0.067-0.767,0-1,0.199c0.934-0.767,1.25-2.283,0.95-4.55c-0.5-0.133-0.95,0.05-1.35,0.55
		c0.366-0.6,0.55-1.333,0.55-2.2c0-0.933-0.233-1.583-0.7-1.95c-0.634,0.133-1.25,0.417-1.85,0.85c-0.5,0.4-0.801,0.8-0.9,1.2
		c0.066-0.7,0.1-1.267,0.1-1.7c0.034-0.9-0.083-1.583-0.35-2.05c-0.566-0.1-1.1,0.067-1.6,0.5c-0.5,0.4-0.851,0.917-1.051,1.55
		c-0.066-0.1-0.149-0.183-0.25-0.25c-0.066-0.066-0.116-0.117-0.149-0.15c-0.167-0.1-0.5-0.117-1-0.05
		c-0.5,0.1-0.851,0.083-1.05-0.05c-0.167-0.1-0.25-0.267-0.25-0.5c0-0.233-0.051-0.383-0.15-0.45c-0.8-0.633-1.65-1.033-2.55-1.2
		c0.033-0.2,0.05-0.4,0.05-0.6c-0.033-0.267-0.134-0.55-0.3-0.85c-0.267-0.5-0.75-1.017-1.45-1.55
		c-0.033-0.233-0.116-0.433-0.25-0.6c0.066-0.267-0.05-0.617-0.35-1.05c-0.367-0.533-0.9-1.067-1.601-1.6c-0.066,0-0.116,0-0.149,0
		c-0.034-0.066-0.051-0.117-0.051-0.15c0.067,0.033,0.134,0.083,0.2,0.15c0.601,0.033,1.25-0.05,1.95-0.25
		c0.6-0.233,1.25-0.783,1.95-1.65c0.508-0.604,0.941-1.237,1.3-1.9c-0.073,0.176-0.04,0.375,0.1,0.6c0.634,0.033,1.2-0.233,1.7-0.8
		c0.434-0.5,0.717-1.1,0.851-1.8c-0.067,0.533-0.051,1.017,0.05,1.45c0.467-0.233,0.967-0.816,1.5-1.75
		c0.5-0.933,1.033-1.483,1.6-1.65c0.033,0.5,0.2,0.983,0.5,1.45c0.033-0.033,0.084-0.067,0.15-0.1c0.7-0.5,1.55-1.267,2.55-2.3
		c-0.366,0.6-0.767,1.1-1.2,1.5l-1.35,0.8c0.666-0.067,1.649-0.217,2.95-0.45c1.133-0.133,2.116-0.133,2.949,0
		c0.4,1.5-0.8,2.317-3.6,2.45c0.434,0.2,0.717,0.517,0.85,0.95c-1.399,0.867-2.883,1.55-4.449,2.05c-1.567,0.5-2.967,0.717-4.2,0.65
		c0.899,0.1,1.866,0.35,2.899,0.75c1.7,0.667,2.067,1.383,1.101,2.15c0.934-0.1,1.934,0.05,3,0.45c1.166,0.467,1.033,0.983-0.4,1.55
		c0.3,0,1.233-0.083,2.8-0.25c0.367-0.466,1.167-0.466,2.4,0c1.134,0.467,1.833,0.967,2.1,1.5c1-0.5,2-0.55,3-0.15
		c0.167,0.867-0.166,1.667-1,2.4c-0.633,0.567-1.433,1.017-2.399,1.35c1.066,0.033,1.566,0.617,1.5,1.75
		c-0.101,1.067-0.566,1.817-1.4,2.25c0.334,0.5,0.45,1,0.351,1.5c-0.067,0.533-0.367,0.916-0.9,1.149c0.3-0.1,0.733-0.1,1.3,0
		c0.167,0.467,0.167,0.983,0,1.55c-0.033,0.067-0.217,0.567-0.55,1.5c0.733-0.1,1.217-0.133,1.45-0.1
		c0.5,0.033,0.883,0.283,1.149,0.75c0-1.134,0.434-1.85,1.301-2.15c0.866-0.3,1.3,0.217,1.3,1.551c0.3-0.134,0.75-0.417,1.35-0.851
		c0.566-0.333,1.066-0.399,1.5-0.2L98.6,48c0.534-0.533,1.167-0.983,1.9-1.35c0.8-0.434,1.517-0.634,2.15-0.601
		c-0.101-0.733-0.101-1.483,0-2.25c0.899-0.366,1.483-0.184,1.75,0.55c0.133,0.301,0.216,1.017,0.25,2.15
		c0.6-0.267,1.433-0.7,2.5-1.3c1.133-0.667,1.949-1.117,2.449-1.351c0.167,0.667-0.083,1.284-0.75,1.851
		c-0.566,0.5-1.25,0.85-2.05,1.05c0.3,0,0.717,0.017,1.25,0.05c0.5,1,0.117,1.867-1.149,2.601c-1.601,0.633-2.634,1.066-3.101,1.3
		c1.134-0.2,1.7,0.083,1.7,0.85s-0.517,1.184-1.55,1.25c0.333,0.066,0.583,0.233,0.75,0.5c0.166,0.267,0.184,0.584,0.05,0.95
		c-0.333,0.9-1.833,1.267-4.5,1.1c0.2,0.2,0.15,0.5-0.15,0.9c-0.333,0.4-0.8,0.7-1.399,0.9c0.399,0.033,0.934,0.083,1.6,0.149
		c0.566,0.101,1.017,0.367,1.351,0.8c0.1-0.5,0.316-0.866,0.649-1.1c0.367-0.267,0.783-0.333,1.25-0.2c0,0.134,0.017,0.367,0.05,0.7
		c0.067,0.333,0.084,0.566,0.051,0.7c0.166-0.033,0.699-0.25,1.6-0.65c0.634-0.3,1.217-0.383,1.75-0.25
		c0.2,0.8,0.217,1.5,0.05,2.101c-0.166,0.6-0.483,1.017-0.95,1.25c0.967-0.367,1.784-0.483,2.45-0.351
		c0.3,0.9,0.117,1.684-0.55,2.351c-0.533,0.533-1.217,0.899-2.05,1.1c0.267-0.033,0.616,0,1.05,0.1
		c0.566,1.367-0.333,2.284-2.7,2.75c-1.666,0.301-3.35,0.351-5.05,0.15l0.25,0.4c0.033,0.033,0.05,0.083,0.05,0.149L99.6,67.35z
		 M70.1,61c-0.6-0.167-0.833-0.566-0.699-1.2C69.533,59.934,69.767,60.333,70.1,61z M57,56.5c-0.233-0.1-0.483-0.233-0.75-0.4
		c-0.167-0.1-0.316-0.199-0.45-0.3c0.334-0.033,0.75-0.083,1.25-0.149C57.05,55.884,57.033,56.167,57,56.5z M56.7,58.45
		c-0.033,0.1-0.05,0.184-0.05,0.25c-0.233,1.033-0.317,1.899-0.25,2.6c-0.2-0.1-0.367-0.233-0.5-0.399
		c-0.233-0.301-0.317-0.684-0.25-1.15C55.717,59.25,56.066,58.816,56.7,58.45z M22.95,67.15c-0.267,0-0.567-0.034-0.9-0.101
		c0.1-0.233,0.184-0.5,0.25-0.8c0.034,0.2,0.117,0.384,0.25,0.55C22.65,66.934,22.783,67.05,22.95,67.15z M76.85,51.1
		c0,0.032,0.017,0.05,0.051,0.051c-0.035,0-0.068,0-0.101,0L76.85,51.1z"/>
	<path style="fill-rule:evenodd;clip-rule:evenodd;fill:#585D3B;" d="M27.4,54.15c-0.1,1.8-0.066,3.25,0.1,4.35
		c-0.133,0.066-0.283,0.134-0.45,0.2c0-0.267,0-0.45,0-0.55c0.167-1.801,0.267-3.15,0.3-4.051l0.05-0.6V54.15z M47.95,49.2
		c-0.1-0.066-0.167-0.101-0.2-0.101c-0.7-0.166-1.867-0.267-3.5-0.3c-0.5,0-1.05,0-1.65,0c0.4-0.066,0.783-0.149,1.15-0.25
		c0.1-0.033,0.2-0.066,0.3-0.1c0.9-0.367,0.983-0.851,0.25-1.45c0.067-0.033,0.184-0.05,0.35-0.05c0.467,0,1.217,0,2.25,0
		c1.333,0,2.067,0.283,2.2,0.85C49.267,48.533,48.883,49,47.95,49.2z M45.4,46.75c0.3-0.066,0.667-0.15,1.1-0.25
		c0.933-0.366,0.95-0.833,0.05-1.4c0.434,0,1.133,0.034,2.1,0.101c0.867,0.066,1.55,0,2.05-0.2c0.033-0.333-0.1-0.7-0.4-1.1
		c-0.2-0.301-0.35-0.551-0.45-0.75c-0.067-0.134-0.1-0.233-0.1-0.301c0.133,0,0.3-0.017,0.5-0.05c0.233-0.033,0.55-0.066,0.95-0.1
		c0.5-0.101,0.8-0.4,0.9-0.9c0.033-0.333-0.05-0.633-0.25-0.9c-0.2-0.233-0.467-0.383-0.8-0.45l1.35-2.35
		c-0.133,2.167,0.35,3.533,1.45,4.1l-2.1,2.899c-0.033,0.934-1.15,1.467-3.35,1.601C47.133,46.7,46.133,46.717,45.4,46.75z
		 M56.15,49.5L56.1,49.45c0.034-0.033,0.084-0.05,0.15-0.05C56.217,49.434,56.184,49.467,56.15,49.5z M56.25,44.75
		c-0.833,0.9-1.384,0.767-1.65-0.4C54.5,43.95,54.434,43.3,54.4,42.4c0.3,0.066,0.616,0.1,0.949,0.1
		c0.067,0.5,0.101,1.25,0.101,2.25C55.65,44.783,55.917,44.783,56.25,44.75z M57.75,46.3c-0.066,0.434-0.05,0.8,0.05,1.101
		c0.101,0,0.283,0.033,0.55,0.1c-0.5,0.333-0.933,0.45-1.3,0.35c-0.467-0.133-0.717-0.6-0.75-1.399c0.066-0.8,0.101-1.367,0.101-1.7
		c0.133-0.033,0.267-0.066,0.399-0.1c0.566-0.134,0.983-0.167,1.25-0.101c0,0.2-0.083,0.684-0.25,1.45
		C57.8,46.1,57.783,46.2,57.75,46.3z M65.85,46.25L65.8,46.2c-0.166-0.267-0.316-0.5-0.45-0.7c-0.767,0.434-1.333,0.1-1.699-1
		c-0.067-0.167-0.134-0.333-0.2-0.5c-0.834-0.1-1.384-0.384-1.65-0.85c0.7-0.233,1.25,0.05,1.65,0.85c0.233,0.033,0.5,0.05,0.8,0.05
		c1.3,0,2.017-0.366,2.15-1.1c0.066-0.4,0.017-0.7-0.15-0.9c-0.1-0.1-0.217-0.167-0.35-0.2c1.066-0.033,1.649-0.367,1.75-1
		c0.133-0.7-0.45-1.317-1.75-1.85c0.233-0.2,0.716-0.267,1.449-0.2c0.7,0.1,1.15-0.033,1.351-0.4c0-0.032,0.017-0.049,0.05-0.05
		c0.167-0.333,0.15-0.7-0.05-1.1c-0.167-0.4-0.434-0.667-0.8-0.8c0.3,0.066,0.566,0.05,0.8-0.05c0.133-0.667-0.233-1.083-1.101-1.25
		c-0.066,0-0.133,0-0.199,0c-0.967-0.033-1.601-0.066-1.9-0.1c0.7-0.833,0.233-1.35-1.4-1.55c-0.267-0.033-1.25-0.05-2.949-0.05
		c0.3-0.034,0.566-0.233,0.8-0.6c0.3-0.434,0.184-0.684-0.351-0.75c0.334,0.033,1.101,0.083,2.301,0.15
		c1.133,0,1.767-0.267,1.899-0.8c0.101-0.4-0.066-0.733-0.5-1c-0.566-0.267-0.95-0.467-1.149-0.6c0.566,0.066,1,0,1.3-0.2
		c0.366-0.233,0.45-0.617,0.25-1.15c-0.101,0-0.417,0-0.95,0c-0.566-0.033-1.35-0.05-2.35-0.05l1-1.35
		c0.333,0.333,0.933,0.566,1.8,0.7c0.399,0.034,0.833,0.067,1.3,0.1c0.667,0.033,1.233,0.1,1.7,0.2c0.7,0.133,1.217,0.333,1.55,0.6
		c0.267,0.233,0.467,0.5,0.6,0.8c0,0.033,0.017,0.083,0.051,0.15c0,0.067,0,0.133,0,0.2c0.033,0.3,0.033,0.816,0,1.55
		c0.966,0.2,1.633,0.45,2,0.75c0.033,0.033,0.066,0.083,0.1,0.15c0.134,0.167,0.217,0.367,0.25,0.6
		c0.033,0.333-0.083,0.717-0.35,1.15c0.866,0.067,1.416,0.167,1.649,0.3c0.066,0.033,0.117,0.066,0.15,0.1
		c0.166,0.3,0.267,0.583,0.3,0.85c-0.033,0.133-0.083,0.284-0.15,0.45c-0.25,0.031-0.458,0.048-0.625,0.05
		c0.229,0.003,0.471,0.037,0.726,0.1c0.899,0.167,1.75,0.567,2.55,1.2c0.1,0.066,0.15,0.217,0.15,0.45c0,0.233,0.083,0.4,0.25,0.5
		c0.199,0.133,0.55,0.15,1.05,0.05c0.5-0.067,0.833-0.05,1,0.05c0.033,0.033,0.083,0.083,0.149,0.15
		c0.101,0.067,0.184,0.15,0.25,0.25C80.05,37.917,80.4,37.4,80.9,37c0.5-0.433,1.033-0.6,1.6-0.5c0.267,0.467,0.384,1.15,0.35,2.05
		c0,0.434-0.033,1-0.1,1.7c0.1-0.4,0.4-0.8,0.9-1.2c0.6-0.433,1.216-0.716,1.85-0.85c0.467,0.367,0.7,1.017,0.7,1.95
		c0,0.867-0.184,1.6-0.55,2.2c0.399-0.5,0.85-0.683,1.35-0.55c0.3,2.267-0.017,3.783-0.95,4.55c0.233-0.199,0.566-0.267,1-0.199
		c0.134,0.733,0.117,1.5-0.05,2.3c-0.134,0.733-0.4,1.333-0.8,1.8c0.3-0.267,0.666-0.3,1.1-0.1c0.167,0.566,0.25,1.216,0.25,1.949
		c0,0.767-0.1,1.417-0.3,1.95c0.434-0.767,1.134-1.184,2.1-1.25c0.233,0.367,0.367,0.834,0.4,1.4c0-0.434,0.233-0.783,0.7-1.05
		C90.884,52.917,91.4,52.8,92,52.8l0.05,0.15c0.267-0.533,0.65-1,1.15-1.4c0.533-0.399,1.017-0.583,1.45-0.55
		c0.033,0.134,0.05,0.8,0.05,2c0.166-0.833,0.517-1.5,1.05-2c0.634-0.533,1.333-0.717,2.1-0.55c0.334-0.434,0.75-0.733,1.25-0.9
		c0.534-0.2,0.967-0.133,1.301,0.2c-0.034,0.5-0.334,0.884-0.9,1.15c0.8,0.366,0.917,0.8,0.35,1.3
		C99.45,52.566,98.9,52.85,98.2,53.05c0.467,0.066,0.666,0.4,0.6,1c-0.066,0.834-1.116,1.2-3.149,1.101
		c0.3,0.1,0.449,0.333,0.449,0.699c0.034,0.567-0.966,0.983-3,1.25c2.134-0.199,3.167,0.051,3.101,0.75
		C96.167,58.316,95.8,58.7,95.1,59c-0.566,0.233-1.199,0.384-1.899,0.45c1.533-0.101,2.383-0.15,2.55-0.15
		c1.033,0,1.717,0.167,2.05,0.5l-0.05,0.05c0.4-0.133,0.816-0.149,1.25-0.05c0.167,0.4,0.184,0.767,0.05,1.101
		c-0.133,0.3-0.35,0.5-0.649,0.6c0.466-0.1,0.866-0.1,1.199,0c0.534,0.134,0.801,0.45,0.801,0.95c0.033,0.633-0.384,1-1.25,1.1
		c-0.367,0.066-1.101,0.05-2.2-0.05c0.3,0.066,0.483,0.283,0.55,0.65c0.134,0.733-0.634,1.267-2.3,1.6
		c-0.566,0.134-1.684,0.267-3.351,0.4c0.733,0,1.351,0.133,1.851,0.399c0.666,0.3,0.684,0.7,0.05,1.2c0.434-0.2,0.934-0.3,1.5-0.3
		c0.6,0,1.05,0.116,1.35,0.35c0.667-0.233,1.4-0.35,2.2-0.35l0.8,0.05c0.034,0.167,0.017,0.316-0.05,0.45
		c-0.2,0.333-0.616,0.483-1.25,0.45c0.3,0.133,1.134,0.316,2.5,0.55c1,0.366,1.017,1,0.05,1.899c0.4-0.033,0.801-0.05,1.2-0.05
		l0.45-0.05c0.167,0,0.35,0,0.55,0c-2.066,0.2-3.866,0.85-5.399,1.95c-0.2-0.601-0.351-1.017-0.45-1.25
		c-0.2-0.4-0.517-0.617-0.95-0.65c-0.333-0.033-0.7,0.101-1.1,0.4c-0.434,0.267-0.7,0.55-0.801,0.85
		c0.134-0.934,0.067-1.666-0.199-2.2c-0.5-0.033-1.233,0.25-2.2,0.851c0.666-0.434,0.934-1.134,0.8-2.101
		c-0.1-1-0.6-1.399-1.5-1.199c0.4-0.233,0.6-0.65,0.6-1.25c0.034-0.534-0.1-1-0.399-1.4c-0.3-0.467-0.717-0.684-1.25-0.65
		c0.5-0.199,0.899-0.55,1.2-1.05c0.333-0.533,0.433-1.05,0.3-1.55l-0.75-0.05c0.467-0.167,0.633-0.55,0.5-1.15
		c-0.134-0.566-0.4-0.916-0.8-1.05c0.433-0.5,0.733-1.434,0.899-2.8c-0.6-0.3-1.434-0.066-2.5,0.7c-1.066,0.733-1.717,1.5-1.95,2.3
		c0.067-0.9-0.283-1.367-1.05-1.4l-0.3,0.601c0.267-4.233-0.083-6.317-1.05-6.25l-0.25,0.05L84.3,51.8
		c-0.066,0.167-0.116,0.367-0.149,0.601c-0.067-0.4-0.117-0.817-0.15-1.25c-0.134,0.3-0.366,0.5-0.7,0.6
		c-0.333,0.1-0.666,0.033-1-0.2c-0.434-0.267-0.6-0.684-0.5-1.25c0.101-0.7,0.084-1.184-0.05-1.45c-0.2-0.433-0.45-0.633-0.75-0.6
		c-0.434,0-0.75-0.083-0.95-0.25c-0.434-0.4-0.483-0.866-0.149-1.4c0.033-0.033,0.399-0.399,1.1-1.1c-1.2,0.1-1.517-0.233-0.95-1
		c0.3-0.4,0.834-0.95,1.601-1.65L80.5,42.5c-0.2,0.2-0.6,0.4-1.2,0.6c-0.633,0.167-1.066,0.167-1.3,0
		c-0.333-0.333-0.366-0.666-0.1-1c0.333-0.433,0.466-0.75,0.399-0.95c-0.066-0.2-0.684-0.5-1.85-0.9
		c-0.634-0.233-0.25-0.617,1.149-1.15L76,38.15c-0.033-0.5-0.116-0.816-0.25-0.95c-0.233-0.233-1.033-0.434-2.4-0.6
		c-0.566-0.067-1-0.184-1.3-0.35c0.334,0.7,0.566,1.767,0.7,3.2c0.066,0.867-0.033,1.417-0.3,1.65c-0.233,0.2-0.8,0.333-1.7,0.4
		c0.333,0.634,0.434,1.384,0.3,2.25c-1.166-0.033-2.05,0-2.649,0.1c0.166,0.834-0.051,1.317-0.65,1.45c-1,0.2-1.566,0.367-1.7,0.5
		L65.85,46.25z M72,67.8c0,0.566,0.083,1.217,0.25,1.95L72.1,67.8l0.601-0.05c0.133-0.733-0.066-1.65-0.601-2.75
		c-0.633-1.3-0.983-2.2-1.05-2.7c0.3,0.367,0.684,0.617,1.15,0.75c0.533,0.167,0.95,0.084,1.25-0.25c0.233-0.267,0.267-1,0.1-2.2
		c-0.033-0.133-0.184-0.933-0.45-2.399c0.2,0.133,0.5,0.2,0.9,0.2c0.134-1.034,0.017-2.101-0.35-3.2c-0.534-1.267-0.95-2.267-1.25-3
		c0.633,0.434,1.267,1.166,1.899,2.2c0.533,0.933,0.917,1.816,1.15,2.649c0.166,0,0.467,0.033,0.899,0.101
		c0.101,0.366-0.083,0.75-0.55,1.149c-0.467,0.4-0.684,0.767-0.649,1.101c0.133,0,0.35,0.017,0.649,0.05s0.517,0.033,0.65,0
		c0.233,0.366,0.2,1.017-0.101,1.95c-0.3,0.933-0.35,1.616-0.149,2.05c0.633,0.066,1.1-0.167,1.399-0.7
		c-0.5,1.134-0.666,2.467-0.5,4c0.634,0.167,1.101,0.116,1.4-0.15c0.267-0.267,0.366-0.699,0.3-1.3
		c0.134,0.934,0.684,1.634,1.65,2.101c1,0.466,1.95,0.5,2.85,0.1c0.4-0.167,0.717-0.25,0.95-0.25c0.033-0.066,0.1-0.417,0.2-1.05
		c0.033-0.367-0.017-0.867-0.15-1.5c-0.133-0.7-0.2-1.2-0.2-1.5c0.167,0.166,0.301,0.133,0.4-0.101c-0.2-0.899-0.9-2.017-2.1-3.35
		c-1.301-1.4-2.067-2.5-2.301-3.3c-0.033-0.033-0.066-0.066-0.1-0.101c0.733,0.101,1.616,0.217,2.65,0.351
		c0.633,0.2,1.133,0.517,1.5,0.95c0,0.699-0.217,1.149-0.65,1.35c0.6,0.467,0.983,0.783,1.15,0.95c0.333,0.333,0.6,0.733,0.8,1.2
		c0.195,0.489,0.12,0.647-0.226,0.475c0.724,0.392,1.398,1,2.025,1.825c0.8,1,1.05,1.883,0.75,2.649c-0.366,0-0.667-0.083-0.9-0.25
		c-0.033,0.301-0.017,1.034,0.051,2.2c0,1.101-0.167,1.783-0.5,2.05c-0.334,0.267-0.617,0.384-0.851,0.351
		c-0.267-0.066-0.399-0.3-0.399-0.7c-0.034,0.467,0.017,0.934,0.149,1.4c-0.7,0.566-1.75,0.767-3.149,0.6
		c-1.434-0.2-2.334-0.717-2.7-1.55c0.1,0.267,0.1,0.666,0,1.2c-0.533,0.199-1.05,0.116-1.55-0.25c0,0.833-0.467,1.183-1.4,1.05
		c-0.434-0.066-0.816-0.334-1.15-0.8c-0.366-0.534-0.666-0.917-0.899-1.15c-0.4,0.233-0.634,0.733-0.7,1.5
		c-0.8-0.066-1.384-0.733-1.75-2c0.333,4.467-0.384,6.35-2.15,5.65c-0.066-0.367-0.1-0.917-0.1-1.65
		c-0.233,1.767-1.116,2.667-2.65,2.7c-0.633,0.066-1.066,0-1.3-0.2c0.066,0.434,0.05,0.833-0.05,1.2c-0.467,0.066-0.9-0.101-1.3-0.5
		c0.267,1.467-0.267,2.333-1.601,2.6c-1.333,0.267-1.916-0.283-1.75-1.649c-0.833,1-1.283,1.517-1.35,1.55
		c-0.5,0.399-1.184,0.5-2.05,0.3c-0.134-0.333-0.05-0.767,0.25-1.3c0.166-0.267,0.434-0.667,0.8-1.2c-1.2,1.2-2.283,1.7-3.25,1.5
		c-0.134-0.866-0.017-1.733,0.35-2.6c-0.333,0.433-0.916,0.666-1.75,0.699c-0.333,0.034-0.983,0-1.95-0.1
		c-0.1-0.634-0.15-0.983-0.15-1.05c-0.233,0.6-0.817,0.983-1.75,1.149c-0.967,0.2-1.55,0.034-1.75-0.5
		c-0.067,0.5-0.417,0.784-1.05,0.851c-0.6,0.066-1.017-0.15-1.25-0.65c-0.067,0.834-0.417,1.267-1.05,1.3
		c-0.7,0-1.033-0.316-1-0.949c-0.2,0.933-1.633,1.216-4.3,0.85c-0.1-0.366-0.067-0.767,0.1-1.2c0.167-0.434,0.4-0.8,0.7-1.1
		c-0.9,0.5-1.566,0.6-2,0.3c-0.433-0.3-0.6-0.917-0.5-1.85c-1.2,0.399-2.433,0.449-3.7,0.149v-0.1c-0.2,0.467-0.85,0.75-1.95,0.85
		c-0.8,0.101-1.567,0.084-2.3-0.05c-0.1-0.333-0.117-0.616-0.05-0.85c-0.133,0.3-0.533,0.533-1.2,0.699
		c-0.667,0.134-1.117,0.067-1.35-0.199c-0.3-0.334-0.217-1.184,0.25-2.551c-0.133,0.367-0.4,0.65-0.8,0.851
		c-0.4,0.133-0.8,0.149-1.2,0.05c-0.167-0.733-0.1-1.417,0.2-2.05c-0.2,0.066-0.367,0.083-0.5,0.05c-0.2-0.833,0.017-1.833,0.65-3
		c0.9-1.7,1.383-2.65,1.45-2.85c-2.433,1.666-3.983,3.3-4.65,4.899c-0.133,0.3-0.2,0.667-0.2,1.101c0,0.267,0,0.649,0,1.149
		c-1.4,0.4-2.6,0.25-3.6-0.45c-0.1,0.867-0.2,1.384-0.3,1.551c-0.233,0.3-0.733,0.416-1.5,0.35c-0.633-0.066-1-0.116-1.1-0.15
		c-0.3-0.133-0.45-0.399-0.45-0.8c-0.3,0.7-0.85,1.017-1.65,0.95c-0.833-0.033-1.2-0.45-1.1-1.25V72.2L13.7,72
		c0.6-0.4,1.05-0.667,1.35-0.8c-0.5-0.101-0.816-0.3-0.95-0.601c-0.167-0.333-0.067-0.75,0.3-1.25c-0.3,0.034-0.6-0.017-0.9-0.149
		c-0.333-0.2-0.6-0.351-0.8-0.45c-0.2-0.1-0.483-0.184-0.85-0.25c0.867-0.366,2.367-0.483,4.5-0.35l-0.3-0.65
		c-0.633,0.033-1.117,0.05-1.45,0.05c-0.567,0-0.967-0.184-1.2-0.55c-0.167-0.3-0.183-0.684-0.05-1.15c0.133-0.466,0.333-0.8,0.6-1
		c-2.067,0.601-3.333,0.4-3.8-0.6c-0.066,0.1-0.1,0.267-0.1,0.5c-2.167,0.233-3.267-0.167-3.3-1.2c-0.733,0.4-1.683,0.483-2.85,0.25
		l0.025-0.024C3.954,63.759,3.979,63.75,4,63.75c0.067-0.033,0.15-0.05,0.25-0.05c0.2-0.033,0.417-0.033,0.65,0L2.75,62.6
		c-0.533-0.3-0.933-0.616-1.2-0.949L1.2,60.85c-0.034-0.066-0.05-0.133-0.05-0.199V60.35c0.467-0.1,1.4-0.116,2.8-0.05
		c-1.434-0.767-2.4-1.383-2.9-1.85c-0.933-0.934-1.233-1.95-0.9-3.05c2.3,0.466,4.75,1.666,7.35,3.6
		c-0.1-0.167-0.183-0.434-0.25-0.8c-0.033-0.467-0.067-0.75-0.1-0.851c0.033,0,0.067,0,0.1,0h0.2c0.5,0.034,1.117-0.05,1.85-0.25
		c0.3-0.1,0.6-0.166,0.9-0.199c0.433-0.101,0.833-0.117,1.2-0.051V56.9c-0.167,1.933,0.05,3.216,0.65,3.85
		c0.6-0.533,1.05-1.4,1.35-2.6c-0.133,1.466,0.017,2.55,0.45,3.25c0.5-0.167,0.783-0.483,0.85-0.95c0.133,1.6,0.9,2.25,2.3,1.95
		l0.05-0.25c0,0.333,0.034,0.616,0.1,0.85c-0.2-0.134-0.367-0.283-0.5-0.45c0.7,1.634,1.083,2.7,1.15,3.2
		c0.867-0.033,1.417,0.134,1.65,0.5c0.167,0.267,0.267,0.884,0.3,1.85c0.8,0.233,1.45,0.084,1.95-0.449
		c0.133-0.167,0.25-0.367,0.35-0.601c0.333,0.066,0.633,0.101,0.9,0.101c0.167,0.066,0.4,0.083,0.7,0.05
		c0.767-0.167,1.15-0.967,1.15-2.4c0.233,0.367,0.684,0.584,1.35,0.65c0.633,0.033,1.017-0.117,1.15-0.45
		c0.034-0.033,0.083-0.483,0.15-1.35c0.933,0.366,1.433,0.183,1.5-0.551c-0.067-1-0.017-1.699,0.15-2.1c0.1-0.3,0.283-0.5,0.55-0.6
		c-0.033,0.133-0.05,0.3-0.05,0.5c0.066,1.066,0.533,1.616,1.4,1.649c-0.1,0.4-0.767,1.283-2,2.65c-1.1,1.166-1.55,2.05-1.35,2.649
		c0.2,0.534,0.95,0.801,2.25,0.801c1.333-0.034,2.283-0.317,2.85-0.851c-0.133,0.533-0.033,0.967,0.3,1.3
		c0.434,0.4,1.133,0.45,2.1,0.15s1.5-0.75,1.6-1.35c-0.067,0.666-0.083,1.149-0.05,1.449c0.066,0.534,0.316,0.884,0.75,1.051
		c0.733,0.3,1.167,0.1,1.3-0.601c0.167,1.267,0.917,1.65,2.25,1.15c0.133,0.533,0.167,1.149,0.1,1.85
		c0.033,0.533,0.367,0.983,1,1.351c0.733,0.399,1.467,0.5,2.2,0.3c0.8-0.233,1.184-0.767,1.15-1.601
		c0.4,1.301,0.833,1.167,1.3-0.399c0.033-0.533,0.067-0.851,0.1-0.95c0.033-0.134,0.316-0.267,0.85-0.4c0.233-0.066,0.6-0.066,1.1,0
		c0.367-0.033,0.567-0.25,0.6-0.649c0,0.3,0.133,0.55,0.4,0.75c0.3,0.233,0.633,0.3,1,0.2c0.367-0.101,0.784-0.684,1.25-1.75
		c0.5-1.267,0.833-1.983,1-2.15c-0.033,0.233-0.183,0.717-0.45,1.45c-0.2,0.6-0.283,1.1-0.25,1.5c1.066,0.2,1.966,0.083,2.7-0.351
		c-0.267,0.434-0.383,0.867-0.35,1.301c0.533,0.1,1.25,0.083,2.149-0.051c0.967-0.166,1.617-0.233,1.95-0.199
		c-0.233,1.033-0.033,1.6,0.601,1.699c0.399,0.034,0.716-0.199,0.949-0.699c0.233-0.634,0.384-1.067,0.45-1.301
		c0.167,0.334,0.367,0.784,0.601,1.351c0.267,0.434,0.649,0.733,1.149,0.899c1.334,0.4,1.967-0.1,1.9-1.5
		c0.1,0.4,0.35,0.667,0.75,0.801c0.333,0.133,0.717,0.133,1.149,0c0.034-0.101,0.051-0.517,0.051-1.25c0-0.467,0.1-0.834,0.3-1.101
		c0.866,0.467,1.967,0.601,3.3,0.4c0.066-0.334,0.083-0.884,0.05-1.65c-0.033-0.733,0-1.267,0.101-1.6
		C70.95,67.566,71.566,67.767,72,67.8z M79.1,55.7c-0.633-0.5-1.233-1.05-1.8-1.65c-0.033-0.033-0.066-0.066-0.1-0.1
		c1.066-0.434,1.767-0.25,2.1,0.55C79.5,55.033,79.434,55.434,79.1,55.7z M75.7,50.85c0.5-0.1,0.883-0.017,1.149,0.25L76.8,51.15
		c0.032,0,0.065,0,0.101,0c0.033,0.066,0.066,0.133,0.1,0.199c0.167,0.267,0.217,0.717,0.15,1.351c-0.067,0.5-0.101,0.866-0.101,1.1
		c-0.767-0.833-1.116-1.434-1.05-1.8c0.033-0.333,0.116-0.566,0.25-0.7c-0.066-0.033-0.134-0.066-0.2-0.1
		C75.917,51.134,75.8,51.017,75.7,50.85z M68.5,47.5c0.066,0,0.134,0,0.2,0v0.3C68.634,47.7,68.566,47.6,68.5,47.5z M54.6,3.4
		c0.034,0.1,0.067,0.184,0.101,0.25l0.149,0.6c0.2,1.033,0.334,2.333,0.4,3.9c0.1,2.333,0.25,3.95,0.45,4.85
		c0.233-0.4,0.45-1.333,0.649-2.8c0.167-1.3,0.551-2.233,1.15-2.8c0.134,0.833,0.167,2.133,0.1,3.9c-0.033,1.767,0,3.067,0.101,3.9
		c0.333-0.067,0.95-0.017,1.85,0.15c0.167,0.566,0.033,1.267-0.399,2.1c-0.467,0.833-0.667,1.433-0.601,1.8
		c0,0.067,0.033,0.15,0.101,0.25v0.05L57.8,19.4c-0.967-0.167-1.517-0.467-1.649-0.9c-0.034-0.067-0.034-0.717,0-1.95
		c0.133-0.367,0.199-0.75,0.199-1.15c-0.166-0.267-0.399-0.367-0.699-0.3c-0.067-0.1-0.167-0.167-0.301-0.2
		c-0.133-0.033-0.233-0.183-0.3-0.45c-0.066-0.2-0.017-0.45,0.15-0.75c0.133-0.3,0.2-0.5,0.2-0.6c0-0.233-0.034-0.383-0.101-0.45
		c-0.1-0.133-0.184-0.3-0.25-0.5c-0.066-0.267-0.333-0.833-0.8-1.7c-0.333-0.667-0.5-1.3-0.5-1.9c-0.033-0.833-0.017-1.667,0.05-2.5
		C53.933,4.717,54.2,3.833,54.6,3.4z M49.5,53.2c0.367-0.101,0.517-0.351,0.45-0.75c-0.067-0.467-0.3-0.884-0.7-1.25
		c0.033-0.033,0.083-0.05,0.15-0.05c0.033,0.066,0.067,0.133,0.1,0.199c0.1,0.167,0.317,0.4,0.65,0.7
		c0.3,0.267,0.517,0.533,0.65,0.8c0.767,1.5,1.067,2.817,0.9,3.95c-0.133,0-0.333,0.017-0.6,0.05c-0.3,0.034-0.5,0.034-0.6,0
		c0.6,0.233,0.8,0.801,0.6,1.7c-0.267,1.066-1.117,1.5-2.55,1.3L48.4,59.45c0,0.1,0,0.217,0,0.35c-0.267-0.033-0.533-0.1-0.8-0.2
		c0.133-0.267,0.45-0.383,0.95-0.35c0.967,0.033,1.534-0.15,1.7-0.55c0.167-0.434,0.15-0.75-0.05-0.95
		c-0.067-0.267-0.184-0.533-0.35-0.8c0.333-0.066,0.55-0.217,0.65-0.45c0.133-0.267,0.133-0.533,0-0.8c0.5-0.2,0.7-0.601,0.6-1.2
		c-0.067-0.366-0.267-0.616-0.6-0.75c-0.067-0.1-0.133-0.167-0.2-0.2c-0.1,0-0.2,0-0.3,0c-0.233-0.1-0.433-0.184-0.6-0.25
		C49.433,53.267,49.467,53.233,49.5,53.2z M54.5,53c0-0.066,0-0.134,0-0.2l0.65-0.7c0.267-0.233,0.649-0.35,1.149-0.35
		c0.167,0.134,0.417,0.333,0.75,0.6c-1.333,0.434-2.017,1.101-2.05,2c-0.033,0.534,0.233,1.017,0.8,1.45
		c0.134,0.101,0.283,0.2,0.45,0.3c0.267,0.167,0.517,0.301,0.75,0.4c0.833,0.467,1.267,0.717,1.3,0.75
		c-0.133,0.3-0.6,0.667-1.399,1.1c-0.067,0.034-0.134,0.067-0.2,0.101c-0.634,0.366-0.983,0.8-1.05,1.3
		c-0.067,0.467,0.017,0.85,0.25,1.15c0.133,0.166,0.3,0.3,0.5,0.399c0.166,0.101,0.366,0.15,0.6,0.15
		c-0.167,0.066-0.333,0.166-0.5,0.3c-0.3,0.233-0.566,0.566-0.8,1c-0.434,0.733-0.55,1.316-0.351,1.75
		c0.2,0.4,0.817,0.634,1.851,0.7c0.3,0,1.017-0.033,2.149-0.101c-0.5,0.301-1.216,0.483-2.149,0.551
		c-1.334,0.1-2.084,0.166-2.25,0.199c-0.634,0.134-1.233,0.517-1.8,1.15c-0.467,0.533-1.066,0.8-1.8,0.8
		c-0.7,0-1.833-0.184-3.4-0.55c-1.5-0.366-2.617-0.517-3.35-0.45c-0.133,0-0.417,0.084-0.85,0.25
		c-0.367,0.101-0.667,0.134-0.9,0.101c-0.533-0.067-1.083-0.367-1.65-0.9c-0.034-0.033-0.067-0.05-0.1-0.05
		c-0.567-0.167-1-0.467-1.3-0.9c-0.667,1.134-1.6,1.334-2.8,0.601c-0.633-0.367-0.983-1.067-1.05-2.101
		c-0.6,0.3-1.417,0.334-2.45,0.101l-0.05-1.4c-0.767-0.033-1.267-0.1-1.5-0.2c-0.5-0.2-0.65-0.616-0.45-1.25
		c0.633,0.267,1.267,0.3,1.9,0.101c0.6-0.167,0.967-0.5,1.1-1c0,0.733,0.617,1.1,1.85,1.1c1.433,0.033,2.167-0.483,2.2-1.55
		c0.333,0.633,0.684,1.066,1.05,1.3c0.467,0.3,1.083,0.366,1.85,0.2c0.466-0.066,0.8-0.2,1-0.4c0.233-0.2,0.333-0.533,0.3-1
		c0.533,0.467,1.167,0.767,1.9,0.9c0.3,0.066,0.75,0.149,1.35,0.25c0.033-0.233,0.1-0.384,0.2-0.45
		c0.167-0.134,0.583-0.167,1.25-0.1c0,0.033,0,0.083,0,0.149c0,0.4-0.133,0.684-0.4,0.851c-0.2,0.133-0.433,0.216-0.7,0.25
		C46.117,61.983,45.8,62.3,45.4,62.6c-0.233,0.167-0.467,0.317-0.7,0.45c0.2-0.033,0.433-0.066,0.7-0.1c1-0.066,1.417,0.2,1.25,0.8
		c-0.6,0.1-1.5,0.116-2.7,0.05c-0.2,0-0.4,0-0.6,0c-0.367,0.233-0.583,0.367-0.65,0.4c-0.2,0.1-0.483,0.166-0.85,0.2H41.8
		c0.567,0.399,1.383,0.666,2.45,0.8c1.367,0.166,2.517,0.066,3.45-0.3c0.066,0.733,0.533,1.05,1.4,0.949
		c0.83-0.133,1.147-0.549,0.95-1.25c0.104,0.336,0.37,0.619,0.8,0.851c0.433,0.233,0.833,0.25,1.2,0.05
		c0.333-0.2,0.434-0.634,0.3-1.3c-0.133-0.7-0.1-1.134,0.1-1.3c0.167-0.167,0.483-0.217,0.95-0.15c0.434,0.033,0.75-0.05,0.95-0.25
		c0.567-0.566,0.5-1.267-0.199-2.1c-0.534-0.667-1.083-1.101-1.65-1.301c0.867,0.233,1.4,0.117,1.6-0.35
		c0.034-0.066,0.134-0.767,0.301-2.1c0.133-0.834,0.216-1.467,0.25-1.9C54.717,54.116,54.667,53.533,54.5,53z M26.3,70.7
		c0.534-0.167,0.9-0.566,1.1-1.2C26.967,69.767,26.6,70.167,26.3,70.7z"/>
	<path style="fill-rule:evenodd;clip-rule:evenodd;fill:#414428;" d="M27.05,58.7c0.167-0.066,0.317-0.134,0.45-0.2
		c0.1-0.1,0.183-0.217,0.25-0.35c0.1-0.167,0.133-0.534,0.1-1.101c-0.067-0.666-0.083-1.066-0.05-1.2
		c0.167,0.034,0.467-0.017,0.9-0.149c0.267-1.467,0.066-2.334-0.6-2.601h-0.05l0.05-0.05l1.1-2.399l0.55-1.2
		c0.033,0.866,0.15,2.25,0.35,4.149c0.033,0.4,0.083,0.801,0.15,1.2c0.1,1.2,0.15,2.167,0.15,2.9c0.033,1.066-0.1,1.916-0.4,2.55
		c-0.133,0.033-0.25,0.083-0.35,0.15c-0.267,0.1-0.45,0.3-0.55,0.6c-0.167,0.4-0.217,1.1-0.15,2.1
		c-0.067,0.733-0.567,0.917-1.5,0.551c-0.067,0.866-0.117,1.316-0.15,1.35c-0.133,0.333-0.517,0.483-1.15,0.45
		c-0.667-0.066-1.117-0.283-1.35-0.65c0,1.434-0.383,2.233-1.15,2.4c-0.3,0.033-0.533,0.017-0.7-0.05
		c-0.167-0.101-0.3-0.217-0.4-0.351c-0.133-0.166-0.216-0.35-0.25-0.55c-0.066,0.3-0.15,0.566-0.25,0.8
		c-0.1,0.233-0.216,0.434-0.35,0.601c-0.5,0.533-1.15,0.683-1.95,0.449c-0.033-0.966-0.133-1.583-0.3-1.85
		c-0.233-0.366-0.784-0.533-1.65-0.5c-0.066-0.5-0.45-1.566-1.15-3.2c0.133,0.167,0.3,0.316,0.5,0.45c0.4,0.233,0.9,0.267,1.5,0.1
		c0-0.5,0.184-0.866,0.55-1.1c0.5-0.333,0.8-0.616,0.9-0.85c0.2-0.434,0.117-1-0.25-1.7c-0.033-0.066-0.05-0.117-0.05-0.15
		c0.967,0.967,2.15,1.7,3.55,2.2c2.033,0.7,2.483-0.184,1.35-2.65c0.367-0.066,0.933-0.083,1.7-0.05
		C26.633,58.8,26.85,58.767,27.05,58.7z M56.15,49.5c0.433,0.3,0.716,0.616,0.85,0.95c0.167,0.333,0.184,0.767,0.05,1.3
		c-0.267-0.033-0.517-0.033-0.75,0c-0.5,0-0.883,0.116-1.149,0.35l-0.65,0.7v-0.05c-0.066-1.5-0.1-2.483-0.1-2.95
		s-0.084-1.7-0.25-3.7c-0.333-1.433-0.467-2.433-0.4-3l-2,4.7c-0.033,0.467,0.15,1.066,0.55,1.8c0.467,0.867,0.733,1.483,0.8,1.851
		c0.233,1.633,0.35,2.85,0.35,3.649c0.6-0.267,0.95-0.966,1.05-2.1c0.167,0.533,0.217,1.116,0.15,1.75
		c-0.034,0.434-0.117,1.066-0.25,1.9c-0.167,1.333-0.267,2.033-0.301,2.1c-0.2,0.467-0.733,0.583-1.6,0.35
		c0.567,0.2,1.117,0.634,1.65,1.301c0.699,0.833,0.767,1.533,0.199,2.1c-0.199,0.2-0.516,0.283-0.95,0.25
		c-0.467-0.066-0.783-0.017-0.95,0.15c-0.2,0.166-0.233,0.6-0.1,1.3c0.133,0.666,0.033,1.1-0.3,1.3c-0.367,0.2-0.767,0.184-1.2-0.05
		c-0.43-0.231-0.697-0.515-0.8-0.851c0.197,0.701-0.12,1.117-0.95,1.25c-0.867,0.101-1.333-0.216-1.4-0.949
		c-0.934,0.366-2.083,0.466-3.45,0.3c-1.067-0.134-1.883-0.4-2.45-0.8h0.05c0.367-0.034,0.65-0.101,0.85-0.2
		c0.066-0.033,0.283-0.167,0.65-0.4c0.2,0,0.4,0,0.6,0c1.2,0.066,2.1,0.05,2.7-0.05c0.167-0.6-0.25-0.866-1.25-0.8
		c-0.267,0.033-0.5,0.066-0.7,0.1c0.233-0.133,0.466-0.283,0.7-0.45c0.4-0.3,0.717-0.616,0.95-0.949c0.267-0.034,0.5-0.117,0.7-0.25
		c0.267-0.167,0.4-0.45,0.4-0.851c0-0.066,0-0.116,0-0.149c0-0.034,0-0.084,0-0.15c-0.034-0.267,0.017-0.483,0.15-0.65
		c0.267,0.101,0.533,0.167,0.8,0.2c0,0.367,0,0.867,0,1.5c0.033,0.667,0.233,1.167,0.6,1.5c0.1-0.5,0.117-1.066,0.05-1.7l-0.5-1.25
		c1.434,0.2,2.284-0.233,2.55-1.3c0.2-0.899,0-1.467-0.6-1.7c0.1,0.034,0.3,0.034,0.6,0c0.267-0.033,0.467-0.05,0.6-0.05
		c0.167-1.133-0.133-2.45-0.9-3.95c-0.133-0.267-0.35-0.533-0.65-0.8c-0.333-0.3-0.55-0.533-0.65-0.7
		c-0.033-0.066-0.067-0.133-0.1-0.199c-0.233-0.434-0.4-0.75-0.5-0.95c-0.233-0.367-0.6-0.7-1.1-1c0.034,0,0.083,0,0.15,0
		c0.933-0.2,1.316-0.667,1.15-1.4c-0.133-0.566-0.867-0.85-2.2-0.85c-1.033,0-1.783,0-2.25,0c-0.333-0.033-0.533-0.066-0.6-0.101
		c0.233-0.033,0.684-0.066,1.35-0.1c0.733-0.033,1.733-0.05,3-0.05c2.2-0.134,3.317-0.667,3.35-1.601l2.1-2.899l0.55-0.75
		c0,0.333,0,0.649,0,0.95c0.033,0.899,0.1,1.55,0.199,1.949c0.267,1.167,0.817,1.301,1.65,0.4c0.033-0.066,0.083-0.134,0.15-0.2
		c0,0.066,0,0.134,0,0.2c0,0.333-0.034,0.9-0.101,1.7c0.033,0.8,0.283,1.267,0.75,1.399c0.367,0.101,0.8-0.017,1.3-0.35
		c0.101-0.1,0.2-0.184,0.301-0.25c0.6-0.467,0.983-0.917,1.149-1.35c-0.033,0.267-0.083,0.85-0.149,1.75
		C59.55,48.417,59.35,48.9,59.05,49.1c-0.133,0.101-0.366,0.167-0.7,0.2c-0.199,0-0.433-0.017-0.699-0.05
		c-0.634-0.066-1.101-0.017-1.4,0.15c-0.066,0-0.116,0.017-0.15,0.05L56.15,49.5z M75.7,50.85c-0.066,0-0.15,0.017-0.25,0.051
		c-0.667,0.199-1.033,0.55-1.101,1.05c0.067-1.134,0.067-1.95,0-2.45c-0.733-0.267-1.283-0.083-1.649,0.55
		c-0.066-0.066-0.25-0.5-0.55-1.3c-0.2-0.434-0.65-0.65-1.351-0.65c-0.533,0-0.95,0.134-1.25,0.4
		c-0.133,0.134-0.416,0.517-0.85,1.15V47.8v-0.3c-0.066,0-0.134,0-0.2,0c-0.5,0.033-0.917,0.05-1.25,0.05c-0.167,0-0.3,0-0.4,0
		c-0.199,0-0.383,0-0.55,0c-0.533-0.033-0.833-0.166-0.899-0.399V47.1l0.149-0.25l0.25-0.5l0.05-0.1l0.2-0.45
		c0.134-0.133,0.7-0.3,1.7-0.5c0.6-0.133,0.816-0.616,0.65-1.45c0.6-0.1,1.483-0.133,2.649-0.1c0.134-0.866,0.033-1.616-0.3-2.25
		c0.9-0.067,1.467-0.2,1.7-0.4c0.267-0.233,0.366-0.783,0.3-1.65c-0.134-1.434-0.366-2.5-0.7-3.2c0.3,0.167,0.733,0.283,1.3,0.35
		c1.367,0.167,2.167,0.367,2.4,0.6c0.134,0.133,0.217,0.45,0.25,0.95l1.6,0.95c-1.399,0.533-1.783,0.917-1.149,1.15
		c1.166,0.4,1.783,0.7,1.85,0.9c0.066,0.2-0.066,0.517-0.399,0.95c-0.267,0.334-0.233,0.667,0.1,1c0.233,0.167,0.667,0.167,1.3,0
		c0.601-0.199,1-0.399,1.2-0.6l1.15,0.35c-0.767,0.7-1.301,1.25-1.601,1.65c-0.566,0.767-0.25,1.1,0.95,1
		c-0.7,0.7-1.066,1.066-1.1,1.1c-0.334,0.534-0.284,1,0.149,1.4c0.2,0.167,0.517,0.25,0.95,0.25c0.3-0.033,0.55,0.167,0.75,0.6
		c0.134,0.267,0.15,0.75,0.05,1.45c-0.1,0.566,0.066,0.983,0.5,1.25c0.334,0.233,0.667,0.3,1,0.2c0.334-0.1,0.566-0.3,0.7-0.6
		c0.033,0.433,0.083,0.85,0.15,1.25c0.033-0.233,0.083-0.434,0.149-0.601l0.15,0.65l0.25-0.05c0.967-0.067,1.316,2.017,1.05,6.25
		l0.3-0.601c0.767,0.033,1.117,0.5,1.05,1.4c0.233-0.8,0.884-1.566,1.95-2.3c1.066-0.767,1.9-1,2.5-0.7
		c-0.166,1.366-0.467,2.3-0.899,2.8c0.399,0.134,0.666,0.483,0.8,1.05c0.133,0.601-0.033,0.983-0.5,1.15l0.75,0.05
		c0.133,0.5,0.033,1.017-0.3,1.55c-0.301,0.5-0.7,0.851-1.2,1.05c0.533-0.033,0.95,0.184,1.25,0.65c0.3,0.4,0.434,0.866,0.399,1.4
		c0,0.6-0.199,1.017-0.6,1.25c0.9-0.2,1.4,0.199,1.5,1.199c0.134,0.967-0.134,1.667-0.8,2.101c0.967-0.601,1.7-0.884,2.2-0.851
		c0.267,0.534,0.333,1.267,0.199,2.2c0.101-0.3,0.367-0.583,0.801-0.85c0.399-0.3,0.767-0.434,1.1-0.4
		c0.434,0.033,0.75,0.25,0.95,0.65c0.1,0.233,0.25,0.649,0.45,1.25c1.533-1.101,3.333-1.75,5.399-1.95l1.5,0.05
		c0.101,0.533,0.033,1.033-0.2,1.5c-0.267,0.5-0.649,0.834-1.149,1c1.934-0.066,3.217-0.066,3.85,0
		c0.667,1.834-2.767,3.117-10.3,3.851c-8,0.433-12.316,0.666-12.95,0.699c0.334,0.233,0.717,0.684,1.15,1.351l-0.8,0.1
		c0.566,0.167,0.699,0.634,0.399,1.4c-1.267,0.166-2.1,0.166-2.5,0c0.134,0.166,0.167,0.5,0.101,1c-0.834,0.3-2.067,0.2-3.7-0.3
		c-1.601-0.5-2.851-1.15-3.75-1.95c0.066,0.399,0.05,0.717-0.05,0.95c-0.2,0.699-0.75,1-1.65,0.899
		c-1.066-0.267-1.816-0.434-2.25-0.5c0.033,0.134-0.017,0.45-0.15,0.95c-0.1,0.467-0.149,0.783-0.149,0.95
		c-2.634,0.2-4.167,0.1-4.601-0.3c-0.533,1.066-1.699,1.583-3.5,1.55c-1.8-0.033-2.716-0.75-2.75-2.15
		c-3.833-0.2-7.75-0.816-11.75-1.85c-0.867,0.8-1.767,1.033-2.7,0.7c-0.1-0.2-0.1-0.417,0-0.65c-0.5,1.233-1.967,1.634-4.4,1.2
		c-0.2-0.7-0.3-1.084-0.3-1.15c-0.467,0.4-1.25,0.684-2.35,0.851c-1.367,0.199-1.567,0.149-0.6-0.15
		c-0.867,0.033-1.517,0.05-1.95,0.05c-0.767,0-1.4-0.033-1.9-0.1c0.3-0.334,0.85-0.75,1.65-1.25c0.767-0.467,1.317-0.884,1.65-1.25
		c-0.767-0.467-1.684-0.634-2.75-0.5c-0.4,0.033-1.267,0.25-2.6,0.649c-0.833,0.4-1.5,0.667-2,0.801c-1,0.199-1.233-0.25-0.7-1.351
		c-0.967,0.667-2.017,0.75-3.15,0.25c-0.067-0.333-0.05-0.7,0.05-1.1c-1.267,0.366-2.333,0.434-3.2,0.2
		c0.167-0.134,0.35-0.334,0.55-0.601c-0.667,0.4-1.85,0.566-3.55,0.5c-1.2-0.033-2.4-0.166-3.6-0.399
		c0.1-0.801,0.783-1.25,2.05-1.351c-2.6,0.134-4.333-0.133-5.2-0.8c0.367-0.4,0.933-0.667,1.7-0.8
		c-0.767-0.167-1.216-0.55-1.35-1.15l0.15-0.3c-0.1,0.8,0.267,1.217,1.1,1.25c0.8,0.066,1.35-0.25,1.65-0.95
		c0,0.4,0.15,0.667,0.45,0.8c0.1,0.034,0.467,0.084,1.1,0.15c0.767,0.066,1.267-0.05,1.5-0.35c0.1-0.167,0.2-0.684,0.3-1.551
		c1,0.7,2.2,0.851,3.6,0.45c0-0.5,0-0.883,0-1.149c0-0.434,0.067-0.801,0.2-1.101c0.667-1.6,2.217-3.233,4.65-4.899
		c-0.066,0.199-0.55,1.149-1.45,2.85c-0.633,1.167-0.85,2.167-0.65,3c0.133,0.033,0.3,0.017,0.5-0.05
		c-0.3,0.633-0.367,1.316-0.2,2.05c0.4,0.1,0.8,0.083,1.2-0.05c0.4-0.2,0.667-0.483,0.8-0.851c-0.467,1.367-0.55,2.217-0.25,2.551
		c0.233,0.267,0.683,0.333,1.35,0.199c0.667-0.166,1.066-0.399,1.2-0.699c-0.066,0.233-0.05,0.517,0.05,0.85
		c0.733,0.134,1.5,0.15,2.3,0.05c1.1-0.1,1.75-0.383,1.95-0.85v0.1c1.267,0.3,2.5,0.25,3.7-0.149c-0.1,0.933,0.067,1.55,0.5,1.85
		c0.434,0.3,1.1,0.2,2-0.3c-0.3,0.3-0.533,0.666-0.7,1.1c-0.167,0.434-0.2,0.834-0.1,1.2c2.667,0.366,4.1,0.083,4.3-0.85
		c-0.033,0.633,0.3,0.949,1,0.949c0.633-0.033,0.983-0.466,1.05-1.3c0.233,0.5,0.65,0.717,1.25,0.65
		c0.633-0.066,0.983-0.351,1.05-0.851c0.2,0.534,0.783,0.7,1.75,0.5c0.933-0.166,1.517-0.55,1.75-1.149
		c0,0.066,0.05,0.416,0.15,1.05c0.967,0.1,1.617,0.134,1.95,0.1c0.834-0.033,1.417-0.267,1.75-0.699
		c-0.366,0.866-0.483,1.733-0.35,2.6c0.967,0.2,2.05-0.3,3.25-1.5c-0.366,0.533-0.634,0.934-0.8,1.2
		c-0.3,0.533-0.384,0.967-0.25,1.3c0.866,0.2,1.55,0.1,2.05-0.3c0.066-0.033,0.517-0.55,1.35-1.55
		c-0.166,1.366,0.417,1.916,1.75,1.649c1.334-0.267,1.867-1.133,1.601-2.6c0.399,0.399,0.833,0.566,1.3,0.5
		c0.1-0.367,0.116-0.767,0.05-1.2c0.233,0.2,0.667,0.267,1.3,0.2c1.534-0.033,2.417-0.934,2.65-2.7c0,0.733,0.033,1.283,0.1,1.65
		c1.767,0.699,2.483-1.184,2.15-5.65c0.366,1.267,0.95,1.934,1.75,2c0.066-0.767,0.3-1.267,0.7-1.5
		c0.233,0.233,0.533,0.616,0.899,1.15c0.334,0.466,0.717,0.733,1.15,0.8c0.934,0.133,1.4-0.217,1.4-1.05
		c0.5,0.366,1.017,0.449,1.55,0.25c0.1-0.534,0.1-0.934,0-1.2c0.366,0.833,1.267,1.35,2.7,1.55c1.399,0.167,2.449-0.033,3.149-0.6
		c-0.133-0.467-0.184-0.934-0.149-1.4c0,0.4,0.133,0.634,0.399,0.7c0.233,0.033,0.517-0.084,0.851-0.351
		c0.333-0.267,0.5-0.949,0.5-2.05c-0.067-1.166-0.084-1.899-0.051-2.2c0.233,0.167,0.534,0.25,0.9,0.25
		c0.3-0.767,0.05-1.649-0.75-2.649c-0.627-0.825-1.302-1.434-2.025-1.825c0.346,0.173,0.421,0.015,0.226-0.475
		c-0.2-0.467-0.467-0.867-0.8-1.2C84.483,59.783,84.1,59.467,83.5,59c0.434-0.2,0.65-0.65,0.65-1.35
		c-0.367-0.434-0.867-0.75-1.5-0.95c-1.034-0.134-1.917-0.25-2.65-0.351c-0.767-0.1-1.384-0.199-1.85-0.3
		c0.433-0.066,0.75-0.184,0.949-0.35c0.334-0.267,0.4-0.667,0.2-1.2c-0.333-0.8-1.033-0.983-2.1-0.55c-0.066,0-0.134,0.017-0.2,0.05
		l0.05-0.2c0-0.233,0.033-0.6,0.101-1.1c0.066-0.634,0.017-1.084-0.15-1.351c-0.033-0.066-0.066-0.133-0.1-0.199
		c-0.034-0.001-0.051-0.019-0.051-0.051C76.583,50.833,76.2,50.75,75.7,50.85z M71.75,41.55c0.066,0.133,1.134,1.601,3.2,4.4
		c0.033,0.033,0.066,0.083,0.1,0.149c-1.434,0-3.483-0.1-6.149-0.3c0.5,1.101,1.716,1.767,3.649,2c0.134,0,1.316,0,3.55,0
		c0.534,1.101,0.75,2.101,0.65,3h1.3c0.233-0.066,0.45-0.05,0.65,0.05c0.033,0.4,0.066,1.034,0.1,1.9c0.601,0.066,1.233,0.066,1.9,0
		c0.2-0.9-0.117-2.134-0.95-3.7c-0.667-1.2-1.434-2.3-2.3-3.3c-0.033-0.033-0.9-0.833-2.601-2.4c-1.033-0.966-1.716-1.899-2.05-2.8
		C72.634,41.117,72.283,41.45,71.75,41.55z M23.75,63.8c-1.2-0.8-2.4-1.233-3.6-1.3c-0.467,0.634-0.167,1.15,0.9,1.55
		c0.767,0.267,1.55,0.4,2.35,0.4L23.75,63.8z M26.3,70.7c0.3-0.533,0.667-0.934,1.1-1.2C27.2,70.134,26.833,70.533,26.3,70.7z
		 M3.45,64.2c0.1-0.167,0.25-0.3,0.45-0.4c1.167,0.233,2.117,0.15,2.85-0.25c0.033,1.033,1.133,1.434,3.3,1.2
		c0-0.233,0.034-0.4,0.1-0.5c0.467,1,1.733,1.2,3.8,0.6c-0.267,0.2-0.467,0.534-0.6,1C13.217,66.316,13.233,66.7,13.4,67
		c0.233,0.366,0.633,0.55,1.2,0.55c0.333,0,0.816-0.017,1.45-0.05l0.3,0.65c-2.133-0.134-3.633-0.017-4.5,0.35l-0.7-0.2
		c-1.7-0.2-3.05-0.434-4.05-0.7c-1.934-0.5-2.15-1.25-0.65-2.25c-0.7-0.1-1.233-0.183-1.6-0.25c-0.633-0.133-1.15-0.333-1.55-0.6
		C3.333,64.4,3.383,64.3,3.45,64.2z M72.1,67.8l0.15,1.95C72.083,69.017,72,68.366,72,67.8l0.05-0.55L72.1,67.8z"/>
	<path style="fill-rule:evenodd;clip-rule:evenodd;fill:#939865;" d="M29.75,49.45c-0.6,0.1-1.167,0.133-1.7,0.1
		c-0.667,0.2-1.233,0.084-1.7-0.35c-0.434-0.767,0.1-1.783,1.6-3.05c0.767-0.667,1.7-1.351,2.8-2.051l9.3,0.7
		c-2.433,1.434-4.333,2.483-5.7,3.15C32.617,48.75,31.083,49.25,29.75,49.45z M38.85,56.2c-0.1-0.066-0.2-0.134-0.3-0.2
		c0.1,0.1,0.184,0.2,0.25,0.3c-0.333,0.434-0.85,0.584-1.55,0.45c-0.133-0.934,0.05-2.233,0.55-3.9c-0.333,0.9-0.966,1.2-1.9,0.9
		c0.1-0.6,0.483-1.283,1.15-2.05c0.333-0.434,0.85-1.05,1.55-1.851c-0.733,0.5-1.267,0.45-1.6-0.149
		c-0.233-0.5,0.183-1.084,1.25-1.75c1.033-0.601,1.8-0.884,2.3-0.851l3.2,1.45C43.383,48.65,43,48.733,42.6,48.8
		c0.6,0,1.15,0,1.65,0c0.1,0.033,0.233,0.101,0.4,0.2c-0.066,0-0.117,0-0.15,0l-0.05,0.4c-0.833,0.1-1.3,0.183-1.4,0.25
		c0.4,0.1,1.034,0.133,1.9,0.1c0.133,0.7-0.017,1.3-0.45,1.8c-0.433,0.467-1,0.767-1.7,0.9c0.2,0.033,0.5,0.133,0.9,0.3
		c0.2,0.667,0,1.2-0.6,1.6c-0.533,0.334-1.133,0.45-1.8,0.351c0.633,0.866,0.5,1.416-0.4,1.649c-0.333,0.101-0.65,0.15-0.95,0.15
		v-0.05c-0.1-0.367-0.25-1.417-0.45-3.15c-0.167,0.533-0.333,1.367-0.5,2.5C38.967,55.934,38.917,56.066,38.85,56.2z M50.25,42.8
		c-0.2,0.033-0.367,0.05-0.5,0.05c0,0.067,0.033,0.167,0.1,0.301c-0.6,0.333-1.4,0.333-2.4,0c-1.2-0.4-1.767-1.034-1.7-1.9
		c-0.167,0.533-0.517,1.116-1.05,1.75c-0.667,0.733-1.233,1.033-1.7,0.9c-0.533-0.167-0.733-0.517-0.6-1.051
		c0.267-0.666,0.45-1.167,0.55-1.5c-0.767,0.867-1.684,1.417-2.75,1.65c-1.133,0.267-1.417-0.316-0.85-1.75
		c-1.167,0.866-2.2,1.533-3.1,2c-1.7,0.967-2.7,1.017-3,0.15c0.533-1.167,1.9-2.5,4.1-4c-0.533,0.267-1.05,0.4-1.55,0.4
		c-0.066-0.533,0.317-1.167,1.15-1.9c0.867-0.7,1.283-1.3,1.25-1.8c-0.233,0.467-0.567,0.816-1,1.05c-0.5,0.3-0.983,0.4-1.45,0.3
		l-0.05-0.5c-0.733,0.8-1.6,1.417-2.6,1.85c-1.1,0.467-1.867,0.45-2.3-0.05c-0.2-0.2-0.25-0.483-0.15-0.85
		c-0.8,0.333-1.683,0.4-2.65,0.2c0.133-0.434,0.467-0.817,1-1.15c0.3-0.2,0.75-0.467,1.35-0.8c-1.367,0.1-2.033-0.233-2-1
		c0.033-0.566,0.667-1.05,1.9-1.45c1.633-0.534,2.467-0.817,2.5-0.85c-0.067,0-0.883,0.017-2.45,0.05c-1,0.033-1.767-0.117-2.3-0.45
		c0.067-0.4,0.5-0.717,1.3-0.95c1.034-0.3,1.617-0.517,1.75-0.65c-1-0.1-1.566-0.15-1.7-0.15c-0.667-0.133-1.2-0.333-1.6-0.6
		c0.333-0.867,1.383-1.1,3.15-0.7c1.7,0.4,2.75,0.967,3.15,1.7l6-4.65c-0.867,0.133-1.267-0.483-1.2-1.85
		c0.033-1.333,0.483-2.083,1.35-2.25c1.133-0.2,1.833,0.283,2.1,1.45c0.133,0.5,0.15,1.467,0.05,2.9
		c0.533-1.5,1.217-1.684,2.05-0.55c0.8,1.067,1.133,2.15,1,3.25c0.167-0.933,0.3-1.483,0.4-1.65c0.233-0.433,0.7-0.65,1.4-0.65
		c1.267,0.033,1.983,0.75,2.15,2.15c0.066-1.533,0.533-2.4,1.4-2.6c0.333,0.434,0.533,1.017,0.6,1.75c0.033-1.066,0.2-2.15,0.5-3.25
		c0.3-1.167,0.7-2.1,1.2-2.8c1.3,0.267,1.983,1.517,2.05,3.75c0.167-0.367,0.534-0.367,1.101,0c0.533,0.3,0.916,0.683,1.149,1.15
		c0.267,0.467,0.434,1.033,0.5,1.7c0.067,0.733-0.017,1.333-0.25,1.8l0.75,0.05c0.134,0.767-0.1,1.45-0.699,2.05
		c-0.601,0.6-1.284,0.917-2.051,0.95c0.5,0,1.301-0.05,2.4-0.15c0.967-0.033,1.767,0.017,2.4,0.15c0.399,1.467-0.75,2.417-3.45,2.85
		c-1.767,0.3-3.617,0.35-5.55,0.15c0.167,0.034,0.383,0.117,0.65,0.25c-1.033,0.167-2.283,0.2-3.75,0.1
		c0.7,0.167,1.267,0.617,1.7,1.35c0.267,0.467,0.433,1.2,0.5,2.2C50.6,41.7,50.517,42.4,50.25,42.8z M68.85,56.95L68.8,57.1
		c-0.066,0.367-0.2,0.634-0.399,0.801c-0.5,0.466-1.733,0.267-3.7-0.601c-1.8-0.767-2.967-1.45-3.5-2.05
		c-0.134-0.167-0.351-0.533-0.65-1.1c-0.233-0.5-0.517-0.851-0.85-1.051c-1.167,1.233-1.767,1.034-1.8-0.6
		c-0.034-1.134,0.116-2.2,0.449-3.2c0.334-0.033,0.567-0.1,0.7-0.2c0.3-0.199,0.5-0.683,0.601-1.449
		c0.066-0.9,0.116-1.483,0.149-1.75c-0.166,0.433-0.55,0.883-1.149,1.35c-0.101,0.066-0.2,0.15-0.301,0.25
		c-0.267-0.066-0.449-0.1-0.55-0.1c-0.1-0.301-0.116-0.667-0.05-1.101c0.1-0.166,0.2-0.333,0.3-0.5l4.351-1.7
		c0.433,1.067,1.383,2.584,2.85,4.551c1.467,1.899,2.417,3.449,2.85,4.649C68.7,54.866,68.95,56.083,68.85,56.95z M65.45,29.65
		c-0.601-0.033-0.983-0.2-1.15-0.5c0.033-0.267,0.184-0.483,0.45-0.65c0.533,0,0.85,0,0.95,0C65.9,29.033,65.816,29.417,65.45,29.65
		z M67.4,35.15c0.066,0,0.133,0,0.199,0c0.867,0.167,1.233,0.583,1.101,1.25c-0.233,0.1-0.5,0.117-0.8,0.05
		c0.366,0.133,0.633,0.4,0.8,0.8c0.2,0.4,0.217,0.767,0.05,1.1c-1.135,0-2.335-0.1-3.6-0.3c-2.334-0.367-4.25-1.017-5.75-1.95
		L67.4,35.15z M68.2,28.1c-0.467-0.1-1.033-0.167-1.7-0.2c-0.467-0.033-0.9-0.066-1.3-0.1l1.85-2.7
		c0.634,0.167,1.017,0.75,1.15,1.75C68.267,27.317,68.267,27.733,68.2,28.1z M65.75,23.1c0.2,0.733-0.217,1.2-1.25,1.4
		c-1,0.2-1.75,0.1-2.25-0.3c0.4-0.767,1-1.35,1.8-1.75L65.75,23.1z M49,57.3c-0.267-0.1-0.433-0.2-0.5-0.3
		c0.1-0.033,0.267-0.05,0.5-0.05C49,57.05,49,57.167,49,57.3z"/>
	<path style="fill-rule:evenodd;clip-rule:evenodd;fill:#695D3F;" d="M54.5,52.8c0,0.066,0,0.134,0,0.2
		c-0.1,1.134-0.45,1.833-1.05,2.1c0-0.8-0.117-2.017-0.35-3.649c-0.067-0.367-0.333-0.983-0.8-1.851
		c-0.4-0.733-0.583-1.333-0.55-1.8l2-4.7c-0.067,0.567,0.067,1.567,0.4,3c0.166,2,0.25,3.233,0.25,3.7s0.033,1.45,0.1,2.95V52.8z
		 M71.75,41.55c0.533-0.1,0.884-0.433,1.05-1c0.334,0.9,1.017,1.834,2.05,2.8c1.7,1.567,2.567,2.367,2.601,2.4
		c0.866,1,1.633,2.1,2.3,3.3c0.833,1.566,1.15,2.8,0.95,3.7c-0.667,0.066-1.3,0.066-1.9,0c-0.033-0.866-0.066-1.5-0.1-1.9
		c-0.2-0.1-0.417-0.116-0.65-0.05h-1.3c0.1-0.899-0.116-1.899-0.65-3c-2.233,0-3.416,0-3.55,0c-1.934-0.233-3.149-0.899-3.649-2
		c2.666,0.2,4.716,0.3,6.149,0.3c-0.033-0.066-0.066-0.116-0.1-0.149C72.884,43.15,71.816,41.683,71.75,41.55z M23.75,63.8
		l-0.35,0.65c-0.8,0-1.583-0.134-2.35-0.4c-1.066-0.399-1.367-0.916-0.9-1.55C21.35,62.566,22.55,63,23.75,63.8z M48.4,59.8
		c0-0.133,0-0.25,0-0.35l0.15,0.399l0.5,1.25c0.067,0.634,0.05,1.2-0.05,1.7c-0.367-0.333-0.567-0.833-0.6-1.5
		C48.4,60.667,48.4,60.167,48.4,59.8z"/>
</g>
</svg>
