<?xml version="1.0" encoding="iso-8859-1"?>
<!-- Generator: Adobe Illustrator 15.1.0, SVG Export Plug-In . SVG Version: 6.00 Build 0)  -->
<!DOCTYPE svg PUBLIC "-//W3C//DTD SVG 1.1//EN" "http://www.w3.org/Graphics/SVG/1.1/DTD/svg11.dtd">
<svg version="1.1" id="Layer_1" xmlns="http://www.w3.org/2000/svg" xmlns:xlink="http://www.w3.org/1999/xlink" x="0px" y="0px"
	 width="111.65px" height="84.9px" viewBox="0 0 111.65 84.9" style="enable-background:new 0 0 111.65 84.9;" xml:space="preserve"
	>
<g>
	
		<linearGradient id="SVGID_1_" gradientUnits="userSpaceOnUse" x1="5.1548" y1="-57.5625" x2="36.9298" y2="-57.5625" gradientTransform="matrix(3.147129e-005 1 -1 -0.001 2.224725e-004 -7.460581e-005)">
		<stop  offset="0" style="stop-color:#FFFFFF"/>
		<stop  offset="1" style="stop-color:#C8DAE3"/>
	</linearGradient>
	<path style="fill-rule:evenodd;clip-rule:evenodd;fill:url(#SVGID_1_);" d="M88.45,23.7c-0.4,0.033-0.8,0.066-1.2,0.1
		c-0.3-0.167-0.45-0.483-0.45-0.95c0-0.434,0-0.767,0-1c-0.033-0.167-0.05-0.283-0.05-0.35c-0.1-0.467-0.35-0.917-0.75-1.35
		c-0.2-0.2-0.4-0.333-0.6-0.4c-0.067-0.033-0.117-0.05-0.15-0.05c-0.233-0.067-0.45-0.034-0.65,0.1c-0.333,0.2-0.416,0.733-0.25,1.6
		c0.134,0.867,0.051,1.4-0.25,1.6c-0.1,0.1-0.283,0.133-0.55,0.1c-0.033,0-0.083,0-0.149,0c-0.101-0.033-0.2-0.05-0.301-0.05
		C82.833,23.017,82.684,23,82.65,23c-0.601,0.033-1.351,0.2-2.25,0.5c-1.034,0.333-1.684,0.683-1.95,1.05
		c-0.3,0.467-0.483,1.184-0.55,2.15c0,0.2,0,0.433,0,0.7c-0.034,0.167-0.051,0.333-0.051,0.5c-0.533-0.033-1.033-0.05-1.5-0.05
		c-0.033-1.067-0.066-1.75-0.1-2.05c0-0.9-0.05-1.483-0.15-1.75c-0.133-0.367-0.566-0.55-1.3-0.55
		c-0.866,0.033-1.616,0.25-2.25,0.65c-0.133,0.067-0.25,0.15-0.35,0.25C72,24.567,71.8,24.767,71.6,25
		c-0.233,0.2-0.483,0.467-0.75,0.8c-0.133,0.2-0.366,0.517-0.699,0.95c-0.067,0.067-0.134,0.133-0.2,0.2
		c-0.267,0.167-0.55,0.2-0.851,0.1c-0.199-0.033-0.35-0.15-0.449-0.35c-0.034-0.067-0.067-0.15-0.101-0.25
		c-0.133-0.4-0.267-0.633-0.399-0.7c-0.367-0.3-0.9-0.367-1.601-0.2c-0.899,0.2-1.467,0.284-1.7,0.25
		c-0.633-0.133-1.149-0.533-1.55-1.2l-0.35-1c-0.101-0.3-0.316-0.583-0.65-0.85c-1.3-0.433-2.566-0.667-3.8-0.7
		c-0.733-0.066-1.25,0-1.55,0.2c-0.334,0.2-0.617,0.65-0.851,1.35c-0.033,0.066-0.05,0.167-0.05,0.3c-0.066,0.4-0.066,1.033,0,1.9
		c0.033,0.967-0.033,1.65-0.2,2.05c-0.199,0.4-0.649,0.733-1.35,1c-0.867,0.367-1.433,0.65-1.7,0.85c-0.3,0.267-0.533,0.65-0.7,1.15
		c-0.2,0.566-0.383,0.95-0.55,1.15c-0.233,0.267-0.767,0.517-1.6,0.75c-0.7,0.167-1.15,0.55-1.35,1.15
		c-0.1,0.267-0.133,0.65-0.1,1.15c0.067,0.6,0.083,1,0.05,1.2c-0.466,0.167-0.767,0.1-0.9-0.2c-0.133-0.433-0.25-0.767-0.35-1
		c-0.433-1.133-0.667-1.9-0.7-2.3c-0.1-0.633-0.2-1.017-0.3-1.15c-0.167-0.3-0.517-0.417-1.05-0.35c-0.5,0.067-0.767,0.333-0.8,0.8
		c-0.034,0.567-0.167,0.95-0.4,1.15c-0.2,0.167-0.466,0.25-0.8,0.25l-0.4-0.4c-0.067-0.933-1.133-1.6-3.2-2
		c-2.333-0.267-3.767-0.433-4.3-0.5c-0.8-0.066-1.733,0-2.8,0.2c-1.767,0.367-2.667,0.55-2.7,0.55c-0.2,0.034-0.6,0.017-1.2-0.05
		c-0.566-0.067-0.983-0.05-1.25,0.05c-0.367,0.133-0.7,0.333-1,0.6c0.133-1.3,0.2-2.283,0.2-2.95c-0.033-0.3-0.1-0.583-0.2-0.85
		c-0.2-0.5-0.3-0.767-0.3-0.8c-0.167-0.767-0.2-1.533-0.1-2.3c0.133-0.867,0.433-1.533,0.9-2c0.333-0.333,0.867-0.633,1.6-0.9
		c0.8-0.3,1.333-0.567,1.6-0.8c0.467-0.367,0.717-0.9,0.75-1.6c-0.033-0.833-0.033-1.467,0-1.9c0.033-1.033,0.583-2.3,1.65-3.8
		c0.8-1.1,2.3-1.533,4.5-1.3c2.9,0.3,4.6,0.383,5.1,0.25c-0.067-2.934,0.65-4.684,2.15-5.25c0.267-0.1,1.067-0.184,2.4-0.25
		c1.1-0.034,1.817-0.25,2.15-0.65c0.2-0.233,0.3-0.65,0.3-1.25c-0.033-0.633,0.017-1.066,0.15-1.3s0.417-0.5,0.85-0.8
		c0.533-0.4,0.867-0.667,1-0.8c0.5-0.767,0.883-1.35,1.15-1.75c0.533-0.7,1.15-0.983,1.85-0.85h-0.5
		c4.367,0.133,7.45,1.583,9.25,4.35c0.634,1.033,1.717,2.5,3.25,4.4c0.134,0.167,0.301,0.5,0.5,1c0.233,0.467,0.4,0.767,0.5,0.9
		c0.267,0.333,0.634,0.583,1.101,0.75c0.033,0,0.467,0.117,1.3,0.35c3.134,0.767,5.667,2.434,7.6,5c0.434,0.6,1,0.833,1.7,0.7
		c0.4-0.1,1.084-0.333,2.05-0.7c0.5-0.1,1.167-0.133,2-0.1c0.434,0.033,1.084,0.066,1.95,0.1c0.9-0.033,1.601,0.067,2.101,0.3
		c0.533,0.233,1.017,0.717,1.449,1.45c0.733,1.367,0.983,2.7,0.75,4c-0.1,0.467-0.3,0.833-0.6,1.1L88.45,23.7z"/>
	<path style="fill-rule:evenodd;clip-rule:evenodd;fill:#848958;" d="M68.65,26.7l-1.45,2.05c-0.867-0.133-1.467-0.35-1.8-0.65
		l-1,1.35c0.966,0,1.733,0,2.3,0c-0.167,0.133-0.316,0.35-0.45,0.65c0.2,0.3,0.6,0.467,1.2,0.5c-0.033,0.033-0.084,0.066-0.15,0.1
		c-0.3,0.167-0.7,0.216-1.2,0.15c0.134,0.1,0.334,0.217,0.601,0.35c-0.101,0.066-0.184,0.133-0.25,0.2
		c-1.733-0.4-3.017-0.6-3.851-0.6l-2.35,1l-0.7-0.1c0.233-0.434,0.316-1.017,0.25-1.75c-0.066-0.667-0.217-1.25-0.45-1.75
		c-0.233-0.434-0.616-0.817-1.149-1.15c-0.566-0.3-0.95-0.283-1.15,0.05c0-0.9-0.149-1.684-0.45-2.35
		c-0.133-0.367-0.316-0.65-0.55-0.85c0-0.133,0.017-0.233,0.05-0.3c0.233-0.7,0.517-1.15,0.851-1.35c0.3-0.2,0.816-0.267,1.55-0.2
		c1.233,0.034,2.5,0.267,3.8,0.7c0.334,0.267,0.55,0.55,0.65,0.85l0.35,1c0.4,0.667,0.917,1.066,1.55,1.2
		c0.233,0.034,0.801-0.05,1.7-0.25c0.7-0.167,1.233-0.1,1.601,0.2c0.133,0.067,0.267,0.3,0.399,0.7
		C68.583,26.55,68.616,26.633,68.65,26.7z M70.2,29c0.033-0.333,0.017-0.717-0.05-1.15c-0.034-0.367-0.101-0.667-0.2-0.9
		c0.066-0.067,0.133-0.133,0.2-0.2c0.333-0.433,0.566-0.75,0.699-0.95c0.267-0.333,0.517-0.6,0.75-0.8
		c0.067,0.167,0.15,0.367,0.25,0.6l0.25-0.25c0-0.333,0.034-0.65,0.101-0.95c0.1-0.1,0.217-0.183,0.35-0.25
		c0.634-0.4,1.384-0.617,2.25-0.65c0.733,0,1.167,0.183,1.3,0.55c0.101,0.267,0.15,0.85,0.15,1.75c0.033,0.3,0.066,0.983,0.1,2.05
		c-1.8-0.033-3.366,0.167-4.699,0.6C71.15,28.583,70.667,28.767,70.2,29z M77.9,27.4c0-0.267,0-0.5,0-0.7
		c0.066-0.967,0.25-1.684,0.55-2.15c0.267-0.367,0.916-0.716,1.95-1.05c0.899-0.3,1.649-0.467,2.25-0.5
		c0.033,0,0.183,0.017,0.449,0.05c-0.399,0.267-0.783,0.75-1.149,1.45c-0.566,0.933-1.084,1.517-1.55,1.75
		c-0.067-0.467-0.067-0.933,0-1.4c-0.167,0.733-0.45,1.333-0.851,1.8C79.05,27.183,78.5,27.433,77.9,27.4z M84.2,24.25
		c-0.066,0.033-0.117,0.067-0.15,0.1c-0.233-0.333-0.399-0.75-0.5-1.25c0.267,0.033,0.45,0,0.55-0.1c0.301-0.2,0.384-0.733,0.25-1.6
		c-0.166-0.867-0.083-1.4,0.25-1.6c0.2-0.133,0.417-0.167,0.65-0.1c-0.134,0.133-0.283,0.267-0.45,0.4
		c0.2-0.133,0.4-0.25,0.601-0.35c0.199,0.067,0.399,0.2,0.6,0.4c0.4,0.434,0.65,0.883,0.75,1.35c0,0.067,0.017,0.183,0.05,0.35
		c-0.066,0.066-0.116,0.133-0.149,0.2C85.616,23.05,84.8,23.783,84.2,24.25z M106.55,71.8L105,71.75
		c-0.467-0.033-1.184-0.017-2.15,0.05C104.316,71.667,105.55,71.667,106.55,71.8z M14.7,69.75c-0.534-0.134-1.067-0.3-1.6-0.5
		c0.467,0.134,0.717,0.2,0.75,0.2L14.7,69.75z M16.3,72.6c-0.3,0.167-0.617,0.367-0.95,0.601c-0.067,0.434,0.017,0.767,0.25,1
		c0.133,0.133,0.316,0.233,0.55,0.3c-0.146-0.029-0.262-0.071-0.35-0.125l-0.05-0.025c-0.067-0.033-0.117-0.083-0.15-0.149
		c-0.267-0.233-0.434-0.517-0.5-0.851C15.5,73.05,15.9,72.8,16.3,72.6z M10.95,58.15c-0.267,0.066-0.517,0.116-0.75,0.149v-0.05
		C10.433,58.217,10.683,58.184,10.95,58.15z M12.275,52.025L12.3,52.05l0.2,0.4C12.393,52.316,12.318,52.175,12.275,52.025z
		 M39.85,47.05c0.467-0.1,1.217-0.116,2.25-0.05c0.633-0.1,1.517-0.316,2.65-0.65c0.033,0.101,0.067,0.184,0.1,0.25
		c0.3,0.667,0.95,0.917,1.95,0.75c0.5-0.1,1.067-0.399,1.7-0.899c0.1-0.066,0.183-0.134,0.25-0.2c0.667,0.5,0.567,0.917-0.3,1.25
		c-0.434,0.1-0.8,0.184-1.1,0.25c-0.667,0.033-1.117,0.066-1.35,0.1c0.067,0.034,0.267,0.067,0.6,0.101
		c-0.167,0-0.283,0.017-0.35,0.05c0.6,0.467,0.683,0.866,0.25,1.2l-1.9-1.4c-2.533,0-4.283,0.134-5.25,0.4
		c-1.833,0.5-3.083,1.616-3.75,3.35c-0.167,0.4-0.267,1.05-0.3,1.95c-0.066-0.167-0.15-0.3-0.25-0.4
		c-0.333,0.134-0.683,0.351-1.05,0.65c0.067-0.467,0.1-0.95,0.1-1.45L31.75,51.4c-0.033-0.4-0.05-0.717-0.05-0.95l-0.35,0.75
		l-1.6-0.601c0.1-0.033,0.183-0.066,0.25-0.1c1.733,0.134,3.833-0.4,6.3-1.6C37.233,48.467,38.417,47.85,39.85,47.05z M31.45,46.05
		c-0.4,0.3-0.917,0.667-1.55,1.101c-1.333,1.133-1.9,2.066-1.7,2.8l-0.35-0.15c-0.533-0.1-1.333-0.366-2.4-0.8
		c-1.034-0.4-1.833-0.667-2.4-0.8c-0.033,0-0.066,0-0.1,0c0.2-0.101,0.4-0.233,0.6-0.4l0.7-1.05c0.6-0.634,1.333-1.134,2.2-1.5
		c0.767-0.3,1.6-0.366,2.5-0.2C29.583,45.15,30.417,45.483,31.45,46.05z M52.05,44.45c0.067,0.133,0.15,0.267,0.25,0.399
		c0.267,0.4,0.383,0.784,0.35,1.15c-0.5,0.2-1.183,0.267-2.05,0.2c-0.7-0.033-1.25-0.066-1.65-0.101
		c0.566-0.466,0.95-0.75,1.15-0.85C50.733,44.917,51.383,44.65,52.05,44.45z M58.25,45.75c-0.333,0.033-0.6,0.033-0.8,0
		c-0.066-0.267-0.084-0.65-0.05-1.15v-0.05c0.3,0.134,0.566,0.283,0.8,0.45c0.3,0.233,0.55,0.434,0.75,0.6c-0.066,0-0.117,0-0.15,0
		c-0.133,0.034-0.267,0.067-0.399,0.101c0-0.066,0-0.117,0-0.15C58.333,45.616,58.283,45.684,58.25,45.75z M61.1,46.35l-1.05,0.4
		c-0.1,0.167-0.2,0.333-0.3,0.5c0-0.1,0.017-0.2,0.05-0.3c0.066-0.334,0.117-0.617,0.15-0.851c0.166,0.067,0.366,0.117,0.6,0.15
		C60.75,46.283,60.934,46.316,61.1,46.35z M66.2,47.6c-0.134,0-0.25,0-0.351,0c-0.233-0.333-0.433-0.649-0.6-0.949
		c0.134,0,0.283-0.017,0.45-0.051c0.066,0.301,0.217,0.617,0.45,0.95L66.2,47.6z M67.3,47.55l-1.149-1c0.033,0,0.083,0,0.149,0
		c0.267,0.167,0.601,0.134,1-0.1c0.167,0.267,0.334,0.5,0.5,0.7c-0.033,0.1-0.05,0.199-0.05,0.3l-0.05,0.1
		C67.533,47.55,67.4,47.55,67.3,47.55z M58.45,62.75c0.166-0.134,0.333-0.233,0.5-0.3c-0.233,0-0.434-0.05-0.601-0.15
		c-0.033-0.7,0.051-1.566,0.25-2.6c0.034-0.101,0.051-0.2,0.051-0.3c0.066-0.034,0.133-0.067,0.199-0.101
		c0.801-0.434,1.267-0.8,1.4-1.1L59,57.5c0-0.233,0.017-0.417,0.05-0.55c0.467-0.134,0.851-0.2,1.15-0.2
		c0.6,0,1.066,0.184,1.399,0.55c0.233,0.2,0.551,0.617,0.95,1.25c0.033,0.066,0.05,0.184,0.05,0.351c0,0.133,0.051,0.233,0.15,0.3
		c0.3,0.233,0.9,0.35,1.8,0.35c0.5,0.101,0.851,0.233,1.05,0.4c0.2,0.166,0.45,0.517,0.75,1.05c0.134,0.267,0.334,0.7,0.601,1.3
		c0.267,0.5,0.616,0.767,1.05,0.8c0.667,0.067,0.967-0.333,0.9-1.199c-0.101-1.233-0.134-1.917-0.101-2.051
		c0.134-0.3,0.316-0.55,0.55-0.75c0.5,0.067,0.851,0,1.051-0.199c0.1-0.101,0.183-0.217,0.25-0.351c0.199-0.033,0.399-0.05,0.6-0.05
		c0.167,0.1,0.366,0.184,0.6,0.25l-0.25-0.2c0.233,0.033,0.467,0.117,0.7,0.25c-0.2,0-0.35-0.017-0.45-0.05
		c0.5,0.467,0.9,0.917,1.2,1.35c0.033,0.101,0.084,0.2,0.15,0.301c0.267,0.6,0.3,1.166,0.1,1.699c-0.366,0.101-0.783,0.067-1.25-0.1
		c0.733,1.733,0.75,2.85,0.05,3.35c-0.733,0.567-1.767,0.084-3.1-1.449c-0.134,0.267-0.25,0.916-0.35,1.949
		c-0.167,0.9-0.567,1.334-1.2,1.301c-0.566,0-0.983-0.5-1.25-1.5c-0.167-1.2-0.316-1.967-0.45-2.301
		c-0.033,0.334-0.1,1.117-0.2,2.351c-0.267,1.033-0.783,1.383-1.55,1.05c-0.6-0.267-0.833-1.116-0.7-2.55
		c-0.2,0.6-0.517,1.05-0.95,1.35c-0.5,0.334-1.017,0.334-1.55,0c-0.434-0.267-0.633-0.883-0.6-1.85c0.133-1.134,0.2-1.884,0.2-2.25
		c-0.167,0.467-0.417,0.833-0.75,1.1C59.25,62.816,58.85,62.884,58.45,62.75z M74,68.8l0.05-0.6v0.6L74.1,69
		c-0.033-0.033-0.066-0.05-0.1-0.05C74,68.883,74,68.833,74,68.8z M71.4,60.75c-0.167,0.6,0.05,1.017,0.649,1.25
		C71.85,61.467,71.634,61.05,71.4,60.75z"/>
	<path style="fill-rule:evenodd;clip-rule:evenodd;fill:#6D7247;" d="M82,29.5c-1.5-0.933-2.483-1.433-2.95-1.5
		c-0.399-0.033-0.8-0.067-1.2-0.1c0-0.167,0.017-0.333,0.051-0.5c0.6,0.033,1.149-0.217,1.649-0.75c0.4-0.467,0.684-1.066,0.851-1.8
		c-0.067,0.467-0.067,0.933,0,1.4c0.466-0.233,0.983-0.817,1.55-1.75c0.366-0.7,0.75-1.183,1.149-1.45c0.101,0,0.2,0.017,0.301,0.05
		c0.066,0,0.116,0,0.149,0c0.101,0.5,0.267,0.917,0.5,1.25c0.033-0.033,0.084-0.067,0.15-0.1c1.934-0.3,2.916-0.45,2.95-0.45
		c0.033,0,0.066,0,0.1,0c0.4-0.033,0.8-0.066,1.2-0.1c0.6,0,1.149,0.033,1.649,0.1c0.4,1.4-0.816,2.217-3.649,2.45
		c0.434,0.1,0.717,0.4,0.85,0.9c-1.366,0.9-2.833,1.583-4.399,2.05C82.6,29.3,82.3,29.4,82,29.5z M84.2,24.25
		c0.6-0.467,1.416-1.2,2.45-2.2c0.033-0.033,0.066-0.066,0.1-0.1c-0.3,0.466-0.616,0.883-0.95,1.25l-0.3,0.3
		C85.1,23.8,84.667,24.05,84.2,24.25z M84.8,38.75c0.733-0.5,1.601-0.467,2.601,0.1c1.733,1,2.8,1.483,3.199,1.45
		c0.5-0.066,0.983-0.283,1.45-0.65c0.5-0.5,0.9-0.883,1.2-1.15c0.3-0.233,0.616-0.367,0.95-0.4c0.133,0,0.35,0,0.649,0
		c-0.1,0.066-0.183,0.133-0.25,0.2c-0.633,0.6-1.433,1.05-2.399,1.35c1.1,0.033,1.6,0.6,1.5,1.7c-0.101,1.1-0.584,1.85-1.45,2.25
		c0.2,0.301,0.316,0.601,0.35,0.9l-2.5-0.7c-0.366-0.066-0.699-0.116-1-0.149C89.066,43.384,89.033,43.1,89,42.8
		c-0.533-0.133-0.983,0.034-1.35,0.5c0.333-0.6,0.5-1.333,0.5-2.2c0-0.934-0.233-1.567-0.7-1.9c-0.601,0.1-1.2,0.367-1.8,0.8
		c-0.5,0.4-0.801,0.817-0.9,1.25c0.066-0.733,0.1-1.317,0.1-1.75C84.85,39.233,84.833,38.983,84.8,38.75z M82.25,38.6
		c-0.2,0.267-0.35,0.566-0.45,0.9c-0.1-0.167-0.25-0.3-0.45-0.4c-0.199-0.1-0.517-0.1-0.949,0c-0.5,0.066-0.834,0.05-1-0.05
		c-0.101-0.066-0.167-0.15-0.2-0.25c0.6-0.433,1.267-0.583,2-0.45C81.467,38.383,81.816,38.467,82.25,38.6z M110.3,47.1
		c0.066-0.1,0.117-0.183,0.15-0.25c0.399-0.6,0.616-1.183,0.649-1.75c0.2-0.1,0.367-0.183,0.5-0.25
		c0.134,0.667-0.133,1.284-0.8,1.851C110.634,46.833,110.467,46.967,110.3,47.1z M109.75,47.8h0.3c0.5,1,0.117,1.851-1.149,2.55
		c-0.7,0.4-1.75,0.834-3.15,1.301c1.134-0.167,1.717,0.133,1.75,0.899c0,0.767-0.533,1.167-1.6,1.2
		c0.866,0.233,1.149,0.733,0.85,1.5c-0.3,0.8-1.816,1.167-4.55,1.1c0.133,0.134,0.149,0.334,0.05,0.601c-0.1,0-0.184,0-0.25,0
		c-1.866,0.233-3.233,0.35-4.1,0.35c0.133-0.133,0.199-0.283,0.199-0.45c0-0.399-0.166-0.633-0.5-0.699
		c2.067,0.1,3.117-0.284,3.15-1.15c0.066-0.6-0.116-0.917-0.55-0.95c0.666-0.2,1.217-0.5,1.649-0.899
		c0.534-0.5,0.417-0.934-0.35-1.301c0.533-0.233,0.833-0.6,0.9-1.1c0.366-0.167,0.716-0.3,1.05-0.4
		c0.267-0.066,0.717-0.033,1.35,0.101c0.566,0.133,0.983,0.149,1.25,0.05l0.05-1.45c0.301-0.033,0.767-0.083,1.4-0.149
		c0.533-0.067,0.983-0.2,1.35-0.4C109.184,48.3,109.483,48.066,109.75,47.8z M89.55,53.6c0.767,0.034,1.767,0,3-0.1
		c0.467,0.033,0.884,0.134,1.25,0.3c-0.533,0.033-0.983,0.15-1.35,0.351c-0.467,0.267-0.717,0.633-0.75,1.1
		c0-0.5-0.117-0.983-0.351-1.45c-0.966,0.066-1.683,0.483-2.149,1.25C89.366,54.65,89.483,54.167,89.55,53.6z M88.7,46.45
		c0.733,0,1.55-0.05,2.45-0.15c0.333-0.033,0.666-0.133,1-0.3c-0.101,0.1-0.233,0.2-0.4,0.3c0.3-0.1,0.717-0.1,1.25,0
		c0.066,0.267,0.1,0.55,0.1,0.851c-0.233,0.066-0.449,0.149-0.649,0.25c-1.033,0.6-1.884,1.066-2.55,1.399
		c-0.233,0.134-0.517,0.267-0.851,0.4c0.134-0.733,0.117-1.417-0.05-2.05c-0.033,0-0.217,0.017-0.55,0.05
		c-0.2,0-0.367,0.05-0.5,0.149C88.25,47.116,88.5,46.816,88.7,46.45z M104.6,45.2c0-0.134,0.017-0.267,0.051-0.4
		c0.199-0.066,0.383-0.116,0.55-0.149L104.6,45.2z M101.6,68.45H100.7L99.6,67.8c-1.066,0-1.633,0-1.699,0
		c-0.467,0.066-0.801,0.283-1,0.65c-0.434,0-0.817,0.1-1.15,0.3c0.634-0.5,0.616-0.9-0.05-1.2c-0.5-0.267-1.117-0.399-1.851-0.399
		V67.1c3.934-0.166,5.817-0.816,5.65-1.949c-0.1-0.367-0.3-0.601-0.6-0.7c1.166,0.1,1.916,0.133,2.25,0.1
		c0.533-0.066,0.899-0.233,1.1-0.5c0.033,0,0.066,0,0.1,0c0.5,0.066,0.851-0.033,1.051-0.3c0.166-0.4,0.316-0.733,0.449-1
		c0.4-0.833,0.967-1.517,1.7-2.05c0.9-0.634,1.767-0.867,2.601-0.7c0.199,0.033,0.5,0.167,0.899,0.4c-0.166,0.566-0.5,0.983-1,1.25
		c0.967-0.367,1.783-0.483,2.45-0.351c0.333,0.867,0.167,1.65-0.5,2.351c-0.527,0.527-1.219,0.894-2.075,1.1
		c0.297-0.063,0.655-0.047,1.075,0.05c0.533,1.4-0.384,2.316-2.75,2.75c-1.6,0.3-3.267,0.351-5,0.15
		C101.45,67.967,101.566,68.217,101.6,68.45z M16.15,49.35c-0.2,0.233-0.383,0.483-0.55,0.75c-0.267,0.367-0.65,0.917-1.15,1.65
		c-0.3,0.434-0.733,1-1.3,1.7c-0.3,0.366-0.55,0.733-0.75,1.1c-0.8-0.666-1.05-1.434-0.75-2.3c0.1,0.033,0.25,0.066,0.45,0.1
		c0.133,0,0.267,0.034,0.4,0.101l-0.2-0.4l-0.025-0.024c-0.017-0.036-0.025-0.077-0.025-0.125c0-0.034,0-0.067,0-0.101l-0.05-0.1
		V51.6c0-0.066,0-0.116,0-0.149c0-0.2,0-0.351,0-0.45c-0.034-0.1-0.05-0.167-0.05-0.2L13,51.05c-0.433-0.434-0.533-0.95-0.3-1.55
		c0.267-0.467,0.466-0.866,0.6-1.2c0.034-0.033,0.067-0.05,0.1-0.05c0.6-0.033,1.283,0.2,2.05,0.7
		C15.683,49.083,15.917,49.217,16.15,49.35z M82.3,68.3c-0.899-0.5-1.416-1.184-1.55-2.05c0.167,1.333-0.384,1.816-1.65,1.45
		c-0.199-1.4-0.033-2.717,0.5-3.95c-0.399,0.5-0.883,0.733-1.449,0.7c-0.101-0.233-0.117-0.517-0.051-0.851
		c0.2,0,0.45-0.017,0.75-0.05c0.5-0.066,0.834-0.083,1-0.05c0.534,0.066,1.117,0.3,1.75,0.7c0.567,0.399,1.034,0.833,1.4,1.3
		l0.55,0.95c0.101,0.434,0.101,0.7,0,0.8c-0.066,0.1-0.283,0.267-0.649,0.5C82.667,67.917,82.467,68.1,82.3,68.3z M66.15,46.55
		l1.149,1c-0.434,0-0.8,0.017-1.1,0.05l-0.05-0.05c-0.233-0.333-0.384-0.649-0.45-0.95C65.866,46.6,66.017,46.583,66.15,46.55z
		 M38.7,69.85c0.333-0.066,0.733-0.183,1.2-0.35c0.7-0.1,1.267,0.083,1.7,0.55c0.167,0.167,0.333,0.517,0.5,1.05
		c0.133,0.434,0.3,0.767,0.5,1c-1.1,0.233-1.717-0.216-1.85-1.35c-0.2,0.7-0.633,0.917-1.3,0.65
		c-0.434-0.167-0.684-0.517-0.75-1.051C38.7,70.217,38.7,70.05,38.7,69.85z M37.65,70.05c-0.167,0.066-0.333,0.134-0.5,0.2
		c-0.967,0.267-1.667,0.2-2.1-0.2c-0.267-0.233-0.383-0.55-0.35-0.95h0.05c0.433,0.167,0.95,0.417,1.55,0.75
		C36.733,70.017,37.183,70.083,37.65,70.05z M34.5,69.05c-0.6,0.367-1.467,0.55-2.6,0.55c-0.066,0-0.133,0-0.2,0
		c0.333-0.133,0.75-0.3,1.25-0.5C33.517,68.934,34.033,68.917,34.5,69.05z M32.3,63.35c-0.433-0.267-0.667-0.75-0.7-1.449
		c0-0.2,0.017-0.367,0.05-0.5c0.1-0.101,0.217-0.167,0.35-0.2c0.3-0.634,0.433-1.483,0.4-2.55c0-0.334-0.017-0.717-0.05-1.15
		c0.566-0.667,0.983-1.333,1.25-2c0.2-0.5,0.333-1.083,0.4-1.75c0.367-0.3,0.717-0.517,1.05-0.65c0.1,0.101,0.184,0.233,0.25,0.4
		c0,0.066,0,0.134,0,0.2c0,0.934-0.1,1.616-0.3,2.05c-0.067,0.2-0.167,0.316-0.3,0.35c-0.133,0.067-0.25,0.15-0.35,0.25
		c-1.133,1.467-1.8,2.983-2,4.551C32.25,62,32.233,62.816,32.3,63.35z M40.5,60.8c0,0.167-0.033,0.351-0.1,0.55
		c-0.2-0.033-0.383-0.05-0.55-0.05c-0.1,0-0.184,0-0.25,0C39.9,61.066,40.2,60.9,40.5,60.8z M44,62.05
		c-0.967-0.366-1.983-0.6-3.05-0.7c-0.167-0.166-0.3-0.366-0.4-0.6c0.267-0.134,0.534-0.25,0.8-0.35
		c0.533-0.167,0.933-0.184,1.2-0.051c0.167,0.067,0.483,0.284,0.95,0.65c0.333,0.233,0.7,0.417,1.1,0.55
		C44.467,61.75,44.267,61.917,44,62.05z M48.05,61.7C48.017,61.767,48,61.833,48,61.9c-0.267-0.034-0.5-0.051-0.7-0.051
		c0.067-0.033,0.133-0.05,0.2-0.05C47.667,61.767,47.85,61.733,48.05,61.7z M49.4,61.4c-0.1,0-0.167,0-0.2,0
		c0.066-0.034,0.133-0.051,0.2-0.051V61.4z M67.75,47.45c0-0.101,0.017-0.2,0.05-0.3l0.05,0.1L67.75,47.45z M15.35,60.45
		c0-0.4,0.017-0.834,0.05-1.3c-0.133,0.433-0.267,0.816-0.4,1.149l-1.6-0.7c-0.033-0.233-0.05-0.5-0.05-0.8l3.85-0.05
		c1.767,0,3.183,0.267,4.25,0.8c0.3,0.167,0.667,0.467,1.1,0.9c0.434,0.434,0.784,0.717,1.05,0.85c0.267,0.167,0.917,0.25,1.95,0.25
		c0.534,0,1.1-0.1,1.7-0.3c0.3,1.333-0.333,1.733-1.9,1.2c-1.4-0.5-2.583-1.217-3.55-2.15c0,0.033,0.017,0.066,0.05,0.101
		c0.367,0.733,0.433,1.3,0.2,1.699c-0.1,0.233-0.383,0.517-0.85,0.851c-0.367,0.233-0.567,0.6-0.6,1.1
		c-0.1,0.033-0.184,0.05-0.25,0.05c0-0.399,0-0.916,0-1.55L15.35,60.45z M24.95,68.15c-0.233,0-0.534-0.034-0.9-0.101
		c0.1-0.233,0.184-0.517,0.25-0.85c0.034,0.2,0.117,0.399,0.25,0.6C24.65,67.934,24.783,68.05,24.95,68.15z M53.5,71.75
		c-0.267,0.366-0.5,0.583-0.7,0.65c-0.367,0.1-0.7,0.033-1-0.2c-0.3-0.233-0.433-0.533-0.4-0.9c-0.033,0.467-0.233,0.717-0.6,0.75
		c-0.5-0.033-0.867-0.017-1.1,0.05c-0.534,0.167-0.817,0.301-0.85,0.4s-0.083,0.417-0.15,0.95c-0.133,0.6-0.3,1-0.5,1.2
		c-0.267,0.267-0.517,0-0.75-0.801c0.033,0.834-0.367,1.367-1.2,1.601c-0.733,0.2-1.45,0.1-2.15-0.3
		c-0.633-0.367-0.983-0.817-1.05-1.351c0.034-0.467,0.05-0.899,0.05-1.3c0.533,0.3,1.316,0.4,2.35,0.3
		c0.5-0.066,1.05-0.333,1.65-0.8c0.667-0.533,1.217-0.866,1.65-1c0.733-0.233,1.45-0.283,2.15-0.15c0.133,0.034,0.8,0.267,2,0.7
		C53.1,71.616,53.3,71.684,53.5,71.75z M74.05,68.8v-0.6L74,68.8c-0.134,0-0.267-0.017-0.4-0.05c-0.433-0.233-0.75-0.4-0.949-0.5
		c-1.4-0.7-2.784-1-4.15-0.9c-1.733,0.134-3.65,0.983-5.75,2.551c0.1,0.3,0.384,0.517,0.85,0.649c0.5,0.167,0.817,0.334,0.95,0.5
		c0.167,0.233,0.117,0.483-0.149,0.75c-0.4,0.4-0.617,0.684-0.65,0.851c-0.1,0.333-0.1,0.649,0,0.949
		c-0.134-0.133-0.25-0.283-0.35-0.449c-0.233-0.567-0.434-1.017-0.601-1.351c-0.066,0.233-0.217,0.667-0.45,1.3
		c-0.267,0.534-0.6,0.767-1,0.7c-0.6-0.066-0.783-0.633-0.55-1.7c-0.333,0-1,0.084-2,0.25c-0.866,0.134-1.566,0.15-2.1,0.051
		c-0.066-0.467,0.033-0.9,0.3-1.301c-0.533,0.334-1.167,0.483-1.9,0.45c0.101-0.1,0.184-0.2,0.25-0.3
		c0.233-0.4,0.317-0.934,0.25-1.6c-0.033-0.634-0.199-1.134-0.5-1.5c0-0.034-0.017-0.051-0.05-0.051
		c0.033-0.033,0.066-0.066,0.101-0.1c0.6-0.634,1.199-1.033,1.8-1.2c0.2-0.033,0.95-0.083,2.25-0.149
		c0.934-0.067,1.649-0.25,2.149-0.551c-1.133,0.067-1.85,0.084-2.149,0.051c-1.033-0.034-1.65-0.267-1.851-0.7
		c-0.233-0.434-0.133-1.017,0.301-1.75c0.267-0.4,0.533-0.717,0.8-0.95c0.399,0.134,0.8,0.066,1.2-0.2
		c0.333-0.267,0.583-0.633,0.75-1.1c0,0.366-0.067,1.116-0.2,2.25c-0.033,0.967,0.166,1.583,0.6,1.85c0.533,0.334,1.05,0.334,1.55,0
		c0.434-0.3,0.75-0.75,0.95-1.35c-0.133,1.434,0.101,2.283,0.7,2.55c0.767,0.333,1.283-0.017,1.55-1.05
		c0.101-1.233,0.167-2.017,0.2-2.351c0.134,0.334,0.283,1.101,0.45,2.301c0.267,1,0.684,1.5,1.25,1.5
		c0.633,0.033,1.033-0.4,1.2-1.301c0.1-1.033,0.216-1.683,0.35-1.949c1.333,1.533,2.366,2.017,3.1,1.449
		c0.7-0.5,0.684-1.616-0.05-3.35c0.467,0.167,0.884,0.2,1.25,0.1c0.2-0.533,0.167-1.1-0.1-1.699c0.033,0.033,0.066,0.066,0.1,0.1
		c0.2,0.134,0.566,0.116,1.101-0.05c0.399-0.101,0.699-0.167,0.899-0.2c0.134,0.733,0.217,1.167,0.25,1.3
		c0.167,1.233,0.134,1.983-0.1,2.25c-0.3,0.334-0.717,0.417-1.25,0.25c-0.467-0.133-0.851-0.383-1.15-0.75
		c0.066,0.5,0.417,1.4,1.05,2.7c0.534,1.1,0.717,2.017,0.551,2.75L74.05,68.8z M71.6,58.55l0.25,0.2
		c-0.233-0.066-0.433-0.15-0.6-0.25C71.35,58.5,71.467,58.517,71.6,58.55z M73.05,60.1c-0.3-0.433-0.7-0.883-1.2-1.35
		c0.101,0.033,0.25,0.05,0.45,0.05c0.3,0.167,0.5,0.467,0.601,0.9C72.934,59.833,72.983,59.967,73.05,60.1z M71.4,60.75
		c0.233,0.3,0.449,0.717,0.649,1.25C71.45,61.767,71.233,61.35,71.4,60.75z M59,57.5l-0.65-0.4c0.233-0.066,0.467-0.116,0.7-0.149
		C59.017,57.083,59,57.267,59,57.5z M58.35,62.3c-0.166-0.1-0.316-0.233-0.449-0.399c-0.267-0.334-0.367-0.733-0.301-1.2
		c0.067-0.5,0.417-0.934,1.051-1.3c0,0.1-0.017,0.199-0.051,0.3C58.4,60.733,58.316,61.6,58.35,62.3z"/>
	
		<linearGradient id="SVGID_2_" gradientUnits="userSpaceOnUse" x1="29.7944" y1="-81.5342" x2="42.2444" y2="-81.5342" gradientTransform="matrix(8.032130e-005 1 -1 -0.001 2.592071e-004 -7.555448e-005)">
		<stop  offset="0" style="stop-color:#FFFFFF"/>
		<stop  offset="1" style="stop-color:#C8DAE3"/>
	</linearGradient>
	<path style="fill-rule:evenodd;clip-rule:evenodd;fill:url(#SVGID_2_);" d="M75,42c-0.134-0.033-0.25-0.05-0.35-0.05
		c-0.034-0.034-0.067-0.05-0.101-0.05c-0.133-0.033-0.283-0.066-0.45-0.1c-0.933-0.2-1.716-0.517-2.35-0.95
		c0.333-0.6,0.55-1.083,0.65-1.45c0.133-0.333,0.199-1.117,0.199-2.35c-0.033-0.633-0.183-1.167-0.449-1.6
		c-0.034-0.067-0.4-0.5-1.101-1.3c-0.666-0.767-1.116-1.267-1.35-1.5c-0.5-0.4-1.117-0.7-1.851-0.9
		c-0.5-0.133-0.966-0.25-1.399-0.35c0.066-0.066,0.149-0.133,0.25-0.2c0.2-0.167,0.399-0.333,0.6-0.5
		c0.066-0.034,0.117-0.067,0.15-0.1h0.05c0.836-0.635,1.686-1.151,2.55-1.55C70.083,29.017,70.134,29,70.2,29
		c0.467-0.233,0.95-0.417,1.45-0.55c1.333-0.434,2.899-0.633,4.699-0.6c0.467,0,0.967,0.017,1.5,0.05c0.4,0.033,0.801,0.067,1.2,0.1
		c0.467,0.067,1.45,0.567,2.95,1.5c0.134,0.067,0.283,0.15,0.45,0.25c1.434,0.9,2.566,1.167,3.399,0.8l2,1.25
		c1.9,0,4.284,0.667,7.15,2c0.733,0.333,1.2,0.684,1.4,1.05c0.199,0.333,0.267,0.9,0.199,1.7c-0.066,0.6-0.149,0.967-0.25,1.1
		c-0.133,0.2-0.466,0.333-1,0.4c-0.199,0-0.366,0.017-0.5,0.05c-0.3,0-0.517,0-0.649,0c-0.334,0.033-0.65,0.167-0.95,0.4
		c-0.3,0.267-0.7,0.65-1.2,1.15c-0.467,0.367-0.95,0.583-1.45,0.65c-0.399,0.034-1.466-0.45-3.199-1.45
		c-1-0.567-1.867-0.6-2.601-0.1c-0.2,0.133-0.383,0.317-0.55,0.55c-0.8-0.3-1.467-0.533-2-0.7c-0.434-0.133-0.783-0.217-1.05-0.25
		c-0.733-0.133-1.4,0.017-2,0.45c-0.267,0.167-0.5,0.383-0.7,0.65h-0.05c-0.134,0.133-0.417,0.583-0.851,1.35
		c-0.399,0.6-0.75,0.983-1.05,1.15C76.283,42.117,75.767,42.133,75,42z"/>
	<path style="fill-rule:evenodd;clip-rule:evenodd;fill:#585D3B;" d="M78.5,39.45c0.2-0.267,0.434-0.483,0.7-0.65
		c0.033,0.1,0.1,0.184,0.2,0.25c0.166,0.1,0.5,0.117,1,0.05c0.433-0.1,0.75-0.1,0.949,0c0.2,0.1,0.351,0.233,0.45,0.4
		c0.101-0.333,0.25-0.633,0.45-0.9c0.533,0.167,1.2,0.4,2,0.7c0.167-0.233,0.35-0.417,0.55-0.55c0.033,0.233,0.05,0.483,0.05,0.75
		c0,0.433-0.033,1.017-0.1,1.75c0.1-0.433,0.4-0.85,0.9-1.25c0.6-0.433,1.199-0.7,1.8-0.8c0.467,0.333,0.7,0.966,0.7,1.9
		c0,0.867-0.167,1.6-0.5,2.2c0.366-0.466,0.816-0.633,1.35-0.5c0.033,0.3,0.066,0.584,0.1,0.851c-0.933-0.101-1.633-0.134-2.1-0.101
		c-1.3,0.134-2,0.733-2.1,1.8c0.733,0.7,2,1.067,3.8,1.101c-0.2,0.366-0.45,0.666-0.75,0.899c0.133-0.1,0.3-0.149,0.5-0.149
		c0.333-0.033,0.517-0.05,0.55-0.05c0.167,0.633,0.184,1.316,0.05,2.05c-0.3,0.1-0.649,0.217-1.05,0.35
		c-0.634,0.3-1.033,0.783-1.2,1.45c-0.366,1.5,0.283,2.35,1.95,2.55c0.233,0.033,0.5,0.05,0.8,0.05
		c-0.066,0.567-0.184,1.051-0.35,1.45c0.467-0.767,1.184-1.184,2.149-1.25c0.233,0.467,0.351,0.95,0.351,1.45
		c0.033-0.467,0.283-0.833,0.75-1.1c0.366-0.2,0.816-0.317,1.35-0.351c0.033,0,0.084,0.017,0.15,0.05L94,53.9
		c0.233,0.1,0.6,0.316,1.1,0.649c0.467,0.267,1.017,0.45,1.65,0.55c0.7,0.101,1.267,0.034,1.7-0.199c0.3-0.167,0.566-0.483,0.8-0.95
		c0.333-0.7,0.517-1.066,0.55-1.101c0.334-0.5,0.884-1.017,1.65-1.55c0.333-0.2,0.649-0.383,0.95-0.55
		c-0.067,0.5-0.367,0.866-0.9,1.1c0.767,0.367,0.884,0.801,0.35,1.301c-0.433,0.399-0.983,0.699-1.649,0.899
		c0.434,0.033,0.616,0.351,0.55,0.95c-0.033,0.866-1.083,1.25-3.15,1.15c0.334,0.066,0.5,0.3,0.5,0.699
		c0,0.167-0.066,0.317-0.199,0.45c-0.034,0-0.067,0-0.101,0c-0.899-0.033-1.383-0.05-1.45-0.05c-0.566,0-1.05,0.083-1.449,0.25
		c-0.5,0.233-1,0.566-1.5,1c0.066-0.333,0.116-0.684,0.149-1.05c-0.6-0.3-1.434-0.084-2.5,0.649s-1.717,1.5-1.95,2.301
		c0-0.9-0.366-1.351-1.1-1.351l-0.3,0.601c0.1-1.767,0.133-3.034,0.1-3.801c-0.1-1.699-0.467-2.533-1.1-2.5l-0.3,0.101L86.3,52.8
		c-0.1,0.2-0.166,0.434-0.2,0.7c-0.066-0.467-0.116-0.934-0.149-1.4c-0.134,0.334-0.351,0.551-0.65,0.65
		c-0.333,0.1-0.684,0.033-1.05-0.2c-0.434-0.267-0.6-0.684-0.5-1.25c0.134-0.7,0.134-1.2,0-1.5c-0.233-0.399-0.5-0.583-0.8-0.55
		C82.517,49.283,82.2,49.2,82,49c-0.434-0.4-0.467-0.866-0.1-1.4l1.1-1.1c-1.2,0.066-1.517-0.267-0.95-1
		c0.867-0.866,1.384-1.434,1.55-1.7l-1.1-0.3c-0.267,0.2-0.684,0.384-1.25,0.55c-0.634,0.2-1.05,0.2-1.25,0
		c-0.333-0.3-0.366-0.616-0.1-0.95c0.333-0.399,0.449-0.716,0.35-0.95c-0.066-0.167-0.684-0.467-1.85-0.9
		c-0.634-0.233-0.233-0.617,1.199-1.15C79.134,39.833,78.767,39.617,78.5,39.45z M93.85,67.1c0.034-0.533-0.1-1-0.399-1.399
		c-0.3-0.434-0.717-0.634-1.25-0.601c0.5-0.233,0.899-0.6,1.2-1.1c0.199-0.3,0.316-0.6,0.35-0.9c0.1,0.067,0.167,0.134,0.2,0.2
		c0,0.033,0.116,0.367,0.35,1c0.434,1.233,1.033,1.816,1.8,1.75c0.5-0.033,1-0.434,1.5-1.2c0.7-1,1.117-1.566,1.25-1.699
		c0.834-0.7,1.483-0.801,1.95-0.301c0.634,0.7,1.117,1.101,1.45,1.2c-0.2,0.267-0.566,0.434-1.1,0.5c-0.334,0.033-1.084,0-2.25-0.1
		c0.3,0.1,0.5,0.333,0.6,0.7C99.667,66.283,97.783,66.934,93.85,67.1z M96.9,68.45c-0.067,0.1-0.117,0.217-0.15,0.35
		c0.566,0.267,1.283,0.4,2.15,0.4c1,0,1.649-0.217,1.949-0.65l-0.149-0.1h0.899v0.05c0.034,0.434-0.166,0.7-0.6,0.8
		c-0.2,0.066-0.434,0.084-0.7,0.05c0.3,0.167,1.134,0.367,2.5,0.601c1,0.333,1.017,0.95,0.05,1.85
		c0.967-0.066,1.684-0.083,2.15-0.05c-2,0.2-3.783,0.833-5.35,1.9c-0.2-0.601-0.367-1-0.5-1.2c-0.167-0.4-0.467-0.617-0.9-0.65
		c-0.3-0.033-0.667,0.084-1.1,0.351c-0.434,0.3-0.7,0.6-0.801,0.899c0.101-0.899,0.034-1.633-0.199-2.2
		c-0.534-0.066-1.267,0.2-2.2,0.801c0.633-0.434,0.899-1.117,0.8-2.051c-0.134-1-0.65-1.399-1.55-1.199
		c0.366-0.267,0.583-0.684,0.649-1.25c0.733,0,1.351,0.133,1.851,0.399c0.666,0.3,0.684,0.7,0.05,1.2
		C96.083,68.55,96.467,68.45,96.9,68.45z M16.3,72.6l0.25-0.149c0.167-0.101,0.333-0.184,0.5-0.25c-1.167-0.267-1.383-0.9-0.65-1.9
		c-0.333,0.066-0.65,0.033-0.95-0.1c-0.3-0.2-0.55-0.351-0.75-0.45l-0.85-0.3c1-0.4,2.5-0.5,4.5-0.3L18,68.5c-0.067,0-0.55,0-1.45,0
		c-0.533,0-0.917-0.167-1.15-0.5c-0.167-0.233-0.217-0.517-0.15-0.85c1.133-0.067,2.267-0.25,3.4-0.551
		c0.4-0.1,0.75-0.25,1.05-0.449c0.033,0.199,0.05,0.399,0.05,0.6c0.867-0.033,1.417,0.116,1.65,0.45
		c0.167,0.267,0.283,0.883,0.35,1.85c1.1,0.334,1.867,0,2.3-1c0.367,0.066,0.667,0.101,0.9,0.101H25
		c-0.033,0.033-0.05,0.066-0.05,0.1c-0.267,0.533-0.3,0.967-0.1,1.3c0.167,0.233,0.433,0.4,0.8,0.5c-0.167,0.267-0.3,0.517-0.4,0.75
		C25.05,71.267,24.967,72,25,73c-0.533,0.167-1.133,0.233-1.8,0.2c-0.7-0.101-1.3-0.3-1.8-0.601c-0.066,0.867-0.15,1.384-0.25,1.551
		c-0.2,0.267-0.7,0.366-1.5,0.3c-0.6-0.033-0.967-0.084-1.1-0.15c-0.3-0.1-0.466-0.35-0.5-0.75c-0.267,0.667-0.816,0.983-1.65,0.95
		h-0.25c-0.233-0.066-0.417-0.167-0.55-0.3c-0.233-0.233-0.317-0.566-0.25-1C15.683,72.967,16,72.767,16.3,72.6z M15,60.3
		c0.133-0.333,0.267-0.717,0.4-1.149c-0.033,0.466-0.05,0.899-0.05,1.3L15,60.3z M4.6,61.25C4.767,61.316,4.9,61.4,5,61.5
		c0.133,0.1,0.367,0.366,0.7,0.8l2.2,2.5c-0.133,0-0.283,0.017-0.45,0.05c-0.6,0.067-1.117,0.034-1.55-0.1H5.85
		c0.367-0.134,0.7-0.15,1-0.05c-0.833-0.4-1.483-0.733-1.95-1H4.85C4.783,63.667,4.733,63.634,4.7,63.6
		c-0.1-0.066-0.2-0.133-0.3-0.199c-0.066-0.034-0.117-0.067-0.15-0.101l-0.2-0.149L4,63.1c-0.667-0.533-0.967-1.133-0.9-1.8
		C3.233,61.267,3.733,61.25,4.6,61.25z M13.35,58.8c0,0.3,0.017,0.566,0.05,0.8l-1.3-0.55c-0.467,0.033-1.1-0.217-1.9-0.75
		c0.233-0.033,0.483-0.083,0.75-0.149l0.3-0.101c0.033,0.3,0.133,0.533,0.3,0.7c0.4,0.1,0.85,0.116,1.35,0.05H13.35z M74.05,68.8
		l0.601-0.05c0.166-0.733-0.017-1.65-0.551-2.75c-0.633-1.3-0.983-2.2-1.05-2.7c0.3,0.367,0.684,0.617,1.15,0.75
		c0.533,0.167,0.95,0.084,1.25-0.25c0.233-0.267,0.267-1.017,0.1-2.25c-0.033-0.133-0.116-0.566-0.25-1.3c0.101,0,0.184,0,0.25,0
		c0.467,0.1,0.816,0.316,1.05,0.65c0.134,0.199,0.301,0.583,0.5,1.149c0.067,0.233,0.117,0.517,0.15,0.851
		c0.033,0.267,0.217,0.466,0.55,0.6c0.066,0.033,0.167,0.066,0.3,0.1c-0.066,0.334-0.05,0.617,0.051,0.851
		c0.566,0.033,1.05-0.2,1.449-0.7c-0.533,1.233-0.699,2.55-0.5,3.95c1.267,0.366,1.817-0.117,1.65-1.45
		c0.134,0.866,0.65,1.55,1.55,2.05c-0.767,0.834-0.85,1.75-0.25,2.75c0.434,0.7,1.15,0.934,2.15,0.7
		c0.566-0.134,1.35-0.366,2.35-0.7c0.267-0.033,0.55,0.033,0.851,0.2c0,0.3,0.033,0.6,0.1,0.9c-0.733,0.566-1.783,0.75-3.15,0.55
		c-1.433-0.167-2.333-0.684-2.699-1.55c0.066,0.166,0.083,0.383,0.05,0.649c0,0.134-0.017,0.334-0.05,0.601
		C81.116,72.6,80.6,72.517,80.1,72.15c0.067,0.8-0.316,1.149-1.149,1.05c-0.033-0.267-0.066-0.434-0.101-0.5
		c-0.133-0.601-0.55-1.15-1.25-1.65l-2.5-1.2c-0.166-0.267-0.5-0.55-1-0.85L74.05,68.8z M74,68.8c0,0.033,0,0.083,0,0.15
		c-0.001-0.033-0.018-0.05-0.05-0.05c-0.134-0.067-0.25-0.117-0.351-0.15C73.733,68.783,73.866,68.8,74,68.8z M47.35,47.75
		c0.3-0.066,0.667-0.15,1.1-0.25c0.867-0.333,0.966-0.75,0.3-1.25c0.067-0.066,0.133-0.116,0.2-0.15
		c0.4,0.034,0.95,0.067,1.65,0.101c0.867,0.066,1.55,0,2.05-0.2c0.033-0.366-0.083-0.75-0.35-1.15
		c-0.1-0.133-0.183-0.267-0.25-0.399c0.934-0.3,1.883-0.45,2.85-0.45c0.1,0,0.216,0.017,0.35,0.05L53.7,46.1
		c-0.034,0.934-1.133,1.467-3.3,1.601C49.1,47.7,48.083,47.717,47.35,47.75z M57.4,44.55v0.05c-0.034,0.5-0.017,0.884,0.05,1.15
		c0.2,0.033,0.467,0.033,0.8,0c-0.833,0.866-1.384,0.733-1.65-0.4c-0.066-0.267-0.116-0.633-0.149-1.1
		C56.783,44.316,57.1,44.417,57.4,44.55z M59.95,46.1c-0.033,0.233-0.084,0.517-0.15,0.851c-0.033,0.1-0.05,0.2-0.05,0.3
		c-0.1,0.5-0.1,0.884,0,1.15l0.55,0.1c-0.5,0.267-0.934,0.366-1.3,0.3c-0.467-0.133-0.717-0.6-0.75-1.399
		c0.1-0.767,0.15-1.334,0.15-1.7c0.133-0.033,0.267-0.066,0.399-0.101c0.033,0,0.084,0,0.15,0c0.166,0.134,0.283,0.217,0.35,0.25
		C59.467,45.95,59.684,46.033,59.95,46.1z M71.75,40.85c0.634,0.433,1.417,0.75,2.35,0.95c0.167,0.034,0.317,0.067,0.45,0.1
		c-0.033,0.067-0.083,0.133-0.149,0.2c-0.233,0.2-0.801,0.333-1.7,0.4c0.366,0.667,0.467,1.417,0.3,2.25
		c-1.167-0.033-2.033-0.017-2.6,0.05c0.166,0.834-0.051,1.316-0.65,1.45c-1,0.2-1.566,0.366-1.7,0.5l-0.2,0.5l-0.05-0.1
		c-0.166-0.2-0.333-0.434-0.5-0.7c-0.399,0.233-0.733,0.267-1,0.1c1.566-0.267,2.717-0.916,3.45-1.95
		c0.2-0.267,0.65-1.183,1.35-2.75C71.333,41.483,71.55,41.15,71.75,40.85z M46.5,49.2c0.433-0.334,0.35-0.733-0.25-1.2
		c0.067-0.033,0.183-0.05,0.35-0.05c0.5,0,1.267,0,2.3,0c1.3-0.033,2.017,0.233,2.15,0.8c0.167,0.6-0.033,1.033-0.6,1.3
		c-1.133-0.467-2.417-0.717-3.85-0.75L46.5,49.2z M36.3,63.6c0.034-0.033,0.083-0.066,0.15-0.1l0.65,0.3
		C36.833,63.733,36.567,63.667,36.3,63.6z M32.3,63.35c-0.466,0.034-0.917,0.117-1.35,0.25c-0.034-0.767,0.017-1.3,0.15-1.6
		c0.1-0.267,0.283-0.467,0.55-0.6c-0.033,0.133-0.05,0.3-0.05,0.5C31.633,62.6,31.867,63.083,32.3,63.35z M31.7,69.6
		c0.066,0,0.133,0,0.2,0c1.133,0,2-0.183,2.6-0.55c0.067,0,0.133,0.017,0.2,0.05c-0.034,0.4,0.083,0.717,0.35,0.95
		c0.434,0.4,1.133,0.467,2.1,0.2c0.167-0.066,0.333-0.134,0.5-0.2c0.133,0,0.267-0.017,0.4-0.05c0.167-0.033,0.383-0.083,0.65-0.15
		c0,0.2,0,0.367,0,0.5c0.066,0.534,0.316,0.884,0.75,1.051c0.667,0.267,1.1,0.05,1.3-0.65c0.133,1.134,0.75,1.583,1.85,1.35
		c0.133,0.134,0.3,0.267,0.5,0.4c0,0.4-0.017,0.833-0.05,1.3c0.067,0.533,0.417,0.983,1.05,1.351c0.7,0.399,1.417,0.5,2.15,0.3
		c0.833-0.233,1.233-0.767,1.2-1.601c0.233,0.801,0.483,1.067,0.75,0.801c0.2-0.2,0.367-0.601,0.5-1.2
		c0.066-0.533,0.117-0.851,0.15-0.95s0.316-0.233,0.85-0.4c0.233-0.066,0.6-0.083,1.1-0.05c0.367-0.033,0.567-0.283,0.6-0.75
		c-0.033,0.367,0.1,0.667,0.4,0.9c0.3,0.233,0.633,0.3,1,0.2c0.2-0.067,0.434-0.284,0.7-0.65c0.7,0.167,1.233,0.1,1.6-0.2
		c0.733,0.033,1.367-0.116,1.9-0.45c-0.267,0.4-0.366,0.834-0.3,1.301c0.533,0.1,1.233,0.083,2.1-0.051c1-0.166,1.667-0.25,2-0.25
		c-0.233,1.067-0.05,1.634,0.55,1.7c0.4,0.066,0.733-0.166,1-0.7c0.233-0.633,0.384-1.066,0.45-1.3
		c0.167,0.334,0.367,0.783,0.601,1.351c0.1,0.166,0.216,0.316,0.35,0.449c0.167,0.7,0.9,1.117,2.2,1.25
		c2.267,0.233,3.533,0.517,3.8,0.851c0.134,0.233,0.25,0.566,0.35,1c0.067,0.233,0.101,0.45,0.101,0.649
		c-0.267,0.067-0.566,0.101-0.9,0.101c-0.633,0-1.05-0.066-1.25-0.2L68,78.4c-0.467,0.1-0.9-0.051-1.3-0.45
		c0.233,1.467-0.316,2.316-1.65,2.55c-1.333,0.267-1.916-0.267-1.75-1.6c-0.767,0.966-1.2,1.483-1.3,1.55
		c-0.5,0.399-1.184,0.5-2.05,0.3c-0.167-0.366-0.101-0.8,0.2-1.3c0.399-0.566,0.666-0.967,0.8-1.2c-1.134,1.2-2.2,1.7-3.2,1.5
		c-0.167-0.767-0.05-1.634,0.35-2.6c-0.333,0.399-0.916,0.633-1.75,0.699c-0.399,0.034-1.05,0-1.95-0.1l-0.15-1.1
		c-0.233,0.6-0.833,1-1.8,1.199c-0.967,0.2-1.534,0.034-1.7-0.5c-0.067,0.5-0.417,0.784-1.05,0.851c-0.6,0.066-1.017-0.15-1.25-0.65
		c-0.067,0.834-0.434,1.25-1.1,1.25c-0.733,0.066-1.05-0.25-0.95-0.95c-0.133,0.634-0.767,0.983-1.9,1.051
		c-0.4,0-1.2-0.051-2.4-0.15c-0.133-0.366-0.1-0.767,0.1-1.2c0.133-0.434,0.367-0.8,0.7-1.1c-0.867,0.5-1.533,0.6-2,0.3
		c-0.433-0.3-0.617-0.917-0.55-1.85c-1.167,0.399-2.383,0.449-3.65,0.149V74.9c-0.233,0.5-0.9,0.8-2,0.899
		c-0.867,0.101-1.617,0.066-2.25-0.1c-0.1-0.334-0.117-0.617-0.05-0.851c-0.133,0.334-0.533,0.584-1.2,0.75
		c-0.7,0.134-1.167,0.067-1.4-0.199c-0.3-0.334-0.2-1.167,0.3-2.5c-0.167,0.333-0.434,0.6-0.8,0.8c-0.4,0.133-0.816,0.149-1.25,0.05
		c-0.1-0.8-0.017-1.483,0.25-2.05c0.5-0.134,0.867-0.533,1.1-1.2c-0.533,0.3-0.9,0.7-1.1,1.2l-0.55,0.05
		c-0.1-0.434-0.083-0.934,0.05-1.5c0.034,0,0.067,0,0.1,0c1.367-0.066,2.483-0.233,3.35-0.5C31.383,69.717,31.533,69.667,31.7,69.6z
		 M40.4,61.35c0.067-0.199,0.1-0.383,0.1-0.55l0.05-0.05c0.1,0.233,0.233,0.434,0.4,0.6C40.75,61.316,40.567,61.316,40.4,61.35z
		 M47.3,61.85c0.2,0,0.434,0.017,0.7,0.051c0-0.067,0.017-0.134,0.05-0.2c0.333-0.066,0.717-0.167,1.15-0.3c0.033,0,0.1,0,0.2,0
		v0.149c0,0.4-0.133,0.684-0.4,0.851c-0.2,0.133-0.433,0.199-0.7,0.199c-0.233,0.367-0.55,0.684-0.95,0.95
		C47.217,63.65,47.1,63.733,47,63.8c-0.633-0.5-1.167-0.866-1.6-1.1c-0.467-0.267-0.933-0.483-1.4-0.65
		c0.267-0.133,0.467-0.3,0.6-0.5C45.433,61.85,46.333,61.95,47.3,61.85z M53.05,59.65c-0.267,0.899-1.033,1.3-2.3,1.199
		c0.233-0.133,0.483-0.25,0.75-0.35C52.1,60.233,52.617,59.95,53.05,59.65z M66.7,29.45c-0.566,0-1.334,0-2.3,0l1-1.35
		c0.333,0.3,0.933,0.517,1.8,0.65c0.366,0.067,0.8,0.117,1.3,0.15c0.6,0.033,1.116,0.083,1.55,0.15
		c-0.864,0.399-1.714,0.916-2.55,1.55c0.299-0.237,0.365-0.604,0.2-1.1C67.6,29.5,67.267,29.483,66.7,29.45z M66.7,31.2
		c-0.267-0.133-0.467-0.25-0.601-0.35c0.5,0.066,0.9,0.017,1.2-0.15C67.1,30.867,66.9,31.033,66.7,31.2z M26.8,65.9l-0.05,0.05
		c0-0.066,0-0.117,0-0.15C26.783,65.833,26.8,65.866,26.8,65.9z M58.35,62.3c0.167,0.101,0.367,0.15,0.601,0.15
		c-0.167,0.066-0.334,0.166-0.5,0.3c-0.267,0.233-0.533,0.55-0.8,0.95c-0.434,0.733-0.534,1.316-0.301,1.75
		c0.2,0.434,0.817,0.666,1.851,0.7c0.3,0.033,1.017,0.017,2.149-0.051c-0.5,0.301-1.216,0.483-2.149,0.551
		c-1.3,0.066-2.05,0.116-2.25,0.149c-0.601,0.167-1.2,0.566-1.8,1.2c-0.034,0.033-0.067,0.066-0.101,0.1
		c-0.466-0.633-1.333-1.116-2.6-1.449c-0.2-0.067-0.383-0.117-0.55-0.15c0.2-0.233,0.267-0.533,0.2-0.9
		c0.066,0.334,0.3,0.601,0.7,0.801c0.467,0.267,0.867,0.3,1.2,0.1s0.433-0.634,0.3-1.3c-0.133-0.733-0.1-1.184,0.1-1.351
		c0.2-0.133,0.517-0.166,0.95-0.1c0.434,0.033,0.75-0.05,0.95-0.25c0.566-0.566,0.5-1.283-0.2-2.15c-0.5-0.666-1.017-1.1-1.55-1.3
		c0.834,0.267,1.351,0.167,1.55-0.3c0.067-0.1,0.15-0.75,0.25-1.95c0.301-0.1,0.634-0.217,1-0.35c0.367-0.134,0.7-0.25,1-0.351
		L59,57.5l1.25,0.7c-0.134,0.3-0.6,0.666-1.4,1.1c-0.066,0.033-0.133,0.066-0.199,0.101c-0.634,0.366-0.983,0.8-1.051,1.3
		c-0.066,0.467,0.034,0.866,0.301,1.2C58.033,62.066,58.184,62.2,58.35,62.3z M47.15,63.95c0.067-0.033,0.15-0.05,0.25-0.05
		c1.033-0.034,1.45,0.233,1.25,0.8c-0.133,0.033-0.267,0.066-0.4,0.1c-0.233-0.2-0.483-0.399-0.75-0.6
		C47.4,64.1,47.283,64.017,47.15,63.95z"/>
	<path style="fill-rule:evenodd;clip-rule:evenodd;fill:#414428;" d="M75,42c0.767,0.133,1.283,0.117,1.55-0.05
		c0.3-0.167,0.65-0.55,1.05-1.15c0.434-0.767,0.717-1.216,0.851-1.35h0.05c0.267,0.167,0.634,0.383,1.1,0.65
		c-1.433,0.533-1.833,0.917-1.199,1.15c1.166,0.433,1.783,0.733,1.85,0.9c0.1,0.233-0.017,0.55-0.35,0.95
		c-0.267,0.334-0.233,0.65,0.1,0.95c0.2,0.2,0.616,0.2,1.25,0c0.566-0.166,0.983-0.35,1.25-0.55l1.1,0.3
		c-0.166,0.267-0.683,0.834-1.55,1.7c-0.566,0.733-0.25,1.066,0.95,1l-1.1,1.1c-0.367,0.534-0.334,1,0.1,1.4
		c0.2,0.2,0.517,0.283,0.95,0.25c0.3-0.033,0.566,0.15,0.8,0.55c0.134,0.3,0.134,0.8,0,1.5c-0.1,0.566,0.066,0.983,0.5,1.25
		c0.366,0.233,0.717,0.3,1.05,0.2c0.3-0.1,0.517-0.316,0.65-0.65c0.033,0.467,0.083,0.934,0.149,1.4c0.034-0.267,0.101-0.5,0.2-0.7
		l0.101,0.65l0.3-0.101c0.633-0.033,1,0.801,1.1,2.5c0.033,0.767,0,2.034-0.1,3.801L88,59.05c0.733,0,1.1,0.45,1.1,1.351
		c0.233-0.801,0.884-1.567,1.95-2.301s1.9-0.949,2.5-0.649c-0.033,0.366-0.083,0.717-0.149,1.05C93.2,58.667,93,58.833,92.8,59
		c-0.833,0.767-1.267,1.45-1.3,2.05c-0.033,0.566,0.116,0.967,0.45,1.2c0.166,0.134,0.55,0.283,1.149,0.45
		c0.267,0.133,0.483,0.267,0.65,0.399C93.717,63.4,93.6,63.7,93.4,64c-0.301,0.5-0.7,0.866-1.2,1.1
		c0.533-0.033,0.95,0.167,1.25,0.601c0.3,0.399,0.434,0.866,0.399,1.399v0.051c-0.066,0.566-0.283,0.983-0.649,1.25
		c0.899-0.2,1.416,0.199,1.55,1.199c0.1,0.934-0.167,1.617-0.8,2.051c0.934-0.601,1.666-0.867,2.2-0.801
		c0.233,0.567,0.3,1.301,0.199,2.2c0.101-0.3,0.367-0.6,0.801-0.899c0.433-0.267,0.8-0.384,1.1-0.351
		c0.434,0.033,0.733,0.25,0.9,0.65c0.133,0.2,0.3,0.6,0.5,1.2c1.566-1.067,3.35-1.7,5.35-1.9l1.55,0.05
		c0.101,0.533,0.033,1.033-0.2,1.5c-0.267,0.5-0.649,0.834-1.149,1c1.7-0.133,2.983-0.133,3.85,0c0.667,1.8-2.783,3.066-10.35,3.8
		c-8,0.434-12.316,0.667-12.95,0.7c0.167,0.134,0.366,0.367,0.6,0.7c0.267,0.333,0.467,0.55,0.601,0.65l-0.851,0.1
		c0.567,0.233,0.717,0.7,0.45,1.4c-0.666,0.133-1.217,0.199-1.649,0.199c0.1-0.366,0.133-0.767,0.1-1.199
		c-0.066-0.867-0.316-1.467-0.75-1.801l-1.5-0.3c-0.5-0.066-0.934,0.217-1.3,0.851c-0.233,0.366-0.384,0.783-0.45,1.25
		c-0.134-0.101-0.267-0.15-0.4-0.15c-0.033-0.366,0-0.884,0.101-1.55c0.133-0.733,0.2-1.25,0.2-1.55c0-0.534-0.15-1.034-0.45-1.5
		c-0.066-0.101-0.417-0.5-1.05-1.2c-0.233-0.267-0.367-0.584-0.4-0.95c-0.033-0.233-0.05-0.417-0.05-0.55
		c0.833,0.1,1.217-0.25,1.149-1.05c0.5,0.366,1.017,0.449,1.551,0.25c0.033-0.267,0.05-0.467,0.05-0.601
		c0.033-0.267,0.017-0.483-0.05-0.649c0.366,0.866,1.267,1.383,2.699,1.55c1.367,0.2,2.417,0.017,3.15-0.55
		c-0.066-0.301-0.1-0.601-0.1-0.9c0.133,0.1,0.283,0.217,0.449,0.35C88.283,72,88.7,72.134,89.1,72c0.5-0.2,1-1.083,1.5-2.65
		c0.434-1.466,0.5-2.833,0.2-4.1c-0.467-1.833-1.866-4.083-4.2-6.75c-0.6-0.634-1.633-1.517-3.1-2.65
		c-0.5-0.399-0.917-0.833-1.25-1.3c-0.1-0.133-0.267-0.383-0.5-0.75c0.333,0,0.634-0.033,0.9-0.1c0.233-0.867-0.084-2.101-0.95-3.7
		c-0.634-1.167-1.384-2.25-2.25-3.25c-0.033-0.033-0.9-0.833-2.601-2.4C75.95,43.517,75.333,42.733,75,42z M81.4,82.55
		c0.066,0.066,0.149,0.134,0.25,0.2c-0.101-0.033-0.2-0.066-0.301-0.1C81.35,82.616,81.366,82.583,81.4,82.55z M66.75,84.5
		c-0.6,0.3-1.4,0.434-2.4,0.4c-1.833-0.034-2.75-0.733-2.75-2.101c-3.566-0.166-7.483-0.783-11.75-1.85
		c-0.9,0.8-1.817,1.033-2.75,0.7c-0.1-0.2-0.1-0.417,0-0.65c-0.267,0.7-0.883,1.134-1.85,1.3c-0.767,0.101-1.6,0.05-2.5-0.149
		c-0.233-0.667-0.333-1.051-0.3-1.15c-0.467,0.434-1.267,0.733-2.4,0.9c-1.367,0.199-1.566,0.149-0.6-0.15
		c-0.833,0.033-1.467,0.05-1.9,0.05c-0.767,0-1.417-0.05-1.95-0.149c0.3-0.301,0.85-0.7,1.65-1.2c0.8-0.467,1.367-0.884,1.7-1.25
		c-0.767-0.467-1.684-0.634-2.75-0.5c-0.4,0.033-1.267,0.25-2.6,0.649c-0.867,0.4-1.55,0.65-2.05,0.75c-0.966,0.2-1.2-0.233-0.7-1.3
		c-0.934,0.667-1.983,0.75-3.15,0.25c-0.067-0.467-0.034-0.85,0.1-1.149c-1.167,0.399-2.233,0.483-3.2,0.25
		c0.2-0.301,0.383-0.5,0.55-0.601c-0.7,0.367-1.9,0.533-3.6,0.5c-1.267-0.066-2.45-0.2-3.55-0.399c0.067-0.801,0.8-1.267,2.2-1.4
		c-2.7,0.167-4.483-0.083-5.35-0.75c0.433-0.467,1-0.733,1.7-0.8c-0.313-0.094-0.563-0.202-0.75-0.325
		c0.088,0.054,0.205,0.096,0.35,0.125h0.25c0.833,0.033,1.383-0.283,1.65-0.95c0.034,0.4,0.2,0.65,0.5,0.75
		c0.133,0.066,0.5,0.117,1.1,0.15c0.8,0.066,1.3-0.033,1.5-0.3c0.1-0.167,0.184-0.684,0.25-1.551c0.5,0.301,1.1,0.5,1.8,0.601
		c0.667,0.033,1.267-0.033,1.8-0.2c-0.033-1,0.05-1.733,0.25-2.2c0.1-0.233,0.233-0.483,0.4-0.75c0.5,0.167,1.217,0.233,2.15,0.2
		c-0.133,0.566-0.15,1.066-0.05,1.5l0.55-0.05c0.2-0.5,0.567-0.9,1.1-1.2c-0.233,0.667-0.6,1.066-1.1,1.2
		c-0.267,0.566-0.35,1.25-0.25,2.05c0.434,0.1,0.85,0.083,1.25-0.05c0.367-0.2,0.633-0.467,0.8-0.8c-0.5,1.333-0.6,2.166-0.3,2.5
		c0.233,0.267,0.7,0.333,1.4,0.199c0.667-0.166,1.066-0.416,1.2-0.75c-0.066,0.233-0.05,0.517,0.05,0.851
		c0.633,0.166,1.383,0.2,2.25,0.1c1.1-0.1,1.767-0.399,2-0.899v0.149c1.267,0.3,2.483,0.25,3.65-0.149
		c-0.067,0.933,0.117,1.55,0.55,1.85c0.467,0.3,1.133,0.2,2-0.3c-0.333,0.3-0.566,0.666-0.7,1.1c-0.2,0.434-0.233,0.834-0.1,1.2
		c1.2,0.1,2,0.15,2.4,0.15c1.133-0.067,1.767-0.417,1.9-1.051c-0.1,0.7,0.217,1.017,0.95,0.95c0.667,0,1.033-0.416,1.1-1.25
		c0.233,0.5,0.65,0.717,1.25,0.65c0.633-0.066,0.983-0.351,1.05-0.851c0.167,0.534,0.733,0.7,1.7,0.5
		c0.966-0.199,1.566-0.6,1.8-1.199l0.15,1.1c0.9,0.1,1.55,0.134,1.95,0.1c0.834-0.066,1.417-0.3,1.75-0.699
		c-0.399,0.966-0.517,1.833-0.35,2.6c1,0.2,2.066-0.3,3.2-1.5c-0.134,0.233-0.4,0.634-0.8,1.2c-0.301,0.5-0.367,0.934-0.2,1.3
		c0.866,0.2,1.55,0.1,2.05-0.3c0.1-0.066,0.533-0.584,1.3-1.55c-0.166,1.333,0.417,1.866,1.75,1.6
		c1.334-0.233,1.884-1.083,1.65-2.55C67.1,78.35,67.533,78.5,68,78.4l0.05-1.15c0.2,0.134,0.617,0.2,1.25,0.2
		c0.334,0,0.634-0.033,0.9-0.101c-0.033,0.134-0.066,0.25-0.101,0.351c-0.1,0.267-0.383,0.649-0.85,1.149
		c-0.066,0.101-0.05,0.267,0.05,0.5c-0.1,0.301-0.649,0.684-1.649,1.15c-1.067,0.434-1.7,0.7-1.9,0.8c-0.767,0.4-1.25,0.7-1.45,0.9
		c-0.5,0.467-0.583,0.95-0.25,1.45c0.334,0.533,1.101,0.816,2.3,0.85C66.483,84.5,66.616,84.5,66.75,84.5z M69.15,83.75l0.199-0.2
		c0.233-0.166,0.483-0.283,0.75-0.35c0.334-0.066,0.95-0.033,1.851,0.1c0.2,0.033,0.383,0.066,0.55,0.101
		c-0.033,0.1-0.05,0.183-0.05,0.25c-0.634,0.1-1.417,0.133-2.351,0.1C69.733,83.75,69.417,83.75,69.15,83.75z M13.85,69.45
		c-0.033,0-0.283-0.066-0.75-0.2c-1.7-0.167-3.05-0.384-4.05-0.65c-1.9-0.5-2.1-1.267-0.6-2.3c-0.7-0.1-1.233-0.184-1.6-0.25
		c-0.633-0.1-1.15-0.283-1.55-0.55c0.1-0.3,0.25-0.517,0.45-0.65c0.033-0.033,0.067-0.066,0.1-0.1H5.9
		c0.434,0.134,0.95,0.167,1.55,0.1c0.167-0.033,0.316-0.05,0.45-0.05l0.25,0.3c0.967,0.934,2.033,1.517,3.2,1.75
		c1.3,0.267,2.6,0.367,3.9,0.301c-0.067,0.333-0.017,0.616,0.15,0.85c0.233,0.333,0.617,0.5,1.15,0.5c0.9,0,1.383,0,1.45,0
		l0.35,0.65C16.35,68.95,14.85,69.05,13.85,69.45z M61.7,48.2c-0.867,0.3-1.65,0.733-2.351,1.3c-0.366,0.3-1.316,0.917-2.85,1.85
		c-0.033,0.034-0.066,0.051-0.1,0.051c0-0.267,0-0.467,0-0.601c0-0.866-0.101-2.1-0.301-3.7c-0.333-1.433-0.466-2.433-0.399-3
		l-2,4.65c-0.034,0.467,0.167,1.083,0.6,1.85c0.434,0.801,0.684,1.384,0.75,1.75c-0.333,0.267-0.617,0.534-0.85,0.801
		c-0.1-0.2-0.217-0.384-0.35-0.551c-0.934-1.166-2.067-2.017-3.4-2.55c0.566-0.267,0.767-0.7,0.6-1.3
		c-0.133-0.566-0.85-0.833-2.15-0.8c-1.033,0-1.8,0-2.3,0c-0.333-0.033-0.533-0.066-0.6-0.101c0.233-0.033,0.683-0.066,1.35-0.1
		c0.733-0.033,1.75-0.05,3.05-0.05c2.167-0.134,3.267-0.667,3.3-1.601l1.55-2.05c0.167,0,0.316,0.017,0.45,0.05
		c0.267,0.034,0.517,0.084,0.75,0.15c0.033,0.467,0.083,0.833,0.149,1.1c0.267,1.134,0.817,1.267,1.65,0.4
		c0.033-0.066,0.083-0.134,0.15-0.2c0,0.033,0,0.084,0,0.15c0,0.366-0.051,0.934-0.15,1.7c0.033,0.8,0.283,1.267,0.75,1.399
		c0.366,0.066,0.8-0.033,1.3-0.3c0.101-0.1,0.2-0.184,0.3-0.25c0.601-0.467,0.983-0.917,1.15-1.35
		C61.717,47.134,61.7,47.566,61.7,48.2z M50.4,61c-0.033,0.667-0.05,1.083-0.05,1.25c0.066,0.7,0.267,1.2,0.6,1.5
		c0.133-0.434,0.167-0.983,0.1-1.65L50.6,60.9c0.033-0.034,0.083-0.051,0.15-0.051c1.267,0.101,2.033-0.3,2.3-1.199
		c0.6-0.5,1.034-1.051,1.3-1.65c0.033,0,0.066,0,0.1,0c0.5,0.033,1.133-0.033,1.899-0.2c-0.1,1.2-0.183,1.851-0.25,1.95
		c-0.199,0.467-0.716,0.566-1.55,0.3c0.533,0.2,1.05,0.634,1.55,1.3c0.7,0.867,0.767,1.584,0.2,2.15c-0.2,0.2-0.517,0.283-0.95,0.25
		c-0.433-0.066-0.75-0.033-0.95,0.1c-0.2,0.167-0.233,0.617-0.1,1.351c0.133,0.666,0.034,1.1-0.3,1.3s-0.733,0.167-1.2-0.1
		c-0.4-0.2-0.633-0.467-0.7-0.801c0.066,0.367,0,0.667-0.2,0.9c-1.3-0.4-2.1-0.684-2.4-0.85c-0.3-0.2-0.717-0.483-1.25-0.851
		c0.133-0.033,0.267-0.066,0.4-0.1c0.2-0.566-0.217-0.834-1.25-0.8c-0.1,0-0.183,0.017-0.25,0.05
		c-0.066-0.066-0.117-0.117-0.15-0.15c0.1-0.066,0.217-0.149,0.35-0.25c0.4-0.267,0.717-0.583,0.95-0.95
		c0.267,0,0.5-0.066,0.7-0.199c0.267-0.167,0.4-0.45,0.4-0.851V61.4V61.35C49.7,61.217,50.033,61.1,50.4,61z M74.55,41.9
		c0.033,0,0.066,0.017,0.101,0.05c-0.2,0.3-0.5,0.483-0.9,0.55c0.066,0.133,1.116,1.6,3.15,4.4c0.033,0.066,0.083,0.133,0.149,0.199
		c-1.434,0-3.5-0.1-6.2-0.3c0.434,0.967,1.45,1.584,3.051,1.851c-0.667-0.067-1.351-0.101-2.051-0.101l-3.25-1
		c-0.333,0-0.633,0-0.899,0l0.05-0.1l0.1-0.2l0.2-0.5c0.134-0.134,0.7-0.3,1.7-0.5c0.6-0.134,0.816-0.616,0.65-1.45
		c0.566-0.066,1.433-0.083,2.6-0.05c0.167-0.833,0.066-1.583-0.3-2.25c0.899-0.067,1.467-0.2,1.7-0.4
		C74.467,42.033,74.517,41.967,74.55,41.9z M78.6,50.15c-1.133-0.7-2.483-1.167-4.05-1.4c0.101,0,1.267,0,3.5,0
		C78.283,49.25,78.467,49.717,78.6,50.15z M80.7,52.05c-0.101-0.1-0.184-0.2-0.25-0.3c0.066,0,0.133,0.017,0.2,0.05
		C80.65,51.866,80.667,51.95,80.7,52.05z M31.35,51.2l0.35-0.75c0,0.233,0.017,0.55,0.05,0.95L31.35,51.2z M31.65,61.4
		c-0.267,0.133-0.45,0.333-0.55,0.6c-0.133,0.3-0.184,0.833-0.15,1.6c-0.034,0-0.067,0-0.1,0c-1.567,0.434-2.917,1.2-4.05,2.301
		c0-0.034-0.017-0.067-0.05-0.101c0,0.033,0,0.084,0,0.15c-0.367,0.333-0.7,0.717-1,1.149c-0.367,0.5-0.617,0.851-0.75,1.051h-0.05
		c-0.167-0.101-0.3-0.217-0.4-0.351c-0.133-0.2-0.216-0.399-0.25-0.6c-0.066,0.333-0.15,0.616-0.25,0.85c-0.433,1-1.2,1.334-2.3,1
		c-0.067-0.967-0.183-1.583-0.35-1.85c-0.233-0.334-0.783-0.483-1.65-0.45c0-0.2-0.017-0.4-0.05-0.6c0.3-0.301,0.5-0.667,0.6-1.101
		c0.034-0.066,0.05-0.383,0.05-0.95c0.066,0,0.15-0.017,0.25-0.05c0.033-0.5,0.233-0.866,0.6-1.1c0.466-0.334,0.75-0.617,0.85-0.851
		c0.233-0.399,0.167-0.966-0.2-1.699c-0.033-0.034-0.05-0.067-0.05-0.101c0.967,0.934,2.15,1.65,3.55,2.15
		c1.566,0.533,2.2,0.133,1.9-1.2c1.333-0.5,2.8-1.517,4.4-3.05c0.267-0.233,0.5-0.467,0.7-0.7c0.033,0.434,0.05,0.816,0.05,1.15
		c0.033,1.066-0.1,1.916-0.4,2.55C31.867,61.233,31.75,61.3,31.65,61.4z M25.7,64.75c-1.034-0.733-2.217-1.167-3.55-1.3
		c-0.467,0.666-0.167,1.184,0.9,1.55c0.667,0.267,1.45,0.417,2.35,0.45L25.7,64.75z"/>
	
		<linearGradient id="SVGID_3_" gradientUnits="userSpaceOnUse" x1="43.8481" y1="-89.3564" x2="46.3731" y2="-89.3564" gradientTransform="matrix(3.960396e-004 1 -1 -0.001 -6.689294e-005 -7.089530e-005)">
		<stop  offset="0" style="stop-color:#FFFFFF"/>
		<stop  offset="1" style="stop-color:#C8DAE3"/>
	</linearGradient>
	<path style="fill-rule:evenodd;clip-rule:evenodd;fill:url(#SVGID_3_);" d="M92.6,44.5l1.25,0.3
		c-0.566,0.566-1.133,0.967-1.699,1.2c-0.334,0.167-0.667,0.267-1,0.3c-0.9,0.101-1.717,0.15-2.45,0.15
		c-1.8-0.033-3.066-0.4-3.8-1.101c0.1-1.066,0.8-1.666,2.1-1.8c0.467-0.033,1.167,0,2.1,0.101c0.301,0.033,0.634,0.083,1,0.149
		L92.6,44.5z"/>
	
		<linearGradient id="SVGID_4_" gradientUnits="userSpaceOnUse" x1="45.0386" y1="-98.8955" x2="55.2636" y2="-98.8955" gradientTransform="matrix(9.779952e-005 1 -1 -0.001 -9.865745e-005 -7.555448e-005)">
		<stop  offset="0" style="stop-color:#FFFFFF"/>
		<stop  offset="1" style="stop-color:#C8DAE3"/>
	</linearGradient>
	<path style="fill-rule:evenodd;clip-rule:evenodd;fill:url(#SVGID_4_);" d="M111.1,45.1c-0.033,0.567-0.25,1.15-0.649,1.75
		c-0.033,0.067-0.084,0.15-0.15,0.25c-0.166,0.233-0.35,0.467-0.55,0.7c-0.267,0.267-0.566,0.5-0.9,0.7
		c-0.366,0.2-0.816,0.333-1.35,0.4c-0.634,0.066-1.1,0.116-1.4,0.149l-0.05,1.45c-0.267,0.1-0.684,0.083-1.25-0.05
		c-0.633-0.134-1.083-0.167-1.35-0.101c-0.334,0.101-0.684,0.233-1.05,0.4c-0.301,0.167-0.617,0.35-0.95,0.55
		c-0.767,0.533-1.316,1.05-1.65,1.55c-0.033,0.034-0.217,0.4-0.55,1.101c-0.233,0.467-0.5,0.783-0.8,0.95
		c-0.434,0.233-1,0.3-1.7,0.199c-0.634-0.1-1.184-0.283-1.65-0.55C94.6,54.217,94.233,54,94,53.9l-0.05-0.051
		c-0.066-0.033-0.117-0.05-0.15-0.05c-0.366-0.166-0.783-0.267-1.25-0.3c-1.233,0.1-2.233,0.134-3,0.1c-0.3,0-0.566-0.017-0.8-0.05
		c-1.667-0.2-2.316-1.05-1.95-2.55c0.167-0.667,0.566-1.15,1.2-1.45c0.4-0.133,0.75-0.25,1.05-0.35
		c0.334-0.134,0.617-0.267,0.851-0.4c0.666-0.333,1.517-0.8,2.55-1.399c0.2-0.101,0.416-0.184,0.649-0.25
		c0.733-0.267,1.467-0.4,2.2-0.4c3.167,0,5.934-0.233,8.3-0.7l1-0.85l0.601-0.55l0.649-0.601c0.134-0.399,0.617-0.6,1.45-0.6
		c0.467,0,1.084,0.033,1.851,0.1c0.767-0.033,1.25,0,1.449,0.101c0.267,0.133,0.434,0.5,0.5,1.1C111.1,44.884,111.1,45,111.1,45.1z"
		/>
	
		<linearGradient id="SVGID_5_" gradientUnits="userSpaceOnUse" x1="58.0986" y1="-101.2261" x2="66.0986" y2="-101.2261" gradientTransform="matrix(1.250000e-004 1 -1 -0.001 -4.479507e-004 -7.555448e-005)">
		<stop  offset="0" style="stop-color:#FFFFFF"/>
		<stop  offset="1" style="stop-color:#C8DAE3"/>
	</linearGradient>
	<path style="fill-rule:evenodd;clip-rule:evenodd;fill:url(#SVGID_5_);" d="M102.25,64.05c-0.333-0.1-0.816-0.5-1.45-1.2
		c-0.467-0.5-1.116-0.399-1.95,0.301c-0.133,0.133-0.55,0.699-1.25,1.699c-0.5,0.767-1,1.167-1.5,1.2
		c-0.767,0.066-1.366-0.517-1.8-1.75c-0.233-0.633-0.35-0.967-0.35-1c-0.033-0.066-0.101-0.133-0.2-0.2
		c-0.167-0.133-0.384-0.267-0.65-0.399c-0.6-0.167-0.983-0.316-1.149-0.45c-0.334-0.233-0.483-0.634-0.45-1.2
		c0.033-0.6,0.467-1.283,1.3-2.05c0.2-0.167,0.4-0.333,0.601-0.5c0.5-0.434,1-0.767,1.5-1c0.399-0.167,0.883-0.25,1.449-0.25
		c0.067,0,0.551,0.017,1.45,0.05c0.033,0,0.066,0,0.101,0c0.866,0,2.233-0.116,4.1-0.35c0.066,0,0.15,0,0.25,0
		c1.6-0.101,2.884,0.1,3.85,0.6l3.25,0.5c0.567-0.133,1.017,0.066,1.351,0.601c0.3,0.533,0.35,1.083,0.149,1.649
		c-0.233,0.533-0.649,0.667-1.25,0.4c-0.199-0.134-0.383-0.233-0.55-0.3c-0.399-0.233-0.7-0.367-0.899-0.4
		c-0.834-0.167-1.7,0.066-2.601,0.7c-0.733,0.533-1.3,1.217-1.7,2.05c-0.133,0.267-0.283,0.6-0.449,1
		c-0.2,0.267-0.551,0.366-1.051,0.3C102.316,64.05,102.283,64.05,102.25,64.05z"/>
	<path style="fill-rule:evenodd;clip-rule:evenodd;fill:#695D3F;" d="M80.7,52.05c-0.033-0.1-0.05-0.184-0.05-0.25
		c-0.067-0.033-0.134-0.05-0.2-0.05c-0.533-0.634-1.15-1.167-1.851-1.6c-0.133-0.434-0.316-0.9-0.55-1.4c-2.233,0-3.399,0-3.5,0
		c-0.233-0.033-0.45-0.066-0.649-0.1c-1.601-0.267-2.617-0.884-3.051-1.851c2.7,0.2,4.767,0.3,6.2,0.3
		c-0.066-0.066-0.116-0.133-0.149-0.199c-2.034-2.801-3.084-4.267-3.15-4.4c0.4-0.067,0.7-0.25,0.9-0.55
		c0.1,0,0.216,0.017,0.35,0.05c0.333,0.733,0.95,1.517,1.85,2.35c1.7,1.567,2.567,2.367,2.601,2.4c0.866,1,1.616,2.083,2.25,3.25
		c0.866,1.6,1.184,2.833,0.95,3.7c-0.267,0.066-0.567,0.1-0.9,0.1c-0.1-0.2-0.233-0.45-0.4-0.75
		C81.15,52.684,80.934,52.35,80.7,52.05z M56.4,51.4c-0.5,0.333-0.95,0.649-1.351,0.949c-0.066-0.366-0.316-0.949-0.75-1.75
		c-0.433-0.767-0.633-1.383-0.6-1.85l2-4.65c-0.066,0.567,0.066,1.567,0.399,3c0.2,1.601,0.301,2.834,0.301,3.7
		C56.4,50.934,56.4,51.134,56.4,51.4z M50.6,60.9l0.45,1.199c0.067,0.667,0.034,1.217-0.1,1.65c-0.333-0.3-0.534-0.8-0.6-1.5
		c0-0.167,0.017-0.583,0.05-1.25C50.467,60.967,50.533,60.934,50.6,60.9z M25.7,64.75l-0.3,0.7c-0.9-0.033-1.683-0.184-2.35-0.45
		c-1.066-0.366-1.367-0.884-0.9-1.55C23.483,63.583,24.667,64.017,25.7,64.75z"/>
	
		<linearGradient id="SVGID_6_" gradientUnits="userSpaceOnUse" x1="50.9531" y1="-72.0342" x2="72.4031" y2="-72.0342" gradientTransform="matrix(4.662005e-005 1 -1 -0.001 4.462002e-004 -7.555448e-005)">
		<stop  offset="0" style="stop-color:#FFFFFF"/>
		<stop  offset="1" style="stop-color:#C8DAE3"/>
	</linearGradient>
	<path style="fill-rule:evenodd;clip-rule:evenodd;fill:url(#SVGID_6_);" d="M74.55,48.75c1.566,0.233,2.917,0.7,4.05,1.4
		c0.7,0.433,1.317,0.966,1.851,1.6c0.066,0.1,0.149,0.2,0.25,0.3c0.233,0.3,0.45,0.634,0.649,1c0.167,0.3,0.301,0.55,0.4,0.75
		c0.233,0.367,0.4,0.617,0.5,0.75c0.333,0.467,0.75,0.9,1.25,1.3c1.467,1.134,2.5,2.017,3.1,2.65c2.334,2.667,3.733,4.917,4.2,6.75
		c0.3,1.267,0.233,2.634-0.2,4.1c-0.5,1.567-1,2.45-1.5,2.65c-0.399,0.134-0.816,0-1.25-0.4c-0.166-0.133-0.316-0.25-0.449-0.35
		c-0.301-0.167-0.584-0.233-0.851-0.2c-1,0.334-1.783,0.566-2.35,0.7c-1,0.233-1.717,0-2.15-0.7c-0.6-1-0.517-1.916,0.25-2.75
		c0.167-0.2,0.367-0.383,0.601-0.55c0.366-0.233,0.583-0.4,0.649-0.5c0.101-0.1,0.101-0.366,0-0.8L83,65.5
		c-0.366-0.467-0.833-0.9-1.4-1.3c-0.633-0.4-1.216-0.634-1.75-0.7c-0.166-0.033-0.5-0.017-1,0.05c-0.3,0.033-0.55,0.05-0.75,0.05
		c-0.133-0.033-0.233-0.066-0.3-0.1c-0.333-0.134-0.517-0.333-0.55-0.6c-0.033-0.334-0.083-0.617-0.15-0.851
		c-0.199-0.566-0.366-0.95-0.5-1.149c-0.233-0.334-0.583-0.551-1.05-0.65c-0.066,0-0.149,0-0.25,0c-0.2,0.033-0.5,0.1-0.899,0.2
		c-0.534,0.166-0.9,0.184-1.101,0.05c-0.033-0.033-0.066-0.066-0.1-0.1c-0.066-0.101-0.117-0.2-0.15-0.301
		c-0.066-0.133-0.116-0.267-0.149-0.399C72.8,59.267,72.6,58.967,72.3,58.8c-0.233-0.133-0.467-0.217-0.7-0.25
		c-0.133-0.033-0.25-0.05-0.35-0.05c-0.2,0-0.4,0.017-0.6,0.05c-0.134,0.033-0.267,0.066-0.4,0.101c-0.366,0.1-0.667,0.25-0.9,0.449
		c-0.233,0.2-0.416,0.45-0.55,0.75c-0.033,0.134,0,0.817,0.101,2.051c0.066,0.866-0.233,1.267-0.9,1.199
		c-0.434-0.033-0.783-0.3-1.05-0.8c-0.267-0.6-0.467-1.033-0.601-1.3c-0.3-0.533-0.55-0.884-0.75-1.05
		c-0.199-0.167-0.55-0.3-1.05-0.4c-0.899,0-1.5-0.116-1.8-0.35c-0.1-0.066-0.15-0.167-0.15-0.3c0-0.167-0.017-0.284-0.05-0.351
		c-0.399-0.633-0.717-1.05-0.95-1.25c-0.333-0.366-0.8-0.55-1.399-0.55c-0.3,0-0.684,0.066-1.15,0.2
		c-0.233,0.033-0.467,0.083-0.7,0.149c-0.3,0.101-0.633,0.217-1,0.351c-0.366,0.133-0.699,0.25-1,0.35
		c-0.767,0.167-1.399,0.233-1.899,0.2c-0.034,0-0.067,0-0.1,0c-0.567-0.066-0.917-0.184-1.05-0.35c-0.133-0.167-0.2-0.534-0.2-1.101
		c-0.067-1.233,0.2-2.267,0.8-3.1c0.1-0.101,0.2-0.2,0.3-0.3c0.233-0.267,0.517-0.534,0.85-0.801c0.4-0.3,0.851-0.616,1.351-0.949
		c0.033,0,0.066-0.017,0.1-0.051c1.533-0.933,2.483-1.55,2.85-1.85c0.7-0.566,1.483-1,2.351-1.3c0.633-0.233,1.316-0.4,2.05-0.5
		c0.366-0.066,1.066-0.101,2.1-0.101c0.101,0,0.217,0,0.351,0c0.3-0.033,0.666-0.05,1.1-0.05c0.101,0,0.233,0,0.4,0
		c0.267,0,0.566,0,0.899,0l3.25,1c0.7,0,1.384,0.033,2.051,0.101C74.1,48.684,74.316,48.717,74.55,48.75z"/>
	
		<linearGradient id="SVGID_7_" gradientUnits="userSpaceOnUse" x1="67.876" y1="-98.7446" x2="69.126" y2="-98.7446" gradientTransform="matrix(7.999998e-004 1 -1 -0.001 -1.159504e-004 -6.770121e-005)">
		<stop  offset="0" style="stop-color:#FFFFFF"/>
		<stop  offset="1" style="stop-color:#C8DAE3"/>
	</linearGradient>
	<path style="fill-rule:evenodd;clip-rule:evenodd;fill:url(#SVGID_7_);" d="M100.7,68.45l0.149,0.1
		c-0.3,0.434-0.949,0.65-1.949,0.65c-0.867,0-1.584-0.134-2.15-0.4c0.033-0.133,0.083-0.25,0.15-0.35
		c0.199-0.367,0.533-0.584,1-0.65c0.066,0,0.633,0,1.699,0L100.7,68.45z"/>
	
		<linearGradient id="SVGID_8_" gradientUnits="userSpaceOnUse" x1="79.1172" y1="-82.9219" x2="83.1172" y2="-82.9219" gradientTransform="matrix(2.500000e-004 1 -1 -0.001 8.066112e-005 -7.650314e-005)">
		<stop  offset="0" style="stop-color:#FFFFFF"/>
		<stop  offset="1" style="stop-color:#C8DAE3"/>
	</linearGradient>
	<path style="fill-rule:evenodd;clip-rule:evenodd;fill:url(#SVGID_8_);" d="M81.65,82.75c-0.101-0.066-0.184-0.134-0.25-0.2
		c-0.434-0.333-0.601-0.833-0.5-1.5c0-0.133,0.033-0.267,0.1-0.399c0.066-0.467,0.217-0.884,0.45-1.25
		c0.366-0.634,0.8-0.917,1.3-0.851l1.5,0.3c0.434,0.334,0.684,0.934,0.75,1.801c0.033,0.433,0,0.833-0.1,1.199
		c-0.067,0.267-0.184,0.5-0.351,0.7c-0.5,0.667-1.366,0.767-2.6,0.3C81.85,82.816,81.75,82.783,81.65,82.75z"/>
	
		<linearGradient id="SVGID_9_" gradientUnits="userSpaceOnUse" x1="69.7402" y1="-72.0698" x2="84.7152" y2="-72.0698" gradientTransform="matrix(6.677796e-005 1 -1 -0.001 -8.733002e-005 -7.037888e-005)">
		<stop  offset="0" style="stop-color:#FFFFFF"/>
		<stop  offset="1" style="stop-color:#C8DAE3"/>
	</linearGradient>
	<path style="fill-rule:evenodd;clip-rule:evenodd;fill:url(#SVGID_9_);" d="M72.5,83.4c-0.167-0.034-0.35-0.067-0.55-0.101
		c-0.9-0.133-1.517-0.166-1.851-0.1c-0.267,0.066-0.517,0.184-0.75,0.35l-0.199,0.2L68.75,84c-0.467,0.3-1.134,0.467-2,0.5
		c-0.134,0-0.267,0-0.4,0c-1.199-0.033-1.966-0.316-2.3-0.85c-0.333-0.5-0.25-0.983,0.25-1.45c0.2-0.2,0.684-0.5,1.45-0.9
		c0.2-0.1,0.833-0.366,1.9-0.8c1-0.467,1.55-0.85,1.649-1.15c-0.1-0.233-0.116-0.399-0.05-0.5c0.467-0.5,0.75-0.883,0.85-1.149
		c0.034-0.101,0.067-0.217,0.101-0.351c0-0.199-0.033-0.416-0.101-0.649c-0.1-0.434-0.216-0.767-0.35-1
		c-0.267-0.334-1.533-0.617-3.8-0.851c-1.3-0.133-2.033-0.55-2.2-1.25c-0.1-0.3-0.1-0.616,0-0.949C63.783,72.483,64,72.2,64.4,71.8
		c0.267-0.267,0.316-0.517,0.149-0.75c-0.133-0.166-0.45-0.333-0.95-0.5c-0.466-0.133-0.75-0.35-0.85-0.649
		c2.1-1.567,4.017-2.417,5.75-2.551c1.366-0.1,2.75,0.2,4.15,0.9c0.199,0.1,0.517,0.267,0.949,0.5
		c0.101,0.033,0.217,0.083,0.351,0.15c0.032,0,0.049,0.017,0.05,0.05c0.033,0,0.066,0.017,0.1,0.05c0.5,0.3,0.834,0.583,1,0.85
		l2.5,1.2c0.7,0.5,1.117,1.05,1.25,1.65c0.034,0.066,0.067,0.233,0.101,0.5c0,0.133,0.017,0.316,0.05,0.55
		c0.033,0.366,0.167,0.684,0.4,0.95c0.633,0.7,0.983,1.1,1.05,1.2c0.3,0.466,0.45,0.966,0.45,1.5c0,0.3-0.067,0.816-0.2,1.55
		c-0.101,0.666-0.134,1.184-0.101,1.55c0.134,0,0.267,0.05,0.4,0.15c-0.066,0.133-0.1,0.267-0.1,0.399
		c-0.101,0.667,0.066,1.167,0.5,1.5c-0.034,0.033-0.051,0.066-0.051,0.101c-0.066,0.366-0.183,0.583-0.35,0.649
		c-0.066,0.033-0.483,0.05-1.25,0.05c-2.767,0-4.6,0.051-5.5,0.15C73.85,83.566,73.267,83.533,72.5,83.4z"/>
	<path style="fill-rule:evenodd;clip-rule:evenodd;fill:#939865;" d="M48.25,40.55c-0.267-0.6-0.483-1.05-0.65-1.35
		c-0.233-0.6-0.317-1.067-0.25-1.4l-4.1-4.35c0.333,0,0.6-0.083,0.8-0.25c0.233-0.2,0.367-0.583,0.4-1.15
		c0.033-0.466,0.3-0.733,0.8-0.8c0.533-0.067,0.883,0.05,1.05,0.35c0.1,0.133,0.2,0.517,0.3,1.15c0.033,0.4,0.267,1.167,0.7,2.3
		c0.1,0.233,0.217,0.567,0.35,1c0.133,0.3,0.434,0.367,0.9,0.2c0.034-0.2,0.017-0.6-0.05-1.2c-0.033-0.5,0-0.883,0.1-1.15
		c0.2-0.6,0.65-0.983,1.35-1.15c0.833-0.233,1.367-0.483,1.6-0.75c0.167-0.2,0.35-0.583,0.55-1.15c0.167-0.5,0.4-0.883,0.7-1.15
		c0.267-0.2,0.833-0.483,1.7-0.85c0.7-0.267,1.15-0.6,1.35-1c0.167-0.4,0.233-1.083,0.2-2.05c-0.066-0.867-0.066-1.5,0-1.9
		c0.233,0.2,0.417,0.483,0.55,0.85c0.301,0.667,0.45,1.45,0.45,2.35c0.2-0.333,0.584-0.35,1.15-0.05
		c0.533,0.333,0.916,0.717,1.149,1.15c0.233,0.5,0.384,1.083,0.45,1.75c0.066,0.733-0.017,1.316-0.25,1.75l0.7,0.1l-1.9,0.75
		c0.034-0.267,0.017-0.6-0.05-1c-1.666-0.267-3.316-0.033-4.95,0.7c-1.567,0.7-2.9,1.75-4,3.15c-0.533,0.733-0.85,1.184-0.95,1.35
		c-0.267,0.533-0.383,1.067-0.35,1.6c0.034,0.3,0.133,0.6,0.3,0.9c0.1,0.167,0.25,0.417,0.45,0.75
		C48.633,40.167,48.45,40.35,48.25,40.55z M67.2,28.75l1.45-2.05c0.1,0.2,0.25,0.316,0.449,0.35c0.301,0.1,0.584,0.067,0.851-0.1
		c0.1,0.233,0.166,0.533,0.2,0.9c0.066,0.433,0.083,0.816,0.05,1.15c-0.066,0-0.117,0.017-0.15,0.05
		c-0.434-0.066-0.95-0.117-1.55-0.15C68,28.867,67.566,28.817,67.2,28.75z M65.25,46.65c0.167,0.3,0.366,0.616,0.6,0.949
		c-1.033,0-1.733,0.034-2.1,0.101c-0.733,0.1-1.417,0.267-2.05,0.5c0-0.634,0.017-1.066,0.05-1.3c-0.167,0.433-0.55,0.883-1.15,1.35
		c-0.1,0.066-0.199,0.15-0.3,0.25l-0.55-0.1c-0.1-0.267-0.1-0.65,0-1.15c0.1-0.167,0.2-0.333,0.3-0.5l1.05-0.4
		C62.667,46.616,64.05,46.717,65.25,46.65z M66.7,29.45c0.566,0.033,0.899,0.05,1,0.05c0.165,0.496,0.099,0.863-0.2,1.1h-0.05
		c-0.601-0.033-1-0.2-1.2-0.5C66.384,29.8,66.533,29.583,66.7,29.45z M31.45,46.05c0.167,0.066,0.333,0.15,0.5,0.25
		c1.3,0.7,2.3,1.101,3,1.2c0.767,0.1,1.583,0.1,2.45,0c0.467-0.066,1.25-0.217,2.35-0.45c0.033,0,0.067,0,0.1,0
		c-1.434,0.8-2.617,1.417-3.55,1.851c-2.466,1.199-4.566,1.733-6.3,1.6c-0.067,0.033-0.15,0.066-0.25,0.1L28.2,49.95
		c-0.2-0.733,0.367-1.667,1.7-2.8C30.533,46.717,31.05,46.35,31.45,46.05z M70.65,58.55c-0.067,0.134-0.15,0.25-0.25,0.351
		C70.2,59.1,69.85,59.167,69.35,59.1c0.233-0.199,0.534-0.35,0.9-0.449C70.384,58.616,70.517,58.583,70.65,58.55z"/>
	
		<linearGradient id="SVGID_10_" gradientUnits="userSpaceOnUse" x1="33.0913" y1="-58.6714" x2="47.5913" y2="-58.6714" gradientTransform="matrix(6.896552e-005 1 -1 -0.001 -3.458690e-004 -7.555448e-005)">
		<stop  offset="0" style="stop-color:#FFFFFF"/>
		<stop  offset="1" style="stop-color:#C8DAE3"/>
	</linearGradient>
	<path style="fill-rule:evenodd;clip-rule:evenodd;fill:url(#SVGID_10_);" d="M60.25,31.8l2.35-1c0.834,0,2.117,0.2,3.851,0.6
		c0.434,0.1,0.899,0.217,1.399,0.35c0.733,0.2,1.351,0.5,1.851,0.9c0.233,0.233,0.684,0.733,1.35,1.5c0.7,0.8,1.066,1.233,1.101,1.3
		c0.267,0.433,0.416,0.966,0.449,1.6c0,1.233-0.066,2.017-0.199,2.35c-0.101,0.367-0.317,0.85-0.65,1.45
		c-0.2,0.3-0.417,0.633-0.65,1c-0.699,1.567-1.149,2.483-1.35,2.75c-0.733,1.034-1.884,1.684-3.45,1.95c-0.066,0-0.116,0-0.149,0
		c-0.134,0.033-0.284,0.05-0.45,0.05c-0.167,0.034-0.316,0.051-0.45,0.051c-1.2,0.066-2.583-0.034-4.15-0.301
		c-0.166-0.033-0.35-0.066-0.55-0.1c-0.233-0.033-0.434-0.083-0.6-0.15c-0.267-0.066-0.483-0.149-0.65-0.25
		c-0.066-0.033-0.184-0.116-0.35-0.25c-0.2-0.166-0.45-0.366-0.75-0.6c-0.233-0.167-0.5-0.316-0.8-0.45
		c-0.301-0.133-0.617-0.233-0.95-0.3c-0.233-0.066-0.483-0.116-0.75-0.15c-0.134-0.033-0.283-0.05-0.45-0.05
		C55.116,44.017,55,44,54.9,44c-0.967,0-1.917,0.15-2.85,0.45c-0.667,0.2-1.316,0.467-1.95,0.8c-0.2,0.1-0.583,0.384-1.15,0.85
		c-0.067,0.034-0.133,0.084-0.2,0.15s-0.15,0.134-0.25,0.2c-0.633,0.5-1.2,0.8-1.7,0.899c-1,0.167-1.65-0.083-1.95-0.75
		c-0.033-0.066-0.067-0.149-0.1-0.25c0.6-0.199,1.25-0.416,1.95-0.649c0.833-0.2,1.417-0.45,1.75-0.75
		c0.333-0.334,0.55-0.884,0.65-1.65c0.033-0.433-0.05-0.917-0.25-1.45c-0.267-0.567-0.467-1-0.6-1.3c0.2-0.2,0.383-0.383,0.55-0.55
		c-0.2-0.333-0.35-0.583-0.45-0.75c-0.167-0.3-0.267-0.6-0.3-0.9c-0.033-0.533,0.083-1.067,0.35-1.6
		c0.1-0.167,0.417-0.617,0.95-1.35c1.1-1.4,2.433-2.45,4-3.15c1.633-0.733,3.284-0.967,4.95-0.7c0.066,0.4,0.084,0.733,0.05,1
		L60.25,31.8z"/>
	
		<linearGradient id="SVGID_11_" gradientUnits="userSpaceOnUse" x1="33.0415" y1="-33.75" x2="48.5915" y2="-33.75" gradientTransform="matrix(6.430868e-005 1 -1 -0.001 -1.526258e-004 -7.555448e-005)">
		<stop  offset="0" style="stop-color:#FFFFFF"/>
		<stop  offset="1" style="stop-color:#C8DAE3"/>
	</linearGradient>
	<path style="fill-rule:evenodd;clip-rule:evenodd;fill:url(#SVGID_11_);" d="M22.95,48.2c-0.867-0.233-1.65-0.367-2.35-0.4
		c0.267-0.399,0.517-0.733,0.75-1l-2.25-2.75c-0.233-0.5-0.467-0.934-0.7-1.3c0.2-1.033,0.717-1.85,1.55-2.45
		c0.933-0.667,1.533-1.15,1.8-1.45c0.367-0.367,0.733-0.967,1.1-1.8c0.133-0.333,0.4-0.8,0.8-1.4c0.467-0.667,0.767-1.133,0.9-1.4
		c0.567-1.067,1.184-1.85,1.85-2.35c0.3-0.267,0.633-0.467,1-0.6c0.267-0.1,0.684-0.117,1.25-0.05c0.6,0.067,1,0.083,1.2,0.05
		c0.033,0,0.933-0.183,2.7-0.55c1.067-0.2,2-0.267,2.8-0.2c0.533,0.067,1.967,0.233,4.3,0.5c2.067,0.4,3.133,1.067,3.2,2l0.4,0.4
		l4.1,4.35c-0.067,0.333,0.017,0.8,0.25,1.4c0.167,0.3,0.383,0.75,0.65,1.35c0.133,0.3,0.333,0.733,0.6,1.3
		c0.2,0.533,0.283,1.017,0.25,1.45c-0.1,0.767-0.317,1.316-0.65,1.65c-0.333,0.3-0.917,0.55-1.75,0.75
		c-0.7,0.233-1.35,0.45-1.95,0.649C43.617,46.684,42.733,46.9,42.1,47c-1.033-0.066-1.783-0.05-2.25,0.05c-0.033,0-0.067,0-0.1,0
		c-1.1,0.233-1.883,0.384-2.35,0.45c-0.867,0.1-1.683,0.1-2.45,0c-0.7-0.1-1.7-0.5-3-1.2c-0.167-0.1-0.333-0.184-0.5-0.25
		c-1.034-0.566-1.867-0.899-2.5-1c-0.9-0.166-1.733-0.1-2.5,0.2c-0.867,0.366-1.6,0.866-2.2,1.5l-0.7,1.05
		C23.35,47.967,23.15,48.1,22.95,48.2z"/>
	
		<linearGradient id="SVGID_12_" gradientUnits="userSpaceOnUse" x1="50.1191" y1="-43.3003" x2="64.5941" y2="-43.3003" gradientTransform="matrix(6.908464e-005 1 -1 -0.001 -3.531952e-004 -7.555448e-005)">
		<stop  offset="0" style="stop-color:#FFFFFF"/>
		<stop  offset="1" style="stop-color:#C8DAE3"/>
	</linearGradient>
	<path style="fill-rule:evenodd;clip-rule:evenodd;fill:url(#SVGID_12_);" d="M54.2,53.15c-0.1,0.1-0.2,0.199-0.3,0.3
		c-0.6,0.833-0.867,1.866-0.8,3.1c0,0.566,0.066,0.934,0.2,1.101c0.133,0.166,0.483,0.283,1.05,0.35c-0.267,0.6-0.7,1.15-1.3,1.65
		c-0.433,0.3-0.95,0.583-1.55,0.85c-0.267,0.1-0.517,0.217-0.75,0.35c-0.067,0-0.117,0.017-0.15,0.051
		c-0.067,0.033-0.133,0.066-0.2,0.1c-0.367,0.1-0.7,0.217-1,0.35c-0.066,0-0.133,0.017-0.2,0.051c-0.434,0.133-0.817,0.233-1.15,0.3
		c-0.2,0.033-0.383,0.066-0.55,0.1c-0.067,0-0.133,0.017-0.2,0.05c-0.966,0.101-1.867,0-2.7-0.3c-0.4-0.133-0.767-0.316-1.1-0.55
		c-0.467-0.366-0.783-0.583-0.95-0.65c-0.267-0.133-0.667-0.116-1.2,0.051c-0.267,0.1-0.533,0.216-0.8,0.35L40.5,60.8
		c-0.3,0.101-0.6,0.267-0.9,0.5c-1.267-0.166-2.317-0.233-3.15-0.2c-1.567,0.034-2.35,0.4-2.35,1.101c0,0.033,0,0.066,0,0.1
		l2.35,1.2c-0.067,0.033-0.117,0.066-0.15,0.1c-0.8-0.166-1.566-0.267-2.3-0.3c-0.6-0.033-1.167-0.017-1.7,0.05
		c-0.066-0.533-0.05-1.35,0.05-2.449c0.2-1.567,0.867-3.084,2-4.551c0.1-0.1,0.217-0.183,0.35-0.25
		c0.133-0.033,0.233-0.149,0.3-0.35c0.2-0.434,0.3-1.116,0.3-2.05c0-0.066,0-0.134,0-0.2c0.034-0.9,0.133-1.55,0.3-1.95
		c0.667-1.733,1.917-2.85,3.75-3.35c0.967-0.267,2.717-0.4,5.25-0.4l1.9,1.4l0.1,0.1c1.433,0.033,2.717,0.283,3.85,0.75
		c1.333,0.533,2.466,1.384,3.4,2.55C53.983,52.767,54.1,52.95,54.2,53.15z"/>
	
		<linearGradient id="SVGID_13_" gradientUnits="userSpaceOnUse" x1="41.2095" y1="-15.5801" x2="50.1595" y2="-15.5801" gradientTransform="matrix(1.117319e-004 1 -1 -0.001 -1.247043e-005 -7.555448e-005)">
		<stop  offset="0" style="stop-color:#FFFFFF"/>
		<stop  offset="1" style="stop-color:#C8DAE3"/>
	</linearGradient>
	<path style="fill-rule:evenodd;clip-rule:evenodd;fill:url(#SVGID_13_);" d="M18.4,42.75c0.233,0.366,0.467,0.8,0.7,1.3l2.25,2.75
		c-0.233,0.267-0.483,0.601-0.75,1c-0.133-0.033-0.233-0.05-0.3-0.05c-1.533-0.066-2.667,0.2-3.4,0.8
		c-0.267,0.2-0.517,0.467-0.75,0.8c-0.233-0.133-0.467-0.267-0.7-0.399c-0.767-0.5-1.45-0.733-2.05-0.7
		c-0.033,0-0.066,0.017-0.1,0.05c-0.833,0.134-1.433,0.2-1.8,0.2c-0.633-0.033-1.133-0.4-1.5-1.1C9.833,47,9.783,46.134,9.85,44.8
		c0-1.566,0.2-2.733,0.6-3.5c0.533-1.033,1.483-1.533,2.85-1.5c1.467,0,2.65,0.367,3.55,1.1C17.383,41.333,17.9,41.95,18.4,42.75z"
		/>
	
		<linearGradient id="SVGID_14_" gradientUnits="userSpaceOnUse" x1="49.6899" y1="-22.6641" x2="61.7649" y2="-22.6641" gradientTransform="matrix(8.281574e-005 1 -1 -0.001 4.869889e-005 -7.555448e-005)">
		<stop  offset="0" style="stop-color:#FFFFFF"/>
		<stop  offset="1" style="stop-color:#C8DAE3"/>
	</linearGradient>
	<path style="fill-rule:evenodd;clip-rule:evenodd;fill:url(#SVGID_14_);" d="M13.35,58.8H12.9c-0.5,0.066-0.95,0.05-1.35-0.05
		c-0.167-0.167-0.267-0.4-0.3-0.7s0-0.649,0.1-1.05c0.367-0.9,0.6-1.483,0.7-1.75c0.1-0.233,0.217-0.467,0.35-0.7
		c0.2-0.366,0.45-0.733,0.75-1.1c0.567-0.7,1-1.267,1.3-1.7c0.5-0.733,0.883-1.283,1.15-1.65c0.167-0.267,0.35-0.517,0.55-0.75
		c0.233-0.333,0.483-0.6,0.75-0.8c0.733-0.6,1.867-0.866,3.4-0.8c0.067,0,0.167,0.017,0.3,0.05c0.7,0.033,1.483,0.167,2.35,0.4
		c0.033,0,0.066,0,0.1,0c0.567,0.133,1.367,0.399,2.4,0.8c1.066,0.434,1.867,0.7,2.4,0.8l0.35,0.15l1.55,0.649l1.6,0.601l0.4,0.2
		L34.1,52.3c0,0.5-0.033,0.983-0.1,1.45c-0.067,0.667-0.2,1.25-0.4,1.75c-0.267,0.667-0.684,1.333-1.25,2
		c-0.2,0.233-0.434,0.467-0.7,0.7c-1.6,1.533-3.066,2.55-4.4,3.05c-0.6,0.2-1.167,0.3-1.7,0.3c-1.033,0-1.683-0.083-1.95-0.25
		c-0.267-0.133-0.617-0.416-1.05-0.85c-0.433-0.434-0.8-0.733-1.1-0.9c-1.067-0.533-2.483-0.8-4.25-0.8L13.35,58.8z"/>
	
		<linearGradient id="SVGID_15_" gradientUnits="userSpaceOnUse" x1="62.7344" y1="-40.1641" x2="72.9844" y2="-40.1641" gradientTransform="matrix(9.756098e-005 1 -1 -0.001 3.941006e-004 -7.132755e-005)">
		<stop  offset="0" style="stop-color:#FFFFFF"/>
		<stop  offset="1" style="stop-color:#C8DAE3"/>
	</linearGradient>
	<path style="fill-rule:evenodd;clip-rule:evenodd;fill:url(#SVGID_15_);" d="M32.3,63.35c0.534-0.066,1.1-0.083,1.7-0.05
		c0.733,0.033,1.5,0.134,2.3,0.3c0.267,0.067,0.534,0.134,0.8,0.2l-0.65-0.3l-2.35-1.2c0-0.033,0-0.066,0-0.1
		c0-0.7,0.783-1.066,2.35-1.101c0.833-0.033,1.883,0.034,3.15,0.2c0.066,0,0.15,0,0.25,0c0.167,0,0.35,0.017,0.55,0.05
		c0.167-0.033,0.35-0.033,0.55,0c1.066,0.101,2.083,0.334,3.05,0.7c0.467,0.167,0.933,0.384,1.4,0.65c0.434,0.233,0.967,0.6,1.6,1.1
		c0.033,0.033,0.083,0.084,0.15,0.15c0.133,0.066,0.25,0.149,0.35,0.25c0.267,0.2,0.517,0.399,0.75,0.6
		c0.533,0.367,0.95,0.65,1.25,0.851c0.3,0.166,1.1,0.449,2.4,0.85c0.167,0.033,0.35,0.083,0.55,0.15
		c1.267,0.333,2.133,0.816,2.6,1.449c0.033,0,0.05,0.017,0.05,0.051c0.301,0.366,0.467,0.866,0.5,1.5
		c0.067,0.666-0.017,1.199-0.25,1.6c-0.066,0.1-0.149,0.2-0.25,0.3c-0.366,0.3-0.899,0.367-1.6,0.2c-0.2-0.066-0.4-0.134-0.6-0.2
		c-1.2-0.434-1.867-0.666-2-0.7c-0.7-0.133-1.417-0.083-2.15,0.15c-0.433,0.134-0.983,0.467-1.65,1c-0.6,0.467-1.15,0.733-1.65,0.8
		c-1.034,0.101-1.817,0-2.35-0.3c-0.2-0.134-0.367-0.267-0.5-0.4c-0.2-0.233-0.367-0.566-0.5-1c-0.167-0.533-0.333-0.883-0.5-1.05
		c-0.434-0.467-1-0.649-1.7-0.55c-0.467,0.167-0.867,0.283-1.2,0.35c-0.267,0.067-0.483,0.117-0.65,0.15
		c-0.133,0.033-0.267,0.05-0.4,0.05c-0.467,0.033-0.917-0.033-1.35-0.2c-0.6-0.333-1.117-0.583-1.55-0.75H34.7
		c-0.067-0.033-0.133-0.05-0.2-0.05c-0.467-0.133-0.983-0.116-1.55,0.05c-0.5,0.2-0.917,0.367-1.25,0.5
		c-0.167,0.067-0.317,0.117-0.45,0.15c-0.867,0.267-1.983,0.434-3.35,0.5c-0.033,0-0.066,0-0.1,0c-0.933,0.033-1.65-0.033-2.15-0.2
		c-0.367-0.1-0.633-0.267-0.8-0.5c-0.2-0.333-0.167-0.767,0.1-1.3c0-0.033,0.017-0.066,0.05-0.1c0.133-0.2,0.383-0.551,0.75-1.051
		c0.3-0.433,0.633-0.816,1-1.149l0.05-0.05c1.133-1.101,2.483-1.867,4.05-2.301c0.033,0,0.066,0,0.1,0
		C31.383,63.467,31.833,63.384,32.3,63.35z"/>
	
		<linearGradient id="SVGID_16_" gradientUnits="userSpaceOnUse" x1="57.165" y1="-10.1689" x2="67.315" y2="-10.1689" gradientTransform="matrix(9.852218e-005 1 -1 -0.001 -7.772637e-005 -7.555448e-005)">
		<stop  offset="0" style="stop-color:#FFFFFF"/>
		<stop  offset="1" style="stop-color:#C8DAE3"/>
	</linearGradient>
	<path style="fill-rule:evenodd;clip-rule:evenodd;fill:url(#SVGID_16_);" d="M4.6,61.25c-0.167-0.066-0.35-0.134-0.55-0.2
		c-0.867-0.2-1.5-0.35-1.9-0.45c-0.733-0.199-1.283-0.533-1.65-1C0.2,59.167,0.033,58.616,0,57.95c0-0.667,0.133-1.217,0.4-1.65
		c0.233-0.434,0.55-0.684,0.95-0.75C1.55,55.517,2,55.533,2.7,55.6c0.267,0.034,1.133,0.25,2.6,0.65c0.067,0,0.55,0.066,1.45,0.2
		c0.533,0.066,1,0.184,1.4,0.35c0.167,0.066,0.8,0.517,1.9,1.351c0.034,0.033,0.083,0.066,0.15,0.1v0.05
		c0.8,0.533,1.433,0.783,1.9,0.75l1.3,0.55l1.6,0.7l0.35,0.15l5,2.1c0,0.634,0,1.15,0,1.55c0,0.567-0.017,0.884-0.05,0.95
		c-0.1,0.434-0.3,0.8-0.6,1.101c-0.3,0.199-0.65,0.35-1.05,0.449c-1.133,0.301-2.267,0.483-3.4,0.551
		c-1.3,0.066-2.6-0.034-3.9-0.301c-1.167-0.233-2.233-0.816-3.2-1.75L7.9,64.8l-2.2-2.5c-0.333-0.434-0.567-0.7-0.7-0.8
		C4.9,61.4,4.767,61.316,4.6,61.25z"/>
</g>
</svg>
