<?xml version="1.0" encoding="iso-8859-1"?>
<!-- Generator: Adobe Illustrator 15.1.0, SVG Export Plug-In . SVG Version: 6.00 Build 0)  -->
<!DOCTYPE svg PUBLIC "-//W3C//DTD SVG 1.1//EN" "http://www.w3.org/Graphics/SVG/1.1/DTD/svg11.dtd">
<svg version="1.1" id="FlashAICB" xmlns="http://www.w3.org/2000/svg" xmlns:xlink="http://www.w3.org/1999/xlink" x="0px" y="0px"
	 width="193.95px" height="141.8px" viewBox="0 0 193.95 141.8" style="enable-background:new 0 0 193.95 141.8;"
	 xml:space="preserve">
<g>
	<path style="fill-rule:evenodd;clip-rule:evenodd;fill:#DDDEE0;" d="M163.55,72.15c-1.267,0.433-2.267,0.949-3,1.55
		c-0.833,0.633-1.666,1.616-2.5,2.95c-0.467,0.767-1.083,1.916-1.85,3.449c-0.667,1.2-1.084,1.867-1.25,2
		c-0.267,0.233-1,0.5-2.2,0.801c-1.066,0.267-1.85,0.399-2.35,0.399c-0.534,0-1.317-0.133-2.351-0.399
		c-1.166-0.334-2.517-1.017-4.05-2.051c-2.2-1.5-3.517-2.366-3.95-2.6c-1.866-1-3.866-1.65-6-1.95
		c-1.8-0.267-3.934-0.283-6.399-0.05c-4.4,0.366-8.067,1.884-11,4.55c-2.567,2.3-4.767,5.667-6.601,10.101L110,91.15
		c-0.6,0.633-1.283,1.366-2.05,2.199c-1.434,1.467-4.167,3.601-8.2,6.4c-0.033,0-0.05,0.017-0.05,0.05
		c-0.733,0.467-1.483,0.967-2.25,1.5c-1.5,1.2-2.717,2.4-3.65,3.601c0.467-1.301,0.917-2.367,1.35-3.2
		c0.133-0.367,0.283-0.684,0.45-0.95c1.233-2.1,3.2-4.45,5.9-7.05c0.634-0.601,1.3-1.217,2-1.851c1.634-1.433,3.066-3.533,4.3-6.3
		c0.233-0.5,0.45-1.033,0.65-1.6c1.533-4.033,3-6.884,4.399-8.55c0.601-0.733,1.2-1.417,1.801-2.051c2.199-2.5,4.216-4.366,6.05-5.6
		c3.033-2.067,6.399-3.15,10.1-3.25c3.101-0.1,7.167,0.483,12.2,1.75c0.434,0.1,0.884,0.217,1.35,0.35
		c5.9,1.566,10.267,2.367,13.101,2.4l6,3C163.483,72.066,163.517,72.116,163.55,72.15z M133.9,91.3
		c-0.267-0.333-0.517-0.684-0.75-1.05c-1.2-1.866-2.15-3.25-2.851-4.15c0.566,0.7,1.25,1.65,2.05,2.851
		C132.917,89.884,133.434,90.667,133.9,91.3z M118.05,83.7c0.167-0.101,0.334-0.2,0.5-0.3c0.834-0.434,1.667-0.717,2.5-0.851
		C120.05,82.75,119.05,83.134,118.05,83.7z M109.5,8.55c-0.333-0.2-0.634-0.4-0.9-0.6L108,8.4c-0.434,0.467-0.667,1.15-0.7,2.05
		c0,0.533,0.017,1.316,0.05,2.35l-4.1,0.25c-1.467,0.1-2.75,0.434-3.85,1c-0.801,0.434-2.284,1.133-4.45,2.1
		c-1.867,0.867-3.3,1.6-4.3,2.2c-1.566,0.967-3.85,2.667-6.85,5.1c-2.767,1.933-5.316,2.867-7.65,2.8
		c-2.5-0.067-5.816-1.333-9.95-3.8c-3.833-2.233-7.167-3.2-10-2.9c-1.3,0.167-2.6,0.7-3.9,1.6c-1.833,1.267-3.033,2.033-3.6,2.3
		c-0.434,0.2-1.284,0.35-2.55,0.45c-1.6,0.167-2.617,0.283-3.05,0.35c0-0.3,0.017-0.583,0.05-0.85c0.333-3.467,1.55-6.15,3.65-8.05
		c1.167-1.067,3.233-2.367,6.2-3.9c3.133-1.633,5.317-2.95,6.55-3.95c2.967-2.367,5.6-4.117,7.9-5.25
		c3.066-1.533,6.066-2.283,9-2.25C78.717,0,81.9,0.817,86,2.45c3.9,1.533,7.217,2.216,9.95,2.05l10.5,1.5
		C107.116,6.767,108.134,7.617,109.5,8.55z M123.05,17.55c-0.566-0.433-1.267-0.983-2.1-1.65c0.474,0.362,0.99,0.762,1.55,1.2
		C122.7,17.267,122.884,17.417,123.05,17.55z M100.9,33l-0.051-0.4l0.551-0.35c0.533-0.367,1.199-1.033,2-2
		c0.8-1,1.466-1.683,2-2.05c1.466-1.1,4.683-2.417,9.649-3.95c4.434-1.367,7.45-2.967,9.05-4.8l0.551-0.7
		c0.767,0.567,1.483,1.05,2.149,1.45c0.334,0.2,0.667,0.383,1,0.55c0.037,0.013,0.079,0.029,0.125,0.05l0.025,0.025L128,20.85
		c0.033,0.013,0.067,0.03,0.1,0.05c1.334,0.633,3,1.217,5,1.75c1.567,0.667,2.717,2.1,3.45,4.3c0.134,0.466,0.233,0.95,0.3,1.45
		c-0.833-0.667-2-0.717-3.5-0.15c-0.6-0.2-1.1-0.467-1.5-0.8c-0.6-0.733-1.25-1.383-1.949-1.95c-3.067-1.667-6.15-1.267-9.25,1.2
		c-0.867,0.7-2.134,1.8-3.801,3.3c-1.5,1.2-2.883,1.95-4.149,2.25c-0.101,0.033-1.3,0.133-3.601,0.3c-1.1,0.1-2.116,0.65-3.05,1.65
		l-0.149,0.25c0.066-0.934-0.301-1.883-1.101-2.85L100.9,33z M136.15,33.1c-0.9,2.633-1.367,4.467-1.4,5.5
		c0-0.967,0.217-2.117,0.65-3.45l1.149-3.55c0.008-0.016,0.017-0.033,0.025-0.05c-0.097,0.471-0.238,0.971-0.425,1.5V33.1z
		 M106.75,38.75c-0.153,0.203-0.303,0.419-0.45,0.65v-0.05C106.446,39.142,106.596,38.942,106.75,38.75z M123.8,41.15
		c-0.133,0.067-0.25,0.133-0.35,0.2c0.117-0.088,0.259-0.188,0.425-0.3C123.845,41.077,123.82,41.11,123.8,41.15z M94.575,54.65
		c0.052-0.184,0.11-0.367,0.175-0.55c0.167-0.5,0.383-0.983,0.65-1.45c0.833-1.467,2.484-3.4,4.95-5.8
		c1.211-1.161,2.228-2.178,3.051-3.05c-1.091,1.238-2.74,2.905-4.95,5C96.413,50.932,95.122,52.882,94.575,54.65z M57.525,31.6
		c-0.48,0.043-1.105,0.127-1.875,0.25c0.333-0.067,0.684-0.133,1.05-0.2L57.525,31.6z M92.45,107c0.367-0.7,0.816-1.4,1.35-2.1
		c-0.7,1.933-1.483,4.316-2.35,7.149c-0.1-1-0.017-2,0.25-3C91.9,108.417,92.15,107.733,92.45,107z"/>
	<path style="fill-rule:evenodd;clip-rule:evenodd;fill:#8D959E;" d="M173.4,80.4c-0.4,1.033-1.167,1.916-2.301,2.649
		c-0.5,0.3-1,0.566-1.5,0.8c-1.366,0.5-2.833,0.634-4.399,0.4c-1,3,0.649,7.167,4.95,12.5c0.033,0.033,0.066,0.066,0.1,0.1
		c0.767,0.967,1.467,1.834,2.1,2.601c0.801,1.033,1.45,1.85,1.95,2.45c0.101,0.166,0.2,0.316,0.3,0.449
		c0.267,0.367,0.467,0.617,0.601,0.75v0.051c1.733,2.399,2.75,4.483,3.05,6.25c-1.533-0.9-3.517-2.5-5.95-4.801
		c-2.8-2.767-4.95-4.833-6.45-6.199c-5.533-5-10.366-7.317-14.5-6.95h-0.05h-0.05c-0.667,0.1-2.116,0.649-4.35,1.649
		c-0.067,0.034-0.117,0.067-0.15,0.101c-0.3,0.1-0.6,0.233-0.9,0.399c-0.166,0.034-0.316,0.084-0.449,0.15
		c-0.034,0.033-0.084,0.066-0.15,0.1c-0.033,0-0.083,0.017-0.15,0.051c-2.699,1.233-5.1,1.483-7.199,0.75
		c-0.233-0.067-0.467-0.167-0.7-0.301l-0.65-0.399c-0.666-0.4-1.283-0.934-1.85-1.601c-0.233-0.267-0.5-0.616-0.8-1.05
		c-0.467-0.633-0.983-1.416-1.551-2.35c4.367,0.133,7.634,0.133,9.801,0c1.267-0.101,2.517-0.566,3.75-1.4
		c1.699-1.166,2.866-1.883,3.5-2.149c1-0.4,2.683-0.601,5.05-0.601c2.3,0,3.916-0.217,4.85-0.649c0.9-0.434,1.584-1.483,2.05-3.15
		c0.534-1.9,1.067-3.1,1.601-3.6c0.899-0.834,2.2-1.4,3.899-1.7c2.667,1.934,4.967,2.783,6.9,2.55c0.033,0.767-0.066,1.467-0.3,2.1
		L173.4,80.4z M65.2,34.15c-0.067-0.066-0.133-0.133-0.2-0.2c-1.633-1.767-3.817-2.583-6.55-2.45c-0.2,0-0.467,0.033-0.8,0.1h-0.125
		L56.7,31.65c0.367-0.333,0.816-0.6,1.35-0.8c1.333-0.467,3.117-0.533,5.35-0.2c1.767,0.3,3.5,0.783,5.2,1.45
		c2.633,1,5.617,1.5,8.95,1.5c2.434,0,3.917-0.017,4.45-0.05c1.533-0.133,2.917-0.5,4.15-1.1c1.267-0.6,2.483-1,3.65-1.2
		c1-0.2,2.184-0.3,3.55-0.3l2-0.05c0.633,0,1.683-0.05,3.15-0.15c1.233,0.067,1.983,0.567,2.25,1.5l0.1,0.35L100.9,33
		c0,0.533-0.25,0.95-0.75,1.25H100.1c-3.433-0.1-6.816-0.05-10.149,0.15c-0.4,0.033-0.767,0.067-1.1,0.1h-0.4
		c-1.067,0.1-4.083,0.8-9.05,2.1c-0.4,0.1-0.767,0.2-1.1,0.3c-3.367,0.8-5.983,1.017-7.85,0.65C68.85,37.217,67.1,36.083,65.2,34.15
		z M134.75,38.6v0.2c-0.634,0.1-1.85,0.1-3.65,0c-1.6-0.066-2.816,0-3.649,0.2c-0.767,0.2-1.816,0.783-3.15,1.75
		c-0.033,0.033-0.066,0.067-0.1,0.1c-0.033,0-0.05,0.017-0.05,0.05l-0.2,0.1c-0.024,0.017-0.05,0.033-0.075,0.05
		c-0.166,0.112-0.308,0.212-0.425,0.3l-0.7,0.45c-0.066,0-0.116,0.017-0.15,0.05c-0.033,0.033-0.066,0.05-0.1,0.05
		c-0.134,0.067-0.233,0.117-0.3,0.15c-0.033,0-0.066,0.017-0.101,0.05c-0.033,0-0.066,0-0.1,0l-0.05,0.05
		c-0.066,0-0.117,0.017-0.15,0.05h-0.05c-0.033-0.034-0.05-0.034-0.05,0c-0.033,0-0.066,0-0.101,0h-0.05c-0.767,0.1-1.85,0-3.25-0.3
		c-1.267-0.3-2.316-0.367-3.149-0.2c-1.534,0.333-2.483,0.566-2.851,0.7c-0.7,0.233-1.517,0.733-2.45,1.5
		c-0.033,0.033-0.083,0.083-0.149,0.15c-0.834,0.667-1.667,1.75-2.5,3.25l-0.2,0.3c-0.066,0.133-0.15,0.283-0.25,0.45
		c-0.592,1.151-1.441,2.934-2.55,5.35c0.233-1.133,0.416-2.2,0.55-3.2c0.167-2.034,0.35-3.434,0.55-4.2
		c0.267-1.133,0.967-2.333,2.101-3.6c1.666-1.933,2.616-2.983,2.85-3.15c0.967-0.867,2.25-1.433,3.85-1.7
		c3.167-0.466,6.267-1.5,9.301-3.1c2.033-1.133,4.183-1.9,6.449-2.3c1.733-0.333,3.967-0.517,6.7-0.55l-1.149,3.55
		C134.967,36.483,134.75,37.633,134.75,38.6z"/>
	<path style="fill-rule:evenodd;clip-rule:evenodd;fill:#797061;" d="M111.2,124c-0.634,1.634-1.05,3.517-1.25,5.65
		c-0.101,1.233-0.233,3.199-0.4,5.899c-0.1,1.834-0.383,3.867-0.85,6.101c-2.434-0.5-6.917-1.884-13.45-4.15
		c-5.867-2.1-10.7-2.783-14.5-2.05c-4.067,1.133-7.083,1.983-9.05,2.55c-0.5,0.134-0.983,0.25-1.45,0.35
		c0.133-0.033,0.267-0.066,0.4-0.1c0.8-0.2,2.45-0.684,4.95-1.45c2.066-0.666,3.783-1.116,5.15-1.35l0.2-0.05
		c2.966-0.5,6.316-0.25,10.05,0.75l2.1,0.6c-2-8.934-2.75-16.017-2.25-21.25c0.3-0.167,0.717-0.517,1.25-1.05l-0.05,0.45
		c0,1,0,2.616,0,4.85c0.1,1.967,0.45,3.517,1.05,4.65c0.767,0.1,1.767-0.167,3-0.801c0.667-0.366,1.601-0.899,2.801-1.6
		c2.066-1,4.816-1.866,8.25-2.6c0.033,0,0.649-0.101,1.85-0.301c0.767-0.1,1.316-0.267,1.65-0.5c0.5-0.333,1.017-0.916,1.55-1.75
		c0.633-1.033,1.083-1.683,1.35-1.949c0.434-0.434,1.066-0.934,1.9-1.5c1.133-0.767,1.816-1.233,2.05-1.4l-1.1,2.3
		c-0.367,0.733-1.034,1.733-2,3c-0.967,1.3-1.634,2.3-2,3C111.866,121.434,111.467,122.667,111.2,124z M99.75,99.75l0.3-0.1
		L99.7,99.8C99.7,99.767,99.717,99.75,99.75,99.75z M176.95,83.25c-1.066-0.934-2.25-1.884-3.55-2.85l0.05-0.051
		C174.717,81.283,175.884,82.25,176.95,83.25z M173.9,126.05c0.333-0.6,0.716-1.3,1.149-2.1c0.867-1.667,1.5-2.783,1.9-3.351
		c-0.101,0.134-0.967,1.684-2.601,4.65C174.217,125.517,174.066,125.783,173.9,126.05z M171.5,129c0.3-0.233,0.7-0.616,1.2-1.15
		c-0.566,0.667-1.101,1.15-1.601,1.45L171.5,129z M142.8,137.55c2.267,0.167,5.066,0.417,8.4,0.75c-1.2-0.066-2.467-0.166-3.8-0.3
		C145.667,137.833,144.134,137.684,142.8,137.55z M119.55,136.85c1.134-0.199,2.351-0.35,3.65-0.449c-0.101-1-0.15-2.233-0.15-3.7
		v-0.4c0.3,0.267,0.934,0.667,1.9,1.2c1.434,0.866,2.649,1.467,3.649,1.8c1.334,0.467,2.667,0.667,4,0.601
		c1.467-0.034,2.5-0.717,3.101-2.051c0.3-0.633,0.633-2.033,1-4.199c0.467-2.767,0.383-5.584-0.25-8.45
		c-0.334-1.434-0.55-3.184-0.65-5.25c-0.033-2.3-0.1-4.05-0.2-5.25c0-0.066-0.033-0.434-0.1-1.101
		c-0.033-0.366-0.083-0.649-0.15-0.85c0.934,0.833,2.284,1.7,4.051,2.6c0.633,2.134,1.066,3.884,1.3,5.25
		c0.533,3.301,0.95,7.7,1.25,13.2c0.166,2.967,0.25,4.467,0.25,4.5c-0.2,1.233-1.066,2.167-2.601,2.8L139.4,137.2
		c-0.167-0.033-0.317-0.05-0.45-0.05c-7.3-0.7-12.45-0.95-15.45-0.75c-3.033,0.199-5.684,0.716-7.95,1.55
		c-1.434,0.533-2.717,1.2-3.85,2c0.166-0.134,0.35-0.267,0.55-0.4c1.1-0.7,2.2-1.233,3.3-1.6
		C116.717,137.483,118.05,137.116,119.55,136.85z M33.25,131.4c-0.1-1.667-0.483-3.301-1.15-4.9c-0.267-0.634-0.85-1.566-1.75-2.8
		c-0.867-1.134-1.417-2.084-1.65-2.851c-0.6-1.8-0.817-3.733-0.65-5.8c0.1-1.267,0.784-2.717,2.05-4.35
		c1.4-1.767,2.217-3.117,2.45-4.05c0.467,0.3,1.133,0.883,2,1.75c0.867,0.966,1.534,1.6,2,1.899c0.833,0.5,1.517,0.7,2.05,0.601
		c0.367-0.067,1.133-0.334,2.3-0.801c2.733-0.699,4.233-1.083,4.5-1.149c1.8-0.5,3.3-1.05,4.5-1.65c-2.033,1.767-3.367,2.867-4,3.3
		c-1.6,1.067-3.183,1.667-4.75,1.801c-0.7,0.066-1.783,0.066-3.25,0c-1.467-0.067-2.566-0.067-3.3,0
		c-1.133,0.1-1.783,0.267-1.95,0.5c-0.066,0.133-0.1,0.866-0.1,2.199c0,0.801-0.033,2.034-0.1,3.7c-0.034,1.5,0,2.717,0.1,3.65
		c0.2,2.333,0.95,3.95,2.25,4.85c0.934,0.634,2.684,1.134,5.25,1.5c0.4,0.066,1.4,0.283,3,0.65c1.467,0.267,2.467,0.25,3-0.05
		c0.4-0.233,0.917-0.867,1.55-1.9c0.7-1.134,1.183-1.833,1.45-2.1c0.467-0.467,1.367-1.317,2.7-2.551
		c1.167-1.033,2.05-1.899,2.65-2.6c1.7-1.967,2.917-3.566,3.65-4.8c1.3-2.167,1.8-4.017,1.5-5.55l-2-6
		c-1.533-0.101-3.05,0.267-4.55,1.1c2.233-2.467,3.4-3.75,3.5-3.85c1.5-1.101,3.017-1.017,4.55,0.25c1,0.8,2.317,2.6,3.95,5.399
		c0.4,0.767,0.683,1.65,0.85,2.65l-1.9,5c-0.034,0.066-0.3,0.717-0.8,1.95c-0.333,0.767-0.533,1.433-0.6,2
		c-0.1,0.699-0.05,1.666,0.15,2.899c0.233,1.434,0.35,2.4,0.35,2.9c0.034,2.3-1,4.649-3.1,7.05c-1.6,1.833-3.733,3.583-6.4,5.25
		c-0.033-0.033-0.083-0.05-0.15-0.05c-0.867-0.267-3.85-1.233-8.95-2.9c-3.7-0.566-6.483-1.033-8.35-1.399
		C35.033,131.95,34.083,131.7,33.25,131.4z M40.75,73.05l-1.05,1.8c-0.367,0.634-1.167,1.917-2.4,3.851c-1,1.8-1.433,3.217-1.3,4.25
		l0.05,0.149c-0.833,1.2-1.333,2.317-1.5,3.351c-0.5,2.5-0.45,4.566,0.15,6.2l-1.65-2.101c-0.5-0.666-1.017-1.6-1.55-2.8
		c-0.533-1.366-0.95-2.4-1.25-3.1l0.4-1.101c0.667-1.333,1.934-2.85,3.8-4.55c2.167-1.8,3.683-3.134,4.55-4L40.75,73.05z M36.3,75.3
		l-3.35,3.25c-0.867,0.834-2.184,2-3.95,3.5c-1.367,1.4-2.183,2.884-2.45,4.45c-0.267,1.6-0.267,3.467,0,5.6
		c0.2,2.733,0.3,4.217,0.3,4.45c0.033,1.667-0.1,3.084-0.4,4.25c-0.434,1.834-2.05,3.684-4.85,5.55
		c-3.033,2.034-4.883,3.733-5.55,5.101l0.65,0.5c-0.5,0.399-1.2,1.05-2.1,1.95c-0.133,0.133-0.567,0.433-1.3,0.899
		c-0.633,0.4-1.033,0.75-1.2,1.05c-0.167,0.301-0.217,0.851-0.15,1.65c0.1,1.033,0.15,1.583,0.15,1.65
		c-0.067,1.166-0.184,2.017-0.35,2.55c-0.167-0.066-0.333-0.15-0.5-0.25c-1.733-1.167-3.083-1.983-4.05-2.45
		c-0.3-0.167-0.684-0.517-1.15-1.05c-2-2.367-4.017-4.134-6.05-5.3c0.567-1.967,1.9-4.384,4-7.25
		c3.033,0.366,7.183-0.667,12.45-3.101c2.633-1.166,4.367-2.05,5.2-2.649c1.733-1.233,2.7-2.75,2.9-4.551
		c0.167-1.3,0.1-2.666-0.2-4.1c-0.333-1.667-0.934-2.884-1.8-3.65c-0.466-0.433-1.333-0.883-2.6-1.35
		c-1.667-0.6-2.633-0.967-2.9-1.1l-1.1-0.5c0.2-0.867,0.417-1.784,0.65-2.75c1.2-5.267,2.283-9.067,3.25-11.4l-0.45,1.2l0.5,0.8
		c0.567,0.733,1.833,1.7,3.8,2.9c2.066,1.233,3.5,1.833,4.3,1.8c0.567-0.033,0.917-0.117,1.05-0.25
		c0.167-0.267,0.367-0.517,0.6-0.75c0.934-0.867,2.533-3.033,4.8-6.5c1.5-2.4,2.867-4.417,4.1-6.05
		c1.667-2.066,2.917-3.617,3.75-4.65c1.467-1.833,2.55-3.467,3.25-4.9v0.55c-0.533,0.833-0.933,2.117-1.2,3.85
		c-0.333,2.4-0.55,3.783-0.65,4.15l-0.35,1c-0.4,1.267-0.934,2.467-1.6,3.6l-0.15,0.3c-0.233,0.4-1.283,1.717-3.15,3.95
		c-1.434,1.7-2.217,3.066-2.35,4.1L36.3,75.3z M18.55,120.3c0.3-0.033,0.717-0.017,1.25,0.05c1.067,0.134,2.1,0.467,3.1,1
		c0.733,0.4,1.45,0.934,2.15,1.601C22.983,121.15,20.817,120.267,18.55,120.3z M43.35,101.95c-1.2-0.101-2.3-0.316-3.3-0.65
		L39,100.9c-0.4-0.634-0.7-1.434-0.9-2.4c-0.267-1.167-0.883-2.434-1.85-3.8l0.4,0.25c1.167,0.6,2.5,0.95,4,1.05
		c1.434,0.1,2.767-0.05,4-0.45c2.733-0.833,5.117-2.833,7.15-6c2.034-3.7,3.7-6.35,5-7.95c0.133-0.6,0.367-1.466,0.7-2.6
		c0.333-1.167,0.567-2.033,0.7-2.6c0.2-0.767,0.316-1.65,0.35-2.65c0-0.1,0-1,0-2.7c0-3.9-0.167-6.983-0.5-9.25
		c-0.267-1.5-0.8-3.167-1.6-5c-1.034-2.066-1.8-3.65-2.3-4.75c-0.033-0.1-0.55-1.566-1.55-4.4c-0.767-2.167-1.434-3.617-2-4.35
		c0.033,0.5-0.05,1.35-0.25,2.55l-0.3-0.45l-2,4.5c-0.233,1.633-0.683,4.1-1.35,7.4c-0.067-0.966-0.15-1.683-0.25-2.15l-0.5,1.5
		l-0.2-3.2c0.733-1.6,1.183-3.167,1.35-4.7c0.4-3.5,0.35-6.417-0.15-8.75c-0.767-3.567-2.517-5.45-5.25-5.65
		c-1.133,4.267-2.034,7.35-2.7,9.25c1.667-6.267,3.1-11.184,4.3-14.75c0.034,0.467,0.083,0.95,0.15,1.45
		c0.033,0.7,0.117,1.434,0.25,2.2c0,0.1,0,0.2,0,0.3l3.1,0.15c1.133,0,2.333-0.1,3.6-0.3c0.833-0.1,1.867-0.25,3.1-0.45l2.15-0.35
		c0.77-0.123,1.395-0.207,1.875-0.25h0.125c0.333-0.067,0.6-0.1,0.8-0.1c2.733-0.133,4.917,0.683,6.55,2.45
		c0.067,0.066,0.133,0.133,0.2,0.2c0,0.033,0.017,0.083,0.05,0.15c0.733,1.633,1.7,3.733,2.9,6.3c0.1,0.566,0.05,1.7-0.15,3.4
		c-0.167,1.5-0.117,2.6,0.15,3.3c0.233,0.633,0.65,1.1,1.25,1.4c0.533,0.267,1.133,0.367,1.8,0.3l-0.35,0.4
		c-2.467,2.6-3.35,4.417-2.65,5.45c0.333,0.467,2.167,0.4,5.5-0.2c2.267-0.533,4.65-1.65,7.15-3.35c1.167-0.8,3.233-2.433,6.2-4.9
		l-3-1c-2.066,0.133-3.583,0.233-4.55,0.3c-1.7,0.133-3.1,0.383-4.2,0.75c0.9-0.767,1.633-1.284,2.2-1.55
		c2.5-1.2,6.033-2.083,10.6-2.65c0.633-0.067,1.617-0.217,2.95-0.45c1.133-0.066,1.95,0.233,2.45,0.9
		c0.533,0.633,0.733,1.466,0.6,2.5c-0.133,0.933-0.483,1.667-1.05,2.2c-0.566,0.567-1.55,1.117-2.95,1.65
		c-1.733,0.667-2.8,1.117-3.2,1.35c-1.1,0.633-2.3,1.583-3.6,2.85c-2.033,2-3.117,3.067-3.25,3.2c-0.6,0.533-2.017,1.417-4.25,2.65
		c-1.733,0.967-2.966,2.017-3.7,3.15c-1.033,1.567-1.667,3.383-1.9,5.45c-0.1,0.7-0.15,2.25-0.15,4.649c0.1-1.1,0.45-2.266,1.05-3.5
		c0.8-1.667,1.783-2.934,2.95-3.8c0.333-0.3,0.95-0.716,1.85-1.25c1.333-0.2,2.633-0.633,3.9-1.3c1.233,0.2,2.45,0.867,3.65,2
		l-0.4,1.9c0.067,1.8,0,3.3-0.2,4.5l-0.4,1.05c-0.667,1.833-1.883,3.333-3.65,4.5c-1.1,0.7-2.917,1.533-5.45,2.5
		c-1.533,0.566-2.783,1.283-3.75,2.149c-0.9,0.801-1.684,1.851-2.35,3.15l-0.2-0.35l-3.15,2.85c-2.1-0.134-3.383-0.083-3.85,0.15
		c-0.633,0.267-1.316,1.033-2.05,2.3c0-1.434,0.05-2.384,0.15-2.851c0.167-1.066,0.417-2.066,0.75-3
		c0.467-1.399,1.017-2.216,1.65-2.449L58,81.35l-0.45,0.75c-0.066,4.301-0.667,7.967-1.8,11c-1.867,3.034-3.567,5.301-5.1,6.801
		l-0.5,0.449H50.1C48.333,101.417,46.083,101.95,43.35,101.95z M99.9,59.3c-0.5,0.7-1.067,1.333-1.7,1.9
		c-1.066,0.966-2.4,1.783-4,2.45c-1.867,0.7-3.284,1.25-4.25,1.65c-0.434-0.267-0.767-0.483-1-0.65c-0.4-0.233-0.7-0.467-0.9-0.7
		c-0.466-0.534-0.767-1.083-0.9-1.65c-0.066-0.3-0.1-0.917-0.1-1.85c0-1.733,0.083-2.85,0.25-3.35l1.1-0.65
		c1.533-0.8,3.267-1.483,5.2-2.05c0.333-0.1,0.717-0.2,1.15-0.3c-0.064,0.183-0.123,0.366-0.175,0.55L94.5,54.9
		c-0.08,0.299-0.147,0.599-0.2,0.9l0.4,4c0.233,0.067,0.466,0.133,0.7,0.2l1.25,0.2C97.816,60.267,98.9,59.967,99.9,59.3z
		 M130.6,109.5c-0.399,0.566-0.8,1.533-1.199,2.9c-0.634,0.733-1.384,1.449-2.25,2.149c0.566-1.467,0.883-2.767,0.949-3.899
		c0.301-3.467,0.034-6.301-0.8-8.5c-0.233-0.667-0.934-1.784-2.1-3.351c-1-1.366-1.566-2.517-1.7-3.45
		c-0.5,0.934-0.917,2.017-1.25,3.25L122.1,92.9l0.45-0.5l-0.45,0.1l-0.05-1.1l-4.7,1.649L118.1,93l-3.55,0.4l-4.899,2.149
		c1.366-1.533,2.866-2.566,4.5-3.1c0.833-0.267,2.133-0.816,3.899-1.65c1.634-0.666,2.967-0.95,4-0.85c0.233,1.633,0.8,2.633,1.7,3
		c0.566,0.233,1.717,0.583,3.45,1.05c1,0.5,1.916,1.25,2.75,2.25c0.8,1,1.383,2.05,1.75,3.15c0.2,0.666,0.434,1.666,0.7,3
		c0.267,1.366,0.5,2.383,0.699,3.05c0.267,0.934,0.75,1.75,1.45,2.45l-1,0.199V107.9l-3,0.5
		C130.65,108.767,130.667,109.134,130.6,109.5z M45.9,63.6c0.267-0.867,0.483-1.833,0.65-2.9l-0.05,1.2
		C46.367,62.467,46.167,63.033,45.9,63.6z M57.55,82.1l1.5-2.699c-0.8,0.633-1.55,1.366-2.25,2.199
		c-0.167,0.834-0.25,1.601-0.25,2.301L57.55,82.1z M156.65,128.05c-0.134-1-0.184-1.75-0.15-2.25l0.05-0.899l0.05,1.1L156.65,128.05
		z"/>
	<path style="fill-rule:evenodd;clip-rule:evenodd;fill:#504A3F;" d="M114.65,73.35c-1.034,0.101-2.351,0.5-3.95,1.2
		c-2.334,1-3.934,1.316-4.8,0.95c0.199-1.167,0.449-2.083,0.75-2.75c0.333-0.733,0.883-1.55,1.649-2.45
		c1.667-2.033,2.684-3.233,3.05-3.6c1.467-1.534,2.684-2.45,3.65-2.75c0.634-0.2,1.55-0.267,2.75-0.2
		c0.667,0.033,1.583,0.083,2.75,0.15c1.366,0.033,2.283-0.033,2.75-0.2c0.267-0.1,1.017-0.534,2.25-1.3
		c1.267-0.6,2.116-1.017,2.55-1.25c0.7-0.4,1.2-1.05,1.5-1.95l0.2-0.8c0.267-1.167,0.35-2.767,0.25-4.8
		c-0.2-2.233-0.333-3.783-0.4-4.65c-0.133-1.434-0.433-2.45-0.899-3.05c-0.233-0.3-1.05-0.967-2.45-2
		c-0.7-0.5-1.517-1.417-2.45-2.75c0.021-0.04,0.045-0.073,0.075-0.1c0.025-0.017,0.051-0.033,0.075-0.05l0.2-0.1
		c0-0.033,0.017-0.05,0.05-0.05c0.033-0.033,0.066-0.067,0.1-0.1c1.334-0.967,2.384-1.55,3.15-1.75c0.833-0.2,2.05-0.267,3.649-0.2
		c1.801,0.1,3.017,0.1,3.65,0v-0.2c0.033-1.033,0.5-2.867,1.4-5.5c0.033,0.2,0.066,0.417,0.1,0.65l0.15,1.1
		c0.433,2.833,0.949,7.183,1.55,13.05c0.467,2.133,0.95,5.05,1.45,8.75c0.533,3.2,1.449,5.95,2.75,8.25
		c0.133,0.267,0.283,0.517,0.449,0.75l0.4,0.6c-5.033-1.267-9.1-1.85-12.2-1.75c-3.7,0.1-7.066,1.183-10.1,3.25
		C118.866,68.983,116.85,70.85,114.65,73.35z M91,136.15c-3.733-1-7.083-1.25-10.05-0.75c-0.233-0.7-0.367-1.367-0.4-2
		c-0.4-3.134,0.1-6.534,1.5-10.2c1.3-3.334,2.034-6.967,2.2-10.9c0.033-0.767-0.033-4.467-0.2-11.1c-0.033-2.033-0.033-3.217,0-3.55
		c0.133-1.2,0.583-2.233,1.35-3.101c0.934-1.066,2.217-2.05,3.85-2.95c1.933-0.933,3.383-1.666,4.35-2.199
		c1.867-1.067,4.05-2.601,6.55-4.601c1.3-1.133,2.399-2.033,3.3-2.7c1.633-1.233,2.833-1.783,3.6-1.649l-3.6,8.85l-0.9,2.101
		c-0.366,0.8-0.717,1.566-1.05,2.3c-2.7,2.6-4.667,4.95-5.9,7.05c-0.167,0.267-0.317,0.583-0.45,0.95c-0.167,0.1-0.333,0.2-0.5,0.3
		c-0.467,0.434-0.967,1.434-1.5,3c-2.4,2.8-3.6,6.267-3.6,10.4v12.05C89.583,129.717,90.067,132.616,91,136.15z M173.9,126.05
		l-0.551,0.9c-0.133,0.2-0.267,0.383-0.399,0.55c0-0.267,0.05-1.9,0.149-4.9c0-3.933-0.183-6.899-0.55-8.899
		c-0.533-3-1.649-5.684-3.35-8.05c-0.634-0.9-1.667-1.884-3.101-2.95c-1.933-1.5-3.066-2.4-3.399-2.7
		c-1.3-1.233-4.117-3.35-8.45-6.35c-1.1-0.733-2.083-1.467-2.95-2.2h0.05c4.134-0.367,8.967,1.95,14.5,6.95
		c1.5,1.366,3.65,3.433,6.45,6.199c2.434,2.301,4.417,3.9,5.95,4.801c-0.3-1.767-1.316-3.851-3.05-6.25V103.1
		c-0.134-0.133-0.334-0.383-0.601-0.75c-0.1-0.133-0.199-0.283-0.3-0.449c-0.5-0.601-1.149-1.417-1.95-2.45
		c0.301,0.333,0.634,0.684,1,1.05c2.434,2.434,4.15,4.616,5.15,6.55c0.3,0.601,0.8,1.983,1.5,4.15c0.8,1.833,1.8,2.566,3,2.2
		c0.033-0.834,0.3-1.95,0.8-3.351c0.533-1.366,0.8-2.416,0.8-3.149c0-1.5-0.133-3.034-0.399-4.601c-0.334-1.934-0.8-3.333-1.4-4.2
		c-1.066-1.533-3.116-3.55-6.149-6.05c-2.967-2.434-5-4.517-6.101-6.25c-0.434-0.633-0.75-1.283-0.95-1.95c0.5-0.233,1-0.5,1.5-0.8
		c1.134-0.733,1.9-1.616,2.301-2.649c1.3,0.966,2.483,1.916,3.55,2.85l3.399,3.7c3.167,4.133,5.45,7.166,6.851,9.1
		c3.2,4.533,5.45,8.217,6.75,11.05c-0.101,0.167-0.351,0.601-0.75,1.301c-0.267,0.533-0.533,0.949-0.8,1.25
		c-0.7,0.866-1.9,1.716-3.601,2.55c-0.967,0.467-2.333,1.116-4.1,1.95c-3.3,1.767-5.884,3.916-7.75,6.449
		c-0.4,0.567-1.033,1.684-1.9,3.351C174.616,124.75,174.233,125.45,173.9,126.05z M153.6,138.4c0.233-0.567,0.717-1.417,1.45-2.551
		c1.134-1.8,1.667-4.399,1.601-7.8c0.233,1.467,0.767,3.667,1.6,6.601c-0.667,0.699-1.283,1.5-1.85,2.399
		c-0.267,0.467-0.45,0.934-0.551,1.4C155.15,138.45,154.4,138.434,153.6,138.4z M106.65,37.3c-0.567,0.067-1.117,0.117-1.65,0.15
		c-3.8,0.333-7.017,0.45-9.65,0.35c-5-0.133-7.434-1.1-7.3-2.9l1.9-0.5c3.333-0.2,6.717-0.25,10.149-0.15h0.051
		c0.716,0.034,1.416,0.067,2.1,0.1l2.05,0.2c0.667,0.067,1.316,0.133,1.95,0.2C106.55,35.617,106.684,36.467,106.65,37.3z M58,89.2
		c0.067,0.833,0.05,1.583-0.05,2.25c-0.367,3.1-1.15,5.633-2.35,7.6c-1.267,1.967-3.633,3.167-7.1,3.601
		c-3.1,0.433-5.883,0.183-8.35-0.75c1.467,0.066,2.533,0.083,3.2,0.05c2.733,0,4.983-0.533,6.75-1.601h0.05
		c2.467-1.533,4.333-3.949,5.6-7.25c1.133-3.033,1.733-6.699,1.8-11L58,81.35l2.55-0.449c-0.633,0.233-1.183,1.05-1.65,2.449
		c-0.333,0.934-0.583,1.934-0.75,3C58.05,86.816,58,87.767,58,89.2z M112.25,139.55c-1.167-6.133-0.333-11.583,2.5-16.35
		c0.533,1.733,0.8,4.149,0.8,7.25c0,4.733,0,7.233,0,7.5C114.45,138.316,113.35,138.85,112.25,139.55z"/>
	<path style="fill-rule:evenodd;clip-rule:evenodd;fill:#635B4F;" d="M39,100.9l1.05,0.399c1,0.334,2.1,0.55,3.3,0.65
		c-0.667,0.033-1.733,0.017-3.2-0.05c2.467,0.933,5.25,1.183,8.35,0.75c3.467-0.434,5.833-1.634,7.1-3.601
		c1.2-1.967,1.983-4.5,2.35-7.6c0.1-0.667,0.117-1.417,0.05-2.25c0.733-1.267,1.417-2.033,2.05-2.3
		c0.467-0.233,1.75-0.284,3.85-0.15l5.05,0.5c3.9,0.434,6.566,0.667,8,0.7c2.2-0.967,3.5-1.617,3.9-1.95c1-0.9,1.383-2.233,1.15-4
		c-1.433-0.2-3.567-0.233-6.4-0.1c-2.934,0.1-5.067,0.083-6.4-0.051c0.8-0.399,2.216-0.866,4.25-1.399c1.8-0.467,3.167-1,4.1-1.601
		c1.733-1.166,3.017-2.383,3.85-3.649c0.767-1.167,1.25-2.601,1.45-4.3c0.2-1.2,0.267-2.7,0.2-4.5l0.4-1.9l0.1-0.6
		c2.367,2.333,3.9,4.783,4.6,7.35c0.267,1.066,0.4,2.083,0.4,3.05c0.034,0.7,0,1.767-0.1,3.2c0.066,1.233,0.417,2.167,1.05,2.8
		c0.333,0.334,1.217,0.684,2.65,1.05c1.7,0.4,2.75,0.7,3.15,0.9c0.333-0.267,1.033-0.733,2.101-1.4
		c0.866-0.566,1.5-1.05,1.899-1.449c0.733-0.7,1.134-1.7,1.2-3c-0.033-1.467-0.017-2.567,0.05-3.301c0.334-1.6,0.5-2.917,0.5-3.95
		c0-1.9,0.066-3.083,0.2-3.55c0.233-0.934,0.917-1.833,2.05-2.7c1.5-1.033,2.634-1.816,3.4-2.35c1.333-0.933,2.399-1.783,3.2-2.55
		c1.133-1.1,1.966-1.933,2.5-2.5c1-0.967,1.933-1.683,2.8-2.15c3.767-2.033,7.416-2.217,10.95-0.55
		c0.199-0.767,0.333-1.333,0.399-1.7c0.134-0.667,0.15-1.25,0.05-1.75c-0.166-0.967-0.783-1.817-1.85-2.55
		c-0.833-0.566-1.85-1-3.05-1.3c-3.767-0.033-6.65-0.167-8.65-0.4c-1.5-0.167-2.616-0.517-3.35-1.05
		c0.066-0.066,0.116-0.117,0.149-0.15c0.934-0.767,1.75-1.267,2.45-1.5c0.367-0.133,1.316-0.367,2.851-0.7
		c0.833-0.167,1.883-0.1,3.149,0.2c1.4,0.3,2.483,0.4,3.25,0.3h0.05c0.034,0,0.067,0,0.101,0c0-0.034,0.017-0.034,0.05,0h0.05
		c0.033-0.034,0.084-0.05,0.15-0.05L122,42.1c0.033,0,0.066,0,0.1,0c0.034-0.033,0.067-0.05,0.101-0.05
		c0.066-0.033,0.166-0.083,0.3-0.15c0.033,0,0.066-0.017,0.1-0.05c0.034-0.033,0.084-0.05,0.15-0.05l0.7-0.45
		c0.1-0.067,0.217-0.133,0.35-0.2c0.934,1.333,1.75,2.25,2.45,2.75c1.4,1.033,2.217,1.7,2.45,2c0.467,0.6,0.767,1.617,0.899,3.05
		c0.067,0.867,0.2,2.417,0.4,4.65c0.1,2.033,0.017,3.633-0.25,4.8l-0.2,0.8c-0.3,0.9-0.8,1.55-1.5,1.95
		c-0.434,0.233-1.283,0.65-2.55,1.25c-1.233,0.767-1.983,1.2-2.25,1.3c-0.467,0.167-1.384,0.233-2.75,0.2
		c-1.167-0.066-2.083-0.117-2.75-0.15c-1.2-0.067-2.116,0-2.75,0.2c-0.967,0.3-2.184,1.216-3.65,2.75
		c-0.366,0.367-1.383,1.566-3.05,3.6c-0.767,0.9-1.316,1.717-1.649,2.45c-0.301,0.667-0.551,1.583-0.75,2.75
		c0.866,0.366,2.466,0.05,4.8-0.95c1.6-0.7,2.916-1.1,3.95-1.2c-0.601,0.634-1.2,1.317-1.801,2.051
		c-1.399,1.666-2.866,4.517-4.399,8.55c-0.2,0.566-0.417,1.1-0.65,1.6c-1.6,1.167-3.05,2.417-4.35,3.75l3.6-8.85
		c-0.767-0.134-1.967,0.416-3.6,1.649c-0.9,0.667-2,1.567-3.3,2.7c-2.5,2-4.684,3.533-6.55,4.601
		c-0.967,0.533-2.417,1.267-4.35,2.199c-1.633,0.9-2.917,1.884-3.85,2.95c-0.767,0.867-1.217,1.9-1.35,3.101
		c-0.033,0.333-0.033,1.517,0,3.55c0.167,6.633,0.233,10.333,0.2,11.1c-0.167,3.934-0.9,7.566-2.2,10.9
		c-1.4,3.666-1.9,7.066-1.5,10.2c0.034,0.633,0.167,1.3,0.4,2l-0.2,0.05c-1.367,0.233-3.083,0.684-5.15,1.35
		c-2.5,0.767-4.15,1.25-4.95,1.45c-0.5-1.833-0.717-3.517-0.65-5.05c0.033-1.101,0.3-2.367,0.8-3.8c0.5-1.334,1.067-2.5,1.7-3.5
		c0.533-0.801,1.317-1.717,2.35-2.75c1.367-1.434,2.183-2.317,2.45-2.65c0.8-1.066,1.35-1.934,1.65-2.6
		c1.7-3.733,2.083-7.467,1.15-11.2c-0.934-3.667-2.667-6.867-5.2-9.601c-0.2-0.233-0.5-0.517-0.9-0.85
		c-0.7-0.5-1.567-0.783-2.6-0.85c-1.3,0-2.35,0-3.15,0c-3.033,0-4.917,0.083-5.65,0.25c-1.8,0.366-3.317,1.399-4.55,3.1
		c-1.233,1.733-2.216,2.983-2.95,3.75c-1.267,1.233-2.617,2.083-4.05,2.55c-1.333,0.434-3.117,0.667-5.35,0.7
		c-1.833,0-3.617-0.134-5.35-0.4c-2.4-0.366-4.2-1.416-5.4-3.149c-1.133-1.7-1.567-3.717-1.3-6.05c0.733,1.3,1.483,2.3,2.25,3
		C36.667,99.816,37.7,100.4,39,100.9z M130.3,86.1c0.7,0.9,1.65,2.284,2.851,4.15c0.233,0.366,0.483,0.717,0.75,1.05
		c0.3,0.434,0.566,0.783,0.8,1.05c0.566,0.667,1.184,1.2,1.85,1.601l0.65,0.399c0.233,0.134,0.467,0.233,0.7,0.301
		c2.1,0.733,4.5,0.483,7.199-0.75c0.067-0.034,0.117-0.051,0.15-0.051c0.066-0.033,0.116-0.066,0.15-0.1
		c0.133-0.066,0.283-0.116,0.449-0.15c0.301-0.166,0.601-0.3,0.9-0.399c0.033-0.033,0.083-0.066,0.15-0.101
		c2.233-1,3.683-1.55,4.35-1.649h0.05c0.867,0.733,1.851,1.467,2.95,2.2c4.333,3,7.15,5.116,8.45,6.35
		c0.333,0.3,1.467,1.2,3.399,2.7c1.434,1.066,2.467,2.05,3.101,2.95c1.7,2.366,2.816,5.05,3.35,8.05c0.367,2,0.55,4.967,0.55,8.899
		c-0.1,3-0.149,4.634-0.149,4.9c-0.101,0.1-0.184,0.217-0.25,0.35c-0.5,0.534-0.9,0.917-1.2,1.15c0.066-4.366-0.384-7.85-1.35-10.45
		c-0.367-1.066-0.75-1.783-1.15-2.149c-0.333-0.334-1.017-0.65-2.05-0.95c-1.367-0.467-2.167-0.816-2.4-1.05
		c-0.434-0.4-0.383-1.15,0.15-2.25c0.533-0.9,0.883-1.551,1.05-1.95c0.3-0.667,0.4-1.417,0.3-2.25
		c-0.1-1.334-0.383-2.283-0.85-2.851c-0.367-0.466-1.217-1.033-2.55-1.699L154.1,99c-0.633-0.366-1.05-0.6-1.25-0.7
		c-0.267-0.133-0.699-0.267-1.3-0.399c-0.633-0.134-1.434-0.117-2.399,0.05c-1.067,0.2-1.851,0.316-2.351,0.35l-3.75,0.4
		c-1.533,0.133-2.7,0.2-3.5,0.2c-2.7,0.1-5.45-1.4-8.25-4.5c-2.6-2.834-4.184-5.667-4.75-8.5l2.05-1.351
		c0.167,0.101,0.334,0.233,0.5,0.4c0.067,0.033,0.134,0.083,0.2,0.149c0.134,0.101,0.283,0.233,0.45,0.4L130.3,86.1z M169.6,83.85
		c0.2,0.667,0.517,1.317,0.95,1.95c1.101,1.733,3.134,3.816,6.101,6.25c3.033,2.5,5.083,4.517,6.149,6.05
		c0.601,0.867,1.066,2.267,1.4,4.2c0.267,1.566,0.399,3.101,0.399,4.601c0,0.733-0.267,1.783-0.8,3.149
		c-0.5,1.4-0.767,2.517-0.8,3.351c-1.2,0.366-2.2-0.367-3-2.2c-0.7-2.167-1.2-3.55-1.5-4.15c-1-1.934-2.717-4.116-5.15-6.55
		c-0.366-0.366-0.699-0.717-1-1.05c-0.633-0.767-1.333-1.634-2.1-2.601c-0.033-0.033-0.066-0.066-0.1-0.1
		c-4.301-5.333-5.95-9.5-4.95-12.5C166.767,84.483,168.233,84.35,169.6,83.85z M158.25,134.65c-0.833-2.934-1.366-5.134-1.6-6.601
		L156.6,126c0.301,0.467,0.917,1.283,1.851,2.45c0.833,1,1.399,1.8,1.7,2.399c0.199,0.367,0.433,0.917,0.699,1.65
		c-0.8,0.5-1.55,1.1-2.25,1.8C158.467,134.434,158.35,134.55,158.25,134.65z M156.65,128.05c0.066,3.4-0.467,6-1.601,7.8
		c-0.733,1.134-1.217,1.983-1.45,2.551L151.2,138.3c1.866-2.633,2.816-5.3,2.85-8c0.066-1,0.117-1.75,0.15-2.25
		c0-0.934-0.066-1.666-0.2-2.2c-0.134-0.466-0.467-1.116-1-1.949c-0.533-0.801-0.85-1.467-0.95-2c-0.3-1.367-0.434-3.75-0.399-7.15
		c0.066-3.033-0.217-5.417-0.851-7.15c1.533,0.434,2.733,1.584,3.601,3.45c0.733,1.533,1.116,3.184,1.149,4.95
		c0,0.033-0.066,1.4-0.2,4.1c-0.066,1.7,0.034,3.017,0.301,3.95c0.199,0.566,0.483,1.15,0.85,1.75
		C156.467,126.3,156.517,127.05,156.65,128.05z M111.7,139.95l-0.5,0.399c-0.367,0.267-0.717,0.567-1.05,0.9l-0.051,0.05
		c-0.1,0.101-0.183,0.2-0.25,0.3c-0.1,0.067-0.183,0.134-0.25,0.2c-0.267-0.033-0.566-0.083-0.899-0.149
		c0.467-2.233,0.75-4.267,0.85-6.101c0.167-2.7,0.3-4.666,0.4-5.899c0.2-2.134,0.616-4.017,1.25-5.65l0.45-1.1
		c0.366-0.767,0.866-1.351,1.5-1.75c0.8-0.434,1.449-0.834,1.949-1.2c0.667-0.5,1.134-1.033,1.4-1.601
		c0.1-0.233,0.283-0.883,0.55-1.949c0.134-0.534,0.233-1.25,0.3-2.15c0.067-1,0.15-1.733,0.25-2.2l0.051-0.149
		c0.366-0.267,0.733-0.617,1.1-1.051c0.6-0.699,1.15-1.566,1.65-2.6l-0.351,7.2c0,0.333,0.017,0.983,0.05,1.95
		c0.034,0.8,0.017,1.433-0.05,1.899c-0.066,0.9-0.416,1.867-1.05,2.9c-0.733,1.3-1.184,2.2-1.35,2.7
		c-0.9,2.966-0.267,6.949,1.899,11.949c-1.5,0.267-2.833,0.634-4,1.101c0-0.267,0-2.767,0-7.5c0-3.101-0.267-5.517-0.8-7.25
		c-2.833,4.767-3.667,10.217-2.5,16.35C112.05,139.684,111.866,139.816,111.7,139.95z M79.8,62.5c-1.267,0.667-2.566,1.1-3.9,1.3
		c-0.566,0.1-1.267,0.117-2.1,0.05c1.4-0.733,3.067-2.333,5-4.8c1.833-2.4,3.6-3.966,5.3-4.7c0.566-0.233,1.583-0.617,3.05-1.15
		c1.267-0.434,2.283-0.85,3.05-1.25c0.3-0.167,0.85-0.534,1.65-1.1c0.7-0.467,1.283-0.783,1.75-0.95c1.167-0.233,1.833-0.4,2-0.5
		c0.766-0.6,1.3-2.117,1.6-4.55c0.3-2.3,0.25-3.967-0.15-5c-0.333-0.934-0.95-1.45-1.85-1.55c-1.233,0.067-2.267,0.1-3.1,0.1
		c-6.167,0-9.367-0.017-9.6-0.05c-2.167-0.233-3.567-0.717-4.2-1.45c0.333-0.1,0.7-0.2,1.1-0.3c4.967-1.3,7.983-2,9.05-2.1h0.4
		c0.333-0.033,0.7-0.067,1.1-0.1l-1.9,0.5c-0.133,1.8,2.3,2.767,7.3,2.9c2.633,0.1,5.85-0.017,9.65-0.35
		c0.533-0.034,1.083-0.083,1.65-0.15l-0.101,1.05c-0.066,0.333-0.166,0.683-0.3,1.05c-0.2,0.633-0.5,1.267-0.9,1.9
		c-0.066,0.133-0.149,0.284-0.25,0.45l-0.899,1.2c-0.101,0.1-0.2,0.2-0.3,0.3c-0.148,0.176-0.315,0.359-0.5,0.55
		c-0.823,0.873-1.84,1.889-3.051,3.05c-2.466,2.4-4.116,4.333-4.95,5.8c-0.267,0.467-0.483,0.95-0.65,1.45
		c-0.433,0.1-0.817,0.2-1.15,0.3c-1.934,0.567-3.667,1.25-5.2,2.05l-1.1,0.65c-0.867,0.533-2.133,1.467-3.8,2.8
		C81.933,61.133,80.7,62,79.8,62.5z M45.75,53.45l0.2,3.2c0.2,3.2,0.083,5.733-0.35,7.6l-2.45,4.65c-0.566,0.6-1.267,1.267-2.1,2
		c-0.466,0.466-1.2,1.284-2.2,2.45c-0.934,1.034-1.783,1.684-2.55,1.95l-0.2,0.05c0.133-1.033,0.917-2.399,2.35-4.1
		c1.867-2.233,2.917-3.55,3.15-3.95l0.15-0.3c0.667-1.133,1.2-2.333,1.6-3.6l0.35-1c0.1-0.367,0.316-1.75,0.65-4.15
		c0.267-1.733,0.667-3.017,1.2-3.85v-0.55L45.75,53.45z M22.9,121.35c-1-0.533-2.033-0.866-3.1-1L19.55,118
		c-0.167-1.366-0.05-2.6,0.35-3.7c0.033-0.1,0.434-0.684,1.2-1.75c0.467-0.666,0.6-1.366,0.4-2.1c-0.967,0.533-1.717,0.934-2.25,1.2
		c-1,0.533-1.85,0.633-2.55,0.3l-0.65-0.5c0.667-1.367,2.517-3.066,5.55-5.101c2.8-1.866,4.417-3.716,4.85-5.55
		c0.3-1.166,0.433-2.583,0.4-4.25c0-0.233-0.1-1.717-0.3-4.45c-0.2-2.566-0.167-4.533,0.1-5.899c0.267,0.833,0.567,2.149,0.9,3.95
		c0.333,2.133,0.633,3.716,0.9,4.75c0.4,1.733,0.6,3.633,0.6,5.699c0,1.067-0.05,2.017-0.15,2.851
		c-0.167,1.399-0.517,2.684-1.05,3.85c-0.467,1.033-1.267,2.367-2.4,4c-0.667,0.967-1.034,2.05-1.1,3.25
		c-0.1,1.867-0.217,3.033-0.35,3.5C23.8,118.816,23.433,119.917,22.9,121.35z M50.15,100.35l0.5-0.449
		c1.533-1.5,3.233-3.767,5.1-6.801C54.483,96.4,52.617,98.816,50.15,100.35z M91.7,109.05c-0.3,0.8-0.534,1.533-0.7,2.2
		c-0.367,1.434-0.517,2.9-0.45,4.4l0.3-0.15c-0.5,5.233,0.25,12.316,2.25,21.25l-2.1-0.6c-0.933-3.534-1.417-6.434-1.45-8.7V115.4
		c0-4.134,1.2-7.601,3.6-10.4l-0.7,2C92.15,107.733,91.9,108.417,91.7,109.05z"/>
	<path style="fill-rule:evenodd;clip-rule:evenodd;fill:#CED1D6;" d="M132.35,88.95c-0.8-1.2-1.483-2.15-2.05-2.851l-0.55-0.6
		c-0.167-0.167-0.316-0.3-0.45-0.4c-0.066-0.066-0.133-0.116-0.2-0.149c-0.166-0.167-0.333-0.3-0.5-0.4l-7.55-2
		c-0.833,0.134-1.666,0.417-2.5,0.851c-0.166,0.1-0.333,0.199-0.5,0.3c-1.934,1.2-4.616,3.684-8.05,7.45l0.05-0.25
		c1.834-4.434,4.033-7.801,6.601-10.101c2.933-2.666,6.6-4.184,11-4.55c2.466-0.233,4.6-0.217,6.399,0.05
		c2.134,0.3,4.134,0.95,6,1.95c0.434,0.233,1.75,1.1,3.95,2.6c1.533,1.034,2.884,1.717,4.05,2.051
		c1.033,0.267,1.816,0.399,2.351,0.399c0.5,0,1.283-0.133,2.35-0.399c1.2-0.301,1.934-0.567,2.2-0.801c0.166-0.133,0.583-0.8,1.25-2
		c0.767-1.533,1.383-2.683,1.85-3.449c0.834-1.334,1.667-2.317,2.5-2.95c0.733-0.601,1.733-1.117,3-1.55
		c0.566,1.166,1.667,2.35,3.3,3.55c-1.699,0.3-3,0.866-3.899,1.7c-0.533,0.5-1.066,1.699-1.601,3.6
		c-0.466,1.667-1.149,2.717-2.05,3.15c-0.934,0.433-2.55,0.649-4.85,0.649c-2.367,0-4.05,0.2-5.05,0.601
		c-0.634,0.267-1.801,0.983-3.5,2.149c-1.233,0.834-2.483,1.3-3.75,1.4C139.983,89.083,136.717,89.083,132.35,88.95z M50.4,32.65
		c-1.267,0.2-2.467,0.3-3.6,0.3l-3.1-0.15c0-0.1,0-0.2,0-0.3c-0.133-0.767-0.217-1.5-0.25-2.2c-0.067-0.5-0.117-0.983-0.15-1.45
		c-0.167-1.833-0.233-3.367-0.2-4.6c0.433-0.067,1.45-0.183,3.05-0.35c1.267-0.1,2.117-0.25,2.55-0.45
		c0.566-0.267,1.767-1.034,3.6-2.3c1.3-0.9,2.6-1.433,3.9-1.6c2.833-0.3,6.167,0.667,10,2.9c4.133,2.466,7.45,3.733,9.95,3.8
		c2.333,0.067,4.883-0.867,7.65-2.8c3-2.434,5.284-4.133,6.85-5.1c1-0.6,2.434-1.333,4.3-2.2c2.166-0.967,3.649-1.667,4.45-2.1
		c1.1-0.566,2.383-0.9,3.85-1l4.1-0.25c-0.033-1.033-0.05-1.816-0.05-2.35c0.033-0.9,0.267-1.583,0.7-2.05l0.6-0.45
		c0.267,0.2,0.567,0.4,0.9,0.6l1.15,0.75c0.066,0.034,0.133,0.067,0.199,0.1c0.067,0.033,0.134,0.083,0.2,0.15
		c0.134,0.067,0.267,0.133,0.4,0.2c0.467,0.267,0.967,0.55,1.5,0.85c2.2,1.233,3.649,2.083,4.35,2.55c0.5,0.333,1.4,1,2.7,2
		l0.825,0.65c0.041,0.034,0.083,0.067,0.125,0.1c0.833,0.667,1.533,1.217,2.1,1.65l1.601,1.2l-0.551,0.7
		c-1.6,1.833-4.616,3.433-9.05,4.8c-4.967,1.533-8.184,2.85-9.649,3.95c-0.534,0.367-1.2,1.05-2,2.05c-0.801,0.967-1.467,1.633-2,2
		l-0.551,0.35l-0.1-0.35c-0.267-0.933-1.017-1.433-2.25-1.5c-1.467,0.1-2.517,0.15-3.15,0.15l-2,0.05
		c1.633-1.7,5.266-3.567,10.9-5.6c5.1-1.867,8.5-4.167,10.2-6.9c-0.867-0.333-2.134-0.25-3.8,0.25
		c-1.834,0.667-3.117,1.117-3.851,1.35c-1.434,0.467-3.366,0.883-5.8,1.25c-2.733,0.434-4.634,0.784-5.7,1.05
		c-0.933,0.267-2.133,0.9-3.6,1.9c-2.1,1.467-3.25,2.25-3.45,2.35c-0.867,0.5-2.033,1.383-3.5,2.65
		c-1.5,1.267-2.617,2.117-3.35,2.55c-1.5,0.867-4.85,1.034-10.05,0.5c-1.867-0.2-3.934-0.9-6.2-2.1
		c-2.533-1.467-4.417-2.534-5.65-3.2c-0.967-0.5-2.183-0.833-3.65-1c-1.6-0.167-2.867-0.05-3.8,0.35c-1.167,0.5-1.833,1.367-2,2.6
		C49.983,29.65,50.1,30.883,50.4,32.65z M133.35,28.25c-1.433,0.633-2.583,1.083-3.449,1.35c-1.5,0.5-2.434,0.833-2.801,1
		c-0.5,0.267-1.233,0.816-2.199,1.65c-1.467,1.333-3.884,2.033-7.25,2.1c-3.634,0.1-6.2,0.6-7.7,1.5
		c-0.101,0.066-0.184,0.133-0.25,0.2c-0.066,0-0.117,0.034-0.15,0.1l-2.5,2.25l-0.3,0.35c-0.154,0.192-0.304,0.392-0.45,0.6v0.05
		h-0.05c0.134-0.367,0.233-0.717,0.3-1.05l0.101-1.05c0.033-0.833-0.101-1.683-0.4-2.55c-0.634-0.067-1.283-0.133-1.95-0.2
		l-2.05-0.2c-0.684-0.033-1.384-0.066-2.1-0.1c0.5-0.3,0.75-0.717,0.75-1.25l3.899-1.4c0.8,0.967,1.167,1.917,1.101,2.85l0.149-0.25
		c0.934-1,1.95-1.55,3.05-1.65c2.301-0.167,3.5-0.267,3.601-0.3c1.267-0.3,2.649-1.05,4.149-2.25c1.667-1.5,2.934-2.6,3.801-3.3
		c3.1-2.467,6.183-2.867,9.25-1.2c0.699,0.567,1.35,1.217,1.949,1.95C132.25,27.783,132.75,28.05,133.35,28.25z M94.5,54.9
		l0.075-0.25c0.546-1.768,1.838-3.718,3.875-5.85c2.21-2.095,3.859-3.762,4.95-5c0.185-0.19,0.352-0.374,0.5-0.55
		c-0.013,0.022-0.021,0.047-0.025,0.075c-1.317,2.451-2.009,3.726-2.075,3.825c-0.8,1.434-1.583,2.633-2.35,3.6
		c-1.267,1.533-2.017,2.433-2.25,2.7C96.333,54.25,95.433,54.733,94.5,54.9z"/>
	<path style="fill-rule:evenodd;clip-rule:evenodd;fill:#706759;" d="M101.5,93.7c0.333-0.733,0.684-1.5,1.05-2.3l0.9-2.101
		c1.3-1.333,2.75-2.583,4.35-3.75c-1.233,2.767-2.666,4.867-4.3,6.3C102.8,92.483,102.134,93.1,101.5,93.7z M99.75,99.75
		c4.033-2.8,6.767-4.934,8.2-6.4c0.767-0.833,1.45-1.566,2.05-2.199c3.434-3.767,6.116-6.25,8.05-7.45c1-0.566,2-0.95,3-1.15l7.55,2
		l-2.05,1.351c0.566,2.833,2.15,5.666,4.75,8.5c2.8,3.1,5.55,4.6,8.25,4.5c0.8,0,1.967-0.067,3.5-0.2l3.75-0.4
		c0.5-0.033,1.283-0.149,2.351-0.35c0.966-0.167,1.767-0.184,2.399-0.05c0.601,0.133,1.033,0.267,1.3,0.399
		c0.2,0.101,0.617,0.334,1.25,0.7l8.551,4.4c1.333,0.666,2.183,1.233,2.55,1.699c0.467,0.567,0.75,1.517,0.85,2.851
		c0.101,0.833,0,1.583-0.3,2.25c-0.167,0.399-0.517,1.05-1.05,1.95c-0.533,1.1-0.584,1.85-0.15,2.25
		c0.233,0.233,1.033,0.583,2.4,1.05c1.033,0.3,1.717,0.616,2.05,0.95c0.4,0.366,0.783,1.083,1.15,2.149
		c0.966,2.601,1.416,6.084,1.35,10.45l-0.4,0.3c-0.866,0.533-2.216,0.967-4.05,1.3c-2.2,0.4-3.616,0.717-4.25,0.95
		c-0.666,0.267-1.316,0.584-1.95,0.95c-0.267-0.733-0.5-1.283-0.699-1.65c-0.301-0.6-0.867-1.399-1.7-2.399
		c-0.934-1.167-1.55-1.983-1.851-2.45l-0.05-1.1l-0.05,0.899c-0.366-0.6-0.65-1.184-0.85-1.75c-0.267-0.934-0.367-2.25-0.301-3.95
		c0.134-2.699,0.2-4.066,0.2-4.1c-0.033-1.767-0.416-3.417-1.149-4.95c-0.867-1.866-2.067-3.017-3.601-3.45
		c0.634,1.733,0.917,4.117,0.851,7.15c-0.034,3.4,0.1,5.783,0.399,7.15c0.101,0.533,0.417,1.199,0.95,2
		c0.533,0.833,0.866,1.483,1,1.949c0.134,0.534,0.2,1.267,0.2,2.2c-0.033,0.5-0.084,1.25-0.15,2.25c-0.033,2.7-0.983,5.367-2.85,8
		c-3.334-0.333-6.134-0.583-8.4-0.75l-3.399-0.35l0.199-0.101c1.534-0.633,2.4-1.566,2.601-2.8c0-0.033-0.084-1.533-0.25-4.5
		c-0.3-5.5-0.717-9.899-1.25-13.2c-0.233-1.366-0.667-3.116-1.3-5.25c-1.767-0.899-3.117-1.767-4.051-2.6
		c-0.166-0.366-0.433-0.65-0.8-0.85c-0.7-0.7-1.184-1.517-1.45-2.45c-0.199-0.667-0.433-1.684-0.699-3.05
		c-0.267-1.334-0.5-2.334-0.7-3c-0.367-1.101-0.95-2.15-1.75-3.15c-0.834-1-1.75-1.75-2.75-2.25c-1.733-0.467-2.884-0.816-3.45-1.05
		c-0.9-0.367-1.467-1.367-1.7-3c-1.033-0.101-2.366,0.184-4,0.85c-1.767,0.834-3.066,1.384-3.899,1.65
		c-1.634,0.533-3.134,1.566-4.5,3.1c-4.634,2.033-7.834,3.4-9.601,4.101L99.75,99.75z M111.2,124c0.267-1.333,0.666-2.566,1.2-3.7
		c0.366-0.7,1.033-1.7,2-3c0.966-1.267,1.633-2.267,2-3l1.1-2.3l0.15-0.1l-0.051,0.149c-0.1,0.467-0.183,1.2-0.25,2.2
		c-0.066,0.9-0.166,1.616-0.3,2.15c-0.267,1.066-0.45,1.716-0.55,1.949c-0.267,0.567-0.733,1.101-1.4,1.601
		c-0.5,0.366-1.149,0.767-1.949,1.2c-0.634,0.399-1.134,0.983-1.5,1.75L111.2,124z M70.65,138.25c-0.133,0.033-0.267,0.066-0.4,0.1
		l-0.35,0.101c-2.733,0.533-5.2,0.616-7.4,0.25c-2.567-0.467-5.55-1.2-8.95-2.2c2.667-1.667,4.8-3.417,6.4-5.25
		c2.1-2.4,3.133-4.75,3.1-7.05c0-0.5-0.117-1.467-0.35-2.9c-0.2-1.233-0.25-2.2-0.15-2.899c0.067-0.567,0.267-1.233,0.6-2
		c0.5-1.233,0.767-1.884,0.8-1.95l1.9-5c-0.167-1-0.45-1.884-0.85-2.65c-1.633-2.8-2.95-4.6-3.95-5.399
		c-1.533-1.267-3.05-1.351-4.55-0.25c-0.1,0.1-1.267,1.383-3.5,3.85c-0.733,0.4-1.767,1.167-3.1,2.3c-1.2,0.601-2.7,1.15-4.5,1.65
		c-0.267,0.066-1.767,0.45-4.5,1.149c-1.167,0.467-1.933,0.733-2.3,0.801c-0.533,0.1-1.217-0.101-2.05-0.601
		c-0.466-0.3-1.133-0.934-2-1.899c-0.867-0.867-1.533-1.45-2-1.75c-0.233,0.933-1.05,2.283-2.45,4.05
		c-1.267,1.633-1.95,3.083-2.05,4.35c-0.167,2.066,0.05,4,0.65,5.8c0.233,0.767,0.783,1.717,1.65,2.851
		c0.9,1.233,1.483,2.166,1.75,2.8c0.667,1.6,1.05,3.233,1.15,4.9c-1.167-0.434-2.15-1.051-2.95-1.851l-0.7-0.8
		c-0.133-0.2-0.25-0.384-0.35-0.55c-0.667-1.134-1.35-2.134-2.05-3l-2.15-2.25c-0.7-0.667-1.417-1.2-2.15-1.601
		c0.533-1.433,0.9-2.533,1.1-3.3c0.133-0.467,0.25-1.633,0.35-3.5c0.066-1.2,0.433-2.283,1.1-3.25c1.133-1.633,1.933-2.967,2.4-4
		c0.533-1.166,0.883-2.45,1.05-3.85c0.1-0.834,0.15-1.783,0.15-2.851c0-2.066-0.2-3.966-0.6-5.699
		c-0.267-1.034-0.567-2.617-0.9-4.75c-0.333-1.801-0.633-3.117-0.9-3.95c-0.267,1.366-0.3,3.333-0.1,5.899
		c-0.267-2.133-0.267-4,0-5.6c0.267-1.566,1.083-3.05,2.45-4.45c1.767-1.5,3.083-2.666,3.95-3.5l3.35-3.25
		c0.767-0.267,1.617-0.916,2.55-1.95c1-1.166,1.733-1.983,2.2-2.45c0.833-0.733,1.534-1.4,2.1-2c-0.6,1.133-1.4,2.517-2.4,4.15
		L39,75c-0.867,0.866-2.383,2.2-4.55,4c-1.867,1.7-3.133,3.217-3.8,4.55l-0.4,1.101c0.3,0.699,0.717,1.733,1.25,3.1
		c0.533,1.2,1.05,2.134,1.55,2.8l1.65,2.101c0.333,0.899,0.85,1.583,1.55,2.05c0.967,1.366,1.583,2.633,1.85,3.8
		c0.2,0.967,0.5,1.767,0.9,2.4c-1.3-0.5-2.333-1.084-3.1-1.75c-0.767-0.7-1.517-1.7-2.25-3c-0.267,2.333,0.167,4.35,1.3,6.05
		c1.2,1.733,3,2.783,5.4,3.149c1.733,0.267,3.517,0.4,5.35,0.4c2.233-0.033,4.017-0.267,5.35-0.7c1.434-0.467,2.784-1.316,4.05-2.55
		c0.733-0.767,1.717-2.017,2.95-3.75c1.233-1.7,2.75-2.733,4.55-3.1c0.733-0.167,2.617-0.25,5.65-0.25c0.8,0,1.85,0,3.15,0
		c1.033,0.066,1.9,0.35,2.6,0.85c0.4,0.333,0.7,0.616,0.9,0.85c2.533,2.733,4.267,5.934,5.2,9.601c0.933,3.733,0.55,7.467-1.15,11.2
		c-0.3,0.666-0.85,1.533-1.65,2.6c-0.267,0.333-1.083,1.217-2.45,2.65c-1.033,1.033-1.817,1.949-2.35,2.75
		c-0.633,1-1.2,2.166-1.7,3.5c-0.5,1.433-0.767,2.699-0.8,3.8C69.933,134.733,70.15,136.417,70.65,138.25z M18.55,120.3
		c-0.466,0-1.483,0.283-3.05,0.851c-0.033,0-0.067,0.017-0.1,0.05h-0.05c-0.1,0.033-0.2,0.066-0.3,0.1
		c-0.1,0.033-0.2,0.066-0.3,0.101c-1.233,0.466-2.233,0.566-3,0.3c0.167-0.533,0.283-1.384,0.35-2.55c0-0.067-0.05-0.617-0.15-1.65
		c-0.067-0.8-0.017-1.35,0.15-1.65c0.167-0.3,0.566-0.649,1.2-1.05c0.733-0.467,1.167-0.767,1.3-0.899c0.9-0.9,1.6-1.551,2.1-1.95
		c0.7,0.333,1.55,0.233,2.55-0.3c0.533-0.267,1.283-0.667,2.25-1.2c0.2,0.733,0.067,1.434-0.4,2.1c-0.767,1.066-1.167,1.65-1.2,1.75
		c-0.4,1.101-0.517,2.334-0.35,3.7l0.25,2.35C19.267,120.283,18.85,120.267,18.55,120.3z M127.925,20.8
		c-0.046-0.021-0.088-0.037-0.125-0.05c-0.333-0.167-0.666-0.35-1-0.55C127.17,20.371,127.545,20.571,127.925,20.8z M82.85,70.9
		c-0.2,1.7-0.684,3.133-1.45,4.3c-0.833,1.267-2.117,2.483-3.85,3.649c-0.933,0.601-2.3,1.134-4.1,1.601
		c-2.034,0.533-3.45,1-4.25,1.399c1.333,0.134,3.466,0.15,6.4,0.051c2.833-0.134,4.967-0.101,6.4,0.1c0.233,1.767-0.15,3.1-1.15,4
		c-0.4,0.333-1.7,0.983-3.9,1.95c-1.434-0.033-4.1-0.267-8-0.7l-5.05-0.5l3.15-2.85l0.2,0.35c0.667-1.3,1.45-2.35,2.35-3.15
		c0.967-0.866,2.217-1.583,3.75-2.149c2.533-0.967,4.35-1.8,5.45-2.5c1.767-1.167,2.983-2.667,3.65-4.5L82.85,70.9z M83.45,64.5
		c-1.2-1.133-2.417-1.8-3.65-2c0.9-0.5,2.133-1.367,3.7-2.6c1.667-1.333,2.933-2.267,3.8-2.8c-0.167,0.5-0.25,1.617-0.25,3.35
		c0,0.933,0.034,1.55,0.1,1.85c0.133,0.567,0.434,1.117,0.9,1.65c0.2,0.233,0.5,0.466,0.9,0.7c0.233,0.167,0.566,0.383,1,0.65
		c0.966-0.4,2.383-0.95,4.25-1.65c1.6-0.667,2.934-1.483,4-2.45c0.633-0.567,1.2-1.2,1.7-1.9c0.199-0.133,0.383-0.267,0.55-0.4
		c0.666-0.533,1.333-1.316,2-2.35l0.75-1.15c0.106-0.266,0.231-0.524,0.375-0.775L103.6,54.6c0.033-0.05,0.066-0.1,0.101-0.15
		c0.133-0.3,0.283-0.617,0.45-0.95c0-0.033,0.017-0.067,0.05-0.1c1.108-2.416,1.958-4.199,2.55-5.35
		c0.1-0.167,0.184-0.316,0.25-0.45l0.2-0.3c0.833-1.5,1.666-2.583,2.5-3.25c0.733,0.534,1.85,0.883,3.35,1.05
		c2,0.233,4.884,0.367,8.65,0.4c1.2,0.3,2.217,0.733,3.05,1.3c1.066,0.733,1.684,1.583,1.85,2.55c0.101,0.5,0.084,1.083-0.05,1.75
		c-0.066,0.367-0.2,0.933-0.399,1.7c-3.534-1.667-7.184-1.483-10.95,0.55c-0.867,0.467-1.8,1.183-2.8,2.15
		c-0.534,0.567-1.367,1.4-2.5,2.5c-0.801,0.767-1.867,1.617-3.2,2.55c-0.767,0.534-1.9,1.317-3.4,2.35
		c-1.133,0.867-1.816,1.767-2.05,2.7c-0.134,0.467-0.2,1.65-0.2,3.55c0,1.033-0.166,2.35-0.5,3.95
		c-0.066,0.733-0.083,1.834-0.05,3.301c-0.066,1.3-0.467,2.3-1.2,3C98.9,79.8,98.267,80.283,97.4,80.85
		c-1.067,0.667-1.767,1.134-2.101,1.4c-0.4-0.2-1.45-0.5-3.15-0.9c-1.433-0.366-2.316-0.716-2.65-1.05
		c-0.633-0.633-0.983-1.566-1.05-2.8c0.1-1.434,0.133-2.5,0.1-3.2c0-0.967-0.133-1.983-0.4-3.05c-0.7-2.567-2.233-5.017-4.6-7.35
		L83.45,64.5z M75.3,46.45c-1.566,0.533-2.933,1.383-4.1,2.55c-0.667,0.067-1.267-0.033-1.8-0.3c-0.6-0.3-1.017-0.767-1.25-1.4
		c-0.267-0.7-0.316-1.8-0.15-3.3c0.2-1.7,0.25-2.833,0.15-3.4c-1.2-2.567-2.167-4.667-2.9-6.3c-0.033-0.066-0.05-0.117-0.05-0.15
		c1.9,1.934,3.65,3.067,5.25,3.4c1.867,0.367,4.483,0.15,7.85-0.65c0.633,0.733,2.034,1.217,4.2,1.45
		c0.233,0.033,3.433,0.05,9.6,0.05c0.833,0,1.867-0.033,3.1-0.1c0.899,0.1,1.517,0.617,1.85,1.55c0.4,1.033,0.45,2.7,0.15,5
		c-0.3,2.433-0.834,3.95-1.6,4.55c-0.167,0.1-0.833,0.267-2,0.5c-0.467,0.167-1.05,0.483-1.75,0.95c-0.8,0.566-1.35,0.933-1.65,1.1
		c-0.767,0.4-1.784,0.816-3.05,1.25c-1.467,0.533-2.483,0.917-3.05,1.15c-1.7,0.733-3.467,2.3-5.3,4.7c-1.933,2.467-3.6,4.067-5,4.8
		c0.833,0.066,1.534,0.05,2.1-0.05c-0.9,0.534-1.517,0.95-1.85,1.25c-1.167,0.867-2.15,2.133-2.95,3.8c-0.6,1.233-0.95,2.4-1.05,3.5
		c0-2.399,0.05-3.95,0.15-4.649c0.233-2.067,0.867-3.883,1.9-5.45c0.733-1.133,1.967-2.183,3.7-3.15
		c2.233-1.233,3.65-2.117,4.25-2.65c0.133-0.133,1.217-1.2,3.25-3.2c1.3-1.267,2.5-2.217,3.6-2.85c0.4-0.233,1.467-0.683,3.2-1.35
		c1.4-0.533,2.383-1.083,2.95-1.65c0.567-0.533,0.917-1.267,1.05-2.2c0.133-1.034-0.067-1.867-0.6-2.5
		c-0.5-0.667-1.317-0.967-2.45-0.9c-1.333,0.233-2.316,0.383-2.95,0.45c-4.567,0.567-8.1,1.45-10.6,2.65
		C76.933,45.167,76.2,45.683,75.3,46.45z M127.15,114.55c-1.534,1.267-2.467,2.05-2.801,2.351c-0.966,0.899-1.616,1.733-1.949,2.5
		c-0.434,1.066-0.75,2.517-0.95,4.35c-0.233,2.233-0.033,3.717,0.6,4.45c0,1.467,0.033,2.35,0.101,2.649
		c0.1,0.567,0.399,1.051,0.899,1.45v0.4c0,1.467,0.05,2.7,0.15,3.7c-1.3,0.1-2.517,0.25-3.65,0.449c-2.166-5-2.8-8.983-1.899-11.949
		c0.166-0.5,0.616-1.4,1.35-2.7c0.634-1.033,0.983-2,1.05-2.9c0.066-0.467,0.084-1.1,0.05-1.899c-0.033-0.967-0.05-1.617-0.05-1.95
		l0.351-7.2c0.8-1.667,1.333-3.483,1.6-5.45c0.167-1.133,0.25-2.533,0.25-4.2c0.333-1.233,0.75-2.316,1.25-3.25
		c0.134,0.934,0.7,2.084,1.7,3.45c1.166,1.566,1.866,2.684,2.1,3.351c0.834,2.199,1.101,5.033,0.8,8.5
		C128.033,111.783,127.717,113.083,127.15,114.55z M46.55,60.7c-0.167,1.066-0.383,2.033-0.65,2.9l-0.3,0.65
		c0.433-1.867,0.55-4.4,0.35-7.6l0.5-1.5c0.1,0.467,0.183,1.184,0.25,2.15L46.55,60.7z"/>
	<path style="fill-rule:evenodd;clip-rule:evenodd;fill:#ABB5C0;" d="M106.3,39.4c0.147-0.23,0.297-0.447,0.45-0.65l0.3-0.35
		l2.5-2.25c0.033-0.066,0.084-0.1,0.15-0.1c0.066-0.066,0.149-0.133,0.25-0.2c1.5-0.9,4.066-1.4,7.7-1.5
		c3.366-0.067,5.783-0.767,7.25-2.1c0.966-0.833,1.699-1.383,2.199-1.65c0.367-0.167,1.301-0.5,2.801-1
		c0.866-0.267,2.017-0.717,3.449-1.35c1.5-0.567,2.667-0.517,3.5,0.15c0.067,0.9-0.017,1.917-0.25,3.05
		c0,0.017-0.008,0.042-0.024,0.075v0.025c-0.009,0.018-0.018,0.034-0.025,0.05c-2.733,0.033-4.967,0.217-6.7,0.55
		c-2.267,0.4-4.416,1.167-6.449,2.3c-3.034,1.6-6.134,2.633-9.301,3.1c-1.6,0.267-2.883,0.833-3.85,1.7
		c-0.233,0.167-1.184,1.217-2.85,3.15c-1.134,1.267-1.834,2.467-2.101,3.6c-0.2,0.767-0.383,2.167-0.55,4.2
		c-0.134,1-0.316,2.066-0.55,3.2c-0.033,0.033-0.05,0.067-0.05,0.1c-0.167,0.333-0.317,0.65-0.45,0.95
		c-0.034,0.05-0.067,0.1-0.101,0.15l-0.024,0.025c-0.144,0.25-0.269,0.509-0.375,0.775l-0.75,1.15c-0.667,1.034-1.334,1.817-2,2.35
		c-0.167,0.133-0.351,0.267-0.55,0.4c-1,0.667-2.084,0.967-3.25,0.9L95.4,60c-0.233-0.067-0.467-0.133-0.7-0.2l-0.4-4
		c0.053-0.301,0.12-0.601,0.2-0.9c0.933-0.167,1.833-0.65,2.7-1.45c0.233-0.267,0.983-1.167,2.25-2.7
		c0.767-0.967,1.55-2.167,2.35-3.6c0.066-0.099,0.758-1.374,2.075-3.825c0.005-0.028,0.013-0.053,0.025-0.075
		c0.1-0.1,0.199-0.2,0.3-0.3l0.899-1.2c0.101-0.167,0.184-0.317,0.25-0.45c0.4-0.633,0.7-1.267,0.9-1.9H106.3z M56.7,31.65
		c-0.367,0.067-0.717,0.133-1.05,0.2L53.5,32.2c-1.233,0.2-2.267,0.35-3.1,0.45c-0.3-1.767-0.417-3-0.35-3.7
		c0.167-1.233,0.833-2.1,2-2.6c0.934-0.4,2.2-0.517,3.8-0.35c1.467,0.167,2.683,0.5,3.65,1c1.233,0.667,3.117,1.733,5.65,3.2
		c2.267,1.2,4.333,1.9,6.2,2.1c5.2,0.534,8.55,0.367,10.05-0.5c0.733-0.433,1.85-1.283,3.35-2.55c1.467-1.267,2.633-2.15,3.5-2.65
		c0.2-0.1,1.35-0.883,3.45-2.35c1.466-1,2.667-1.633,3.6-1.9c1.066-0.267,2.967-0.617,5.7-1.05c2.434-0.367,4.366-0.783,5.8-1.25
		c0.733-0.233,2.017-0.683,3.851-1.35c1.666-0.5,2.933-0.583,3.8-0.25c-1.7,2.733-5.101,5.033-10.2,6.9
		c-5.634,2.033-9.267,3.9-10.9,5.6c-1.367,0-2.55,0.1-3.55,0.3c-1.167,0.2-2.383,0.6-3.65,1.2c-1.233,0.6-2.617,0.966-4.15,1.1
		c-0.533,0.034-2.017,0.05-4.45,0.05c-3.333,0-6.316-0.5-8.95-1.5c-1.7-0.667-3.434-1.15-5.2-1.45
		c-2.233-0.333-4.017-0.267-5.35,0.2C57.517,31.05,57.067,31.317,56.7,31.65z"/>
	<path style="fill-rule:evenodd;clip-rule:evenodd;fill:#867B6C;" d="M7.3,101.2h0.05c1.1-0.334,2.383-0.884,3.85-1.65
		c1.5-0.767,2.45-1.267,2.85-1.5c2.2-1.133,3.75-2.233,4.65-3.3c1.2-1.467,1.633-3.233,1.3-5.3c-1.133,0.033-2,0.066-2.6,0.1
		c-1.1,0-1.883-0.217-2.35-0.649l-0.6,0.6c0.4-1.167,0.8-2.533,1.2-4.1c0.1-0.334,0.184-0.667,0.25-1h0.05l1.1,0.5
		c0.267,0.133,1.233,0.5,2.9,1.1c1.267,0.467,2.133,0.917,2.6,1.35c0.867,0.767,1.467,1.983,1.8,3.65c0.3,1.434,0.367,2.8,0.2,4.1
		c-0.2,1.801-1.167,3.317-2.9,4.551c-0.833,0.6-2.566,1.483-5.2,2.649c-5.267,2.434-9.417,3.467-12.45,3.101H3.95l0.85-1
		c0.467-0.634,0.967-1.284,1.5-1.95L7.3,101.2z M45.75,53.45l-0.2,0.4c-0.7,1.433-1.783,3.066-3.25,4.9
		c-0.833,1.033-2.083,2.583-3.75,4.65c-1.233,1.633-2.6,3.65-4.1,6.05c-2.267,3.467-3.867,5.633-4.8,6.5
		c-0.233,0.233-0.433,0.483-0.6,0.75c-0.133,0.133-0.483,0.217-1.05,0.25c-0.8,0.033-2.233-0.566-4.3-1.8
		c-1.967-1.2-3.233-2.167-3.8-2.9l-0.5-0.8l0.45-1.2l0.45-1c0.467-1,1.05-2.067,1.75-3.2c0.067-0.066,0.15-0.117,0.25-0.15
		c0.6-0.4,1.333-0.767,2.2-1.1c0.567-0.2,1.467-0.5,2.7-0.9c1.133-0.367,2.1-0.833,2.9-1.4c0.333-0.233,1.15-0.933,2.45-2.1
		c0.4-0.367,1.333-1,2.8-1.9c1.267-0.8,2.15-1.5,2.65-2.1c1.167-1.5,2-3.733,2.5-6.7c0.333-2.233,0.067-4-0.8-5.3L39,43.6
		c0.667-1.9,1.567-4.983,2.7-9.25c2.733,0.2,4.483,2.083,5.25,5.65c0.5,2.333,0.55,5.25,0.15,8.75
		C46.933,50.283,46.483,51.85,45.75,53.45z M50.35,45.85c0.2-1.2,0.283-2.05,0.25-2.55c0.566,0.733,1.233,2.184,2,4.35
		c1,2.833,1.517,4.3,1.55,4.4c0.5,1.1,1.267,2.684,2.3,4.75c0.8,1.833,1.333,3.5,1.6,5c0.333,2.267,0.5,5.35,0.5,9.25
		c0,1.7,0,2.601,0,2.7c-0.033,1-0.15,1.884-0.35,2.65c-0.133,0.566-0.367,1.433-0.7,2.6c-0.333,1.134-0.567,2-0.7,2.6
		c-1.3,1.601-2.966,4.25-5,7.95c-2.033,3.167-4.417,5.167-7.15,6c-1.233,0.4-2.566,0.55-4,0.45c-1.5-0.1-2.833-0.45-4-1.05
		l-0.4-0.25c-0.7-0.467-1.217-1.15-1.55-2.05c-0.6-1.634-0.65-3.7-0.15-6.2c0.167-1.033,0.667-2.15,1.5-3.351
		c0.167,0.667,0.6,1.067,1.3,1.2c0.433,0.066,1.183,0.101,2.25,0.101c0.333,0.033,0.983,0.166,1.95,0.399
		c0.9,0.167,1.55,0.2,1.95,0.101c0.8-0.2,1.65-0.9,2.55-2.101c0.9-1.333,1.517-2.233,1.85-2.7c1.6-1.966,2.8-3.466,3.6-4.5
		c1.467-1.866,2.483-3.483,3.05-4.85c0.534-1.3,0.784-3.117,0.75-5.45c-0.133-2.633-0.216-4.517-0.25-5.65
		C55.05,54.583,53.483,49.983,50.35,45.85z M75.3,46.45c1.1-0.367,2.5-0.617,4.2-0.75c0.967-0.067,2.483-0.167,4.55-0.3l3,1
		c-2.966,2.467-5.033,4.1-6.2,4.9c-2.5,1.7-4.883,2.817-7.15,3.35c-3.333,0.6-5.167,0.667-5.5,0.2c-0.7-1.033,0.183-2.85,2.65-5.45
		L71.2,49C72.367,47.833,73.733,46.983,75.3,46.45z M122.1,92.5l-4,0.5l-0.75,0.05l4.7-1.649L122.1,92.5z M135.35,108.75
		c0.067,0.2,0.117,0.483,0.15,0.85c0.066,0.667,0.1,1.034,0.1,1.101c0.101,1.2,0.167,2.95,0.2,5.25
		c0.101,2.066,0.316,3.816,0.65,5.25c0.633,2.866,0.717,5.684,0.25,8.45c-0.367,2.166-0.7,3.566-1,4.199
		c-0.601,1.334-1.634,2.017-3.101,2.051c-1.333,0.066-2.666-0.134-4-0.601c-1-0.333-2.216-0.934-3.649-1.8
		c-0.967-0.533-1.601-0.934-1.9-1.2c-0.5-0.399-0.8-0.883-0.899-1.45c-0.067-0.3-0.101-1.183-0.101-2.649
		c0.233,0.233,0.434,0.366,0.601,0.399c0.333-0.399,0.6-1,0.8-1.8c0.233-0.899,0.434-1.517,0.6-1.85c0.2-0.367,0.617-0.834,1.25-1.4
		c0.7-0.566,1.15-0.95,1.351-1.149c1.666-1.233,2.8-2.134,3.399-2.7c1-0.9,1.8-2.101,2.4-3.601c0.5-1.233,0.816-2.55,0.95-3.949
		c0.1-0.867,0.149-2.217,0.149-4.051l1-0.199C134.917,108.1,135.184,108.384,135.35,108.75z M120.4,108.25
		c-0.5,1.033-1.051,1.9-1.65,2.6c-0.366,0.434-0.733,0.784-1.1,1.051l-0.15,0.1c-0.233,0.167-0.917,0.634-2.05,1.4
		c-0.834,0.566-1.467,1.066-1.9,1.5c-0.267,0.267-0.717,0.916-1.35,1.949c-0.533,0.834-1.05,1.417-1.55,1.75
		c-0.334,0.233-0.884,0.4-1.65,0.5c-1.2,0.2-1.816,0.301-1.85,0.301c-3.434,0.733-6.184,1.6-8.25,2.6
		c-1.2,0.7-2.134,1.233-2.801,1.6c-1.233,0.634-2.233,0.9-3,0.801c-0.6-1.134-0.95-2.684-1.05-4.65c0-2.233,0-3.85,0-4.85l0.05-0.45
		c1.333-1.5,2.066-2.3,2.2-2.4c0.967-0.733,3.517-2.649,7.65-5.75c1.5-1.3,3.1-2.45,4.8-3.45c0.7-0.267,1.667-0.366,2.9-0.3
		c1.399,0.066,2.366,0.033,2.899-0.1c2.033-0.467,3.867-1.783,5.5-3.95c1.667-2.634,3.017-4.5,4.05-5.6l0.15,5.699
		c0,1.667-0.083,3.067-0.25,4.2C121.733,104.767,121.2,106.583,120.4,108.25z M57.55,82.1l-1,1.801c0-0.7,0.083-1.467,0.25-2.301
		c0.7-0.833,1.45-1.566,2.25-2.199L57.55,82.1z M56.55,106.4l-4-1c0.067,1.566-0.75,2.916-2.45,4.05
		c-0.967,0.633-2.483,1.416-4.55,2.35l-5.85,3.15c-1.267,0.434-2.317,0.8-3.15,1.1c-1.533,0.566-2.367,1.2-2.5,1.9
		c-0.2,1.233,1.05,1.95,3.75,2.149c1.867,0.134,3.65,0.067,5.35-0.199c0.967-0.167,1.8-0.517,2.5-1.051
		c0.467-0.366,1.117-1.033,1.95-2c1.933-2.366,3.383-4.149,4.35-5.35C53.65,109.434,55.183,107.733,56.55,106.4z M49.9,107.3
		c1.333-1.133,2.367-1.899,3.1-2.3c1.5-0.833,3.017-1.2,4.55-1.1l2,6c0.3,1.533-0.2,3.383-1.5,5.55
		c-0.733,1.233-1.95,2.833-3.65,4.8c-0.6,0.7-1.483,1.566-2.65,2.6c-1.333,1.233-2.233,2.084-2.7,2.551
		c-0.267,0.267-0.75,0.966-1.45,2.1c-0.633,1.033-1.15,1.667-1.55,1.9c-0.533,0.3-1.533,0.316-3,0.05c-1.6-0.367-2.6-0.584-3-0.65
		c-2.566-0.366-4.316-0.866-5.25-1.5c-1.3-0.899-2.05-2.517-2.25-4.85c-0.1-0.934-0.133-2.15-0.1-3.65
		c0.066-1.666,0.1-2.899,0.1-3.7c0-1.333,0.034-2.066,0.1-2.199c0.167-0.233,0.817-0.4,1.95-0.5c0.733-0.067,1.833-0.067,3.3,0
		c1.467,0.066,2.55,0.066,3.25,0c1.567-0.134,3.15-0.733,4.75-1.801C46.533,110.167,47.867,109.066,49.9,107.3z M129.4,112.4
		c0.399-1.367,0.8-2.334,1.199-2.9C130.566,110.467,130.167,111.434,129.4,112.4z"/>
	<path style="fill-rule:evenodd;clip-rule:evenodd;fill:#A19581;" d="M92.1,114.45c-0.533,0.533-0.95,0.883-1.25,1.05l-0.3,0.15
		c-0.066-1.5,0.083-2.967,0.45-4.4c0.167-0.667,0.4-1.4,0.7-2.2c-0.267,1-0.35,2-0.25,3c0.867-2.833,1.65-5.217,2.35-7.149
		c-0.533,0.699-0.983,1.399-1.35,2.1l0.7-2c0.533-1.566,1.033-2.566,1.5-3c0.167-0.1,0.333-0.2,0.5-0.3
		c-0.433,0.833-0.883,1.899-1.35,3.2c0.934-1.2,2.15-2.4,3.65-3.601c0.767-0.533,1.517-1.033,2.25-1.5l0.35-0.149
		c1.767-0.7,4.967-2.067,9.601-4.101l4.899-2.149l3.55-0.4l4-0.5l0.45-0.1l-0.45,0.5c-1.033,1.1-2.383,2.966-4.05,5.6
		c-1.633,2.167-3.467,3.483-5.5,3.95c-0.533,0.133-1.5,0.166-2.899,0.1c-1.233-0.066-2.2,0.033-2.9,0.3c-1.7,1-3.3,2.15-4.8,3.45
		c-4.134,3.101-6.684,5.017-7.65,5.75C94.167,112.15,93.433,112.95,92.1,114.45z M14.45,89.5l0.6-0.6
		c0.467,0.433,1.25,0.649,2.35,0.649c0.6-0.033,1.467-0.066,2.6-0.1c0.333,2.066-0.1,3.833-1.3,5.3c-0.9,1.066-2.45,2.167-4.65,3.3
		c-0.4,0.233-1.35,0.733-2.85,1.5c-1.467,0.767-2.75,1.316-3.85,1.65H7.3c0.133-0.167,0.267-0.316,0.4-0.45l5.45-7.8l1-2.55
		C14.25,90.1,14.35,89.8,14.45,89.5z M39,43.6l0.7,0.8c0.867,1.3,1.133,3.067,0.8,5.3c-0.5,2.966-1.333,5.2-2.5,6.7
		c-0.5,0.6-1.383,1.3-2.65,2.1c-1.467,0.9-2.4,1.533-2.8,1.9c-1.3,1.167-2.117,1.867-2.45,2.1c-0.8,0.567-1.767,1.033-2.9,1.4
		c-1.233,0.4-2.133,0.7-2.7,0.9c-0.867,0.333-1.6,0.7-2.2,1.1c-0.1,0.033-0.183,0.083-0.25,0.15c0.6-0.966,1.75-2.417,3.45-4.35
		l1.3-1.5c0.267-0.333,0.55-0.65,0.85-0.95c0-0.033,0.017-0.067,0.05-0.1c0.033-0.033,0.066-0.066,0.1-0.1c0.1-0.1,0.2-0.2,0.3-0.3
		c0.066-0.1,0.15-0.2,0.25-0.3l0.7-0.75c0.7-0.833,1.45-1.684,2.25-2.55c0.3-0.333,0.6-0.667,0.9-1l0.85-0.95
		c2.5-3,4.284-5.667,5.35-8c0.233-0.534,0.434-1.05,0.6-1.55V43.6z M127.15,114.55c0.866-0.7,1.616-1.416,2.25-2.149
		c0.767-0.967,1.166-1.934,1.199-2.9c0.067-0.366,0.051-0.733-0.05-1.1l3-0.5v0.199c0,1.834-0.05,3.184-0.149,4.051
		c-0.134,1.399-0.45,2.716-0.95,3.949c-0.601,1.5-1.4,2.7-2.4,3.601c-0.6,0.566-1.733,1.467-3.399,2.7
		c-0.2,0.199-0.65,0.583-1.351,1.149c-0.633,0.566-1.05,1.033-1.25,1.4c-0.166,0.333-0.366,0.95-0.6,1.85
		c-0.2,0.8-0.467,1.4-0.8,1.8c-0.167-0.033-0.367-0.166-0.601-0.399c-0.633-0.733-0.833-2.217-0.6-4.45
		c0.2-1.833,0.517-3.283,0.95-4.35c0.333-0.767,0.983-1.601,1.949-2.5C124.684,116.6,125.616,115.816,127.15,114.55z M50.35,45.85
		c3.133,4.133,4.7,8.733,4.7,13.8c0.034,1.133,0.117,3.017,0.25,5.65c0.034,2.333-0.216,4.15-0.75,5.45
		c-0.566,1.366-1.583,2.983-3.05,4.85c-0.8,1.034-2,2.534-3.6,4.5c-0.333,0.467-0.95,1.367-1.85,2.7c-0.9,1.2-1.75,1.9-2.55,2.101
		c-0.4,0.1-1.05,0.066-1.95-0.101c-0.966-0.233-1.617-0.366-1.95-0.399c-1.067,0-1.817-0.034-2.25-0.101
		c-0.7-0.133-1.133-0.533-1.3-1.2L36,82.95c-0.133-1.033,0.3-2.45,1.3-4.25c1.233-1.934,2.034-3.217,2.4-3.851l1.05-1.8
		c1-1.633,1.8-3.017,2.4-4.15l2.45-4.65l0.3-0.65c0.267-0.567,0.467-1.133,0.6-1.7l0.05-1.2l0.15-3.4
		c0.667-3.3,1.117-5.767,1.35-7.4l2-4.5L50.35,45.85z M56.55,106.4c-1.367,1.333-2.9,3.033-4.6,5.1
		c-0.967,1.2-2.417,2.983-4.35,5.35c-0.833,0.967-1.483,1.634-1.95,2c-0.7,0.534-1.533,0.884-2.5,1.051
		c-1.7,0.267-3.483,0.333-5.35,0.199c-2.7-0.199-3.95-0.916-3.75-2.149c0.133-0.7,0.967-1.334,2.5-1.9
		c0.833-0.3,1.883-0.666,3.15-1.1l5.85-3.15c2.067-0.934,3.583-1.717,4.55-2.35c1.7-1.134,2.517-2.483,2.45-4.05L56.55,106.4z"/>
</g>
</svg>
