<?xml version="1.0" encoding="iso-8859-1"?>
<!-- Generator: Adobe Illustrator 15.1.0, SVG Export Plug-In . SVG Version: 6.00 Build 0)  -->
<!DOCTYPE svg PUBLIC "-//W3C//DTD SVG 1.1//EN" "http://www.w3.org/Graphics/SVG/1.1/DTD/svg11.dtd">
<svg version="1.1" id="Layer_1" xmlns="http://www.w3.org/2000/svg" xmlns:xlink="http://www.w3.org/1999/xlink" x="0px" y="0px"
	 width="69px" height="43.9px" viewBox="0 0 69 43.9" style="enable-background:new 0 0 69 43.9;" xml:space="preserve">
<g>
	<path style="fill-rule:evenodd;clip-rule:evenodd;fill:#DDDEE0;" d="M64.75,23.25c-0.4,1.667-1.3,2.934-2.7,3.8
		c0.934-0.633,1.65-1.45,2.15-2.45c1.066-2.133,0.983-4.683-0.25-7.649c-0.4-1-0.9-1.95-1.5-2.85c1.899,2.7,2.717,5.417,2.45,8.15
		C64.866,22.583,64.816,22.917,64.75,23.25z M4.75,20.5c-0.033-0.233-0.067-0.467-0.1-0.7C4.15,13.533,6.1,8.617,10.5,5.05
		c4.133-3.3,9.65-4.983,16.55-5.05l9,1.5c4.533,0.067,8.917,0.95,13.15,2.65c4,1.6,7.45,3.8,10.35,6.6c-2.2-2.033-4.517-3.7-6.95-5
		c-0.333,0.533-0.683,2.317-1.05,5.35c-0.3,2.367-1.217,3.983-2.75,4.85c-1.133,0.633-2.833,0.783-5.1,0.45
		c-2.9-0.433-4.717-0.617-5.45-0.55c-0.333,0.033-1.066,0.283-2.2,0.75c-0.967,0.4-1.733,0.566-2.3,0.5c-0.333-0.033-1-0.233-2-0.6
		c-1.167-0.433-1.883-0.683-2.15-0.75c-1.7-0.533-3.917-1.6-6.65-3.2c-0.3-0.167-1.3-0.867-3-2.1c-1.267-0.934-2.284-1.534-3.05-1.8
		c-1.633-0.533-3.233-0.566-4.8-0.1C10.467,9.017,9.2,9.9,8.3,11.2c-0.933,1.4-1.55,2.283-1.85,2.65
		c-0.567,0.733-1.133,1.283-1.7,1.65C4.55,17.033,4.55,18.7,4.75,20.5z M31.15,24.5c0.3,0.1,0.6,0.2,0.9,0.3
		c-0.233-0.066-0.45-0.133-0.65-0.2C31.3,24.566,31.217,24.533,31.15,24.5z M29.95,24.05c-0.867-0.3-3.083-1.5-6.65-3.6
		c-0.04-0.04-0.082-0.073-0.125-0.1c0.35,0.187,0.725,0.403,1.125,0.65C27.033,22.634,28.917,23.65,29.95,24.05z M13.4,18.6
		c0.934-0.434,1.867-0.667,2.8-0.7c-1.133,0.067-2.934,0.717-5.4,1.95C11.933,19.25,12.8,18.833,13.4,18.6z"/>
	<path style="fill-rule:evenodd;clip-rule:evenodd;fill:#504A3F;" d="M53.55,39.3v-0.05c0.066-1.233,0.017-2.767-0.149-4.6
		c-0.2-1.934-0.334-3.267-0.4-4c-0.066-0.9-0.1-1.551-0.1-1.95c1.366-0.033,2.75-0.101,4.149-0.2c0.5-0.033,1-0.083,1.5-0.15
		l3.5-1.3c1.4-0.866,2.3-2.133,2.7-3.8c0.167,0.2,0.316,0.384,0.45,0.55c2.333,2.934,3.25,5.367,2.75,7.3
		c-0.467,1.733-2.05,3.084-4.75,4.051c-2.733,0.966-4.417,2.6-5.05,4.899C57.884,40.017,56.35,39.767,53.55,39.3z M10.8,29
		l0.05,0.75c0.066,1.5,0.017,4.517-0.15,9.05v0.05c-0.633-0.267-1.333-0.483-2.1-0.649c0.733-2.434,1.35-5.084,1.85-7.95V30.1
		l0.2-0.55L10.8,29z"/>
	<path style="fill-rule:evenodd;clip-rule:evenodd;fill:#8D959E;" d="M62.05,27.05l-3.5,1.3c-0.5,0.067-1,0.117-1.5,0.15
		c-1.399,0.1-2.783,0.167-4.149,0.2c-3.434,0-6.717-0.283-9.851-0.851c-0.6-0.1-1.2-0.216-1.8-0.35l-9.2-2.7
		c-0.3-0.1-0.6-0.2-0.9-0.3l-1.2-0.45c-1.034-0.399-2.917-1.416-5.65-3.05c-0.4-0.247-0.775-0.463-1.125-0.65
		c-0.016-0.009-0.032-0.017-0.05-0.025L23.1,20.3L23,20.25c-0.1-0.067-0.2-0.117-0.3-0.15c-0.667-0.367-1.3-0.684-1.9-0.95l-1.2-0.5
		c-0.4-0.167-0.783-0.3-1.15-0.4h0.05c3.5-0.033,6.55,0.233,9.15,0.8l2.75,0.65c3.233,0.8,6.067,1.566,8.5,2.3
		c3.366,1.1,6.017,2.134,7.949,3.1c1.467,0.7,2.733,1.15,3.801,1.351c1.333,0.3,2.716,0.333,4.149,0.1
		c1.9-0.267,3.384-1.066,4.45-2.399c0.134-0.2,1-1.717,2.6-4.55c0.634-1.067,1.334-1.95,2.101-2.65
		c1.233,2.966,1.316,5.517,0.25,7.649C63.7,25.6,62.983,26.417,62.05,27.05z M9.65,19.45c1.233-0.434,2.483-0.717,3.75-0.85
		c-0.6,0.233-1.467,0.65-2.6,1.25c-0.1,0.066-0.216,0.133-0.35,0.2c-0.1,0.034-0.217,0.083-0.35,0.15c-0.267,0.1-0.5,0.2-0.7,0.3
		c-1.033,0.4-1.95,0.583-2.75,0.55C7.383,20.417,8.383,19.883,9.65,19.45z"/>
	<path style="fill-rule:evenodd;clip-rule:evenodd;fill:#ABB5C0;" d="M30.4,19.7l-2.75-0.65c-2.6-0.566-5.65-0.833-9.15-0.8h-0.05
		c-0.567-0.167-1.217-0.283-1.95-0.35c-0.1,0-0.2,0-0.3,0c-0.934,0.033-1.867,0.267-2.8,0.7c-1.267,0.133-2.517,0.417-3.75,0.85
		c0.3-3.4,2.817-4.9,7.55-4.5c3.633,0.267,6.9,1.2,9.8,2.8C27.767,18.183,28.9,18.833,30.4,19.7z M38.9,22
		c0.899,0.1,2.25,0.267,4.05,0.5c1.533,0.167,2.866,0.184,4,0.05c1.633-0.166,3.233-0.483,4.8-0.95
		c2.167-0.633,3.583-1.383,4.25-2.25c0.566-0.733,1.083-2.184,1.55-4.35c0.434-1.967,1.101-3.383,2-4.25
		c0.3,0.267,0.584,0.55,0.851,0.85c0.133,0.133,0.283,0.283,0.449,0.45l1.601,2.05c0.6,0.9,1.1,1.85,1.5,2.85
		c-0.767,0.7-1.467,1.583-2.101,2.65c-1.6,2.833-2.466,4.35-2.6,4.55c-1.066,1.333-2.55,2.133-4.45,2.399
		c-1.434,0.233-2.816,0.2-4.149-0.1c-1.067-0.2-2.334-0.65-3.801-1.351C44.917,24.134,42.267,23.1,38.9,22z"/>
	<path style="fill-rule:evenodd;clip-rule:evenodd;fill:#CED1D6;" d="M38.9,22c-2.434-0.733-5.267-1.5-8.5-2.3
		c-1.5-0.867-2.633-1.517-3.4-1.95c-2.9-1.6-6.167-2.533-9.8-2.8c-4.733-0.4-7.25,1.1-7.55,4.5c-1.267,0.433-2.267,0.966-3,1.6H6.6
		c-0.267,0-0.55-0.017-0.85-0.05c-0.367-0.067-0.7-0.15-1-0.25V20.5c-0.2-1.8-0.2-3.467,0-5c0.567-0.367,1.133-0.917,1.7-1.65
		c0.3-0.367,0.917-1.25,1.85-2.65c0.9-1.3,2.167-2.184,3.8-2.65c1.566-0.466,3.167-0.433,4.8,0.1c0.767,0.267,1.783,0.867,3.05,1.8
		c1.7,1.233,2.7,1.933,3,2.1c2.733,1.6,4.95,2.667,6.65,3.2c0.267,0.067,0.983,0.317,2.15,0.75c1,0.367,1.667,0.567,2,0.6
		c0.566,0.066,1.333-0.1,2.3-0.5c1.134-0.467,1.867-0.717,2.2-0.75c0.733-0.067,2.55,0.117,5.45,0.55
		c2.267,0.333,3.967,0.184,5.1-0.45c1.533-0.867,2.45-2.483,2.75-4.85c0.367-3.033,0.717-4.817,1.05-5.35
		c2.434,1.3,4.75,2.967,6.95,5c-0.899,0.867-1.566,2.283-2,4.25c-0.467,2.167-0.983,3.617-1.55,4.35
		c-0.667,0.867-2.083,1.617-4.25,2.25c-1.566,0.466-3.167,0.784-4.8,0.95c-1.134,0.134-2.467,0.117-4-0.05
		C41.15,22.267,39.8,22.1,38.9,22z"/>
	<path style="fill-rule:evenodd;clip-rule:evenodd;fill:#635B4F;" d="M31.4,24.6c0.2,0.067,0.417,0.134,0.65,0.2l9.2,2.7
		c0.6,0.134,1.2,0.25,1.8,0.35c3.134,0.567,6.417,0.851,9.851,0.851c0,0.399,0.033,1.05,0.1,1.95c0.066,0.733,0.2,2.066,0.4,4
		c0.166,1.833,0.216,3.366,0.149,4.6v0.05c-1.833-0.366-3.35-0.616-4.55-0.75c-0.267-0.033-0.533-0.066-0.8-0.1
		c-0.233-0.033-0.45-0.05-0.65-0.05l-3.35,0.05c-0.5,0.033-0.983,0.083-1.45,0.149c1.3-1.5,1.767-3.066,1.4-4.699
		c-0.4-1.567-2.784-2.967-7.15-4.2c-4.067-1.167-6.033-2.767-5.9-4.8L31.4,24.6z M20.05,43.05l1.35-1.45
		c0.067-0.1,1.05-1.6,2.95-4.5c1.2-1.899,2.433-3.133,3.7-3.699c0.133,0.466,0.1,2.233-0.1,5.3c-0.133,2.3,0.333,3.816,1.4,4.55
		l0.3,0.2c0.1,0.066,0.267,0.149,0.5,0.25l-0.4,0.2c-2.267-0.534-4.433-0.834-6.5-0.9h-2C20.85,43,20.45,43.017,20.05,43.05z"/>
	<path style="fill-rule:evenodd;clip-rule:evenodd;fill:#706759;" d="M30.15,43.7c-0.233-0.101-0.4-0.184-0.5-0.25l-0.3-0.2
		c-1.067-0.733-1.533-2.25-1.4-4.55c0.2-3.066,0.233-4.834,0.1-5.3c-1.267,0.566-2.5,1.8-3.7,3.699c-1.9,2.9-2.883,4.4-2.95,4.5
		l-1.35,1.45l-2,0.2c-1.5-1.066-2.633-1.85-3.4-2.35c-1.333-0.9-2.566-1.567-3.7-2L10.7,38.85V38.8
		c0.167-4.533,0.216-7.55,0.15-9.05c0.066-0.066,0.267-0.283,0.6-0.65c0.566,1.167,0.917,3.65,1.05,7.45
		c0.5,2.967,2.1,3.917,4.8,2.851c1.233-0.467,2.467-2.017,3.7-4.65c1.267-2.7,2.467-4.3,3.6-4.8c0.233-0.101,0.783-0.117,1.65-0.05
		c0.533,0,0.967-0.284,1.3-0.851c0.333-0.6,0.333-1.283,0-2.05c-0.3-0.667-0.75-1.2-1.35-1.6c-1.4-0.7-2.4-1.233-3-1.601
		c-1.034-0.6-1.717-1.5-2.05-2.7c-0.133-0.833-0.25-1.483-0.35-1.95c0.6,0.267,1.233,0.583,1.9,0.95c0.1,0.033,0.2,0.083,0.3,0.15
		l0.1,0.05l0.025,0.025c0.018,0.008,0.034,0.016,0.05,0.025c0.043,0.027,0.085,0.06,0.125,0.1c3.567,2.1,5.784,3.3,6.65,3.6
		l1.2,0.45c0.067,0.033,0.15,0.066,0.25,0.1L31.1,24.9c-0.133,2.033,1.833,3.633,5.9,4.8c4.366,1.233,6.75,2.633,7.15,4.2
		c0.366,1.633-0.101,3.199-1.4,4.699H42.7L40.55,39c-1.833,0.467-3.666,1.15-5.5,2.05c-0.066,0.033-0.133,0.066-0.2,0.101
		l-3.899,2.1C30.683,43.384,30.417,43.533,30.15,43.7z M6.25,37.5l1-1.05c0.4-0.566,0.817-1.316,1.25-2.25
		c0.433-1.066,0.767-1.867,1-2.4l0.6-0.899l0.25-0.551l0.1-0.1c-0.5,2.866-1.117,5.517-1.85,7.95l-1.55-0.3L6.25,37.5z"/>
	<path style="fill-rule:evenodd;clip-rule:evenodd;fill:#797061;" d="M9.5,31.8c-0.233,0.533-0.567,1.334-1,2.4
		c-0.433,0.934-0.85,1.684-1.25,2.25l-1,1.05c-1.1-0.533-2.117-0.983-3.05-1.35c0.466,0.166,0.95,0.35,1.45,0.55l1-0.8
		C7.35,34.366,8.633,33,9.5,31.8z M0.35,35.35c-0.1-0.033-0.184-0.05-0.25-0.05c-0.033-0.2-0.05-0.383-0.05-0.55L0.35,35.35z
		 M10.1,30.9l0.55-1.351l-0.2,0.55v0.15l-0.1,0.1L10.1,30.9z M10.85,29.75L10.8,29c0.4-1.967,0.1-4.333-0.9-7.1
		c-0.167-0.467-0.333-0.933-0.5-1.4c0.2-0.1,0.434-0.2,0.7-0.3c0.133-0.067,0.25-0.117,0.35-0.15c0.133-0.066,0.25-0.133,0.35-0.2
		c2.467-1.233,4.267-1.883,5.4-1.95c0.1,0,0.2,0,0.3,0c0.733,0.067,1.383,0.184,1.95,0.35c0.367,0.1,0.75,0.233,1.15,0.4l1.2,0.5
		c0.1,0.467,0.217,1.117,0.35,1.95c0.333,1.2,1.017,2.1,2.05,2.7c0.6,0.367,1.6,0.9,3,1.601c0.6,0.399,1.05,0.933,1.35,1.6
		c0.333,0.767,0.333,1.45,0,2.05c-0.333,0.566-0.767,0.851-1.3,0.851c-0.867-0.067-1.417-0.051-1.65,0.05
		c-1.133,0.5-2.333,2.1-3.6,4.8c-1.233,2.634-2.467,4.184-3.7,4.65c-2.7,1.066-4.3,0.116-4.8-2.851
		c-0.133-3.8-0.483-6.283-1.05-7.45C11.117,29.467,10.917,29.684,10.85,29.75z M14,28.9c-0.233,1.633-0.317,2.949-0.25,3.949
		c0.033,0.367,0.033,0.784,0,1.25c0.067,0.334,0.35,0.601,0.85,0.801c1.5,0.699,2.65-1.217,3.45-5.75
		c0.567-5.134,0.917-8.217,1.05-9.25l-4.5,5C14.5,25.733,14.3,27.066,14,28.9z"/>
	<path style="fill-rule:evenodd;clip-rule:evenodd;fill:#867B6C;" d="M3.2,36.15L2.7,36c-0.833-0.3-1.617-0.517-2.35-0.65l-0.3-0.6
		c0-0.1,0-0.184,0-0.25L0,33.95C0,33.616,0,33.3,0,33l0.85-3.95c0.433-1.467,1.05-3.1,1.85-4.899C3.467,22.45,4.117,21,4.65,19.8
		c0.033,0.233,0.067,0.467,0.1,0.7v0.25c0.3,0.1,0.633,0.183,1,0.25c0.3,0.033,0.583,0.05,0.85,0.05h0.05
		c0.8,0.034,1.717-0.15,2.75-0.55c0.167,0.467,0.333,0.933,0.5,1.4c1,2.767,1.3,5.133,0.9,7.1l-0.15,0.55L10.1,30.9L9.5,31.8
		C8.633,33,7.35,34.366,5.65,35.9l-1,0.8C4.15,36.5,3.667,36.316,3.2,36.15z M14,28.9c0.3-1.834,0.5-3.167,0.6-4l4.5-5
		c-0.133,1.033-0.483,4.117-1.05,9.25c-0.8,4.533-1.95,6.449-3.45,5.75c-0.5-0.2-0.783-0.467-0.85-0.801
		c0.033-0.466,0.033-0.883,0-1.25C13.683,31.85,13.767,30.533,14,28.9z"/>
</g>
</svg>
