<?xml version="1.0" encoding="iso-8859-1"?>
<!-- Generator: Adobe Illustrator 15.1.0, SVG Export Plug-In . SVG Version: 6.00 Build 0)  -->
<!DOCTYPE svg PUBLIC "-//W3C//DTD SVG 1.1//EN" "http://www.w3.org/Graphics/SVG/1.1/DTD/svg11.dtd">
<svg version="1.1" id="Layer_1" xmlns="http://www.w3.org/2000/svg" xmlns:xlink="http://www.w3.org/1999/xlink" x="0px" y="0px"
	 width="141.3px" height="337.3px" viewBox="0 0 141.3 337.3" style="enable-background:new 0 0 141.3 337.3;" xml:space="preserve"
	>
<g>
	
		<linearGradient id="SVGID_1_" gradientUnits="userSpaceOnUse" x1="52.7227" y1="173.6631" x2="127.8413" y2="173.6631" gradientTransform="matrix(0.9988 0.0499 -0.0499 0.9988 8.555129e-005 -1.568124e-004)">
		<stop  offset="0" style="stop-color:#FFFFFF;stop-opacity:0.6275"/>
		<stop  offset="0.2627" style="stop-color:#FDFDFD;stop-opacity:0.6235"/>
		<stop  offset="0.4" style="stop-color:#F5F5F5;stop-opacity:0.6118"/>
		<stop  offset="0.5098" style="stop-color:#E7E7E7;stop-opacity:0.5882"/>
		<stop  offset="0.6039" style="stop-color:#D4D4D4;stop-opacity:0.5569"/>
		<stop  offset="0.6863" style="stop-color:#BCBCBC;stop-opacity:0.5137"/>
		<stop  offset="0.7647" style="stop-color:#9D9D9D;stop-opacity:0.4627"/>
		<stop  offset="0.8353" style="stop-color:#797979;stop-opacity:0.4"/>
		<stop  offset="0.902" style="stop-color:#4F4F4F;stop-opacity:0.3294"/>
		<stop  offset="0.9608" style="stop-color:#202020;stop-opacity:0.251"/>
		<stop  offset="1" style="stop-color:#000000;stop-opacity:0.2"/>
	</linearGradient>
	<path style="fill-rule:evenodd;clip-rule:evenodd;fill:url(#SVGID_1_);" d="M109,71.25c0.167,2,0.417,4.8,0.75,8.4
		c0.134,3.233-0.116,6.767-0.75,10.6c-0.5,2.934-1.167,9.483-2,19.65c-0.833,9.833-1.5,16.117-2,18.85
		c-0.533,2.8-2.05,9.117-4.55,18.95c-2.667,10.4-4.316,17.083-4.95,20.05c-2.033,9.733-3.533,20.066-4.5,31
		c-0.4,4.633-1.05,9.133-1.95,13.5c-0.533,2.667-1.55,7.667-3.05,15c-1.033,5.533-1.7,10.8-2,15.8
		c-0.167,2.733-0.333,6.134-0.5,10.2c-0.134,1.767-0.967,7.083-2.5,15.95c-1.5,8.667-2.333,14.35-2.5,17.05
		c-0.167,2.467-0.283,7.066-0.35,13.8c-0.233,5.8-0.95,9.367-2.15,10.7c-0.9,7.1-1.4,10.934-1.5,11.5
		c1.033-2.934,1.083-1.3,0.15,4.9c-0.434,3.1-0.983,6.467-1.65,10.1c-1.467,0.434-2.6-3.184-3.4-10.85
		c-0.1-1.033-0.467-6.75-1.1-17.15c-1.667-31.333-2.667-49-3-53c-0.167-1.833-0.833-4.566-2-8.2c-1.434-4.433-2.6-9.033-3.5-13.8
		c-1.066-5.733-1.917-11.9-2.55-18.5c-0.634-7.5-1.117-13.167-1.45-17c-1.333-15.467-2.833-27.133-4.5-35
		c-0.467-2.2-2.2-9.967-5.2-23.3c-2.633-11.767-4.233-19.167-4.8-22.2c-0.533-2.767-1.117-7.3-1.75-13.6
		c-0.7-6.733-1.283-11.533-1.75-14.4c-0.633-3.833-0.883-7.367-0.75-10.6c0.333-3.6,0.583-6.4,0.75-8.4
		c0.333-7.566,0.684-14.1,1.05-19.6c0.733-10.533,1.717-16.833,2.95-18.9c1.6-2.7,4.75-5.583,9.45-8.65
		c5.5-3.633,10.95-5.833,16.35-6.6c5.233,1.3,11.117,1.816,17.65,1.55c4.333,1.5,8.5,3.733,12.5,6.7c3.467,2.6,5.816,4.934,7.05,7
		s2.217,8.367,2.95,18.9C108.316,57.15,108.667,63.684,109,71.25z"/>
	<g>
		<linearGradient id="SVGID_2_" gradientUnits="userSpaceOnUse" x1="65.75" y1="99.8999" x2="159.125" y2="99.8999">
			<stop  offset="0" style="stop-color:#000000;stop-opacity:0.2"/>
			<stop  offset="0.8549" style="stop-color:#000000;stop-opacity:0.2"/>
			<stop  offset="1" style="stop-color:#000000;stop-opacity:0.2"/>
		</linearGradient>
		<path style="fill-rule:evenodd;clip-rule:evenodd;fill:url(#SVGID_2_);" d="M67.8,17.5c5.233,1.3,11.117,1.816,17.65,1.55
			c4.333,1.5,8.5,3.733,12.5,6.7c3.467,2.6,5.816,4.934,7.05,7c0.8,1.3,1.483,4.3,2.05,9H107c0.033,0.733-0.233,1.8-0.8,3.2
			c-0.3,0.767-0.75,1.816-1.351,3.15c-0.366,0.966-0.6,1.933-0.699,2.9c-0.101,0.7-0.15,1.733-0.15,3.1c0,0.533,0.134,1.65,0.4,3.35
			c0.233,1.4,0.267,2.5,0.1,3.3c-0.167,0.7-0.65,1.633-1.45,2.8c-0.8,1.167-1.267,2.034-1.399,2.6c0.6,0.1,1.517,0.133,2.75,0.1
			c0.199,2.066,0.716,5.15,1.55,9.25c0.833,4.133,1.333,7.2,1.5,9.2c0.267,2.767,0.25,5.033-0.05,6.8c-0.101,0.566-0.4,1.3-0.9,2.2
			c-0.566,1.033-0.917,1.75-1.05,2.15c-0.167,0.533-0.267,1.25-0.3,2.15c0,1-0.051,1.717-0.15,2.15
			c-0.033,0.2-0.283,0.717-0.75,1.55c-0.333,0.633-0.45,1.167-0.35,1.6c0.1,0.367,0.399,0.7,0.899,1c0.566,0.367,0.934,0.7,1.101,1
			c0.3,0.567,0.399,1.567,0.3,3c-0.066,0.8-0.15,1.833-0.25,3.1c0.033,1.067,0.033,1.817,0,2.25c-0.101,0.7-0.3,1.4-0.601,2.1
			c-1.3,2.934-3.116,5.566-5.449,7.9c-2.233,2.233-4.801,4.05-7.7,5.45c1.2,0.3,2.783,0.316,4.75,0.05s3.517-0.683,4.649-1.25
			c0.434,0.7,0.567,1.667,0.4,2.9c-0.033,0.233-0.25,1.2-0.65,2.9c-0.066,0.366-0.183,0.883-0.35,1.55c-0.134,0.6-0.3,1.1-0.5,1.5
			c-0.167,0.367-0.55,0.917-1.15,1.65c-0.5,0.6-0.833,1.2-1,1.8c-0.5,1.966-0.666,5.466-0.5,10.5c0.167,4.6-0.25,8.083-1.25,10.45
			c-0.233,0.567-0.833,1.267-1.8,2.1c-0.967,0.8-1.55,1.467-1.75,2c-0.166,0.4-0.149,0.883,0.05,1.45c0.267,0.8,0.4,1.267,0.4,1.4
			c0.1,1.067-0.066,2.483-0.5,4.25c-0.1,0.434-0.366,2.117-0.8,5.051c-0.334,2.1-0.767,3.732-1.3,4.899v-0.05
			c-0.9-0.1-2.267-0.083-4.101,0.05c0.101-0.566,0.601-1.383,1.5-2.45c0.967-1.133,1.533-2,1.7-2.6
			c0.934-3.467,1.233-6.283,0.9-8.45c-1.134,0.467-2.101,0.583-2.9,0.351c0.033-0.167,0.017-0.467-0.05-0.9s-0.084-0.733-0.05-0.9
			c-0.733,0.633-1.65,1.433-2.75,2.4c-0.934,0.6-2.101,0.7-3.5,0.3c0.166-0.7,0.583-1.216,1.25-1.55
			c0.833-0.4,1.316-0.684,1.449-0.85c0.5-0.6,0.817-1.2,0.95-1.8c0.101-0.367,0.167-1.05,0.2-2.05c0-1.9,0.017-2.983,0.05-3.25
			c0.167-1.033,0.684-1.983,1.55-2.85c1.134-1.134,1.834-1.934,2.101-2.4c0.434-0.733,0.7-1.75,0.8-3.05l0.05-2.25l0.45-0.25
			l-0.45-0.05c0-1.4-0.217-2.55-0.649-3.45c-0.434-0.033-0.884,0.1-1.351,0.4c-0.633,0.333-1.05,0.534-1.25,0.6
			c-0.733,0.167-2.017,0.333-3.85,0.5c-0.733,0.066-1.733,0.083-3,0.05c-1.566-0.033-2.566-0.05-3-0.05c-1.8,0-3.717-0.267-5.75-0.8
			c-0.767-0.2-2.583-0.784-5.45-1.75c0.934,0,2.5,0.2,4.7,0.6c2,0.4,3.583,0.55,4.75,0.45c2.967-0.233,5.967-0.816,9-1.75
			c0.833-0.233,2.233-0.633,4.2-1.2c1.699-0.566,2.899-1.3,3.6-2.2l0.3-0.4l1.7-0.95h-1.25c0.1-0.667-0.434-1.033-1.6-1.1
			c-0.301-0.033-1.317,0-3.051,0.1c1.434-0.6,2.534-1.233,3.301-1.9c0.933-0.867,1.466-1.9,1.6-3.1
			c0.134-1.633,0.116-2.65-0.05-3.05c-0.3-0.733-1.117-1.05-2.45-0.95c-0.667,0.033-1.384,0.217-2.15,0.55
			c-1.033,0.467-1.733,0.75-2.1,0.85c-0.767,0.233-1.833,0.317-3.2,0.25c-2.1-0.1-3.2-0.15-3.3-0.15c-4.4,0-7.316-0.467-8.75-1.4
			c0.634-0.1,2.55-0.3,5.75-0.6c2.366-0.2,4.283-0.583,5.75-1.15c2.167-0.833,4.467-2.15,6.9-3.95c3-2.233,5.35-4.2,7.05-5.9
			c1.3-1.167,2.3-2.117,3-2.85c1.267-1.267,2.066-2.35,2.399-3.25c0.134-0.367,0.217-0.983,0.25-1.85
			c0.067-0.933,0.017-1.55-0.149-1.85c-0.2-0.367-0.783-0.717-1.75-1.05s-1.601-0.716-1.9-1.15c0.367-0.367,1.084-0.85,2.15-1.45
			c1.033-0.533,1.7-1.017,2-1.45l-0.4-0.1c0.434-0.066,0.717-0.367,0.851-0.9c0.033-0.167,0.066-0.7,0.1-1.6
			c0.033-1.367,0.366-2.967,1-4.8c1.066-3.233,1.35-6.333,0.85-9.3c-0.5-3.066-1.833-5.75-4-8.05c-0.6-0.633-0.966-1.25-1.1-1.85
			c-0.066-0.733-0.2-1.4-0.4-2c-0.233-0.8-0.75-1.45-1.55-1.95c-0.467-0.333-1.25-0.7-2.35-1.1c-1.367-0.3-2.351-0.6-2.95-0.9
			c-0.267-0.133-0.616-0.466-1.05-1c-0.434-0.5-0.75-0.8-0.95-0.9c-0.667-0.3-1.583-0.316-2.75-0.05c-1.333,0.3-2.267,0.4-2.8,0.3
			c0.133-0.333,0.5-0.9,1.1-1.7c0.5-0.667,0.816-1.284,0.95-1.85c0.333-1.333,0.333-3.317,0-5.95c-0.066-0.466-0.267-1.45-0.6-2.95
			c-0.267-1.267-0.417-2.267-0.45-3c-0.033-1.167,0.283-2,0.95-2.5c1.033-0.5,1.85-1,2.449-1.5c0.601-0.434,1-1.083,1.2-1.95
			c0.134-1.066,0.283-1.917,0.45-2.55c0.333-1.4,0.366-3.184,0.1-5.35c-0.166-1.233-0.566-2.267-1.199-3.1
			c-0.233-0.333-1.034-1.167-2.4-2.5c-0.267-0.233-0.934-0.934-2-2.1c-0.833-0.867-1.55-1.517-2.15-1.95
			c-0.6-0.467-1.517-1.034-2.75-1.7c-1.3-0.7-2.216-1.25-2.75-1.65c-2.6-1.6-4.633-2.917-6.1-3.95c-2.7-1.833-4.45-3.55-5.25-5.15
			L67.8,17.5z"/>
		<linearGradient id="SVGID_3_" gradientUnits="userSpaceOnUse" x1="65.7124" y1="191.9746" x2="159.0874" y2="191.9746">
			<stop  offset="0" style="stop-color:#000000;stop-opacity:0.2"/>
			<stop  offset="0.8549" style="stop-color:#000000;stop-opacity:0.2"/>
			<stop  offset="1" style="stop-color:#000000;stop-opacity:0.2"/>
		</linearGradient>
		<path style="fill-rule:evenodd;clip-rule:evenodd;fill:url(#SVGID_3_);" d="M86.35,194.6c-1.233-0.033-2.25-0.066-3.05-0.1
			c-1.5-0.066-2.583-0.184-3.25-0.35c3.334-1.434,5.967-3.067,7.9-4.9v1c0.033,0.7,0.233,1.4,0.6,2.1
			c0.566,1.101,0.884,1.733,0.95,1.9l0.05,0.15l-0.35,0.3C87.967,194.7,87.017,194.667,86.35,194.6z"/>
		<linearGradient id="SVGID_4_" gradientUnits="userSpaceOnUse" x1="71.6377" y1="273.5254" x2="108.4627" y2="273.5254">
			<stop  offset="0" style="stop-color:#000000;stop-opacity:0.2"/>
			<stop  offset="0.8549" style="stop-color:#000000;stop-opacity:0.2"/>
			<stop  offset="1" style="stop-color:#000000;stop-opacity:0.2"/>
		</linearGradient>
		<path style="fill-rule:evenodd;clip-rule:evenodd;fill:url(#SVGID_4_);" d="M82.4,250.3c0.267,0.8,0.017,1.717-0.75,2.75
			c-0.867,1.067-1.233,1.934-1.101,2.601c0.134,0,0.367,0.033,0.7,0.1c0.3,0.066,0.517,0.083,0.65,0.05
			c0.033,0.601-0.084,1.417-0.351,2.45c-0.366,1.3-0.566,2.133-0.6,2.5c-0.101,0.934-0.134,2.1-0.101,3.5
			c0.034,0.8,0.084,1.983,0.15,3.55c0,0.733-0.05,1.417-0.15,2.05c-1.399,8.167-2.183,13.634-2.35,16.4c-0.1,1.5-0.184,4.167-0.25,8
			l-0.15,0.5l-0.85,2c-0.167-2.667-0.25-4.167-0.25-4.5c0-3.7,0.116-6.483,0.35-8.35c0.067-0.434,0.067-2.25,0-5.45
			c-0.066-2.233,0.25-3.967,0.95-5.2c0.134-0.233,0.566-0.833,1.3-1.8c0.467-0.634,0.767-1.267,0.9-1.9
			c0.2-1.033,0.184-2.783-0.05-5.25c-0.066,0-1.283,0.167-3.65,0.5c-1.833,0.267-2.767-0.066-2.8-1c1.066-0.233,2.033-0.933,2.9-2.1
			c0.699-0.967,1.233-2.083,1.6-3.351c0.333-1.232,0.25-1.916-0.25-2.05c-0.934,0.033-1.767-0.017-2.5-0.149
			c1.167-0.7,2-1.217,2.5-1.551c0.866-0.533,1.483-1.267,1.85-2.199l0.4-1.101C81.134,251.267,81.767,250.934,82.4,250.3z"/>
		<linearGradient id="SVGID_5_" gradientUnits="userSpaceOnUse" x1="71.6377" y1="316.5742" x2="108.4627" y2="316.5742">
			<stop  offset="0" style="stop-color:#000000;stop-opacity:0.2"/>
			<stop  offset="0.8549" style="stop-color:#000000;stop-opacity:0.2"/>
			<stop  offset="1" style="stop-color:#000000;stop-opacity:0.2"/>
		</linearGradient>
		<path style="fill-rule:evenodd;clip-rule:evenodd;fill:url(#SVGID_5_);" d="M73.7,313.85c0.2,1.733,0.3,3.067,0.3,4v1.45l-0.4-1.6
			c-0.199-0.567-0.333-0.967-0.399-1.2c-0.134-0.467-0.184-0.883-0.15-1.25C73.083,314.917,73.3,314.45,73.7,313.85z"/>
		<linearGradient id="SVGID_6_" gradientUnits="userSpaceOnUse" x1="71.6377" y1="221.7754" x2="108.4627" y2="221.7754">
			<stop  offset="0" style="stop-color:#000000;stop-opacity:0.2"/>
			<stop  offset="0.8549" style="stop-color:#000000;stop-opacity:0.2"/>
			<stop  offset="1" style="stop-color:#000000;stop-opacity:0.2"/>
		</linearGradient>
		<path style="fill-rule:evenodd;clip-rule:evenodd;fill:url(#SVGID_6_);" d="M89.2,194.7h0.45c0.666,2.2,0.783,5.417,0.35,9.649
			c-0.1,0.801-0.4,1.783-0.9,2.95c-0.633,1.4-1.017,2.367-1.149,2.9c-0.233,0.933-0.417,2.217-0.55,3.85
			c-0.167,2.067-0.301,3.384-0.4,3.95c-0.2,1.233-0.5,2.316-0.9,3.25c-0.033,0.066-0.533,1.066-1.5,3
			c-0.066,0.133-0.35,0.6-0.85,1.4c-0.366,0.6-0.6,1.083-0.7,1.449c-0.166,0.667-0.116,1.233,0.15,1.7
			c0.434,0.8,0.666,1.25,0.7,1.351c0.267,1.066,0.366,2.482,0.3,4.25c-0.033,1-0.101,2.449-0.2,4.35c0,1.667-0.033,2.833-0.1,3.5
			c-0.134,1.2-0.45,2.316-0.95,3.35c-0.2,0.467-0.867,1.551-2,3.25c0.1-1,0.083-1.85-0.05-2.55c-1.067,0-1.851-0.05-2.351-0.149
			c0.101-0.5,0.384-1.134,0.851-1.9c0.533-0.867,0.866-1.517,1-1.95c0.133-0.467,0.183-1.066,0.149-1.8
			c-0.033-0.8-0.05-1.4-0.05-1.8c-0.233-2.867-0.4-5.033-0.5-6.5c-0.1-0.967-0.167-1.733-0.2-2.3
			c-0.033-0.967,0.017-1.717,0.15-2.25c0.166-0.601,0.55-1.2,1.149-1.801c0.767-0.8,1.233-1.35,1.4-1.649
			c0.833-1.267,1.333-3.583,1.5-6.95c-0.066-1.5-0.1-2.65-0.1-3.45c-0.034-1.399,0.116-2.5,0.449-3.3c0.267-0.633,0.934-1.5,2-2.6
			c0.934-1,1.483-1.9,1.65-2.7c0.1-0.434,0.083-2.25-0.05-5.45C87.85,197.316,88.267,195.633,89.2,194.7z"/>
		<linearGradient id="SVGID_7_" gradientUnits="userSpaceOnUse" x1="71.6377" y1="309.875" x2="108.4627" y2="309.875">
			<stop  offset="0" style="stop-color:#000000;stop-opacity:0.2"/>
			<stop  offset="0.8549" style="stop-color:#000000;stop-opacity:0.2"/>
			<stop  offset="1" style="stop-color:#000000;stop-opacity:0.2"/>
		</linearGradient>
		<path style="fill-rule:evenodd;clip-rule:evenodd;fill:url(#SVGID_7_);" d="M71.65,310.1c0.466-0.267,1.116-0.5,1.949-0.699
			l-0.05,0.949C73.517,310.35,72.884,310.267,71.65,310.1z"/>
		<linearGradient id="SVGID_8_" gradientUnits="userSpaceOnUse" x1="65.7124" y1="194.5508" x2="159.0874" y2="194.5508">
			<stop  offset="0" style="stop-color:#000000;stop-opacity:0.2"/>
			<stop  offset="0.8549" style="stop-color:#000000;stop-opacity:0.2"/>
			<stop  offset="1" style="stop-color:#000000;stop-opacity:0.2"/>
		</linearGradient>
		<polygon style="fill-rule:evenodd;clip-rule:evenodd;fill:url(#SVGID_8_);" points="89.55,194.4 89.65,194.7 89.2,194.7 		"/>
		<linearGradient id="SVGID_9_" gradientUnits="userSpaceOnUse" x1="71.6377" y1="194.5508" x2="108.4627" y2="194.5508">
			<stop  offset="0" style="stop-color:#000000;stop-opacity:0.2"/>
			<stop  offset="0.8549" style="stop-color:#000000;stop-opacity:0.2"/>
			<stop  offset="1" style="stop-color:#000000;stop-opacity:0.2"/>
		</linearGradient>
		<polygon style="fill-rule:evenodd;clip-rule:evenodd;fill:url(#SVGID_9_);" points="89.55,194.4 89.65,194.7 89.2,194.7 		"/>
		<linearGradient id="SVGID_10_" gradientUnits="userSpaceOnUse" x1="73.2998" y1="185.7754" x2="207.3998" y2="185.7754">
			<stop  offset="0" style="stop-color:#000000;stop-opacity:0.2"/>
			<stop  offset="0.8549" style="stop-color:#000000;stop-opacity:0.2"/>
			<stop  offset="1" style="stop-color:#000000;stop-opacity:0.2"/>
		</linearGradient>
		<path style="fill-rule:evenodd;clip-rule:evenodd;fill:url(#SVGID_10_);" d="M90.9,182.3c0.399,2.367-0.584,4.684-2.95,6.95
			c0.1-1.033,0.467-2.167,1.1-3.4c0.8-1.366,1.367-2.433,1.7-3.199C90.783,182.617,90.833,182.5,90.9,182.3z"/>
		<linearGradient id="SVGID_11_" gradientUnits="userSpaceOnUse" x1="73.2998" y1="250.0742" x2="207.3998" y2="250.0742">
			<stop  offset="0" style="stop-color:#000000;stop-opacity:0.2"/>
			<stop  offset="0.8549" style="stop-color:#000000;stop-opacity:0.2"/>
			<stop  offset="1" style="stop-color:#000000;stop-opacity:0.2"/>
		</linearGradient>
		<path style="fill-rule:evenodd;clip-rule:evenodd;fill:url(#SVGID_11_);" d="M79.6,251.15c0.267-0.634,0.717-1.4,1.351-2.301
			c-0.101,0.867-0.25,1.684-0.45,2.45C80.2,251.3,79.9,251.25,79.6,251.15z"/>
		<linearGradient id="SVGID_12_" gradientUnits="userSpaceOnUse" x1="73.2998" y1="312.0996" x2="207.3998" y2="312.0996">
			<stop  offset="0" style="stop-color:#000000;stop-opacity:0.2"/>
			<stop  offset="0.8549" style="stop-color:#000000;stop-opacity:0.2"/>
			<stop  offset="1" style="stop-color:#000000;stop-opacity:0.2"/>
		</linearGradient>
		<path style="fill-rule:evenodd;clip-rule:evenodd;fill:url(#SVGID_12_);" d="M73.55,310.35c0.566,0.134,0.851,0.75,0.851,1.851
			c-0.034,0.5-0.267,1.05-0.7,1.649C73.566,312.25,73.517,311.083,73.55,310.35z"/>
		<linearGradient id="SVGID_13_" gradientUnits="userSpaceOnUse" x1="73.2998" y1="325.375" x2="207.3998" y2="325.375">
			<stop  offset="0" style="stop-color:#000000;stop-opacity:0.2"/>
			<stop  offset="0.8549" style="stop-color:#000000;stop-opacity:0.2"/>
			<stop  offset="1" style="stop-color:#000000;stop-opacity:0.2"/>
		</linearGradient>
		<path style="fill-rule:evenodd;clip-rule:evenodd;fill:url(#SVGID_13_);" d="M74.5,322.6c0,1.301,0.083,2.584,0.25,3.851l-0.75,5
			l-0.5-0.75c-0.267-0.634-0.283-1.5-0.05-2.601c0.3-1.199,0.483-2.05,0.55-2.55c0.066-0.833,0.066-2.917,0-6.25
			C74.3,320.533,74.467,321.633,74.5,322.6z"/>
		<linearGradient id="SVGID_14_" gradientUnits="userSpaceOnUse" x1="73.2998" y1="303.0752" x2="207.3998" y2="303.0752">
			<stop  offset="0" style="stop-color:#000000;stop-opacity:0.2"/>
			<stop  offset="0.8549" style="stop-color:#000000;stop-opacity:0.2"/>
			<stop  offset="1" style="stop-color:#000000;stop-opacity:0.2"/>
		</linearGradient>
		<path style="fill-rule:evenodd;clip-rule:evenodd;fill:url(#SVGID_14_);" d="M76.4,305.8c0.3,1.3,0.133,2.2-0.5,2.7
			c-0.301,0.3-1.067,0.6-2.301,0.9c0.134-0.934,0.267-1.65,0.4-2.15c1.333-4.867,2.417-8.367,3.25-10.5c0.134,2.233,0,3.9-0.4,5
			c-0.033,0.1-0.383,0.717-1.05,1.85c-0.399,0.667-0.483,1.351-0.25,2.051L76.4,305.8z"/>
		<linearGradient id="SVGID_15_" gradientUnits="userSpaceOnUse" x1="65.7124" y1="118.0752" x2="159.0874" y2="118.0752">
			<stop  offset="0" style="stop-color:#000000;stop-opacity:0.2"/>
			<stop  offset="0.8549" style="stop-color:#000000;stop-opacity:0.2"/>
			<stop  offset="1" style="stop-color:#000000;stop-opacity:0.2"/>
		</linearGradient>
		<path style="fill-rule:evenodd;clip-rule:evenodd;fill:url(#SVGID_15_);" d="M108.35,58.7c0.2,3.733,0.417,7.917,0.65,12.55
			c0.167,2,0.417,4.8,0.75,8.4c0.134,3.233-0.116,6.767-0.75,10.6c-0.5,2.934-1.167,9.483-2,19.65c-0.833,9.833-1.5,16.117-2,18.85
			c-0.533,2.8-2.05,9.117-4.55,18.95c-2.667,10.4-4.316,17.083-4.95,20.05c-1.7,7.934-3.05,16.667-4.05,26.2l-0.45-0.2
			c-0.467,0.1-0.95,0.316-1.45,0.65l-0.05-0.15c-0.066-0.167-0.384-0.8-0.95-1.9c-0.366-0.699-0.566-1.399-0.6-2.1v-1
			c2.366-2.267,3.35-4.583,2.95-6.95c0.533-1.167,0.966-2.8,1.3-4.899c0.434-2.934,0.7-4.617,0.8-5.051
			c0.434-1.767,0.6-3.183,0.5-4.25c0-0.133-0.134-0.6-0.4-1.4c-0.199-0.567-0.216-1.05-0.05-1.45c0.2-0.533,0.783-1.2,1.75-2
			c0.967-0.833,1.566-1.533,1.8-2.1c1-2.367,1.417-5.85,1.25-10.45c-0.166-5.034,0-8.534,0.5-10.5c0.167-0.6,0.5-1.2,1-1.8
			c0.601-0.733,0.983-1.283,1.15-1.65c0.2-0.4,0.366-0.9,0.5-1.5c0.167-0.667,0.283-1.184,0.35-1.55c0.4-1.7,0.617-2.667,0.65-2.9
			c0.167-1.233,0.033-2.2-0.4-2.9c-1.133,0.567-2.683,0.983-4.649,1.25s-3.55,0.25-4.75-0.05c2.899-1.4,5.467-3.217,7.7-5.45
			c2.333-2.333,4.149-4.966,5.449-7.9c0.301-0.7,0.5-1.4,0.601-2.1c0.033-0.433,0.033-1.183,0-2.25c0.1-1.267,0.184-2.3,0.25-3.1
			c0.1-1.433,0-2.433-0.3-3c-0.167-0.3-0.534-0.633-1.101-1c-0.5-0.3-0.8-0.633-0.899-1c-0.101-0.433,0.017-0.966,0.35-1.6
			c0.467-0.833,0.717-1.35,0.75-1.55c0.1-0.433,0.15-1.15,0.15-2.15c0.033-0.9,0.133-1.617,0.3-2.15
			c0.133-0.4,0.483-1.117,1.05-2.15c0.5-0.9,0.8-1.634,0.9-2.2c0.3-1.767,0.316-4.033,0.05-6.8c-0.167-2-0.667-5.067-1.5-9.2
			c-0.834-4.1-1.351-7.184-1.55-9.25c-1.233,0.033-2.15,0-2.75-0.1c0.133-0.566,0.6-1.433,1.399-2.6c0.8-1.167,1.283-2.1,1.45-2.8
			c0.167-0.8,0.134-1.9-0.1-3.3c-0.267-1.7-0.4-2.817-0.4-3.35c0-1.367,0.05-2.4,0.15-3.1c0.1-0.967,0.333-1.934,0.699-2.9
			c0.601-1.333,1.051-2.383,1.351-3.15c0.566-1.4,0.833-2.467,0.8-3.2h0.05C107.55,45.85,107.983,51.5,108.35,58.7z"/>
		<linearGradient id="SVGID_16_" gradientUnits="userSpaceOnUse" x1="73.2998" y1="118.0752" x2="207.3998" y2="118.0752">
			<stop  offset="0" style="stop-color:#000000;stop-opacity:0.2"/>
			<stop  offset="0.8549" style="stop-color:#000000;stop-opacity:0.2"/>
			<stop  offset="1" style="stop-color:#000000;stop-opacity:0.2"/>
		</linearGradient>
		<path style="fill-rule:evenodd;clip-rule:evenodd;fill:url(#SVGID_16_);" d="M108.35,58.7c0.2,3.733,0.417,7.917,0.65,12.55
			c0.167,2,0.417,4.8,0.75,8.4c0.134,3.233-0.116,6.767-0.75,10.6c-0.5,2.934-1.167,9.483-2,19.65c-0.833,9.833-1.5,16.117-2,18.85
			c-0.533,2.8-2.05,9.117-4.55,18.95c-2.667,10.4-4.316,17.083-4.95,20.05c-1.7,7.934-3.05,16.667-4.05,26.2l-0.45-0.2
			c-0.467,0.1-0.95,0.316-1.45,0.65l-0.05-0.15c-0.066-0.167-0.384-0.8-0.95-1.9c-0.366-0.699-0.566-1.399-0.6-2.1v-1
			c2.366-2.267,3.35-4.583,2.95-6.95c0.533-1.167,0.966-2.8,1.3-4.899c0.434-2.934,0.7-4.617,0.8-5.051
			c0.434-1.767,0.6-3.183,0.5-4.25c0-0.133-0.134-0.6-0.4-1.4c-0.199-0.567-0.216-1.05-0.05-1.45c0.2-0.533,0.783-1.2,1.75-2
			c0.967-0.833,1.566-1.533,1.8-2.1c1-2.367,1.417-5.85,1.25-10.45c-0.166-5.034,0-8.534,0.5-10.5c0.167-0.6,0.5-1.2,1-1.8
			c0.601-0.733,0.983-1.283,1.15-1.65c0.2-0.4,0.366-0.9,0.5-1.5c0.167-0.667,0.283-1.184,0.35-1.55c0.4-1.7,0.617-2.667,0.65-2.9
			c0.167-1.233,0.033-2.2-0.4-2.9c-1.133,0.567-2.683,0.983-4.649,1.25s-3.55,0.25-4.75-0.05c2.899-1.4,5.467-3.217,7.7-5.45
			c2.333-2.333,4.149-4.966,5.449-7.9c0.301-0.7,0.5-1.4,0.601-2.1c0.033-0.433,0.033-1.183,0-2.25c0.1-1.267,0.184-2.3,0.25-3.1
			c0.1-1.433,0-2.433-0.3-3c-0.167-0.3-0.534-0.633-1.101-1c-0.5-0.3-0.8-0.633-0.899-1c-0.101-0.433,0.017-0.966,0.35-1.6
			c0.467-0.833,0.717-1.35,0.75-1.55c0.1-0.433,0.15-1.15,0.15-2.15c0.033-0.9,0.133-1.617,0.3-2.15
			c0.133-0.4,0.483-1.117,1.05-2.15c0.5-0.9,0.8-1.634,0.9-2.2c0.3-1.767,0.316-4.033,0.05-6.8c-0.167-2-0.667-5.067-1.5-9.2
			c-0.834-4.1-1.351-7.184-1.55-9.25c-1.233,0.033-2.15,0-2.75-0.1c0.133-0.566,0.6-1.433,1.399-2.6c0.8-1.167,1.283-2.1,1.45-2.8
			c0.167-0.8,0.134-1.9-0.1-3.3c-0.267-1.7-0.4-2.817-0.4-3.35c0-1.367,0.05-2.4,0.15-3.1c0.1-0.967,0.333-1.934,0.699-2.9
			c0.601-1.333,1.051-2.383,1.351-3.15c0.566-1.4,0.833-2.467,0.8-3.2h0.05C107.55,45.85,107.983,51.5,108.35,58.7z"/>
		<linearGradient id="SVGID_17_" gradientUnits="userSpaceOnUse" x1="71.6377" y1="232.2129" x2="108.4627" y2="232.2129">
			<stop  offset="0" style="stop-color:#000000;stop-opacity:0.2"/>
			<stop  offset="0.8549" style="stop-color:#000000;stop-opacity:0.2"/>
			<stop  offset="1" style="stop-color:#000000;stop-opacity:0.2"/>
		</linearGradient>
		<path style="fill-rule:evenodd;clip-rule:evenodd;fill:url(#SVGID_17_);" d="M89.65,194.7h1.75l-0.4,4.05
			c-0.4,4.633-1.05,9.133-1.95,13.5c-0.533,2.667-1.55,7.667-3.05,15c-1.033,5.533-1.7,10.8-2,15.8
			c-0.167,2.733-0.333,6.134-0.5,10.2c-0.133,1.461-1.008,6.952-2.625,16.475C80.958,269.129,81,268.487,81,267.8
			c-0.066-1.566-0.116-2.75-0.15-3.55c-0.033-1.4,0-2.566,0.101-3.5c0.033-0.367,0.233-1.2,0.6-2.5
			c0.267-1.033,0.384-1.85,0.351-2.45c-0.134,0.033-0.351,0.017-0.65-0.05c-0.333-0.066-0.566-0.1-0.7-0.1
			c-0.133-0.667,0.233-1.533,1.101-2.601c0.767-1.033,1.017-1.95,0.75-2.75c-0.634,0.634-1.267,0.967-1.9,1
			c0.2-0.767,0.35-1.583,0.45-2.45c1.133-1.699,1.8-2.783,2-3.25c0.5-1.033,0.816-2.149,0.95-3.35c0.066-0.667,0.1-1.833,0.1-3.5
			c0.1-1.9,0.167-3.35,0.2-4.35c0.066-1.768-0.033-3.184-0.3-4.25c-0.034-0.101-0.267-0.551-0.7-1.351
			c-0.267-0.467-0.316-1.033-0.15-1.7c0.101-0.366,0.334-0.85,0.7-1.449c0.5-0.801,0.783-1.268,0.85-1.4
			c0.967-1.934,1.467-2.934,1.5-3c0.4-0.934,0.7-2.017,0.9-3.25c0.1-0.566,0.233-1.883,0.4-3.95c0.133-1.633,0.316-2.917,0.55-3.85
			c0.133-0.533,0.517-1.5,1.149-2.9c0.5-1.167,0.801-2.149,0.9-2.95C90.434,200.117,90.316,196.9,89.65,194.7z"/>
		<linearGradient id="SVGID_18_" gradientUnits="userSpaceOnUse" x1="73.2998" y1="232.2129" x2="207.3998" y2="232.2129">
			<stop  offset="0" style="stop-color:#000000;stop-opacity:0.2"/>
			<stop  offset="0.8549" style="stop-color:#000000;stop-opacity:0.2"/>
			<stop  offset="1" style="stop-color:#000000;stop-opacity:0.2"/>
		</linearGradient>
		<path style="fill-rule:evenodd;clip-rule:evenodd;fill:url(#SVGID_18_);" d="M89.65,194.7h1.75l-0.4,4.05
			c-0.4,4.633-1.05,9.133-1.95,13.5c-0.533,2.667-1.55,7.667-3.05,15c-1.033,5.533-1.7,10.8-2,15.8
			c-0.167,2.733-0.333,6.134-0.5,10.2c-0.133,1.461-1.008,6.952-2.625,16.475C80.958,269.129,81,268.487,81,267.8
			c-0.066-1.566-0.116-2.75-0.15-3.55c-0.033-1.4,0-2.566,0.101-3.5c0.033-0.367,0.233-1.2,0.6-2.5
			c0.267-1.033,0.384-1.85,0.351-2.45c-0.134,0.033-0.351,0.017-0.65-0.05c-0.333-0.066-0.566-0.1-0.7-0.1
			c-0.133-0.667,0.233-1.533,1.101-2.601c0.767-1.033,1.017-1.95,0.75-2.75c-0.634,0.634-1.267,0.967-1.9,1
			c0.2-0.767,0.35-1.583,0.45-2.45c1.133-1.699,1.8-2.783,2-3.25c0.5-1.033,0.816-2.149,0.95-3.35c0.066-0.667,0.1-1.833,0.1-3.5
			c0.1-1.9,0.167-3.35,0.2-4.35c0.066-1.768-0.033-3.184-0.3-4.25c-0.034-0.101-0.267-0.551-0.7-1.351
			c-0.267-0.467-0.316-1.033-0.15-1.7c0.101-0.366,0.334-0.85,0.7-1.449c0.5-0.801,0.783-1.268,0.85-1.4
			c0.967-1.934,1.467-2.934,1.5-3c0.4-0.934,0.7-2.017,0.9-3.25c0.1-0.566,0.233-1.883,0.4-3.95c0.133-1.633,0.316-2.917,0.55-3.85
			c0.133-0.533,0.517-1.5,1.149-2.9c0.5-1.167,0.801-2.149,0.9-2.95C90.434,200.117,90.316,196.9,89.65,194.7z"/>
		<linearGradient id="SVGID_19_" gradientUnits="userSpaceOnUse" x1="71.6377" y1="310.3496" x2="108.4627" y2="310.3496">
			<stop  offset="0" style="stop-color:#000000;stop-opacity:0.2"/>
			<stop  offset="0.8549" style="stop-color:#000000;stop-opacity:0.2"/>
			<stop  offset="1" style="stop-color:#000000;stop-opacity:0.2"/>
		</linearGradient>
		<path style="fill-rule:evenodd;clip-rule:evenodd;fill:url(#SVGID_19_);" d="M77.25,296.75l0.85-2l0.15-0.5
			c-0.033,4.467-0.15,7.783-0.35,9.95c-0.367,3.366-1,5.55-1.9,6.55c-0.9,7.1-1.4,10.934-1.5,11.5c1.066-3.066,1.15-1.667,0.25,4.2
			c-0.167-1.267-0.25-2.55-0.25-3.851c-0.033-0.967-0.2-2.066-0.5-3.3v-1.45c0-0.933-0.1-2.267-0.3-4
			c0.434-0.6,0.666-1.149,0.7-1.649c0-1.101-0.284-1.717-0.851-1.851l0.05-0.949c1.233-0.301,2-0.601,2.301-0.9
			c0.633-0.5,0.8-1.4,0.5-2.7l-0.851-0.149c-0.233-0.7-0.149-1.384,0.25-2.051c0.667-1.133,1.017-1.75,1.05-1.85
			C77.25,300.65,77.384,298.983,77.25,296.75z"/>
		<linearGradient id="SVGID_20_" gradientUnits="userSpaceOnUse" x1="73.2998" y1="310.3496" x2="207.3998" y2="310.3496">
			<stop  offset="0" style="stop-color:#000000;stop-opacity:0.2"/>
			<stop  offset="0.8549" style="stop-color:#000000;stop-opacity:0.2"/>
			<stop  offset="1" style="stop-color:#000000;stop-opacity:0.2"/>
		</linearGradient>
		<path style="fill-rule:evenodd;clip-rule:evenodd;fill:url(#SVGID_20_);" d="M77.25,296.75l0.85-2l0.15-0.5
			c-0.033,4.467-0.15,7.783-0.35,9.95c-0.367,3.366-1,5.55-1.9,6.55c-0.9,7.1-1.4,10.934-1.5,11.5c1.066-3.066,1.15-1.667,0.25,4.2
			c-0.167-1.267-0.25-2.55-0.25-3.851c-0.033-0.967-0.2-2.066-0.5-3.3v-1.45c0-0.933-0.1-2.267-0.3-4
			c0.434-0.6,0.666-1.149,0.7-1.649c0-1.101-0.284-1.717-0.851-1.851l0.05-0.949c1.233-0.301,2-0.601,2.301-0.9
			c0.633-0.5,0.8-1.4,0.5-2.7l-0.851-0.149c-0.233-0.7-0.149-1.384,0.25-2.051c0.667-1.133,1.017-1.75,1.05-1.85
			C77.25,300.65,77.384,298.983,77.25,296.75z"/>
		<linearGradient id="SVGID_21_" gradientUnits="userSpaceOnUse" x1="65.7124" y1="194.2246" x2="159.0874" y2="194.2246">
			<stop  offset="0" style="stop-color:#000000;stop-opacity:0.2"/>
			<stop  offset="0.8549" style="stop-color:#000000;stop-opacity:0.2"/>
			<stop  offset="1" style="stop-color:#000000;stop-opacity:0.2"/>
		</linearGradient>
		<path style="fill-rule:evenodd;clip-rule:evenodd;fill:url(#SVGID_21_);" d="M89.55,194.4c0.5-0.334,0.983-0.551,1.45-0.65
			l0.45,0.2l-0.05,0.75h-1.75L89.55,194.4z"/>
		<linearGradient id="SVGID_22_" gradientUnits="userSpaceOnUse" x1="71.6377" y1="194.2246" x2="108.4627" y2="194.2246">
			<stop  offset="0" style="stop-color:#000000;stop-opacity:0.2"/>
			<stop  offset="0.8549" style="stop-color:#000000;stop-opacity:0.2"/>
			<stop  offset="1" style="stop-color:#000000;stop-opacity:0.2"/>
		</linearGradient>
		<path style="fill-rule:evenodd;clip-rule:evenodd;fill:url(#SVGID_22_);" d="M89.55,194.4c0.5-0.334,0.983-0.551,1.45-0.65
			l0.45,0.2l-0.05,0.75h-1.75L89.55,194.4z"/>
		<linearGradient id="SVGID_23_" gradientUnits="userSpaceOnUse" x1="73.2998" y1="194.2246" x2="207.3998" y2="194.2246">
			<stop  offset="0" style="stop-color:#000000;stop-opacity:0.2"/>
			<stop  offset="0.8549" style="stop-color:#000000;stop-opacity:0.2"/>
			<stop  offset="1" style="stop-color:#000000;stop-opacity:0.2"/>
		</linearGradient>
		<path style="fill-rule:evenodd;clip-rule:evenodd;fill:url(#SVGID_23_);" d="M89.55,194.4c0.5-0.334,0.983-0.551,1.45-0.65
			l0.45,0.2l-0.05,0.75h-1.75L89.55,194.4z"/>
		<linearGradient id="SVGID_24_" gradientUnits="userSpaceOnUse" x1="20.25" y1="97.8501" x2="85.95" y2="97.8501">
			<stop  offset="0" style="stop-color:#FFFFFF;stop-opacity:0.6275"/>
			<stop  offset="1" style="stop-color:#FFFFFF;stop-opacity:0.2"/>
		</linearGradient>
		<path style="fill-rule:evenodd;clip-rule:evenodd;fill:url(#SVGID_24_);" d="M51,138.6c-0.6,2.033,0.3,3.316,2.7,3.85
			c0.667,0.133,2.6,0.233,5.8,0.3l-1-3c-1.633-0.5-2.867-0.85-3.7-1.05C53.333,138.333,52.066,138.3,51,138.6z M41.55,38.75
			c0.333-2.267,0.567-3.983,0.7-5.15l0.25,0.15c0.633,0.833,0.9,2.35,0.8,4.55c-0.033,1.2-0.15,2.817-0.35,4.85
			c0,2.133,0.1,3.784,0.3,4.95c0.267,1.833,0.85,3.35,1.75,4.55c0.367,0.534,0.867,1.167,1.5,1.9c0.5,0.634,0.867,1.35,1.1,2.15
			c0.566,1.9,0.867,3.75,0.9,5.55h-0.2c-0.633,0.9-0.6,1.6,0.1,2.1l-0.05,0.15c-0.3,2.6-0.467,3.983-0.5,4.15
			c-0.133,1.7-0.067,3.1,0.2,4.2c0.467,1.9,1.5,3.383,3.1,4.45c0.934,0.634,2.534,1.467,4.8,2.5c-0.2,0.6-0.733,1.134-1.6,1.6
			c-0.434,0.233-1.217,0.55-2.35,0.95c-0.434,3.667,3.167,6,10.8,7c4.667,0.6,8.566,0.883,11.7,0.85c1.1,0,2.85-0.067,5.25-0.2
			c2.167-0.1,3.866,0.017,5.1,0.35c-2.333,1.633-5.533,2.566-9.6,2.8c-5.333-0.267-11.333-1.316-18-3.15
			c-0.967-0.267-3.1-1.066-6.4-2.4c-0.8-0.267-1.483-0.5-2.05-0.7c-1.1-0.433-1.7-0.816-1.8-1.15c-0.1-0.4,0.367-0.9,1.4-1.5
			c1.167-0.667,1.833-1.133,2-1.4c0.567-0.934,0.75-1.717,0.55-2.35c-0.134-0.533-0.617-1.117-1.45-1.75
			c-0.867-0.633-1.467-1.083-1.8-1.35c-0.534-0.4-0.983-0.95-1.35-1.65c-0.7-1.5-0.983-3-0.85-4.5l-2-1c0,0.233-0.133,1.467-0.4,3.7
			c-0.167,1.267,0.15,2.383,0.95,3.35c1.067,1.3,1.6,1.967,1.6,2c0.167,0.434-0.1,1.083-0.8,1.95c-0.4,0.5-1,1.15-1.8,1.95
			c-0.566,0.7-0.716,1.55-0.45,2.55c0.466,1.9,2.1,3.517,4.9,4.85c2.066,1,4.383,1.7,6.95,2.1l1.4,0.25
			c0.333,0.366,0.683,0.65,1.05,0.85c-0.066,0.867-0.783,1.4-2.15,1.6c-1.7,0.233-2.667,0.467-2.9,0.7c-0.3,0.3-0.467,0.867-0.5,1.7
			c0,0.634,0.083,1.267,0.25,1.9c0.933,4.133,4.883,7.267,11.85,9.4c-0.367,0.133-1.434,0.15-3.2,0.05
			c-1.833-0.1-3.133-0.066-3.9,0.1l-0.85-0.5c-0.3-1.434-2.667-2.083-7.1-1.95c-0.5,2.1,1.633,3.467,6.4,4.1l0.15,0.8
			c0.366,1.2,1.75,2.383,4.15,3.55c1.8,0.9,3.6,1.566,5.4,2c2.5,0.633,6.066,0.967,10.7,1c5.1,0,8.684,0.184,10.75,0.55
			c-0.134,0.8-1.55,1.7-4.25,2.7c-2.134,0.8-4.05,1.35-5.75,1.65c-1.434,0.233-3.101,0.4-5,0.5c-0.834,0.034-2.5,0.067-5,0.1
			c-2.2,0-3.917-0.066-5.15-0.2c-1.8-0.233-3.466-0.65-5-1.25l-1.4-0.5c1.967,0.6,4.034,0.9,6.2,0.9h8
			c0.966,0.033,2.65,0.116,5.05,0.25c2.133-0.034,3.75-0.434,4.85-1.2l-12.5-2c-2.033,0.167-4.583-0.467-7.65-1.9
			c-3.434-1.633-5.917-2.517-7.45-2.65c-2.033-0.233-3.1,0.167-3.2,1.2c-0.134,1,0.65,2.083,2.35,3.25l0.95,0.6
			c0.133,1,0.667,2.033,1.6,3.1c1.2,1.333,1.933,2.267,2.2,2.8c0.3,0.534,0.417,1.383,0.35,2.55c0,0.633-0.05,1.517-0.15,2.65
			c-0.033,2-0.05,3.066-0.05,3.2c0.1,1,0.517,1.917,1.25,2.75c0.433,0.5,1.533,1.534,3.3,3.1c1.5,1.333,2.483,2.4,2.95,3.2
			c-1.167,0.233-2.117,0.433-2.85,0.6c-1.3,0.333-2.15,0.667-2.55,1c-0.4,0.333-0.6,1.15-0.6,2.45l-1.95-2.9
			c-1.367,0-2.184,0.017-2.45,0.05c-0.433,1.1-0.033,1.934,1.2,2.5c1,0.434,2.066,0.583,3.2,0.45c0,0.8-0.083,1.333-0.25,1.6
			c-0.267,0.433-0.817,0.583-1.65,0.45c-1.2,4.567-0.133,8.667,3.2,12.3c-1.8-0.967-3.2-1.233-4.2-0.8l-0.05,0.1
			c-0.733-2.4-1.233-4.417-1.5-6.05c-0.1-0.467-0.5-2.133-1.2-5c-0.466-1.967-0.733-3.684-0.8-5.15
			c-0.2-4.534-0.883-8.034-2.05-10.5c-0.634-1.367-1.05-2.75-1.25-4.15c-0.067-0.6-0.134-2.05-0.2-4.35
			c-0.233-8.467-1.783-18.467-4.65-30c-0.434-1.833-0.633-4.117-0.6-6.85c0.167-3.133,0.25-5.483,0.25-7.05
			c0-1.366-0.267-3.3-0.8-5.8c-0.5-2.434-0.75-4.4-0.75-5.9c0.066-2.4,0.216-5.7,0.45-9.9c0.3-4.767,0.483-8.083,0.55-9.95
			C41.15,45.283,41.35,41.283,41.55,38.75z"/>
		<linearGradient id="SVGID_25_" gradientUnits="userSpaceOnUse" x1="20.25" y1="172.5557" x2="85.95" y2="172.5557">
			<stop  offset="0" style="stop-color:#FFFFFF;stop-opacity:0.6275"/>
			<stop  offset="1" style="stop-color:#FFFFFF;stop-opacity:0.2"/>
		</linearGradient>
		<path style="fill-rule:evenodd;clip-rule:evenodd;fill:url(#SVGID_25_);" d="M56.9,172.4V171.8c1.3,0.601,3.534,1,6.7,1.2
			c-1.3,0.3-2.6,0.383-3.9,0.25C58.767,173.15,57.833,172.867,56.9,172.4z"/>
		<linearGradient id="SVGID_26_" gradientUnits="userSpaceOnUse" x1="20.25" y1="167.085" x2="85.95" y2="167.085">
			<stop  offset="0" style="stop-color:#FFFFFF;stop-opacity:0.6275"/>
			<stop  offset="1" style="stop-color:#FFFFFF;stop-opacity:0.2"/>
		</linearGradient>
		<path style="fill-rule:evenodd;clip-rule:evenodd;fill:url(#SVGID_26_);" d="M56.5,169.3l-0.15-0.45
			c-0.767-1.667-1.483-3.483-2.15-5.45c0.8,0.567,2.233,0.85,4.3,0.85l2.05,0.4l0.75,0.55c-1.466-0.067-2.517-0.017-3.15,0.15
			c-1.1,0.267-1.483,1.033-1.15,2.3c0.267,0.934,1.283,1.683,3.05,2.25c1.267,0.433,2.65,0.699,4.15,0.8
			c-0.6,0.167-1.784,0.033-3.55-0.4C58.35,169.7,56.967,169.367,56.5,169.3z"/>
		<linearGradient id="SVGID_27_" gradientUnits="userSpaceOnUse" x1="20.25" y1="171.3184" x2="85.95" y2="171.3184">
			<stop  offset="0" style="stop-color:#FFFFFF;stop-opacity:0.6275"/>
			<stop  offset="1" style="stop-color:#FFFFFF;stop-opacity:0.2"/>
		</linearGradient>
		<path style="fill-rule:evenodd;clip-rule:evenodd;fill:url(#SVGID_27_);" d="M66.55,171.95l-0.9-1.25
			c0.9-0.067,1.517,0.1,1.85,0.5C67.4,171.333,67.083,171.583,66.55,171.95z"/>
		<linearGradient id="SVGID_28_" gradientUnits="userSpaceOnUse" x1="57.5874" y1="215.293" x2="84.8124" y2="215.293">
			<stop  offset="0" style="stop-color:#FFFFFF;stop-opacity:0.6275"/>
			<stop  offset="1" style="stop-color:#FFFFFF;stop-opacity:0.2"/>
		</linearGradient>
		<path style="fill-rule:evenodd;clip-rule:evenodd;fill:url(#SVGID_28_);" d="M72.5,219.25c-0.767,0.566-2.05,0.783-3.85,0.65
			c-2.3-0.134-3.667-0.167-4.1-0.101c-0.2,0.8,0.05,1.267,0.75,1.4c0.4,0.1,1.083,0.116,2.05,0.05c1.667,0.033,2.8-0.017,3.4-0.15
			c1.167-0.232,2.083-0.85,2.75-1.85H72.5z M64.9,195.2c-0.367,1.066,0.467,1.816,2.5,2.25c1.4,0.3,2.767,0.399,4.1,0.3l-2-3.5
			c-0.733,0-1.55,0.066-2.45,0.2C65.717,194.617,65,194.867,64.9,195.2z M60.45,181.7c-0.9-0.067-1.467-0.05-1.7,0.05
			c0.1-0.233,0.184-0.583,0.25-1.05c-0.2-1.467-0.316-2.417-0.35-2.851c-0.066-0.633,0.534-1.017,1.8-1.149
			c0.966-0.067,2.483-0.05,4.55,0.05l4,1c0.2,0.367,0.617,0.55,1.25,0.55c0.366,0,0.917,0,1.65,0c0.233,1.134-0.5,2.017-2.2,2.65
			c-1.667,0.633-2.384,1.366-2.15,2.2c0.434,0.066,2.067,0.482,4.9,1.25c2,0.533,3.684,0.816,5.05,0.85
			c0.9,0.033,2.116-0.133,3.65-0.5c1.633-0.333,2.85-0.517,3.649-0.55c-0.767,2.133-1.967,3.883-3.6,5.25
			c-1.3,1.066-3.233,2.167-5.8,3.3c-0.434,0.2-1.233,0.533-2.4,1c-0.9,0.533-1.267,1.2-1.1,2c0.166,0.8,1.399,1.45,3.699,1.95
			c1.2,0.267,2.667,0.566,4.4,0.899c-1.167,1.233-2.75,2.051-4.75,2.45l-0.75-1.3c-0.634,0.633-2.184,0.767-4.65,0.4
			c-2.4-0.367-3.833-0.184-4.3,0.55c-0.433,0.667-0.267,1.3,0.5,1.899c0.667,0.567,1.667,1,3,1.301L69,204.25
			c-0.2,0.467-0.434,0.7-0.7,0.7c-0.366-0.033-0.65,0.05-0.85,0.25c-0.5,0.467-0.833,0.866-1,1.2c-0.167,0.399-0.2,0.866-0.1,1.399
			c0.433,2.267,1.933,3.717,4.5,4.351c1.434,0.366,3.601,0.566,6.5,0.6c-0.433,0.934-1.083,1.717-1.949,2.35
			c-0.534,0.4-1.4,0.851-2.601,1.351l-0.3-1.7c-1.866-0.033-3.283-0.066-4.25-0.1c-1.7-0.033-3.1,0.017-4.2,0.149
			c-0.466,1.167,0.034,2.017,1.5,2.55c1.2,0.467,2.717,0.634,4.55,0.5L69.7,218.1c0.934,0.367,2.6,0.483,5,0.351
			c2.267-0.134,3.85,0.066,4.75,0.6c-2.134,1.733-4.684,2.983-7.65,3.75c-0.066,0-0.767,0.083-2.1,0.25
			c-0.934,0.134-1.517,0.317-1.75,0.55c0.9,0.134,2.5,0.334,4.8,0.601c2.033,0.2,3.634,0.417,4.8,0.649
			c-2.233,1.934-3.616,3.367-4.149,4.301c0,0.033-0.267,0.316-0.801,0.85c-0.033,0.033,0.233,0.283,0.801,0.75
			c0.166,0.133,0.517,0.283,1.05,0.45c0.5,0.133,0.833,0.267,1,0.399c-0.667,0.801-1.467,1.434-2.4,1.9
			c-0.533,0.267-1.45,0.617-2.75,1.05l-1.3-1.3c-0.566-0.066-1.1,0.1-1.6,0.5c-0.533,0.434-0.7,0.934-0.5,1.5
			c0.1,0.3,0.333,0.483,0.7,0.55c-0.133,0.2-0.25,0.467-0.35,0.8c-0.033,0.233-0.117,0.65-0.25,1.25
			c-0.3,1.233-0.45,1.917-0.45,2.051c0,0.533,0.25,1.133,0.75,1.8c0.667,0.866,1.75,1.517,3.25,1.95c-0.7,0-1.25,0.217-1.65,0.649
			c-0.6,0.733-0.65,1.333-0.15,1.8c0.3,0.268,0.883,0.65,1.75,1.15l1.75-3.1c0.634,0.232,1.15,0.55,1.55,0.949
			c-0.2,0.567-0.883,1.25-2.05,2.051c-1.066,0.767-1.65,1.416-1.75,1.949c0.967,0.601,2.217,0.783,3.75,0.551
			c-0.467,0.833-1.3,1.416-2.5,1.75L71,250.75c-0.167,0.033-0.4,0.133-0.7,0.3c-0.3,0.134-0.55,0.217-0.75,0.25
			c-0.066,0.101-0.116,0.267-0.15,0.5h-0.3l0.25,0.2c-0.034,1,0.85,1.417,2.65,1.25l-0.3-0.7c1.434,0,2.366,0.184,2.8,0.55
			c-0.667,0.434-1.75,0.7-3.25,0.801c-1.566,0.1-2.667-0.084-3.3-0.551c-0.934-0.666-1.05-1.316-0.35-1.949
			c1.133-0.733,1.933-1.301,2.4-1.7c-0.133-0.5-0.6-0.851-1.4-1.05c-1.233-0.301-1.917-0.483-2.05-0.551
			c0.067-1.1,0.05-2.066-0.05-2.899c-0.033-0.634-0.184-1.483-0.45-2.55c0.134-2.4,0.117-4.033-0.05-4.9
			c-0.1-0.533-0.45-1.184-1.05-1.95c-0.567-0.733-0.9-1.383-1-1.95c-0.1-0.666,0.033-1.183,0.4-1.55
			c0.466-0.467,0.716-0.767,0.75-0.899c0.233-0.967,0.083-1.9-0.45-2.801c-0.3-0.467-0.95-1.232-1.95-2.3l0.7-0.25
			c0.167,0.167,0.733,0.533,1.7,1.101c1.466,0.732,3,0.899,4.6,0.5c1-0.233,2.434-0.867,4.3-1.9l-4-1.5
			c-1.233-0.133-2.267-0.233-3.1-0.3c-1.533-0.134-2.617-0.083-3.25,0.149c-0.367-0.467-0.633-0.833-0.8-1.1
			c-0.3-0.5-0.4-0.983-0.3-1.45c0.067-0.3,0.284-0.683,0.65-1.149c0.4-0.467,0.616-0.851,0.65-1.15c0.167-0.7,0.15-1.217-0.05-1.55
			c-0.033-0.101-0.3-0.384-0.8-0.851c-0.4-0.666-0.583-1.199-0.55-1.6c0.033-0.533,0.366-1.017,1-1.45c0.667-0.467,1-0.833,1-1.1
			c0.033-0.434-0.317-0.8-1.05-1.101c-1.066-0.267-1.883-0.482-2.45-0.649c-0.067-2.134-0.267-3.884-0.6-5.25
			c1.367-0.601,2.066-0.917,2.1-0.95c0.633-0.467,0.783-1.117,0.45-1.95c-0.833-0.066-1.583-0.45-2.25-1.149
			c-0.7-0.801-0.9-1.584-0.6-2.351c2.467-0.533,3.934-1.017,4.4-1.45c0.667-0.6,0.733-1.199,0.2-1.8
			c-0.867-0.733-1.483-1.383-1.85-1.95c-0.333-0.533-0.6-1.35-0.8-2.449c-0.2-1-0.533-1.783-1-2.351c-0.2-0.267-0.7-0.667-1.5-1.2
			c-0.7-0.467-1.167-0.933-1.4-1.399l-0.1-0.2v-1c0.633,2,2.717,3.434,6.25,4.3c2.934,0.7,5.75,0.917,8.45,0.65
			c2.967-0.333,5.566-1.233,7.8-2.7l1-1c-0.566-0.3-1.65-0.383-3.25-0.25c-1.967,0.167-3.15,0.217-3.55,0.15
			c-1.601-0.233-3.983-1.084-7.15-2.551C64.483,182.7,62.117,181.9,60.45,181.7z"/>
		<linearGradient id="SVGID_29_" gradientUnits="userSpaceOnUse" x1="67.0215" y1="141.3711" x2="93.9715" y2="141.3711">
			<stop  offset="0" style="stop-color:#FFFFFF;stop-opacity:0.6275"/>
			<stop  offset="1" style="stop-color:#FFFFFF;stop-opacity:0.2"/>
		</linearGradient>
		<path style="fill-rule:evenodd;clip-rule:evenodd;fill:url(#SVGID_29_);" d="M77,143.65c-3.934-0.466-6.134-0.733-6.6-0.8
			c-3.434-0.7-4.25-1.583-2.45-2.65c0.5-0.3,1.4-0.45,2.7-0.45c-0.2,0.3-0.25,0.65-0.15,1.05c0.2,1.2,1.384,1.967,3.55,2.3
			c0.3,0.033,1.851,0.083,4.65,0.15c1.366,0.033,2.467-0.1,3.3-0.4c0.4-0.167,1.4-0.7,3-1.6l-6.6-1.5
			c1.533-0.434,2.683-0.684,3.449-0.75c1.334-0.133,2.217,0.117,2.65,0.75h8.25c-0.033,0.233-0.184,0.55-0.45,0.95
			C87.767,143.167,82.667,144.15,77,143.65z"/>
		<linearGradient id="SVGID_30_" gradientUnits="userSpaceOnUse" x1="65.7124" y1="140.2251" x2="159.0874" y2="140.2251">
			<stop  offset="0" style="stop-color:#000000;stop-opacity:0.2"/>
			<stop  offset="0.8549" style="stop-color:#000000;stop-opacity:0.2"/>
			<stop  offset="1" style="stop-color:#000000;stop-opacity:0.2"/>
		</linearGradient>
		<path style="fill-rule:evenodd;clip-rule:evenodd;fill:url(#SVGID_30_);" d="M92.75,139.75H94l-1.7,0.95
			C92.566,140.3,92.717,139.983,92.75,139.75z"/>
		<linearGradient id="SVGID_31_" gradientUnits="userSpaceOnUse" x1="67.0249" y1="140.2251" x2="93.9749" y2="140.2251">
			<stop  offset="0" style="stop-color:#FFFFFF;stop-opacity:0.6275"/>
			<stop  offset="1" style="stop-color:#FFFFFF;stop-opacity:0.2"/>
		</linearGradient>
		<path style="fill-rule:evenodd;clip-rule:evenodd;fill:url(#SVGID_31_);" d="M92.75,139.75H94l-1.7,0.95
			C92.566,140.3,92.717,139.983,92.75,139.75z"/>
		<linearGradient id="SVGID_32_" gradientUnits="userSpaceOnUse" x1="64.3491" y1="151.4893" x2="90.4741" y2="151.4893">
			<stop  offset="0" style="stop-color:#FFFFFF;stop-opacity:0.6275"/>
			<stop  offset="1" style="stop-color:#FFFFFF;stop-opacity:0.2"/>
		</linearGradient>
		<path style="fill-rule:evenodd;clip-rule:evenodd;fill:url(#SVGID_32_);" d="M66.65,152.7c-1.566-0.5-2.333-1.167-2.3-2
			c1.133,1.167,3.783,1.75,7.95,1.75c4.167,0,6.733-0.567,7.7-1.7l-2.5,0.5l-4.9-1.1c2.467,0.133,4.534,0.133,6.2,0
			c0.4-0.033,1.334-0.2,2.8-0.5c1.301-0.3,2.267-0.433,2.9-0.4l5.55,0.45v0.3c-2.967,1.934-6.2,3.117-9.7,3.55
			c-2.6,0.3-6.116,0.233-10.55-0.2C68.667,153.25,67.617,153.033,66.65,152.7z"/>
		<linearGradient id="SVGID_33_" gradientUnits="userSpaceOnUse" x1="65.7124" y1="149.8501" x2="159.0874" y2="149.8501">
			<stop  offset="0" style="stop-color:#000000;stop-opacity:0.2"/>
			<stop  offset="0.8549" style="stop-color:#000000;stop-opacity:0.2"/>
			<stop  offset="1" style="stop-color:#000000;stop-opacity:0.2"/>
		</linearGradient>
		<polygon style="fill-rule:evenodd;clip-rule:evenodd;fill:url(#SVGID_33_);" points="90.05,149.7 90.5,149.75 90.05,150 		"/>
		<linearGradient id="SVGID_34_" gradientUnits="userSpaceOnUse" x1="64.3374" y1="149.8501" x2="90.4624" y2="149.8501">
			<stop  offset="0" style="stop-color:#FFFFFF;stop-opacity:0.6275"/>
			<stop  offset="1" style="stop-color:#FFFFFF;stop-opacity:0.2"/>
		</linearGradient>
		<polygon style="fill-rule:evenodd;clip-rule:evenodd;fill:url(#SVGID_34_);" points="90.05,149.7 90.5,149.75 90.05,150 		"/>
		<linearGradient id="SVGID_35_" gradientUnits="userSpaceOnUse" x1="67.0498" y1="326.0498" x2="75.4498" y2="326.0498">
			<stop  offset="0" style="stop-color:#FFFFFF;stop-opacity:0.6275"/>
			<stop  offset="1" style="stop-color:#FFFFFF;stop-opacity:0.2"/>
		</linearGradient>
		<path style="fill-rule:evenodd;clip-rule:evenodd;fill:url(#SVGID_35_);" d="M71,317.5c0.033,1.8,0.4,4.65,1.1,8.55
			c0.634,3.667,0.934,6.517,0.9,8.55l-1.25-3.55c-0.2-2.533-0.283-4.316-0.25-5.35c0-0.833-0.083-2.117-0.25-3.851
			c-0.167-1.633-0.25-2.899-0.25-3.8V317.5z"/>
		<linearGradient id="SVGID_36_" gradientUnits="userSpaceOnUse" x1="67.0498" y1="273.7998" x2="75.4498" y2="273.7998">
			<stop  offset="0" style="stop-color:#FFFFFF;stop-opacity:0.6275"/>
			<stop  offset="1" style="stop-color:#FFFFFF;stop-opacity:0.2"/>
		</linearGradient>
		<path style="fill-rule:evenodd;clip-rule:evenodd;fill:url(#SVGID_36_);" d="M75.25,276.35c-0.5-1.166-0.833-2-1-2.5
			c-0.267-0.866-0.1-1.666,0.5-2.399l0.2-0.2C75.45,272.717,75.55,274.417,75.25,276.35z"/>
		<linearGradient id="SVGID_37_" gradientUnits="userSpaceOnUse" x1="67.0498" y1="265.6992" x2="75.4498" y2="265.6992">
			<stop  offset="0" style="stop-color:#FFFFFF;stop-opacity:0.6275"/>
			<stop  offset="1" style="stop-color:#FFFFFF;stop-opacity:0.2"/>
		</linearGradient>
		<path style="fill-rule:evenodd;clip-rule:evenodd;fill:url(#SVGID_37_);" d="M70,259.75l2.85-0.4
			c-1.033,0.334-1.583,1.117-1.649,2.351l-0.2-0.45c-0.866-0.1-1.483-0.083-1.85,0.05c-0.5,0.2-0.733,0.684-0.7,1.45
			c0.033,1.133,1.116,1.633,3.25,1.5c0.366,1.167,1.3,3.184,2.8,6.05c0.134,0.2,0.283,0.517,0.45,0.95l-0.45,0.5
			c-0.467-0.367-1.184-0.517-2.15-0.45c-0.966,0.067-1.733,0.317-2.3,0.75c-0.066-0.399-0.083-0.7-0.05-0.899
			c0.134-1.634,0.167-2.834,0.1-3.601c-0.1-1.399-0.616-2.283-1.55-2.649c-0.066-1-0.25-1.834-0.55-2.5l-0.1-0.2
			C68.1,261.867,68.8,261.05,70,259.75z"/>
		<linearGradient id="SVGID_38_" gradientUnits="userSpaceOnUse" x1="67.0498" y1="291.9502" x2="75.4498" y2="291.9502">
			<stop  offset="0" style="stop-color:#FFFFFF;stop-opacity:0.6275"/>
			<stop  offset="1" style="stop-color:#FFFFFF;stop-opacity:0.2"/>
		</linearGradient>
		<path style="fill-rule:evenodd;clip-rule:evenodd;fill:url(#SVGID_38_);" d="M71.05,292.5c0.066-0.533,0.066-1.417,0-2.65
			c-0.066-1.166-0.05-2.017,0.05-2.55c0.167-0.833,0.5-1.649,1-2.45c0.634-0.866,1.117-1.566,1.45-2.1
			c-0.2,0.833-0.233,1.667-0.1,2.5c0.133,0.767,0.35,1.566,0.649,2.4c0.134,0.699,0.051,1.55-0.25,2.55
			c-0.866,2.833-1.316,5.2-1.35,7.1c0,1.067-0.15,2.351-0.45,3.851C72.017,298.617,71.684,295.733,71.05,292.5z"/>
		<linearGradient id="SVGID_39_" gradientUnits="userSpaceOnUse" x1="67.0498" y1="281.5742" x2="75.4498" y2="281.5742">
			<stop  offset="0" style="stop-color:#FFFFFF;stop-opacity:0.6275"/>
			<stop  offset="1" style="stop-color:#FFFFFF;stop-opacity:0.2"/>
		</linearGradient>
		<path style="fill-rule:evenodd;clip-rule:evenodd;fill:url(#SVGID_39_);" d="M72.45,281.25c-0.733,1.333-1.233,2.3-1.5,2.9
			c-0.467,1.066-0.75,2.116-0.851,3.149l-0.05,0.25l-0.25-1.3c-0.167-1.1-0.283-1.934-0.35-2.5c-0.134-1.033,0.116-2.083,0.75-3.15
			c0.767-1.366,1.2-2.316,1.3-2.85c0.1-0.767,0.017-1.483-0.25-2.15l0.25,0.15c1.167,0.967,1.8,1.783,1.9,2.45
			C73.533,278.867,73.217,279.883,72.45,281.25z"/>
		<path style="fill-rule:evenodd;clip-rule:evenodd;fill:#FFFFFF;" d="M43.1,73.95c0.267-2.233,0.4-3.467,0.4-3.7l2,1
			c-0.133,1.5,0.15,3,0.85,4.5c0.367,0.7,0.816,1.25,1.35,1.65c0.333,0.267,0.933,0.717,1.8,1.35c0.833,0.633,1.316,1.217,1.45,1.75
			c0.2,0.633,0.017,1.417-0.55,2.35c-0.167,0.267-0.833,0.733-2,1.4c-1.033,0.6-1.5,1.1-1.4,1.5c0.1,0.333,0.7,0.717,1.8,1.15
			c0.567,0.2,1.25,0.434,2.05,0.7c3.3,1.333,5.433,2.133,6.4,2.4c6.667,1.833,12.667,2.883,18,3.15c0.333,0,0.6,0.017,0.8,0.05
			c-1.133,0.033-2.967,0.116-5.5,0.25c-2.366,0.167-4.183,0.25-5.45,0.25c-2.467,0.033-5.55-0.217-9.25-0.75l-1.4-0.25
			c-2.567-0.4-4.884-1.1-6.95-2.1c-2.8-1.333-4.434-2.95-4.9-4.85c-0.267-1-0.117-1.85,0.45-2.55c0.8-0.8,1.4-1.45,1.8-1.95
			c0.7-0.867,0.966-1.517,0.8-1.95c0-0.033-0.533-0.7-1.6-2C43.25,76.333,42.934,75.217,43.1,73.95z"/>
		<path style="fill-rule:evenodd;clip-rule:evenodd;fill:#FFFFFF;" d="M78.5,121.75c-1.1,0.767-2.717,1.167-4.85,1.2
			c-2.4-0.134-4.084-0.217-5.05-0.25h-8c-2.167,0-4.233-0.3-6.2-0.9c-1.267-0.433-2.4-0.95-3.4-1.55l-0.95-0.6
			c-1.7-1.167-2.483-2.25-2.35-3.25c0.1-1.033,1.167-1.433,3.2-1.2c1.534,0.133,4.017,1.017,7.45,2.65
			c3.066,1.433,5.617,2.066,7.65,1.9L78.5,121.75z"/>
		<path style="fill-rule:evenodd;clip-rule:evenodd;fill:#FFFFFF;" d="M55.5,108.75l4,2.5c-2.4-0.133-3.967-0.25-4.7-0.35
			c-4.767-0.633-6.9-2-6.4-4.1C52.833,106.667,55.2,107.316,55.5,108.75z"/>
		<path style="fill-rule:evenodd;clip-rule:evenodd;fill:#FFFFFF;" d="M59.5,142.75c-3.2-0.066-5.133-0.167-5.8-0.3
			c-2.4-0.534-3.3-1.817-2.7-3.85c1.066-0.3,2.333-0.267,3.8,0.1c0.833,0.2,2.067,0.55,3.7,1.05L59.5,142.75z"/>
		<path style="fill-rule:evenodd;clip-rule:evenodd;fill:#FFFFFF;" d="M52.05,144.8c0.267-0.033,1.083-0.05,2.45-0.05l1.95,2.9
			l0.05,0.1h-0.05c-1.134,0.133-2.2-0.017-3.2-0.45C52.017,146.733,51.617,145.9,52.05,144.8z"/>
		<path style="fill-rule:evenodd;clip-rule:evenodd;fill:#FFFFFF;" d="M61,164.75l-2.5-0.5c-2.066,0-3.5-0.283-4.3-0.85l-0.7-2
			l0.05-0.1c1-0.433,2.4-0.167,4.2,0.8C59.316,162.867,60.4,163.75,61,164.75z"/>
		<path style="fill-rule:evenodd;clip-rule:evenodd;fill:#FFFFFF;" d="M56.5,169.3c0.467,0.067,1.85,0.4,4.15,1
			c1.767,0.434,2.95,0.567,3.55,0.4c0.5-0.101,0.767-0.417,0.8-0.95l2.5,3.5c-0.167-0.033-1.467-0.117-3.9-0.25
			c-3.167-0.2-5.4-0.6-6.7-1.2C56.9,170.9,56.767,170.066,56.5,169.3z"/>
		<path style="fill-rule:evenodd;clip-rule:evenodd;fill:#FFFFFF;" d="M58,185.5l-0.1-2.25c0.233-0.867,0.517-1.367,0.85-1.5
			c0.233-0.1,0.8-0.117,1.7-0.05c1.667,0.2,4.033,1,7.1,2.399c3.167,1.467,5.55,2.317,7.15,2.551c0.399,0.066,1.583,0.017,3.55-0.15
			c1.6-0.133,2.684-0.05,3.25,0.25l-1,1c-2.233,1.467-4.833,2.367-7.8,2.7c-2.7,0.267-5.517,0.05-8.45-0.65
			C60.717,188.934,58.633,187.5,58,185.5z"/>
		<path style="fill-rule:evenodd;clip-rule:evenodd;fill:#FFFFFF;" d="M64.9,195.2c0.1-0.333,0.817-0.583,2.15-0.75
			c0.9-0.134,1.717-0.2,2.45-0.2l2,3.5c-1.333,0.1-2.7,0-4.1-0.3C65.367,197.017,64.533,196.267,64.9,195.2z"/>
		<path style="fill-rule:evenodd;clip-rule:evenodd;fill:#FFFFFF;" d="M74.5,199.75l1.5,2.5c-0.5,0.9-1.467,1.483-2.9,1.75
			c-1.233,0.233-2.583,0.2-4.05-0.1c-1.333-0.301-2.333-0.733-3-1.301c-0.767-0.6-0.933-1.232-0.5-1.899
			c0.467-0.733,1.9-0.917,4.3-0.55C72.316,200.517,73.866,200.383,74.5,199.75z"/>
		<path style="fill-rule:evenodd;clip-rule:evenodd;fill:#FFFFFF;" d="M72.5,214.75l0.5,2.5c-0.467,0.3-1.434,0.5-2.9,0.6
			c-1.833,0.134-3.35-0.033-4.55-0.5c-1.466-0.533-1.966-1.383-1.5-2.55c1.1-0.133,2.5-0.183,4.2-0.149
			C69.217,214.684,70.634,214.717,72.5,214.75z"/>
		<path style="fill-rule:evenodd;clip-rule:evenodd;fill:#FFFFFF;" d="M68.65,219.9c1.8,0.133,3.083-0.084,3.85-0.65h1
			c-0.667,1-1.583,1.617-2.75,1.85c-0.6,0.134-1.733,0.184-3.4,0.15c-0.967,0.066-1.65,0.05-2.05-0.05
			c-0.7-0.134-0.95-0.601-0.75-1.4C64.983,219.733,66.35,219.767,68.65,219.9z"/>
		<path style="fill-rule:evenodd;clip-rule:evenodd;fill:#FFFFFF;" d="M74,225.75c-1.866,1.033-3.3,1.667-4.3,1.9
			c-1.6,0.399-3.134,0.232-4.6-0.5c-0.967-0.567-1.534-0.934-1.7-1.101c0.333-0.133,0.55-0.399,0.65-0.8
			c0.034-0.333-0.1-0.717-0.4-1.15c0.633-0.232,1.717-0.283,3.25-0.149c0.833,0.066,1.867,0.167,3.1,0.3L74,225.75z"/>
		<path style="fill-rule:evenodd;clip-rule:evenodd;fill:#FFFFFF;" d="M69,233.25l2,2c-0.6,0.2-1.117,0.35-1.55,0.45
			c-0.8,0.167-1.417,0.2-1.85,0.1c-0.367-0.066-0.6-0.25-0.7-0.55c-0.2-0.566-0.033-1.066,0.5-1.5
			C67.9,233.35,68.434,233.184,69,233.25z"/>
		<path style="fill-rule:evenodd;clip-rule:evenodd;fill:#FFFFFF;" d="M72.5,243.75l-2,3.5c-0.867-0.5-1.45-0.883-1.75-1.15
			c-0.5-0.467-0.45-1.066,0.15-1.8c0.4-0.433,0.95-0.649,1.65-0.649C70.983,243.617,71.634,243.65,72.5,243.75z"/>
		<path style="fill-rule:evenodd;clip-rule:evenodd;fill:#FFFFFF;" d="M71,250.75l1,2.5c-1.8,0.167-2.684-0.25-2.65-1.25l0.05-0.2
			c0.034-0.233,0.083-0.399,0.15-0.5c0.2-0.033,0.45-0.116,0.75-0.25C70.6,250.883,70.833,250.783,71,250.75z"/>
		<path style="fill-rule:evenodd;clip-rule:evenodd;fill:#FFFFFF;" d="M71,261.25l1.5,3h-0.8c-2.134,0.133-3.217-0.367-3.25-1.5
			c-0.034-0.767,0.2-1.25,0.7-1.45C69.517,261.167,70.134,261.15,71,261.25z"/>
		<path style="fill-rule:evenodd;clip-rule:evenodd;fill:#FFFFFF;" d="M74.5,271.75l0.175-0.225
			c-0.538,0.723-0.68,1.497-0.425,2.324c0.167,0.5,0.5,1.334,1,2.5c0.1,0.301,0.184,0.768,0.25,1.4c0,1.3-0.533,2.783-1.6,4.45
			l-0.351,0.55c-0.333,0.533-0.816,1.233-1.45,2.1c-0.5,0.801-0.833,1.617-1,2.45c-0.1,0.533-0.116,1.384-0.05,2.55
			c0.066,1.233,0.066,2.117,0,2.65l-1-4.95l0.05-0.25c0.101-1.033,0.384-2.083,0.851-3.149c0.267-0.601,0.767-1.567,1.5-2.9
			c0.767-1.367,1.083-2.383,0.95-3.05c-0.101-0.667-0.733-1.483-1.9-2.45l-0.25-0.15c-0.733-0.6-1.2-1.017-1.4-1.25
			c-0.467-0.566-0.583-1.1-0.35-1.6c0.066-0.233,0.25-0.467,0.55-0.7c0.566-0.433,1.334-0.683,2.3-0.75
			C73.316,271.233,74.033,271.383,74.5,271.75z"/>
		<path style="fill-rule:evenodd;clip-rule:evenodd;fill:#FFFFFF;" d="M42,32.75c0.1-0.267,0.25-0.5,0.45-0.7l-0.2,1.55
			c-0.133,1.167-0.367,2.883-0.7,5.15c-0.2,2.533-0.4,6.533-0.6,12c-0.067,1.867-0.25,5.184-0.55,9.95
			c-0.233,4.2-0.383,7.5-0.45,9.9c0,1.5,0.25,3.466,0.75,5.9c0.533,2.5,0.8,4.434,0.8,5.8c0,1.567-0.083,3.917-0.25,7.05
			c-0.033,2.733,0.167,5.017,0.6,6.85c2.867,11.533,4.417,21.533,4.65,30c0.066,2.3,0.133,3.75,0.2,4.35
			c0.2,1.4,0.616,2.784,1.25,4.15c1.167,2.466,1.85,5.966,2.05,10.5c0.066,1.466,0.333,3.183,0.8,5.15c0.7,2.867,1.1,4.533,1.2,5
			c0.267,1.633,0.767,3.65,1.5,6.05l0.7,2c0.667,1.967,1.383,3.784,2.15,5.45l0.15,0.45c0.267,0.767,0.4,1.601,0.4,2.5v0.601
			c-0.066,0.833-0.05,1.616,0.05,2.35c0.566,4.5,0.883,7.333,0.95,8.5l0.1,11.5c0,0.767-0.017,1.95-0.05,3.55
			c0.066,0.967,0.333,2.017,0.8,3.15c0.8,1.899,1.217,2.899,1.25,3l0.35,1.25c0.333,1.366,0.533,3.116,0.6,5.25l0.05,2.3
			c0,0.9,0.1,1.5,0.3,1.8c0.167,0.233,0.567,0.667,1.2,1.3l0.5,0.5c0.5,0.467,0.767,0.75,0.8,0.851c0.2,0.333,0.217,0.85,0.05,1.55
			c-0.034,0.3-0.25,0.684-0.65,1.15c-0.367,0.467-0.583,0.85-0.65,1.149c-0.1,0.467,0,0.95,0.3,1.45
			c0.167,0.267,0.433,0.633,0.8,1.1c0.3,0.434,0.434,0.817,0.4,1.15c-0.1,0.4-0.316,0.667-0.65,0.8l-0.7,0.25
			c-0.733,0.2-1.167,0.384-1.3,0.55c-0.267,0.334-0.433,0.801-0.5,1.4c0,0.2,0.017,0.717,0.05,1.55c0.1,1.833,0.833,4.017,2.2,6.55
			c1.633,3.134,2.6,5.233,2.9,6.301c0.267,1.066,0.417,1.916,0.45,2.55c0.1,0.833,0.117,1.8,0.05,2.899l-0.1,3.601
			c0,0.6-0.1,1.583-0.3,2.95c-0.167,1.267-0.233,2.232-0.2,2.899c0.033,0.833,0.283,1.65,0.75,2.45c0.767,1.434,1.167,2.167,1.2,2.2
			l0.1,0.2c0.3,0.666,0.483,1.5,0.55,2.5c0.067,0.899,0,2.199-0.2,3.899c-0.233,1.833-0.35,3.101-0.35,3.8
			c-0.033,3.233,0.566,7.783,1.8,13.65l1.25,6.25c0.634,3.233,0.967,6.117,1,8.65l-0.05,2.5c-0.066,1.1-0.25,3.399-0.55,6.899
			c-0.267,2.867-0.417,5.184-0.45,6.95v0.55c0,0.9,0.083,2.167,0.25,3.8c0.167,1.733,0.25,3.018,0.25,3.851
			c-0.033,1.033,0.05,2.816,0.25,5.35c0.066,1.333-0.017,2.45-0.25,3.351l-0.35,0.85c-0.801-2.267-1.434-6.533-1.9-12.8
			c-0.367-6.833-0.617-11.233-0.75-13.2c-1.667-31.333-2.667-49-3-53c-0.167-1.833-0.833-4.566-2-8.2
			c-1.434-4.433-2.6-9.033-3.5-13.8c-1.066-5.733-1.917-11.9-2.55-18.5c-0.634-7.5-1.117-13.167-1.45-17
			c-1.333-15.467-2.833-27.133-4.5-35c-0.467-2.2-2.2-9.967-5.2-23.3c-2.633-11.767-4.233-19.167-4.8-22.2
			c-0.533-2.767-1.117-7.3-1.75-13.6c-0.7-6.733-1.283-11.533-1.75-14.4c-0.633-3.833-0.883-7.367-0.75-10.6
			c0.333-3.6,0.583-6.4,0.75-8.4c0.333-7.566,0.684-14.1,1.05-19.6C39.783,41.117,40.767,34.816,42,32.75z"/>
		<path style="fill-rule:evenodd;clip-rule:evenodd;fill:#FFFFFF;" d="M64.35,150.7c-0.4-0.4-0.5-0.867-0.3-1.4
			c2.034-0.333,4.884-0.05,8.55,0.85l4.9,1.1l2.5-0.5c-0.967,1.133-3.533,1.7-7.7,1.7C68.133,152.45,65.483,151.867,64.35,150.7z"/>
		<path style="fill-rule:evenodd;clip-rule:evenodd;fill:#FFFFFF;" d="M70.5,140.8c-0.1-0.4-0.05-0.75,0.15-1.05
			c0.366-0.5,1.199-0.733,2.5-0.7c0.699,0,1.649,0.067,2.85,0.2l9,2c-1.6,0.9-2.6,1.434-3,1.6c-0.833,0.3-1.934,0.433-3.3,0.4
			c-2.8-0.066-4.351-0.117-4.65-0.15C71.884,142.767,70.7,142,70.5,140.8z"/>
		<path style="fill-rule:evenodd;clip-rule:evenodd;fill:#FFFFFF;" d="M57.4,97.75c1.333-0.1,3.284,0.15,5.85,0.75
			c2.967,0.733,4.917,1.133,5.85,1.2c0.6,0.033,3.233,0.05,7.9,0.05h6.5c-1.866,1.967-4.366,3.25-7.5,3.85
			c-2.6,0.5-5.467,0.517-8.6,0.05C60.267,102.45,56.934,100.483,57.4,97.75z"/>
		<path style="fill-rule:evenodd;clip-rule:evenodd;fill:#FFFFFF;" d="M67.7,105.25c1.066-0.267,1.667-0.434,1.8-0.5l6.5,3.5
			c-0.767,1.6-2.65,2-5.65,1.2c-3-0.767-4.333-1.817-4-3.15C66.483,105.767,66.934,105.417,67.7,105.25z"/>
		<path style="fill-rule:evenodd;clip-rule:evenodd;fill:#FFFFFF;" d="M48.4,64.35c-0.7-0.5-0.733-1.2-0.1-2.1h0.2
			c1.1,0,2.833,0.184,5.2,0.55c2.267,0.367,4.033,0.517,5.3,0.45l14-2c-1.967,1.733-3.367,2.833-4.2,3.3
			c-1.366,0.767-3.066,1.184-5.1,1.25c-5.367,0.2-9.55,0.017-12.55-0.55C49.816,65.017,48.9,64.717,48.4,64.35z"/>
	</g>
	<linearGradient id="SVGID_40_" gradientUnits="userSpaceOnUse" x1="53" y1="177.3926" x2="103" y2="177.3926">
		<stop  offset="0" style="stop-color:#FFFFFF;stop-opacity:0.3569"/>
		<stop  offset="0.6471" style="stop-color:#D7EDFB;stop-opacity:0.6078"/>
		<stop  offset="1" style="stop-color:#C5E5F9;stop-opacity:0.7176"/>
	</linearGradient>
	<path style="fill-rule:evenodd;clip-rule:evenodd;fill:url(#SVGID_40_);" d="M109,71.25c0.167,2,0.417,4.8,0.75,8.4
		c0.134,3.233-0.116,6.767-0.75,10.6c-0.5,2.934-1.167,9.483-2,19.65c-0.833,9.833-1.5,16.117-2,18.85
		c-0.533,2.8-2.05,9.117-4.55,18.95c-2.667,10.4-4.316,17.083-4.95,20.05c-2.033,9.733-3.533,20.066-4.5,31
		c-0.4,4.633-1.05,9.133-1.95,13.5c-0.533,2.667-1.55,7.667-3.05,15c-1.033,5.533-1.7,10.8-2,15.8
		c-0.167,2.733-0.333,6.134-0.5,10.2c-0.134,1.767-0.967,7.083-2.5,15.95c-1.5,8.667-2.333,14.35-2.5,17.05
		c-0.167,2.467-0.283,7.066-0.35,13.8c-0.233,5.8-0.95,9.367-2.15,10.7c-0.9,7.1-1.4,10.934-1.5,11.5
		c1.033-2.934,1.083-1.3,0.15,4.9c-0.434,3.1-0.983,6.467-1.65,10.1c-1.467,0.434-2.6-3.184-3.4-10.85
		c-0.1-1.033-0.467-6.75-1.1-17.15c-1.667-31.333-2.667-49-3-53c-0.167-1.833-0.833-4.566-2-8.2c-1.434-4.433-2.6-9.033-3.5-13.8
		c-1.066-5.733-1.917-11.9-2.55-18.5c-0.634-7.5-1.117-13.167-1.45-17c-1.333-15.467-2.833-27.133-4.5-35
		c-0.467-2.2-2.2-9.967-5.2-23.3c-2.633-11.767-4.233-19.167-4.8-22.2c-0.533-2.767-1.117-7.3-1.75-13.6
		c-0.7-6.733-1.283-11.533-1.75-14.4c-0.633-3.833-0.883-7.367-0.75-10.6c0.333-3.6,0.583-6.4,0.75-8.4
		c0.333-7.566,0.684-14.1,1.05-19.6c0.733-10.533,1.717-16.833,2.95-18.9c1.6-2.7,4.75-5.583,9.45-8.65
		c5.5-3.633,10.95-5.833,16.35-6.6c5.233,1.3,11.117,1.816,17.65,1.55c4.333,1.5,8.5,3.733,12.5,6.7c3.467,2.6,5.816,4.934,7.05,7
		s2.217,8.367,2.95,18.9C108.316,57.15,108.667,63.684,109,71.25z"/>
	<g>
		<path style="fill-rule:evenodd;clip-rule:evenodd;fill:#A4B6C8;" d="M62.95,82.7c-0.867,0.933-1.7,1.366-2.5,1.3
			c-1.867-0.167-2.85-0.25-2.95-0.25l7.75-7.05c1.867-0.034,3.617-0.267,5.25-0.7c1.467-0.367,3.116-1,4.95-1.9
			c2.2-1.067,4.717-1.317,7.55-0.75c1.134,0.233,2.35,0.816,3.65,1.75c0.767,0.533,1.883,1.367,3.35,2.5
			c2.3,1.7,4.833,3.15,7.6,4.35c2.467,1.133,3.767,1.733,3.9,1.8c1.434,0.833,2.467,1.816,3.1,2.95c0.767,1.333,1.233,3.15,1.4,5.45
			c0.267,3.467,0.434,5.35,0.5,5.65c0.1,0.5,0.233,1.617,0.4,3.35c0.133,1.434,0.316,2.55,0.55,3.35l-0.05,0.75
			c-0.134-0.934-0.601-4.667-1.4-11.2c-0.267-2.3-1.533-4.233-3.8-5.8c-2.9-1.5-5.033-2.633-6.4-3.4c-0.5-0.3-0.916-0.684-1.25-1.15
			c-0.366-0.6-0.684-1.083-0.95-1.45c-0.966-1.367-2.216-2.55-3.75-3.55c-0.767-0.534-1.649-0.867-2.649-1
			c-1.167-0.134-2.084-0.284-2.75-0.45c-0.533-0.133-1.167-0.45-1.9-0.95c-0.866-0.566-1.5-0.933-1.899-1.1
			c-1.567-0.634-3.184-0.684-4.851-0.15c-0.1,0.034-1.583,0.733-4.45,2.1C67.85,78.717,65.05,80.566,62.95,82.7z"/>
		<polygon style="fill-rule:evenodd;clip-rule:evenodd;fill:#A4B6C8;" points="106.75,39.3 106.85,40.15 106.45,39.6 		"/>
		<path style="fill-rule:evenodd;clip-rule:evenodd;fill:#7992AA;" d="M108.3,57.8c0.233,3.967,0.467,8.45,0.7,13.45
			c0.167,2,0.417,4.8,0.75,8.4c0.134,3.233-0.116,6.767-0.75,10.6c-0.4,2.566-0.917,7.316-1.55,14.25
			c-0.233-0.8-0.417-1.917-0.55-3.35c-0.167-1.733-0.301-2.85-0.4-3.35c-0.066-0.3-0.233-2.183-0.5-5.65
			c-0.167-2.3-0.634-4.117-1.4-5.45c-0.633-1.134-1.666-2.117-3.1-2.95c-0.134-0.066-1.434-0.667-3.9-1.8
			c-2.767-1.2-5.3-2.65-7.6-4.35c-1.467-1.133-2.583-1.967-3.35-2.5c-1.301-0.934-2.517-1.517-3.65-1.75
			c-2.833-0.567-5.35-0.317-7.55,0.75c-1.834,0.9-3.483,1.533-4.95,1.9c-1.633,0.434-3.383,0.667-5.25,0.7L65,76.75l36.5-41.5
			c1.533,0.566,3.184,2.017,4.95,4.35l0.399,0.55C107.417,44.283,107.9,50.167,108.3,57.8z"/>
	</g>
	<g>
		<path style="fill-rule:evenodd;clip-rule:evenodd;fill:#F4FAFA;" d="M131.15,20.3c-0.233,0.367-0.7,0.934-1.4,1.7
			c-0.667,0.733-1.134,1.317-1.4,1.75c-0.8,1.3-0.716,2.55,0.25,3.75c1.434,1.8,2.233,3.05,2.4,3.75c0.7,2.867-0.233,4.667-2.8,5.4
			s-4.351-0.233-5.351-2.9c-0.633,1.667-0.899,3.883-0.8,6.65c-0.666-1.133-1.017-2.183-1.05-3.15c0.3-2.633,0.417-4.533,0.35-5.7
			c-0.1-2-1.199-3.383-3.3-4.15c-1.399-0.5-2.916-0.65-4.55-0.45c-1.833,0.233-3,0.9-3.5,2c-0.267,0.6-0.35,1.617-0.25,3.05
			c0,0.2,0.1,1.233,0.3,3.1c0.3,3.8,0.9,6.85,1.8,9.15c1.101,2.833,2.75,5.367,4.95,7.6c2.233,2.233,4.733,3.9,7.5,5
			c-0.434,0.733-0.717,1.333-0.85,1.8c-0.101,0.3-0.167,0.8-0.2,1.5c-0.033,0.567-0.134,1-0.3,1.3l-1-0.8
			c-0.9-0.633-1.934-1.25-3.101-1.85c-0.233-0.1-1.316-0.6-3.25-1.5c-0.933-0.5-1.566-0.8-1.899-0.9
			c-0.467-0.167-0.95-0.033-1.45,0.4c-2.6-3.6-4.25-6.25-4.95-7.95c0.033,0.233,0.05,1.75,0.05,4.55
			c0.034,1.9,0.233,3.417,0.601,4.55c-0.867-1.4-1.601-3.617-2.2-6.65c-0.733-3.433-1.283-5.6-1.65-6.5
			c-0.133,0.9-0.233,2.25-0.3,4.05c-0.233-1.333-0.366-2.567-0.399-3.7c-0.067-1.633-0.101-2.867-0.101-3.7
			c-0.033-1.534,0.05-2.767,0.25-3.7c0.733-2.367,1.167-4.067,1.3-5.1c0.233-1.733-0.267-3.383-1.5-4.95
			c-0.333-0.434-0.916-0.934-1.75-1.5c-0.866-0.567-1.449-1.05-1.75-1.45c-0.133-0.167-0.416-0.6-0.85-1.3
			c-0.267-0.434-0.6-0.8-1-1.1c-0.566-0.4-1.05-0.667-1.45-0.8h0.75l1.55,0.05l1.65,0.5c1.134,0.433,2.116,0.45,2.95,0.05
			c0.5-0.267,1.184-0.9,2.05-1.9c0.6-0.4,1.467-1.25,2.6-2.55c1-1.133,1.983-1.917,2.95-2.35c0.467-0.2,1.45-0.517,2.95-0.95
			c1.3-0.4,2.25-0.783,2.85-1.15c0.101-0.033,0.301-0.15,0.601-0.35v-0.05l1.3,0.9c2.066,1.3,5.217,2.967,9.45,5
			c0.7,0.333,1.6,0.8,2.7,1.4C130.967,20.183,131.05,20.233,131.15,20.3z M108.1,6.1v0.05c-0.399,2-0.899,3.583-1.5,4.75
			c-1,2.3-1.699,3.8-2.1,4.5c-1,1.867-2.017,3.117-3.05,3.75c-0.767,0.5-2.117,0.733-4.05,0.7c-1.7,0-2.95,0.433-3.75,1.3
			l-3.601,0.1c0.3,0,1.434,0.033,3.4,0.1l-0.101,0.2c-0.833,0.3-1.783,0.867-2.85,1.7v6c0,6.633-0.15,10.733-0.45,12.3
			c-1,4.967-3.533,7.7-7.6,8.2c-0.934,0.133-2.283,0.217-4.05,0.25c-1.867,0.067-3.217,0.15-4.051,0.25
			c-1.833,0-3.233,0.033-4.199,0.1c-1.7,0.167-2.9,0.767-3.601,1.8c2.667,0.167,4.101,0.983,4.3,2.45
			c0.167,1.2-0.449,2.917-1.85,5.15c-0.933,1.433-1.717,2.917-2.35,4.45c-0.833,2-1.233,3.633-1.2,4.9
			c0.033,0.733,0.216,1.833,0.55,3.3c0.2,1.333,0.067,2.434-0.4,3.3c-0.6,1.167-2.267,2.433-5,3.8
			c-2.033,0.967-3.617,1.55-4.75,1.75c-0.4,0.067-1.15,0.05-2.25-0.05c-1.067-0.1-1.833-0.1-2.3,0c0.7-0.367,1.217-0.867,1.55-1.5
			c0.4-0.6,0.566-1.65,0.5-3.15c-0.1-1.433,0.066-2.433,0.5-3c0.333-0.466,1.5-1.167,3.5-2.1c1.6-0.733,2.483-1.767,2.65-3.1
			c0.233-1.767-0.65-2.5-2.65-2.2c-1.5,0.233-2.95,0.8-4.35,1.7c-0.8,0.5-2.167,1.467-4.1,2.9c-1.767,1.3-3.15,2.25-4.15,2.85
			c-0.018-0.018-0.035-0.035-0.05-0.05c-0.079-0.084-0.146-0.168-0.2-0.25l-0.8-0.85c-0.267-0.267-0.517-0.5-0.75-0.7
			c-0.118-0.087-0.234-0.171-0.35-0.25c0.7-1.567,2.983-3.033,6.85-4.4c0-0.167-0.05-0.3-0.15-0.4c1.5-0.367,2.684-0.817,3.55-1.35
			c0.733-0.467,1.483-1.217,2.25-2.25c0.933-1.3,1.566-2.117,1.9-2.45c3.233-1.5,5.533-3.183,6.9-5.05
			c0.567-0.767,0.883-1.867,0.95-3.3c0.133-2.267,0.2-3.433,0.2-3.5c0.767-0.1,2.717-0.05,5.851,0.15
			c2.5,0.167,4.383-0.083,5.649-0.75c0.5-0.233,1.167-0.784,2-1.65c0.834-0.867,1.517-1.433,2.05-1.7c0.467-0.2,1.301-0.434,2.5-0.7
			c1.167-0.233,2.034-0.5,2.601-0.8c0.934-0.5,1.467-0.917,1.6-1.25c0.033-0.567,0.117-1.2,0.25-1.9
			c0.101-0.333,0.483-1.434,1.15-3.3c0.467-1.3,0.733-2.45,0.8-3.45c0.134-1.667-0.434-3.817-1.7-6.45
			c-1.3-2.733-1.934-4.85-1.899-6.35c0.066-2.233,1.533-4.75,4.399-7.55c0.634-0.6,2.05-1.45,4.25-2.55
			c1.967-0.966,3.267-1.883,3.9-2.75c0.899-1.2,1.05-3.183,0.45-5.95V1.8c0.433,0.1,0.866,0.233,1.3,0.4l0.399,0.1
			c2.2,0.7,4.217,1.65,6.051,2.85c0.166,0.1,0.35,0.217,0.55,0.35L108.1,6.1z M72.1,0.05V0c0.367,0,0.75,0,1.15,0l1.85,0.05
			c0.634,0,1.301,0.017,2,0.05c0.134,0,0.267,0.017,0.4,0.05l1.1,0.05C78.9,0.867,79.366,1.85,80,3.15
			c0.434,1.133,0.566,2.184,0.4,3.15c-0.367,2.167-1.7,4.3-4,6.4c-2.301,2.133-3.667,3.383-4.101,3.75
			c-1.666,1.433-3.117,2.483-4.35,3.15c1.233,0.133,3.083,0.35,5.55,0.65c2.1,0.067,3.767-0.45,5-1.55
			c1.3-1.133,2.267-1.983,2.9-2.55c1.1-1.033,2-2,2.699-2.9l3.75-4.95c-0.5,1.233-1,2.217-1.5,2.95
			c-1.433,2.2-3.083,4.233-4.949,6.1C79.2,19.583,77.1,21.133,75.1,22c-1.866,0.8-4.283,1.2-7.25,1.2c-2.967,0-5.383-0.4-7.25-1.2
			c0.667-0.7,2.517-2.033,5.55-4c2.434-1.633,4.067-3.217,4.9-4.75c0.733-1.433,1.117-3.383,1.15-5.85C72.066,4.6,72,2.567,72,1.3
			L72.1,0.05z M48.7,7.45l0.1-2.2l1.6-0.4V4.9C49.6,6,49.033,6.85,48.7,7.45z M40.95,24.75L41.1,24c0.133-0.867,0.467-1.65,1-2.35
			c0.733-0.767,1.316-1.417,1.75-1.95c1.3-1.467,2.35-3.15,3.15-5.05c0,2.934-0.05,4.75-0.15,5.45C46.617,22.2,46,23.583,45,24.25
			c-0.5,0.333-1.15,0.5-1.95,0.5C42.117,24.717,41.417,24.717,40.95,24.75z M13.75,58.35c1.267,0.066,2.167,0,2.7-0.2
			c0.4-0.133,1.1-0.667,2.1-1.6c1.333,0.333,2.817,0.383,4.45,0.15c1.367-0.167,2.433-0.767,3.2-1.8
			c0.4-0.533,0.983-1.717,1.75-3.55c0.933-2.167,1.65-3.65,2.15-4.45c0.967-1.533,2.133-2.633,3.5-3.3
			c1.667-0.7,2.867-1.267,3.6-1.7c-0.633,1.167-1.367,2.117-2.2,2.85c-0.367,0.333-1.083,0.717-2.15,1.15c-1,0.4-1.667,0.8-2,1.2
			c-0.4,0.467-0.684,1.417-0.85,2.85c-0.233,1.966-0.367,3.017-0.4,3.15c-0.333,1.367-0.667,2.4-1,3.1c-0.533,1.1-1.25,1.9-2.15,2.4
			c-0.633,0.4-2.15,0.783-4.55,1.15c-1.5,0-2.783,0-3.85,0L17,59.7c-0.833,0-1.5-0.1-2-0.3c-0.167-0.066-0.317-0.15-0.45-0.25
			c-0.061-0.043-0.119-0.085-0.175-0.125L14.35,59c-0.133-0.1-0.267-0.25-0.4-0.45L13.75,58.35z M37,71.9
			c-0.367,0.167-0.7,0.233-1,0.2c-0.8,0-1.817-0.583-3.05-1.75l-1.05-1.1c0.533-0.2,0.917-0.367,1.15-0.5
			c0.467-0.2,0.784-0.583,0.95-1.15c0.467-1.6-0.2-4.1-2-7.5c1.667-0.5,3.433,0,5.3,1.5c1.8,1.4,2.867,3,3.2,4.8
			c-0.9-0.1-1.667-0.316-2.3-0.65c-0.233,0.433-0.317,1.067-0.25,1.9c0.1,1.067,0.133,1.733,0.1,2
			C37.883,70.683,37.533,71.433,37,71.9z M51.5,62.25c-1.033,1.067-2.333,1.983-3.9,2.75c-1.6,0.8-3.2,1.267-4.8,1.4
			c0.233-0.133,0.534-0.417,0.9-0.85c0.5-0.566,0.867-0.966,1.1-1.2c0.9-0.9,2.083-1.517,3.55-1.85c0.5-0.133,1.816-0.317,3.95-0.55
			L51.5,62.25z M80.5,67.65c-0.333-0.133-0.717-0.233-1.15-0.3c-0.133-2.733-0.199-4.767-0.199-6.1c0-2.333,0.399-4.183,1.199-5.55
			c0.967-1.667,3.034-2.383,6.2-2.15c4.2,0.3,6.684,0.333,7.45,0.1c0.267-0.1,1.116-0.633,2.55-1.6
			c1.066-0.733,2.017-1.017,2.851-0.85c0.733,0.167,1.616,1.017,2.649,2.55c0.167,0.233,0.851,1.35,2.05,3.35l0.051,0.1l0.05,0.3
			c-0.533-0.2-1.2-0.3-2-0.3c-1.867-0.1-2.816-0.15-2.851-0.15c-1.566,0-2.533,0.184-2.899,0.55c-0.167,0.167-0.4,0.783-0.7,1.85
			c-0.366,1.1-0.616,1.75-0.75,1.95c-0.634,1-1.267,1.75-1.9,2.25c-0.699,0.533-1.583,0.9-2.649,1.1c-2.134,0.167-3.634,0.3-4.5,0.4
			c-1.533,0.1-2.934,0.617-4.2,1.55L80.5,67.65z M105.05,63.8l0.3,1.85c-0.066,0.6-0.05,1.167,0.051,1.7
			c-0.634-1.233-0.784-2.317-0.45-3.25L105.05,63.8z M19.8,55.6c2.067-1.533,3.483-2.833,4.25-3.9c0.767-1.1,1.233-2.434,1.4-4
			c0.033-0.467,0.033-1.917,0-4.35c4.9-1.867,7.4-4.917,7.5-9.15c0.066-2.067,0.033-3.417-0.1-4.05c-0.067-0.3-0.367-1.133-0.9-2.5
			c-0.4-0.967-0.517-1.816-0.35-2.55c0.233-1.233,1.6-3,4.1-5.3c2.167-1.966,3.05-3.833,2.65-5.6c-0.333-1.034-0.583-1.8-0.75-2.3
			c-0.3-0.933-0.367-1.767-0.2-2.5c0.267-1.133,0.883-2.2,1.85-3.2h0.6c0.4,2.2,0.617,3.867,0.65,5c0,4.066-0.45,7.017-1.35,8.85
			c-0.833,1.667-2.066,3.2-3.7,4.6c-0.2,0.2-0.667,0.5-1.4,0.9c-0.667,0.4-1.05,0.784-1.15,1.15c-0.1,0.533,0.15,1.3,0.75,2.3
			c0.767,1.233,1.184,1.983,1.25,2.25c0.3,1.133,0.483,2.75,0.55,4.85c0.066,1.267-0.034,2.35-0.3,3.25
			c-0.3,0.967-0.816,1.883-1.55,2.75c-0.434,0.5-1.4,1.383-2.9,2.65c-1.1,0.933-1.917,1.933-2.45,3
			c-1.367,2.633-2.833,4.75-4.4,6.35c-0.633,0.667-1.3,1.1-2,1.3C21.35,55.533,20.667,55.6,19.8,55.6z M59.7,31.15l0.15-0.35
			L62,29.25c-0.7,1.567-1.633,3.8-2.8,6.7c-1.133,2.533-2.417,4.65-3.85,6.35c-1.2,1.4-2.117,2.284-2.75,2.65
			c-0.8,0.5-1.917,0.767-3.35,0.8c-0.8,0.067-1.483,0.117-2.05,0.15c-1.1,0.033-1.767-0.05-2-0.25c-1.2-1.1-0.367-2.017,2.5-2.75
			c1,0.467,2.216,0.583,3.65,0.35c0.867-0.167,1.667-0.55,2.4-1.15c0.533-0.4,1.183-1.05,1.95-1.95c2.033-2.367,3.25-4.65,3.65-6.85
			L59.7,31.15z M46.95,67.35l-1.4,0.9c-0.633,0.367-1.35,0.667-2.15,0.9c0.733-0.566,1.35-0.967,1.85-1.2
			C45.817,67.683,46.383,67.483,46.95,67.35z"/>
		<path style="fill-rule:evenodd;clip-rule:evenodd;fill:#DDEAF9;" d="M93.65,21.15c0.8-0.867,2.05-1.3,3.75-1.3
			c1.933,0.033,3.283-0.2,4.05-0.7c1.033-0.633,2.05-1.883,3.05-3.75c0.4-0.7,1.1-2.2,2.1-4.5c0.601-1.167,1.101-2.75,1.5-4.75V6.1
			l1.4,1c-0.066,2.1-0.533,4.167-1.4,6.2c-0.933,2.067-2.149,3.717-3.649,4.95C102.384,19.983,98.783,20.95,93.65,21.15z
			 M98.85,21.6c3,0,5.167-0.417,6.5-1.25l0.15-0.1c-0.866,1-1.55,1.633-2.05,1.9c-0.834,0.4-1.816,0.383-2.95-0.05L98.85,21.6z
			 M96.55,21.55c0.4,0.133,0.884,0.4,1.45,0.8c0.4,0.3,0.733,0.667,1,1.1c0.434,0.7,0.717,1.133,0.85,1.3
			c0.301,0.4,0.884,0.883,1.75,1.45c0.834,0.566,1.417,1.066,1.75,1.5c1.233,1.566,1.733,3.216,1.5,4.95
			c-0.133,1.033-0.566,2.733-1.3,5.1c-0.2,0.933-0.283,2.167-0.25,3.7c0,0.833,0.033,2.066,0.101,3.7
			c0.033,1.133,0.166,2.367,0.399,3.7c0.066-1.8,0.167-3.15,0.3-4.05c0.367,0.9,0.917,3.067,1.65,6.5c0.6,3.034,1.333,5.25,2.2,6.65
			l0.25,0.65c0.3,0.7,0.717,1.55,1.25,2.55c0.333,0.567,0.8,1.4,1.399,2.5c0.567,0.967,1.017,1.983,1.351,3.05
			c0.666,2,0.467,4.333-0.601,7c-1.399,3.4-2.133,5.716-2.199,6.95c-0.934,0.2-2.317,0.067-4.15-0.4
			c-1.434-0.4-2.483-0.683-3.15-0.85c-1.1-0.267-2.083-0.417-2.949-0.45H99.1c-0.3-0.267-0.633-0.517-1-0.75l-2.1-1
			c-1.634-0.5-2.884-0.9-3.75-1.2c-0.066,0-0.116-0.017-0.15-0.05c-0.133-0.067-0.267-0.117-0.399-0.15
			c-0.033,0-0.066-0.017-0.101-0.05c-0.767-0.3-1.483-0.683-2.149-1.15c-0.134-0.1-0.283-0.217-0.45-0.35l0.05-0.95
			c0.767-0.133,1.917,0.25,3.45,1.15c1.733,1.033,2.884,1.6,3.45,1.7c2.066,0.4,3.733,0.4,5,0c1.333-0.433,2.5-1.2,3.5-2.3
			c1.1-1.167,1.616-2.383,1.55-3.65c-0.267-1.2-0.467-2.15-0.6-2.85c-0.101-0.533-0.117-1.1-0.051-1.7l-0.3-1.85
			c-0.399-2.267-0.684-4.367-0.85-6.3l-0.05-0.3l-0.051-0.1c-1.199-2-1.883-3.117-2.05-3.35c-1.033-1.533-1.916-2.383-2.649-2.55
			c-0.834-0.167-1.784,0.117-2.851,0.85c-1.434,0.967-2.283,1.5-2.55,1.6c-0.767,0.233-3.25,0.2-7.45-0.1
			c-3.166-0.233-5.233,0.483-6.2,2.15c-0.8,1.367-1.199,3.216-1.199,5.55c0,1.333,0.066,3.367,0.199,6.1
			c-0.733-0.133-1.833-0.184-3.3-0.15c-1.533,0.033-2.55,0.017-3.05-0.05c-0.1-0.5-0.066-1.15,0.1-1.95
			c0.233-1.167,0.351-1.833,0.351-2c0.1-0.867,0.116-2.233,0.05-4.1c-0.1,1.367-0.6,2.583-1.5,3.65c-0.467,0.533-1.467,1.383-3,2.55
			c-1.133,0.833-1.667,2.133-1.6,3.9c0.1,2.667,0.1,4.183,0,4.55c-0.3,1.1-0.9,2.35-1.8,3.75c-0.934,1.4-1.85,2.467-2.75,3.2
			c-1.9,1.6-5.167,2.433-9.8,2.5c-0.2-0.133-0.4-0.284-0.6-0.45L52.1,82.5c-0.434-0.367-0.85-0.733-1.25-1.1l0.45-0.2
			c0.467-0.1,1.233-0.1,2.3,0c1.1,0.1,1.85,0.117,2.25,0.05c1.133-0.2,2.717-0.783,4.75-1.75c2.733-1.367,4.4-2.633,5-3.8
			c0.467-0.867,0.6-1.967,0.4-3.3c-0.333-1.467-0.517-2.566-0.55-3.3c-0.034-1.267,0.367-2.9,1.2-4.9
			c0.633-1.534,1.417-3.017,2.35-4.45c1.4-2.233,2.017-3.95,1.85-5.15c-0.199-1.467-1.633-2.283-4.3-2.45
			c0.7-1.033,1.9-1.633,3.601-1.8c0.966-0.067,2.366-0.1,4.199-0.1c0.834-0.1,2.184-0.183,4.051-0.25
			c1.767-0.033,3.116-0.117,4.05-0.25c4.066-0.5,6.6-3.233,7.6-8.2c0.3-1.566,0.45-5.667,0.45-12.3v-6
			c1.066-0.833,2.017-1.4,2.85-1.7c0.167-0.1,0.317-0.15,0.45-0.15l1.9,0.1L96.55,21.55z M112.25,56.8
			c0.5-0.433,0.983-0.566,1.45-0.4c0.333,0.1,0.967,0.4,1.899,0.9c1.934,0.9,3.017,1.4,3.25,1.5c1.167,0.6,2.2,1.217,3.101,1.85
			l1,0.8c-0.033,0.133-0.15,0.267-0.351,0.4c-0.166,0.167-0.366,0.3-0.6,0.4c-0.167,0.067-0.667,0.167-1.5,0.3s-1.333,0.2-1.5,0.2
			c-0.434,0-0.8-0.067-1.1-0.2c-1-0.333-2.017-1.083-3.051-2.25c-0.5-0.533-1.25-1.517-2.25-2.95L112.25,56.8z M96.5,35.65
			c-0.767-1.2-1.267-2.333-1.5-3.4l-2.5-1.5c0.366,3.2,0.467,5.6,0.3,7.2c-0.2,2.333-0.95,4.583-2.25,6.75
			c-0.5,0.867-1.233,1.7-2.2,2.5c-0.466,0.4-1.383,1.066-2.75,2c-1.699,1.2-4.267,1.966-7.699,2.3c-5.4,0.533-8.167,0.817-8.3,0.85
			c1.433,0.433,3.483,0.667,6.15,0.7c3.566,0.067,5.65,0.133,6.25,0.2c1.967,0.2,3.866-0.217,5.7-1.25
			c2.066-1.5,3.717-2.65,4.95-3.45c1.933-0.8,3.3-1.367,4.1-1.7c1.333-0.567,2.066-1.6,2.2-3.1c0.233-2.1,0.066-3.767-0.5-5
			C98.316,38.45,97.667,37.417,96.5,35.65z M126.25,53.9c-1.533-1.4-2.6-3.4-3.2-6c-0.566-2.566-0.899-5.066-1-7.5
			c-0.1-2.767,0.167-4.983,0.8-6.65c1,2.667,2.784,3.633,5.351,2.9s3.5-2.533,2.8-5.4c-0.167-0.7-0.967-1.95-2.4-3.75
			c-0.966-1.2-1.05-2.45-0.25-3.75c0.267-0.433,0.733-1.017,1.4-1.75c0.7-0.767,1.167-1.333,1.4-1.7c0.267,0.133,0.55,0.3,0.85,0.5
			c0.233,0.1,0.5,0.233,0.8,0.4l2.15,1.15l0.5,1.35c0.967,2.4,1.184,4.617,0.649,6.65c-0.433,1.566-1.517,3.533-3.25,5.9
			c-1.333,1.8-2.916,2.917-4.75,3.35c-1.233,0.3-2.216,0.167-2.949-0.4c-0.801-0.9-1.534-1.6-2.2-2.1
			c-0.601,0.533-0.851,1.733-0.75,3.6c0.066,1.4,0.267,2.75,0.6,4.05c0.233,0.833,0.75,1.867,1.55,3.1
			c0.867,1.367,1.417,2.367,1.65,3C126.434,52.05,126.517,53.067,126.25,53.9z M42.8,66.4c1.6-0.133,3.2-0.6,4.8-1.4
			c1.566-0.767,2.867-1.683,3.9-2.75l6-2l-0.5,0.4c-0.333,0.333-0.967,1.15-1.9,2.45c-0.767,1.033-1.517,1.783-2.25,2.25
			c-0.867,0.533-2.05,0.983-3.55,1.35c-0.267-0.4-1.05-0.184-2.35,0.65c-0.567,0.133-1.133,0.333-1.7,0.6
			c-0.5,0.233-1.117,0.633-1.85,1.2c-0.2,0.067-1.017,0.25-2.45,0.55c-0.8,0.2-1.217,0.3-1.25,0.3c-0.2,0.1-0.383,0.367-0.55,0.8
			c-0.1,0.034-0.2,0.067-0.3,0.1c-0.267,0.067-0.55,0.2-0.85,0.4c-0.533,0.333-0.867,0.534-1,0.6c0.533-0.467,0.883-1.217,1.05-2.25
			c0.034-0.267,0-0.933-0.1-2c-0.067-0.833,0.017-1.467,0.25-1.9c0.633,0.333,1.4,0.55,2.3,0.65C41.233,66.5,42,66.5,42.8,66.4z
			 M87.85,8.3l-3.75,4.95c-0.699,0.9-1.6,1.867-2.699,2.9c-0.634,0.567-1.601,1.417-2.9,2.55c-1.233,1.1-2.9,1.617-5,1.55
			c-2.467-0.3-4.317-0.517-5.55-0.65c1.233-0.667,2.684-1.717,4.35-3.15c0.434-0.367,1.8-1.617,4.101-3.75
			c2.3-2.1,3.633-4.233,4-6.4c0.166-0.966,0.033-2.017-0.4-3.15c-0.634-1.3-1.1-2.283-1.4-2.95l4,0.25l2.4,0.2
			c0,2.967-0.483,5.283-1.45,6.95c-0.666,1.267-2.35,3.2-5.05,5.8c1.167,0.967,3.384,0.067,6.65-2.7
			c2.466-2.133,4.633-5.417,6.5-9.85V0.8l0.25,0.05h0.05C91.783,2.083,91.434,3.133,90.9,4C89.8,5.667,88.783,7.1,87.85,8.3z
			 M47,14.65c-0.8,1.9-1.85,3.583-3.15,5.05c-0.434,0.533-1.017,1.183-1.75,1.95c-0.533,0.7-0.867,1.483-1,2.35l-0.15,0.75
			c-0.067,0.733-0.083,1.667-0.05,2.8c0,0.6,0.033,1.517,0.1,2.75c0,2.233-0.05,3.817-0.15,4.75c-0.167,1.934-0.583,3.45-1.25,4.55
			c-0.533,0.9-1.333,1.667-2.4,2.3c-0.733,0.434-1.934,1-3.6,1.7c-1.367,0.667-2.533,1.767-3.5,3.3c-0.5,0.8-1.217,2.283-2.15,4.45
			c-0.767,1.833-1.35,3.017-1.75,3.55c-0.767,1.033-1.833,1.633-3.2,1.8c-1.633,0.233-3.117,0.183-4.45-0.15
			c-0.633-0.133-1.267-0.367-1.9-0.7c0.667-0.167,1.717-0.25,3.15-0.25c0.867,0,1.55-0.067,2.05-0.2c0.7-0.2,1.367-0.633,2-1.3
			c1.566-1.6,3.033-3.717,4.4-6.35c0.533-1.067,1.35-2.067,2.45-3c1.5-1.267,2.466-2.15,2.9-2.65c0.733-0.867,1.25-1.783,1.55-2.75
			c0.267-0.9,0.367-1.983,0.3-3.25c-0.067-2.1-0.25-3.717-0.55-4.85c-0.066-0.267-0.483-1.017-1.25-2.25c-0.6-1-0.85-1.767-0.75-2.3
			c0.1-0.367,0.483-0.75,1.15-1.15c0.733-0.4,1.2-0.7,1.4-0.9c1.633-1.4,2.867-2.933,3.7-4.6c0.9-1.833,1.35-4.783,1.35-8.85
			c-0.033-1.133-0.25-2.8-0.65-5l3.65-0.1c0,3.733-0.3,6.683-0.9,8.85c-1.033,3.566-2.85,6.65-5.45,9.25
			c0.434-0.4,1.883-1.417,4.35-3.05c1.833-1.233,3.117-2.4,3.85-3.5c0.933-1.4,1.3-3.267,1.1-5.6c-0.367-2.633-0.517-4.566-0.45-5.8
			l-0.25-0.4L45.7,5.8c0.3-0.033,0.6-0.066,0.9-0.1l0.3-0.05c0.367-0.1,0.767-0.183,1.2-0.25c0.233-0.033,0.467-0.083,0.7-0.15
			l-0.1,2.2C48.4,10.283,47.833,12.683,47,14.65z M47.7,42.9c-0.667-0.233-1.067-0.583-1.2-1.05c1.167-0.367,2.45-1.184,3.85-2.45
			c0.267-0.233,1.35-1.333,3.25-3.3c0.033,0,0.8-1.217,2.3-3.65c1.233-2,2.133-2.967,2.7-2.9c-0.367,0.934-0.883,1.833-1.55,2.7
			c-0.367,0.5-1.15,1.417-2.35,2.75c-1.333,1.433-2.034,2.183-2.1,2.25c-1,1.133-1.533,1.933-1.6,2.4
			c1.6,0.533,3.767-0.983,6.5-4.55c0.8-1.033,1.533-2.35,2.2-3.95l-0.35,2.15c-0.4,2.2-1.617,4.483-3.65,6.85
			c-0.767,0.9-1.417,1.55-1.95,1.95c-0.733,0.6-1.533,0.983-2.4,1.15C49.917,43.483,48.7,43.367,47.7,42.9z M60.75,26.1
			c0.5-1.533,1.083-2.65,1.75-3.35l-1.7,3.3L60.75,26.1z"/>
		<path style="fill-rule:evenodd;clip-rule:evenodd;fill:#BACDDF;" d="M109.5,7.1l2.35,1.7c1.5,1.1,3.367,2.45,5.601,4.05v0.05
			c-0.3,0.2-0.5,0.317-0.601,0.35c-0.6,0.367-1.55,0.75-2.85,1.15c-1.5,0.434-2.483,0.75-2.95,0.95
			c-0.967,0.433-1.95,1.217-2.95,2.35c-1.133,1.3-2,2.15-2.6,2.55l-0.15,0.1c-1.333,0.833-3.5,1.25-6.5,1.25l-1.55-0.05l-1.6-0.05
			l-1.9-0.1l-0.35-0.05c-1.967-0.067-3.101-0.1-3.4-0.1l3.601-0.1c5.133-0.2,8.733-1.167,10.8-2.9c1.5-1.233,2.717-2.883,3.649-4.95
			C108.967,11.267,109.434,9.2,109.5,7.1z M126.25,53.9c0.267-0.833,0.184-1.85-0.25-3.05c-0.233-0.633-0.783-1.633-1.65-3
			c-0.8-1.233-1.316-2.267-1.55-3.1c-0.333-1.3-0.533-2.65-0.6-4.05c-0.101-1.867,0.149-3.067,0.75-3.6c0.666,0.5,1.399,1.2,2.2,2.1
			c0.733,0.566,1.716,0.7,2.949,0.4c1.834-0.434,3.417-1.55,4.75-3.35c1.733-2.367,2.817-4.333,3.25-5.9
			c0.534-2.033,0.317-4.25-0.649-6.65l-0.5-1.35c1.7,0.867,3.05,1.683,4.05,2.45c0.667,0.534,1.15,1.034,1.45,1.5
			c0.967,1.567,1.1,4.617,0.399,9.15c-0.5,3.566-1.833,6.45-4,8.65c-0.5,0.5-1.3,1.183-2.399,2.05c-1.2,0.9-2.033,1.583-2.5,2.05
			c-0.767,0.767-1.634,1.8-2.601,3.1c-0.533,0.7-1.333,1.767-2.399,3.2c-1.134,1.467-1.75,2.95-1.851,4.45
			c0,0.2,0.117,1.767,0.351,4.7c0,0.1,0.083,0.233,0.25,0.4c0.166,0.133,0.233,0.35,0.2,0.65c0,0.133-0.301,0.633-0.9,1.5
			c-0.366,0.7-0.833,1.9-1.4,3.6c-0.767,2.467-1.35,4-1.75,4.6c-0.666,1.067-1.949,1.967-3.85,2.7c-1,0.333-1.783,0.6-2.35,0.8
			c-1,0.4-1.684,0.867-2.051,1.4c-0.166,0.233-0.283,0.7-0.35,1.4c-0.1,0.733-0.233,1.233-0.4,1.5c-1.3,2.5-3.017,3.667-5.149,3.5
			c-1.967-0.167-3.834-1.35-5.601-3.55c-0.733-0.933-1.366-1.683-1.899-2.25l-0.2-0.2c-0.333-0.3-0.634-0.55-0.9-0.75h0.051
			c0.866,0.033,1.85,0.183,2.949,0.45c0.667,0.167,1.717,0.45,3.15,0.85c1.833,0.467,3.217,0.6,4.15,0.4
			c0.066-1.233,0.8-3.55,2.199-6.95c1.067-2.667,1.267-5,0.601-7c-0.334-1.067-0.783-2.083-1.351-3.05
			c-0.6-1.1-1.066-1.933-1.399-2.5c-0.533-1-0.95-1.85-1.25-2.55l-0.25-0.65c-0.367-1.133-0.566-2.65-0.601-4.55
			c0-2.8-0.017-4.316-0.05-4.55c0.7,1.7,2.351,4.35,4.95,7.95l0.35,0.55c1,1.433,1.75,2.417,2.25,2.95
			c1.034,1.167,2.051,1.917,3.051,2.25c0.3,0.133,0.666,0.2,1.1,0.2c0.167,0,0.667-0.067,1.5-0.2s1.333-0.233,1.5-0.3
			c0.233-0.1,0.434-0.233,0.6-0.4c0.2-0.133,0.317-0.267,0.351-0.4c0.166-0.3,0.267-0.733,0.3-1.3c0.033-0.7,0.1-1.2,0.2-1.5
			c0.133-0.467,0.416-1.066,0.85-1.8c0.533-0.667,0.917-1.167,1.15-1.5C125.85,54.817,126.116,54.333,126.25,53.9z M96.5,35.65
			c1.167,1.767,1.816,2.8,1.95,3.1c0.566,1.233,0.733,2.9,0.5,5c-0.134,1.5-0.867,2.533-2.2,3.1c-0.8,0.333-2.167,0.9-4.1,1.7
			c-1.233,0.8-2.884,1.95-4.95,3.45c-1.834,1.033-3.733,1.45-5.7,1.25c-0.6-0.067-2.684-0.133-6.25-0.2
			c-2.667-0.033-4.717-0.267-6.15-0.7c0.133-0.033,2.9-0.317,8.3-0.85c3.433-0.333,6-1.1,7.699-2.3c1.367-0.934,2.284-1.6,2.75-2
			c0.967-0.8,1.7-1.633,2.2-2.5c1.3-2.167,2.05-4.417,2.25-6.75c0.167-1.6,0.066-4-0.3-7.2l2.5,1.5
			C95.233,33.317,95.733,34.45,96.5,35.65z M80.5,67.65c0.733,0.267,1.316,0.684,1.75,1.25v0.05c-0.167-0.1-0.316-0.184-0.45-0.25
			c-0.1-0.034-0.2-0.067-0.3-0.1c-1.4-0.5-2.7-0.417-3.9,0.25c-0.366,0.2-1.399,1-3.1,2.4c-0.4,0.333-1.217,0.783-2.45,1.35
			c-1.1,0.467-1.883,0.967-2.35,1.5c-0.267,0.267-0.6,0.8-1,1.6c-0.367,0.7-0.733,1.216-1.1,1.55c-0.233,0.2-1.15,0.85-2.75,1.95
			c-1.033,0.7-1.817,1.533-2.35,2.5c-1.167,2.133-2.217,3.383-3.15,3.75c-1.1,0.4-2.75-0.05-4.95-1.35l-1.35-0.9
			c4.633-0.067,7.9-0.9,9.8-2.5c0.9-0.733,1.816-1.8,2.75-3.2c0.9-1.4,1.5-2.65,1.8-3.75c0.1-0.367,0.1-1.883,0-4.55
			c-0.066-1.767,0.467-3.067,1.6-3.9c1.533-1.167,2.533-2.017,3-2.55c0.9-1.067,1.4-2.283,1.5-3.65c0.066,1.867,0.05,3.233-0.05,4.1
			c0,0.167-0.117,0.833-0.351,2C72.934,66,72.9,66.65,73,67.15c0.5,0.067,1.517,0.083,3.05,0.05c1.467-0.034,2.566,0.017,3.3,0.15
			C79.783,67.417,80.167,67.517,80.5,67.65z M43.4,69.15c0.8-0.233,1.517-0.533,2.15-0.9l1.4-0.9c1.3-0.833,2.083-1.05,2.35-0.65
			c0.1,0.1,0.15,0.233,0.15,0.4c-3.867,1.367-6.15,2.833-6.85,4.4c-1-0.733-2.033-1-3.1-0.8l-0.35,0.1
			c0.167-0.433,0.35-0.7,0.55-0.8c0.033,0,0.45-0.1,1.25-0.3C42.383,69.4,43.2,69.217,43.4,69.15z M86.55,0.7l5.101,0.1v0.05
			c-1.867,4.433-4.034,7.717-6.5,9.85c-3.267,2.767-5.483,3.667-6.65,2.7c2.7-2.6,4.384-4.533,5.05-5.8
			C84.517,5.933,85,3.617,85,0.65L86.55,0.7z M43.5,6.1l2.2-0.3l0.05,0.05L46,6.25c-0.067,1.233,0.083,3.167,0.45,5.8
			c0.2,2.333-0.167,4.2-1.1,5.6c-0.733,1.1-2.017,2.267-3.85,3.5c-2.467,1.633-3.917,2.65-4.35,3.05c2.6-2.6,4.417-5.684,5.45-9.25
			C43.2,12.783,43.5,9.833,43.5,6.1z M59.85,30.8l-0.15,0.35c-0.667,1.6-1.4,2.917-2.2,3.95c-2.733,3.566-4.9,5.083-6.5,4.55
			c0.067-0.467,0.6-1.267,1.6-2.4c0.066-0.067,0.767-0.817,2.1-2.25c1.2-1.333,1.983-2.25,2.35-2.75
			c0.667-0.867,1.184-1.767,1.55-2.7c0.233-0.566,0.533-1.5,0.9-2.8l1.25-0.65l0.05-0.05l0.7-0.3
			C61.1,27.55,60.55,29.233,59.85,30.8z"/>
		<path style="fill-rule:evenodd;clip-rule:evenodd;fill:#FFFFFF;" d="M97.3,21.55h-0.75L95.7,21.5L97.3,21.55z M80.5,67.65
			l1.25-0.95c1.267-0.934,2.667-1.45,4.2-1.55c0.866-0.1,2.366-0.233,4.5-0.4c1.066-0.2,1.95-0.567,2.649-1.1
			c0.634-0.5,1.267-1.25,1.9-2.25c0.134-0.2,0.384-0.85,0.75-1.95c0.3-1.067,0.533-1.684,0.7-1.85
			c0.366-0.367,1.333-0.55,2.899-0.55c0.034,0,0.983,0.05,2.851,0.15c0.8,0,1.467,0.1,2,0.3c0.166,1.933,0.45,4.033,0.85,6.3
			l-0.1,0.3c-0.334,0.933-0.184,2.017,0.45,3.25c0.133,0.7,0.333,1.65,0.6,2.85c0.066,1.267-0.45,2.483-1.55,3.65
			c-1,1.1-2.167,1.867-3.5,2.3c-1.267,0.4-2.934,0.4-5,0c-0.566-0.1-1.717-0.667-3.45-1.7c-1.533-0.9-2.684-1.284-3.45-1.15
			L89,74.25c-0.366-0.333-0.717-0.683-1.05-1.05c-0.434-0.8-0.783-1.3-1.05-1.5c-0.2-0.133-0.45-0.217-0.75-0.25
			c-0.334-0.034-0.551-0.083-0.65-0.15c-0.134-0.066-0.783-0.566-1.95-1.5c-0.5-0.4-0.934-0.7-1.3-0.9
			C81.816,68.333,81.233,67.917,80.5,67.65z M126.25,53.9c-0.134,0.434-0.4,0.917-0.8,1.45c-0.233,0.333-0.617,0.833-1.15,1.5
			c-2.767-1.1-5.267-2.767-7.5-5c-2.2-2.233-3.85-4.767-4.95-7.6c-0.899-2.3-1.5-5.35-1.8-9.15c-0.2-1.867-0.3-2.9-0.3-3.1
			c-0.1-1.433-0.017-2.45,0.25-3.05c0.5-1.1,1.667-1.767,3.5-2c1.634-0.2,3.15-0.05,4.55,0.45c2.101,0.767,3.2,2.15,3.3,4.15
			c0.067,1.167-0.05,3.067-0.35,5.7c0.033,0.967,0.384,2.017,1.05,3.15c0.101,2.434,0.434,4.934,1,7.5
			C123.65,50.5,124.717,52.5,126.25,53.9z M57,60.65l0.5-0.4l-6,2l0.8-0.3c-2.133,0.233-3.45,0.417-3.95,0.55
			c-1.467,0.333-2.65,0.95-3.55,1.85c-0.233,0.233-0.6,0.633-1.1,1.2c-0.367,0.434-0.667,0.717-0.9,0.85c-0.8,0.1-1.566,0.1-2.3,0
			c-0.333-1.8-1.4-3.4-3.2-4.8c-1.867-1.5-3.633-2-5.3-1.5c1.8,3.4,2.467,5.9,2,7.5c-0.167,0.566-0.483,0.95-0.95,1.15
			c-0.233,0.133-0.617,0.3-1.15,0.5l1.05,1.1c-2.133-2.033-4.05-4.4-5.75-7.1c-1.167-1.867-2.6-2.983-4.3-3.35
			c-0.133,0-1.75-0.05-4.85-0.15c1.067,0,2.35,0,3.85,0c2.4-0.367,3.917-0.75,4.55-1.15c0.9-0.5,1.617-1.3,2.15-2.4
			c0.333-0.7,0.667-1.733,1-3.1c0.033-0.133,0.167-1.184,0.4-3.15c0.167-1.434,0.45-2.383,0.85-2.85c0.333-0.4,1-0.8,2-1.2
			c1.066-0.433,1.783-0.816,2.15-1.15c0.833-0.733,1.567-1.683,2.2-2.85c1.066-0.633,1.867-1.4,2.4-2.3
			c0.667-1.1,1.083-2.617,1.25-4.55c0.1-0.933,0.15-2.517,0.15-4.75c-0.067-1.233-0.1-2.15-0.1-2.75
			c-0.033-1.133-0.017-2.066,0.05-2.8c0.466-0.033,1.167-0.033,2.1,0c0.8,0,1.45-0.167,1.95-0.5c1-0.667,1.617-2.05,1.85-4.15
			c0.1-0.7,0.15-2.517,0.15-5.45c0.833-1.967,1.4-4.367,1.7-7.2c0.333-0.6,0.9-1.45,1.7-2.55c1.167-0.333,1.483-0.583,0.95-0.75
			c0.5-0.267,1.4-0.533,2.7-0.8c0.467-0.1,2.55-0.517,6.25-1.25c2.467-0.5,4.534-0.95,6.2-1.35c1.567-0.4,3.433-0.633,5.6-0.7
			L72,1.3c0,1.267,0.066,3.3,0.2,6.1c-0.033,2.467-0.417,4.417-1.15,5.85c-0.833,1.533-2.466,3.117-4.9,4.75
			c-3.033,1.967-4.883,3.3-5.55,4c1.867,0.8,4.283,1.2,7.25,1.2c2.966,0,5.383-0.4,7.25-1.2c2-0.867,4.101-2.417,6.301-4.65
			c1.866-1.867,3.517-3.9,4.949-6.1c0.5-0.733,1-1.717,1.5-2.95C88.783,7.1,89.8,5.667,90.9,4c0.533-0.867,0.883-1.917,1.05-3.15
			c2.066,0.133,3.95,0.367,5.649,0.7c0.434,0.1,0.867,0.2,1.301,0.3c0.6,2.767,0.449,4.75-0.45,5.95
			c-0.634,0.867-1.934,1.784-3.9,2.75c-2.2,1.1-3.616,1.95-4.25,2.55c-2.866,2.8-4.333,5.316-4.399,7.55
			c-0.034,1.5,0.6,3.617,1.899,6.35c1.267,2.633,1.834,4.783,1.7,6.45c-0.066,1-0.333,2.15-0.8,3.45
			c-0.667,1.867-1.05,2.967-1.15,3.3c-0.133,0.7-0.217,1.333-0.25,1.9c-0.133,0.333-0.666,0.75-1.6,1.25
			c-0.566,0.3-1.434,0.566-2.601,0.8c-1.199,0.267-2.033,0.5-2.5,0.7c-0.533,0.267-1.216,0.833-2.05,1.7
			c-0.833,0.867-1.5,1.417-2,1.65c-1.267,0.667-3.149,0.917-5.649,0.75c-3.134-0.2-5.083-0.25-5.851-0.15
			c0,0.067-0.066,1.233-0.2,3.5c-0.067,1.434-0.383,2.534-0.95,3.3C62.533,57.467,60.233,59.15,57,60.65z M50.85,81.4
			c-0.4-0.367-0.783-0.767-1.15-1.2c-1.167-1.233-2.417-2.85-3.75-4.85c-0.43-0.688-0.846-1.288-1.25-1.8
			c0.015,0.016,0.032,0.032,0.05,0.05c1-0.6,2.383-1.55,4.15-2.85c1.934-1.433,3.3-2.4,4.1-2.9c1.4-0.9,2.85-1.467,4.35-1.7
			c2-0.3,2.883,0.434,2.65,2.2c-0.167,1.333-1.05,2.367-2.65,3.1c-2,0.933-3.167,1.633-3.5,2.1c-0.434,0.567-0.6,1.567-0.5,3
			c0.066,1.5-0.1,2.55-0.5,3.15c-0.333,0.633-0.85,1.133-1.55,1.5L50.85,81.4z M93.35,21.55l0.101-0.2l0.35,0.05
			C93.667,21.4,93.517,21.45,93.35,21.55z M82.6,0.45c1.762,0.108,3.078,0.191,3.95,0.25L85,0.65L82.6,0.45z M18.55,56.55
			c-1,0.934-1.7,1.467-2.1,1.6c-0.534,0.2-1.434,0.267-2.7,0.2c-0.333-0.4-0.733-0.967-1.2-1.7C10.317,53.183,7.133,49.233,3,44.8
			c-1.2-1.3-2-3.2-2.4-5.7c-0.233-2.9-0.417-5.017-0.55-6.35c-0.2-2.367,0.517-4.767,2.15-7.2c1.4-2.033,3.25-3.816,5.55-5.35
			c1.033-0.7,1.783-1.3,2.25-1.8c0.367-0.4,0.85-1.117,1.45-2.15c0.533-0.9,1.083-1.55,1.65-1.95c0.467-0.3,1.25-0.617,2.35-0.95
			c2.3-0.667,5.716-1.4,10.25-2.2c3.966-0.867,7.216-2.15,9.75-3.85c0.9-0.6,1.783-0.95,2.65-1.05c0.133-0.033,0.517-0.05,1.15-0.05
			c-0.967,1-1.583,2.066-1.85,3.2c-0.167,0.733-0.1,1.567,0.2,2.5c0.167,0.5,0.417,1.267,0.75,2.3c0.4,1.767-0.483,3.633-2.65,5.6
			c-2.5,2.3-3.867,4.067-4.1,5.3c-0.167,0.733-0.05,1.583,0.35,2.55c0.533,1.367,0.833,2.2,0.9,2.5
			c0.133,0.633,0.167,1.983,0.1,4.05c-0.1,4.233-2.6,7.283-7.5,9.15c0.033,2.433,0.033,3.883,0,4.35c-0.167,1.566-0.633,2.9-1.4,4
			c-0.767,1.066-2.183,2.367-4.25,3.9c-1.433,0-2.483,0.083-3.15,0.25C17.283,56.183,17.917,56.417,18.55,56.55z M58.6,29.55
			c-0.567-0.066-1.467,0.9-2.7,2.9c-1.5,2.433-2.267,3.65-2.3,3.65c-1.9,1.967-2.983,3.066-3.25,3.3
			c-1.4,1.267-2.684,2.083-3.85,2.45c0.133,0.467,0.533,0.816,1.2,1.05c-2.867,0.733-3.7,1.65-2.5,2.75c0.233,0.2,0.9,0.283,2,0.25
			c0.566-0.033,1.25-0.083,2.05-0.15c1.433-0.033,2.55-0.3,3.35-0.8c0.633-0.367,1.55-1.25,2.75-2.65
			c1.433-1.7,2.717-3.816,3.85-6.35c1.167-2.9,2.1-5.133,2.8-6.7l-2.15,1.55c0.7-1.566,1.25-3.25,1.65-5.05l-0.7,0.3l1.7-3.3
			c-0.667,0.7-1.25,1.817-1.75,3.35l-1.25,0.65C59.133,28.05,58.833,28.983,58.6,29.55z M37,71.9c0.133-0.066,0.467-0.267,1-0.6
			c0.3-0.2,0.583-0.333,0.85-0.4c-0.333,0.133-0.717,0.333-1.15,0.6C37.467,71.667,37.233,71.8,37,71.9z"/>
	</g>
</g>
</svg>
